/* XPM */
static char *result[] = {
/* columns rows colors chars-per-pixel */
"64 94 172 2 ",
"   c #4E2812",
".  c #4F2913",
"X  c #502C16",
"o  c #512D18",
"O  c #4F311E",
"+  c #53321E",
"@  c #56321C",
"#  c #4F3625",
"$  c #543523",
"%  c #543623",
"&  c #543624",
"*  c #543725",
"=  c #553725",
"-  c #553726",
";  c #553826",
":  c #553827",
">  c #573A27",
",  c #5A3B27",
"<  c #5E3B25",
"1  c #573B28",
"2  c #573B29",
"3  c #563B2A",
"4  c #563B2B",
"5  c #563C2C",
"6  c #563D2C",
"7  c #573D2D",
"8  c #5B3C29",
"9  c #593D2A",
"0  c #583F2D",
"q  c #583F30",
"w  c #5B4231",
"e  c #584132",
"r  c #5E4532",
"t  c #5A4739",
"y  c #5B473A",
"u  c #5B483B",
"i  c #5B493C",
"p  c #5C493D",
"a  c #5C4B3F",
"s  c #604734",
"d  c #624937",
"f  c #634D3C",
"g  c #5C4B40",
"h  c #5C4D41",
"j  c #5D4D42",
"k  c #5D4E42",
"l  c #5E4F44",
"z  c #5E4F45",
"x  c #5C5147",
"c  c #5C5247",
"v  c #5D5247",
"b  c #5D5248",
"n  c #5D5348",
"m  c #5E5348",
"M  c #5E5349",
"N  c #5F5349",
"B  c #5D5449",
"V  c #5E5449",
"C  c #5E544A",
"Z  c #5F544A",
"A  c #5E554A",
"S  c #5F554A",
"D  c #655444",
"F  c #665444",
"G  c #675544",
"H  c #675545",
"J  c #61574A",
"K  c #61574B",
"L  c #62574B",
"P  c #61584B",
"I  c #62584B",
"U  c #62584C",
"Y  c #63584C",
"T  c #63594C",
"R  c #63594D",
"E  c #645A4D",
"W  c #655C4F",
"Q  c #655C50",
"!  c #655C51",
"~  c #655D51",
"^  c #665D51",
"/  c #665E51",
"(  c #675E51",
")  c #665D52",
"_  c #665E52",
"`  c #675E52",
"'  c #675F52",
"]  c #675E53",
"[  c #675F53",
"{  c #655C55",
"}  c #655E55",
"|  c #655F55",
" . c #655D56",
".. c #665F56",
"X. c #665F57",
"o. c #685F54",
"O. c #665F58",
"+. c #666057",
"@. c #676057",
"#. c #676157",
"$. c #686054",
"%. c #686155",
"&. c #696155",
"*. c #696156",
"=. c #696256",
"-. c #696257",
";. c #696357",
":. c #6A6257",
">. c #666058",
",. c #676058",
"<. c #676158",
"1. c #676159",
"2. c #676258",
"3. c #676259",
"4. c #686158",
"5. c #686159",
"6. c #696358",
"7. c #686259",
"8. c #686359",
"9. c #6A6358",
"0. c #6B6358",
"q. c #6B6359",
"w. c #68625A",
"e. c #69625A",
"r. c #68635A",
"t. c #69635A",
"y. c #69635B",
"u. c #6A635B",
"i. c #69645A",
"p. c #69645B",
"a. c #6A645B",
"s. c #6A655B",
"d. c #6D665A",
"f. c #6D665B",
"g. c #6E675B",
"h. c #69645C",
"j. c #6A645C",
"k. c #6B645C",
"l. c #6A655C",
"z. c #6B655D",
"x. c #6A665C",
"c. c #6B665C",
"v. c #6B665D",
"b. c #6B675D",
"n. c #6C665E",
"m. c #6C675E",
"M. c #6C675F",
"N. c #6E685B",
"B. c #6C685E",
"V. c #6C685F",
"C. c #6D685F",
"Z. c #6F6A61",
"A. c #706B63",
"S. c #706C63",
"D. c #726F67",
"F. c #76736B",
"G. c #767469",
"H. c #79766E",
"J. c #7A776F",
"K. c #7E7B73",
"L. c #828076",
"P. c #828077",
"I. c #848278",
"U. c #86837B",
"Y. c #868579",
"T. c #86847B",
"R. c #8B8A7F",
"E. c #8C8A81",
"W. c #908E86",
"Q. c #94928B",
"!. c #99978F",
"~. c None",
/* pixels */
"~.~.~.~.~.~.~.~.~.~.~.~.~.~.~.~.~.~.~.~.~.~.~.~.~.~.~.~.~.~.~.~.~.~.~.~.~.~.~.~.~.. Y.Y.Y.Y.Y.Q.8 ~.~.~.~.~.~.~.~.~.~.~.~.~.~.~.",
"~.~.~.~.~.~.~.~.~.~.~.~.~.~.~.~.~.~.~.~.~.~.~.~.~.~.~.~.~.~.~.~.~.~.~.~.~.~.~.~.~.. Y.Y.Y.Y.Y.Q.8 ~.~.~.~.~.~.~.~.~.~.~.~.~.~.~.",
"~.~.~.~.~.~.~.~.~.~.~.~.~.~.~.~.~.~.~.~.~.~.~.~.~.~.~.~.~.~.~.~.~.~.~.~.~.~.~.~.~.. Y.Y.Y.Y.Y.Q.8 ~.~.~.~.~.~.~.~.~.~.~.~.~.~.~.",
"~.~.~.~.~.~.~.~.~.~.~.~.~.~.~.~.~.~.~.~.~.~.~.~.~.~.~.~.~.~.~.~.~.~.~.~.~.~.~.~.~.. Y.Y.Y.Y.Y.Q.8 ~.~.~.~.~.~.~.~.~.~.~.~.~.~.~.",
"~.~.~.~.~.~.~.~.~.~.~.~.~.~.~.~.~.~.~.~.~.~.~.~.~.~.~.~.~.~.~.~.~.~.~.~.~.~.~.~.~.. Y.Y.Y.Y.Y.Q.8 ~.~.~.~.~.~.~.~.~.~.~.~.~.~.~.",
"~.~.~.~.~.~.~.~.~.~.~.~.~.~.~.~.~.~.~.~.~.~.~.~.~.~.~.~.~.~.~.~.~.~.~.~.~.~.~.~.~.. Q.Q.Q.Q.Q.Q.8 ~.~.~.~.~.~.~.~.~.~.~.~.~.~.~.",
"~.~.~.~.~.~.~.~.~.~.~.~.~.~.~.~.~.~.~.~.~.~.~.~.~.~.~.~.~.~.~.~.~.~.~.~.~.~.~.~.~.. . D D D D . 8 ~.~.~.~.~.~.~.~.~.~.~.~.~.~.~.",
"~.~.~.~.~.~.~.~.~.~.~.~.~.~.~.~.~.~.~.~.~.~.~.~.~.~.~.~.~.~.~.~.~.~.~.~.~.~.~.~.~.. Y.Y.Y.Y.Y.Q.8 ~.~.~.~.~.~.~.~.~.~.~.~.~.~.~.",
"~.~.~.~.~.~.~.~.~.~.~.~.~.~.~.~.~.~.~.~.~.~.~.~.~.~.~.~.~.~.~.~.~.~.~.~.~.~.~.~.~.. Y.Y.Y.Y.Y.Q.8 ~.~.~.~.~.~.~.~.~.~.~.~.~.~.~.",
"~.~.~.~.~.~.~.~.~.~.~.~.~.~.~.~.~.~.~.~.~.~.~.~.~.~.~.~.~.~.~.~.~.~.~.~.~.~.~.~.~.. Y.Y.Y.Y.Y.Q.8 ~.~.~.~.~.~.~.~.~.~.~.~.~.~.~.",
"~.~.~.~.~.~.~.~.~.~.~.~.~.~.~.~.~.~.~.~.~.~.~.~.~.~.~.~.~.~.~.~.~.~.~.~.~.~.~.~.~.. Y.Y.Y.Y.Y.Q.8 ~.~.~.~.~.~.~.~.~.~.~.~.~.~.~.",
"~.~.~.~.~.~.~.~.~.~.~.~.~.~.~.~.~.~.~.~.~.~.~.~.~.~.~.~.~.~.~.~.~.~.~.~.~.~.~.~.~.. Y.Y.Y.Y.Y.Q.8 ~.~.~.~.~.~.~.~.~.~.~.~.~.~.~.",
", ~., , , , , , , , , , , , , , , , , , , , , , , , , ~., , , , , , , , , , , . . . Y.Y.Y.Y.Y.Q.8 ~.~.~.~.~.~.~.~.~.~.~.~.~.~.~.",
"Y.r Y.Y.Y.Y.Y.Y.Y.Y.Y.Y.Y.Y.Y.Y.Y.Y.Y.Y.Y.Y.Y.Y.Y.Y.R.s R.Y.Y.Y.Y.Y.Y.Y.Y.Y.Y.Y.Y.Y.Y.Y.Y.Y.Y.Q.8 ~.~.~.~.~.~.~.~.~.~.~.~.~.~.~.",
"Y.d Y.Y.Y.Y.Y.Y.Y.Y.Y.Y.Y.Y.Y.Y.Y.Y.Y.Y.Y.Y.Y.Y.Y.Y.R.f R.Y.Y.Y.Y.Y.Y.Y.Y.Y.Y.Y.Y.Y.Y.Y.Y.Y.Y.!.8 ~.~.~.~.~.~.~.~.~.~.~.~.~.~.~.",
"Y.G Y.Y.Y.Y.Y.Y.Y.Y.Y.Y.Y.Y.Y.Y.Y.Y.Y.Y.Y.Y.Y.Y.Y.Y.R.H R.Y.Y.Y.Y.Y.Y.Y.Y.Y.Y.Y.Y.Y.Y.Y.Y.Y.Y.!.8 ~.~.~.~.~.~.~.~.~.~.~.~.~.~.~.",
"!.F Q.!.!.!.Q.Q.Q.Q.Q.Q.Q.Q.Q.Q.Q.Q.Q.Q.Q.Q.Q.Q.!.!.!.G !.!.!.Q.Q.Q.Q.Q.Q.Q.Q.Q.Q.Q.Q.!.!.!.!.U.. ~.~.~.~.~.~.~.~.~.~.~.~.~.~.~.",
"C.w C.C.C.B.C.C.C.C.C.m.B.B.B.B.B.B.B.B.B.B.C.C.C.C.C.w C.C.C.m.B.B.B.B.m.m.n.n.n.v.v.v.x.l.l.U.. ~.~.~.~.~.~.~.~.~.~.~.~.~.~.~.",
"C.w C.C.B.B.B.C.C.C.B.m.m.m.m.m.m.B.B.B.B.B.B.B.B.B.B.w m.m.m.m.m.m.m.b.b.v.v.v.v.v.v.z.l.l.l.U.. ~.~.~.~.~.~.~.~.~.~.~.~.~.~.~.",
"m.w C.B.B.m.m.B.B.B.m.m.m.m.m.m.m.m.m.m.m.m.m.m.m.b.b.w m.m.m.m.n.n.v.v.v.v.v.v.v.c.c.c.s.a.a.K.. ~.~.~.~.~.~.~.~.~.~.~.~.~.~.~.",
"m.w m.m.m.m.m.b.b.m.m.m.m.m.n.v.v.v.v.v.v.v.v.v.v.v.v.w v.v.v.v.v.v.v.v.v.v.z.z.z.k.a.a.a.a.a.K.. ~.~.~.~.~.~.~.~.~.~.~.~.~.~.~.",
"b.w v.v.v.v.v.v.v.v.v.v.v.v.v.v.v.v.v.v.v.v.v.v.v.v.v.w v.z.z.z.z.z.l.l.l.l.s.s.a.i.y.y.y.y.r.K.. ~.~.~.~.~.~.~.~.~.~.~.~.~.~.~.",
"v.w v.v.v.v.v.z.z.l.l.l.l.x.x.x.x.x.l.l.z.z.z.z.z.z.z.w l.l.l.l.l.l.l.l.l.l.s.a.y.y.y.r.8.8.8.J.. ~.~.~.~.~.~.~.~.~.~.~.~.~.~.~.",
"z.9 z.z.l.j.j.j.j.j.j.j.j.l.l.l.l.l.p.p.p.p.p.p.p.l.l.w l.l.l.l.l.l.l.l.l.s.u.y.y.y.t.8.8.7.7.J.. ~.~.~.~.~.~.~.~.~.~.~.~.~.~.~.",
"l.+ p.p.p.p.p.p.p.p.p.p.p.p.p.p.p.p.p.p.p.p.p.p.p.l.p.+ l.l.l.l.p.p.p.p.i.t.t.w.w.7.5.5.5.4.4.H.. ~.~.~.~.~.~.~.~.~.~.~.~.~.~.~.",
"p.+ y.y.y.y.y.y.p.p.p.p.p.p.p.p.p.p.p.p.y.p.p.p.p.p.y.+ p.p.p.y.y.y.y.y.e.e.w.w.7.5.5.4.4.<.#.F.. ~.~.~.~.~.~.~.~.~.~.~.~.~.~.~.",
"r.+ r.r.r.r.r.r.r.r.r.r.r.r.r.y.y.y.y.y.y.y.y.y.y.y.y.+ y.y.y.y.y.y.y.t.e.w.w.7.7.5.4.#.#.+.+.F.. ~.~.~.~.~.~.~.~.~.~.~.~.~.~.~.",
"w.+ w.w.w.w.w.w.w.w.w.r.r.w.r.r.r.r.r.r.r.r.r.r.y.y.y.+ y.y.y.y.y.y.y.8.7.3.3.2.,.@.@.+.......D.. ~.~.~.~.~.~.~.~.~.~.~.~.~.~.~.",
"1.+ 1.1.1.1.1.1.1.1.1.1.1.1.1.1.1.1.1.3.3.3.3.3.3.w.3.+ w.w.w.w.w.w.w.7.5.1.1.<.,.@.+.+.......D.. ~.~.~.~.~.~.~.~.~.~.~.~.~.~.~.",
"1.. 1.1.1.1.1.1.1.1.1.1.1.1.1.1.1.1.1.1.1.1.1.1.1.1.1.+ 1.1.1.1.1.1.1.<.,.>.>.+.X.....| | } } . ~.~.~.~.~.~.~.~.~.~.~.~.~.~.~.~.",
". c . . . . . . . . . . . . . . . . . . . . . . . . . n . . . . . . . . . . . . . . . . . . . ~.~.~.~.~.~.~.~.~.~.~.~.~.~.~.~.~.",
"c c c c c c c c O x x c v v v v b b b b b b b n n n n n n m V V C C C C C . J K P P I P I I . ~.~.~.~.~.~.~.~.~.~.~.~.~.~.~.~.~.",
"c c c c c c c c O c c v v v v v b b b b n b b n n n n n n m V V C C C C A . L I I U U I I I . ~.~.~.~.~.~.~.~.~.~.~.~.~.~.~.~.~.",
"c c c c c c c c # c c v v v v v b b b b n n b n n n n n n m V V C C C C C . I Y Y Y R R I I . ~.~.~.~.~.~.~.~.~.~.~.~.~.~.~.~.~.",
"c c c c c c c c # c c c v v v v b b b b n n n n n n n n n m V V C C C C C . Y U R U U I I I . ~.~.~.~.~.~.~.~.~.~.~.~.~.~.~.~.~.",
"c c c c c c c c # c c c v v v v b b b b n n n n n n n n n m V V C C C C Z . R U R U R I I I . ~.~.~.~.~.~.~.~.~.~.~.~.~.~.~.~.~.",
"c c c c c c c c # x x c v v v v v b b b b n n n n n n n n M V B C C C C S . J K P P I I I Q . ~.~.~.~.~.~.~.~.~.~.~.~.~.~.~.~.~.",
"1.1.1.1.1.1.1.1.e 1.1.1.1.1.1.1.1.1.1.1.1.1.1.1.1.1.1.1.1.1.1.1.1.1.1.1.1.. L I I U I I I Q . ~.~.~.~.~.~.~.~.~.~.~.~.~.~.~.~.~.",
"1.1.1.1.1.1.1.1.& 1.1.1.1.1.1.1.1.1.1.1.1.1.1.1.1.1.1.1.1.1.1.1.1.1.1.1.1.. I Y Y Y R R Q Q . ~.~.~.~.~.~.~.~.~.~.~.~.~.~.~.~.~.",
"N N N N e e 6 3 - : q N N N N N N N N N e e * = e e e e N N N N e e e     T Y U R U U T Q Q . ~.~.~.~.~.~.~.~.~.~.~.~.~.~.~.~.~.",
"M.M.M.M.M.M.M.M.M.M.M.M.M.M.M.M.M.M.M.M.M.M.M.& M.M.M.M.M.M.M.M.M.M.M.M.M.. R U R U R Q Q Q . ~.~.~.~.~.~.~.~.~.~.~.~.~.~.~.~.~.",
"1.1.1.1.1.1.1.1.1.1.1.1.1.1.1.1.1.1.1.1.1.1.1.4 1.1.1.1.1.1.1.1.1.1.1.1.S.. R U T T T Q Q Q . ~.~.~.~.~.~.~.~.~.~.~.~.~.~.~.~.~.",
"1.1.1.1.1.1.1.1.1.1.1.1.1.1.1.1.1.1.1.1.1.1.1.e 1.1.1.1.1.1.1.1.1.1.1.1.S.. E T T T Q Q Q Q . ~.~.~.~.~.~.~.~.~.~.~.~.~.~.~.~.~.",
"1.1.1.1.1.1.1.1.1.1.1.1.1.1.1.1.1.1.1.1.1.1.1.N 1.1.1.1.1.1.1.1.1.1.1.1.S.. T T T T Q Q Q Q . ~.~.~.~.~.~.~.~.~.~.~.~.~.~.~.~.~.",
"1.1.1.1.1.1.1.1.1.1.1.1.1.1.1.1.1.1.1.1.1.1.1.N 1.1.1.1.1.1.1.1.1.1.1.1.S.. T T T Q Q Q Q Q . ~.~.~.~.~.~.~.~.~.~.~.~.~.~.~.~.~.",
"1.1.1.1.1.1.1.1.1.1.1.1.1.1.1.1.1.1.1.1.1.1.1.N 1.1.1.1.1.1.1.1.1.1.1.1.S.. T T T Q Q Q Q Q . ~.~.~.~.~.~.~.~.~.~.~.~.~.~.~.~.~.",
"1.1.1.1.1.1.1.1.1.1.1.1.1.1.1.1.1.1.1.1.1.1.1.N 1.1.1.1.1.1.1.1.1.1.1.1.S.. T T Q Q Q Q Q Q . ~.~.~.~.~.~.~.~.~.~.~.~.~.~.~.~.~.",
"1.1.1.1.1.1.1.1.1.1.1.1.1.1.1.1.1.1.1.1.1.1.1.N 1.1.1.1.1.1.1.1.1.1.1.1.S.. T T Q Q Q Q Q Q . ~.~.~.~.~.~.~.~.~.~.~.~.~.~.~.~.~.",
"N N N N N t u i j i i y N N N N N N N N N N N N N N N N N N N N e e e     ! T Q Q Q Q Q Q Q . ~.~.~.~.~.~.~.~.~.~.~.~.~.~.~.~.~.",
"h.V.V.V.V.V.M.m.g M.M.M.M.M.M.M.M.M.M.M.M.M.M.M.M.M.M.M.M.M.M.M.M.M.M.M.S.. W :.:.0.d.f.g.N.. ~.~.~.~.~.~.~.~.~.~.~.~.~.~.~.~.~.",
"O.O.O.O.O.O.O.O.a O.O.O.O.O.O.O.O.O.O.O.O.O.O.O.O.O.O.O.O.O.O.O.O.O.O.O.S.o 2 1 > > > > 2 0 X ~.~.~.~.~.~.~.~.~.~.~.~.~.~.~.~.~.",
"O.O.O.O.O.O.O.O.p O.O.O.O.O.O.O.O.O.O.O.O.O.O.O.O.O.O.O.O.O.O.O.O.O.O.O.S.. ~ ~ ^ ^ / / ~ ~ . ~.~.~.~.~.~.~.~.~.~.~.~.~.~.~.~.~.",
"O.O.O.O.O.O.O.O.z { O.O.O.O.O.O.O.O.O.O.O.O.O.O.O.O.O.O.O.O.O.O.O.O.O.O.S.. ^ ~ ~ ^ ^ ) ( I.. ~.~.~.~.~.~.~.~.~.~.~.~.~.~.~.~.~.",
"O.O.O.O.O.O.O.O.z  .O.O.O.O.O.O.O.O.O.O.O.O.O.O.O.O.O.O.O.O.O.O.O.O.O.O.S.. ` _ _ _ _ ` ] I.. ~.~.~.~.~.~.~.~.~.~.~.~.~.~.~.~.~.",
"O.O.O.O.O.O.O.O.l O.O.O.O.O.O.O.O.O.O.O.O.O.O.O.O.O.O.O.O.O.O.O.O.O.O.O.S.. ] ' [ [ [ [ G.I.. ~.~.~.~.~.~.~.~.~.~.~.~.~.~.~.~.~.",
"O.O.O.O.O.O.O.O.$ O.O.O.O.O.O.O.O.O.O.O.O.O.O.O.O.O.O.O.O.O.O.O.O.O.O.O.S.. [ [ [ [ [ [ G.P.. ~.~.~.~.~.~.~.~.~.~.~.~.~.~.~.~.~.",
"O.O.O.O.O.O.O.O.$ O.O.O.O.O.O.O.O.O.O.O.O.O.O.O.O.O.O.O.O.O.O.O.O.O.O.O.S.. [ o.$.$.[ G.G.P.. ~.~.~.~.~.~.~.~.~.~.~.~.~.~.~.~.~.",
"k k k k j $ $ $ $ $ $ h h h h h h h h j N e e % 5 e N N N N N N N e e     $.$.$.$.$.$.G.G.P.. ~.~.~.~.~.~.~.~.~.~.~.~.~.~.~.~.~.",
"M.M.M.M.M.M.M.M.M.M.M.M.M.M.M.M.M.M.M.M.M.M.M.; M.M.M.M.M.M.M.M.M.M.M.M.S.. %.$.$.$.G.G.G.L.. ~.~.~.~.~.~.~.~.~.~.~.~.~.~.~.~.~.",
"O.O.O.O.O.O.O.O.O.O.O.O.O.O.O.O.O.O.O.O.O.O.O.7 O.O.O.O.O.O.O.O.O.O.O.O.S.. &.&.*.*.G.G.G.L.. ~.~.~.~.~.~.~.~.~.~.~.~.~.~.~.~.~.",
"O.O.O.O.O.O.O.O.O.O.O.O.O.O.O.O.O.O.O.O.O.O.O.N O.O.O.O.O.O.O.O.O.O.O.O.S.. =.*.*.G.G.G.G.L.. ~.~.~.~.~.~.~.~.~.~.~.~.~.~.~.~.~.",
"O.O.O.O.O.O.O.O.O.O.O.O.O.O.O.O.O.O.O.O.O.O.O.N O.O.O.O.O.O.O.O.O.O.O.O.S.. ;.-.=.G.G.G.G.L.. ~.~.~.~.~.~.~.~.~.~.~.~.~.~.~.~.~.",
"O.O.O.O.O.O.O.O.O.O.O.O.O.O.O.O.O.O.O.O.O.O.O.N O.O.O.O.O.O.O.O.O.O.O.O.S.. 9.6.G.G.G.G.G.L.. ~.~.~.~.~.~.~.~.~.~.~.~.~.~.~.~.~.",
"O.O.O.O.O.O.O.O.O.O.O.O.O.O.O.O.O.O.O.O.O.O.O.N O.O.O.O.O.O.O.O.O.O.O.O.S.. 9.9.G.G.G.G.G.L.. ~.~.~.~.~.~.~.~.~.~.~.~.~.~.~.~.~.",
"O.O.O.O.O.O.O.O.O.O.O.O.O.O.O.O.O.O.O.O.O.O.O.e O.O.O.O.O.O.O.O.O.O.O.O.S.. 9.G.G.G.G.G.G.L.. ~.~.~.~.~.~.~.~.~.~.~.~.~.~.~.~.~.",
"O.O.O.O.O.O.O.O.O.O.O.O.O.O.O.O.O.O.O.O.O.O.O.3 O.O.O.O.O.O.O.O.O.O.O.O.S.. q.G.G.G.G.G.G.L.. ~.~.~.~.~.~.~.~.~.~.~.~.~.~.~.~.~.",
"@ O.@ @ @ @ @ @ @ @ @ @ @ @ @ @ @ @ @ @ @ @ @ @ @ @ @ O.@ @ @ @ @ @ @ @ @ G.G.G.G.G.G.G.G.E.. ~.~.~.~.~.~.~.~.~.~.~.~.~.~.~.~.~.",
"G.< G.G.G.G.G.G.G.G.G.G.G.G.G.G.G.G.G.G.G.G.G.G.G.G.G.@ G.G.G.G.G.G.G.G.G.G.G.G.G.G.G.G.G.E.. ~.~.~.~.~.~.~.~.~.~.~.~.~.~.~.~.~.",
"G.D G.G.G.G.G.G.G.G.G.G.G.G.G.G.G.G.G.G.G.G.G.G.G.G.G.D G.G.G.G.G.G.G.G.G.G.G.G.G.G.G.G.G.E.. ~.~.~.~.~.~.~.~.~.~.~.~.~.~.~.~.~.",
"G.D G.G.G.G.G.G.G.G.G.G.G.G.G.G.G.G.G.G.G.G.G.G.G.G.G.D G.G.G.G.G.G.G.G.G.G.G.G.G.G.G.G.G.W.. ~.~.~.~.~.~.~.~.~.~.~.~.~.~.~.~.~.",
"G.D G.G.G.G.G.G.G.G.G.G.G.G.G.G.G.G.G.G.G.G.G.G.G.G.G.D G.G.G.G.G.G.G.G.G.G.G.G.G.G.G.G.G.W.. ~.~.~.~.~.~.~.~.~.~.~.~.~.~.~.~.~.",
"T.D T.T.T.T.T.T.T.T.T.T.T.T.T.T.T.T.T.T.T.T.T.T.T.T.T.D T.T.T.T.T.T.T.T.T.T.T.T.E.E.W.W.W.W.. ~.~.~.~.~.~.~.~.~.~.~.~.~.~.~.~.~.",
"+.D +.+.+.+.+.+.+.+.+.+.+.+.+.+.+.+.+.+.+.+.+.+.+.+.+.D +.+.+.+.+.+.+.+.+.+.+.+.+.+.+.+.+.Z.. ~.~.~.~.~.~.~.~.~.~.~.~.~.~.~.~.~.",
"+.D +.+.+.+.+.+.+.+.+.+.+.+.+.+.+.+.+.+.+.+.+.+.+.+.+.D +.+.+.+.+.+.+.+.+.+.+.+.+.+.+.+.+.Z.. ~.~.~.~.~.~.~.~.~.~.~.~.~.~.~.~.~.",
"+.. +.+.+.+.+.+.+.+.+.+.+.+.+.+.+.+.+.+.+.+.+.+.+.+.+.. +.+.+.+.+.+.+.+.+.+.+.+.+.+.+.+.+.A.. ~.~.~.~.~.~.~.~.~.~.~.~.~.~.~.~.~.",
". . . . . . . . . . . . . . . . . . . . . . . . . . . . . . . . . . . . . . . . . . . . . . ~.~.~.~.~.~.~.~.~.~.~.~.~.~.~.~.~.~.",
"~.~.~.~.~.~.~.~.~.~.~.~.~.~.~.~.~.~.~.~.~.~.~.~.~.~.~.~.~.~.~.~.~.~.~.~.~.~.~.~.~.~.~.~.~.~.~.~.~.~.~.~.~.~.~.~.~.~.~.~.~.~.~.~.",
"~.~.~.~.~.~.~.~.~.~.~.~.~.~.~.~.~.~.~.~.~.~.~.~.~.~.~.~.~.~.~.~.~.~.~.~.~.~.~.~.~.~.~.~.~.~.~.~.~.~.~.~.~.~.~.~.~.~.~.~.~.~.~.~.",
"~.~.~.~.~.~.~.~.~.~.~.~.~.~.~.~.~.~.~.~.~.~.~.~.~.~.~.~.~.~.~.~.~.~.~.~.~.~.~.~.~.~.~.~.~.~.~.~.~.~.~.~.~.~.~.~.~.~.~.~.~.~.~.~.",
"~.~.~.~.~.~.~.~.~.~.~.~.~.~.~.~.~.~.~.~.~.~.~.~.~.~.~.~.~.~.~.~.~.~.~.~.~.~.~.~.~.~.~.~.~.~.~.~.~.~.~.~.~.~.~.~.~.~.~.~.~.~.~.~.",
"~.~.~.~.~.~.~.~.~.~.~.~.~.~.~.~.~.~.~.~.~.~.~.~.~.~.~.~.~.~.~.~.~.~.~.~.~.~.~.~.~.~.~.~.~.~.~.~.~.~.~.~.~.~.~.~.~.~.~.~.~.~.~.~.",
"~.~.~.~.~.~.~.~.~.~.~.~.~.~.~.~.~.~.~.~.~.~.~.~.~.~.~.~.~.~.~.~.~.~.~.~.~.~.~.~.~.~.~.~.~.~.~.~.~.~.~.~.~.~.~.~.~.~.~.~.~.~.~.~.",
"~.~.~.~.~.~.~.~.~.~.~.~.~.~.~.~.~.~.~.~.~.~.~.~.~.~.~.~.~.~.~.~.~.~.~.~.~.~.~.~.~.~.~.~.~.~.~.~.~.~.~.~.~.~.~.~.~.~.~.~.~.~.~.~.",
"~.~.~.~.~.~.~.~.~.~.~.~.~.~.~.~.~.~.~.~.~.~.~.~.~.~.~.~.~.~.~.~.~.~.~.~.~.~.~.~.~.~.~.~.~.~.~.~.~.~.~.~.~.~.~.~.~.~.~.~.~.~.~.~.",
"~.~.~.~.~.~.~.~.~.~.~.~.~.~.~.~.~.~.~.~.~.~.~.~.~.~.~.~.~.~.~.~.~.~.~.~.~.~.~.~.~.~.~.~.~.~.~.~.~.~.~.~.~.~.~.~.~.~.~.~.~.~.~.~.",
"~.~.~.~.~.~.~.~.~.~.~.~.~.~.~.~.~.~.~.~.~.~.~.~.~.~.~.~.~.~.~.~.~.~.~.~.~.~.~.~.~.~.~.~.~.~.~.~.~.~.~.~.~.~.~.~.~.~.~.~.~.~.~.~.",
"~.~.~.~.~.~.~.~.~.~.~.~.~.~.~.~.~.~.~.~.~.~.~.~.~.~.~.~.~.~.~.~.~.~.~.~.~.~.~.~.~.~.~.~.~.~.~.~.~.~.~.~.~.~.~.~.~.~.~.~.~.~.~.~.",
"~.~.~.~.~.~.~.~.~.~.~.~.~.~.~.~.~.~.~.~.~.~.~.~.~.~.~.~.~.~.~.~.~.~.~.~.~.~.~.~.~.~.~.~.~.~.~.~.~.~.~.~.~.~.~.~.~.~.~.~.~.~.~.~.",
"~.~.~.~.~.~.~.~.~.~.~.~.~.~.~.~.~.~.~.~.~.~.~.~.~.~.~.~.~.~.~.~.~.~.~.~.~.~.~.~.~.~.~.~.~.~.~.~.~.~.~.~.~.~.~.~.~.~.~.~.~.~.~.~.",
"~.~.~.~.~.~.~.~.~.~.~.~.~.~.~.~.~.~.~.~.~.~.~.~.~.~.~.~.~.~.~.~.~.~.~.~.~.~.~.~.~.~.~.~.~.~.~.~.~.~.~.~.~.~.~.~.~.~.~.~.~.~.~.~.",
"~.~.~.~.~.~.~.~.~.~.~.~.~.~.~.~.~.~.~.~.~.~.~.~.~.~.~.~.~.~.~.~.~.~.~.~.~.~.~.~.~.~.~.~.~.~.~.~.~.~.~.~.~.~.~.~.~.~.~.~.~.~.~.~.",
"~.~.~.~.~.~.~.~.~.~.~.~.~.~.~.~.~.~.~.~.~.~.~.~.~.~.~.~.~.~.~.~.~.~.~.~.~.~.~.~.~.~.~.~.~.~.~.~.~.~.~.~.~.~.~.~.~.~.~.~.~.~.~.~.",
"~.~.~.~.~.~.~.~.~.~.~.~.~.~.~.~.~.~.~.~.~.~.~.~.~.~.~.~.~.~.~.~.~.~.~.~.~.~.~.~.~.~.~.~.~.~.~.~.~.~.~.~.~.~.~.~.~.~.~.~.~.~.~.~.",
"~.~.~.~.~.~.~.~.~.~.~.~.~.~.~.~.~.~.~.~.~.~.~.~.~.~.~.~.~.~.~.~.~.~.~.~.~.~.~.~.~.~.~.~.~.~.~.~.~.~.~.~.~.~.~.~.~.~.~.~.~.~.~.~."
};
