/* XPM */
static char *result[] = {
/* columns rows colors chars-per-pixel */
"64 94 157 2 ",
"   c #4B2511",
".  c #4C2611",
"X  c #4D2712",
"o  c #4D2713",
"O  c #4F2913",
"+  c #4F2B17",
"@  c #512E1A",
"#  c #4F311E",
"$  c #53321E",
"%  c #56321C",
"&  c #4F3625",
"*  c #4F3626",
"=  c #533320",
"-  c #543421",
";  c #543523",
":  c #543623",
">  c #543624",
",  c #543625",
"<  c #543725",
"1  c #553725",
"2  c #553726",
"3  c #553826",
"4  c #553827",
"5  c #5A3B27",
"6  c #5E3B25",
"7  c #563B2A",
"8  c #563B2B",
"9  c #563C2C",
"0  c #563D2C",
"q  c #573C2D",
"w  c #573D2D",
"e  c #573D2E",
"r  c #573E2E",
"t  c #573E2F",
"y  c #593D2A",
"u  c #573F30",
"i  c #583F30",
"p  c #5A402E",
"a  c #5B4130",
"s  c #5B4230",
"d  c #5B4231",
"f  c #584132",
"g  c #5C4332",
"h  c #5E4532",
"j  c #594435",
"k  c #594436",
"l  c #594537",
"z  c #5A4436",
"x  c #5A4536",
"c  c #5A4537",
"v  c #5A4739",
"b  c #5B473A",
"n  c #5B483B",
"m  c #5B493C",
"M  c #5B4A3D",
"N  c #5C493D",
"B  c #5C4A3E",
"V  c #5C4B3E",
"C  c #5C4B3F",
"Z  c #604734",
"A  c #624937",
"S  c #634D3C",
"D  c #644E3C",
"F  c #5C4B40",
"G  c #5C4C40",
"H  c #5C4D41",
"J  c #5D4D41",
"K  c #5D4D42",
"L  c #5D4E42",
"P  c #5D4E43",
"I  c #5D4F43",
"U  c #5E4F44",
"Y  c #5E4F45",
"T  c #5D5044",
"R  c #5C5147",
"E  c #5E5146",
"W  c #5C5247",
"Q  c #5D5247",
"!  c #5D5248",
"~  c #5D5348",
"^  c #5D5349",
"/  c #5E5348",
"(  c #5E5349",
")  c #5F5349",
"_  c #5D5449",
"`  c #5E5449",
"'  c #5D544A",
"]  c #5E544A",
"[  c #5E554A",
"{  c #5F554A",
"}  c #5E554B",
"|  c #5F554B",
" . c #5F554C",
".. c #675341",
"X. c #675443",
"o. c #655444",
"O. c #665444",
"+. c #675544",
"@. c #675545",
"#. c #695645",
"$. c #655C55",
"%. c #655D56",
"&. c #655F56",
"*. c #655F57",
"=. c #665F58",
"-. c #666057",
";. c #676159",
":. c #676259",
">. c #68625A",
",. c #68635A",
"<. c #69635B",
"1. c #69645B",
"2. c #69645C",
"3. c #6A645C",
"4. c #6A655C",
"5. c #6B655D",
"6. c #6A665C",
"7. c #6B665D",
"8. c #6B675D",
"9. c #6B665E",
"0. c #6C665E",
"q. c #6C675E",
"w. c #6C675F",
"e. c #6D675F",
"r. c #6C685E",
"t. c #6C685F",
"y. c #6D685F",
"u. c #6D695F",
"i. c #6D6960",
"p. c #6E6860",
"a. c #6E6960",
"s. c #6E6A60",
"d. c #6E6A61",
"f. c #6F6A61",
"g. c #6F6B61",
"h. c #6F6C61",
"j. c #6F6C62",
"k. c #706B62",
"l. c #706C62",
"z. c #706D62",
"x. c #706C63",
"c. c #716C63",
"v. c #767469",
"b. c #77756A",
"n. c #868579",
"m. c #86847B",
"M. c #88877B",
"N. c #8B8A7F",
"B. c #908E86",
"V. c #918F87",
"C. c #918F88",
"Z. c #929088",
"A. c #939189",
"S. c #94928A",
"D. c #94928B",
"F. c #99978F",
"G. c None",
/* pixels */
"5 5 5 5 5 5 G.5 5 5 5 5 5 5 5 5 5 5 5 5 5 5 5 5 5 5 5 5 5 5 5 5 5 G.5 5 5 5 5 5 5 5 5 5 5 5 5 5 5 5 5 5 5 5 5 5 5 5 5 G.5 5 5 5 ",
"n.n.n.n.n.n.D n.n.n.n.n.n.n.n.n.n.n.n.n.n.n.n.n.n.n.n.n.n.n.n.M.n.h n.n.n.n.n.n.n.n.n.n.n.n.n.n.n.n.n.n.n.n.n.n.n.n.N.Z N.n.n.n.",
"n.n.n.n.n.n...n.n.n.n.n.n.n.n.n.n.n.n.n.n.n.n.n.n.n.n.n.n.n.n.n.n.A n.n.n.n.n.n.n.n.n.n.n.n.n.n.n.n.n.n.n.n.n.n.n.n.N.S N.n.n.n.",
"n.n.n.n.n.n.#.n.n.n.n.n.n.n.n.n.n.n.n.n.n.n.n.n.n.n.n.n.n.n.n.n.n.+.n.n.n.n.n.n.n.n.n.n.n.n.n.n.n.n.n.n.n.n.n.n.n.n.N.@.N.n.n.n.",
"A.A.A.S.F.F.X.F.F.F.D.Z.B.B.B.V.C.C.C.C.C.C.C.C.C.C.C.C.Z.D.F.F.F.O.D.F.F.F.D.D.D.D.D.D.D.D.D.D.D.D.D.D.D.D.D.D.F.F.F.+.F.F.F.D.",
"c.c.z.c.c.l.s k.k.k.k.k.k.g.f.s.s.u.u.u.y.y.y.y.y.y.y.u.u.u.u.u.y.d y.y.y.r.y.y.y.y.y.q.r.r.r.r.r.r.r.r.r.r.y.y.y.y.y.d y.y.y.q.",
"f.g.f.g.h.j.g g.g.g.g.g.f.f.s.a.u.y.y.y.y.y.y.y.y.y.y.y.y.y.u.y.y.d y.y.r.r.r.y.y.y.r.q.q.q.q.q.q.r.r.r.r.r.r.r.r.r.r.d q.q.q.q.",
"s.s.d.f.f.f.g f.f.f.s.s.a.a.a.u.u.y.y.y.y.y.y.y.y.r.r.r.r.r.r.q.q.d y.r.r.q.q.r.r.r.q.q.q.q.q.q.q.q.q.q.q.q.q.q.q.8.8.d q.q.q.q.",
"u.i.a.d.f.s.d a.s.a.a.a.a.a.a.u.y.y.r.r.r.r.r.r.r.r.r.r.q.q.q.q.q.d q.q.q.q.q.8.8.q.q.q.q.q.0.7.7.7.7.7.7.7.7.7.7.7.7.d 7.7.7.7.",
"e.e.y.y.y.y.a u.a.a.a.i.p.t.r.r.q.q.q.q.q.q.q.q.q.q.q.q.8.8.8.8.8.d 7.7.7.7.7.7.7.7.7.7.7.7.7.7.7.7.7.7.7.7.7.7.7.7.7.d 7.5.5.5.",
"5.9.9.9.0.0.p q.y.y.e.q.q.r.r.q.q.8.7.7.7.7.7.7.7.7.7.7.7.7.7.7.7.d 7.7.7.7.7.5.5.4.4.4.4.6.6.6.6.6.4.4.5.5.5.5.5.5.5.d 4.4.4.4.",
"3.3.3.5.5.5.- 7.0.0.0.0.7.7.7.7.4.4.4.4.4.4.4.4.4.4.4.4.4.5.5.5.5.y 5.5.4.3.3.3.3.3.3.3.3.4.4.4.4.4.1.1.1.1.1.1.1.4.4.d 4.4.4.4.",
"1.1.1.1.1.1.$ 1.3.3.4.4.4.4.4.4.4.4.4.4.4.4.4.4.4.4.4.4.4.4.4.3.4.$ 1.1.1.1.1.1.1.1.1.1.1.1.1.1.1.1.1.1.1.1.1.1.1.4.1.$ 4.4.4.4.",
"<.<.<.1.1.1.$ 1.1.1.1.1.1.1.1.1.1.1.1.3.1.1.1.1.1.1.1.1.1.1.1.1.1.$ <.<.<.<.<.<.1.1.1.1.1.1.1.1.1.1.1.1.<.1.1.1.1.1.<.$ 1.1.1.<.",
">.>.>.>.>.,.@ >.>.>.>.,.<.<.<.<.<.<.<.<.<.<.<.<.<.<.<.<.<.<.<.,.,.$ ,.,.,.,.,.,.,.,.,.,.,.,.,.<.<.<.<.<.<.<.<.<.<.<.<.$ <.<.<.<.",
";.;.;.;.;.;.+ ;.;.:.;.:.:.:.:.:.;.:.:.:.:.:.:.:.>.:.>.>.>.,.,.,.>.$ >.>.>.>.>.>.>.>.>.,.,.>.,.,.,.,.,.,.,.,.,.,.<.<.<.$ <.<.<.<.",
";.;.;.;.;.;.o ;.;.;.;.;.;.;.;.;.;.;.;.;.;.;.;.;.;.;.;.;.;.;.;.;.;.$ ;.;.;.;.;.;.;.;.;.;.;.;.;.;.;.;.;.:.:.:.:.:.:.>.:.$ >.>.>.>.",
";.;.;.;.;.;.O ;.;.;.;.;.;.;.;.;.;.;.;.;.;.;.;.;.;.;.;.;.;.;.;.;.;.O ;.;.;.;.;.;.;.;.;.;.;.;.;.;.;.;.;.;.;.;.;.;.;.;.;.$ ;.;.;.;.",
"        . X ^ O O O O O O O O O O O O O O O O O O O O O O O O O O W O O O O O O O O O O O O O O O O O O O O O O O O O ~ O O O O ",
"} [ ] ( ] ` ^ ^ # W W W W W W W W W W W W W W W W W W W W W W W W W W W W W W W # R R W Q Q Q Q ! ! ! ! ! ! ! ~ ~ ~ ~ ~ ~ / ` ` ",
"} [ ] ] ] ] ^ ^ # ^ W W W W W W W W W W W W W W W W W W W W W W W W W W W W W W # W W Q Q Q Q Q ! ! ! ! ~ ! ! ~ ~ ~ ~ ~ ~ / ` ` ",
"| [ ] ] ] ] ' ^ & ^ W W W W W W W W W W W W W W W W W W W W W W W W W W W W W W & W W Q Q Q Q Q ! ! ! ! ~ ~ ! ~ ~ ~ ~ ~ ~ / ` ` ",
"} { ] ] ] ] ' ^ & W W W W W W W W W W W W W W W W W W W W W W W W W W W W W W W & W W W Q Q Q Q ! ! ! ! ~ ~ ~ ~ ~ ~ ~ ~ ~ / ` ` ",
"| { ] ] ] ] ' ' * ^ W W W W W W W W W W W W W W W W W W W W W W W W W W W W W W & W W W Q Q Q Q ! ! ! ! ~ ~ ~ ~ ~ ~ ~ ~ ~ / ` ` ",
" .| ] ] ] ] ' ' * ^ W W W W W W W W W W W W W W W W W W W W W W W W W W W W W W & R R W Q Q Q Q Q ! ! ! ! ~ ~ ~ ~ ~ ~ ~ ~ ( ` _ ",
"*.*.*.*.*.*.*.*.c ;.;.;.;.;.;.;.;.;.;.;.;.;.;.;.;.;.;.;.;.;.;.;.;.;.;.;.;.;.;.;.f ;.;.;.;.;.;.;.;.;.;.;.;.;.;.;.;.;.;.;.;.;.;.;.",
"*.*.*.*.*.*.*.*.v ;.;.;.;.;.;.;.;.;.;.;.;.;.;.;.;.;.;.;.;.;.;.;.;.;.;.;.;.;.;.;.> ;.;.;.;.;.;.;.;.;.;.;.;.;.;.;.;.;.;.;.;.;.;.;.",
"j j j j j z x x x x E E E E E E E E E E E E J J J E E E ) ) ) ) ) ) ) ) f f 0 7 2 4 i ) ) ) ) ) ) ) ) ) f f < 1 f f f f ) ) ) ) ",
"x.y.y.y.y.y.y.y.y.y.y.y.y.y.y.y.y.y.y.y.y.y.y.J w.w.w.w.w.w.w.w.w.w.w.w.w.w.w.w.w.w.w.w.w.w.w.w.w.w.w.w.w.w.w.> w.w.w.w.w.w.w.w.",
";.;.;.;.;.;.;.;.;.;.;.;.;.;.;.;.;.;.;.;.;.;.;.J ;.;.;.;.;.;.;.;.;.;.;.;.;.;.;.;.;.;.;.;.;.;.;.;.;.;.;.;.;.;.;.8 ;.;.;.;.;.;.;.;.",
";.;.;.;.;.;.;.;.;.;.;.;.;.;.;.;.;.;.;.;.;.;.;.J ;.;.;.;.;.;.;.;.;.;.;.;.;.;.;.;.;.;.;.;.;.;.;.;.;.;.;.;.;.;.;.f ;.;.;.;.;.;.;.;.",
";.;.;.;.;.;.;.;.;.;.;.;.;.;.;.;.;.;.;.;.;.;.;.J ;.;.;.;.;.;.;.;.;.;.;.;.;.;.;.;.;.;.;.;.;.;.;.;.;.;.;.;.;.;.;.) ;.;.;.;.;.;.;.;.",
";.;.;.;.;.;.;.;.;.;.;.;.;.;.;.;.;.;.;.;.;.;.;.J ;.;.;.;.;.;.;.;.;.;.;.;.;.;.;.;.;.;.;.;.;.;.;.;.;.;.;.;.;.;.;.) ;.;.;.;.;.;.;.;.",
";.;.;.;.;.;.;.;.;.;.;.;.;.;.;.;.;.;.;.;.;.;.;.J ;.;.;.;.;.;.;.;.;.;.;.;.;.;.;.;.;.;.;.;.;.;.;.;.;.;.;.;.;.;.;.) ;.;.;.;.;.;.;.;.",
";.;.;.;.;.;.;.;.;.;.;.;.;.;.;.;.;.;.;.;.;.;.;.f ;.;.;.;.;.;.;.;.;.;.;.;.;.;.;.;.;.;.;.;.;.;.;.;.;.;.;.;.;.;.;.) ;.;.;.;.;.;.;.;.",
";.;.;.;.;.;.;.;.;.;.;.;.;.;.;.;.;.;.;.;.;.;.;.u ;.;.;.;.;.;.;.;.;.;.;.;.;.;.;.;.;.;.;.;.;.;.;.;.;.;.;.;.;.;.;.) ;.;.;.;.;.;.;.;.",
"= K K K L L L l e 8 8 8 G M m m n n n n q q > ; 2 q ) ) ) ) ) ) ) ) ) ) ) v n m K m m b ) ) ) ) ) ) ) ) ) ) ) ) ) ) ) ) ) ) ) ) ",
"q.q.q.w.w.w.w.w.w., w.w.w.w.w.2.2.2.2.2.2.2.2.2.2.2.2.2.2.2.2.2.2.t.t.t.t.t.w.q.F w.w.w.w.w.w.w.w.w.w.w.w.w.w.w.w.w.w.w.w.w.w.w.",
"=.=.=.=.=.=.=.=.=., =.=.=.=.=.=.=.=.=.=.=.=.=.=.=.=.=.=.=.=.=.=.=.=.=.=.=.=.=.=.C =.=.=.=.=.=.=.=.=.=.=.=.=.=.=.=.=.=.=.=.=.=.=.",
"=.=.=.=.=.=.=.=.=.B =.=.=.=.=.=.=.=.=.=.=.=.=.=.=.=.=.=.=.=.=.=.=.=.=.=.=.=.=.=.N =.=.=.=.=.=.=.=.=.=.=.=.=.=.=.=.=.=.=.=.=.=.=.",
"=.=.=.=.=.=.=.=.=.) =.=.=.=.=.=.=.=.=.=.=.=.=.=.=.=.=.=.=.=.=.=.=.=.=.=.=.=.=.=.Y $.=.=.=.=.=.=.=.=.=.=.=.=.=.=.=.=.=.=.=.=.=.=.",
"=.=.=.=.=.=.=.=.=.) =.=.=.=.=.=.=.=.=.=.=.=.=.=.=.=.=.=.=.=.=.=.=.=.=.=.=.=.=.=.Y %.=.=.=.=.=.=.=.=.=.=.=.=.=.=.=.=.=.=.=.=.=.=.",
"=.=.=.=.=.=.=.=.=.) =.=.=.=.=.=.=.=.=.=.=.=.=.=.=.=.=.=.=.=.=.=.=.=.=.=.=.=.=.=.U =.=.=.=.=.=.=.=.=.=.=.=.=.=.=.=.=.=.=.=.=.=.=.",
"=.=.=.=.=.=.=.=.=.) =.=.=.=.=.=.=.=.=.=.=.=.=.=.=.=.=.=.=.=.=.=.=.=.=.=.=.=.=.=.; =.=.=.=.=.=.=.=.=.=.=.=.=.=.=.=.=.=.=.=.=.=.=.",
"=.=.=.=.=.=.=.=.=.) =.=.=.=.=.=.=.=.=.=.%.=.=.=.=.=.=.=.=.=.=.=.=.=.=.=.=.=.=.=.; =.=.=.=.=.=.=.=.=.=.=.=.=.=.=.=.=.=.=.=.=.=.=.",
"t f k ) ) ) ) ) ) ) ) ) ) ) ) ) ) ) ) ) V V m V V T T T T I P L L L L L K ; ; ; ; ; ; H H H H H H H H K ) f f : 9 f ) ) ) ) ) ) ",
"w.w.w.w.w.w.w.w.w.w.w.w.w.w.w.w.w.w.w.w.w.w.w.V w.w.w.w.w.w.w.w.w.w.w.w.w.w.w.w.w.w.w.w.w.w.w.w.w.w.w.w.w.w.w.3 w.w.w.w.w.w.w.w.",
"=.=.=.=.=.=.=.=.=.=.=.=.=.=.=.=.=.=.=.=.=.=.=.V =.=.=.=.=.=.=.=.=.=.=.=.=.=.=.=.=.=.=.=.=.=.=.=.=.=.=.=.=.=.=.w =.=.=.=.=.=.=.=.",
"=.=.=.=.=.=.=.=.=.=.=.=.=.=.=.=.=.=.=.=.=.=.=.V =.=.=.=.=.=.=.=.=.=.=.=.=.=.=.=.=.=.=.=.=.=.=.=.=.=.=.=.=.=.=.) =.=.=.=.=.=.=.=.",
"=.=.=.=.=.=.=.=.=.=.=.=.=.=.=.=.=.=.=.=.=.=.=.E =.=.=.=.=.=.=.=.=.=.=.=.=.=.=.=.=.=.=.=.=.=.=.=.=.=.=.=.=.=.=.) =.=.=.=.=.=.=.=.",
"=.=.=.=.=.=.=.=.=.=.=.=.=.=.=.=.=.=.=.=.=.=.=.) =.=.=.=.=.=.=.=.=.=.=.=.=.=.=.=.=.=.=.=.=.=.=.=.=.=.=.=.=.=.=.) =.=.=.=.=.=.=.=.",
"=.=.=.=.=.=.=.=.=.=.=.=.=.=.=.=.=.=.=.=.=.=.=.f =.=.=.=.=.=.=.=.=.=.=.=.=.=.=.=.=.=.=.=.=.=.=.=.=.=.=.=.=.=.=.) =.=.=.=.=.=.=.=.",
"=.=.=.=.=.=.=.=.=.=.=.=.=.=.=.=.=.=.=.=.=.=.=.w =.=.=.=.=.=.=.=.=.=.=.=.=.=.=.=.=.=.=.=.=.=.=.=.=.=.=.=.=.=.=.f =.=.=.=.=.=.=.=.",
"=.=.=.=.=.=.=.=.=.=.=.=.=.=.=.=.=.=.=.=.=.=.=.r =.=.=.=.=.=.=.=.=.=.=.=.=.=.=.=.=.=.=.=.=.=.=.=.=.=.=.=.=.=.=.7 =.=.=.=.=.=.=.=.",
"% % % % % % =.% % % % % % % % % % % % % % % % % % % % % % % % % % =.% % % % % % % % % % % % % % % % % % % % % % % % % =.% % % % ",
"b.b.b.v.v.v.O v.v.v.v.v.v.v.v.v.v.v.v.v.v.v.v.v.v.v.v.v.v.v.v.v.v.6 v.v.v.v.v.v.v.v.v.v.v.v.v.v.v.v.v.v.v.v.v.v.v.v.v.% v.v.v.v.",
"b.b.b.v.v.v.o.v.v.v.v.v.v.v.v.v.v.v.v.v.v.v.v.v.v.v.v.v.v.v.v.v.v.o.v.v.v.v.v.v.v.v.v.v.v.v.v.v.v.v.v.v.v.v.v.v.v.v.v.o.v.v.v.v.",
"b.b.b.v.v.v.o.v.v.v.v.v.v.v.v.v.v.v.v.v.v.v.v.v.v.v.v.v.v.v.v.v.v.o.v.v.v.v.v.v.v.v.v.v.v.v.v.v.v.v.v.v.v.v.v.v.v.v.v.o.v.v.v.v.",
"b.b.b.v.v.v.o.v.v.v.v.v.v.v.v.v.v.v.v.v.v.v.v.v.v.v.v.v.v.v.v.v.v.o.v.v.v.v.v.v.v.v.v.v.v.v.v.v.v.v.v.v.v.v.v.v.v.v.v.o.v.v.v.v.",
"m.m.m.m.m.m.o.m.m.m.m.m.m.m.m.m.m.m.m.m.m.m.m.m.m.m.m.m.m.m.m.m.m.o.m.m.m.m.m.m.m.m.m.m.m.m.m.m.m.m.m.m.m.m.m.m.m.m.m.o.m.m.m.m.",
"-.-.-.-.-.-.o.-.-.-.-.-.-.-.-.-.-.-.-.-.-.-.-.-.-.-.-.-.-.-.-.-.-.o.-.-.-.-.-.-.-.-.-.-.-.-.-.-.-.-.-.-.-.-.-.-.-.-.-.o.-.-.-.-.",
"-.-.-.-.-.-.o.-.-.-.-.-.-.-.-.-.-.-.-.-.-.-.-.-.-.-.-.-.-.-.-.-.-.o.-.-.-.-.-.-.-.-.-.-.-.-.-.-.-.-.-.-.-.-.-.-.-.-.-.o.-.-.-.-.",
"-.-.-.-.&.-.O -.-.-.-.-.-.-.-.-.-.-.-.-.-.-.-.-.-.-.-.-.-.-.-.-.-.O -.-.-.-.-.-.-.-.-.-.-.-.-.-.-.-.-.-.-.-.-.-.-.-.-.O -.-.-.-.",
"O O O O O O O O O O O O O O O O O O O O O O O O O O O O O O O O O O O O O O O O O O O O O O O O O O O O O O O O O O O O O O O O ",
"G.G.G.G.G.G.G.G.G.G.G.G.G.G.G.G.G.G.G.G.G.G.G.G.G.G.G.G.G.G.G.G.G.G.G.G.G.G.G.G.G.G.G.G.G.G.G.G.G.G.G.G.G.G.G.G.G.G.G.G.G.G.G.G.",
"G.G.G.G.G.G.G.G.G.G.G.G.G.G.G.G.G.G.G.G.G.G.G.G.G.G.G.G.G.G.G.G.G.G.G.G.G.G.G.G.G.G.G.G.G.G.G.G.G.G.G.G.G.G.G.G.G.G.G.G.G.G.G.G.",
"G.G.G.G.G.G.G.G.G.G.G.G.G.G.G.G.G.G.G.G.G.G.G.G.G.G.G.G.G.G.G.G.G.G.G.G.G.G.G.G.G.G.G.G.G.G.G.G.G.G.G.G.G.G.G.G.G.G.G.G.G.G.G.G.",
"G.G.G.G.G.G.G.G.G.G.G.G.G.G.G.G.G.G.G.G.G.G.G.G.G.G.G.G.G.G.G.G.G.G.G.G.G.G.G.G.G.G.G.G.G.G.G.G.G.G.G.G.G.G.G.G.G.G.G.G.G.G.G.G.",
"G.G.G.G.G.G.G.G.G.G.G.G.G.G.G.G.G.G.G.G.G.G.G.G.G.G.G.G.G.G.G.G.G.G.G.G.G.G.G.G.G.G.G.G.G.G.G.G.G.G.G.G.G.G.G.G.G.G.G.G.G.G.G.G.",
"G.G.G.G.G.G.G.G.G.G.G.G.G.G.G.G.G.G.G.G.G.G.G.G.G.G.G.G.G.G.G.G.G.G.G.G.G.G.G.G.G.G.G.G.G.G.G.G.G.G.G.G.G.G.G.G.G.G.G.G.G.G.G.G.",
"G.G.G.G.G.G.G.G.G.G.G.G.G.G.G.G.G.G.G.G.G.G.G.G.G.G.G.G.G.G.G.G.G.G.G.G.G.G.G.G.G.G.G.G.G.G.G.G.G.G.G.G.G.G.G.G.G.G.G.G.G.G.G.G.",
"G.G.G.G.G.G.G.G.G.G.G.G.G.G.G.G.G.G.G.G.G.G.G.G.G.G.G.G.G.G.G.G.G.G.G.G.G.G.G.G.G.G.G.G.G.G.G.G.G.G.G.G.G.G.G.G.G.G.G.G.G.G.G.G.",
"G.G.G.G.G.G.G.G.G.G.G.G.G.G.G.G.G.G.G.G.G.G.G.G.G.G.G.G.G.G.G.G.G.G.G.G.G.G.G.G.G.G.G.G.G.G.G.G.G.G.G.G.G.G.G.G.G.G.G.G.G.G.G.G.",
"G.G.G.G.G.G.G.G.G.G.G.G.G.G.G.G.G.G.G.G.G.G.G.G.G.G.G.G.G.G.G.G.G.G.G.G.G.G.G.G.G.G.G.G.G.G.G.G.G.G.G.G.G.G.G.G.G.G.G.G.G.G.G.G.",
"G.G.G.G.G.G.G.G.G.G.G.G.G.G.G.G.G.G.G.G.G.G.G.G.G.G.G.G.G.G.G.G.G.G.G.G.G.G.G.G.G.G.G.G.G.G.G.G.G.G.G.G.G.G.G.G.G.G.G.G.G.G.G.G.",
"G.G.G.G.G.G.G.G.G.G.G.G.G.G.G.G.G.G.G.G.G.G.G.G.G.G.G.G.G.G.G.G.G.G.G.G.G.G.G.G.G.G.G.G.G.G.G.G.G.G.G.G.G.G.G.G.G.G.G.G.G.G.G.G.",
"G.G.G.G.G.G.G.G.G.G.G.G.G.G.G.G.G.G.G.G.G.G.G.G.G.G.G.G.G.G.G.G.G.G.G.G.G.G.G.G.G.G.G.G.G.G.G.G.G.G.G.G.G.G.G.G.G.G.G.G.G.G.G.G.",
"G.G.G.G.G.G.G.G.G.G.G.G.G.G.G.G.G.G.G.G.G.G.G.G.G.G.G.G.G.G.G.G.G.G.G.G.G.G.G.G.G.G.G.G.G.G.G.G.G.G.G.G.G.G.G.G.G.G.G.G.G.G.G.G.",
"G.G.G.G.G.G.G.G.G.G.G.G.G.G.G.G.G.G.G.G.G.G.G.G.G.G.G.G.G.G.G.G.G.G.G.G.G.G.G.G.G.G.G.G.G.G.G.G.G.G.G.G.G.G.G.G.G.G.G.G.G.G.G.G.",
"G.G.G.G.G.G.G.G.G.G.G.G.G.G.G.G.G.G.G.G.G.G.G.G.G.G.G.G.G.G.G.G.G.G.G.G.G.G.G.G.G.G.G.G.G.G.G.G.G.G.G.G.G.G.G.G.G.G.G.G.G.G.G.G.",
"G.G.G.G.G.G.G.G.G.G.G.G.G.G.G.G.G.G.G.G.G.G.G.G.G.G.G.G.G.G.G.G.G.G.G.G.G.G.G.G.G.G.G.G.G.G.G.G.G.G.G.G.G.G.G.G.G.G.G.G.G.G.G.G.",
"G.G.G.G.G.G.G.G.G.G.G.G.G.G.G.G.G.G.G.G.G.G.G.G.G.G.G.G.G.G.G.G.G.G.G.G.G.G.G.G.G.G.G.G.G.G.G.G.G.G.G.G.G.G.G.G.G.G.G.G.G.G.G.G.",
"G.G.G.G.G.G.G.G.G.G.G.G.G.G.G.G.G.G.G.G.G.G.G.G.G.G.G.G.G.G.G.G.G.G.G.G.G.G.G.G.G.G.G.G.G.G.G.G.G.G.G.G.G.G.G.G.G.G.G.G.G.G.G.G.",
"G.G.G.G.G.G.G.G.G.G.G.G.G.G.G.G.G.G.G.G.G.G.G.G.G.G.G.G.G.G.G.G.G.G.G.G.G.G.G.G.G.G.G.G.G.G.G.G.G.G.G.G.G.G.G.G.G.G.G.G.G.G.G.G.",
"G.G.G.G.G.G.G.G.G.G.G.G.G.G.G.G.G.G.G.G.G.G.G.G.G.G.G.G.G.G.G.G.G.G.G.G.G.G.G.G.G.G.G.G.G.G.G.G.G.G.G.G.G.G.G.G.G.G.G.G.G.G.G.G.",
"G.G.G.G.G.G.G.G.G.G.G.G.G.G.G.G.G.G.G.G.G.G.G.G.G.G.G.G.G.G.G.G.G.G.G.G.G.G.G.G.G.G.G.G.G.G.G.G.G.G.G.G.G.G.G.G.G.G.G.G.G.G.G.G.",
"G.G.G.G.G.G.G.G.G.G.G.G.G.G.G.G.G.G.G.G.G.G.G.G.G.G.G.G.G.G.G.G.G.G.G.G.G.G.G.G.G.G.G.G.G.G.G.G.G.G.G.G.G.G.G.G.G.G.G.G.G.G.G.G.",
"G.G.G.G.G.G.G.G.G.G.G.G.G.G.G.G.G.G.G.G.G.G.G.G.G.G.G.G.G.G.G.G.G.G.G.G.G.G.G.G.G.G.G.G.G.G.G.G.G.G.G.G.G.G.G.G.G.G.G.G.G.G.G.G.",
"G.G.G.G.G.G.G.G.G.G.G.G.G.G.G.G.G.G.G.G.G.G.G.G.G.G.G.G.G.G.G.G.G.G.G.G.G.G.G.G.G.G.G.G.G.G.G.G.G.G.G.G.G.G.G.G.G.G.G.G.G.G.G.G.",
"G.G.G.G.G.G.G.G.G.G.G.G.G.G.G.G.G.G.G.G.G.G.G.G.G.G.G.G.G.G.G.G.G.G.G.G.G.G.G.G.G.G.G.G.G.G.G.G.G.G.G.G.G.G.G.G.G.G.G.G.G.G.G.G.",
"G.G.G.G.G.G.G.G.G.G.G.G.G.G.G.G.G.G.G.G.G.G.G.G.G.G.G.G.G.G.G.G.G.G.G.G.G.G.G.G.G.G.G.G.G.G.G.G.G.G.G.G.G.G.G.G.G.G.G.G.G.G.G.G.",
"G.G.G.G.G.G.G.G.G.G.G.G.G.G.G.G.G.G.G.G.G.G.G.G.G.G.G.G.G.G.G.G.G.G.G.G.G.G.G.G.G.G.G.G.G.G.G.G.G.G.G.G.G.G.G.G.G.G.G.G.G.G.G.G.",
"G.G.G.G.G.G.G.G.G.G.G.G.G.G.G.G.G.G.G.G.G.G.G.G.G.G.G.G.G.G.G.G.G.G.G.G.G.G.G.G.G.G.G.G.G.G.G.G.G.G.G.G.G.G.G.G.G.G.G.G.G.G.G.G.",
"G.G.G.G.G.G.G.G.G.G.G.G.G.G.G.G.G.G.G.G.G.G.G.G.G.G.G.G.G.G.G.G.G.G.G.G.G.G.G.G.G.G.G.G.G.G.G.G.G.G.G.G.G.G.G.G.G.G.G.G.G.G.G.G."
};
