/* XPM */
static char *result[] = {
/* columns rows colors chars-per-pixel */
"64 96 48 1 ",
"  c #4B2511",
". c #4F2913",
"X c #502B16",
"o c #522E1A",
"O c #4F311E",
"+ c #55321D",
"@ c #4F3626",
"# c #563522",
"$ c #583724",
"% c #573925",
"& c #5A3B27",
"* c #573C2D",
"= c #593D2A",
"- c #573F30",
"; c #5A402E",
": c #5B4333",
"> c #5A4739",
", c #5C4A3D",
"< c #644935",
"1 c #644E3C",
"2 c #5D4D42",
"3 c #5C5247",
"4 c #5E544A",
"5 c #655444",
"6 c #695645",
"7 c #655F57",
"8 c #665F58",
"9 c #666057",
"0 c #676159",
"q c #6A655C",
"w c #6D695E",
"e c #6E6A60",
"r c #716D62",
"t c #747166",
"y c #767469",
"u c #79776C",
"i c #7F7C74",
"p c #807E76",
"a c #838177",
"s c #868579",
"d c #89877D",
"f c #8D8B83",
"g c #908E86",
"h c #918F88",
"j c #94928A",
"k c #99978F",
"l c #9B9992",
"z c None",
/* pixels */
"zzzzzzzzzzzzzzz$jsssss;zzzzzzzzzzzzzzzzzzzzzzzzzzzzzzzzzzzzzzzzz",
"zzzzzzzzzzzzzzz$jsssss+zzzzzzzzzzzzzzzzzzzzzzzzzzzzzzzzzzzzzzzzz",
"zzzzzzzzzzzzzzz$jsssss+zzzzzzzzzzzzzzzzzzzzzzzzzzzzzzzzzzzzzzzzz",
"zzzzzzzzzzzzzzz$jsssss+zzzzzzzzzzzzzzzzzzzzzzzzzzzzzzzzzzzzzzzzz",
"zzzzzzzzzzzzzzz$jsssss+zzzzzzzzzzzzzzzzzzzzzzzzzzzzzzzzzzzzzzzzz",
"zzzzzzzzzzzzzzz$jsssss%zzzzzzzzzzzzzzzzzzzzzzzzzzzzzzzzzzzzzzzzz",
"zzzzzzzzzzzzzzz$kjjjkj+zzzzzzzzzzzzzzzzzzzzzzzzzzzzzzzzzzzzzzzzz",
"zzzzzzzzzzzzzzz$+<<<<++zzzzzzzzzzzzzzzzzzzzzzzzzzzzzzzzzzzzzzzzz",
"zzzzzzzzzzzzzzz%jsssss+zzzzzzzzzzzzzzzzzzzzzzzzzzzzzzzzzzzzzzzzz",
"zzzzzzzzzzzzzzz%jsssss;zzzzzzzzzzzzzzzzzzzzzzzzzzzzzzzzzzzzzzzzz",
"zzzzzzzzzzzzzzz$jsssss+zzzzzzzzzzzzzzzzzzzzzzzzzzzzzzzzzzzzzzzzz",
"zzzzzzzzzzzzzzz+jsssss+zzzzzzzzzzzzzzzzzzzzzzzzzzzzzzzzzzzzzzzzz",
"zzzzzzzzzzzzzzz+jsssss++#&&%*&&&;&;+z;&&;&;+;&&&;;+;&&&&&&&&;&&z",
"zzzzzzzzzzzzzzz+lssssssssssssspdssss1sssssssssssssssssssssssdds<",
"zzzzzzzzzzzzzzz+ksssssssssssssssssss1dsssssssssssssssssssssssss<",
"zzzzzzzzzzzzzzz+lssssssssssssssassss6dsssssssssssssssssssssssss6",
"zzzzzzzzzzzzzzzXsklllljjhhjjjjjjjjkk5lkkjjhhhhhhggjghhhhhhhjkkk5",
"zzzzzzzzzzzzzzzXsreereereeeerrrrrrrr:eeeeeeeewewwwwweqeqeeewweq:",
"zzzzzzzzzzzzzzz peeeeqeeeeeeeeeewere:eeeereeewwwwwwwqewwqeeerww:",
"zzzzzzzzzzzzzzzXseqqqeeqeeqeeeeeeeer:eeeeeweewwwwwewewwqwqqwqqq:",
"zzzzzzzzzzzzzzzXpqqqqqqee0eee0eeeeee:qweeeeewwwwwwwwwwwwwwqwqwq:",
"zzzzzzzzzzzzzzz pqqqqqqqe00eeee0weew:eeeeweeqwwqqwqwwqwwqqwqwqq:",
"zzzzzzzzzzzzzzzXpq008qqqee8e8eeeqeqq;qeeeeqewwwqqqwqqqqqqwqwqwq:",
"zzzzzzzzzzzzzzz p9q0qq8q08e8e88eqqqq@q0e0qqqqqqqqqqqqqqqqqqqqqq&",
"zzzzzzzzzzzzzzzXy77q99wqqqq9e000qq0q+0qqqqqqqqqqqqqqqqqqqqqqqqq+",
"zzzzzzzzzzzzzzz y777w9999qqq000eq0qq+q0qqq0qqqqq0qq0q0q0qq0qqq0+",
"zzzzzzzzzzzzzzz y97799999q99e0008q80O00000q00q0qq0qq0qqq0qqqqq0+",
"zzzzzzzzzzzzzzz y7889999999q00000000.00q00000000000000000000000+",
"zzzzzzzzzzzzzzzXy7777777990000000000 00000000000000000000000000+",
"zzzzzzzzzzzzzzzz.77777778q0800000000.00000000000000000000000000.",
"zzzzzzzzzzzzzzzzz                   4...X.........X............3",
"zzzzzzzzzzzzzzzzzXuwwwwwww.55444444444O4333333333333333333333333",
"zzzzzzzzzzzzzzzzz.tw9wwwqwO44444444433@3333333333333333333333333",
"zzzzzzzzzzzzzzzzz.uwwww9ww 47444444344@4333333333333333333333333",
"zzzzzzzzzzzzzzzzz+uwwwwwqw.34444444434@3333333333333333333333333",
"zzzzzzzzzzzzzzzzzXtwwwwwwwO44444444433@3333333333333333333333333",
"zzzzzzzzzzzzzzzzzXuwwwwwww 44444443343@3443333333333333333333333",
"zzzzzzzzzzzzzzzzz+uwwwwwww.r7800888700>e008800080000008000000000",
"zzzzzzzzzzzzzzzzzouwwwwwww.r7799887777>7880800880000080000e80000",
"zzzzzzzzzzzzzzzzzouwwwwwwww.++::>>::>:>>334333333333322333434443",
"zzzzzzzzzzzzzzzzz+uwwwwwww.rterw0eeeeeeeeee0eeeeeeeee2eeeeeeeee0",
"zzzzzzzzzzzzzzzzzouwrwwwww.r090000870088880000888880828887007888",
"zzzzzzzzzzzzzzzzz+uwwwwwewor000000800000000000008000820080000000",
"zzzzzzzzzzzzzzzzz+uwrrrwewor000000000800000000000000820080000000",
"zzzzzzzzzzzzzzzzz+uwwrrweeXr000000000000000000000800828000000000",
"zzzzzzzzzzzzzzzzz+urrwwwew.e000000000000000000000000820000000000",
"zzzzzzzzzzzzzzzzz+uwrwwrwr r0000000000000000000000000>0000000000",
"zzzzzzzzzzzzzzzzz+urwrwrerXr0008000000000000000000000-0000000080",
"zzzzzzzzzzzzzzzzz+uwrerrrrro+o#222242>****22>2,222@-@@#-34343443",
"zzzzzzzzzzzzzzzzz+uuuuuuuu.wqqqeqeqqqqq#eqqqqq88008e8ee8e0e88e8e",
"zzzzzzzzzzzzzzzzz+1<:;:&++ow88888888888$888888888888888888888888",
"zzzzzzzzzzzzzzzzz#artrrrrr.r88888888888,888888888888888888888888",
"zzzzzzzzzzzzzzzzz$serrrrtr.r998888888884888888888888888888888888",
"zzzzzzzzzzzzzzzzz+attrtrtr.r998888888884888888888888888888888888",
"zzzzzzzzzzzzzzzzz$arrtrtwt.r999888888884888888888888888888888888",
"zzzzzzzzzzzzzzzzz+atrttttt.w997088888884888888888888888888888888",
"zzzzzzzzzzzzzzzzz$attttttrXr888888888884888888888888888888888888",
"zzzzzzzzzzzzzzzzz#atttttttt oo--:4444444444444443322222223222222",
"zzzzzzzzzzzzzzzzz$pttttttpXqeqeqeqqeqeqqeqqeqqqeqqqqq2qqeeqeeqee",
"zzzzzzzzzzzzzzzzz#sttyyttrXr8888888888888888888888888>8888888888",
"zzzzzzzzzzzzzzzzz&pyyyyytu r888888888888888888888888828888888888",
"zzzzzzzzzzzzzzzzz$fyuutyut.r888888888888888888888888838888888888",
"zzzzzzzzzzzzzzzzz$auyyuyut.r888888888888888888888888848888888888",
"zzzzzzzzzzzzzzzzz#dyyuutuu.r8888888888888888888888888-8888888888",
"zzzzzzzzzzzzzzzzz+duuyuyyy.e9907888888888888888888888=8888888888",
"zzzzzzzzzzzzzzzzz%suuuuuuu 99088888888888888888888888=8887888888",
"zzzzzzzzzzzzzzzzz%fuuiuuuuu+++++++o#8#++++++++#o+++++++++++++++8",
"zzzzzzzzzzzzzzzzz+fuuuuuuyuuuyyyutyy.ttuytyyyyyyyyyyyyyyyyyyyyy&",
"zzzzzzzzzzzzzzzzz#fuuuuuuyuuuyyuyyyy5ttyyyyyyyyyyyyyyyyyyyyyyyy5",
"zzzzzzzzzzzzzzzzz#guuuuuuuuyuyyyyyyy5yuuyyyyyyyyyyyyyytyyyyyyyy5",
"zzzzzzzzzzzzzzzzz#guuuuuuuuuuuuyuyyy5uytyyytyyytyyyyyuyyyyyyyyy5",
"zzzzzzzzzzzzzzzzz#gfggfdfsssssssifss5sssssdsdpdddpdpddpspdsssss5",
"zzzzzzzzzzzzzzzzz.e99999889999999999599999999999888q999999999995",
"zzzzzzzzzzzzzzzzz.e999997799999999995999999999998877779999999996",
"zzzzzzzzzzzzzzzzzXr99990880099999979.09999999999777777977799897X",
"zzzzzzzzzzzzzzzzzz...... . .....................X..XX.XXX..X X.X",
"zzzzzzzzzzzzzzzzzzzzzzzzzzzzzzzzzzzzzzzzzzzzzzzzzzzzzzzzzzzzzzzz",
"zzzzzzzzzzzzzzzzzzzzzzzzzzzzzzzzzzzzzzzzzzzzzzzzzzzzzzzzzzzzzzzz",
"zzzzzzzzzzzzzzzzzzzzzzzzzzzzzzzzzzzzzzzzzzzzzzzzzzzzzzzzzzzzzzzz",
"zzzzzzzzzzzzzzzzzzzzzzzzzzzzzzzzzzzzzzzzzzzzzzzzzzzzzzzzzzzzzzzz",
"zzzzzzzzzzzzzzzzzzzzzzzzzzzzzzzzzzzzzzzzzzzzzzzzzzzzzzzzzzzzzzzz",
"zzzzzzzzzzzzzzzzzzzzzzzzzzzzzzzzzzzzzzzzzzzzzzzzzzzzzzzzzzzzzzzz",
"zzzzzzzzzzzzzzzzzzzzzzzzzzzzzzzzzzzzzzzzzzzzzzzzzzzzzzzzzzzzzzzz",
"zzzzzzzzzzzzzzzzzzzzzzzzzzzzzzzzzzzzzzzzzzzzzzzzzzzzzzzzzzzzzzzz",
"zzzzzzzzzzzzzzzzzzzzzzzzzzzzzzzzzzzzzzzzzzzzzzzzzzzzzzzzzzzzzzzz",
"zzzzzzzzzzzzzzzzzzzzzzzzzzzzzzzzzzzzzzzzzzzzzzzzzzzzzzzzzzzzzzzz",
"zzzzzzzzzzzzzzzzzzzzzzzzzzzzzzzzzzzzzzzzzzzzzzzzzzzzzzzzzzzzzzzz",
"zzzzzzzzzzzzzzzzzzzzzzzzzzzzzzzzzzzzzzzzzzzzzzzzzzzzzzzzzzzzzzzz",
"zzzzzzzzzzzzzzzzzzzzzzzzzzzzzzzzzzzzzzzzzzzzzzzzzzzzzzzzzzzzzzzz",
"zzzzzzzzzzzzzzzzzzzzzzzzzzzzzzzzzzzzzzzzzzzzzzzzzzzzzzzzzzzzzzzz",
"zzzzzzzzzzzzzzzzzzzzzzzzzzzzzzzzzzzzzzzzzzzzzzzzzzzzzzzzzzzzzzzz",
"zzzzzzzzzzzzzzzzzzzzzzzzzzzzzzzzzzzzzzzzzzzzzzzzzzzzzzzzzzzzzzzz",
"zzzzzzzzzzzzzzzzzzzzzzzzzzzzzzzzzzzzzzzzzzzzzzzzzzzzzzzzzzzzzzzz",
"zzzzzzzzzzzzzzzzzzzzzzzzzzzzzzzzzzzzzzzzzzzzzzzzzzzzzzzzzzzzzzzz",
"zzzzzzzzzzzzzzzzzzzzzzzzzzzzzzzzzzzzzzzzzzzzzzzzzzzzzzzzzzzzzzzz",
"zzzzzzzzzzzzzzzzzzzzzzzzzzzzzzzzzzzzzzzzzzzzzzzzzzzzzzzzzzzzzzzz"
};
