/* XPM */
static char *result[] = {
/* columns rows colors chars-per-pixel */
"64 96 76 1 ",
"  c #805629",
". c #845A2C",
"X c #885E2E",
"o c #8D6232",
"O c #906534",
"+ c #956936",
"@ c #9A6E3A",
"# c #9D713C",
"$ c #A1743F",
"% c #A47640",
"& c #A67842",
"* c #AB7C45",
"= c #AF8047",
"- c #AF8048",
"; c #B3844A",
": c #B6884E",
"> c #B98A4E",
", c #BC8D51",
"< c #C39254",
"1 c #C89757",
"2 c #C79758",
"3 c #C89758",
"4 c #CC9B5B",
"5 c #D09F5E",
"6 c #D1A15F",
"7 c #D4A361",
"8 c #D8A764",
"9 c #DAA966",
"0 c #D6A96C",
"q c #DDAD69",
"w c #D4AA76",
"e c #DDAF71",
"r c #DEB276",
"t c #DAB17B",
"y c #E0AF6B",
"u c #E3B26D",
"i c #E6B671",
"p c #E8B771",
"a c #ECBB74",
"s c #E2B679",
"d c #E5BA7E",
"f c #EABD7C",
"g c #F0BF77",
"h c #F0BF78",
"j c #F5C47C",
"k c #DFB781",
"l c #DFB985",
"z c #E7BD83",
"x c #EBBF80",
"c c #E0BC8C",
"v c #ECC081",
"b c #E6C18E",
"n c #EDC58C",
"m c #F1C586",
"M c #F1C789",
"N c #F2C88B",
"B c #E6C290",
"V c #E6C599",
"C c #EBCA9B",
"Z c #F2CB93",
"A c #F3D19F",
"S c #EECFA4",
"D c #EBCFA8",
"F c #ECD1AB",
"G c #F2D4A7",
"H c #F3D6AB",
"J c #EDD4B3",
"K c #EFDABD",
"L c #F0D7B5",
"P c #F4E1C5",
"I c #F5E4CA",
"U c #F7E7D1",
"Y c #F6E8D3",
"T c #F8EAD5",
"R c #F8EBDA",
"E c None",
/* pixels */
"EEEEEEEEEEEEEEEEEEEEEEEEEEEEEEEEEEEEEEEEEEEEEEEEEEEEEEEEEEEEEEEE",
"EEEEEEEEEEEEEEEEEEEEEEEEEEEEEEEEEEEEEEEEEEEEEEEEEEEEEEEEEEEEEEEE",
"EEEEEEEEEEEEEEEEEEEEEEEEEEEEEEEEEEEEEEEEEEEEEEEEEEEEEEEEEEEEEEEE",
"EEEEEEEEEEEEEEEEEEEEEEEEEEEEEEEEEEEEEEEEEEEEEEEEEEEEEEEEEEEEEEEE",
"EEEEEEEEEEEEEEEEEEEEEEEEEEEEEEEEEEEEEEEEEEEEEEEEEEEEEEEEEEEEEEEE",
"EEEEEEEEEEEEEEEEEEEEEEEEEEEEEEEEEEEEEEEEEEEEEEEEEEEEEEEEEEEEEEEE",
"EEEEEEEEEEEEEEEEEEEEEEEEEEEEEEEEEEEEEEEEEEEEEEEEEEEEEEEEEEEEEEEE",
"EEEEEEEEEEEEEEEEEEEEEEEEEEEEEEEEEEEEEEEEEEEEEEEEEEEEEEEEEEEEEEEE",
"EEEEEEEEEEEEEEEEEEEEEEEEEEEEEEEEEEEEEEEEEEEEEEEEEEEEEEEEEEEEEEEE",
"EEEEEEEEEEEEEEEEEEEEEEEEEEEEEEEEEEEEEEEEEEEEEEEEEEEEEEEEEEEEEEEE",
"EEEEEEEEEEEEEEEEEEEEEEEEEEEEEEEEEEEEEEEEEEEEEEEEEEEEEEEEEEEEEEEE",
"EEEEEEEEEEEEEEEEEEEEEEEEEEEEEEEEEEEEEEEEEEEEEEEEEEEEEEEEEEEEEEEE",
"EEEEEEEEEEEEEEEEEEEEEEEEEEEEEEEEEEEEEEEEEEEEEEEEEEEEEEEEEEEEEEEE",
"EEEEEEEEEEEEEEEEEEEEEEEEEEEEEEEEEEEEEEEEEEEEEEEEEEEEEEEEEEEEEEEE",
"EEEEEEEEEEEEEEEEEEEEEEEEEEEEEEEEEEEEEEEEEEEEEEEEEEEEEEEEEEEEEEEE",
"EEEEEEEEEEEEEEEEEEEEEEEEEEEEEEEEEEEEEEEEEEEEEEEEEEEEEEEEEEEEEEEE",
"EEEEEEEEEEEEEEEEEEEEEEEEEEEEEEEEEEEEEEEEEEEEEEEEEEEEEEEEEEEEEEEE",
"EEEEEEEEEEEEEEEEEEEEEEEEEEEEEEEEEEEEEEEEEEEEEEEEEEEEEEEEEEEEEEEE",
"EEEEEEEEEEEEEEEEEEEEEEEEEEEEEEEEEEEEEEEEEEEEEEEEEEEEEEEEEEEEEEEE",
"EEEEEEEEEEEEEEEEEEEEEEEEEEEEEEEEEEEEEEEEEEEEEEEEEEEEEEEEEEEEEEEE",
"EEEEEEEEEEEEEEEEEEEEEEEEEEEEEEEEEEEEEEEEEEEEEEEEEEEEEEEEEEEEEEEE",
"EEEEEEEEEEEEEEEEEEEEEEEEEEEEEEEEEEEEEEEEEEEEEEEEEEEEEEEEEEEEEEEE",
"EEEEEEEEEEEEEEEEEEEEEEEEEEEEEEEEEEEEEEEEEEEEEEEEEEEEEEEEEEEEEEEE",
"EEEEEEEEEEEEEEEEEEEEEEEEEEEEEEEEEEEEEEEEEEEEEEEEEEEEEEEEEEEEEEEE",
"EEEEEEEEEEEEEEEEEEEEEEEEEEEEEEEEEEEEEEEEEEEEEEEEEEEEEEEEEEEEEEEE",
"EEEEEEEEEEEEEEEEEEEEEEEEEEEEEEEEEEEEEEEEE         EEEEEEEEEEEEEE",
"EEEEEEEEEEEEEEEEEEEEEEEEEEEEEEEEEEEEEE   @;,232,;+. EEEEEEEEEEEE",
"EEEEEEEEEEEEEEEEEEEEEEEEEEEEEEEEEEEEE X:7kCGFDCbs94;X EEEEEEEEEE",
"EEEEEEEEEEEEEEEEEEEEEEEEEEEEEEEEEEE  *0DIIHZNmmmnnzq7*  EEEEEEEE",
"EEEEEEEEEEEEEEEEEEEEEEEEEEEEEEEEEE o2VUIZjjjjjjjjjjfs9<. EEEEEEE",
"EEEEEEEEEEEEEEEEEEEEEEEEEEEEEEEEE o4LRAjjjjjjjjjmjjjaaq3X EEEEEE",
"EEEEEEEEEEEEEEEEEEEEEEEEEEEEEEEE X4KTNjjjjjgaapajjjjjhiq2.EEEEEE",
"EEEEEEEEEEEEEEEEEEEEEEEEEEEEEEEE ,FTmjmjjiu9879quaajjjji9; EEEEE",
"EEEEEEEEEEEEEEEEEEEEEEEEEEEEEEE #lRZjjjju95<***<69uajjjhu9+ EEEE",
"EEEEEEEEEEEEEEEEEEEEEEEEEEEEEEE 4PHjjjay7>O    .O<7yajjjay< EEEE",
"EEEEEEEEEEEEEEEEEEEEEEEEEEEEEE $lUvjjgu6&  EEEEE  ;7uhjjji8+ EEE",
"EEEEEEEEEEEEEEEEEEEEEEEEEEEEEE ,LGjjju6= EEEEEEEEE >8uhjjaq; EEE",
"EEEEEEEEEEEEEEEEEEEEEEEEEEEEEE.5PNjjjy1.EEEEEEEEEEEX5qajjau4 EEE",
"EEEEEEEEEEEEEEEEEEEEEEEEEEEEEEO0Pjjja8$ EEEEEEEEEEE :9pjjju7XEEE",
"EEEEEEEEEEEEEEEEEEEEEEEEEEEEE @tFjjju5OEEEEEEEEEEEE @7ujjjp7OEEE",
"EEEEEEEEEEEEEEEEEEEEEEEEEEEEE $sCjjji4.EEEEEEEEEEEEEo8ugjjp7+EEE",
"EEEEEEEEEEEEEEEEEEEEEEEEEEEEE $tCjjju4.EEEEEEEEEEEEEo6ujjjp6+EEE",
"EEEEEEEEEEEEEEEEEEEEEEEEEEEEE #0Cjjja4oEEEEEEEEEEEE @8ujjji4OEEE",
"EEEEEEEEEEEEEEEEEEEEEEEEEEEEEEO7Vjjja9# EEEEEEEEEEE ;9ijjju4XEEE",
"EEEEEEEEEEEEEEEEEEEEEEEEEEEEEE 4bajjju4.EEEEEEEEEEEX6ygjja9> EEE",
"EEEEEEEEEEEEEEEEEEEEEEEEEEEEEE ,rajjjiq- EEEEEEEEE >qijjja6* EEE",
"EEEEEEEEEEEEEEEEEEEEEEEEEEEEEE $7dajjji9*  EEEEE  ;9uhjjjy2O EEE",
"EEEEEEEEEEEEEEEEEEEEEEEEEEEEEEE 4epjjjaiq<o     +<9uhjjjp5: EEEE",
"EEEEEEEEEEEEEEEEEEEEEEEEEEEEEEE *7uajjjhpy94>:>49ypajjja9<+ EEEE",
"EEEEEEEEEEEEEEEEEEEEEEEEEEEEEE @wl7uajjjjaauuyuuuajjjjjy1* EEEEE",
"EEEEEEEEEEEEEEEEEEEEEEEEEEEEE #wJr88uajjjjjjhajhjjjjjay1;.EEEEEE",
"EEEEEEEEEEEEEEEEEEEEEEEEEEEE #tJsiu88uahjjjjjjjjjjjjaq1>. EEEEEE",
"EEEEEEEEEEEEEEEEEEEEEEEEEEE #tLvaaiq67quaajjjjjjjhau7<=X EEEEEEE",
"EEEEEEEEEEEEEEEEEEEEEEEEEE #tJvjjhi91<69quupaaapiu84<$. EEEEEEEE",
"EEEEEEEEEEEEEEEEEEEEEEEEE #tLvjjjhu4<oo;4789999751<%. EEEEEEEEEE",
"EEEEEEEEEEEEEEEEEEEEEEEE #tLvjjjji7<o E X@*><<,;$+  EEEEEEEEEEEE",
"EEEEEEEEEEEEEEEEEEEEEEE #tLxjjjji6<O EEEE         EEEEEEEEEEEEEE",
"EEEEEEEEEEEEEEEEEEEEEE #tLxjjjhp7<O EEEEEEEEEEEEEEEEEEEEEEEEEEEE",
"EEEEEEEEEEEEEEEEEEEEE #tLvjjjji6<O EEEEEEEEEEEEEEEEEEEEEEEEEEEEE",
"EEEEEEEEEEEEEEEEEEEE #tJxjjjjp7<o EEEEEEEEEEEEEEEEEEEEEEEEEEEEEE",
"EEEEEEEEEEEEEEEEEEE #tLvjjjji6<O EEEEEEEEEEEEEEEEEEEEEEEEEEEEEEE",
"EEEEEEEEEEEEEEEEEE #tLvjjjjp7<O EEEEEEEEEEEEEEEEEEEEEEEEEEEEEEEE",
"EEEEEEEEEEEEEEEEE #tLvjjjjp6<O EEEEEEEEEEEEEEEEEEEEEEEEEEEEEEEEE",
"EEEEEEEEEEEEEEEE #tLxjjjhp6<O EEEEEEEEEEEEEEEEEEEEEEEEEEEEEEEEEE",
"EEEEEEEEEEEEEEE #tLvjjjgp6<O EEEEEEEEEEEEEEEEEEEEEEEEEEEEEEEEEEE",
"EEEEEEEEEEEEEE #tLxjjjjp51+ EEEEEEEEEEEEEEEEEEEEEEEEEEEEEEEEEEEE",
"EEEEEEEEEEEEE #tJjjjjjp5<O EEEEEEEEEEEEEEEEEEEEEEEEEEEEEEEEEEEEE",
"EEEEEEEEEEEE #tJxjjmjp6<O EEEEEEEEEEEEEEEEEEEEEEEEEEEEEEEEEEEEEE",
"EEEEEEEEEEE #tJjjjjji6<O EEEEEEEEEEEEEEEEEEEEEEEEEEEEEEEEEEEEEEE",
"EEEEEEEEEE #tLxjmjja6<1@ EEEEEEEEEEEEEEEEEEEEEEEEEEEEEEEEEEEEEEE",
"EEEEEEEEE #tLxjjjji6<566# EEEEEEEEEEEEEEEEEEEEEEEEEEEEEEEEEEEEEE",
"EEEEEEEE #tLxjjjji6<46ygu$ EEEEEEEEEEEEEEEEEEEEEEEEEEEEEEEEEEEEE",
"EEEEEEE #tLvjjjhi7<;5yajjp% EEEEEEEEEEEEEEEEEEEEEEEEEEEEEEEEEEEE",
"EEEEEE #tJvjjjji6<O :ujjjju+ EEEEEEEEEEEEEEEEEEEEEEEEEEEEEEEEEEE",
"EEEEEEo0Lvjjjjp6<O E ,ajjjp& EEEEEEEEEEEEEEEEEEEEEEEEEEEEEEEEEEE",
"EEEEE +tnjjjjp7<O EEE ,aja,.EEEEEEEEEEEEEEEEEEEEEEEEEEEEEEEEEEEE",
"EEEEEE :iajji6<<@ EEEE.,q,.EEEEEEEEEEEEEEEEEEEEEEEEEEEEEEEEEEEEE",
"EEEEEEE ,paa7<477# EEEE o.EEEEEEEEEEEEEEEEEEEEEEEEEEEEEEEEEEEEEE",
"EEEEEEEE :84<47yau$ EEEEEEEEEEEEEEEEEEEEEEEEEEEEEEEEEEEEEEEEEEEE",
"EEEEEEEEE %;;5yajju$ EEEEEEEEEEEEEEEEEEEEEEEEEEEEEEEEEEEEEEEEEEE",
"EEEEEEEEEE   ;ujjmja+ EEEEEEEEEEEEEEEEEEEEEEEEEEEEEEEEEEEEEEEEEE",
"EEEEEEEEEEEEE.,ajjju& EEEEEEEEEEEEEEEEEEEEEEEEEEEEEEEEEEEEEEEEEE",
"EEEEEEEEEEEEEE ,aja>.EEEEEEEEEEEEEEEEEEEEEEEEEEEEEEEEEEEEEEEEEEE",
"EEEEEEEEEEEEEEE >y<.EEEEEEEEEEEEEEEEEEEEEEEEEEEEEEEEEEEEEEEEEEEE",
"EEEEEEEEEEEEEEEE o.EEEEEEEEEEEEEEEEEEEEEEEEEEEEEEEEEEEEEEEEEEEEE",
"EEEEEEEEEEEEEEEEEEEEEEEEEEEEEEEEEEEEEEEEEEEEEEEEEEEEEEEEEEEEEEEE",
"EEEEEEEEEEEEEEEEEEEEEEEEEEEEEEEEEEEEEEEEEEEEEEEEEEEEEEEEEEEEEEEE",
"EEEEEEEEEEEEEEEEEEEEEEEEEEEEEEEEEEEEEEEEEEEEEEEEEEEEEEEEEEEEEEEE",
"EEEEEEEEEEEEEEEEEEEEEEEEEEEEEEEEEEEEEEEEEEEEEEEEEEEEEEEEEEEEEEEE",
"EEEEEEEEEEEEEEEEEEEEEEEEEEEEEEEEEEEEEEEEEEEEEEEEEEEEEEEEEEEEEEEE",
"EEEEEEEEEEEEEEEEEEEEEEEEEEEEEEEEEEEEEEEEEEEEEEEEEEEEEEEEEEEEEEEE",
"EEEEEEEEEEEEEEEEEEEEEEEEEEEEEEEEEEEEEEEEEEEEEEEEEEEEEEEEEEEEEEEE",
"EEEEEEEEEEEEEEEEEEEEEEEEEEEEEEEEEEEEEEEEEEEEEEEEEEEEEEEEEEEEEEEE",
"EEEEEEEEEEEEEEEEEEEEEEEEEEEEEEEEEEEEEEEEEEEEEEEEEEEEEEEEEEEEEEEE",
"EEEEEEEEEEEEEEEEEEEEEEEEEEEEEEEEEEEEEEEEEEEEEEEEEEEEEEEEEEEEEEEE",
"EEEEEEEEEEEEEEEEEEEEEEEEEEEEEEEEEEEEEEEEEEEEEEEEEEEEEEEEEEEEEEEE"
};
