/* XPM */
static char *result[] = {
/* columns rows colors chars-per-pixel */
"67 96 238 2 ",
"   c #020101",
".  c #0B0505",
"X  c #060C0C",
"o  c #0A0C0C",
"O  c #01050C",
"+  c #140B0B",
"@  c #1B0D0D",
"#  c #180401",
"$  c #020816",
"%  c #0A1313",
"&  c #0D1B1B",
"*  c #051616",
"=  c #131414",
"-  c #111C1C",
";  c #1D1717",
":  c #230608",
">  c #2B080A",
",  c #380A0D",
"<  c #241313",
"1  c #2F1818",
"2  c #281817",
"3  c #331A1A",
"4  c #3C1F1F",
"5  c #371213",
"6  c #300F10",
"7  c #000E2C",
"8  c #001135",
"9  c #081526",
"0  c #0B2626",
"q  c #122424",
"w  c #152C2C",
"e  c #192C2C",
"r  c #132737",
"t  c #1A3434",
"y  c #1E3B3B",
"u  c #163535",
"i  c #0D2E36",
"p  c #2C2C2C",
"a  c #242726",
"s  c #3E2020",
"d  c #342929",
"f  c #213D3D",
"g  c #293839",
"h  c #383838",
"j  c #3E3122",
"k  c #3F1D22",
"l  c #550000",
"z  c #490E13",
"x  c #5A1215",
"c  c #4E120F",
"v  c #680000",
"b  c #7B0000",
"n  c #710F00",
"m  c #681319",
"M  c #75151D",
"N  c #7D171F",
"B  c #6B1001",
"V  c #681E26",
"C  c #432222",
"Z  c #4B2626",
"A  c #4E2828",
"S  c #532A2A",
"D  c #5B2E2E",
"F  c #55252A",
"G  c #463634",
"H  c #5F3030",
"J  c #643232",
"K  c #6B3636",
"L  c #6F3839",
"P  c #743A3A",
"I  c #7B3E3E",
"U  c #713239",
"Y  c #6E272F",
"T  c #591F15",
"R  c #001746",
"E  c #001E5A",
"W  c #1A2B48",
"Q  c #193445",
"!  c #1A2E58",
"~  c #002268",
"^  c #00297A",
"/  c #17326A",
"(  c #243963",
")  c #723C42",
"_  c #184444",
"`  c #185757",
"'  c #0F4343",
"]  c #224243",
"[  c #254B4B",
"{  c #294D4D",
"}  c #20424B",
"|  c #2B5454",
" . c #2D5A5A",
".. c #255555",
"X. c #315D5D",
"o. c #355758",
"O. c #3C4444",
"+. c #2E4E74",
"@. c #1B6161",
"#. c #2A6868",
"$. c #336262",
"%. c #3B6464",
"&. c #356A6A",
"*. c #396C6C",
"=. c #297474",
"-. c #327474",
";. c #3C7474",
":. c #367C7C",
">. c #3D7B7B",
",. c #434343",
"<. c #4C4C4C",
"1. c #5B5B5C",
"2. c #565657",
"3. c #5C4F55",
"4. c #7F4040",
"5. c #774C4B",
"6. c #705052",
"7. c #446C6C",
"8. c #417D7D",
"9. c #4C7575",
"0. c #547878",
"q. c #6A6A6A",
"w. c #646464",
"e. c #747373",
"r. c #7A7A7A",
"t. c #8B0000",
"y. c #960101",
"u. c #8F150E",
"i. c #BA0000",
"p. c #A91000",
"a. c #902E12",
"s. c #BE3D11",
"d. c #B23C0D",
"f. c #881922",
"g. c #981C26",
"h. c #A41D29",
"j. c #AA1F2B",
"k. c #B01F2D",
"l. c #89323B",
"z. c #933239",
"x. c #B4202D",
"c. c #B9212F",
"v. c #BF2230",
"b. c #A62C31",
"n. c #C00F0A",
"m. c #C42332",
"M. c #CC2434",
"N. c #D32635",
"B. c #CF3028",
"V. c #D53B1E",
"C. c #A1420D",
"Z. c #B63A47",
"A. c #863E45",
"S. c #C43E4C",
"D. c #834242",
"F. c #894646",
"G. c #8E4949",
"H. c #854049",
"J. c #944C4C",
"K. c #994E4E",
"L. c #9C5050",
"P. c #8F4F59",
"I. c #B34C58",
"U. c #81625F",
"Y. c #DD4655",
"T. c #C64A46",
"R. c #E04C5B",
"E. c #D05C69",
"W. c #E25464",
"Q. c #E56371",
"!. c #063698",
"~. c #0A3489",
"^. c #0B3FA8",
"/. c #1243A7",
"(. c #0E46B7",
"). c #174CB7",
"_. c #2152B4",
"`. c #124DC3",
"'. c #1B59D7",
"]. c #1853C8",
"[. c #225CD0",
"{. c #3469D3",
"}. c #2264E8",
"|. c #276CF6",
" X c #3175FE",
".X c #1F61E4",
"XX c #407AF1",
"oX c #3A8383",
"OX c #3E8A8A",
"+X c #448484",
"@X c #468989",
"#X c #498D8D",
"$X c #4F8787",
"%X c #4C9393",
"&X c #4F9999",
"*X c #429292",
"=X c #519C9C",
"-X c #578C8C",
";X c #638383",
":X c #718E8E",
">X c #789494",
",X c #55A3A3",
"<X c #58A7A7",
"1X c #5AABAB",
"2X c #878787",
"3X c #959595",
"4X c #9C9C9C",
"5X c #998C84",
"6X c #A59292",
"7X c #B1AA9D",
"8X c #93A8A8",
"9X c #ACACAC",
"0X c #A3A3A3",
"qX c #B4B4B4",
"wX c #BABABA",
"eX c #AFBAB6",
"rX c #C2B9A8",
"tX c #C9C4B9",
"yX c #B6C4C4",
"uX c #CBCBCB",
"iX c #C4C6C6",
"pX c #CBD5D5",
"aX c #D3D3D3",
"sX c #DBDCDC",
"dX c #D8DBD7",
"fX c #DAD5CA",
"gX c #EDE7D8",
"hX c #DCE3E3",
"jX c #E5E5E5",
"kX c #EAEBEB",
"lX c #E7EBEB",
"zX c #FDF6E9",
"xX c #F4F4F4",
"cX c #FEFEFD",
"vX c #FEFBF2",
"bX c #EEF1F1",
"nX c #E1D2D2",
"mX c None",
/* pixels */
"mXmXmXmXmXmXmXmXmXmXmXmXmXmXmXmXmXmXmXmXmXmXmXmXmXmXmXmXmXmXmXmXmXmXmXmXmXmXmXmXmXmXmXmXmXmXmXmXmXmXmXmXmXmXmXmXmXmXmXmXmXmXmXmXmXmXmX",
"mXmXmXmXmXmXmXmXmXmXmXmXmXmXmXmXmXmXmXmXmXmXmXmXmXmXmXmXmXmXmXmXmXmXmXmXmXmXmXmXmXmXmXmXmXmXmXmXmXmXmXmXmXmXmXmXmXmXmXmXmXmXmXmXmXmXmX",
"mXmXmXmXmXmXmXmXmXmXmXmXmXmXmXmXmXmXmXmXmXmXmXmXmXmXmXmXmXmXmXmXmXmXmXmXmXmXmXmXmXmXmXmXmXmXmXmXmXmXmXmXmXmXmXmXmXmXmXmXmXmXmXmXmXmXmX",
"mXmXmXmXmXmXmXmXmXmXmXmXmXmXmXmXmXmXmXmXmXmXmXmXmXmXmXmXmXmXmXmXmXmXmXmXmXmXmXmXmXmXmXmXmXmXmXmXmXmXmXmXmXmXmXmXmXmXmXmXmXmXmXmXmXmXmX",
"mXmXmXmXmXmXmXmXmXmXmXmXmXmXmXmXmXmXmXmXmXmXmXmXmXmXmXmXmX  mXmXmXmXmXmXmXmXmXmXmXmXmXmXmXmXmXmXmXmXmXmXmXmXmXmXmXmXmXmXmXmXmXmXmXmXmX",
"mXmXmXmXmXmXmXmXmXmXmXmXmXmXmXmXmXmXmXmXmXmXmXmXmXmXmXmX    mXmXmXmXmXmXmXmXmXmXmXmXmXmXmXmXmXmXmXmXmXmXmXmXmXmXmXmXmXmXmXmXmXmXmXmXmX",
"mXmXmXmXmXmXmXmXmXmXmXmXmXmXmXmXmXmXmXmXmXmXmXmXmXmXmXmX  mXmXmXmXmXmXmXmXmXmXmXmXmXmXmXmXmXmXmXmXmXmXmXmXmXmXmXmXmXmXmXmXmXmXmXmXmXmX",
"mXmXmXmXmXmXmXmXmXmXmXmXmXmXmXmXmXmXmXmXmXmXmXmXmXmXmX+ @ mXmXmXmXmXmXmXmXmXmXmXmXmXmXmXmXmXmXmXmXmXmXmXmXmXmXmXmXmXmXmXmXmXmXmXmXmXmX",
"mXmXmXmXmXmXmXmXmXmXmXmXmXmXmXmXmXmXmXmXmXmXmXmXmXmX  C < mXmXmXmXmXmX  . . + + + + + . . .   mXmXmXmXmXmXmXmXmXmXmXmXmXmXmXmXmXmXmXmX",
"mXmXmXmXmXmXmXmXmXmXmXmXmXmXmXmXmXmXmXmXmXmXmXmXmXmX< J @ mX  . < 4 J I F.G.J.J.L.K.J.J.F.I K Z 3 +   mXmXmXmXmXmXmXmXmXmXmXmXmXmXmXmX",
"mXmXmXmXmXmXmXmXmXmXmXmXmXmXmXmXmXmXmXmXmXmXmXmXmX  J J + C I J.K.J.F.F.D.D.4.D.4.D.D.D.D.F.F.J.K.K.F.J 1 . mXmXmXmXmXmXmXmXmXmXmXmXmX",
"mXmXmXmXmXmXmXmXmXmXmXmXmXmXmXmXmXmX    < 4 4 3 3 S I P G.J.D.I I I I I 4.4.D.4.D.D.4.D.D.4.4.I 4.I D.G.L.F.S + mXmXmXmXmXmXmXmXmXmXmX",
"mXmXmXmXmXmXmXmXmXmXmXmXmXmXmXmXmXmXmXmX. < D L F.D.P P I L P I P I I l.4.4.D.D.D.D.D.D.D.D.l.I I I I I I 4.F.J.1   mXmXmXmXmXmXmXmXmX",
"mXmXmXmXmXmXmXmXmXmXmXmXmXmXmXmXmXmXmXmXmX  . 4 J L L L P P I P I I I 4.4.D.D.D.D.F.F.F.D.D.D.D.4.I I I P L H C   mXmXmXmXmXmXmXmXmXmX",
"mXmXmXmXmXmXmXmXmXmXmXmXmXmXmXmXmXmXmXmX. 4 4.I L K K L P P P P I P I I 4.4.D.D.D.D.D.D.D.D.D.I 4.I I P I 4.D.D.P Z < .   mXmXmXmXmXmX",
"mXmXmXmXmXmXmXmXmXmXmXmXmXmXmXmXmXmX  @ P G.I G.K.J.4.I I P P I I I I I 4.4.4.D.D.D.D.D.D.D.I D.4.I I I P P K H H H H s   mXmXmXmXmXmX",
"mXmXmXmXmXmXmXmXmXmXmXmXmXmXmXmXmXmXmXmX  @ D.K.L.L.D.J G.L.K.J.G.G.F.F.F.D.D.4.D.D.D.D.D.D.D.D.D.F.G.G.J.J.K.J.D.H @   mXmXmXmXmXmXmX",
"mXmXmXmXmXmXmXmXmXmXmXmXmXmXmXmXmXmXmXmX+ S P D.K.L.G.S D D.L.L.G.D.L.K.L.L.L.K.G.L.L.L.L.L.L.L.L.L.L.L.L.L.L.L.L.K.D.D <   mXmXmXmXmX",
"mXmXmXmXmXmXmXmXmXmXmXmXmXmXmXmXmXmXmX  Z J J J J L I S S S P L.F.D 4.K.L.L.L.4.D K.L.L.L.L.L.L.L.L.L.L.L.L.K.J.F.P K K L J 3     mXmX",
"mXmXmXmXmXmXmXmXmXmXmXmXmXmXmXmXmXmXmX@ J K J J J J D S S S S K 4.A S I L.L.K.D S I L.K.G.L.L.K.L.J.F.G.D.I L K I G.I J 2 .     mXmXmX",
"mXmXmXmXmXmXmXmXmXmXmXmXmXmXmXmXmXmX  Z J J J J J J D S A 3 S S A S S S J I J S S D P P S L I I L J S L K K K K J P P P I K 4   mXmXmX",
"mXmXmXmXmXmXmXmXmXmXmXmXmXmXmXmXmXmX+ H J K J H J J D A A < @ Z A S S S S D S A S S J J S S D K L D S D K K D J J J J D S C . mXmXmXmX",
"mXmXmXmXmXmXmXmXmXmXmXmXmXmXmXmXmXmX6 J J J J D S H H C + < X ; Z S s A S S S S A S S D S S S D J S S S H J S D J P F.L C     mXmXmXmX",
"mXmXmXmXmXmXmXmXmXmXmXmXmXmXmXmXmXmX3 J J J J H S S S A @ % %  .; C 2 o s S S 3 @ A S S S A S S S S Z A S S S S J K P I D.P C @   mXmX",
"mXmXmXmXmXmXmXmXmXmXmXmXmXmXmXmXmXmXC J D J J H S F S S < $. .*.>.- < g y @ Z 2 [ = 4 S A + 3 A S S 2 @ Z S S S S J J S S S 4 @   mXmX",
"mXmXmXmXmXmXmXmXmXmXmXmXmXmXmXmXmXmXZ J D H H H S C Z S 1 o.&X&X=X8.- t =X*.= & %X@Xw 1 C - ] < C S @ f 2 S < Z S J J I 3 .   mXmXmXmX",
"mXmXmXmXmXmXmXmXmXmXmXmXmXmXmXmXmXmXZ J H D D S S @ o < 1 ] =X=X=X=X%X[ =X,X=X*.<X<X,X| o ] ,X8.e < = %Xf < % @ A S J P 4 mXmXmXmXmXmX",
"mXmXmXmXmXmXmXmXmXmXmXmXmXmXmXmXmX  Z J D S D S S < { { - e =X=X,X,X,X=X,X<X<X<X<X<X<X<X8.*.,X,X&Xo.t =X%Xq [ | < A S S K   mXmXmXmXmX",
"mXmXmXmXmXmXmXmXmXmXmXmXmXmXmXmXmX  Z J J S S S S 3 [ >.;.| #X=X,X,X1X1X<X1X1X1X1X1X1X1X<X,X<X,X,X,X&X,X=X#X+X&Xy C S C D < mXmXmXmXmX",
"mXmXmXmXmXmXmXmXmXmXmXmXmXmXmXmXmX  C J H S S S S 4 f %.{ [ X.&X=X,X,X1X1X1X1X1X1X1X1X1X1X<X<X,X,X,X,X&X=X=X=X=X| 4 S   + <   mXmXmXmX",
"mXmXmXmXmXmXmXmXmXmXmXmXmXmXmXmXmX  4 D S S A S 1 C y *.{ [  .+X$.=X1X1X1X1X1X1X1X1X1X1X<X<X,X<X,X,X,X&X%X%.%X=X$.C C   mXmX  mXmXmXmX",
"mXmXmXmXmXmXmXmXmXmXmXmXmXmXmXmXmXmX3 S S S S Z . 4 t @XX.| 8.=X&X,X1X1X1X1X1X1X1X1X1X1X<X1X<X<X,X1X,X,X@X| #X%X&.C < mXmXmXmXmXmXmXmX",
"mXmXmXmXmXmXmXmXmXmXmXmXmXmXmXmXmXmX< Z S S S C - = q %X=X%X+X8.;.;.@X=X<X<X1X1X1X1X1X<X<X<X,X,X1X1X1X1X=X+Xo.X.;.s + mXmXmXmXmXmXmXmX",
"mXmXmXmXmXmXmXmXmXmXmXmXmXmXmXmXmXmX  . + 4 S 4 y ] & @X@X%.X.9.:X:X0.*.@X,X1X1X1X<X<X<X=X<X,X,X1X1X1X1X=X%X| | ;.4   mXmXmXmXmXmXmXmX",
"mXmXmXmXmXmXmXmXmXmXmXmXmXmXmXmXmX        + S 1 [ #Xw *.$.7.yXcXcXcXcXpX0.+X<X<X<X,X<X<X,X,X,X,X1X1X,X,X=X&X;.8.+X2 mXmXmXmXmXmXmXmXmX",
"mXmXmXmXmXmXmXmXmXmXmXmXmXmXmX  q &.@X+X$.X A <  .%X;.| %.uXcXcXcXcXxXcXjX0.#X,X,X,X,X,X>.>.=X,X,X,X=X&X%X&X%X=X$X+   mXmXmXmXmXmXmXmX",
"mXmXmXmXmXmXmXmXmXmXmXmXmXmXO &.=X#X@X@X@Xq 4 < &.%X;.$.8XcXcXcXcXcXkXkXxXeX;.,X,X=X,X=X$.&.=X=X=X=X8.;X7.&.#X=X8.& $.o mXmXmXmXmXmXmX",
"mXmXmXmXmXmXmXmXmXmXmXmXmX  | &X@X+X+X+X+Xt 1 + >.%X$.%.pXcXcXcXcXcXkXjXkXhX%.&X,X=X=X=X=X=X&X=X=X-XhXcXxX:X&.=X&.w %X+X% mXmXmXmXmXmX",
"mXmXmXmXmXmXmXmXmXmXmXmXmX- &X@X+X;.;.;.;.[ @ + +X%XX.7.hXcXcXcXcXxXjXjXjXlX9.#X=X=X=X=X=X=X@X%X%XeXvXcXbXhX%.+XX.] +X%X8.  mXmXmXmXmX",
"mXmXmXmXmXmXmXmXmXmXmXmXmX .#X@X>.>.;.;.;.&.X o @X#X$.%.pXcXxXlXjXjXjXjXkXjX7.#X&X=X=X=X=X&X&X&X$XzXcXcXkXkX;X;.o.f +X@X=X& mXmXmXmXmX",
"mXmXmXmXmXmXmXmXmXmXmXmX  &.@X+X>.;.;.>.;.;.X & @X&XX.X.8XcXcXbXjXkXkXxXxXyX$.%X&X%X&X&X&X&X&X&X$XcXxXxXjXkX;X*.X.y >.@X@X[ mXmXmXmXmX",
"mXmXmXmXmXmXmXmXmXmXmXmX  $.@X@X>.;.;.;.;.;.- w +X=X*.X.9.hXcXcXxXkXxXcXxX;X*.%X&X&X&X%X&X%X%X&X+XbXxXkXkXkX0.;.;.w >.@X@Xo.  mXmXmXmX",
"mXmXmXmXmXmXmXmXmXmXmXmXmX] @X@X>.;.;.>.;.>.t y 8.#X@XX.X.0.dXcXcXcXcXjX;X$.8.%X%X%X%X%X%X%X%X%X+X8XcXxXvXpX$.>.+Xq >.@X@X] mXmXmXmXmX",
"mXmXmXmXmXmXmXmXmXmXmXmXmX% >.@X+X>.;.;.;.;.] ] >.@X&X;.$.X.%.:XeXeX>X7.$.*.%X%X%X%X%X%X%X%X%X%X%X7.yXcXhX9.$.@X%X% >.@X#X- mXmXmXmXmX",
"mXmXmXmXmXmXmXmXmXmXmXmXmXmXq +X@X+X;.>.;.;.X.| *.&.@X&X8.X.X.X.$.X.X.$.;.%X#X*X#X#X#X%X#X*X#X#X#X+X$.X.$.$.8.#X&X& 8.@X$.  mXmXmXmXmX",
"mXmXmXmXmXmXmXmXmXmXmXmXmXmX  w >.@X+X>.>.;.;.&.*.| 8.@X%X%X>.&.$.#.;.@X#X#X#X*X%X&X%X%X#X#X#X#X#X#X@X;.*.+X#X@X@X% +X*.X mXmXmXmXmXmX",
"mXmXmXmXmXmXmXmXmXmXmXmXmXmXmXmXO q ] f q q *.;.;.>.;.>.+X+X#X%X&X%X#X@X#X#X8.-.%.X.%.$.*._.$X#X@X@X@X@X#X+X .@Xf t [ O mXmXmXmXmXmXmX",
"mXmXmXmXmXmXmXmXmXmXmXmXmXmXmXmXmXmXmXmXmX  &  .;.;.;.X.&.| X.@X@X@X@X+X7.1.) ) 6.5.U H.P.2.%.*.+X@X@X@X+X;.&.f       mXmXmXmXmXmXmXmX",
"mXmXmXmXmXmXmXmXmXmXmXmXmXmXmXmXmXmXmXmXmX, x : = y $.;.*.| X.>._.>.%.G.D.5.tXzXvXvXzXdX7Xq.4.3.%.;.8._.*.f %   mXmXmXmXmXmXmXmXmXmXmX",
"mXmXmXmXmXmXmXmXmXmXmXmXmXmXmXmXmXmXmXmX: m N f.N c @ % e [ $.*.7.1.T.I.5XzXzXzXcXvXvXvXzXzXgX5.L.X...j %   mXmXmXmXmXmXmXmXmXmXmXmXmX",
"mXmXmXmXmXmXmXmXmXmXmXmXmXmXmXmXmXmXmXmX, , z M g.h.j.h.f.x , + ; j Y z.G 5XtXvXcXvXdXtXrXfXtXG 3 X X mXmXmXmXmXmXmXmXmXmXmXmXmXmXmXmX",
"mXmXmXmXmXmXmXmXmXmXmXmXmXmXmXmXmXmXmX  , M g.a.c g.j.x.x.c.m.m.j.a.5 c # Y 5.7XaXgXF.b.b.z.: mXmXmXmXmXmXmXmXmXmXmXmXmXmXmXmXmXmXmXmX",
"mXmXmXmXmXmXmXmXmXmXmXmXmXmXmXmXmXmX. z M g.j.x.d.m k.x.x.c.m.M.B.s.M B.a.z.R.T.Z.l.b.Y.Y.S.mXmXmXmXmXmXmXmXmXmXmXmXmXmXmXmXmXmXmXmXmX",
"mXmXmXmXmXmXmXmXmXmXmXmXmXmXmXmXmXmX: m N g.j.x.V.T g.x.c.m.m.M.B.s.M x.V.z.R.Y.Y.Y.Y.R.R.I.mXmXmXmXmXmXmXmXmXmXmXmXmXmXmXmXmXmXmXmXmX",
"mXmXmXmXmXmXmXmXmXmXmXmXmXmXmXmXmXmX: x N g.j.x.B.C.M k.c.m.m.M.N.s.M x.B.a.E.W.W.W.W.W.Q.U mXmXmXmXmXmXmXmXmXmXmXmXmXmXmXmXmXmXmXmXmX",
"mXmXmXmXmXmXmXmXmXmXmXmXmXmXmXmXmXmX: m N M m x g.B x x.c.c.m.M.N.d., z m : U Q.W.W.W.Q.I.mXmXmXmXmXmXmXmXmXmXmXmXmXmXmXmXmXmXmXmXmXmX",
"mXmXmXmXmXmXmXmXmXmXmXmXmXmXmXmXmX. > , < ; $.*.g z z h.c.m.m.M.B.d._ >.t mXmXS L.E.I.K mXmXmXmXmXmXmXmXmXmXmXmXmXmXmXmXmXmXmXmXmXmXmX",
"mXmXmXmXmXmXmXmXmXmXmXmXmXmXmXmXmX> > > { $.%X,X@XV h.k.c.m.m.M.V.C.#.:...mXmXmXmXmXmXmXmXmXmXmXmXmXmXmXmXmXmXmXmXmXmXmXmXmXmXmXmXmXmX",
"mXmXmXmXmXmXmXmXmXmXmXmXmXmXmXmXmX= < x { ;.#X&X@XV f.g.M m.h.f.s.< -.oX#.w mXmXmXmX& ..& mXmXmXmXmXmXmXmXmXmXmXmXmXmXmXmXmXmXmXmXmXmX",
"mXmXmXmXmXmXmXmXmXmXmXmXmXmXmXmXmX{ g x ] 9.oX%X*Xo.= p g g.f.a j y -.:.:.OX .& mXu -. .% mXmXmX& & mXmXmXmXmXmXmXmXmXmXmXmXmXmXmXmXmX",
"mXmXmXmXmXmXmXmXmXmXmXmXmXmXmXmXmX .| f [ *.+X*X#X=X&X| f C V &.+X..-.>.oX@X*X*X..:.-.- - - 0 *.:.:.$.X mXmXmXmXmXmXmXmXmXmXmXmXmXmXmX",
"mXmXmXmXmXmXmXmXmXmXmXmXmXmXmXmXmX$.;.;.;.| @X#X%X=X<X<X#Xg a @X@X..=.-.:.oXOXOX-.:.;.-.OX*X*X&.] y -...mXmXmXmXmXmXmXmXmXmXmXmXmXmXmX",
"mXmXmXmXmXmXmXmXmXmXmXmXmXmXmXmXmX&.;.>.#X .>.@X#X%X=X=X,X%X@X] $.e w _ #.-.oXoX:.:.OX:.oXOX*Xy   O & q mXmXmXmXmXmXmXmXmXmXmXmXmXmXmX",
"mXmXmXmXmXmXmXmXmXmXmXmXmXmXmXmXX  .$.;.@X;.{ ;.8.@X%X&X=X=X=X#X8.=X%X8.y _ =.-.-.:.:.:.:.OXOX#.-. .% mXmXmXmXmXmXmXmXmXmXmXmXmXmXmXmX",
"mXmXmXmXmXmXmXmXmXmXmXmXmXmXmXmXr +.( ! W W W W g | 8.+X#X%X#X&X=X,X8. .e X u  .=.-.:.-.:.-.oX-.$.#.-.  mXmXmXmXmXmXmXmXmXmXmXmXmXmXmX",
"mXmXmXmXmXmXmXmXmXmXmXmXmXmXmXmX7 ~.~./.).).].[.].~.y %.8.+X#X&X,X,X=Xf mXmXmX% _ &.=.-.-.-.-.w X q &.t mXmXmXmXmXmXmXmXmXmXmXmXmXmXmX",
"mXmXmXmXmXmXmXmXmXmXmXmXmXmXmXmXO E ~.^..X{./ !.`.].].~.} >.#X&X,X,X=X%X- mXmXmXmX_ | $.$. .#.&.0 mX[ _ mXmXmXmXmXmXmXmXmXmXmXmXmXmXmX",
"mXmXmXmXmXmXmXmXmXmXmXmXmXmXmXmXmX~ !.]..X|.{.! (.(.(.(.W ;.@X%X=X,X<X,X*.t X mXmXmXX % & % w  ...mXO X mXmXmXmXmXmXmXmXmXmXmXmXmXmXmX",
"mXmXmXmXmXmXmXmXmXmXmXmXmXmXmXmX8 ^ !.`.'.|. X! E R 8 8 $ ..>.;.%X=X#X%X+X@X+Xo mXmXmXmXmXmXmXy ..mXmXmXmXmXmXmXmXmXmXmXmXmXmXmXmXmXmX",
"mXmXmXmXmXmXmXmXmXmXmXmXmXmXmXmX7 ^ !.`.'.}. X+.mXmXmXmXR r *.8.#X%X&X| & y +X[ mXmXmXmXmXmXmX] u mXmXmXmXmXmXmXmXmXmXmXmXmXmXmXmXmXmX",
"mXmXmXmXmXmXmXmXmXmXmXmXmXmXmXmX7 ^ !.`.'.}.|.{.mXmXmXmX7 ~ r *.+X@X@X@Xw X *. .mXmXmXmXmXmXmXX X mXmXmXmXmXmXmXmXmXmXmXmXmXmXmXmXmXmX",
"mXmXmXmXmXmXmXmXmXmXmXmXmXmXmXmX$ ~ ~.`.'.}.|. X% mXmXmXO ~ E Q 8.y ] +X*.X $.[ mXmXmXmXmXmXmXmXmXmXmXmXmXmXmXmXmXmXmXmXmXmXmXmXmXmXmX",
"mXmXmXmXmXmXmXmXmXmXmXmXmXmXmXmXX / ^ /.'.}.|. XW mXmXmXmXR ~ r 8.t X  .*.% o % mXmXmXmXmXmXmXmXmXmXmXmXmXmXmXmXmXmXmXmXmXmXmXmXmXmXmX",
"mXmXmXmXmXmXmXmXmXmXmXmXmXmXmXmXmX~ ^ /./._.[._.! mXmXmXmX$ r ;.-.w 0 ;.{ mXmXmXmXmXmXmXmXmXmXmXmXmXmXmXmXmXmXmXmXmXmXmXmXmXmXmXmXmXmX",
"mXmXmXmXmXmXmXmXmXmXmXmXmXmXmXmXmX0 g %.| & r 9   mXmXmXmXmX] [ & ' ' #.0 mXmXmXmXmXmXmXmXmXmXmXmXmXmXmXmXmXmXmXmXmXmXmXmXmXmXmXmXmXmX",
"mXmXmXmXmXmXmXmXmXmXmXmXmXmXmX% _ &._.#X&X#X+Xq mXmXmXmXmXmX  mX0 ` _ 0 #.' mXmXmXmXmXmXmXmXmXmXmXmXmXmXmXmXmXmXmXmXmXmXmXmXmXmXmXmXmX",
"mXmXmXmXmXmXmXmXmXmXmXmXmX- | ;.+X%X&X=X,X,XX.mXmXmXmXmXmXmXmXmX0 ` =.=.:._ mXmXmXmXmXmXmXmXmXmXmXmXmXmXmXmXmXmXmXmXmXmXmXmXmXmXmXmXmX",
"mXmXmXmXmXmX. # .   q.tXh &.+X@X&X=X%X<X=X,X| mXmXmXmXmXmXmXmXmX0 ` @.=.=.u mXmXmXmXmXmXmXmXmXmXmXmXmXmXmXmXmXmXmXmXmXmXmXmXmXmXmXmXmX",
"mXmXmXmX# 6.iXfXT.n 2.kXdX{ %X&X&X,X,X<X,X&.mXmXmXmXmXmXmXmXmXmX0 ` @.=.=.Q mXmXmXmXmXmXmXmXmXmXmXmXmXmXmXmXmXmXmXmXmXmXmXmXmXmXmXmXmX",
"mXmX; o b b.T.v.i.i.u.e.cXe.&.@X=X=X*.y w mXmXmXmXmXmXmXmXmXmXmX* ' =.=.=.' mXmXmXmXmXmXmXmXmXmXmXmXmXmXmXmXmXmXmXmXmXmXmXmXmXmXmXmXmX",
"mXp uXe.v y.i.i.i.i.n.B 4XxXO.+X .& mXmXmXmXmXmXmXmXmXmXmXmXmXmX* ' @.=.@.` mXmXmXmXmXmXmXmXmXmXmXmXmXmXmXmXmXmXmXmXmXmXmXmXmXmXmXmXmX",
"mX. 9XdXd b t.l l l b p.c dXqXX mXmXmXmXmXmXmXmXmXmXmXmXmXmXmXmXmX' @.@.` ` mXmXmXmXmXmXmXmXmXmXmXmXmXmXmXmXmXmXmXmXmXmXmXmXmXmXmXmXmX",
"mXmXh sXwXp 3X9XqXqX0X1.< h e.mXmXmXmXmXmXmXmXmXmXmXmXmXmXmXmXmXmXu _ ' t O.1.a mXmXmXmXmXmXmXmXmXmXmXmXmXmXmXmXmXmXmXmXmXmXmXmXmXmXmX",
"mXmXmX2XjXw.3XuXaXjXjXkXuXp . mXmXmXmXmXmXmXmXmXmXmXmXmXmXmXmXmXmX- 1.3XwXuXiXq.  X ; a = mXmXmXmXmXmXmXmXmXmXmXmXmXmXmXmXmXmXmXmXmXmX",
"mXmXmXo uXhX,.wXdXjXkXxXcXkXp mXmXmXmXmXmXmXmXmXmXmXmXmXmXmXmXmXmXe.uXqXe.h > - q.iXuXaXuX3Xh mXmXmXmXmXmXmXmXmXmXmXmXmXmXmXmXmXmXmXmX",
"mXmXmXmX<.jX9Xw.aXjXjXcXcXcXqXmXmXmXmXmXmXmXmXmXmXmXmXmXmXmXmXmXmX,.2.z v t.5 4XiXaXaXaXaXaXtX1.X mXmXmXmXmXmXmXmXmXmXmXmXmXmXmXmXmXmX",
"mXmXmXmXmX3XjXw.4XjXjXcXcXcXxXa mXmXmXmXmXmXmXmXmXmXmXmXmXmXmXmXmX# b y.t.c U.yXiXaXaXaXaXaXiXqX2.mXmXmXmXmXmXmXmXmXmXmXmXmXmXmXmXmXmX",
"mXmXmXmXmX; aXsXG aXjXcXcXcXcXO.mXmXmXmXmXmXmXmXmXmXmXmXmXmXmXmX  ) t.t.b Z 9XwXwXiXuXaXuXuXwXwX4X. mXmXmXmXmXmXmXmXmXmXmXmXmXmXmXmXmX",
"mXmXmXmXmXmX<.jX9Xe.jXxXcXcXcX,.mXmXmXmXmXmXmXmXmXmXmXmXmXmXmXmX2 6Xf.t.l q.9XqXwXwXwXwXwXqX0X2X2.% mXmXmXmXmXmXmXmXmXmXmXmXmXmXmXmXmX",
"mXmXmXmXmXmX. 0XjX2.qXkXcXcXxXp mXmXmXmXmXmXmXmXmXmXmXmXmXmXmXmXd 6Xu.t., 2X4X9XqXqX9X2Xw.h <.r.3X2X+ mXmXmXmXmXmXmXmXmXmXmXmXmXmXmXmX",
"mXmXmXmXmXmXmX; aXsX,.dXjXkXuX; mXmXmXmXmXmXmXmXmXmXmXmXmXmXmXmX; I b b C 3X3Xe.<.h ,.e.4XwXaXuX9Xq.o mXmXmXmXmXmXmXmXmXmXmXmXmXmXmXmX",
"mXmXmXmXmXmXmXmXw.xXqX2XjXjXe.mXmXmXmXmXmXmXmXmXmXmXmXmXmXmXmXmX  l v l ; h h w.3X9XwXwXqX2Xw.h = mXmXmXmXmXmXmXmXmXmXmXmXmXmXmXmXmXmX",
"mXmXmXmXmXmXmXmXo wXcX1.wX2X. mXmXmXmXmXmXmXmXmXmXmXmXmXmXmXmXmX  @ d q.3XqXwXwX0X2X2.a X mXmXmXmXmXmXmXmXmXmXmXmXmXmXmXmXmXmXmXmXmXmX",
"mXmXmXmXmXmXmXmXmXp sXwXa X mXmXmXmXmXmXmXmXmXmXmXmXmXmXmXmXmXmX  e.0XqXqX3Xw.p ; mXmXmXmXmXmXmXmXmXmXmXmXmXmXmXmXmXmXmXmXmXmXmXmXmXmX",
"mXmXmXmXmXmXmXmXmXmX<.2X= mXmXmXmXmXmXmXmXmXmXmXmXmXmXmXmXmXmXmXmX,.,.p X mXmXmXmXmXmXmXmXmXmXmXmXmXmXmXmXmXmXmXmXmXmXmXmXmXmXmXmXmXmX",
"mXmXmXmXmXmXmXmXmXmX  . mXmXmXmXmXmXmXmXmXmXmXmXmXmXmXmXmXmXmXmXmXmXmXmXmXmXmXmXmXmXmXmXmXmXmXmXmXmXmXmXmXmXmXmXmXmXmXmXmXmXmXmXmXmXmX"
};
