/* XPM */
static char *result[] = {
/* columns rows colors chars-per-pixel */
"64 96 84 1 ",
"  c #4F2713",
". c #4F2813",
"X c #532D16",
"o c #542E19",
"O c #563017",
"+ c #563119",
"@ c #59341C",
"# c #5B381F",
"$ c #563622",
"% c #5A3722",
"& c #5C3A23",
"* c #5D3D29",
"= c #603E25",
"- c #623E29",
"; c #5E412C",
": c #624126",
"> c #64442B",
", c #69462E",
"< c #674A2E",
"1 c #694B2F",
"2 c #634631",
"3 c #684631",
"4 c #664934",
"5 c #6B4D32",
"6 c #644E3A",
"7 c #6B4D39",
"8 c #6E5134",
"9 c #67503C",
"0 c #6B523D",
"q c #715336",
"w c #73553A",
"e c #75593C",
"r c #785A3F",
"t c #6B5642",
"y c #6C5945",
"u c #6E5C4A",
"i c #725643",
"p c #735A46",
"a c #7A5E42",
"s c #735D4A",
"d c #785E4A",
"f c #7C6145",
"g c #72614E",
"h c #7C634B",
"j c #746552",
"k c #7C6553",
"l c #776957",
"z c #7A6956",
"x c #7C6C5B",
"c c #7F715F",
"v c #80664A",
"b c #836A4D",
"n c #866D52",
"m c #886F53",
"M c #826E5B",
"N c #8A7356",
"B c #83715F",
"V c #8C7659",
"C c #8E795C",
"Z c #917A5E",
"A c #837563",
"S c #897766",
"D c #867867",
"F c #897865",
"G c #867968",
"H c #8B7D6C",
"J c #947E62",
"K c #8C7E70",
"L c #8D816F",
"P c #968065",
"I c #988367",
"U c #9A8569",
"Y c #8E8271",
"T c #918575",
"R c #938877",
"E c #938778",
"W c #968B7C",
"Q c #988D7E",
"! c #9A8F82",
"~ c #9D9285",
"^ c #9F9588",
"/ c #A09689",
"( c #A1988B",
") c None",
/* pixels */
"))))))))))))))))))))))))))))))))))))))))))))))))))))))))))))))))",
"))))))))))))))))))))))))))))))))))))))))))))))))))))))))))))))))",
"))))))))))))))))))))))))))))))))))))))))))))))))))))))))))))))))",
"))))))))))))))))))))))))))))))))))))))))))))))))))))))))))))))))",
"))))))))))))))))))))))))))))))))))))))))))))))))))))))))))))))))",
"))))))))))))))))))))))))))))))))))))))))))))))))))))))))))))))))",
"))))))))))))))))))))))))))))))))))))))))))))))))))))))))))))))))",
"))))))))))))))))))))))))))))))))))))))))))))))))))))))))))))))))",
"))))))))))))))))))))))))))))))))))))))))))))))))))))))))))))))))",
"))))))))))))))))))))))))))))))))))))))))))))))))))))))))))))))))",
"))))))))))))))))))))))))))))))))))))))))))))))))))))))))))))))))",
"))))))))))))))))))))))))))))))))))))))))))))))))))))))))))))))))",
"))))))))))))))))))))))))))))))))))))))))))))))))))))))))))))))))",
"))))))))))))))))))))))))))))))))))))))))))))))))))))))))))))))))",
"))))))))))))))))))))))))))))))))))))))))))))))))))))))))))))))))",
"))))))))))))))))))))))))))))))))))))))))))))))))))))))))))))))))",
"))))))))))))))))))))))))))))))))))))))))))))))))))))))))))))))))",
"))))))))))))))))))))))))))))))))))))))))))))))))))))))))))))))))",
"))))))))))))))))))))))))))))))))))))))))))))))))))))))))))))))))",
"))))))))))))))))))))))))))))))))))))))))))))))))))))))))))))))))",
"))))))))))))))))))))))))))))))))))))))))))))))))))))))))))))))))",
"))))))))))))))))))))))))))))))))))))))))))))))))))))))))))))))))",
"))))))))))))))))))))))))))))))))))))))))))))))))))))))))))))))))",
"))))))))))))))))))))))))))))))))))))))))))))))))))))))))))))))))",
"))))))))))))))))))))))))))))))))))))))))))))))))))))))))))))))))",
"))))))))))))))))))))))))))))))))))))))))))))))))))))))))))))))))",
"))))))))))))))))))))))))))))))))))))))))))))))))))))))))))))))))",
"))))))))))))))))))))))))))))))))))))))))))))))))))))))))))))))))",
"))))))))))))))))))))))))))))))))))))))))))))))))))))))))))))))))",
"))))))))))))))))))))))))))))))))))))))))))))))))))))))))))))))))",
"))))))))))))))))))))))))))))))))))))))))))))))))))))))))))))))))",
"))))))))))))))))))))))))))))))))))))))))))))))))))))))))))))))))",
"))))))))))))))))))))))))))))))))))))))))))))))))))))))))))))))))",
"))))))))))))))))))))))))))))))))))))))))))))))))))))))))))))))))",
"))))))))))))))))))))))))))))))))))))))))))))))))))))))))))))))))",
"))))))))))))))))))))))))))))))))))))))))))))))))))))))))))))))))",
"))))))))))))))))))))))))))))))))))))))))))))))))))))))))))))))))",
")))))))=&#@##))))))))))))))))))))))))))))))))))))))&###&&)))))))",
"))))))>7323>#+))))))))))))))))))))))))))))))))))))#*>2437>))))))",
")))))&7Axxkt&@++@@@@@@:-)#@#O@#O+++++++)@@+++@OO++#:illxx4#)))))",
"))))),iAMMxp&>5585188qrq@qrq,81151558q1&8r81118155,2sxxBA7-)))))",
")))))3sKHSSk-5raffffrvbr:fmffrfffffffvr:ebvaafffaa73kSSHKp>)))))",
")))))4hWEKKn>8fbbbbbbmmr,bVbbbbvbbvbbNh<aNbvbbbhbbe3xKKKEs2)))))",
")))))7k!WTEM3wvbbmmbmmZv8bZmmbmbbmbbmCv1fNmbbnnbbbi4BTEW!s-)))))",
")))))7M!QEEM,qvNNVVVVZJmrmZVVVVVCVNVCCb1fNVVNVVVVNa3BETW!k4)))))",
")))))7b~!QQS,qbNZZZZCZImrmZZVZVZCCCCCCb5fZVCCVVVZCa7AWW!~l3)))))",
")))))7k////S,rbVZZZZZJImrmJJZZJJZZZCFPb5vZZCCCPVZZh7S!!~~k3)))))",
")))))7k////J,ebZPPPJIIUmrVUJJJJJPPPPPPm8bIPPPPPPJJh7H////k3)))))",
")))))7b^///H3wnZJUJUJUUmrNJJJJJUIJJJJIn8nJJJIPPPJJh7H^^/^k7)))))",
")))))7M^(/(S,wbZJJJJJUUmemUJJJJJJJJJJJn5vIJJJJJPJIh7H^^//k7)))))",
")))))5h//~~S-wvVZJJJJJUmrNUJZJZZJJJZJIm5bJJJJJZZJJh7F~~^~b4)))))",
"))))),d/!!QB-qvNZZZZZZUmrNJZZZZZCJZZJJm5bIZCZCZZVZa5FWW~~k4)))))",
")))))>d/!QWB-qvmZZZZZZJmrmJJZZZZCZCZZPn1bJJCZZVVVZa3SWWQ!k5)))))",
")))))-d!QTTM-qvNZZZZZZJbqmJZZZZZVCCVZPb1vJJCVZZZVZa3BTTW!k7)))))",
")))))-dQEKKn=,vbVNNNNVZv8bZmmNNmNNNNNZv,dJVVmNNmNNa3xLLRQd3)))))",
")))))-dQEYKv=,rvbbbbbmma,vmmbbmbnbbbnNf-rmnvbbnbbbe3MHHT!d2)))))",
")))))-iWTFGk@,evnbbbbbmr-amnbbbbbbbbbNa=enbbvbbbbbw2lGGYTs>)))))",
")))))=iYTFGh@>rvvvbnbbmw=anvfffvddavvna@embbvvbbvvw-kGGHKp-)))))",
")))))&3hddd7+>eavvvvvvvq@qaeqq078778wvw@qvvfhahada5-0pssd4-)))))",
")))))@#&=##@O-qeqqqwqwv-O:3=&>>,->>==q3O>qqq888555-&&&%%&&%)))))",
")))))@7HHLTh@O@@+@+++O@OXOOO7GFFFSS7o+O+O++++++++OO%kHKHH0=)))))",
")))))&wKHFDg+@####=@==#+X+@X4cs37pA3+@OX@:=#=*&&=&@%gSSHHi&)))))",
")))))=0GSxxi@#,,11<,,,,=O#=O2l0>O;l2X#%X:q<<<<,3<3=+ixxAS7&)))))",
")))))=0Acxxi+#,5qqwwqqe,X=,O>jxg%;s-X=@X>eq88q88q5-+yllcA7&)))))",
")))))=7Axll0+#;8888888e:O:<O:ggy#;u;X##X:e81181818:X6jjlc4$)))))",
")))))=7xljj9+#<1888188e<O::O:yyy00u;O##X:e88888118:O6jjlx4o)))))",
")))))%4ljgg9+#;1881888e<X:<#$<;<96;#@;#X<q818<<881:O6jgjl;o)))))",
")))))o2jggg6X#;1118111e:X:<:&XXXOO+#;<:X:q888<8818#O6uujj*X)))))",
")))))X*suyy<O@:>1111<8q<O:8<<:&:;==:11:X:q811<<1<<$X6yyug*.)))))",
")))))X*suyy<.@:>11<1<<8<X:<1<<<<<<<<11;X:e11<<<<<6#X<ytus& )))))",
"))))) *suyt6X@:>1<1<<1e:X:1811<<551111:X:e11<<<<<<#X<ttug* )))))",
"))))) *yy99;X@=><<<<<1q<X:<11<<<111111:X<q11<<<<<<*X;t6tu% )))))",
"))))) o%**%%+%**:&;;:>w:X#:::;:=-==-==%X>8:;&;**<:#O#%%#$X )))))",
"))))) *sgsssu2++OOO++#&$XXOOOOOOo$++++oo@#@O+OO+OO<uuuugg& )))))",
"))))) *xxxlxc6o%;;>2>222<<66<<66442644424444,;;;*X6ccxxxx; )))))",
"))))).*yuuujj2otlzzxxxcccDDADDDAGGAAAAAAABcccxxlt+;juuuuu% )))))",
"))))) $6996tj2X209tttttyyyyyuyyyuuuyuyyuyuyyytty6X<g96996$ )))))",
"))))) X$$$$%*+X$%%$$%%$%$%%*;$$;%%%*%$*$&$$$*$$$$.$;&$$$$o )))))",
")))))) X.       .... .....    ......  ......   ..XXX.X..  ))))))",
"))))))))))))))))))))))))))))))))))))))))))))))))))))))))))))))))",
"))))))))))))))))))))))))))))))))))))))))))))))))))))))))))))))))",
"))))))))))))))))))))))))))))))))))))))))))))))))))))))))))))))))",
"))))))))))))))))))))))))))))))))))))))))))))))))))))))))))))))))",
"))))))))))))))))))))))))))))))))))))))))))))))))))))))))))))))))",
"))))))))))))))))))))))))))))))))))))))))))))))))))))))))))))))))",
"))))))))))))))))))))))))))))))))))))))))))))))))))))))))))))))))",
"))))))))))))))))))))))))))))))))))))))))))))))))))))))))))))))))",
"))))))))))))))))))))))))))))))))))))))))))))))))))))))))))))))))",
"))))))))))))))))))))))))))))))))))))))))))))))))))))))))))))))))",
"))))))))))))))))))))))))))))))))))))))))))))))))))))))))))))))))",
"))))))))))))))))))))))))))))))))))))))))))))))))))))))))))))))))",
"))))))))))))))))))))))))))))))))))))))))))))))))))))))))))))))))",
"))))))))))))))))))))))))))))))))))))))))))))))))))))))))))))))))",
"))))))))))))))))))))))))))))))))))))))))))))))))))))))))))))))))",
"))))))))))))))))))))))))))))))))))))))))))))))))))))))))))))))))",
"))))))))))))))))))))))))))))))))))))))))))))))))))))))))))))))))"
};
