/* XPM */
static char *result[] = {
/* columns rows colors chars-per-pixel */
"64 96 85 1 ",
"  c #4F2713",
". c #4F2814",
"X c #532C16",
"o c #542E19",
"O c #56321B",
"+ c #59341C",
"@ c #5B391F",
"# c #563521",
"$ c #5A3722",
"% c #5D3B23",
"& c #5D3D29",
"* c #603E25",
"= c #613F29",
"- c #5F4024",
"; c #5E422D",
": c #5F4430",
"> c #614226",
", c #64452A",
"< c #68462E",
"1 c #66492C",
"2 c #694B2E",
"3 c #6B502F",
"4 c #634631",
"5 c #684731",
"6 c #654A35",
"7 c #6C4D32",
"8 c #654E3A",
"9 c #6B4E39",
"0 c #6E5233",
"q c #67513D",
"w c #6B523D",
"e c #715536",
"r c #735837",
"t c #725639",
"y c #755B3B",
"u c #795E3E",
"i c #7A603F",
"p c #6B5642",
"a c #6D5A45",
"s c #6D5B49",
"d c #715541",
"f c #735A45",
"g c #7A5E43",
"h c #725E4A",
"j c #795F4A",
"k c #7D6242",
"l c #74614D",
"z c #7A614D",
"x c #756552",
"c c #7A6652",
"v c #776855",
"b c #7B6955",
"n c #7C6D5B",
"m c #7F715F",
"M c #7F7260",
"N c #806646",
"B c #816748",
"V c #856C4D",
"C c #886F4F",
"Z c #806753",
"A c #846C52",
"S c #886F51",
"D c #826E5B",
"F c #8A7253",
"G c #84725E",
"H c #8D7758",
"J c #8F7A5A",
"K c #917C5C",
"L c #847563",
"P c #887664",
"I c #867865",
"U c #8A7966",
"Y c #867968",
"T c #8B7D6B",
"R c #8E816E",
"E c #8F8170",
"W c #928574",
"Q c #958876",
"! c #968A79",
"~ c #998D7C",
"^ c #9C907F",
"/ c #9A8F81",
"( c #9D9282",
") c #A09584",
"_ c None",
/* pixels */
"________________________________________________________________",
"________________________________________________________________",
"________________________________________________________________",
"________________________________________________________________",
"________________________________________________________________",
"________________________________________________________________",
"________________________________________________________________",
"________________________________________________________________",
"________________________________________________________________",
"________________________________________________________________",
"________________________________________________________________",
"________________________________________________________________",
"________________________________________________________________",
"_______<<<<<<______________________________________<<=<<<_______",
"______dBNggy<<____________________________________,<tjgjjf______",
"_____7Z(~QQG<<<<7<<<<5<<7<77557=<5<<<<<5<<<<<<<<<<<<DQQ~/B7_____",
"_____eZ(~QQG7euNNBCCCCCCFFFFFSSSSSSSCCVCVCBCNNNNNNe<GQQ~^Z9_____",
"_____eZ()))U7eNVCFFHHJKKKKFueetNt7d=eCFCFHHCFCVVBBt5U(())Z0_____",
"_____=jWQQQD=<uNNBVCCCCCCCN*=dt=ddN=*gCCCVCVVNNkNu0<D!W!Wg=_____",
"_____X5Dbcct+*<<<7<777eeee<+tTDZPPK7+<eeeee7e73<<<<=dccbZ5o_____",
"_____o<Zbxlw+oOO+++X++++OOoXtWWTNZTdX+++o+++OOo+ooo+eBlcZ=o_____",
"_____o=bxllwOO+@+++++++++++Xd~~QPTWNX+++++++@+++++X+9jlcZ<X_____",
"_____X<cxjjeO+*%**@**+**@**o9TTTTTT9X@*@@*@*@%%@@@++9jhxb,X_____",
"_____X=cljj7X+@***********$+=fgujdZ=+@@@*@*@@%@@@@+X9jhxb=o_____",
"_____X=xjhh8o+>****<>><>>><*@+++o#+@***=>%>>@>>@-@OO6lhlc&X_____",
"_____.&xhsf8X+&>****><>>>>>>-@@@$$@***==*>-%>@@>@-OX6aalx&._____",
"_____.&xsaa6X+--**<*>>>>>>>>>>>>====>>*>%>*%-%*%@@OX6aall&X_____",
"_____.&hhaa6X+&-*<**>>>*<>>>>>->====>>>*>>>&%-%@%-OX6aash& _____",
"_____.$hswa6.+--<>>1>11<<>1111><1111<11111111,>>>-+o6ppsh&._____",
"_____.&haaa:X+-1<<1>11111311>1<<1111<1115111111>->Oo:ppsh&._____",
"_____.&haaq6X+-->>1111111131111<1521<1<11111111;,-OX4ppsh&._____",
"_____.&sawq:.+-1>3113111111133135122211121511111-;OX4qpas$._____",
"_____.&sppq:oO-,:22222222327223276222222<3<<3<<1>>+X:qpps$ _____",
"_____.$apqq:.@10300q00000e00eeere000e00ee3e330771<@X:qqpa& _____",
"_____.&ppq8;X%20rrrrttrryyrrrryrrrrrrrrrrrrrre7703@X:88pp&._____",
"_____.$pp88;.%70ryrrryyyyyyyrrryyyyyyryrrrrrrrre72*X;88pp$ _____",
"_____.$pq88;X%5eryryyyyyyyyyyyyyyyyyyyyyryyyrrrr00%X>88qp$ _____",
"_____.$86::&.%70yryryyyyyyyyyyiryyyyyyryyryyrrrre7%X&6:88$ _____",
"_____o$4:&:$X%0rrryryyyiyiiyyiyiiyuyuyuuriirurrree%X#&$&&O _____",
"_____&=64,4&+>70rtrtyyyyyyuyiyyyyiyuyuyuiyiuuurree%XO+###X _____",
"_____$wPYPPl++&&;---1-11:-1:1111111111111<><<1>>,*+ojPPPL4 _____",
"_____+4cbxlwXoXXooXOOOXOOO@OOO++O++O++O++O++++++oooowvbbx4$_____",
"_____o%6886;X+%$#%%%%%%%-----@-%****%*--**@***@@*@+X;8886=&_____",
"_____o$&-&-%O,000ttttyyyyrryiiiiuiiuiiriyyyrrrrr0e*X%>,>==$_____",
"_____o4DcllqO-112112111111131113221131113<331131<1@Owllcb5O_____",
"_____+5LnbbtX@,,1>111,,1111-11111111111111111>>1<<@OwbbmL6o_____",
"_____+6PGnnwO@11>11>>1>,1>1>1>1>,1,111>1>>1111>3,1@+abnGP6+_____",
"_____$9UImGkO->,>>>1>>>>>>-1>>-->>>>->1>><>>1>>>>,@+aGGIT9+_____",
"_____$dTUPLl+@>%%;%-%%-%%--#----#-------%-%-%-%-%>@+lGGYRw$_____",
"_____=dWTIIz@@-%-%%-%%-##-%-@##@--###-@@%%%@%%%%%%+@lIYRWt*_____",
"_____=fWEYTz%@-&-%-%%%%-%-%%---@@#@-#-#-%%%-@-%-%*@@zYYREd=_____",
"_____,dWWTTc*@>%-%%--%%%%#-#@#--#--@#--@@%%@%%%%%%@*cTTEWf=_____",
"_____,d!WTRb*%*>----%%-@%#-#-@@@%@@-@@@-#-@#@%@%@%%*cREWWf,_____",
"_____4jQQWRb*%%@@%O#+@+@@@@##O@@@O#O@O#O@OO@O++++++*bREW!j4_____",
"_____,j~QRRZ*$++@O@O++OOOOOOOO@OOOOOOOOOOOOOOOOOOO+&ZERW!j,_____",
"_____5j~QWWD>%++O@OO+O+OO@@O#OOOO@OOOOOOOOOOOOOXOO+>DEWW!j<_____",
"_____5jQQQWD=$@+++++OO++@OOOOOOOOOOOOOOOOXOOXOOO+o*=DWWW!j<_____",
"_____5z~!W!D,$@++O++++++O#OOO@OOOOOOOOOXOOOOOOOOo+$=DWW!!j4_____",
"_____5z/~QQD=+o+OOOOOooO#OooXoooOXXXXOOOoXoXXXXXoo+=DWW//j5_____",
"_____5c/~!!D<*OO+OO+OOO+@OOooOO@OOOOOOOO+OoOOo++o+*=D!!//j5_____",
"_____4c)(//P=<eNNNNNkkk3O3kiiikkkkkkikrO2kNkNNkNNN7=L//(/c,_____",
"_____$tTETTc*<0uikikkkk1X3kkiiiiiiiiik0O2NikuiiigN7*cTTTWd=_____",
"_____X6YLmDh+*7tiyiyiyi3O3iiyyyyiyyyii0X2Nuyyyyuuu<+hnnLUp*_____",
"_____X4LLnnd+*<tyiyyyii1X3iiryyyyyyyyi3O2iuyyyyyyy<+fnnLP9%_____",
"_____X4Lmvvy@%1riiyiyyk1O3iyyyyyyyyiri3O3iiyryyyyy1OtvvmL9$_____",
"_____X4nvxvwO%10rrr0ryy1o2yr0rr00rrqri3X1iy0rrrrry,Oqxxvn4+_____",
"_____X=bvxlqO%:3rr0r0ry1X3r003q0r0000i2X1ir00r00qr-Oqlxvn4O_____",
"_____o=xxsl8o@1300000ry1X1rr0r000000rr3X1ie000r0r3-oqllxx,o_____",
"_____X&xlll8O@1000qr30y-X1r00000q3003i3O,ir000qr0r-X:ssll>o_____",
"_____X&jlaa8X+-1033330r1X103333033303r1X,r00303303-X8pasl&X_____",
"_____.&xlap8X+>1333333r-X1q31633222330,X-r03333333-X6sysl&X_____",
"_____.%hswq:o@>1221113r:X-3313112213301X-r01332333-o:qqas$ _____",
"_____.o&&&$$+$&>,-,>,2w1X-11-111,11116>X&011;,,,;--O##%$$o._____",
"_____X&jjhhhh4OOOO+++@@#X@@O#@OO++OO+@OXO%OOOOO+OO:llsslh&._____",
"_____.&nmmmnM8X$;;;4,4:4636668816666685866646,::-X8mnnnnn:._____",
"_____.&sssslv:OpvvnnnnnmmIYYMYYYYYYLLLLMLmMMnnvvpO:vxssss$ _____",
"_____.#8q:ppl:X6apppppassssssssssssssssspspsspas:O:laq8q8#._____",
"_____.X$##$$&#.#####$$$$$$$$-##%$$&&&$$$$&&$$$#&#.O;$O###X._____",
"______. .XX. .......   .........    ..  ..     ...........______",
"________________________________________________________________",
"________________________________________________________________",
"________________________________________________________________",
"________________________________________________________________",
"________________________________________________________________",
"________________________________________________________________",
"________________________________________________________________",
"________________________________________________________________",
"________________________________________________________________",
"________________________________________________________________",
"________________________________________________________________",
"________________________________________________________________",
"________________________________________________________________",
"________________________________________________________________",
"________________________________________________________________",
"________________________________________________________________",
"________________________________________________________________"
};
