/* XPM */
static char *result[] = {
/* columns rows colors chars-per-pixel */
"60 90 74 1 ",
"  c #4C2711",
". c #4E2812",
"X c #512B14",
"o c #54331E",
"O c #563521",
"+ c #583722",
"@ c #533827",
"# c #5A3A25",
"$ c #543928",
"% c #5D3E2A",
"& c #5E412D",
"* c #5E4534",
"= c #5F4837",
"- c #53453A",
"; c #5A4738",
": c #56493E",
"> c #5D4A3A",
", c #60412D",
"< c #614532",
"1 c #654A37",
"2 c #634C3B",
"3 c #684D3A",
"4 c #574B40",
"5 c #5A4E44",
"6 c #5C5146",
"7 c #5E544A",
"8 c #604F40",
"9 c #655345",
"0 c #6B5545",
"q c #62564B",
"w c #685749",
"e c #62594E",
"r c #6A594B",
"t c #715D4F",
"y c #655E53",
"u c #695F54",
"i c #715F50",
"p c #676056",
"a c #686157",
"s c #676158",
"d c #6B655C",
"f c #6E685F",
"g c #706051",
"h c #736759",
"j c #75685B",
"k c #7A6C5F",
"l c #6F6960",
"z c #726D64",
"x c #7B6E60",
"c c #746F68",
"v c #757067",
"b c #7F7163",
"n c #767269",
"m c #79756D",
"M c #7E7A6F",
"N c #7A7770",
"B c #7B7971",
"V c #837366",
"C c #847568",
"Z c #827E75",
"A c #837F78",
"S c #858177",
"D c #868479",
"F c #89867A",
"G c #8B897E",
"H c #8C8781",
"J c #8E8B82",
"K c #918E84",
"L c #948F88",
"P c #939086",
"I c #95938A",
"U c #98958D",
"Y c #9E9B94",
"T c None",
/* pixels */
"TTTTT%%%%%&&&&&&&&&&&&&&o,#&&&TTTTTTTTT<*<<*<<&&&&&&&&&TTTTT",
"TTTO0jxxxxxxxjkzjhhhhhhhjhhr92*##%%##O<ixxxxxxxxxxxxzzh0#TTT",
"TT30zDJJJJGHGGGDDDSDSSSSSSCvd92===*<29ibFGFFFGGGGGGGJJDzr3TT",
"o*kPJJJJGDSSSDDDDSDSDDDSZnjdapadadddnHKJSFFSFSSSDDGGJJJKUk*o",
"+<kPJGFDDDDDSDDDDDDDDDSbvzjffnDGHKHKGGFFDDDDSSSSDDFGJJJKUk,+",
"#<xPJFDDDDDDFSDDDDDDSMMSSSSDSDGJKGKJGGDDFSSFFFFSDDDDGGJKIb<+",
"%1kPJFDDDDDDDDDDFDSFSmCFGGPGGGGDSFFDSFFASFSFFSSFDDDDDDDKIx<+",
"%1xIJFDDDDDDDFDDDDFFFFFFDDDDFDDFFSDDFDFFFDFFSFFFDDDDDDFKUx<#",
"&1bUKDDDDDFDFDFDFFFFFFFFFDFDFFFFFFFFFFFFFFDFFFFFFDFFFFFIIb,#",
"&2bUPGFDFDDDDFFDFFFFFFDFDFDFFFFFFFFDFFFFFFFDFFFFDFDFFFGGUx1+",
"#1bUKGDDFFFFFFFFFFFFFFDFFFFFFFFFFFFDFFFFFFFFFFFFFFFFFFGIUx<#",
"&1nIPDGDFDFFFFFFFFFFFFFFFFFFFFFFFFFFFFFFFFFFFFFFFFFFFFGGUb<#",
"&1VUPGDDFFFFFFFFFFFFFFFFFFFFFFFFFFFFFFFFFFFFFFFFFFFFFGGUYV3o",
"&<VYIJGGHFFDDFFFGGFFFFFFFFFFFFFGFDFFFFFFFFFFFFFFFFFFFFGGYC3&",
"&1CYUKJJJGFFFFFFGGGGFFFFFFFFFFFFGFFFFFFFFFFFFFFFFFFFFFFIYC3&",
"#1CYUKKJJGFFFFFFGGGGGFFFFFFFFFFFDFFFFFGFFFFFFFFFFFFFFFGPYC3&",
"&<VYUPGPJJGGGGGGPKPGGGGGGFFFGFGFFFFFGDFFFFFFGGGGGGGGGFGIYC3,",
"#1VYUGGPJJLJJLPGGGGGGGFGFFGFGFFFFFFFDGFFFFFFFGGKGGUGKGGUYC3%",
"&1VYUPPPKKKKJPJGGDFFFFFFFFFFDGFFFFFFFFFGGFGGFGGKGGGGKKLUYV3%",
"#,iMGUUPJJJKPGGGGGFFFFFFFFFFFDDFFFFFFFGGGGGKGGKKUUGULUIFbu<,",
"&*rvMDGIUUUUUUIPPPPPGGUGLKLKKLLLPUPGPPPIUUUUIUUUUUUUPGZnjr,,",
"o&rxvzZPULLLLPPLLJJKPPPPJHHKHHHHGGGPJJJJGLGGLLUUUGLLGbhhh3,#",
"Xo>daavDGZcczvznvzvvvvbzlldlllffffjfllzlzvVbcmAHChagadaup=oX",
"Xo2dhavDGZcvcnnzzfffffjfldldlddfdfffllzvzvlxzvvmSSSSBzuuy=oX",
"Xo3hlnNZZmnvccvzffffldldldldfffffffffllllllllzzcmZZAZnzdy=oX",
"Xo2dnDAmccvnncvxjlffdldldldldfdfdfdffdffdllllllczczzcNNza>oX",
"Xo2amDSmvvcccczzlffddldlllldffffffdfffffldldddlzzzzzzzzcmwOX",
"Xo2dnSZmnvcxllllfdffldldly77eeqqeeeeysffdldllllzzczzzzznNr+.",
"X#2vmMMmcczzlfffffdldldllyyuuyq6qeeyyalfdldddlllzzzzlzlnmr+X",
"X#gSMnvvxczlffdffdffldldlznncluqulllffffldllllddddflllznNr+X",
"X#iSBnvlfffffdffffdddldllllueelluqydflfddldldldldfdddflvNr+X",
"X#rSMnzlfffffffddfffldlddyeydlllluueyaffldldlddfdddffffnNr+X",
".OtANcclllldldlddldldldldq7ufcfflluqedllldlldldlddldddlcNw+X",
".OtANccccllldldlVdldldlddu7qudfflluqeudldlldldddlddlldlcNw+X",
"X+tNNcVlcccdcdlduddllldllcclllfflllzzlldldlddldlldlddllcNr$X",
"X+tANccVccccdddlldldlddudllVldflullczldljddlldlddldlldlcNr+.",
"X+tNNcccccddddlddldldldVdduuudddffddulllffdjffldlddldllcNr+X",
"X%tNccccjddduddlldldldlddu5qqquffdu9eulddflddldldlflfddcNr+X",
".OrNcccdddddddddldlddldldqqqdduquffdfddldfdlffldldldfflcNw+X",
"XOtNclddddtddddddlllldlldqqudlduuuufffffffldlddldldlfdlVNw+X",
"X+rNcduddddddddddlldlldddq7udlcluquuddlfddldldldldldlflcNw+X",
"X+rNcdudduuddudddllddddcdu7qdddlzzsqqddlffdldldldldlddlcNt$X",
"X+tNcdddddddssddddddddddde7qddllccdqedffldldldldldjldddcNw+.",
"X+rNcfududddddudddVdcdcddsusdldlzclssddfdldldldlldddldlcNw+.",
"X+wNcddddddddudddldcdjdllcccldlddfzcczfdldfdfffddfddddlcNw+X",
"X$wNcdddddddudtdddjddddddddddldlfdllldfldljdfddffddfldlcNw+X",
"X+wNcdddddddddddddddddddduqqeeququqeusdddfdffdddddfdlddcNt+X",
"X+wNcdddddlddddddddddddddsueueqquqq8qsfdfdfddffdffdfddlcNq+X",
"X+wNcdsdddddddddddddddddllclclclzlu7qsdfddddddfddddfddccNqO.",
".+wNcdsdsdsddddddddddddlduqq7q6q7775qsfddldlffffffdddddcNq+X",
"XOwNcdsdssddddddddddddddlq56eueuuuuusdfdlddlffffdllddldcNw$.",
".OwNcddsddsdsdsdddsddddddq5qdddssuussdddddddfdffllldddlcNrOX",
"XOwCcddddddddddddduddsdduq5que7555557uuudssddlddlddldllcNw+X",
".OqNclddsdddddsdduddddddddddsdddddffddsssssssdddsddlldlcNrO.",
"XOwNcdsdddddddddddddddddddldssdlldllddudsddsdudsusddddccNwO.",
".OwCcsdsdssddsddddsddsdddsuuuusuuuutussusussssusdsdddldcNw+X",
".OqNcddssdsdddsdddssddsdse5555555555qysssdusssssylllyllcNw,o",
".OqVcdsdsdddudsdsddddsdddq57ssddddq57ysssussssssslsslllq*$TT",
".+wNcudsddusddddsdsddddssq5qsllldsuuuuusssssssddlllllye$..TT",
".Oqccdussssdussudsdddsudsq5qussuq7ulddsssusuudddlllsy5%$X.TT",
".OqVcsssssssdssssdssddsdsq57sy77sdddssssssussssdysy544-$XXTT",
".OqNcsssddsdudsdsdsdsssss7557qesddsqqususysssyldlly6554$XXTT",
".OwNcsssssssdssssssdsdsdsuqqqudddsyqqussssssssdlsse67eq8<%TT",
".Owccdsssssssssdsssssssdslcccldsssdldssussysysssy767elNNNqOX",
".O9NzdussdassdfaaasssdsaadduluydppppppppppppppeepvvvlffvneoX",
".O0Nldsssasaasssaassaassspye77776eyppppppypyeeppllvlffsvM9oX",
".owccdddsssaasssaasssasssyyq777766eepppppppyeyfvlfpfsfsvneoX",
".O0Nclfdfdaaassssadsppdsy747lzzzffy46eppppyppppfppppsssvMeoX",
".O9mcldfddsaspsssssssssss747yye7ypy44yppyppppappfssssffvn9@X",
".o*9qdddddsssdssdsssdsssy747yyyeyye46yppppppaapfpsssssslM9oX",
"TT..*qssdpdsdpspapppappaye57eyusyye67ypppappappppsssppsvne@X",
"TT..$-55:eppppppaapaaapsssle544444eaaapppaaaapappsspsppvM9o ",
"TTXX@:::::7eppppyylyyssyssssssuspaaaaappppppppppsppsppslMe@ ",
"TT%26eepeyey7yppyssyssssssssdffdfhaaaapppypppppppsspppsvne@ ",
".oqnnnncvvvp77yplylysyyssyyeyyysppyypppppppppppyppppppsfM9@ ",
".o9mzllfffafzfspysysysssy7:::5eypp646ypypppyppppppppppsvv6@ ",
".o0nczlfdapsffppsysssysyy5:5ee7566eeyyypypyppyppppyppyplneo ",
".oqczlffddppppppyssyysyse5-7dse566ypappypypyypyppppyyypfv9@ ",
".oqmzlllfdppppppssyssysyy6-5sdffffappypppypyyypppppyyypfn9@X",
".o9nzllfdddsspppyyyyysyse6-7yy74446yyyyyypyypyyypppppppfn9o ",
"Xo9vlfaffaafappyyysyypyyy:-:67eeee666yyyyyyyyyyyppaaaafzv9o ",
" @8vlfffaffafpppsysypppyye:667afffy66eyyyyyyyppyyppaaaalv9o ",
"X@6vlffpfffppppyyyyyyyyypdlzzfayyyppppyyyyyyyypayyppaadln9o ",
" o6lffpffpapypppyyyyyyyyyppaaayyyypypyyyyppppppayyppaadln9@X",
" o4zlfafafppaaapsspyyyyyyypeyyyyyyyyyyyyyphaaaaayyypaaflv9o ",
" @8zlafafppfafafdsppyyyyyyyyyyyyyyyyyyypppaaahaappppaaalv9o ",
"Xo8zffafpffpaafadsspyyyyyyeyyyyyyyyypppppaaaafaaapppaaaln8o ",
" o8zlfapfapffaaasdssyyyyyyyyyyyyeyyyypppppaaaaaaapppaaalv8o ",
" o;88>>8>>8>8>8>8>>>>>;;;;;;;;;;;;;;;>>>>4>>>>>4>>4>>4>69>oX",
"TTXoX                                            X  X  X  TT"
};
