/* XPM */
static char *result[] = {
/* columns rows colors chars-per-pixel */
"64 96 47 1 ",
"  c #4F2913",
". c #53301A",
"X c #55331E",
"o c #573621",
"O c #563724",
"+ c #583A27",
"@ c #583B28",
"# c #593C29",
"$ c #5B3C29",
"% c #5E422F",
"& c #624835",
"* c #604937",
"= c #614937",
"- c #644A38",
"; c #63503F",
": c #645141",
"> c #645242",
", c #655444",
"< c #695948",
"1 c #685849",
"2 c #6C5D4F",
"3 c #6B5F51",
"4 c #6D6051",
"5 c #6B6256",
"6 c #71685B",
"7 c #71695C",
"8 c #736A5C",
"9 c #746C5E",
"0 c #736D62",
"q c #746F64",
"w c #747064",
"e c #757064",
"r c #777165",
"t c #797265",
"y c #79766A",
"u c #868579",
"i c #8A897F",
"p c #8B897F",
"a c #8C8B80",
"s c #8E8C83",
"d c #908E86",
"f c #918F88",
"g c #919087",
"h c #929089",
"j c #939189",
"k c #94928B",
"l c None",
/* pixels */
"lllllllllllllllllllllllllllllllllllllllll uuuuuk$lllllllllllllll",
"lllllllllllllllllllllllllllllllllllllllll uuuuuk$lllllllllllllll",
"lllllllllllllllllllllllllllllllllllllllll uuuuuk$lllllllllllllll",
"lllllllllllllllllllllllllllllllllllllllll uuuuuk$lllllllllllllll",
"lllllllllllllllllllllllllllllllllllllllll uuuuuk$lllllllllllllll",
"lllllllllllllllllllllllllllllllllllllllll uuuuuk$lllllllllllllll",
"lllllllllllllllllllllllllllllllllllllllll uuuuuk$lllllllllllllll",
"lllllllllllllllllllllllllllllllllllllllll uuuuhq$lllllllllllllll",
"lllllllllllllllllllllllllllllllllllllllll uuuujq$lllllllllllllll",
"lllllllllllllllllllllllllllllllllllllllll kkkk0w$lllllllllllllll",
"lllllllllllllllllllllllllllllllllllllllll  +@55e$lllllllllllllll",
"lllllllllllllllllllllllllllllllllllllllll uuuo55$lllllllllllllll",
"lllllllllllllllllllllllllllllllllllllllll uuuu&-$lllllllllllllll",
"lllllllllllllllllllllllllllllllllllllllll uuuuuk$lllllllllllllll",
"lllllllllllllllllllllllllllllllllllllllll uuuuuk$lllllllllllllll",
"lllllllllllllllllllllllllllllllllllllllll uuuuuk$lllllllllllllll",
"lllllllllllllllllllllllllllllllllllllllll uuuuuk$lllllllllllllll",
"lllllllllllllllllllllllllllllllllllllllll uuuuuk$lllllllllllllll",
"lllllllllllllllllllllllllllllllllllllllll uuuuuk$lllllllllllllll",
"lllllllllllllllllllllllllllllllllllllllll uuuuuk$lllllllllllllll",
"lllllllllllllllllllllllllllllllllllllllll uuuuuk$lllllllllllllll",
"lllllllllllllllllllllllllllllllllllllllll uuuuuk$lllllllllllllll",
"lllllllllllllllllllllllllllllllllllllllll uuuuuk$lllllllllllllll",
"lllllllllllllllllllllllllllllllllllllllll uuuuuk$lllllllllllllll",
"lllllllllllllllllllllllllllllllllllllllll uuuuuk$lllllllllllllll",
"lllllllllllllllllllllllllllllllllllllllll kkkkkk$lllllllllllllll",
"lllllllllllllllllllllllllllllllllllllllll  ,,,, $lllllllllllllll",
"lllllllllllllllllllllllllllllllllllllllll uuuuuk$lllllllllllllll",
"lllllllllllllllllllllllllllllllllllllllll uuuuuk$lllllllllllllll",
"lllllllllllllllllllllllllllllllllllllllll uuuuuk$lllllllllllllll",
"lllllllllllllllllllllllllllllllllllllllll uuuuuk$lllllllllllllll",
"lllllllllllllllllllllllllllllllllllllllll uuuuuk$lllllllllllllll",
"lllllllllllllllllllllllllllllllllllllllll uuuuuk$lllllllllllllll",
"lllllllllllllllllllllllllllllllllllllllll uuuuuk$lllllllllllllll",
"lllllllllllllllllllllllllllllllllllllllll uuuuuk$lllllllllllllll",
"lllllllllllllllllllllllllllllllllllllllll uuuuuk$lllllllllllllll",
"lllllllllllllllllllllllllllllllllllllllll uuuuuk$lllllllllllllll",
"lllllllllllllllllllllllllllllllllllllllll uuuuuk$lllllllllllllll",
"lllllllllllllllllllllllllllllllllllllllll uuuuuk$lllllllllllllll",
"lllllllllllllllllllllllllllllllllllllllll kkuuuk$lllllllllllllll",
"lllllllllllllllllllllllllllllllllllllllll 24kkuk$lllllllllllllll",
"lllllllllllllllllllllllllllllllllllllllll yy<1kk$lllllllllllllll",
"lllllllllllllllllllllllllllllllllllllllll y555% $lllllllllllllll",
"lllllllllllllllllllllllllllllllllllllllll y55*uk$lllllllllllllll",
"lllllllllllllllllllllllllllllllllllllllll 55=uuk$lllllllllllllll",
"lllllllllllllllllllllllllllllllllllllllll .Xuuuk$lllllllllllllll",
"lllllllllllllllllllllllllllllllllllllllll uuuuuk$lllllllllllllll",
"lllllllllllllllllllllllllllllllllllllllll uuuuuk$lllllllllllllll",
"lllllllllllllllllllllllllllllllllllllllll uuuuuk$lllllllllllllll",
"lllllllllllllllllllllllllllllllllllllllll uuuuuk$lllllllllllllll",
"lllllllllllllllllllllllllllllllllllllllll uuuuuk$lllllllllllllll",
"lllllllllllllllllllllllllllllllllllllllll uuuuuk$lllllllllllllll",
"lllllllllllllllllllllllllllllllllllllllll uuuuuk$lllllllllllllll",
"lllllllllllllllllllllllllllllllllllllllll uuuuuk$lllllllllllllll",
"lllllllllllllllllllllllllllllllllllllllll uuuuuk$lllllllllllllll",
"lllllllllllllllllllllllllllllllllllllllll uuuuuk$lllllllllllllll",
"lllllllllllllllllllllllllllllllllllllllll uuuuuk$lllllllllllllll",
"lllllllllllllllllllllllllllllllllllllllll kkkkkk$lllllllllllllll",
"lllllllllllllllllllllllllllllllllllllllll  ,,,, $lllllllllllllll",
"lllllllllllllllllllllllllllllllllllllllll uuuuuk$lllllllllllllll",
"lllllllllllllllllllllllllllllllllllllllll uuuuuk$lllllllllllllll",
"lllllllllllllllllllllllllllllllllllllllll uuuuuk$lllllllllllllll",
"lllllllllllllllllllllllllllllllllllllllll uuuuuk$lllllllllllllll",
"lllllllllllllllllllllllllllllllllllllllll uuuuuk$lllllllllllllll",
"lllllllllllllllllllllllllllllllllllllllll uuuuuk$lllllllllllllll",
"lllllllllllllllllllllllllllllllllllllllll uuuuuk$lllllllllllllll",
"lllllllllllllllllllllllllllllllllllllllll uuuuuk$lllllllllllllll",
"lllllllllllllllllllllllllllllllllllllllll uuuuuk$lllllllllllllll",
"lllllllllllllllllllllllllllllllllllllllll uuuuuk$lllllllllllllll",
"lllllllllllllllllllllllllllllllllllllllll uuuuuk$lllllllllllllll",
"lllllllllllllllllllllllllllllllllllllllll uuuuuk$lllllllllllllll",
"lllllllllllllllllllllllllllllllllllllllll uuuuuk$lllllllllllllll",
"lllllllllllllllllllllllllllllllllllllllll uuuuuk$lllllllllllllll",
"lllllllllllllllllllllllllllllllllllllllll kkkkkk$lllllllllllllll",
"lllllllllllllllllllllllllllllllllllllllll  ,,,, $lllllllllllllll",
"lllllllllllllllllllllllllllllllllllllllll uuuuuk$lllllllllllllll",
"lllllllllllllllllllllllllllllllllllllllll uuuuuk$lllllllllllllll",
"lllllllllllllllllllllllllllllllllllllllll uuuuuk$lllllllllllllll",
"lllllllllllllllllllllllllllllllllllllllll uuuuuk$lllllllllllllll",
"lllllllllllllllllllllllllllllllllllllllll uuuuuk$lllllllllllllll",
"lllllllllllllllllllllllllllllllllllllllll uuuuuk$lllllllllllllll",
"lllllllllllllllllllllllllllllllllllllllll uuuuuk$lllllllllllllll",
"lllllllllllllllllllllllllllllllllllllllll tuuuuk$lllllllllllllll",
"lllllllllllllllllllllllllllllllllllllllll i9uuuk$lllllllllllllll",
"lllllllllllllllllllllllllllllllllllllllll ua8uur$lllllllllllllll",
"lllllllllllllllllllllllllllllllllllllllll uus367$lllllllllllllll",
"lllllllllllllllllllllllllllllllllllllllll uuud66$lllllllllllllll",
"lllllllllllllllllllllllllllllllllllllllll uuuf36$lllllllllllllll",
"lllllllllllllllllllllllllllllllllllllllll uuug33$lllllllllllllll",
"lllllllllllllllllllllllllllllllllllllllll kkk;>3$lllllllllllllll",
"lllllllllllllllllllllllllllllllllllllllll  #O:>>$lllllllllllllll",
"lllllllllllllllllllllllllllllllllllllllll uuu  >$lllllllllllllll",
"lllllllllllllllllllllllllllllllllllllllll uuuup $lllllllllllllll",
"lllllllllllllllllllllllllllllllllllllllll uuuuuk$lllllllllllllll",
"lllllllllllllllllllllllllllllllllllllllll uuuuuk$lllllllllllllll",
"lllllllllllllllllllllllllllllllllllllllll uuuuuk$lllllllllllllll"
};
