/* XPM */
static char *result[] = {
/* columns rows colors chars-per-pixel */
"64 96 86 1 ",
"  c #4F2713",
". c #4F2913",
"X c #532D15",
"o c #542E19",
"O c #56311A",
"+ c #59341C",
"@ c #5B391F",
"# c #573622",
"$ c #5C3720",
"% c #5D3B23",
"& c #5C3E29",
"* c #613E25",
"= c #613F28",
"- c #5E412C",
"; c #624126",
": c #64442B",
"> c #68462C",
", c #674B2F",
"< c #694B2F",
"1 c #644631",
"2 c #684731",
"3 c #654934",
"4 c #6A4D32",
"5 c #654E3A",
"6 c #6A4E39",
"7 c #6D5134",
"8 c #65503C",
"9 c #6D523D",
"0 c #715336",
"q c #73563A",
"w c #75593C",
"e c #785B3F",
"r c #6C5542",
"t c #6C5945",
"y c #6E5C49",
"u c #715642",
"i c #735A45",
"p c #7A5E42",
"a c #735D4A",
"s c #795F4C",
"d c #6F604B",
"f c #7D6246",
"g c #72614D",
"h c #7E644A",
"j c #756452",
"k c #7C6553",
"l c #776856",
"z c #7A6956",
"x c #7C6C5A",
"c c #7F715E",
"v c #7F7260",
"b c #81664A",
"n c #836A4D",
"m c #806756",
"M c #866D51",
"N c #886F53",
"B c #806B59",
"V c #877053",
"C c #8A7255",
"Z c #81715F",
"A c #8C7659",
"S c #8E795C",
"D c #917A5D",
"F c #847563",
"G c #867867",
"H c #887967",
"J c #877968",
"K c #8A7C6B",
"L c #937E62",
"P c #8C7F70",
"I c #8D806F",
"U c #968165",
"Y c #988367",
"T c #9A8569",
"R c #8E8171",
"E c #928576",
"W c #948877",
"Q c #938778",
"! c #968B7B",
"~ c #988D7E",
"^ c #9A8E81",
"/ c #9D9284",
"( c #9F9588",
") c #A09689",
"_ c #A2988B",
"` c None",
/* pixels */
"````````````````````````````````````````````````````````````````",
"````````````````````````````````````````````````````````````````",
"````````````````````````````````````````````````````````````````",
"````````````````````````````````````````````````````````````````",
"````````````````````````````````````````````````````````````````",
"````````````````````````````````````````````````````````````````",
"````````````````````````````````````````````````````````````````",
"````````````````````````````````````````````````````````````````",
"````````````````````````````````````````````````````````````````",
"````````````````````````````````````````````````````````````````",
"````````````````````````````````````````````````````````````````",
"````````````````````````````````````````````````````````````````",
"````````````````````````````````````````````````````````````````",
"````````````````````````````````````````````````````````````````",
"````````````````````````````````````````````````````````````````",
"````````````````````````````````````````````````````````````````",
"````````````````````````````````````````````````````````````````",
"````````````````````````````````````````````````````````````````",
"````````````````````````````````````````````````````````````````",
"````````````````````````````````````````````````````````````````",
"````````````````````````````````````````````````````````````````",
"````````````````````````````````````````````````````````````````",
"````````````````````````````````````````````````````````````````",
"````````````````````````````````````````````````````````````````",
"````````````````````````````````````````````````````````````````",
"````````````````````````````````````````````````````````````````",
"````````````````````````````````````````````````````````````````",
"````````````````````````````````````````````````````````````````",
"````````````````````````````````````````````````````````````````",
"````````````````````````````````````````````````````````````````",
"````````````````````````````````````````````````````````````````",
"````````````````````````````````````````````````````````````````",
"````````````````````````````````````````````````````````````````",
"````````````````````````````````````````````````````````````````",
"`````$$+$$````````````````````````````````````````````$$$+$`````",
"````:::%*$$``````````````````````````````````````````%%%&*=:````",
"``$6kjsaa3+OXXXX+XXXX+```XXXXXXXXXXXXXX```XXXXXXXXXXO@3aaajs3+``",
"``=6BBxxz4+*;;******>4>+>4=*******;;*;;;%;<:%;%;;;;;;;rzxxZx6$``",
"``3iHHFBZ6*>00q00qeqen0+0nf00qq00qqqqwf4;0bw00qqqqq0<:ucZZJFr=``",
"``2sPPKKJi*0ebbbbbbbnMe>eAMbfbbbbbbffnMw;wVbbfhhbbfbw>iJJJPKi:``",
"``6sQQPEPs=qbbbMnnnnMAf>bDNnnnnnbnnnnVAf:pVnhhVnnnnnp2aPPPQPs1``",
"``4k!~EEPs=pbnMMNNMMCDb<bDCMnMMMMMnMMCAf,fAVVhMMMnMMi3sQQQQQs1``",
"``9m~~QWPm=qbCAAACDCDLN0nDDCAAAAAAAAASSf4fAAAAAAAAAAb2sQQQ^^k3``",
"``6m^/~~^m=qbCSDDDDDDYCeNDDDDADAASSSASUh4fSAAAASAAAAs2sQQQ^^k3``",
"``6m/)//~b>pMADDDDDDDTCeNLLDDDDLSSASSSUh4hSSSSAADSSSb4k^^^)^k2``",
"``0m^))))m=pnDDYLLLLTTCqNTLLLLLLUUUSUUUh4nUUDUUULLLLn2B)/()^k2``",
"``4m/))))m>wMDDYYYLYYTCqNLTLLLTLUUUUUUUh4nUUUUUSUUUUm2m()(_^k4``",
"``4m/))))m=wMDYYDYYLYTCqNTLTLLLLUUUUUUUk4nYUUUUULUULm6m(((_^k6``",
"``0B)_)))b=eMSLLLYLYYYNqNYLLLLLLLLLLLLLb2nUULLLLLUUDM4B()((^k6``",
"``2k~_~)^h*qnALLLDLLLYN0NYYDDDLLLLLLLLTn<nUULLLDLHUDb2k^^^(^k4``",
"``=m~_~~~s*qnCDDDDDDLYNqNYDDDCDDSSSSLLLn<nUDDADDSSDSb2k!^!/^k3``",
"``=s~~~~!s*qbCDDDDDDLYnqNYDDDDDDSDSSSLLb<nUDDDADSSSSb2k!!!/^k4``",
"``=s~~WWPb*0bCDDDDDDDLb0nLDDDDDCSSSSALLb>bLDDADDSSDAb>gEEE^^k3``",
"``*sQ~RRLe+0bNDACDDCDDb0bLDCDCDDAAAAADLb>bUDAAAAAAADb>sPIRQQs6``",
"``*iWWPRPu$0pbMMMMMMCCb4fDNNnMMMMMMMMNAe*pACnnnnnnnne>sKIRQQs3``",
"``*sWWPPKu+>ebnnnnMnNCp=eCNnnnnnmnnbnNAw*eCMnnnnnnnne:aKKKQEs>``",
"``*uPEKJK6+>ebnnnnnnMNw*eNMbnbbnbnnnbMNq+qCMnnnnnmnbi=uJJJEPi=``",
"``*uKPKJJ0+>ebnnnbnnbMq$qMbbffppppsppnAq+qVnnnnnnbbbp=uFJJKKu=``",
"``*=uuuq9=O>epbbbppbbb0+2pu4444424422ub2@7fbpepeppbe6=2r9rru1&``",
"``+$***=*+O=00040000qe>X*2=%=22>>:1=$=q>X;7707774242=$$$%%*%$%``",
"``+0FKKKH0X+++++++++++OXO+X$aFFFAFFa*++OXX++OOOO++OOOOqHKKHF9*``",
"``$uKPKKK0X++$$+$++$$+OXOOX+iZsuufZi+O+OX+*@@%%%$$$$+OrJKKKGu%``",
"``*6FFxZB3O$>====::::=*X+*++tj1$o&a9OO*+X-7,>>:1,1>>%o6xxxFF9%``",
"``*rFFZxB3X*>40q07000w;X*>$O6jju%%t6O+$+X:q974774747=X3xxxFF6$``",
"``*6ZFzzl,o@,<700007ww,X;<@@7dld%%t5OO@+X:w77777777<;X,nllvv5#``",
"``=6xxjjl-X-,<7777770w;X;<@+,dd7--r5OO-+X;w7,77,7,7<;X,djjll3$``",
"``%6lljjj,X@:<7777777w;X@<@X,8ttddy,OO-+.,q07,,777<7;X,djdlj1o``",
"``+3jjggd-X@-,7<7<7<7w;X;<;@----,--@O%:@X;q0,777,77<;.,dggjj&o``",
"``O:jjydd-.@;,<7<<777q,X@7,;OXXXXXX+;:,@X;q77,7,77,7;.-dddgd&X``",
"``.-yytyt-.@;,<,<<<<7q;X;,,,-;;;**;-,,7*X,q77,,,,,,,-.&dttyy&X``",
"``.%tattt-.+;,,,<,,,7q,X@77,,,,-,,,,,,,*X,77,,,,,,,,;.&8tryi& ``",
"``.%aatt9%X+-:,,<,,,70;X@,,,,,,,<<<<<,4*X;07,,,,,,,,;.&tttat& ``",
"``.-yyttr&.+*:,,,,,,77;X;,,7,,7,444<<7<%X:q7,,,,,,,,-.-ttddt& ``",
"``.#3511-%O#--::;::,<q:X@,;,,;;,::::::,@X,7<;:::,;;,@X@--,,-# ``",
"`` O------&%%@%@@@%@:4-XO@;@;@@@$%*$@%@+X%4;$$$$;@@@@-------O ``",
"``.&jxxlzxz-XX..XOXXX+oXXXXXXXOXXXX XXXXXX+XOXoo..O.,llxjxxd&.``",
"`` -jlxxzcz:o-55455756999rrrq799rrrrrrr89999r55588-o-llllxlj-.``",
"`` &tyyyydg-O8jjlzzxxxxFFFFvIcvIGGFFFvvvZZvcvxzlld8o-ddttddt# ``",
"`` #55558yd-O3rrrrttttttytyyytddyyyyyyyyytyyttttd88o-dd88888#.``",
"`` o#&#&%--#.#&&&%&%&&&&&&&&&-%-&&&&&&&&&&&&&&&&--#.#---%###o.``",
"``              . .                                    X     X``",
"````````````````````````````````````````````````````````````````",
"````````````````````````````````````````````````````````````````",
"````````````````````````````````````````````````````````````````",
"````````````````````````````````````````````````````````````````",
"````````````````````````````````````````````````````````````````",
"````````````````````````````````````````````````````````````````",
"````````````````````````````````````````````````````````````````",
"````````````````````````````````````````````````````````````````",
"````````````````````````````````````````````````````````````````",
"````````````````````````````````````````````````````````````````",
"````````````````````````````````````````````````````````````````",
"````````````````````````````````````````````````````````````````",
"````````````````````````````````````````````````````````````````",
"````````````````````````````````````````````````````````````````",
"````````````````````````````````````````````````````````````````"
};
