/* XPM */
static char *result[] = {
/* columns rows colors chars-per-pixel */
"64 94 111 2 ",
"   c #4F2913",
".  c #4F2A14",
"X  c #4F311E",
"o  c #53321E",
"O  c #4F3625",
"+  c #4F3626",
"@  c #563621",
"#  c #543523",
"$  c #543623",
"%  c #543624",
"&  c #543625",
"*  c #543725",
"=  c #553725",
"-  c #553726",
";  c #553826",
":  c #583824",
">  c #5A3B27",
",  c #563B2A",
"<  c #563B2B",
"1  c #563C2C",
"2  c #573C2D",
"3  c #573D2D",
"4  c #573D2E",
"5  c #573E2E",
"6  c #593D2A",
"7  c #5A3F2C",
"8  c #573F30",
"9  c #584031",
"0  c #5B4231",
"q  c #584132",
"w  c #594233",
"e  c #584234",
"r  c #594334",
"t  c #594335",
"y  c #594537",
"u  c #5A4436",
"i  c #5A4536",
"p  c #5A4537",
"a  c #5A4739",
"s  c #5B473A",
"d  c #5B483B",
"f  c #5B493C",
"g  c #5B4A3D",
"h  c #5C493D",
"j  c #5C4A3E",
"k  c #5C4B3E",
"l  c #5C4B3F",
"z  c #5C4B40",
"x  c #5C4C40",
"c  c #5C4D41",
"v  c #5D4D41",
"b  c #5D4D42",
"n  c #5D4E42",
"m  c #5D4E43",
"M  c #5D4F43",
"N  c #5E4F44",
"B  c #5E4F45",
"V  c #5D5044",
"C  c #5C5147",
"Z  c #5E5146",
"A  c #5C5247",
"S  c #5D5248",
"D  c #5D5349",
"F  c #5F5349",
"G  c #5E5449",
"H  c #5D544A",
"J  c #655444",
"K  c #665444",
"L  c #61564B",
"P  c #655C55",
"I  c #655D56",
"U  c #665F58",
"Y  c #666057",
"T  c #676159",
"R  c #676259",
"E  c #68625A",
"W  c #68635A",
"Q  c #69635B",
"!  c #69645B",
"~  c #69645C",
"^  c #6A645C",
"/  c #6A655C",
"(  c #6B655D",
")  c #6A665C",
"_  c #6B665D",
"`  c #6B675D",
"'  c #6B675E",
"]  c #6C665E",
"[  c #6C675E",
"{  c #6C675F",
"}  c #6D675F",
"|  c #6C685E",
" . c #6C685F",
".. c #6D685F",
"X. c #6D695F",
"o. c #6D6960",
"O. c #6E6860",
"+. c #6E6960",
"@. c #6E6A60",
"#. c #6F6A61",
"$. c #6F6B61",
"%. c #706B62",
"&. c #767469",
"*. c #868579",
"=. c #86847B",
"-. c #88877B",
";. c #918F88",
":. c #929088",
">. c #94928B",
",. c #99978F",
"<. c None",
/* pixels */
"<.<.<.<.<.<.<.<.<.<.<.<.<.<.<.<.<.<.<.<.<.<.<.<.<.<.<.<.<.<.<.<.<.<.<.<.<.<.<.<.<.<.<.<.<.<.<.<.<.<.<.<.<.<.<.<.<.<.<.<.<.<.<.<.",
"<.<.<.<.<.<.<.<.<.<.<.<.<.<.<.<.<.<.<.<.<.<.<.<.<.<.<.<.<.<.<.<.<.<.<.<.<.<.<.<.<.<.<.<.<.<.<.<.<.<.<.<.<.<.<.<.<.<.<.<.<.<.<.<.",
"<.<.<.<.<.<.<.<.<.<.<.<.<.<.<.<.<.<.<.<.<.<.<.<.<.<.<.<.<.<.<.<.<.<.<.<.<.<.<.<.<.<.<.<.<.<.<.<.<.<.<.<.<.<.<.<.<.<.<.<.<.<.<.<.",
"<.<.<.<.<.<.<.<.<.<.<.<.<.<.<.<.<.<.<.<.<.<.<.<.<.<.<.<.<.<.<.<.<.<.<.<.<.<.<.<.<.<.<.<.<.<.<.<.<.<.<.<.<.<.<.<.<.<.<.<.<.<.<.<.",
"<.<.<.<.<.<.<.<.<.<.<.<.<.<.<.<.<.<.<.<.<.<.<.<.<.<.<.<.<.<.<.<.<.<.<.<.<.<.<.<.<.<.<.<.<.<.<.<.<.<.<.<.<.<.<.<.<.<.<.<.<.<.<.<.",
"<.<.<.<.<.<.<.<.<.<.<.<.<.<.<.<.<.<.<.<.<.<.<.<.<.<.<.<.<.<.<.<.<.<.<.<.<.<.<.<.<.<.<.<.<.<.<.<.<.<.<.<.<.<.<.<.<.<.<.<.<.<.<.<.",
"<.<.<.<.<.<.<.<.<.<.<.<.<.<.<.<.<.<.<.<.<.<.<.<.<.<.<.<.<.<.<.<.<.<.<.<.<.<.<.<.<.<.<.<.<.<.<.<.<.<.<.<.<.<.<.<.<.<.<.<.<.<.<.<.",
"<.<.<.<.<.<.<.<.<.<.<.<.<.<.<.<.<.<.<.<.<.<.<.<.<.<.<.<.<.<.<.<.<.<.<.<.<.<.<.<.<.<.<.<.<.<.<.<.<.<.<.<.<.<.<.<.<.<.<.<.<.<.<.<.",
"<.<.<.<.<.<.<.<.<.<.<.<.<.<.<.<.<.<.<.<.<.<.<.<.<.<.<.<.<.<.<.<.<.<.<.<.<.<.<.<.<.<.<.<.<.<.<.<.<.<.<.<.<.<.<.<.<.<.<.<.<.<.<.<.",
"<.<.<.<.<.<.<.<.<.<.<.<.<.<.<.<.<.<.<.<.<.<.<.<.<.<.<.<.<.<.<.<.<.<.<.<.<.<.<.<.<.<.<.<.<.<.<.<.<.<.<.<.<.<.<.<.<.<.<.<.<.<.<.<.",
"<.<.<.<.<.<.<.<.<.<.<.<.<.<.<.<.<.<.<.<.<.<.<.<.<.<.<.<.<.<.<.<.<.<.<.<.<.<.<.<.<.<.<.<.<.<.<.<.<.<.<.<.<.<.<.<.<.<.<.<.<.<.<.<.",
"<.<.<.<.<.<.<.<.<.<.<.<.<.<.<.<.<.<.<.<.<.<.<.<.<.<.<.<.<.<.<.<.<.<.<.<.<.<.<.<.<.<.<.<.<.<.<.<.<.<.<.<.<.<.<.<.<.<.<.<.<.<.<.<.",
"<.<.<.<.<.<.<.<.<.<.<.<.<.<.<.<.<.<.<.<.<.<.<.<.<.<.<.<.<.<.<.<.<.<.<.<.<.<.<.<.<.<.<.<.<.<.<.<.<.<.<.<.<.<.<.<.<.<.<.<.<.<.<.<.",
"<.<.<.<.<.<.<.<.<.<.<.<.<.<.<.<.<.<.<.<.<.<.<.<.<.<.<.<.<.<.<.<.<.<.<.<.<.<.<.<.<.<.<.<.<.<.<.<.<.<.<.<.<.<.<.<.<.<.<.<.<.<.<.<.",
"<.<.<.<.<.<.<.<.<.<.<.<.<.<.<.<.<.<.<.<.<.<.<.<.<.<.<.<.<.<.<.<.<.<.<.<.<.<.<.<.<.<.<.<.<.<.<.<.<.<.<.<.<.<.<.<.<.<.<.<.<.<.<.<.",
"<.<.<.<.<.<.<.<.<.<.<.<.<.<.<.<.<.<.<.<.<.<.<.<.<.<.<.<.<.<.<.<.<.<.<.<.<.<.<.<.<.<.<.<.<.<.<.<.<.<.<.<.<.<.<.<.<.<.<.<.<.<.<.<.",
"<.<.<.<.<.<.<.<.<.<.<.<.<.<.<.<.<.<.<.<.<.<.<.<.<.<.<.<.<.<.<.<.<.<.<.<.<.<.<.<.<.<.<.<.<.<.<.<.<.<.<.<.<.<.<.<.<.<.<.<.<.<.<.<.",
"<.<.<.<.<.<.<.<.<.<.<.<.<.<.<.<.<.<.<.<.<.<.<.<.<.<.<.<.<.<.<.<.<.<.<.<.<.<.<.<.<.<.<.<.<.<.<.<.<.<.<.<.<.<.<.<.<.<.<.<.<.<.<.<.",
"<.<.<.<.<.<.<.<.<.<.<.<.<.<.<.<.<.<.<.<.<.<.<.<.<.<.<.<.<.<.<.<.<.<.<.<.<.<.<.<.<.<.<.<.<.<.<.<.<.<.<.<.<.<.<.<.<.<.<.<.<.<.<.<.",
"<.<.<.<.<.<.<.<.<.<.<.<.<.<.<.<.<.<.<.<.<.<.<.<.<.<.<.<.<.<.<.<.<.<.<.<.<.<.<.<.<.<.<.<.<.<.<.<.<.<.<.<.<.<.<.<.<.<.<.<.<.<.<.<.",
"> K > > > > > > > > > > > > > > > > > > > > > > > > > > > > > > > > K > > > > > > > > > > > > > > > > > > > > > > > > > > > > > ",
"*.  *.*.*.*.*.*.*.*.*.*.*.*.*.*.*.*.*.*.*.*.*.*.*.*.*.*.*.*.*.*.-.-.@ *.*.*.*.*.*.*.*.*.*.*.*.*.*.*.*.*.*.*.*.*.*.*.*.*.*.*.*.*.",
"*.  *.*.*.*.*.*.*.*.*.*.*.*.*.*.*.*.*.*.*.*.*.*.*.*.*.*.*.*.*.*.*.-.: *.*.*.*.*.*.*.*.*.*.*.*.*.*.*.*.*.*.*.*.*.*.*.*.*.*.*.*.*.",
"*.K *.*.*.*.*.*.*.*.*.*.*.*.*.*.*.*.*.*.*.*.*.*.*.*.*.*.*.*.*.*.*.*.K *.*.*.*.*.*.*.*.*.*.*.*.*.*.*.*.*.*.*.*.*.*.*.*.*.*.*.*.*.",
">.K >.>.>.>.>.>.>.>.>.>.>.>.>.>.>.>.>.>.>.>.;.;.;.;.;.;.;.:.>.,.,.,.K >.,.,.,.>.>.>.>.>.>.>.>.>.>.>.>.>.>.>.>.>.>.>.>.>.>.>.>.,.",
"X.7 %.%.%.%.%.%.%.%.$.$.#.@.@.@.X.X.X.X.X...............X.X.X.X.X...0 ......| ..........[ | | | | X.X.X.X.X.........| | | ......",
"..7 $.$.$.$.$.$.#.#.#.#.@.+.+.X...............................X.....0 ....| | | ......| [ [ [ [ [ ..................| | | | | | ",
"| 7 #.#.#.@.@.@.+.+.+.+.+.X.X.X.....................| | | | | | [ [ 0 ..| | [ [ | | | [ [ [ [ [ [ ..................[ [ [ [ [ [ ",
"| 7 @.@.+.+.+.+.+.+.+.+.+.X.X.......| | | | | | | | | | | [ [ [ [ [ 0 [ [ [ [ [ ` ` [ [ [ [ [ ] _ ....| | | | | | | _ _ _ _ _ _ ",
"[ 7 +.+.+.+.+.o.O.O. . .| | | [ [ [ [ [ [ [ [ [ [ [ [ [ [ ` ` ` ` ` 0 _ _ _ _ _ _ _ _ _ _ _ _ _ _ [ [ [ [ [ [ [ [ [ _ _ _ _ _ _ ",
"_ 7 ......} } [ [ [ | | | [ [ [ ` ` _ _ _ _ _ _ _ _ _ _ _ _ _ _ _ _ 0 _ _ _ _ _ ( ( / / / / ) ) ) ` ` _ _ _ _ _ _ _ / ( ( ( ( ( ",
"/ 7 ] ] ] ] ] ] _ _ _ _ _ _ _ / / / / / / / / / / / / / / / ( ( ( ( 6 ( ( / ^ ^ ^ ^ ^ ^ ^ ^ / / / / / / / / / / / / ! ! ! ! ! ! ",
"/ 7 ^ ^ ^ / / / / / / / / / / / / / / / / / / / / / / / / / / / ^ / o ! ! ! ! ! ! ! ! ! ! ! ! ! ! / / / / / / / / / ! ! ! ! ! ! ",
"! 7 ! ! ! ! ! ! ! ! ! ! ! ! ! ! ! ! ! ! ^ ! ! ! ! ! ! ! ! ! ! ! ! ! o Q Q Q Q Q Q ! ! ! ! ! ! ! ! ! ! ! ! ^ ! ! ! ! ! Q ! ! ! ! ",
"Q 7 E E E E E W Q Q Q Q Q Q Q Q Q Q Q Q Q Q Q Q Q Q Q Q Q Q Q Q W W o W W W W W W W W W W W W W Q Q Q Q Q Q Q Q Q Q Q Q Q Q Q Q ",
"E 7 T T R T T R R R R R R R R T R R R R R R R R R E R E E E W W W E o E E E E E E E E E W W E W W R R R R R R R R R W W W W W Q ",
"T   T T T T T T T T T T T T T T T T T T T T T T T T T T T T T T T T o T T T T T T T T T T T T T T T T T T T T T T T R R R R R R ",
"T   T T T T T T T T T T T T T T T T T T T T T T T T T T T T T T T T   T T T T T T T T T T T T T T T T T T T T T T T T T T T T T ",
".                                                                   A                                                           ",
"A A A A A A G A A X A A A A A A A A A A A A A A A A A A A A A A A A A A A A A A A X C C A S S S S S S S S S S S S S S S S S S S ",
"A A A A A A A A A X D A A A A A A A A A A A A A A A A A A A A A A A A A A A A A A X A A S S S S S S S S S S S S S S S S S S S S ",
"A A A A A A A H A O D A A A A A A A A A A A A A A A A A A A A A A A A A A A A A A X A A S S S S S S S S S S S S S S S S S S S S ",
"A A A A A A A H A O A A A A A A A A A A A A A A A A A A A A A A A A A A A A A A A X A A A S S S S S S S S S S S S S S S S S S S ",
"A A A A A A A H H + D A A A A A A A A A A A A A A A A A A A A A A A A A A A A A A X A A A S S S S S S S S S S S S S S S S S S S ",
"A A A A A A A H H + D A A A A A A A A A A A A A A A A A A A A A A A A A A A A A A X C C A S S S S S S S S S S S S S S S S S S S ",
"T T T T T T T T T p T T T T T T T T T T T T T T T T T T T T T T T T T T T T T T T q T T T T T T T T T T T T T T T T T T T T T T ",
"T T T T T T T T T a T T T T T T T T T T T T T T T T T T T T T T T T T T T T T T T 9 T T T T T T T T T T T T T T T T T T T T T T ",
"Z Z Z Z Z Z u i i i i Z Z Z Z Z Z Z Z Z Z Z Z v v v Z Z Z F F F F F F F F F F t t w e r F F F F F F F F F q q * = q q q q F F F ",
"................................................v { { { { { { { { { { { { { { { { { { { { { { { { { { { { { { { % { { { { { { { ",
"T T T T T T T T T T T T T T T T T T T T T T T T v T T T T T T T T T T T T T T T T T T T T T T T T T T T T T T T < T T T T T T T ",
"T T T T T T T T T T T T T T T T T T T T T T T T v T T T T T T T T T T T T T T T T T T T T T T T T T T T T T T T q T T T T T T T ",
"T T T T T T T T T T T T T T T T T T T T T T T T v T T T T T T T T T T T T T T T T T T T T T T T T T T T T T T T F T T T T T T T ",
"T T T T T T T T T T T T T T T T T T T T T T T T v T T T T T T T T T T T T T T T T T T T T T T T T T T T T T T T F T T T T T T T ",
"T T T T T T T T T T T T T T T T T T T T T T T T v T T T T T T T T T T T T T T T T T T T T T T T T T T T T T T T F T T T T T T T ",
"T T T T T T T T T T T T T T T T T T T T T T T T q T T T T T T T T T T T T T T T T T T T T T T T T T T T T T T T F T T T T T T T ",
"T T T T T T T T T T T T T T T T T T T T T T T T 8 T T T T T T T T T T T T T T T T T T T T T T T T T T T T T T T F T T T T T T T ",
"b b b b b n n n y 4 < < < x g f f d d d d 2 2 % # - 2 F F F F F F F F F F F a d f b f f s F F F F F F F F F F F F F F F F F F F ",
"' [ [ [ { { { { { { & { { { { { ~ ~ ~ ~ ~ ~ ~ ~ ~ ~ ~ ~ ~ ~ ~ ~ ~ ~  . . . . .{ [ z { { { { { { { { { { { { { { { { { { { { { { ",
"U U U U U U U U U U & U U U U U U U U U U U U U U U U U U U U U U U U U U U U U U l U U U U U U U U U U U U U U U U U U U U U U ",
"U U U U U U U U U U j U U U U U U U U U U U U U U U U U U U U U U U U U U U U U U h U U U U U U U U U U U U U U U U U U U U U U ",
"U U U U U U U U U U F U U U U U U U U U U U U U U U U U U U U U U U U U U U U U U B P U U U U U U U U U U U U U U U U U U U U U ",
"U U U U U U U U U U F U U U U U U U U U U U U U U U U U U U U U U U U U U U U U U B I U U U U U U U U U U U U U U U U U U U U U ",
"U U U U U U U U U U F U U U U U U U U U U U U U U U U U U U U U U U U U U U U U U N U U U U U U U U U U U U U U U U U U U U U U ",
"U U U U U U U U U U F U U U U U U U U U U U U U U U U U U U U U U U U U U U U U U # U U U U U U U U U U U U U U U U U U U U U U ",
"U U U U U U U U U U F U U U U U U U U U U I U U U U U U U U U U U U U U U U U U U # U U U U U U U U U U U U U U U U U U U U U U ",
"m m n m F F F F F F F F F F F F F F F F F k k f k k V V V V M m n n n n n b # # # # # # c c c c c c c c b F q q $ 1 q F F F F F ",
"{ { { { { { { { { { { { { { { { { { { { { { { { k { { { { { { { { { { { { { { { { { { { { { { { { { { { { { { { ; { { { { { { { ",
"U U U U U U U U U U U U U U U U U U U U U U U U k U U U U U U U U U U U U U U U U U U U U U U U U U U U U U U U 3 U U U U U U U ",
"U U U U U U U U U U U U U U U U U U U U U U U U k U U U U U U U U U U U U U U U U U U U U U U U U U U U U U U U F U U U U U U U ",
"U U U U U U U U U U U U U U U U U U U U U U U U Z U U U U U U U U U U U U U U U U U U U U U U U U U U U U U U U F U U U U U U U ",
"U U U U U U U U U U U U U U U U U U U U U U U U F U U U U U U U U U U U U U U U U U U U U U U U U U U U U U U U F U U U U U U U ",
"U U U U U U U U U U U U U U U U U U U U U U U U q U U U U U U U U U U U U U U U U U U U U U U U U U U U U U U U F U U U U U U U ",
"U U U U U U U U U U U U U U U U U U U U U U U U 3 U U U U U U U U U U U U U U U U U U U U U U U U U U U U U U U q U U U U U U U ",
"U U U U U U U U U U U U U U U U U U U U U U U U 5 U U U U U U U U U U U U U U U U U U U U U U U U U U U U U U U , U U U U U U U ",
"    L                                                               L                                                           ",
"&.&.  &.&.&.&.&.&.&.&.&.&.&.&.&.&.&.&.&.&.&.&.&.&.&.&.&.&.&.&.&.&.&.  &.&.&.&.&.&.&.&.&.&.&.&.&.&.&.&.&.&.&.&.&.&.&.&.&.&.&.&.&.",
"&.&.J &.&.&.&.&.&.&.&.&.&.&.&.&.&.&.&.&.&.&.&.&.&.&.&.&.&.&.&.&.&.&.J &.&.&.&.&.&.&.&.&.&.&.&.&.&.&.&.&.&.&.&.&.&.&.&.&.&.&.&.&.",
"&.&.J &.&.&.&.&.&.&.&.&.&.&.&.&.&.&.&.&.&.&.&.&.&.&.&.&.&.&.&.&.&.&.J &.&.&.&.&.&.&.&.&.&.&.&.&.&.&.&.&.&.&.&.&.&.&.&.&.&.&.&.&.",
"&.&.J &.&.&.&.&.&.&.&.&.&.&.&.&.&.&.&.&.&.&.&.&.&.&.&.&.&.&.&.&.&.&.J &.&.&.&.&.&.&.&.&.&.&.&.&.&.&.&.&.&.&.&.&.&.&.&.&.&.&.&.&.",
"=.=.J =.=.=.=.=.=.=.=.=.=.=.=.=.=.=.=.=.=.=.=.=.=.=.=.=.=.=.=.=.=.=.J =.=.=.=.=.=.=.=.=.=.=.=.=.=.=.=.=.=.=.=.=.=.=.=.=.=.=.=.=.",
"Y Y J Y Y Y Y Y Y Y Y Y Y Y Y Y Y Y Y Y Y Y Y Y Y Y Y Y Y Y Y Y Y Y J Y Y Y Y Y Y Y Y Y Y Y Y Y Y Y Y Y Y Y Y Y Y Y Y Y Y Y Y Y ",
"Y Y J Y Y Y Y Y Y Y Y Y Y Y Y Y Y Y Y Y Y Y Y Y Y Y Y Y Y Y Y Y Y Y J Y Y Y Y Y Y Y Y Y Y Y Y Y Y Y Y Y Y Y Y Y Y Y Y Y Y Y Y Y ",
"Y Y   Y Y Y Y Y Y Y Y Y Y Y Y Y Y Y Y Y Y Y Y Y Y Y Y Y Y Y Y Y Y Y   Y Y Y Y Y Y Y Y Y Y Y Y Y Y Y Y Y Y Y Y Y Y Y Y Y Y Y Y Y ",
"                                                                                                                                ",
"<.<.<.<.<.<.<.<.<.<.<.<.<.<.<.<.<.<.<.<.<.<.<.<.<.<.<.<.<.<.<.<.<.<.<.<.<.<.<.<.<.<.<.<.<.<.<.<.<.<.<.<.<.<.<.<.<.<.<.<.<.<.<.<.",
"<.<.<.<.<.<.<.<.<.<.<.<.<.<.<.<.<.<.<.<.<.<.<.<.<.<.<.<.<.<.<.<.<.<.<.<.<.<.<.<.<.<.<.<.<.<.<.<.<.<.<.<.<.<.<.<.<.<.<.<.<.<.<.<.",
"<.<.<.<.<.<.<.<.<.<.<.<.<.<.<.<.<.<.<.<.<.<.<.<.<.<.<.<.<.<.<.<.<.<.<.<.<.<.<.<.<.<.<.<.<.<.<.<.<.<.<.<.<.<.<.<.<.<.<.<.<.<.<.<.",
"<.<.<.<.<.<.<.<.<.<.<.<.<.<.<.<.<.<.<.<.<.<.<.<.<.<.<.<.<.<.<.<.<.<.<.<.<.<.<.<.<.<.<.<.<.<.<.<.<.<.<.<.<.<.<.<.<.<.<.<.<.<.<.<.",
"<.<.<.<.<.<.<.<.<.<.<.<.<.<.<.<.<.<.<.<.<.<.<.<.<.<.<.<.<.<.<.<.<.<.<.<.<.<.<.<.<.<.<.<.<.<.<.<.<.<.<.<.<.<.<.<.<.<.<.<.<.<.<.<.",
"<.<.<.<.<.<.<.<.<.<.<.<.<.<.<.<.<.<.<.<.<.<.<.<.<.<.<.<.<.<.<.<.<.<.<.<.<.<.<.<.<.<.<.<.<.<.<.<.<.<.<.<.<.<.<.<.<.<.<.<.<.<.<.<.",
"<.<.<.<.<.<.<.<.<.<.<.<.<.<.<.<.<.<.<.<.<.<.<.<.<.<.<.<.<.<.<.<.<.<.<.<.<.<.<.<.<.<.<.<.<.<.<.<.<.<.<.<.<.<.<.<.<.<.<.<.<.<.<.<.",
"<.<.<.<.<.<.<.<.<.<.<.<.<.<.<.<.<.<.<.<.<.<.<.<.<.<.<.<.<.<.<.<.<.<.<.<.<.<.<.<.<.<.<.<.<.<.<.<.<.<.<.<.<.<.<.<.<.<.<.<.<.<.<.<.",
"<.<.<.<.<.<.<.<.<.<.<.<.<.<.<.<.<.<.<.<.<.<.<.<.<.<.<.<.<.<.<.<.<.<.<.<.<.<.<.<.<.<.<.<.<.<.<.<.<.<.<.<.<.<.<.<.<.<.<.<.<.<.<.<.",
"<.<.<.<.<.<.<.<.<.<.<.<.<.<.<.<.<.<.<.<.<.<.<.<.<.<.<.<.<.<.<.<.<.<.<.<.<.<.<.<.<.<.<.<.<.<.<.<.<.<.<.<.<.<.<.<.<.<.<.<.<.<.<.<."
};
