/* XPM */
static char *result[] = {
/* columns rows colors chars-per-pixel */
"64 94 252 2 ",
"   c #482413",
".  c #4F2913",
"X  c #4F2A14",
"o  c #4B2E1E",
"O  c #4C2D1D",
"+  c #502B15",
"@  c #502C17",
"#  c #502D19",
"$  c #502E19",
"%  c #4F311E",
"&  c #54301B",
"*  c #51301C",
"=  c #52321E",
"-  c #54311C",
";  c #54311D",
":  c #54321D",
">  c #54331D",
",  c #54321E",
"<  c #55341F",
"1  c #4D2F20",
"2  c #4E3122",
"3  c #4F3223",
"4  c #4D3224",
"5  c #4D3225",
"6  c #4F3324",
"7  c #4F3625",
"8  c #4F3626",
"9  c #4F372B",
"0  c #4F382C",
"q  c #543320",
"w  c #523421",
"e  c #533623",
"r  c #553521",
"t  c #553621",
"y  c #543523",
"u  c #553723",
"i  c #533624",
"p  c #543624",
"a  c #553624",
"s  c #543625",
"d  c #553726",
"f  c #553824",
"g  c #563826",
"h  c #563926",
"j  c #5A3B27",
"k  c #503729",
"l  c #553A29",
"z  c #563B2B",
"x  c #50382C",
"c  c #563C2C",
"v  c #573C2D",
"b  c #573D2D",
"n  c #573D2E",
"m  c #573E2E",
"M  c #5A3C29",
"N  c #5B3C29",
"B  c #5A3F2C",
"V  c #5B3F2D",
"C  c #513B31",
"Z  c #523D31",
"A  c #533E33",
"S  c #573F30",
"D  c #533F34",
"F  c #523F35",
"G  c #533F35",
"H  c #5C412F",
"J  c #534037",
"K  c #534137",
"L  c #584132",
"P  c #594537",
"I  c #5A4436",
"U  c #5A4536",
"Y  c #5A4537",
"T  c #594637",
"R  c #5E4534",
"E  c #5F4737",
"W  c #534138",
"Q  c #54453C",
"!  c #5A4739",
"~  c #57483E",
"^  c #57483F",
"/  c #5B483B",
"(  c #5B493C",
")  c #5B4A3D",
"_  c #5C4A3E",
"`  c #5C4B3E",
"'  c #604939",
"]  c #5C4C40",
"[  c #5D4D41",
"{  c #5D4D42",
"}  c #5D4E42",
"|  c #5D4E43",
" . c #5A4E44",
".. c #5A4F45",
"X. c #5A4F46",
"o. c #5A4E48",
"O. c #5A4F49",
"+. c #5B4F49",
"@. c #5A5045",
"#. c #5B5045",
"$. c #5A5046",
"%. c #5B5046",
"&. c #5B5146",
"*. c #5B5047",
"=. c #5B5147",
"-. c #5D5044",
";. c #5C5147",
":. c #5E5146",
">. c #5C5247",
",. c #5B5049",
"<. c #5B504A",
"1. c #5C5049",
"2. c #5C5149",
"3. c #5D5149",
"4. c #5D5349",
"5. c #5F5349",
"6. c #5C504A",
"7. c #5C514A",
"8. c #5D514A",
"9. c #5C514B",
"0. c #5D524A",
"q. c #5D534A",
"w. c #5C524B",
"e. c #5D524B",
"r. c #5D534B",
"t. c #5E5449",
"y. c #5D544A",
"u. c #5D544B",
"i. c #5E544B",
"p. c #5F544B",
"a. c #5E554B",
"s. c #5D524C",
"d. c #5D534C",
"f. c #5D534D",
"g. c #5E534C",
"h. c #5E534D",
"j. c #5E544C",
"k. c #5E554C",
"l. c #5F554C",
"z. c #5E544D",
"x. c #5E554D",
"c. c #5F554D",
"v. c #5F564D",
"b. c #5E544E",
"n. c #5E554E",
"m. c #5F554E",
"M. c #5F554F",
"N. c #5F564E",
"B. c #5F564F",
"V. c #675240",
"C. c #645444",
"Z. c #655444",
"A. c #665444",
"S. c #61564B",
"D. c #60554C",
"F. c #60564D",
"G. c #60564E",
"H. c #60574E",
"J. c #61574E",
"K. c #60564F",
"L. c #61564F",
"P. c #60574F",
"I. c #61574F",
"U. c #60584F",
"Y. c #605650",
"T. c #605750",
"R. c #615850",
"E. c #635B53",
"W. c #635C54",
"Q. c #645C54",
"!. c #645D54",
"~. c #645D55",
"^. c #645E55",
"/. c #655E55",
"(. c #665E55",
"). c #655D56",
"_. c #655E56",
"`. c #655F56",
"'. c #665E57",
"]. c #665F57",
"[. c #685F56",
"{. c #695F57",
"}. c #665F58",
"|. c #666057",
" X c #666157",
".X c #666058",
"XX c #676058",
"oX c #666158",
"OX c #676158",
"+X c #676159",
"@X c #676259",
"#X c #68625A",
"$X c #69625A",
"%X c #68635A",
"&X c #69635A",
"*X c #69635B",
"=X c #69645A",
"-X c #69645B",
";X c #69645C",
":X c #6A645C",
">X c #6A655C",
",X c #6B665D",
"<X c #6B675D",
"1X c #6B675E",
"2X c #6C665E",
"3X c #6C675E",
"4X c #6D675E",
"5X c #6C675F",
"6X c #6D675F",
"7X c #6C685E",
"8X c #6C685F",
"9X c #6D685F",
"0X c #6D695F",
"qX c #6D6960",
"wX c #6E6860",
"eX c #6E6960",
"rX c #6E6A60",
"tX c #6F6A61",
"yX c #6F6B61",
"uX c #706B62",
"iX c #726A63",
"pX c #767469",
"aX c #827F74",
"sX c #828074",
"dX c #838074",
"fX c #828175",
"gX c #838175",
"hX c #848276",
"jX c #848277",
"kX c #848377",
"lX c #858377",
"zX c #858478",
"xX c #868478",
"cX c #868579",
"vX c #86847B",
"bX c #8A867F",
"nX c #8A8680",
"mX c #8B8780",
"MX c #8B8781",
"NX c #8C8881",
"BX c #8C8982",
"VX c #8E8A83",
"CX c #8F8C85",
"ZX c #8F8D86",
"AX c #918E87",
"SX c #918E88",
"DX c #918F88",
"FX c #929089",
"GX c #93918A",
"HX c #94918A",
"JX c #94928B",
"KX c None",
/* pixels */
"KXKXKXKXKXKXKXKXKXKXKXKXKXKXKXKXKXKXKXKXKXKXKXKXKXKXKXKXKXKXKXKXKXKXKXKXKXKXKXKXKXKXKXKXKXKXKXKXKXKXKXKXKXKXKXKXKXKXKXKXKXKXKXKX",
"KXKXKXKXKXKXKXKXKXKXKXKXKXKXKXKXKXKXKXKXKXKXKXKXKXKXKXKXKXKXKXKXKXKXKXKXKXKXKXKXKXKXKXKXKXKXKXKXKXKXKXKXKXKXKXKXKXKXKXKXKXKXKXKX",
"KXKXKXKXKXKXKXKXKXKXKXKXKXKXKXKXKXKXKXKXKXKXKXKXKXKXKXKXKXKXKXKXKXKXKXKXKXKXKXKXKXKXKXKXKXKXKXKXKXKXKXKXKXKXKXKXKXKXKXKXKXKXKXKX",
"KXKXKXKXKXKXKXKXKXKXKXKXKXKXKXKXKXKXKXKXKXKXKXKXKXKXKXKXKXKXKXKXKXKXKXKXKXKXKXKXKXKXKXKXKXKXKXKXKXKXKXKXKXKXKXKXKXKXKXKXKXKXKXKX",
"KXKXKXKXKXKXKXKXKXKXKXKXKXKXKXKXKXKXKXKXKXKXKXKXKXKXKXKXKXKXKXKXKXKXKXKXKXKXKXKXKXKXKXKXKXKXKXKXKXKXKXKXKXKXKXKXKXKXKXKXKXKXKXKX",
"KXKXKXKXKXKXKXKXKXKXKXKXKXKXKXKXKXKXKXKXKXKXKXKXKXKXKXKXKXKXKXKXKXKXKXKXKXKXKXKXKXKXKXKXKXKXKXKXKXKXKXKXKXKXKXKXKXKXKXKXKXKXKXKX",
"KXKXKXKXKXKXKXKXKXKXKXKXKXKXKXKXKXKXKXKXKXKXKXKXKXKXKXKXKXKXKXKXKXKXKXKXKXKXKXKXKXKXKXKXKXKXKXKXKXKXKXKXKXKXKXKXKXKXKXKXKXKXKXKX",
"KXKXKXKXKXKXKXKXKXKXKXKXKXKXKXKXKXKXKXKXKXKXKXKXKXKXKXKXKXKXKXKXKXKXKXKXKXKXKXKXKXKXKXKXKXKXKXKXKXKXKXKXKXKXKXKXKXKXKXKXKXKXKXKX",
"KXKXKXKXKXKXKXKXKXKXKXKXKXKXKXKXKXKXKXKXKXKXKXKXKXKXKXKXKXKXKXKXKXKXKXKXKXKXKXKXKXKXKXKXKXKXKXKXKXKXKXKXKXKXKXKXKXKXKXKXKXKXKXKX",
"KXKXKXKXKXKXKXKXKXKXKXKXKXKXKXKXKXKXKXKXKXKXKXKXKXKXKXKXKXKXKXKXKXKXKXKXKXKXKXKXKXKXKXKXKXKXKXKXKXKXKXKXKXKXKXKXKXKXKXKXKXKXKXKX",
"KXKXKXKXKXKXKXKXKXKXKXKXKXKXKXKXKXKXKXKXKXKXKXKXKXKXKXKXKXKXKXKXKXKXKXKXKXKXKXKXKXKXKXKXKXKXKXKXKXKXKXKXKXKXKXKXKXKXKXKXKXKXKXKX",
"KXKXKXKXKXKXKXKXKXKXKXKXKXKXKXKXKXKXKXKXKXKXKXKXKXKXKXKXKXKXKXKXKXKXKXKXKXKXKXKXKXKXKXKXKXKXKXKXKXKXKXKXKXKXKXKXKXKXKXKXKXKXKXKX",
"KXKXKXKXKXKXKXKXKXKXKXKXKXKXKXKXKXKXKXKXKXKXKXKXKXKXKXKXKXKXKXKXKXKXKXKXKXKXKXKXKXKXKXKXKXKXKXKXKXKXKXKXKXKXKXKXKXKXKXKXKXKXKXKX",
"KXKXKXKXKXKXKXKXKXKXKXKXKXKXKXKXKXKXKXKXKXKXKXKXKXKXKXKXKXKXKXKXKXKXKXKXKXKXKXKXKXKXKXKXKXKXKXKXKXKXKXKXKXKXKXKXKXKXKXKXKXKXKXKX",
"KXKXKXKXKXKXKXKXKXKXKXKXKXKXKXKXKXKXKXKXKXKXKXKXKXKXKXKXKXKXKXKXKXKXKXKXKXKXKXKXKXKXKXKXKXKXKXKXKXKXKXKXKXKXKXKXKXKXKXKXKXKXKXKX",
"KXKXKXKXKXKXKXKXKXKXKXKXKXKXKXKXKXKXKXKXKXKXKXKXKXKXKXKXKXKXKXKXKXKXKXKXKXKXKXKXKXKXKXKXKXKXKXKXKXKXKXKXKXKXKXKXKXKXKXKXKXKXKXKX",
"KXKXKXKXKXKXKXKXKXKXKXKXKXKXKXKXKXKXKXKXKXKXKXKXKXKXKXKXKXKXKXKXKXKXKXKXKXKXKXKXKXKXKXKXKXKXKXKXKXKXKXKXKXKXKXKXKXKXKXKXKXKXKXKX",
"KXKXKXKXKXKXKXKXKXKXKXKXKXKXKXKXKXKXKXKXKXKXKXKXKXKXKXKXKXKXKXKXKXKXKXKXKXKXKXKXKXKXKXKXKXKXKXKXKXKXKXKXKXKXKXKXKXKXKXKXKXKXKXKX",
"KXKXKXKXKXKXKXKXKXKXKXKXKXKXKXKXKXKXKXKXKXKXKXKXKXKXKXKXKXKXKXKXKXKXKXKXKXKXKXKXKXKXKXKXKXKXKXKXKXKXKXKXKXKXKXKXKXKXKXKXKXKXKXKX",
"KXKXKXKXKXKXKXKXKXKXKXKXKXKXKXKXKXKXKXKXKXKXKXKXKXKXKXKXKXKXKXKXKXKXKXKXKXKXKXKXKXKXKXKXKXKXKXKXKXKXKXKXKXKXKXKXKXKXKXKXKXKXKXKX",
"KXKXKXKXKXKXKXKXKXKXKXKXKXKXKXKXKXj j j j j j j j j j j j j j j j j j j j j A.j j j j j j j j j j j j j j j j j j j j j j j j j ",
"KXKXKXKXKXKXKXKXKXKXKXKXKXKXKXKXj cXcXcXcXcXcXcXcXcXcXcXcXcXcXcXcXcXcXcXcXcX. cXcXcXcXcXcXcXcXcXcXcXcXcXcXcXcXcXcXcXcXcXcXcXcXcX",
"KXKXKXKXKXKXKXKXKXKXKXKXKXKXKXj cXcXcXcXcXcXcXcXcXcXcXcXcXcXcXcXcXcXcXcXcXcX. cXcXcXcXcXcXcXcXcXcXcXcXcXcXcXcXcXcXcXcXcXcXcXcXcX",
"KXKXKXKXKXKXKXKXKXKXKXKXKXKXKXj cXcXcXcXcXcXcXcXcXcXcXcXcXcXcXcXcXcXcXcXcXcXA.cXcXcXcXcXcXcXcXcXcXcXcXcXcXcXcXcXcXcXcXcXcXcXcXcX",
"KXKXKXKXKXKXKXKXKXKXKXKXKXKXKXN cXcXcXcXcXcXJXJXJXJXJXJXJXJXJXJXJXJXJXJXJXJXA.JXJXJXJXJXJXJXJXJXJXJXJXJXJXJXJXJXJXJXJXDXDXDXDXDX",
"KXKXKXKXKXKXKXKXKXKXKXKXKXKXKXN cXcXcXcXcXJXE I.uXuXuXyXrXrX0X0X9X9X9X9X9X0XB uXuXuXuXuXuXuXuXyXyXtXrXrXrX0X0X0X0X0X9X9X9X9X9X9X",
"KXKXKXKXKXKXKXKXKXKXKXKXKXKXKXN cXcXcXcXcXJX' I.yXyXtXtXeX0X9X9X9X9X9X9X9X9XB yXyXyXyXyXyXtXtXtXtXrXeXeX0X9X9X9X9X9X9X9X9X9X9X9X",
"KXKXKXKXKXKXKXKXKXKXKXKXKXKXKXN cXcXcXcXcXJXR L.rXrXeXeX0X0X9X9X9X9X9X9X7X7XB tXtXtXrXrXrXeXeXeXeXeX0X0X0X9X9X9X9X9X9X9X9X9X9X7X",
"KXKXKXKXKXKXKXKXKXKXKXKXKXKXKXN cXcXcXcXcXJXR P.I.eXeXeX0X9X7X7X7X7X7X7X7X7XB rXrXeXeXeXeXeXeXeXeXeX0X0X9X9X9X7X7X7X7X7X7X7X7X7X",
"KXKXKXKXKXKXKXKXKXKXKXKXKXKXKXN JXJXJXJXJXJXR J.J.qXwX8X7X3X3X3X3X3X3X3X3X3XB eXeXeXeXeXqXwXwX8X8X7X7X7X3X3X3X3X3X3X3X3X3X3X3X3X",
"KXKXKXKXKXKXKXKXKXKXKXKXKXKXKXN . Z.Z.Z.Z.. H F.G.3X3X7X3X3X,X,X,X,X,X,X,X,XB 9X9X9X6X6X3X3X3X7X7X7X3X3X3X<X<X,X,X,X,X,X,X,X,X,X",
"KXKXKXKXKXKXKXKXKXKXKXKXKXKXKXN cXcXcXcXcXJXV c.c.2X,X,X,X>X>X>X>X>X>X>X>X>XB 2X2X2X2X2X2X,X,X,X,X,X,X,X>X>X>X>X>X>X>X>X>X>X>X>X",
"KXKXKXKXKXKXKXKXKXKXKXKXKXKXKXN cXcXcXcXcXJXM l.c.c.>X>X>X>X>X>X>X>X>X>X>X>XB :X:X:X>X>X>X>X>X>X>X>X>X>X>X>X>X>X>X>X>X>X>X>X>X>X",
"KXKXKXKXKXKXKXKXKXKXKXKXKXKXKXN cXcXcXcXcXJX& j.j.k.=X-X&X&X=X:X-X-X-X-X-X-XB -X-X-X-X-X-X-X-X-X-X-X-X-X-X-X-X-X-X:X-X-X-X-X-X-X",
"KXKXKXKXKXKXKXKXKXKXKXKXKXKXKXN cXcXcXcXcXGX- r.u.i.#X#X#X#X#X#X$X&X*X*X*X*XB #X#X#X#X#X%X*X*X*X*X*X*X*X*X*X*X*X*X*X*X*X*X*X*X*X",
"KXKXKXKXKXKXKXKXKXKXKXKXKXKXKXN cXcXcXcXcXGX- 0.e.r.r.|.|.].|. XoXoXOX#X@X#XB +X+X@X+X+X@X@X@X@X@X@X@X@X+X@X@X@X@X@X@X@X@X@X#X@X",
"KXKXKXKXKXKXKXKXKXKXKXKXKXKXKXN cXcXcXcXzXFX> 8.0.0.0._._._.`.`.]..X.XOX+X+X. +X+X+X+X+X+X+X+X+X+X+X+X+X+X+X+X+X+X+X+X+X+X+X+X+X",
"KXKXKXKXKXKXKXKXKXKXKXKXKXKXKXN cXcXcXzXzXSX< 7.2.3.3.~.~.~.^./.`.]..X.X+X+X. +X+X+X+X+X+X+X+X+X+X+X+X+X+X+X+X+X+X+X+X+X+X+X+X+X",
"KXKXKXKXKXKXKXKXKXKXKXKXKXKXKXN cXcXcXzXhXCXt O 1 2 3 6 i i e w = * $ @ + X . . . . . . . . . . . . . . . . . . . . . . . . . . ",
"KXKXKXKXKXKXKXKXKXKXKXKXKXKXKXN cXcXxXzXgXVXu  ...#.#.>.>.>.>.>.>.>.>.>.>.>.>.>.>.>.>.t.>.>.% >.>.>.>.>.>.>.>.>.>.>.>.>.>.>.>.>.",
"KXKXKXKXKXKXKXKXKXKXKXKXKXKXKXN cXcXxXkXfXNXf @.#.#.%.>.>.>.>.>.>.>.>.>.>.>.>.>.>.>.>.>.>.>.% 4.>.>.>.>.>.>.>.>.>.>.>.>.>.>.>.>.",
"KXKXKXKXKXKXKXKXKXKXKXKXKXKXKXN cXcXzXhXdXMXh @.%.%.=.&.>.>.>.>.>.>.>.>.>.>.>.>.>.>.>.>.y.>.7 4.>.>.>.>.>.>.>.>.>.>.>.>.>.>.>.>.",
"KXKXKXKXKXKXKXKXKXKXKXKXKXKXKXN cXcXlXhXsXbXh $.*.*.*.=.;.>.>.>.>.>.>.>.>.>.>.>.>.>.>.>.y.>.7 >.>.>.>.>.>.>.>.>.>.>.>.>.>.>.>.>.",
"KXKXKXKXKXKXKXKXKXKXKXKXKXKXKXN cXcXlXjXaXnXh $.*.*.*.*.;.>.>.>.>.>.>.>.>.>.>.>.>.>.>.>.y.y.8 4.>.>.>.>.>.>.>.>.>.>.>.>.>.>.>.>.",
"KXKXKXKXKXKXKXKXKXKXKXKXKXKXKXN cXcXzXjXsXmXh ..X.$.$.$.;.>.>.>.>.>.>.>.>.>.>.>.>.>.>.>.y.y.8 4.>.>.>.>.>.>.>.>.>.>.>.>.>.>.>.>.",
"KXKXKXKXKXKXKXKXKXKXKXKXKXKXKXN BXBXBXBXBXBXg +.+.,.,.,.,.E.W.!./.]..X.X+X+X+X+X+X+X+X+X+X+XY +X+X+X+X+X+X+X+X+X+X+X+X+X+X+X+X+X",
"KXKXKXKXKXKXKXKXKXKXKXKXKXKXKXN . Z.Z.Z.C.# a +.+.+.+.,.,.Q.~._.'..X.X+X+X+X+X+X+X+X+X+X+X+X! +X+X+X+X+X+X+X+X+X+X+X+X+X+X+X+X+X",
"KXKXKXKXKXKXKXKXKXKXKXKXKXKXKXN cXcXcXzXkXZXr Z A D G D k c l T P :.:.:.:.:.:.:.:.:.:.I U U U U :.:.:.:.:.:.:.:.:.:.:.:.[ [ [ :.",
"KXKXKXKXKXKXKXKXKXKXKXKXKXKXKXN cXcXcXzXzXAXq j.i.i.i.a.a.4 ,X,X3X4X9X9X9X9X9X9X9X9X9X9X9X9X9X9X9X9X9X9X9X9X9X9X9X9X9X9X9X[ 5X5X",
"KXKXKXKXKXKXKXKXKXKXKXKXKXKXKXN cXcXcXcXzXFX, 2.2.7.0.q.r.o XX+X+X+X+X+X+X+X+X+X+X+X+X+X+X+X+X+X+X+X+X+X+X+X+X+X+X+X+X+X+X[ +X+X",
"KXKXKXKXKXKXKXKXKXKXKXKXKXKXKXN cXcXcXcXzXGX: 2.2.0.0.r.r.0 +X+X+X+X+X+X+X+X+X+X+X+X+X+X+X+X+X+X+X+X+X+X+X+X+X+X+X+X+X+X+X[ +X+X",
"KXKXKXKXKXKXKXKXKXKXKXKXKXKXKXN cXcXcXcXcXHX; 1.7.0.r.r.g.Q +X+X+X+X+X+X+X+X+X+X+X+X+X+X+X+X+X+X+X+X+X+X+X+X+X+X+X+X+X+X+X[ +X+X",
"KXKXKXKXKXKXKXKXKXKXKXKXKXKXKXN cXcXcXcXcXJX- 1.7.0.r.d.j.Q m.+X+X+X+X+X+X+X+X+X+X+X+X+X+X+X+X+X+X+X+X+X+X+X+X+X+X+X+X+X+X[ +X+X",
"KXKXKXKXKXKXKXKXKXKXKXKXKXKXKXN cXcXcXcXcXJX- 1.7.e.r.d.j.Q m.+X+X+X+X+X+X+X+X+X+X+X+X+X+X+X+X+X+X+X+X+X+X+X+X+X+X+X+X+X+X[ +X+X",
"KXKXKXKXKXKXKXKXKXKXKXKXKXKXKXN cXcXcXcXcXJX- 1.7.e.r.r.j.Q m.+X+X+X+X+X+X+X+X+X+X+X+X+X+X+X+X+X+X+X+X+X+X+X+X+X+X+X+X+X+XL +X+X",
"KXKXKXKXKXKXKXKXKXKXKXKXKXKXKXN cXcXcXcXcXJX- 6.7.8.e.g.j.Q b.b.+X+X+X+X+X+X+X+X+X+X+X+X+X+X+X+X+X+X+X+X+X+X+X+X+X+X+X+X+XS +X+X",
"KXKXKXKXKXKXKXKXKXKXKXKXKXKXKXN cXcXcXcXcXJX- J J J J J J J J J { { { { { { { { { { } } } P n z z z ] ) ( ( / / / / v v p y d v ",
"KXKXKXKXKXKXKXKXKXKXKXKXKXKXKXN cXcXcXcXcXJX- j.j.x.N.G.P.T.R.R.1X1X1X1X1X1X3X3X3X5X5X5X5X5X5Xs 5X5X5X5X5X;X;X;X;X;X;X;X;X;X;X;X",
"KXKXKXKXKXKXKXKXKXKXKXKXKXKXKXN cXcXcXcXcXJX- o.+.<.9.d.h.n.M.M.}.}.}.}.}.}.}.}.}.}.}.}.}.}.}.s }.}.}.}.}.}.}.}.}.}.}.}.}.}.}.}.",
"KXKXKXKXKXKXKXKXKXKXKXKXKXKXKXN cXcXcXcXcXJX- O.+.6.9.f.b.M.B.K.K.}.}.}.}.}.}.}.}.}.}.}.}.}.}._ }.}.}.}.}.}.}.}.}.}.}.}.}.}.}.}.",
"KXKXKXKXKXKXKXKXKXKXKXKXKXKXKXN cXcXcXcXcXJX- O.,.7.e.h.n.M.K.T.T.}.}.}.}.}.}.}.}.}.}.}.}.}.}.5.}.}.}.}.}.}.}.}.}.}.}.}.}.}.}.}.",
"KXKXKXKXKXKXKXKXKXKXKXKXKXKXKXN cXcXcXcXcXJX- O.,.6.e.h.b.B.Y.Y.T.}.}.}.}.}.}.}.}.}.}.}.}.}.}.5.}.}.}.}.}.}.}.}.}.}.}.}.}.}.}.}.",
"KXKXKXKXKXKXKXKXKXKXKXKXKXKXKXN JXJXJXJXJXJX- o.,.6.9.g.b.m.K.Y.Y.Y.}.}.}.}.}.}.}.}.}.}.}.}.}.5.}.}.}.}.}.}.}.}.}.}.}.}.}.}.}.}.",
"KXKXKXKXKXKXKXKXKXKXKXKXKXKXKXN . Z.Z.Z.Z.. - o.O.6.7.s.h.b.m.B.K.K.}.}.}.}.}.}.}.}.}.}.}.}.}.5.}.}.}.}.}.}.}.}.}.}.}.}.}.}.}.}.",
"KXKXKXKXKXKXKXKXKXKXKXKXKXKXKXN cXcXcXcXcXJX- o.o.<.6.w.s.h.b.b.b.V.}.}.}.}.}.}.}.}.}.}.}.}.}.5.}.}.}.}.}.}.}.}.}.}.).}.}.}.}.}.",
"KXKXKXKXKXKXKXKXKXKXKXKXKXKXKXN cXcXcXcXcXJX- 9 F K W 5 5 5 5 x x W | | | | | } | 5.5.5.5.5.5.5.5.5.5.5.5.5.5.5.5.5.` ` ( ` ` -.",
"KXKXKXKXKXKXKXKXKXKXKXKXKXKXKXN cXcXcXcXcXJX- z.z.z.z.z.z.5 B.B.K.K.B.5X5X5X5X5X5X5X5X5X5X5X5X5X5X5X5X5X5X5X5X5X5X5X5X5X5X` 5X5X",
"KXKXKXKXKXKXKXKXKXKXKXKXKXKXKXN cXcXcXcXcXJX- o.o.o.o.o.o.5 9.e.s.s.e.}.}.}.}.}.}.}.}.}.}.}.}.}.}.}.}.}.}.}.}.}.}.}.}.}.}.` }.}.",
"KXKXKXKXKXKXKXKXKXKXKXKXKXKXKXN cXcXcXcXcXJX- o.o.o.o.o.o.C w.s.s.s.s.}.}.}.}.}.}.}.}.}.}.}.}.}.}.}.}.}.}.}.}.}.}.}.}.}.}.` }.}.",
"KXKXKXKXKXKXKXKXKXKXKXKXKXKXKXN cXcXcXcXcXJX- o.o.o.o.o.o.Q e.s.s.s.s.s.}.}.}.}.}.}.}.}.}.}.}.}.}.}.}.}.}.}.}.}.}.}.}.}.}.:.}.}.",
"KXKXKXKXKXKXKXKXKXKXKXKXKXKXKXN cXcXcXcXcXJX- o.o.o.o.o.o.Q 9.s.s.s.s.s.}.}.}.}.}.}.}.}.}.}.}.}.}.}.}.}.}.}.}.}.}.}.}.}.}.5.}.}.",
"KXKXKXKXKXKXKXKXKXKXKXKXKXKXKXN cXcXcXcXcXJX- o.o.o.o.o.o.9 9.e.s.s.s.s.}.}.}.}.}.}.}.}.}.}.}.}.}.}.}.}.}.}.}.}.}.}.}.}.}.L }.}.",
"KXKXKXKXKXKXKXKXKXKXKXKXKXKXKXN cXcXcXcXcXJX- o.o.o.o.o.o.9 9.9.9.9.w.e.}.}.}.}.}.}.}.}.}.}.}.}.}.}.}.}.}.}.}.}.}.}.}.}.}.b }.}.",
"KXKXKXKXKXKXKXKXKXKXKXKXKXKXKXN cXcXcXcXcXJX- o.o.o.o.o.o.9 <.6.9.9.9.9.9.}.}.}.}.}.}.}.}.}.}.}.}.}.}.}.}.}.}.}.}.}.}.}.}.m }.}.",
"KXKXKXKXKXKXKXKXKXKXKXKXKXKXKXN cXcXcXcXcXJX-                             . . S.. . . . . . . . . . . . . . . . . . . . . . . . ",
"KXKXKXKXKXKXKXKXKXKXKXKXKXKXKXN cXcXcXcXcXJX- p.D.(.(.(.(.(.(.(.(.(.(.(.(.pXpX. pXpXpXpXpXpXpXpXpXpXpXpXpXpXpXpXpXpXpXpXpXpXpXpX",
"KXKXKXKXKXKXKXKXKXKXKXKXKXKXKXN cXcXcXcXcXJX- p.p.(.(.(.(.(.(.(.(.(.(.(.(.pXpXZ.pXpXpXpXpXpXpXpXpXpXpXpXpXpXpXpXpXpXpXpXpXpXpXpX",
"KXKXKXKXKXKXKXKXKXKXKXKXKXKXKXN JXJXJXJXJXJX- D.p.(.(.(.(.(.(.(.(.(.(.(.(.pXpXZ.pXpXpXpXpXpXpXpXpXpXpXpXpXpXpXpXpXpXpXpXpXpXpXpX",
"KXKXKXKXKXKXKXKXKXKXKXKXKXKXKXN . Z.Z.Z.Z.. - D.D.(.(.(.(.(.(.(.(.(.(.(.(.pXpXZ.pXpXpXpXpXpXpXpXpXpXpXpXpXpXpXpXpXpXpXpXpXpXpXpX",
"KXKXKXKXKXKXKXKXKXKXKXKXKXKXKXN cXcXcXcXcXJX- [.{.iXiXiXiXiXiXiXiXiXiXiXiXvXvXZ.vXvXvXvXvXvXvXvXvXvXvXvXvXvXvXvXvXvXvXvXvXvXvXvX",
"KXKXKXKXKXKXKXKXKXKXKXKXKXKXKXN cXcXcXcXcXJX- ^ ^ u.k.v.N.H.U.U.U.U.U.U.U.|.|.Z.|.|.|.|.|.|.|.|.|.|.|.|.|.|.|.|.|.|.|.|.|.|.|.|.",
"KXKXKXKXKXKXKXKXKXKXKXKXKXKXKXN cXcXcXcXcXJX- ^ ^ u.k.N.H.H.U.U.U.U.U.U.U.|.|.Z.|.|.|.|.|.|.|.|.|.|.|.|.|.|.|.|.|.|.|.|.|.|.|.|.",
"KXKXKXKXKXKXKXKXKXKXKXKXKXKXKXN cXcXcXcXcXJX- ^ ~ u.k.v.H.P.U.U.U.U.U.U.U.|.|.. |.|.|.|.|.|.|.|.|.|.|.|.|.|.|.|.|.|.|.|.|.|.|.|.",
"KXKXKXKXKXKXKXKXKXKXKXKXKXKXKXN cXcXcXcXcXJX- . . . . . . . . . . . . . . . . . . . . . . . . . . . . . . . . . . . . . . . . . ",
"KXKXKXKXKXKXKXKXKXKXKXKXKXKXKXN cXcXcXcXcXJX- KXKXKXKXKXKXKXKXKXKXKXKXKXKXKXKXKXKXKXKXKXKXKXKXKXKXKXKXKXKXKXKXKXKXKXKXKXKXKXKXKX",
"KXKXKXKXKXKXKXKXKXKXKXKXKXKXKXN cXcXcXcXcXJX- KXKXKXKXKXKXKXKXKXKXKXKXKXKXKXKXKXKXKXKXKXKXKXKXKXKXKXKXKXKXKXKXKXKXKXKXKXKXKXKXKX",
"KXKXKXKXKXKXKXKXKXKXKXKXKXKXKXN cXcXcXcXcXJX- KXKXKXKXKXKXKXKXKXKXKXKXKXKXKXKXKXKXKXKXKXKXKXKXKXKXKXKXKXKXKXKXKXKXKXKXKXKXKXKXKX",
"KXKXKXKXKXKXKXKXKXKXKXKXKXKXKXN cXcXcXcXcXJX- KXKXKXKXKXKXKXKXKXKXKXKXKXKXKXKXKXKXKXKXKXKXKXKXKXKXKXKXKXKXKXKXKXKXKXKXKXKXKXKXKX",
"KXKXKXKXKXKXKXKXKXKXKXKXKXKXKXN cXcXcXcXcXJX- KXKXKXKXKXKXKXKXKXKXKXKXKXKXKXKXKXKXKXKXKXKXKXKXKXKXKXKXKXKXKXKXKXKXKXKXKXKXKXKXKX",
"KXKXKXKXKXKXKXKXKXKXKXKXKXKXKXN cXcXcXcXcXJX- KXKXKXKXKXKXKXKXKXKXKXKXKXKXKXKXKXKXKXKXKXKXKXKXKXKXKXKXKXKXKXKXKXKXKXKXKXKXKXKXKX",
"KXKXKXKXKXKXKXKXKXKXKXKXKXKXKXN cXcXcXcXcXJX- KXKXKXKXKXKXKXKXKXKXKXKXKXKXKXKXKXKXKXKXKXKXKXKXKXKXKXKXKXKXKXKXKXKXKXKXKXKXKXKXKX",
"KXKXKXKXKXKXKXKXKXKXKXKXKXKXKXN cXcXcXcXcXJX- KXKXKXKXKXKXKXKXKXKXKXKXKXKXKXKXKXKXKXKXKXKXKXKXKXKXKXKXKXKXKXKXKXKXKXKXKXKXKXKXKX",
"KXKXKXKXKXKXKXKXKXKXKXKXKXKXKXN cXcXcXcXcXJX- KXKXKXKXKXKXKXKXKXKXKXKXKXKXKXKXKXKXKXKXKXKXKXKXKXKXKXKXKXKXKXKXKXKXKXKXKXKXKXKXKX",
"KXKXKXKXKXKXKXKXKXKXKXKXKXKXKXN cXcXcXcXcXJX- KXKXKXKXKXKXKXKXKXKXKXKXKXKXKXKXKXKXKXKXKXKXKXKXKXKXKXKXKXKXKXKXKXKXKXKXKXKXKXKXKX"
};
