/* XPM */
static char *result[] = {
/* columns rows colors chars-per-pixel */
"64 94 91 1 ",
"  c #4E2812",
". c #4F2913",
"X c #4F311E",
"o c #53311C",
"O c #53321E",
"+ c #4F3625",
"@ c #553621",
"# c #543523",
"$ c #553622",
"% c #543623",
"& c #553723",
"* c #543624",
"= c #543725",
"- c #553725",
"; c #553826",
": c #573A27",
"> c #5A3B27",
", c #563B2A",
"< c #563B2B",
"1 c #563C2C",
"2 c #573D2D",
"3 c #5A3C28",
"4 c #5B3C29",
"5 c #503D30",
"6 c #5A412E",
"7 c #5A422F",
"8 c #5C402D",
"9 c #584031",
"0 c #5A4230",
"q c #5B4330",
"w c #5B4231",
"e c #584132",
"r c #594233",
"t c #584234",
"y c #594334",
"u c #5B473A",
"i c #5B493C",
"p c #5C493D",
"a c #5C4B3F",
"s c #5C4B40",
"d c #5C4D41",
"f c #5D4D42",
"g c #5E4F44",
"h c #5E4F45",
"j c #5C5147",
"k c #5C5247",
"l c #5D5248",
"z c #5D5348",
"x c #5F5349",
"c c #5D5449",
"v c #655444",
"b c #665444",
"n c #61564B",
"m c #63584D",
"M c #655C55",
"N c #655D56",
"B c #655F57",
"V c #665F58",
"C c #666057",
"Z c #676159",
"A c #676259",
"S c #68625A",
"D c #68635A",
"F c #69635B",
"G c #69645B",
"H c #6A645C",
"J c #6A655C",
"K c #6B655D",
"L c #6A665C",
"P c #6B665D",
"I c #6B675D",
"U c #6C665E",
"Y c #6C675E",
"T c #6C675F",
"R c #6C685E",
"E c #6D685F",
"W c #6D695F",
"Q c #767469",
"! c #868579",
"~ c #86847B",
"^ c #8B8A7F",
"/ c #8E8C83",
"( c #8E8D84",
") c #8F8D84",
"_ c #8F8D85",
"` c #8F8E85",
"' c #908E86",
"] c #908F86",
"[ c #94928B",
"{ c #99978F",
"} c None",
/* pixels */
"}}}}}}}}}}}}}}}}}}}}}}}}}}}}}}}}}}}}}}}}}}}}}}}}}}}}}}}}}}}}}}}}",
"}}}}}}}}}}}}}}}}}}}}}}}}}}}}}}}}}}}}}}}}}}}}}}}}}}}}}}}}}}}}}}}}",
"}}}}}}}}}}}}}}}}}}}}}}}}}}}}}}}}}}}}}}}}}}}}}}}}}}}}}}}}}}}}}}}}",
"}}}}}}}}}}}}}}}}}}}}}}}}}}}}}}}}}}}}}}}}}}}}}}}}}}}}}}}}}}}}}}}}",
"}}}}}}}}}}}}}}}}}}}}}}}}}}}}}}}}}}}}}}}}}}}}}}}}}}}}}}}}}}}}}}}}",
"}}}}}}}}}}}}}}}}}}}}}}}}}}}}}}}}}}}}}}}}}}}}}}}}}}}}}}}}}}}}}}}}",
"}}}}}}}}}}}}}}}}}}}}}}}}}}}}}}}}}}}}}}}}}}}}}}}}}}}}}}}}}}}}}}}}",
"}}}}}}}}}}}}}}}}}}}}}}}}}}}}}}}}}}}}}}}}}}}}}}}}}}}}}}}}}}}}}}}}",
"}}}}}}}}}}}}}}}}}}}}}}}}}}}}}}}}}}}}}}}}}}}}}}}}}}}}}}}}}}}}}}}}",
"}}}}}}}}}}}}}}}}}}}}}}}}}}}}}}}}}}}}}}}}}}}}}}}}}}}}}}}}}}}}}}}}",
"}}}}}}}}}}}}}}}}}}}}}}}}}}}}}}}}}}}}}}}}}}}}}}}}}}}}}}}}}}}}}}}}",
"}}}}}}}}}}}}}}}}}}}}}}}}}}}}}}}}}}}}}}}}}}}}}}}}}}}}}}}}}}}}}}}}",
"}}}}}}}}}}}}}}}}}}}}}}}}}}}}}}}}}}}}}}}}}}}}}}}}}}}}}}}}}}}}}}}}",
"}}}}}}}}}}}}}}}}}}}}}}}}}}}}}}}}}}}}}}}}}}}}}}}}}}}}}}}}}}}}}}}}",
"}}}}}}}}}}}}}}}}}}}}}}}}}}}}}}}}}}}}}}}}}}}}}}}}}}}}}}}}}}}}}}}}",
"}}}}}}}}}}}}}}}}}}}}}}}}}}}}}}}}}}}}}}}}}}}}}}}}}}}}}}}}}}}}}}}}",
"}}}}}}}}}}}}}}}}}}}}}}}}}}}}}}}}}}}}}}}}}}}}}}}}}}}}}}}}}}}}}}}}",
"}}}}}}}}}}}}}}}}}}}}}}}}}}}}}}}}}}}}}}}}}}}}}}}}}}}}}}}}}}}}}}}}",
"}}}}}}}}}}}}}}}}}}}}}}}}}}}}}}}}}}}}}}}}}}}}}}}}}}}}}}}}}}}}}}}}",
"}}}}}}}}}}}}}}}}}}}}}}}}}}}}}}}}}}}}}}}}}}}}}}}}}}}}}}}}}}}}}}}}",
">>>>>>>>>>>>>>>>>>>>>>>>>b>>>>>>>>>>>>>>>>>>>>>}}}}}}}}}}}}}}}}}",
"!!!!!!!!!!!!!!!!!!!!!!!!^3^!!!!!!!!!!!!!!!!!!!!>}}}}}}}}}}}}}}}}",
"!!!!!!!!!!!!!!!!!!!!!!!!^8^!!!!!!!!!!!!!!!!!!!!!>}}}}}}}}}}}}}}}",
"!!!!!!!!!!!!!!!!!!!!!!!!^b^!!!!!!!!!!!!!!!!!!!!!>}}}}}}}}}}}}}}}",
"[[[[[[[[[[[[[[[[[[[[[[{{{b{{{[[[[[[[[[[[[[!!!!!!>}}}}}}}}}}}}}}}",
"EEEYRRRRWWWWWEEEERRREEEEEwEEEYRRRWWEEEEEW6[!!!!!>}}}}}}}}}}}}}}}",
"EERYYYYYEEEEEEEEERRRRRRRRwYYYYYYYEEEEEEEEq[!!!!!>}}}}}}}}}}}}}}}",
"RRYYYYYYEEEEEEEEEYYYYYYIIwYYYYUUPEEEEEERR0[!!!!!4}}}}}}}}}}}}}}}",
"IYYYYYUPEERRRRRRRPPPPPPPPwPPPPPPPRRRRRRRR0[!!!!!4}}}}}}}}}}}}}}}",
"PPPPPPPPYYYYYYYYYPPPPPPPPwPKKKKKJYYYYYYYY7[/)__`4}}}}}}}}}}}}}}}",
"KJJJJLLLIIPPPPPPPJKKKKKKKwJJJJJJJPPPPPPPP:.vvvv.4}}}}}}}}}}}}}}}",
"HHHHHJJJJJJJJJJJJGGGGGGJJwJJJJJJJJJJJJJJJ:[!!!!!4}}}}}}}}}}}}}}}",
"GGGGGGGGJJJJJJJJJGGGGGGJGOJJJJGGGJJJJJJJJ&[!!!!!4}}}}}}}}}}}}}}}",
"GGGGGGGGGGGGHGGGGGFGGGGGFOGGGFFFFGHGGGGGG$[!!!!!4}}}}}}}}}}}}}}}",
"DDDDDDDFFFFFFFFFFFFFFFFFFOFFFFFFFFFFFFFFF@[!!!!!4}}}}}}}}}}}}}}}",
"SSSDDSDDAAAAAAAAADDDDDFFFOFFFFFFFAAAAASASo[!!!!!4}}}}}}}}}}}}}}}",
"ZZZZZZZZZZZZZZZZZAAAAAASAOSSSSSSSZZZZZZZZ.[!!!!!4}}}}}}}}}}}}}}}",
"ZZZZZZZZZZZZZZZZZZZZZZZZZOZZZZZZZZZZZZZZZ.[!!!!!4}}}}}}}}}}}}}}}",
".........................z................[!!!!!4}}}}}}}}}}}}}}}",
"Xjjkllllllllllllllllllllllllllll5kkkkkkkk.[!!!!!4}}}}}}}}}}}}}}}",
"Xkklllllllllllllllllllllllllllll+kkkkkkkk.[!!!!!4}}}}}}}}}}}}}}}",
"Xkklllllllllllllllllllllllllllll+kkkkkkkk.[!!!!!4}}}}}}}}}}}}}}}",
"Xkkkllllllllllllllllllllllllllll+kkkkkkkk.[!!!!!4}}}}}}}}}}}}}}}",
"Xkkkllllllllllllllllllllllllllll+kkkkkkkk.[!!!!!4}}}}}}}}}}}}}}}",
"Xjjklllllllllllllllllllcllllllll+kkkkkkkk.[!!!!!4}}}}}}}}}}}}}}}",
"eZZZZZZZZZZZZZZZZZZZZZZZZZBBBBBBeZZZZZZZZ.[/(())4}}}}}}}}}}}}}}}",
"9ZZZZZZZZZZZZZZZZZZZZZZZZZBBBBBBeZZZZZZZZ..vvvv.4}}}}}}}}}}}}}}}",
"rtyxxxxxxxxxee=-eeeexxxxxxxxxxxeeeexxxxxx.[!!!!!4}}}}}}}}}}}}}}}",
"TTTTTTTTTTTTTTT*TTTTTTTTTTTTTTTTTTTTTTTTT.[!!!!!4}}}}}}}}}}}}}}}",
"ZZZZZZZZZZZZZZZ<ZZZZZZZZZZZZZZZZZZZZZZZZZ.[!!!!!4}}}}}}}}}}}}}}}",
"ZZZZZZZZZZZZZZZeZZZZZZZZZZZZZZZZZZZZZZZZZ.[!!!!!4}}}}}}}}}}}}}}}",
"ZZZZZZZZZZZZZZZxZZZZZZZZZZZZZZZZZZZZZZZZZ.[!!!!!4}}}}}}}}}}}}}}}",
"ZZZZZZZZZZZZZZZxZZZZZZZZZZZZZZZZZZZZZZZZZ.[!!!!!4}}}}}}}}}}}}}}}",
"ZZZZZZZZZZZZZZZxZZZZZZZZZZZZZZZZZZZZZZZZZ.[!!!!!4}}}}}}}}}}}}}}}",
"ZZZZZZZZZZZZZZZxZZZZZZZZZZZZZZZZZZZZZZZZZ.[!!!!!4}}}}}}}}}}}}}}}",
"ZZZZZZZZZZZZZZZxZZZZZZZZZZZZZZZZZZZZZZZZZ.[!!!!!4}}}}}}}}}}}}}}}",
"fiiuxxxxxxxxxxxxxxxxxxxxxxxxxxee eexxxxxx.[!!!!!4}}}}}}}}}}}}}}}",
"sTTTTTTTTTTTTTTTTTTTTTTTTTTTTTTT TTTTTTTT.[!!!!!4}}}}}}}}}}}}}}}",
"aVVVVVVVVVVVVVVVVVVVVVVVVVVVVVVV VVVVVVVV.[!!!!!4}}}}}}}}}}}}}}}",
"pVVVVVVVVVVVVVVVVVVVVVVVVVVVVVVVeVVVVVVVV.[!!!!!4}}}}}}}}}}}}}}}",
"hMVVVVVVVVVVVVVVVVVVVVVVVVVVVVVVeVVVVVVVV.[!!!!!4}}}}}}}}}}}}}}}",
"hNVVVVVVVVVVVVVVVVVVVVVVVVVVVVVVxVVVVVVVV.[!!!!!4}}}}}}}}}}}}}}}",
"gVVVVVVVVVVVVVVVVVVVVVVVVVVVVVVVxVVVVVVVV.[']]]]4}}}}}}}}}}}}}}}",
"#VVVVVVVVVVVVVVVVVVVVVVVVVVVVVVVeVVVVVVVV..vvvv.4}}}}}}}}}}}}}}}",
"#VVVVVVVVVVVVVVVVVVVVVVVVVVVVVVVeVVVVVVVV.[!!!!!4}}}}}}}}}}}}}}}",
"###ddddddddfxee%1exxxxxxxxxxxxeeeeeeeeeee.[!!!!!4}}}}}}}}}}}}}}}",
"TTTTTTTTTTTTTTT;TTTTTTTTTTTTTTTTTTTTTTTTT.[!!!!!4}}}}}}}}}}}}}}}",
"VVVVVVVVVVVVVVV2VVVVVVVVVVVVVVVVVVVVVVVVV.[!!!!!4}}}}}}}}}}}}}}}",
"VVVVVVVVVVVVVVVxVVVVVVVVVVVVVVVVVVVVVVVVV.[!!!!!4}}}}}}}}}}}}}}}",
"VVVVVVVVVVVVVVVxVVVVVVVVVVVVVVVVVVVVVVVVV.[!!!!!4}}}}}}}}}}}}}}}",
"VVVVVVVVVVVVVVVxVVVVVVVVVVVVVVVVVVVVVVVVV.[!!!!!4}}}}}}}}}}}}}}}",
"VVVVVVVVVVVVVVVxVVVVVVVVVVVVVVVVVVVVVVVVV.[!!!!!4}}}}}}}}}}}}}}}",
"VVVVVVVVVVVVVVVeVVVVVVVVVVVVVVVVVVVVVVVVV.[!!!!!4}}}}}}}}}}}}}}}",
"VVVVVVVVVVVVVVV,VVVVVVVVVVVVVVVVVVVVVVVVV.[!!!!!4}}}}}}}}}}}}}}}",
".........................n................[!!!!!4}}}}}}}}}}}}}}}",
"QQQQQQQQQQQQQQQQQQQQQQQQQ.QQQQQQQQQQQQQQQ.[!!!!!4}}}}}}}}}}}}}}}",
"QQQQQQQQQQQQQQQQQQQQQQQQQvQQQQQQQQQQQQQQQ.[!!!!!4}}}}}}}}}}}}}}}",
"QQQQQQQQQQQQQQQQQQQQQQQQQvQQQQQQQQQQQQQQQ.[']]]]4}}}}}}}}}}}}}}}",
"QQQQQQQQQQQQQQQQQQQQQQQQQvQQQQQQQQQQQQQQQ..vvvv.4}}}}}}}}}}}}}}}",
"~~~~~~~~~~~~~~~~~~~~~~~~~v~~~~~~~~~~~~~~~.[!!!!!4}}}}}}}}}}}}}}}",
"CCCCCCCCCCCCCCCCCCCCCCCCCvCCCCCCCCCCCCCmm.[!!!!!4}}}}}}}}}}}}}}}",
"CCCCCCCCCCCCCCCCCCCCCCCCCvCCCCCCCCCCCCCmm.[!!!!!4}}}}}}}}}}}}}}}",
"CCCCCCCCCCCCCCCCCCCCCCCCC.CCCCCCCCCCCCCmm.[!!!!!4}}}}}}}}}}}}}}}",
"..........................................[!!!!!4}}}}}}}}}}}}}}}",
"}}}}}}}}}}}}}}}}}}}}}}}}}}}}}}}}}}}}}}}}}.[!!!!!4}}}}}}}}}}}}}}}",
"}}}}}}}}}}}}}}}}}}}}}}}}}}}}}}}}}}}}}}}}}.[!!!!!4}}}}}}}}}}}}}}}",
"}}}}}}}}}}}}}}}}}}}}}}}}}}}}}}}}}}}}}}}}}.[!!!!!4}}}}}}}}}}}}}}}",
"}}}}}}}}}}}}}}}}}}}}}}}}}}}}}}}}}}}}}}}}}.[!!!!!4}}}}}}}}}}}}}}}",
"}}}}}}}}}}}}}}}}}}}}}}}}}}}}}}}}}}}}}}}}}.[!!!!!4}}}}}}}}}}}}}}}",
"}}}}}}}}}}}}}}}}}}}}}}}}}}}}}}}}}}}}}}}}}.[!!!!!4}}}}}}}}}}}}}}}",
"}}}}}}}}}}}}}}}}}}}}}}}}}}}}}}}}}}}}}}}}}.[!!!!!4}}}}}}}}}}}}}}}",
"}}}}}}}}}}}}}}}}}}}}}}}}}}}}}}}}}}}}}}}}}.[!!!!!4}}}}}}}}}}}}}}}",
"}}}}}}}}}}}}}}}}}}}}}}}}}}}}}}}}}}}}}}}}}.[!!!!!4}}}}}}}}}}}}}}}",
"}}}}}}}}}}}}}}}}}}}}}}}}}}}}}}}}}}}}}}}}}.[!!!!!4}}}}}}}}}}}}}}}"
};
