/* XPM */
static char *result[] = {
/* columns rows colors chars-per-pixel */
"64 86 193 2 ",
"   c #010101",
".  c #0B0302",
"X  c #0C0A03",
"o  c #040B0B",
"O  c #0C0C0B",
"+  c #150504",
"@  c #1C0605",
"#  c #120E03",
"$  c #110E0D",
"%  c #1D0908",
"&  c #161203",
"*  c #1B1402",
"=  c #191509",
"-  c #17140A",
";  c #070F10",
":  c #100F10",
">  c #071213",
",  c #0A1A1C",
"<  c #091618",
"1  c #141413",
"2  c #191715",
"3  c #1D1C1C",
"4  c #1D1B15",
"5  c #250907",
"6  c #2C0A08",
"7  c #240807",
"8  c #340C0A",
"9  c #3B0E0B",
"0  c #231A01",
"q  c #231D0B",
"w  c #291F02",
"e  c #211F1C",
"r  c #3D140A",
"t  c #2B240E",
"y  c #2D2205",
"u  c #3B2D02",
"i  c #322707",
"p  c #27241C",
"a  c #352C11",
"s  c #3C3213",
"d  c #0C1E21",
"f  c #201F20",
"g  c #0D2224",
"h  c #0F2629",
"j  c #0F282B",
"k  c #122E32",
"l  c #133236",
"z  c #15363A",
"x  c #16393E",
"c  c #1B383C",
"v  c #112B2E",
"b  c #232223",
"n  c #282728",
"m  c #2C2B2C",
"M  c #2A2725",
"N  c #312C26",
"B  c #363229",
"V  c #353434",
"C  c #3E3C3D",
"Z  c #383637",
"A  c #332F31",
"S  c #400F0C",
"D  c #4C120E",
"F  c #46130C",
"G  c #52130F",
"H  c #551410",
"J  c #5B1511",
"K  c #631713",
"L  c #6B1914",
"P  c #651813",
"I  c #741B16",
"U  c #7E1D18",
"Y  c #7B1C17",
"T  c #423203",
"R  c #4C3A05",
"E  c #523E03",
"W  c #443917",
"Q  c #413A24",
"!  c #594404",
"~  c #5E4E1E",
"^  c #54451A",
"/  c #4F4219",
"(  c #634C06",
")  c #6C5204",
"_  c #765905",
"`  c #7B5E05",
"'  c #715605",
"]  c #7F6105",
"[  c #494234",
"{  c #564D3E",
"}  c #183E43",
"|  c #173C41",
" . c #403F41",
".. c #194146",
"X. c #1A444A",
"o. c #1C494F",
"O. c #1D4C53",
"+. c #1F5158",
"@. c #1F5157",
"#. c #21565D",
"$. c #245D64",
"%. c #26636B",
"&. c #2A6C75",
"*. c #2B6F78",
"=. c #2C737D",
"-. c #424242",
";. c #4B4B4B",
":. c #4B4845",
">. c #5B5345",
",. c #545454",
"<. c #5C5B5C",
"1. c #5A5759",
"2. c #504E51",
"3. c #665B49",
"4. c #756A54",
"5. c #796D56",
"6. c #625F63",
"7. c #656465",
"8. c gray42",
"9. c #747474",
"0. c #7B7B7B",
"q. c #79757A",
"w. c #841F19",
"e. c #881F1A",
"r. c #8C201A",
"t. c #94221C",
"y. c #9C241E",
"u. c #A4261F",
"i. c #846405",
"p. c #8C6A06",
"a. c #926E06",
"s. c #9B7606",
"d. c #A47C07",
"f. c #877A61",
"g. c #82755D",
"h. c #AB8208",
"j. c #B18607",
"k. c #B88B07",
"l. c #B48B14",
"z. c #C79708",
"x. c #D29F08",
"c. c #D9A509",
"v. c #D5A81F",
"b. c #E2AC09",
"n. c #ECB30A",
"m. c #E7B009",
"M. c #F5BA0A",
"N. c #F9BD0A",
"B. c #F1B70A",
"V. c #DBB02F",
"C. c #FAC423",
"Z. c #F9C837",
"A. c #F9C21B",
"S. c #96886C",
"D. c #8E8066",
"F. c #A39375",
"G. c #AE9D7D",
"H. c #FACE4B",
"J. c #FBD259",
"K. c #FCDB78",
"L. c #2D7680",
"P. c #2F7A84",
"I. c #317E89",
"U. c #307D87",
"Y. c #32828D",
"T. c #3A8791",
"R. c #3E8A94",
"E. c #448C96",
"W. c #4D939C",
"Q. c #54949D",
"!. c #5798A2",
"~. c #619FA8",
"^. c #63A0A9",
"/. c #828282",
"(. c #8B8B8B",
"). c #969696",
"_. c #9A9A9A",
"`. c #BAA986",
"'. c #A9A9A9",
"]. c #B6B6B6",
"[. c #C6B38D",
"{. c #CBB892",
"}. c #C9B690",
"|. c #DAC59C",
" X c #E4CEA3",
".X c #E9D2A7",
"XX c #ECD5A9",
"oX c #ECD5A9",
"OX c #F0D9AC",
"+X c #C7C7C7",
"@X c gray85",
"#X c #F4F4F4",
"$X c None",
/* pixels */
"$X$X$X$X$X$X$X$X$X$X$X$X$X$X$X$X$X$X$X$X$X$X$X$X$X$X$X$X$X$X$X$X$X$X$X$X$X$X$X$X$X$X$X$X$X$X$X$X$X$X$X$X$X$X$X$X$X$X$X$X$X$X$X$X",
"$X$X$X$X$X$X$X$X$X$X$X$X$X$X$X$X$X$X$X$X$X$X$X$X$X$X$X$X$X$X$X$X$X$X    $X$X$X$X$X$X$X$X$X$X$X$X$X$X$X$X$X$X$X$X$X$X$X$X$X$X$X$X",
"$X$X$X$X$X$X$X$X$X$X$X$X$X$X$X$X$X$X$X$X$X$X$X$X$X$X$X$X$X$X$X$X        $X$X$X$X$X$X$X$X$X$X$X$X$X$X$X$X$X$X$X$X$X$X$X$X$X$X$X$X",
"$X$X$X$X$X$X$X$X$X$X$X$X$X$X$X$X$X$X$X$X$X$X$X$X$X$X$X$X$X$X$X  < #.,   $X$X$X$X$X$X$X$X$X$X$X$X$X$X$X$X$X$X$X$X$X$X$X$X$X$X$X$X",
"$X$X$X$X$X$X$X$X$X$X$X$X$X$X$X$X$X$X$X$X$X$X$X$X$X$X$X$X$X    | I.P.,   $X$X$X$X$X$X$X$X$X$X$X$X$X$X$X$X$X$X$X$X$X$X$X$X$X$X$X$X",
"$X$X$X$X$X$X$X$X$X$X$X$X$X$X$X$X$X$X$X$X$X$X$X$X$X$X$X$X  k =.Y.Y.*.,   $X$X$X$X$X$X$X$X$X$X$X$X$X$X$X$X$X$X$X$X$X$X$X$X$X$X$X$X",
"$X$X$X$X$X$X$X$X$X$X$X$X$X$X$X$X$X$X$X$X$X$X$X$X$X$X  g $.Y.Y.Y.Y.%.d   $X$X$X$X$X$X$X$X$X$X$X$X$X$X$X$X$X$X$X$X$X$X$X$X$X$X$X$X",
"$X$X$X$X$X$X$X$X$X$X$X$X$X$X  $X$X$X$X$X$X$X$X$X  , #.I.Y.Y.Y.Y.Y.#.g   $X$X$X$X$X$X$X$X$X$X$X$X$X$X$X$X$X$X$X$X$X$X$X$X$X$X$X$X",
"$X$X$X$X$X$X$X$X$X$X$X$X$X    $X$X$X$X$X$X    d #.P.Y.Y.Y.Y.Y.Y.Y.O.d $X$X$X$X$X$X$X$X$X$X$X$X$X$X$X$X$X$X$X$X$X$X$X$X$X$X$X$X$X",
"$X$X$X$X$X$X$X$X$X$X$X$X  >   $X$X$X    < X.L.Y.Y.Y.Y.Y.Y.Y.Y.Y.L.X., $X$X$X$X$X$X$X$X$X$X$X$X$X$X$X$X$X$X$X$X$X$X$X$X$X$X$X$X$X",
"$X$X$X$X$X$X$X$X$X$X$X  | X.    > l +.L.Y.Y.Y.Y.Y.Y.Y.Y.Y.Y.Y.Y.&..., $X$X$X$X$X$X$X$X$X$X$X$X$X$X$X$X$X$X$X$X$X$X$X$X$X$X$X$X$X",
"$X$X$X$X$X$X$X$X$X$X  X.Y.X.| %.P.Y.Y.Y.Y.Y.Y.Y.Y.Y.Y.Y.Y.Y.Y.Y.$...< $X$X$X$X$X$X$X$X$X$X$X$X$X$X$X$X$X$X$X$X$X$X$X$X$X$X$X$X$X",
"$X$X$X$X$X$X$X$X$Xo $.Y.Y.Y.Y.Y.Y.Y.Y.Y.Y.Y.Y.Y.Y.Y.Y.Y.Y.Y.Y.Y.O.} o $X$X$X$X$X$X$X$X$X$X$X$X$X$X$X$X$X$X$X$X$X$X$X$X$X$X$X$X$X",
"$X$X$X$X$X$X$X  o %.Y.Y.Y.Y.Y.Y.Y.Y.Y.Y.Y.Y.Y.Y.Y.Y.Y.Y.Y.Y.Y.P.X...o $X$X$X$X$X$X$X$X$X$X$X$X$X$X$X$X$X$X$X$X$X$X$X$X$X$X$X$X$X",
"$X$X$X$X$X$X  > =.Y.Y.Y.Y.Y.Y.Y.Y.Y.Y.Y.Y.Y.Y.Y.Y.Y.Y.Y.Y.Y.Y.=...}   $X$X$X$X$X$X$X$X$X$X$X$X$X$X$X$X$X$X$X$X$X$X$X$X$X$X$X$X$X",
"$X$X$X$X$X  g L.Y.Y.Y.Y.Y.Y.Y.Y.Y.Y.Y.Y.Y.Y.Y.Y.Y.Y.Y.Y.Y.Y.Y.%...l   $X$X$X$X$X$X$X$X$X$X$X$X$X$X$X$X$X$X$X$X$X$X$X$X$X$X$X$X$X",
"$X$X$X$X  g E.T.Y.Y.Y.Y.Y.Y.Y.Y.Y.Y.Y.Y.Y.Y.Y.Y.Y.Y.Y.Y.Y.Y.I.O...h   $X$X$X$X$X$X$X$X$X$X$X$X$X$X$X$X$X$X$X$X$X$X$X$X$X$X$X$X$X",
"$X$X$X  k Q.~.~.W.R.Y.Y.Y.Y.Y.Y.Y.Y.Y.Y.T.T.Y.Y.Y.Y.Y.Y.Y.Y.=.....< $X$X$X$X$X$X$X$X$X$X$X$X$X$X$X$X$X$X$X$X$X$X$X$X$X$X$X$X$X$X",
"$X$X  c Q.^.^.^.^.!.!.W.E.T.T.T.T.E.R.R.Y.Y.Y.Y.Y.Y.Y.Y.Y.Y.%...z   $X$X$X$X$X$X$X$X$X$X$X$X$X$X$X$X$X$X$X$X$X$X$X$X$X$X$X$X$X$X",
"$X  c !.^.^.^.^.^.^.~.^.^.^.!.W.R.Y.Y.Y.Y.Y.Y.Y.Y.Y.Y.Y.Y.Y.o...g   $X$X$X$X$X$X$X$X$X$X$X$X$X$X$X$X$X$X$X$X$X$X$X$X$X$X$X$X$X$X",
"  o I.E.Q.!.!.!.!.!.W.E.R.Y.Y.Y.Y.Y.Y.Y.Y.Y.Y.Y.Y.Y.Y.Y.Y.%...} o   $X$X$X$X$X$X$X$X$X$X$X$X$X$X$X$X$X$X$X$X$X$X$X$X$X$X$X$X$X$X",
"$X; I.Y.Y.Y.Y.Y.Y.Y.Y.Y.Y.Y.Y.Y.Y.Y.Y.Y.Y.Y.Y.Y.Y.Y.Y.Y.%.....v   $X$X$X$X$X$X$X$X$X$X$X$X$X$X$X$X$X$X$X$X$X$X$X$X$X$X$X$X$X$X$X",
"$Xo P.Y.Y.Y.Y.Y.Y.Y.Y.Y.Y.Y.Y.Y.Y.Y.Y.Y.Y.Y.Y.Y.Y.Y.Y.%.#.%.} <   $X$X$X$X$X$X$X$X$X$X$X$X$X$X$X$X$X$X$X$X$X$X$X$X$X$X$X$X$X$X$X",
"$Xo P.Y.Y.Y.Y.Y.Y.Y.Y.Y.Y.Y.Y.Y.Y.Y.Y.Y.Y.Y.Y.Y.Y.Y.Y.P.Y.P.l   $X$X$X$X$X$X$X$X$X$X$X$X$X$X$X$X$X$X$X    $X$X$X$X$X$X$X$X$X$X$X",
"$Xo L.I.Y.Y.Y.Y.Y.Y.Y.Y.Y.Y.Y.Y.Y.Y.Y.Y.Y.Y.Y.Y.Y.Y.Y.Y.Y.I.<   $X$X$X$X$X$X$X$X$X$X$X$X$X$X$X$X$X  + @ J + $X$X$X$X$X$X$X$X$X$X",
"$Xo &.@.Y.Y.Y.Y.Y.Y.Y.P.Y.Y.Y.Y.Y.Y.Y.Y.Y.Y.Y.Y.Y.Y.Y.Y.Y.Y., >     $X$X$X$X$X$X$X$X$X$X$X$X$X$X. K r.t.y.5 $X$X$X$X$X$X$X$X$X$X",
"$Xo h | P.Y.Y.Y.Y.Y.$.P.Y.Y.I.Y.Y.Y.Y.Y.Y.Y.Y.Y.Y.Y.Y.Y.Y.Y.Y.O.  $X$X$X$X$X$X$X$X$X$X$X$X$X$X@ w.u.u.U +     $X$X$X$X$X$X$X$X$X",
"$X    z %.X.Y.Y.=.z =.P.&.@.+.Y.Y.Y.Y.Y.Y.Y.Y.Y.Y.Y.Y.Y.Y.P...  $X$X$X$X$X$X$X$X$X$X$X$X$X  8 t.u.u.u.Y 9 Y 9 $X$X$X$X$X$X$X$X$X",
"$X    k z , Y.+.o X.o.l <   o.Y.Y.Y.L.Y.Y.Y.L.L.Y.Y.Y.=.#.z       $X$X$X$X$X$X$X$X$X$X$X  J u.u.u.u.u.u.u.y.J   $X$X$X$X$X$X$X$X",
"$X  $Xg ;   %.h ; o     f   X.Y.Y.Y.$.L.Y.Y.O.%.Y.Y.L.d <   9 G S 7 $X$X$X$X$X$X$X$X$X@ w.u.u.u.u.u.u.u.Y + @ @ $X$X$X$X$X$X$X$X",
"$X$X$X      $.&.x > o 7.q.  @.Y.Y.Y.+.+.Y.Y.k %.=.$.P.; 7 D U t.u.r.  $X$X$X$X$X  . S t.u.u.u.u.u.u.u.u.y.I y.I   $X$X$X$X$X$X$X",
"$X$X$X      | +.d 2 ].#Xn   L.=.+.Y.X.x Y.I., +.L., O.O.$ t.u.u.u.K   $X    . @ K t.u.u.u.u.u.u.u.u.u.u.y.e.H 6   $X$X$X$X$X$X$X",
"$X$X$X      g l   <.9.-.  h =.} #.Y.z l L.L., } $.g o , ; 7 e.u.u.5   @ 6 8 @ 5 9 P r.u.u.u.u.u.u.r.U L D 5     $X$X$X$X$X$X$X$X",
"$X$X$X$X  O X $ 2 O 1     x d g %.Y.< l L.$.g x h x @ I 8   b 2 5 .   + 6 % n 9.;.3 . L r.r.I J H 9 7   + . $X$X$X$X$X$X$X$X$X$X",
"$X$X$X$X  D.f..XOXOXOX}.B X   j &.%.  z I...k ..o , > + 2 +X@X).8.T ` ! u X V /.0.-.2 8 F S 6 @ @ 9 D 8 8   $X$X$X$X$X$X$X$X$X$X",
"$X$X$X$X  G.OXOXOXOXOXOXXX5.$ h =.h   x I.g z , . 8 +   q.9.+X2 ].W N.j.` u C /./.2.n X + 6 H w.y.u.L + +   $X$X$X$X$X$X$X$X$X$X",
"$X$X$X$X  `.OXOXOXOXOXOXOX[.{ g } g o X.&.o o @ D y.9 u /.V   o +XQ N.b.` T -.)./.1.Z $ P u.u.u.u.u.u.y.u.7 $X$X$X$X$X$X$X$X$X$X",
"$X$X$X$X$X{ OXOXOXOXOXOXOX{.3.; o z   @.O.X S G I u.F s.A +X9._.).! N.b.` u ;.'./.1.C 2 # 5 L y.u.u.r.J J @ $X$X$X$X$X$X$X$X$X$X",
"$X$X$X$X$X  3. XOXOXOXOXOX[.4.  > v o $., 9 G G y.u.F m.i.1 <.-.T b.N.x.` w ,.].0.:.V N 5.{ e + J u.e.9 6 . $X$X$X$X$X$X$X$X$X$X",
"$X$X$X$X$X$X  [ S.[..XOXoXf.>.  >   o } # J G P u.u.F ` B.x.s.j.B.N.N.j.` & 6.'.8.-.b f.[.S.g.{ p % K y.u.6 $X$X$X$X$X$X$X$X$X$X",
"$X$X$X$X$X$X$X$ [..X.XoXF.5.N       > ; H u.L L u.u.Y   u j.c.B.N.N.N.i.' O 0.(.1. .: }.oXOX|.F.g.{ e + D % $X$X$X$X$X$X$X$X$X$X",
"$X$X$X$X$X$X$X$Xe {. XF.4.[   + 7 . o . y.u.t.t.u.u.e.. ! O $ * y T R y w n /.0.-.n X { G.XXOXOX.X[.S.3.N   $X$X  X $X$X$X$X$X$X",
"$X$X$X$X$X$X$X$X$Xp [ 2 8 L u.u.u.@   D u.u.u.t.u.u.e.+ 0 6.f i d.! E u X V <.-.m   $X    e f.|.OXOXOX|.F.3.p p 3.5.B O $X$X$X$X",
"$X$X$X$X$X$X$X$X$X$X$X$XS t.u.u.y.. . L L K H r.u.u.e.% A ;.# z.k.i.c._ u 0 #       $X$X$X$X    B S.oXOXOXoX`.F.{.OX{.f.[ O $X$X",
"$X$X$X$X$X$X$X$X$X$X$X$X    + 8 9   I r.I L L t.u.u.I 7 2.1 _ N.d.x.N.j.` ` _ # $X$X$X$X$X$X$X$X.   2 3.`..XOXOXOXOXOXOX`.5.N $X",
"$X$X$X$X$X$X$X$X$X$X$X$X$X$X$X. 7 6 J u.u.u.u.u.u.y.J M C - n.b.m.N.N.m.p.` ` ) . $X$X$X$X$X$X$X$X$X$X    p .XOXOXOXOXOXoX|.4.  ",
"$X$X$X$X$X$X$X$X$X$X$X$X$X$X$X$X+ J D H y.u.u.u.u.I 8 ;.: h.N.N.N.N.N.N.h.` ` ` T         $X$X$X$X$X$X$X$X  {.OXOXOXOXOXOXF.[   ",
"$X$X$X$X$X$X$X$X$X$X$X$X$X$X$X$X. t.w.r.y.u.u.u.U 9 A m T N.N.N.N.N.N.N.j.` ` ` ' X O 7.V   $X$X$X$X$X$X$X$XF..XOXOXOX|. XoXB $X",
"$X$X$X$X$X$X$X$X$X$X$X$X$X$X$X$X  I u.u.u.u.u.U 9 n 1.= x.M.N.N.N.N.N.c.i.` ` ` T $ 8./.<.f   $X$X$X$X$X$X$X4 }.f.G.OXOXf.N $X$X",
"$X$X$X$X$X$X$X$X$X$X$X$X$X$X$X$X$X8 u.u.u.u.Y 9   7.b p.N.N.N.N.N.N.N.d.` ` ` E 1 8./.8.-. .: $X$X$X$X$X$X$X$X{ 3.X [ F..X4.$X$X",
"$X$X$X$X$X$X$X$X$X$X$X$X$X$X$X$X$X  S t.w.J @    .;.. W ( i.s.z.c.m.k.i.` ` T 1 9./.9.:.-.m   $X$X$X$X$X$X$X$X$X$X$X$X$X2 X $X$X",
"$X$X$X$X$X$X$X$X$X$X$X$X$X$X$X$X$X$X$X. .     1 q.1 A <.6.6.<.1.1.>.;.[ a * n q./.f.>.X.C O $X$X$X$X$X$X$X$X$X$X$X$X$X$X$X$X$X$X",
"$X$X$X$X$X$X$X$X$X$X$X$X$X$X$X$X$X$X$X$X$X$X$X3 Z . w - : 1 3 b n V  . .o ;.0./.q.2. . .O $X$X$X$X$X$X$X$X$X$X$X$X$X$X$X$X$X$X$X",
"$X$X$X$X$X$X$X$X$X$X$X$X$X$X$X$X$X$X$X$X$X$X$X$X    s.N.M.c.d.' R 0   f 1././.q.2. . .1 O   $X$X$X$X$X$X$X$X$X$X$X$X$X$X$X$X$X$X",
"$X$X$X$X$X$X$X$X$X$X$X$X$X$X$X$X$X$X$X$X$X$X$X$X$X$XT c.z.a.! T q n <./.(./.q.2.o. .3   3   $X$X$X$X$X$X$X$X$X$X$X$X$X$X$X$X$X$X",
"$X$X$X$X$X$X$X$X$X$X$X$X$X$X$X$X$X$X$X$X$X$X$X$X      X - n C <.(.).(./.f.<. . .[ 3     3 1   $X$X$X$X$X$X$X$X$X$X$X$X$X$X$X$X$X",
"$X$X$X$X$X$X$X$X$X$X$X$X$X$X$X$X$X$X$X$X$X$X$X$X  m 1.8.q.).'.'.).(.f.7.2. .-. .1 O O : f 3   $X$X$X$X$X$X$X$X$X$X$X$X$X$X$X$X$X",
"$X$X$X$X$X$X$X$X$X$X$X$X$X$X$X$X$X$X$X$X$X      . m /./.).).(.0.7.2. . . . .A o 1 e O f n 3 1 $X$X$X$X$X$X$X$X$X$X$X$X$X$X$X$X$X",
"$X$X$X$X$X$X$X$X$X$X$X$X$X$X$X$X$X$X$X  O 1 n Z C : 1.7.<.2.-.-. .X.:. .Z 1 O f f 3 O Z V f 3   $X$X$X$X$X$X$X$X$X$X$X$X$X$X$X$X",
"$X$X$X$X$X$X$X$X$X$X$X$X$X$X$X$X$X  O m C C C C C 3 e  .{ X.-. .-.C B 2 O f Z f e O f C C b 3   $X$X$X$X$X$X$X$X$X$X$X$X$X$X$X$X",
"$X$X$X$X$X$X$X$X$X$X$X$X$X$X$X$X  n C C C C C C C m   3 f f 3 2 : : 3 m Z C n f 1 O C C C m f O   $X$X$X$X$X$X$X$X$X$X$X$X$X$X$X",
"$X$X$X$X$X$X$X$X$X$X$X$X$X$X$X  3 C C Z b 1 O n C C f 2 2 f b n V Z C C C Z f 1   V C C C Z f 3   $X$X$X$X$X$X$X$X$X$X$X$X$X$X$X",
"$X$X$X$X$X$X$X$X$X$X$X$X$X$X$X  O b $ 0 _ _ u X 1 C C C C C C C C C C C Z f :   A C C C C C n 3 O $X$X$X$X$X$X$X$X$X$X$X$X$X$X$X",
"$X$X$X$X$X$X$X$X$X$X$X$X$X      - R h.M.N.N.c.a.u 1 Z C C C  .C C C C V f O   m C  .C C C C Z 3 3   $X$X$X$X$X$X$X$X$X$X$X$X$X$X",
"$X$X$X$X$X$X$X$X$X$X$X$X$X$X  * d.Z.K.J.A.N.N.M.d.! $ C C C C C C V b 1       1 Z C C C C C C n e O $X$X$X$X$X$X$X$X$X$X$X$X$X$X",
"$X$X$X$X$X$X$X$X$X$X$X$X$X$X$X$XX T l.H.J.C.N.N.M.d.E O n m M b p 3 o     $X$X$X: Z C C C C C Z f 3   $X$X$X$X$X$X$X$X$X$X$X$X$X",
"$X$X$X$X$X$X$X$X$X$X$X$X$X$X$X$X$X$X  u k.Z.C.N.N.B.a.u   O O O O     $X$X$X$X$X$XO V C C C C C m e :   $X$X$X$X$X$X$X$X$X$X$X$X",
"$X$X$X$X$X$X$X$X$X$X$X$X$X$X$X$X$X$X$X$X  i s.n.N.N.c.` u   & = = =   $X$X$X$X$X$X$X  b C C C C Z f 3   $X$X$X$X$X$X$X$X$X$X$X$X",
"$X$X$X$X$X$X$X$X$X$X$X$X$X$X$X$X$X$X$X$X$X$X  y s.n.M.a.' X t t t t   $X$X$X$X$X$X$X$X$X1 Z C C A 1 O X X     $X$X$X$X$X$X$X$X$X",
"$X$X$X$X$X$X$X$X$X$X$X$X$X$X$X$X$X$X$X$X$X$X$X$X  * i.d.' X t ~ a q   $X$X$X$X$X$X$X$X$X    1 O X R j.b.x.` y   $X$X$X$X$X$X$X$X",
"$X$X$X$X$X$X$X$X$X$X$X$X$X$X$X$X$X$X$X$X$X$X$X$X$X$X$X# # t ^ ~ s =   $X$X$X$X$X$X$X$X$X$X  0 d.V.J.A.N.N.B.h.! X $X$X$X$X$X$X$X",
"$X$X$X$X$X$X$X$X$X$X$X$X$X$X$X$X$X$X$X$X$X$X$X$X$X$X$X$X# ~ ~ ~ W X $X$X$X$X$X$X$X$X$X$X$X$X  0 h.H.K.C.N.N.N.k.! X $X$X$X$X$X$X",
"$X$X$X$X$X$X$X$X$X$X$X$X$X$X$X$X$X$X$X$X$X$X$X$X$X$X$X$X  ^ ~ ~ W . $X$X$X$X$X$X$X$X$X$X$X$X$X$X  T l.H.Z.N.N.N.h.R   $X$X$X$X$X",
"$X$X$X$X$X$X$X$X$X$X$X$X$X$X$X$X$X$X$X$X$X$X$X$X$X$X$X$X  a ~ ~ s   $X$X$X$X$X$X$X$X$X$X$X$X$X$X$X$XX ( v.C.N.N.B.p.y $X$X$X$X$X",
"$X$X$X$X$X$X$X$X$X$X$X$X$X$X$X$X$X$X$X$X$X$X$X$X$X$X$X$X  t ~ ~ t   $X$X$X$X$X$X$X$X$X$X$X$X$X$X$X$X$X$XX ! c.N.N.k._ * $X$X$X$X",
"$X$X$X$X$X$X$X$X$X$X$X$X$X$X$X$X$X$X$X$X$X$X$X$X$X$X$X$X  W ~ ~ q $X$X$X$X$X$X$X$X$X$X$X$X$X$X$X$X$X$X$X$X$X* _ m.m.` !   = #   ",
"$X$X$X$X$X$X$X$X$X$X$X$X$X$X$X$X$X$X$X$X$X$X$X$X$X$X$X$X  W / ^ X $X$X$X$X$X$X$X$X$X$X$X$X$X$X$X$X$X$X$X$X$X$X  X a.` R   t =   ",
"$X$X$X$X$X$X$X$X$X$X$X$X$X$X$X$X$X$X$X$X$X$X$X$X$X$X$X$X          $X$X$X$X$X$X$X$X$X$X$X$X$X$X$X$X$X$X$X$X$X$X$X  t t q s t - $X",
"$X$X$X$X$X$X$X$X$X$X$X$X$X$X$X$X$X$X$X$X$X$X$X$X$X$X$X$X$X$X$X$X$X$X$X$X$X$X$X$X$X$X$X$X$X$X$X$X$X$X$X$X$X$X$X$X$Xs ~ ~ ~ a # $X",
"$X$X$X$X$X$X$X$X$X$X$X$X$X$X$X$X$X$X$X$X$X$X$X$X$X$X$X$X$X$X$X$X$X$X$X$X$X$X$X$X$X$X$X$X$X$X$X$X$X$X$X$X$X$X$X$X$Xq ~ ~ ~ a . $X",
"$X$X$X$X$X$X$X$X$X$X$X$X$X$X$X$X$X$X$X$X$X$X$X$X$X$X$X$X$X$X$X$X$X$X$X$X$X$X$X$X$X$X$X$X$X$X$X$X$X$X$X$X$X$X$X$X$XX ~ ~ ~ a   $X",
"$X$X$X$X$X$X$X$X$X$X$X$X$X$X$X$X$X$X$X$X$X$X$X$X$X$X$X$X$X$X$X$X$X$X$X$X$X$X$X$X$X$X$X$X$X$X$X$X$X$X$X$X$X$X$X$X$X  W ~ ~ a   $X",
"$X$X$X$X$X$X$X$X$X$X$X$X$X$X$X$X$X$X$X$X$X$X$X$X$X$X$X$X$X$X$X$X$X$X$X$X$X$X$X$X$X$X$X$X$X$X$X$X$X$X$X$X$X$X$X$X$X  a ~ ~ q $X$X",
"$X$X$X$X$X$X$X$X$X$X$X$X$X$X$X$X$X$X$X$X$X$X$X$X$X$X$X$X$X$X$X$X$X$X$X$X$X$X$X$X$X$X$X$X$X$X$X$X$X$X$X$X$X$X$X$X$X  ^ ~ ~ # $X$X",
"$X$X$X$X$X$X$X$X$X$X$X$X$X$X$X$X$X$X$X$X$X$X$X$X$X$X$X$X$X$X$X$X$X$X$X$X$X$X$X$X$X$X$X$X$X$X$X$X$X$X$X$X$X$X$X$X  . W W W   $X$X",
"$X$X$X$X$X$X$X$X$X$X$X$X$X$X$X$X$X$X$X$X$X$X$X$X$X$X$X$X$X$X$X$X$X$X$X$X$X$X$X$X$X$X$X$X$X$X$X$X$X$X$X$X$X$X$X$X$X          $X$X"
};
