/* XPM */
static char *result[] = {
/* columns rows colors chars-per-pixel */
"64 77 190 2 ",
"   c #010101",
".  c #0B0503",
"X  c #0C0A03",
"o  c #050A0B",
"O  c #0B0B0B",
"+  c #130404",
"@  c #110D03",
"#  c #120E0D",
"$  c #190605",
"%  c #1C1502",
"&  c #191407",
"*  c #071113",
"=  c #081416",
"-  c #091618",
";  c #0A1A1D",
":  c #131313",
">  c #1C1A15",
",  c #1C1B1C",
"<  c #171817",
"1  c #230907",
"2  c #2C0B09",
"3  c #220E0D",
"4  c #330C0A",
"5  c #3C0E0C",
"6  c #231B03",
"7  c #261A0A",
"8  c #211F1C",
"9  c #271912",
"0  c #331513",
"q  c #2C2203",
"w  c #2C250D",
"e  c #3A2C03",
"r  c #332808",
"t  c #3E3006",
"y  c #27231A",
"u  c #332B11",
"i  c #3C3213",
"p  c #0C1E20",
"a  c #211F20",
"s  c #0D2225",
"d  c #0F2629",
"f  c #102A2D",
"g  c #122E32",
"h  c #133135",
"j  c #15353A",
"k  c #16393D",
"l  c #242323",
"z  c #282726",
"x  c #2D2C2C",
"c  c #2A2826",
"v  c #312C2B",
"b  c #393328",
"n  c #312F30",
"m  c #343334",
"M  c #393738",
"N  c #3D3B3C",
"B  c #383637",
"V  c #410F0C",
"C  c #43100D",
"Z  c #4B110E",
"A  c #51130F",
"S  c #5A1511",
"D  c #551410",
"F  c #6A1914",
"G  c #631713",
"H  c #741B16",
"J  c #7C1D17",
"K  c #423303",
"L  c #4C3A05",
"P  c #523E03",
"I  c #443917",
"U  c #453E32",
"Y  c #4E372C",
"T  c #5C4605",
"R  c #5A4607",
"E  c #51441A",
"W  c #5D4D1E",
"Q  c #57481C",
"!  c #4D4018",
"~  c #654C04",
"^  c #6D5305",
"/  c #7C5E05",
"(  c #725707",
")  c #6F5810",
"_  c #7B6111",
"`  c #4B4436",
"'  c #544D3D",
"]  c #66562B",
"[  c #193E43",
"{  c #173C40",
"}  c #403E41",
"|  c #194146",
" . c #1B454B",
".. c #1C494F",
"X. c #1E4D53",
"o. c #1F5157",
"O. c #21565D",
"+. c #25484D",
"@. c #235B63",
"#. c #255F68",
"$. c #26636B",
"%. c #28676F",
"&. c #296C75",
"*. c #2A6D76",
"=. c #2C737C",
"-. c #424242",
";. c #4C4B4C",
":. c #484649",
">. c #535353",
",. c #5A5A5A",
"<. c #575043",
"1. c #625846",
"2. c #6C614D",
"3. c #786C56",
"4. c #7D715A",
"5. c #646364",
"6. c #6B6A6B",
"7. c #6F6C71",
"8. c gray45",
"9. c #7B7B7B",
"0. c #787479",
"q. c #706A6A",
"w. c #841F19",
"e. c #8A201A",
"r. c #94231C",
"t. c #9B241E",
"y. c #A4261F",
"u. c #826305",
"i. c #8E6C07",
"p. c #9B7506",
"a. c #947108",
"s. c #836712",
"d. c #A47C07",
"f. c #82755D",
"g. c #AB8207",
"h. c #BA8D08",
"j. c #B48907",
"k. c #A38019",
"l. c #BF9822",
"z. c #CB9A08",
"x. c #C49508",
"c. c #D19F09",
"v. c #D6A209",
"b. c #DBA60A",
"n. c #DAA914",
"m. c #E3AC09",
"M. c #EDB40A",
"N. c #F1B70A",
"B. c #F9BD0A",
"V. c #F5BA0A",
"C. c #F1BA17",
"Z. c #FAC21A",
"A. c #F4C538",
"S. c #96876B",
"D. c #9E8E71",
"F. c #9F9072",
"G. c #A59677",
"H. c #FBD259",
"J. c #F3C848",
"K. c #2E7781",
"L. c #2F7A84",
"P. c #317E89",
"I. c #307C86",
"U. c #32828D",
"Y. c #3D8993",
"T. c #388691",
"R. c #448D97",
"E. c #4D939D",
"W. c #52949D",
"Q. c #5C9CA5",
"!. c #5597A1",
"~. c #609EA7",
"^. c #63A0A9",
"/. c #838383",
"(. c gray54",
"). c #939393",
"_. c #9A9A9A",
"`. c #BAA885",
"'. c #A3A3A3",
"]. c #A9A9A9",
"[. c #BCBCBC",
"{. c #C9B690",
"}. c #D2BE97",
"|. c #C2AF8B",
" X c #D9C49B",
".X c #E2CCA2",
"XX c #ECD5A9",
"oX c #F0D9AC",
"OX c #E2E2E2",
"+X c None",
/* pixels */
"+X+X+X+X+X+X+X+X+X+X+X+X+X+X+X+X+X+X+X+X+X+X+X+X+X+X+X+X+X+X  +X+X+X+X+X+X+X+X+X+X+X+X+X+X+X+X+X+X+X+X+X+X+X+X+X+X+X+X+X+X+X+X+X",
"+X+X+X+X+X+X+X+X+X+X+X+X+X+X+X+X+X+X+X+X+X+X+X+X+X+X+X+X+X    +X+X+X+X+X+X+X+X+X+X+X+X+X+X+X+X+X+X+X+X+X+X+X+X+X+X+X+X+X+X+X+X+X",
"+X+X+X+X+X+X+X+X+X+X+X+X+X+X+X+X+X+X+X+X+X+X+X+X+X+X+X  * g   +X+X+X+X+X+X+X+X+X+X+X+X+X+X+X+X+X+X+X+X+X+X+X+X+X+X+X+X+X+X+X+X+X",
"+X+X+X+X+X+X+X+X+X+X+X+X+X+X+X+X+X+X+X+X+X+X+X+X+X+X* { =.X.  +X+X+X+X+X+X+X+X+X+X+X+X+X+X+X+X+X+X+X+X+X+X+X+X+X+X+X+X+X+X+X+X+X",
"+X+X+X+X+X+X+X+X+X+X+X+X+X+X+X+X+X+X+X+X+X+X+X+X  - @.U.U...  +X+X+X+X+X+X+X+X+X+X+X+X+X+X+X+X+X+X+X+X+X+X+X+X+X+X+X+X+X+X+X+X+X",
"+X+X+X+X+X+X+X+X+X+X+X+X+X+X+X+X+X+X+X+X+X+X  - @.P.U.U.U.[   +X+X+X+X+X+X+X+X+X+X+X+X+X+X+X+X+X+X+X+X+X+X+X+X+X+X+X+X+X+X+X+X+X",
"+X+X+X+X+X+X+X+X+X+X+X+X  +X+X+X+X+X+X+X  ; o.U.U.U.U.U.L.k   +X+X+X+X+X+X+X+X+X+X+X+X+X+X+X+X+X+X+X+X+X+X+X+X+X+X+X+X+X+X+X+X+X",
"+X+X+X+X+X+X+X+X+X+X+X    +X+X+X+X+X* p ..*.U.U.U.U.U.U.*.k   +X+X+X+X+X+X+X+X+X+X+X+X+X+X+X+X+X+X+X+X+X+X+X+X+X+X+X+X+X+X+X+X+X",
"+X+X+X+X+X+X+X+X+X+Xo g   +Xo ; f X.&.L.U.U.U.U.U.U.U.U.$.j   +X+X+X+X+X+X+X+X+X+X+X+X+X+X+X+X+X+X+X+X+X+X+X+X+X+X+X+X+X+X+X+X+X",
"+X+X+X+X+X+X+X+X+X* @.| * j $.K.U.U.U.U.U.U.U.U.U.U.U.U.O.h   +X+X+X+X+X+X+X+X+X+X+X+X+X+X+X+X+X+X+X+X+X+X+X+X+X+X+X+X+X+X+X+X+X",
"+X+X+X+X+X+X+X+X- &.U.K.U.U.U.U.U.U.U.U.U.U.U.U.U.U.U.U. .h   +X+X+X+X+X+X+X+X+X+X+X+X+X+X+X+X+X+X+X+X+X+X+X+X+X+X+X+X+X+X+X+X+X",
"+X+X+X+X+X+X  s =.U.U.U.U.U.U.U.U.U.U.U.U.U.U.U.U.U.U.=.| d   +X+X+X+X+X+X+X+X+X+X+X+X+X+X+X+X+X+X+X+X+X+X+X+X+X+X+X+X+X+X+X+X+X",
"+X+X+X+X+X  g U.U.U.U.U.U.U.U.U.U.U.U.U.U.U.U.U.U.U.U.$.| p +X+X+X+X+X+X+X+X+X+X+X+X+X+X+X+X+X+X+X+X+X+X+X+X+X+X+X+X+X+X+X+X+X+X",
"+X+X+X+X  h I.U.U.U.U.U.U.U.U.U.U.U.U.U.U.U.U.U.U.U.P.X.| * +X+X+X+X+X+X+X+X+X+X+X+X+X+X+X+X+X+X+X+X+X+X+X+X+X+X+X+X+X+X+X+X+X+X",
"+X+X+Xo [ W.R.T.U.U.U.U.U.U.U.U.U.U.U.U.U.U.U.U.U.U.=. .[ o +X+X+X+X+X+X+X+X+X+X+X+X+X+X+X+X+X+X+X+X+X+X+X+X+X+X+X+X+X+X+X+X+X+X",
"+X+X  +.W.^.Q.E.Y.U.U.U.U.U.U.U.Y.Y.U.U.U.U.U.U.U.U.&.| k   +X+X+X+X+X+X+X+X+X+X+X+X+X+X+X+X+X+X+X+X+X+X+X+X+X+X+X+X+X+X+X+X+X+X",
"+X  +.Q.^.^.^.^.^.~.!.W.W.E.R.Y.T.U.U.U.U.U.U.U.U.U.o.| p +X+X+X+X+X+X+X+X+X+X+X+X+X+X+X+X+X+X+X+X+X+X+X+X+X+X+X+X+X+X+X+X+X+X+X",
"  k R.!.Q.~.~.~.Q.W.E.R.T.U.U.U.U.U.U.U.U.U.U.U.U.*. .{   +X+X+X+X+X+X+X+X+X+X+X+X+X+X+X+X+X+X+X+X+X+X+X+X+X+X+X+X+X+X+X+X+X+X+X",
"  ..U.T.T.Y.Y.Y.T.U.U.U.U.U.U.U.U.U.U.U.U.U.U.U.=.X.| d   +X+X+X+X+X+X+X+X+X+X+X+X+X+X+X+X+X+X+X+X+X+X+X+X+X+X+X+X+X+X+X+X+X+X+X",
"  [ U.U.U.U.U.U.U.U.U.U.U.U.U.U.U.U.U.U.U.U.U.L.@.@.{ o   +X+X+X+X+X+X+X+X+X+X+X+X+X+X+X+X+X+X+X+X+X+X+X+X+X+X+X+X+X+X+X+X+X+X+X",
"  { U.U.U.U.U.U.U.U.U.U.U.U.U.U.U.U.U.U.U.U.U.P.P.K.g   +X+X+X+X+X+X+X+X+X+X+X+X+X+X+X+X+X+X+X+X+X+X+X+X+X+X+X+X+X+X+X+X+X+X+X+X",
"  k I.U.U.U.U.U.U.U.U.U.U.U.U.U.U.U.U.U.U.U.U.U.U.K.;   +X+X+X+X+X+X+X+X+X+X+X+X+X+X+X+X+X+X+X+X+X+X+X+X+X+X+X+X+X+X+X+X+X+X+X+X",
"  h | P.U.U.U.U.P.L.U.U.U.U.U.U.U.U.U.U.U.U.U.U.U.L.X.f   +X+X+X+X+X+X+X+X+X+X+X+X+X+X+X+X+X+X+X+X+X+X+X+X+X+X+X+X+X+X+X+X+X+X+X",
"  * ; *.$.U.U.P.O.L.U.=.=.U.U.U.U.U.U.U.U.U.U.U.U.U.%.* +X+X+X+X+X+X+X+X+X+X+X+X+X+X+X+X+X+X+X+X+X+X+X+X+X+X+X+X+X+X+X+X+X+X+X+X",
"    =  .s U.%.h o.@. .s $.U.U.U.U.U.U.L.L.U.U.U.=.@.;   +X+X+X+X+X+X+X+X+X+X+X+X+X+X+X+X+X+X+X+X+X+X+X+X+X+X+X+X+X+X+X+X+X+X+X+X",
"    - p   $.; * = o :   @.U.U.=.$.U.U.$.&.U.U.o.s * 2 5 4 . +X+X+X+X+X+X+X+X+X+X+X+X+X+X    +X+X+X+X+X+X+X+X+X+X+X+X+X+X+X+X+X+X",
"+X+Xo     %.X.s   z 9.  $.U.U.*.{ U.U...*.&.L.g $ 4 F e.r.2 +X+X+X+X+X+X+X+X+X+X+X  2 2 1 2 +X+X+X+X+X+X+X+X+X+X+X+X+X+X+X+X+X+X",
"+X+X+X    .. .* ,.OX/.  L.=.%.%.s *.U.g $. .h @.# H y.y.y.$ +X+X+X+X+X+X+X+X+X+ A w.y.y.t.F   +X+X+X+X+X+X+X+X+X+X+X+X+X+X+X+X+X",
"+X+X+X    p * : ;.x   f O.j =.O.* %.%.f | @.O O o + 5 G G     +X+XO O     4 J t.J D 5 5 V 1 .   +X+X+X+X+X+X+X+X+X+X+X+X+X+X+X+X",
"+X+X+X  > 8 ' ` ` b O s = h =.| * &.X.d h g s Z 3 >.).q.9 6 % .   n 5.m : 4 Z C C S H w.r.w.w.2 +X+X+X+X+X+X+X+X+X+X+X+X+X+X+X+X",
"+X+X+X+X2.|.oXoXoX.XF.x   h *.- = *.h f f X = . 5.'.'.-./.d.d.^ 6 >./.6.B 0 e.r.y.y.y.y.y.H C + +X+X+X+X+X+X+X+X+X+X+X+X+X+X+X+X",
"+X+X+X+Xf.oXoXoXoXoXoX`.y h  .* - L.- s o 5 H e (.>.: O ].d.M.i.t 5./.8.N 0 y.y.y.y.y.y.t.G 4 . +X+X+X+X+X+X+X+X+X+X+X+X+X+X+X+X",
"+X+X+X+X1.oXoXoXoXoXoX}.` p p ; ; *.  1 C w.F g.N '.8.[.,.v.V.a.t 6._.8.-.> Z e.y.y.y.y.y.y.y.C +X+X+X+X+X+X+X+X+X+X+X+X+X+X+X+X",
"+X+X+X+X+XS.XXoXoXoXoX{.' O s * f | 4 A G t.F g.p.i :.i d.B.m.u.r 0._.6.N y ` > 5 r.y.y.t.Z $ . +X+X+X+X+X+X+X+X+X+X+X+X+X+X+X+X",
"+X+X+X+X+Xo ' `..XoXoXD.U . =   j X S D H y.e.6 b.V.m.V.B.B.x.( y (.).;.B ' S.3.U @ S r.y.y.w.4 +X+X+X+X+X+X+X+X+X+X+X+X+X+X+X+X",
"+X+X+X+X+X+X` {..XXX`.3.>       p 5 t.H w.y.y.$ e T p.h.z.c.u.T v _.9.-.s F..X XF.2.b 0 Z S F 2 +X+X+X+X+X+X+X+X+X+X+X+X+X+X+X+X",
"+X+X+X+X+X+X+XU `.S.1.Y 2 V 5 o o w.y.t.t.y.y.4 ^ I l % L e 7 @ >./.>.x X ' `..XoX XG.4.b #     +X+X+X+X+X+X+X+X+X+X+X+X+X+X+X+X",
"+X+X+X+X+X+X+X+Xb < 2 J y.y.J   1 y.y.e.t.y.y.5 % ;.y i.d./ ~ + m :.x O     8 1.{.oXoX XD.1.>   O y +X+X+X+X+X+X+X+X+X+X+X+X+X+X",
"+X+X+X+X+X+X+X+X+X+X. Z F J A $ G S A S r.y.y.5 N N L N.p.v.h.~ P e     +X+X+X+X  U G..XoX.X`.1.f.`.4.b O +X+X+X+X+X+X+X+X+X+X+X",
"+X+X+X+X+X+X+X+X+X+X+X    + + A t.y.r.t.y.y.e.2 :.y x.b.v.B.N.p./ / e +X+X+X+X+X+X+X  : 3.|.oXoXoXoXXX}.4.y +X+X+X+X+X+X+X+X+X+X",
"+X+X+X+X+X+X+X+X+X+X+X+X+X+X2 Z S t.y.y.y.t.F c c R N.N.V.B.B.h./ / ^ X +X  +X+X+X+X+X+XX y F.oXoXoXoXoX}.f.c +X+X+X+X+X+X+X+X+X",
"+X+X+X+X+X+X+X+X+X+X+X+X+X+XV w.J r.y.y.t.H 0 -.e z.B.B.B.B.B.x./ / / K   m N o +X+X+X+X+X+X<.oXoXoXoXoX Xf.v +X+X+X+X+X+X+X+X+X",
"+X+X+X+X+X+X+X+X+X+X+X+X+X+X2 t.y.y.y.y.H 2 :.8 j.V.B.B.B.B.V.d./ / / % x 9.5.z   +X+X+X+X+Xb .XXXoXXX.XoX3.# +X+X+X+X+X+X+X+X+X",
"+X+X+X+X+X+X+X+X+X+X+X+X+X+X. H y.y.t.H 1 a ,.K B.B.B.C.B.B.z.u./ / e B /.0.;.-.# +X+X+X+X+X+XG.G.G.XX X1.9 +X+X+X+X+X+X+X+X+X+X",
"+X+X+X+X+X+X+X+X+X+X+X+X+X+X+X+ Z G 4 + : 7.< U ] ] _ s.i.i.~ ~ ~ % -././.;.} n   +X+X+X+X+X+X8 y +Xb f.G.+X+X+X+X+X+X+X+X+X+X+X",
"+X+X+X+X+X+X+X+X+X+X+X+X+X+X+X+X+X+X+X+X} } # M ;.,.5.7.0.7.5.m # ,./.9.>.` n O   +X+X+X+X+X+X+X+X+X+X+X  +X+X+X+X+X+X+X+X+X+X+X",
"+X+X+X+X+X+X+X+X+X+X+X+X+X+X+X+X+X+X+X+X< O 7 a./ ) P u w , 8 c 5./.9.>.+.M #   o   +X+X+X+X+X+X+X+X+X+X+X+X+X+X+X+X+X+X+X+X+X+X",
"+X+X+X+X+X+X+X+X+X+X+X+X+X+X+X+X+X+X+X+X+X+XX v.b.j./ P u v ,.0./.9.>.-.U < < o : :   +X+X+X+X+X+X+X+X+X+X+X+X+X+X+X+X+X+X+X+X+X",
"+X+X+X+X+X+X+X+X+X+X+X+X+X+X+X+X+X+X+X+X+X+X  t t q y M ,.(.(./.8.;.} } < a l # : a :   +X+X+X+X+X+X+X+X+X+X+X+X+X+X+X+X+X+X+X+X",
"+X+X+X+X+X+X+X+X+X+X+X+X+X+X+X+X+X+X+X+X+X  N >.7.(.'.'._./.8.>.:.} M # x N x : a l , :   +X+X+X+X+X+X+X+X+X+X+X+X+X+X+X+X+X+X+X",
"+X+X+X+X+X+X+X+X+X+X+X+X+X+X+X+X+X+X+X+X+X  >./.).).9.6.,.:.U +.N l O m N N z : l N z a O   +X+X+X+X+X+X+X+X+X+X+X+X+X+X+X+X+X+X",
"+X+X+X+X+X+X+X+X+X+X+X+X+X+X+X+X+X+X+X+X+X+Xl 5.,.>.;.-.:.} } n , < n } } M a O m N M z , :   +X+X+X+X+X+X+X+X+X+X+X+X+X+X+X+X+X",
"+X+X+X+X+X+X+X+X+X+X+X+X+X+X+X+X+X+X+X+X+X  o m B B M B n s , , x N N N N n : , N N N N z a < o +X+X+X+X+X+X+X+X+X+X+X+X+X+X+X+X",
"+X+X+X+X+X+X+X+X+X+X+X+X+X+X+X+X+X+X+X+X  , ,   X O O : 8 v M N N N N N n , , M N N N N N n a , O             +X+X+X+X+X+X+X+X+X",
"+X+X+X+X+X+X+X+X+X+X+X+X+X+X+X+X+X+X+X+X, } M m m B N N U N N N N N B l , : m N N N N N N N m a 8 o r ^ u./ T e % . +X+X+X+X+X+X",
"+X+X+X+X+X+X+X+X+X+X+X+X+X+X+X+X+X+X  < N N } N N N N N N N N N n l 8 =   o l B } } U N N N N n < T M.B.B.B.N.z.p.^ K X . & . +X",
"+X+X+X+X+X+X+X+X+X+X+X+X+X+X+X+X+X+X< M } N N N } U N N N M n l 8 < o +X+X+X+X  , n B N N N N z r n.Z.Z.B.V.B.B.Z.x.u.K X w X +X",
"+X+X+X+X+X+X+X+X+X+X+X+X  +X+X+X+XO M U } N } } N M B n c , , # o   +X+X+X+X+X+X+X+X# < , l z 6 k.H.J.J.A.C.b.c.x.h./ 6 i u X +X",
"+X+X+X+X+X+X+X+X+X+X+X+X+X  @     a N U N M B n z l > < # o     +X+X+X+X+X+X+X+X+X+X+X+X+X    T _ ) R P K e r 6 @   I Q W I @ +X",
"+X+X+X+X+X+X+X+X+X+X+X+X+X. ~ T e > < d x z a , : * o         +X+X+X+X+X+X+X+X+X+X+X+X+X+X    +X+X+X+X+X+X+X+X+X+X+Xi W W E & +X",
"+X+X+X+X+X+X+X+X+X+X+X+X+X+XK J.H.B.z.P . , : o   +X+X+X+X+X+X+X+X+X+X+X+X+X+X+X+X+X+X+X+X+X+X+X+X+X+X+X+X+X+X+X+X+XX Q W W 7   ",
"+X+X+X+X+X+X+X+X+X+X+X+X+X+X+X_ H.Z.B.b.t   +X+X+X+X+X+X+X+X+X+X+X+X+X+X+X+X+X+X+X+X+X+X+X+X+X+X+X+X+X+X+X+X+X+X+X+X+X7 W W u   ",
"+X+X+X+X+X+X+X+X+X+X+X+X+X+X+Xe l.A.B.N./ X +X+X+X+X+X+X+X+X+X+X+X+X+X+X+X+X+X+X+X+X+X+X+X+X+X+X+X+X+X+X+X+X+X+X+X+X+XX ! W i   ",
"+X+X+X+X+X+X+X+X+X+X+X+X+X+X+X+Xe A.B.B.h.q +X+X+X+X+X+X+X+X+X+X+X+X+X+X+X+X+X+X+X+X+X+X+X+X+X+X+X+X+X+X+X+X+X+X+X+X+XX I E w   ",
"+X+X+X+X+X+X+X+X+X+X+X+X+X+X+X+X+Xa.C.Z.v.P +X+X+X+X+X+X+X+X+X+X+X+X+X+X+X+X+X+X+X+X+X+X+X+X+X+X+X+X+X+X+X+X+X+X+X+X+X  X X   +X",
"+X+X+X+X+X+X+X+X+X+X+X+X+X+X+X+X+X% m.B.m.(   +X+X+X+X+X+X+X+X+X+X+X+X+X+X+X+X+X+X+X+X+X+X+X+X+X+X+X+X+X+X+X+X+X+X+X+X+X+X+X+X+X",
"+X+X+X+X+X+X+X+X+X+X+X+X+X+X+X+X+X+XT m.m.u.@ +X+X+X+X+X+X+X+X+X+X+X+X+X+X+X+X+X+X+X+X+X+X+X+X+X+X+X+X+X+X+X+X+X+X+X+X+X+X+X+X+X",
"+X+X+X+X+X+X+X+X+X+X+X+X+X+X+X+X+X+X  / b./ % +X+X+X+X+X+X+X+X+X+X+X+X+X+X+X+X+X+X+X+X+X+X+X+X+X+X+X+X+X+X+X+X+X+X+X+X+X+X+X+X+X",
"+X+X+X+X+X+X+X+X+X+X+X+X+X+X+X+X+X+X+Xq p./ 6 7 @ . +X+X+X+X+X+X+X+X+X+X+X+X+X+X+X+X+X+X+X+X+X+X+X+X+X+X+X+X+X+X+X+X+X+X+X+X+X+X",
"+X+X+X+X+X+X+X+X+X+X+X+X+X+X+X+X+X+X+X+X6 q @ i u & +X+X+X+X+X+X+X+X+X+X+X+X+X+X+X+X+X+X+X+X+X+X+X+X+X+X+X+X+X+X+X+X+X+X+X+X+X+X",
"+X+X+X+X+X+X+X+X+X+X+X+X+X+X+X+X+X+X+X+Xi i I I w O +X+X+X+X+X+X+X+X+X+X+X+X+X+X+X+X+X+X+X+X+X+X+X+X+X+X+X+X+X+X+X+X+X+X+X+X+X+X",
"+X+X+X+X+X+X+X+X+X+X+X+X+X+X+X+X+X+X+XX E W W u X +X+X+X+X+X+X+X+X+X+X+X+X+X+X+X+X+X+X+X+X+X+X+X+X+X+X+X+X+X+X+X+X+X+X+X+X+X+X+X",
"+X+X+X+X+X+X+X+X+X+X+X+X+X+X+X+X+X+X  # W W E @ +X+X+X+X+X+X+X+X+X+X+X+X+X+X+X+X+X+X+X+X+X+X+X+X+X+X+X+X+X+X+X+X+X+X+X+X+X+X+X+X",
"+X+X+X+X+X+X+X+X+X+X+X+X+X+X+X+X+X+XX i W W u   +X+X+X+X+X+X+X+X+X+X+X+X+X+X+X+X+X+X+X+X+X+X+X+X+X+X+X+X+X+X+X+X+X+X+X+X+X+X+X+X",
"+X+X+X+X+X+X+X+X+X+X+X+X+X+X+X+X+X  w Q W i . +X+X+X+X+X+X+X+X+X+X+X+X+X+X+X+X+X+X+X+X+X+X+X+X+X+X+X+X+X+X+X+X+X+X+X+X+X+X+X+X+X",
"+X+X+X+X+X+X+X+X+X+X+X+X+X+X+X+X+X+X  & i . +X+X+X+X+X+X+X+X+X+X+X+X+X+X+X+X+X+X+X+X+X+X+X+X+X+X+X+X+X+X+X+X+X+X+X+X+X+X+X+X+X+X",
"+X+X+X+X+X+X+X+X+X+X+X+X+X+X+X+X+X+X+X+X  +X+X+X+X+X+X+X+X+X+X+X+X+X+X+X+X+X+X+X+X+X+X+X+X+X+X+X+X+X+X+X+X+X+X+X+X+X+X+X+X+X+X+X"
};
