/* XPM */
static char *result[] = {
/* columns rows colors chars-per-pixel */
"64 69 201 2 ",
"   c #020202",
".  c #0A0503",
"X  c #0C0A03",
"o  c #040B0C",
"O  c #0C0C0C",
"+  c #030708",
"@  c #130504",
"#  c #1C0705",
"$  c #130E04",
"%  c #160C0C",
"&  c #161102",
"*  c #1C1602",
"=  c #18140B",
"-  c #060F10",
";  c #071113",
":  c #0A1416",
">  c #0A1A1C",
",  c #081618",
"<  c #141313",
"1  c #191516",
"2  c #1D1A14",
"3  c #1D1C1C",
"4  c #230807",
"5  c #2C0B09",
"6  c #270A08",
"7  c #350C0A",
"8  c #3A0E0B",
"9  c #231A02",
"0  c #211C0B",
"q  c #2A1B04",
"w  c #39110C",
"e  c #221E1B",
"r  c #361614",
"t  c #2C240E",
"y  c #2B2206",
"u  c #3C2E03",
"i  c #322808",
"p  c #272217",
"a  c #362E14",
"s  c #3C310F",
"d  c #0C1F21",
"f  c #1F1E20",
"g  c #201F21",
"h  c #0D2224",
"j  c #0E262A",
"k  c #10292D",
"l  c #142224",
"z  c #122E31",
"x  c #133135",
"c  c #15363A",
"v  c #16393E",
"b  c #232323",
"n  c #2D2A22",
"m  c #2C2B2C",
"M  c #282727",
"N  c #322E27",
"B  c #3B352A",
"V  c #393327",
"C  c #333233",
"Z  c #393738",
"A  c #3D3B3C",
"S  c #383335",
"D  c #312F30",
"F  c #410F0C",
"G  c #44100D",
"H  c #4C120E",
"J  c #52130F",
"K  c #531410",
"L  c #5C1512",
"P  c #6B1914",
"I  c #651814",
"U  c #721A15",
"Y  c #7A1C17",
"T  c #7E1E18",
"R  c #423204",
"E  c #4A3805",
"W  c #523F04",
"Q  c #4B3E18",
"!  c #443816",
"~  c #43261E",
"^  c #443E31",
"/  c #443C28",
"(  c #5B4606",
")  c #5C4D1E",
"_  c #55461B",
"`  c #4D4019",
"'  c #674E06",
"]  c #715605",
"[  c #7B5D05",
"{  c #765B0A",
"}  c #685316",
"|  c #72590E",
" . c #7F6005",
".. c #4C4537",
"X. c #554C3D",
"o. c #5B523A",
"O. c #183E43",
"+. c #173C41",
"@. c #194045",
"#. c #1A444A",
"$. c #1C494F",
"%. c #1E4D53",
"&. c #1F5158",
"*. c #21555C",
"=. c #22585F",
"-. c #245D65",
";. c #2B5C63",
":. c #26636B",
">. c #28676F",
",. c #296A73",
"<. c #2A6B74",
"1. c #2C737D",
"2. c #3C6E75",
"3. c #424242",
"4. c #4B4B4B",
"5. c #484649",
"6. c #545353",
"7. c #5C5A59",
"8. c #56524E",
"9. c #665C49",
"0. c #615A50",
"q. c #6E654C",
"w. c #746953",
"e. c #7E725A",
"r. c #5F5C60",
"t. c #605D61",
"y. c #686868",
"u. c #737373",
"i. c #7C7C7C",
"p. c #706F6E",
"a. c #831F19",
"s. c #881F1A",
"d. c #8D211B",
"f. c #93221C",
"g. c #9D241E",
"h. c #A3261F",
"j. c #805E07",
"k. c #866507",
"l. c #9B7708",
"z. c #8F7012",
"x. c #A47D07",
"c. c #82755D",
"v. c #897C62",
"b. c #AA8207",
"n. c #A9820C",
"m. c #B18607",
"M. c #B78C0B",
"N. c #BE9108",
"B. c #AF8918",
"V. c #C49508",
"C. c #CB9A09",
"Z. c #D19F08",
"A. c #DBA609",
"S. c #D4A109",
"D. c #E2AB09",
"F. c #EBB20A",
"G. c #F6BA0A",
"H. c #F9BD0A",
"J. c #F2B70A",
"K. c #DEB53C",
"L. c #E3B630",
"P. c #F8C52D",
"I. c #95876B",
"U. c #A49475",
"Y. c #AC9B7B",
"T. c #FBCD47",
"R. c #F7CE56",
"E. c #2D7680",
"W. c #2F7A84",
"Q. c #307C86",
"!. c #317E89",
"~. c #32828D",
"^. c #3B8893",
"/. c #428C96",
"(. c #468F99",
"). c #4B919C",
"_. c #4B8C95",
"`. c #5C9BA5",
"'. c #5698A1",
"]. c #629FA8",
"[. c #609EA7",
"{. c #63A0A9",
"}. c #838383",
"|. c #8C8C8B",
" X c #999999",
".X c #939393",
"XX c #B9A785",
"oX c #AAAAAA",
"OX c #C4B18D",
"+X c #D1BD96",
"@X c #C6B38E",
"#X c #D6C199",
"$X c #DAC59C",
"%X c #DFCAA0",
"&X c #E2CCA2",
"*X c #EDD6AA",
"=X c #EFD8AB",
"-X c #E8D2A6",
";X c #F0D9AC",
":X c #CBCBCB",
">X c None",
/* pixels */
">X>X>X>X>X>X>X>X>X>X>X>X>X>X>X>X>X>X>X>X>X>X>X>X>X>X>X>X>X  >X>X>X>X>X>X>X>X>X>X>X>X>X>X>X>X>X>X>X>X>X>X>X>X>X>X>X>X>X>X>X>X>X>X",
">X>X>X>X>X>X>X>X>X>X>X>X>X>X>X>X>X>X>X>X>X>X>X>X>X>X>X>X    >X>X>X>X>X>X>X>X>X>X>X>X>X>X>X>X>X>X>X>X>X>X>X>X>X>X>X>X>X>X>X>X>X>X",
">X>X>X>X>X>X>X>X>X>X>X>X>X>X>X>X>X>X>X>X>X>X>X>X>X>X  o k + >X>X>X>X>X>X>X>X>X>X>X>X>X>X>X>X>X>X>X>X>X>X>X>X>X>X>X>X>X>X>X>X>X>X",
">X>X>X>X>X>X>X>X>X>X>X>X>X>X>X>X>X>X>X>X>X>X>X>X>X+ k >.*.+ >X>X>X>X>X>X>X>X>X>X>X>X>X>X>X>X>X>X>X>X>X>X>X>X>X>X>X>X>X>X>X>X>X>X",
">X>X>X>X>X>X>X>X>X>X>X>X>X>X>X>X>X>X>X>X>X>X>X+ d *.W.~.%.o >X>X>X>X>X>X>X>X>X>X>X>X>X>X>X>X>X>X>X>X>X>X>X>X>X>X>X>X>X>X>X>X>X>X",
">X>X>X>X>X>X>X>X>X>X>X>X>X>X>X>X>X>X>X>X>X  d -.E.~.~.!.#.o >X>X>X>X>X>X>X>X>X>X>X>X>X>X>X>X>X>X>X>X>X>X>X>X>X>X>X>X>X>X>X>X>X>X",
">X>X>X>X>X>X>X>X>X>X>X    >X>X>X>X>X>X+ h &.W.~.~.~.~.W.+.o >X>X>X>X>X>X>X>X>X>X>X>X>X>X>X>X>X>X>X>X>X>X>X>X>X>X>X>X>X>X>X>X>X>X",
">X>X>X>X>X>X>X>X>X>X    >X>X>X>X  + j -.W.~.~.~.~.~.~.<.v o >X>X>X>X>X>X>X>X>X>X>X>X>X>X>X>X>X>X>X>X>X>X>X>X>X>X>X>X>X>X>X>X>X>X",
">X>X>X>X>X>X>X>X>X  > z     o k &.1.~.~.~.~.~.~.~.~.~.>.c + >X>X>X>X>X>X>X>X>X>X>X>X>X>X>X>X>X>X>X>X>X>X>X>X>X>X>X>X>X>X>X>X>X>X",
">X>X>X>X>X>X>X>X  j W.#.$.>.W.~.~.~.~.~.~.~.~.~.~.~.~.&.c + >X>X>X>X>X>X>X>X>X>X>X>X>X>X>X>X>X>X>X>X>X>X>X>X>X>X>X>X>X>X>X>X>X>X",
">X>X>X>X>X>X>X+ c !.~.~.~.~.~.~.~.~.~.~.~.~.~.~.~.~.W.%.x   >X>X>X>X>X>X>X>X>X>X>X>X>X>X>X>X>X>X>X>X>X>X>X>X>X>X>X>X>X>X>X>X>X>X",
">X>X>X>X>X>X- -.~.~.~.~.~.~.~.~.~.~.~.~.~.~.~.~.~.~.1.#.j   >X>X>X>X>X>X>X>X>X>X>X>X>X>X>X>X>X>X>X>X>X>X>X>X>X>X>X>X>X>X>X>X>X>X",
">X>X>X>X>Xo -.~.~.~.~.~.~.~.~.~.~.~.~.~.~.~.~.~.~.~.>.@.h >X>X>X>X>X>X>X>X>X>X>X>X>X>X>X>X>X>X>X>X>X>X>X>X>X>X>X>X>X>X>X>X>X>X>X",
">X>X>X>X; ;.~.~.~.~.~.~.~.~.~.~.~.~.~.~.~.~.~.~.~.~.=.@.: >X>X>X>X>X>X>X>X>X>X>X>X>X>X>X>X>X>X>X>X>X>X>X>X>X>X>X>X>X>X>X>X>X>X>X",
">X>X  : 2.`.'./.^.~.~.~.~.~.~.~.~.~.~.~.~.~.~.~.~.W.%.v o >X>X>X>X>X>X>X>X>X>X>X>X>X>X>X>X>X>X>X>X>X>X>X>X>X>X>X>X>X>X>X>X>X>X>X",
">X  j 2.].{.{.{.`.).(.(./.^./.^.^.~.~.~.~.~.~.~.~.<.#.j   >X>X>X>X>X>X>X>X>X>X>X  >X>X>X>X>X>X>X>X>X>X>X>X>X>X>X>X>X>X>X>X>X>X>X",
"  : _.'.[.].].[.`.`.`.).(.^.^.~.~.~.~.~.~.~.~.~.!.&.@.; >X>X>X>X>X>X>X>X>X>X>X. # 7 >X>X>X>X>X>X>X>X>X>X>X>X>X>X>X>X>X>X>X>X>X>X",
"  c ~.^./.).)._./.^.~.~.~.~.~.~.~.~.~.~.~.~.~.~.<.#.c + >X>X>X>X>X>X>X>X>X>X# G U Y   >X>X>X>X>X>X>X>X>X>X>X>X>X>X>X>X>X>X>X>X>X",
">Xz ~.~.~.~.~.~.~.~.~.~.~.~.~.~.~.~.~.~.~.~.~.:.&.#.d   >X>X>X>X>X>X>X>X>X@ Y h.d.@ # >X>X>X>X>X>X>X>X>X>X>X>X>X>X>X>X>X>X>X>X>X",
">Xz ~.~.~.~.~.~.~.~.~.~.~.~.~.~.~.~.~.~.~.~.Q.E.W.$.+ >X>X>X>X>X>X>X>X>X@ U h.h.f.I h.8 >X>X>X>X>X>X>X>X>X>X>X>X>X>X>X>X>X>X>X>X",
">Xk W.~.~.~.~.~.~.~.~.~.~.~.~.~.~.~.~.~.~.~.~.~.~.v   >X>X>X>X>X>X>X>X@ U h.h.h.h.g.7 4 @ >X>X>X>X>X>X>X>X>X>X>X>X>X>X>X>X>X>X>X",
">Xk +.>.~.~.~.~.~.E.~.~.~.~.~.~.~.~.~.~.~.~.~.~.~.&.z + >X>X>X>X>X>X@ I h.h.h.h.h.h.Y g.K   >X>X>X>X>X>X>X>X>X>X>X>X>X>X>X>X>X>X",
">X; ; :.>.~.~.W.*.W.!.1.!.~.~.~.~.~.~.~.~.~.~.~.~.W.z   >X>X>X>X>X. U g.h.h.h.h.h.h.f.G     >X>X>X>X>X>X>X>X>X>X>X>X>X>X>X>X>X>X",
">X  + %.x W.>.v &.-.#.h E.~.~.~.~.~.~.W.~.~.~.W.,.x + >X>X>X>X>X4 P h.h.h.h.h.g.d.I 7 #   >X>X>X>X>X>X>X>X>X>X>X>X>X>X>X>X>X>X>X",
">X    k - *.d : > o <   E.~.~.1.1.~.~.%.~.~.,.c d # 8 5 @ >X@ 7 Y g.h.h.h.f.Y K 7 6 8 5   >X>X>X>X>X>X>X>X>X>X>X>X>X>X>X>X>X>X>X",
">X>X>X+   =.*.h + 4.p.  W.~.!.-.&.~.E.+.W.-.-.@ 7 P s.f.8 # G 7 r w G P I G 5 8 I f.K L H >X>X>X>X>X>X>X>X>X>X>X>X>X>X>X>X>X>X>X",
">X>X>X    c @.l p.:XZ h W.*.1.&.O.Q.&.x <.d $.d w f.h.f.4 4 6 D y.4.3 4 5 G Y g.h.h.h.a.G   >X>X>X>X>X>X>X>X>X>X>X>X>X>X>X>X>X>X",
">X>X>X    > > b 6.Z   O.%.v E.@.v W.c c $.j o , O G L 8 $ $ X D }.p.Z 1 U g.h.h.h.h.T @     >X>X>X>X>X>X>X>X>X>X>X>X>X>X>X>X>X>X",
">X>X>X>Xn B w.e.e.w.+ h o %.W.h +.1.d O.d c 5 r i. Xp.' b.k.] p }.}.4.M 6 K Y Y L #   >X>X>X>X>X>X>X>X>X>X>X>X>X>X>X>X>X>X>X>X>X",
">X>X>X>Xq.$X;X;X=X*XXXV + &.-.o O.:., v - # + u.:Xi.y.q.D.A. .p  X}.6.S B ..N = +   >X>X>X>X>X>X>X>X>X>X>X>X>X>X>X>X>X>X>X>X>X>X",
">X>X>X>Xc.;X;X;X=X=X=XY.e %.j ; %.%.- O 7 f.q }.6.. u.w.A.G.k.9 .X|.4.S w.XXU.v.w.o.B 2 + >X>X2 B p % >X>X>X>X>X>X>X>X>X>X>X>X>X",
">X>X>X>XB #X;X;X=X=X;XXXV ; j ; &.j 5 K P g.j.a }.oX|.| G.J.[ q }.|.5.m I.;X;X;X*X$XOXY.v.9...v.#XOXU.w.^ >X>X>X>X>X>X>X>X>X>X>X",
">X>X>X>X>X9.OX-X=X=X=XY.B + h ; #.= H J s.g.' x.} o.} S.H.D.k.9 i._.3.3 ^ c.U.OX+X&X*X*X%X+X@X#X;X*X-X#XU.V >X>X>X>X>X>X>X>X>X>X",
">X>X>X>X>X. 9.XX+X=X#Xe.3   + o l G U J g.h.8 l.C.Z.D.A.Z.x.W $ v.c.D O >X>X+ % p B X.w.U.XX&X*X;X;X;X*XY.N >X>X>X>X>X>X>X>X>X>X",
">X>X>X>X>X>Xe U.*X#Xv.X.. . . + % f.h.U h.h.K 9 i i y R u u u   M 1 +   >X>X>X>X>X>X>X>X  O I.*X;X;X;X$XOXp >X>X>X>X>X>X>X>X>X>X",
">X>X>X>X>X>X>Xn e...~ P Y a.K   K h.g.f.h.h.I q Q Z R l.[ [ [ R   >X>X>X>X>X>X>X>X>X>X>X>X>X^ +X+X#X-X$Xv.O >X>X>X>X>X>X>X>X>X>X",
">X>X>X>X>X>X>X>X>X>X7 Y d.f.F # P P I U h.h.P % 4.e m.x.m.m.j.[ y >X>X>X>X>X>X>X>X>X>X>X>X>X>XX.v.B X.w.e.>X>X>X>X>X>X>X>X>X>X>X",
">X>X>X>X>X>X>X>X>X>X  . 4 G # L d.U P a.h.h.I m A E D.m.F.F.k.[ ' . >X>X>X>X>X>X>X>X>X>X>X>X>X>Xp >X>X>X  >X>X>X>X>X>X>X>X>X>X>X",
">X>X>X>X>X>X>X>X>X>X>X>X>X@ 7 H d.h.h.h.h.d.8 3.e V.J.J.H.H.m.[ [ E   >X>X>X>X>X>X>X>X>X>X>X>X>X>X>X>X>X>X>X>X>X>X>X>X>X>X>X>X>X",
">X>X>X>X>X>X>X>X>X>X>X>X>X>XK I P g.h.h.g.K C 3 [ H.H.H.H.H.Z.[ [ [ 9   b 3 >X>X>X>X>X>X>X>X>X>X>X>X>X>X>X>X>XX . >X>X>X>X>X>X>X",
">X>X>X>X>X>X>X>X>X>X>X>X>X>XH h.h.h.h.g.L e 5.W D.H.H.H.H.H.m.[  .[ & m i.6.O >X>X>X>X>X>X>X>X>X>X>X>X>X>X>X  p t $   >X>X>X>X>X",
">X>X>X>X>X>X>X>X>X>X>X>X>X>X# d.h.h.f.J @ r.0 A.H.H.H.H.H.A.j.[ [ y 5.i.p.3.C   >X>X>X>X>X>X>X>X>X>X>X>X>X  & & a a = . >X>X>X>X",
">X>X>X>X>X>X>X>X>X>X>X>X>X>X  G a.U G @ M 4.0 z.z.B.N.V.V.l.] ] u Z i.i.6.3.g >X>X>X>X>X>X>X>X>X>X>X>X>X& E ' * ` ) ` t X >X>X>X",
">X>X>X>X>X>X>X>X>X>X>X>X>X>X>X>X@ @     t.: Z 5.4.6.6.7.0.8.V 9 4.i.i.7.3.m + >X>X>X>X>X>X>X>X>X>X>XX y [ l.n.i _ ) ) ) Q y . >X",
">X>X>X>X>X>X>X>X>X>X>X>X>X>X>X>X>X>X>X>Xf   k.j.{ ( a t 3 g b r.I.i.4.3.C O   O . >X>X>X>X>X>X>X>X* ( b.D.G.{ y ! Q ` ) ) _ . >X",
">X>X>X>X>X>X>X>X>X>X>X>X>X>X>X>X>X>X>X>X>X+ l.D.C.k.( s m 4.u.}.u.4.3.C 1 1 O 3 f < + >X>X>X>X>X& [ Z.H.H.N.X >X>XX X 0 ` a   >X",
">X>X>X>X>X>X>X>X>X>X>X>X>X>X>X>X>X>X>X>X>X  = q * e 3.u.|.|.}.p.;.3.S < D l < m b 3 3 O     >X  E A.H.H.H.R >X>X>X>X>X  X X >X>X",
">X>X>X>X>X>X>X>X>X>X>X>X>X>X>X>X>X>X>X>X>Xb 4.y.i..XoX X}.u.7.3.^ D % m A g O S A C b f 3 < O . x.H.H.P.n.>X>X>X>X>X>X>X    >X>X",
">X>X>X>X>X>X>X>X>X>X>X>X>X>X>X>X>X>X>X>X>Xm }.|..X}.p.7.5.3.3.3.g < Z A Z f < A A A A S b b f = V.H.P.L.* >X>X>X>X>X>X>X>X>X>X>X",
">X>X>X>X>X>X>X>X>X>X>X>X>X>X>X>X>X>X>X>X>X+ 6.4.5.3.3.3.3.3.m - g A A A C < b A A A A A A A S 2 x.T.R.( >X>X>X>X>X>X>X>X>X>X>X>X",
">X>X>X>X>X>X>X>X>X>X>X>X>X>X>X>X>X>X>X>X>X+ 3 C C C m b < < g Z A A A C 3 < A A A A A 3.A 3.A m } R.{ >X>X>X>X>X>X>X>X>X>X>X>X>X",
">X>X>X>X>X>X>X>X>X>X>X>X>X>X>X>X>X>X>X>X. m < < 1 3 b D A A A A A Z b 3 O D A ^ A 3.A A A A A m R l.X >X>X>X>X>X>X>X>X>X>X>X>X>X",
">X>X>X>X>X>X>X>X>X>X>X>X>X>X>X>X>X>X>X>Xb A Z Z A A A 3.A A A A C b 3 O + 3 m C S C C m M b 3 O 9 u >X>X>X>X>X>X>X>X>X>X>X>X>X>X",
">X>X>X>X>X>X>X>X>X>X>X>X>X>X>X>X>X    3 A ^ A A A A A ^ A A C b f O   >X>X>X  >X>X>X>X>X>X>X>X>X  >X>X>X>X>X>X>X>X>X>X>X>X>X>X>X",
">X>X>X>X>X>X>X>X>X>X>X>X>X>X>X>XR q 1 A A A A A A @.^ S m g 1 % +   >X>X>X>X>X>X>X>X>X>X>X>X>X>X>X>X>X>X>X>X>X>X>X>X>X>X>X>X>X>X",
">X>X>X>X>X>X>X>X>X>X>X>X>X>X>X9 B.! D A A 3.A A S m n g < O +   >X>X>X>X>X>X>X>X>X>X>X>X>X>X>X>X>X>X>X>X>X>X>X>X>X>X>X>X>X>X>X>X",
">X>X>X>X>X>X>X>X>X>X>X>X>X>X>X{ R.| D ^ A A m b e 3 O +   >X>X>X>X>X>X>X>X>X>X>X>X>X>X>X>X>X>X>X>X>X>X>X>X>X>X>X>X>X>X>X>X>X>X>X",
">X>X>X>X>X>X>X>X>X>X>X>X>X>Xi K.T.b.l A m g 3 < +     >X>X>X>X>X>X>X>X>X>X>X>X>X>X>X>X>X>X>X>X>X>X>X>X>X>X>X>X>X>X>X>X>X>X>X>X>X",
">X>X>X>X>X>X>X>X>X>X>X>X>XX B.T.H.C.= e f 1 + >X>X>X>X>X>X>X>X>X>X>X>X>X>X>X>X>X>X>X>X>X>X>X>X>X>X>X>X>X>X>X>X>X>X>X>X>X>X>X>X>X",
">X>X>X>X>X>X  >X>X>X>X>X>X' P.G.H.x.. O + >X>X>X>X>X>X>X>X>X>X>X>X>X>X>X>X>X>X>X>X>X>X>X>X>X>X>X>X>X>X>X>X>X>X>X>X>X>X>X>X>X>X>X",
">X>X>X>X>X. 0 X >X>X>X>XR G.H.H.Z.R   >X>X>X>X>X>X>X>X>X>X>X>X>X>X>X>X>X>X>X>X>X>X>X>X>X>X>X>X>X>X>X>X>X>X>X>X>X>X>X>X>X>X>X>X>X",
">X>X>X>X>Xt ) t . >X>X. N.H.H.A.] $ >X>X>X>X>X>X>X>X>X>X>X>X>X>X>X>X>X>X>X>X>X>X>X>X>X>X>X>X>X>X>X>X>X>X>X>X>X>X>X>X>X>X>X>X>X>X",
">X>X>X>X+ ! ) ) Q t & ( G.F.V.] 9 >X>X>X>X>X>X>X>X>X>X>X>X>X>X>X>X>X>X>X>X>X>X>X>X>X>X>X>X>X>X>X>X>X>X>X>X>X>X>X>X>X>X>X>X>X>X>X",
">X>X>X>X>X& ` ) ) ) i b.x.k.E $ >X>X>X>X>X>X>X>X>X>X>X>X>X>X>X>X>X>X>X>X>X>X>X>X>X>X>X>X>X>X>X>X>X>X>X>X>X>X>X>X>X>X>X>X>X>X>X>X",
">X>X>X>X>X>X$ ! _ ) 0 ' ( * >X>X>X>X>X>X>X>X>X>X>X>X>X>X>X>X>X>X>X>X>X>X>X>X>X>X>X>X>X>X>X>X>X>X>X>X>X>X>X>X>X>X>X>X>X>X>X>X>X>X",
">X>X>X>X>X>X>XX t Q t &   >X>X>X>X>X>X>X>X>X>X>X>X>X>X>X>X>X>X>X>X>X>X>X>X>X>X>X>X>X>X>X>X>X>X>X>X>X>X>X>X>X>X>X>X>X>X>X>X>X>X>X",
">X>X>X>X>X>X>X>XX t t = >X>X>X>X>X>X>X>X>X>X>X>X>X>X>X>X>X>X>X>X>X>X>X>X>X>X>X>X>X>X>X>X>X>X>X>X>X>X>X>X>X>X>X>X>X>X>X>X>X>X>X>X",
">X>X>X>X>X>X>X>X>XX t . >X>X>X>X>X>X>X>X>X>X>X>X>X>X>X>X>X>X>X>X>X>X>X>X>X>X>X>X>X>X>X>X>X>X>X>X>X>X>X>X>X>X>X>X>X>X>X>X>X>X>X>X",
">X>X>X>X>X>X>X>X>X>X  >X>X>X>X>X>X>X>X>X>X>X>X>X>X>X>X>X>X>X>X>X>X>X>X>X>X>X>X>X>X>X>X>X>X>X>X>X>X>X>X>X>X>X>X>X>X>X>X>X>X>X>X>X"
};
