/* XPM */
static char *result[] = {
/* columns rows colors chars-per-pixel */
"64 87 201 2 ",
"   c #020202",
".  c #0B0402",
"X  c #0C0903",
"o  c #040B0C",
"O  c #0C0C0B",
"+  c #030708",
"@  c #130403",
"#  c #1B0605",
"$  c #120D03",
"%  c #120D0C",
"&  c #1A0B09",
"*  c #151106",
"=  c #1B1501",
"-  c #1A1508",
";  c #1A160A",
":  c #060F10",
">  c #140F10",
",  c #071112",
"<  c #0A1B1D",
"1  c #091617",
"2  c #141414",
"3  c #1A1513",
"4  c #1C1C1C",
"5  c #1D1A16",
"6  c #240807",
"7  c #2C0A09",
"8  c #220908",
"9  c #310B09",
"0  c #3A0E0B",
"q  c #231D0B",
"w  c #261D03",
"e  c #34130A",
"r  c #221A16",
"t  c #321612",
"y  c #2C2102",
"u  c #2D250D",
"i  c #322603",
"p  c #3C2D03",
"a  c #342904",
"s  c #27231A",
"d  c #342B12",
"f  c #392F12",
"g  c #3D3315",
"h  c #3F3003",
"j  c #0C1E21",
"k  c #201F20",
"l  c #0D2225",
"z  c #0E2629",
"x  c #0F282A",
"c  c #102A2D",
"v  c #122E32",
"b  c #133236",
"n  c #143539",
"m  c #16383D",
"M  c #232223",
"N  c #2C2B2C",
"B  c #2B2723",
"V  c #322D29",
"C  c #383429",
"Z  c #343334",
"A  c #393738",
"S  c #3D3C3D",
"D  c #393735",
"F  c #312F30",
"G  c #45100D",
"H  c #4C120E",
"J  c #52130F",
"K  c #551410",
"L  c #5C1511",
"P  c #431410",
"I  c #631713",
"U  c #6C1915",
"Y  c #641813",
"T  c #731B16",
"R  c #7B1D17",
"E  c #473603",
"W  c #463A16",
"Q  c #573E05",
"!  c #443A2E",
"~  c #683A0A",
"^  c #5A4505",
"/  c #54451B",
"(  c #5D4D1E",
")  c #56481B",
"_  c #4F4219",
"`  c #634B05",
"'  c #604A08",
"]  c #6C5204",
"[  c #6C5308",
"{  c #7C5E05",
"}  c #735806",
"|  c #6D581C",
" . c #7F6005",
".. c #4A4335",
"X. c #554C3C",
"o. c #584F3F",
"O. c #534934",
"+. c #173C41",
"@. c #183E43",
"#. c #194146",
"$. c #1B464C",
"%. c #1E4C53",
"&. c #1F5057",
"*. c #21555C",
"=. c #26545A",
"-. c #235C63",
";. c #2C5F66",
":. c #26636C",
">. c #28666F",
",. c #296B74",
"<. c #2A6C75",
"1. c #2C727C",
"2. c #3A6B72",
"3. c #424242",
"4. c #4B4B4B",
"5. c #49474A",
"6. c #5C5445",
"7. c #545354",
"8. c #5B5B5B",
"9. c #59565A",
"0. c #514E51",
"q. c #665C49",
"w. c #605857",
"e. c #756A54",
"r. c #7E725B",
"t. c #6A6A6A",
"y. c #656565",
"u. c #737373",
"i. c #7C7C7C",
"p. c #72716E",
"a. c #841F19",
"s. c #881F1A",
"d. c #8B211B",
"f. c #94221C",
"g. c #9B241D",
"h. c #A4261F",
"j. c #846405",
"k. c #8D6B06",
"l. c #846507",
"z. c #916E06",
"x. c #987306",
"c. c #917216",
"v. c #A37C07",
"b. c #84785F",
"n. c #8A7C63",
"m. c #AC8307",
"M. c #B88C08",
"N. c #A98313",
"B. c #CC9B08",
"V. c #C29409",
"C. c #D19F09",
"Z. c #C89B16",
"A. c #DAA509",
"S. c #D9A509",
"D. c #E2AB09",
"F. c #ECB30A",
"G. c #F6BB0A",
"H. c #F9BD0A",
"J. c #F1B70A",
"K. c #F7BD10",
"L. c #D4AB2E",
"P. c #E8B92E",
"I. c #F9C117",
"U. c #FAC831",
"Y. c #96876B",
"T. c #9A8B6F",
"R. c #A89879",
"E. c #B09F7E",
"W. c #F8CC48",
"Q. c #FAD155",
"!. c #FCD870",
"~. c #2F7983",
"^. c #2E7781",
"/. c #317E89",
"(. c #307D87",
"). c #32828D",
"_. c #3E8994",
"`. c #388691",
"'. c #458E98",
"]. c #4E939D",
"[. c #5C9BA4",
"{. c #5396A0",
"}. c #619FA8",
"|. c #63A0A9",
" X c #838383",
".X c #8A8A8A",
"XX c #929292",
"oX c #9A9A9A",
"OX c #B8A684",
"+X c #A7A7A7",
"@X c #B9B9B9",
"#X c #CDB993",
"$X c #C9B690",
"%X c #D7C29A",
"&X c #E2CDA2",
"*X c #ECD5A9",
"=X c #EFD8AB",
"-X c #E8D2A6",
";X c #F0D9AC",
":X c #D2D2D2",
">X c None",
/* pixels */
">X>X>X>X>X>X>X>X>X>X>X>X>X>X>X>X>X>X>X>X>X>X>X>X>X>X>X>X>X>X>X>X>X>X>X>X>X>X>X>X>X>X>X>X>X>X>X>X>X>X>X>X>X>X>X>X>X>X>X>X>X>X>X>X",
">X>X>X>X>X>X>X>X>X>X>X>X>X>X>X>X>X>X>X>X>X>X>X>X>X>X>X>X>X>X>X>X>X  >X>X>X>X>X>X>X>X>X>X>X>X>X>X>X>X>X>X>X>X>X>X>X>X>X>X>X>X>X>X",
">X>X>X>X>X>X>X>X>X>X>X>X>X>X>X>X>X>X>X>X>X>X>X>X>X>X>X>X>X>X>X      >X>X>X>X>X>X>X>X>X>X>X>X>X>X>X>X>X>X>X>X>X>X>X>X>X>X>X>X>X>X",
">X>X>X>X>X>X>X>X>X>X>X>X>X>X>X>X>X>X>X>X>X>X>X>X>X>X>X>X>X>X+ c +.o >X>X>X>X>X>X>X>X>X>X>X>X>X>X>X>X>X>X>X>X>X>X>X>X>X>X>X>X>X>X",
">X>X>X>X>X>X>X>X>X>X>X>X>X>X>X>X>X>X>X>X>X>X>X>X>X>X>X>X  < %.^.$.o >X>X>X>X>X>X>X>X>X>X>X>X>X>X>X>X>X>X>X>X>X>X>X>X>X>X>X>X>X>X",
">X>X>X>X>X>X>X>X>X>X>X>X>X>X>X>X>X>X>X>X>X>X>X>X>X>X>Xo @.^.).).@.o >X>X>X>X>X>X>X>X>X>X>X>X>X>X>X>X>X>X>X>X>X>X>X>X>X>X>X>X>X>X",
">X>X>X>X>X>X>X>X>X>X>X>X>X>X>X>X>X>X>X>X>X>X>X>X>X+ n 1.).).)./.m o >X>X>X>X>X>X>X>X>X>X>X>X>X>X>X>X>X>X>X>X>X>X>X>X>X>X>X>X>X>X",
">X>X>X>X>X>X>X>X>X>X>X>X>X  >X>X>X>X>X>X>X>X>X: z *.~.).).).).~.n o >X>X>X>X>X>X>X>X>X>X>X>X>X>X>X>X>X>X>X>X>X>X>X>X>X>X>X>X>X>X",
">X>X>X>X>X>X>X>X>X>X>X>X    >X>X>X>X>X>X    c >.(.).).).).).).<.n o >X>X>X>X>X>X>X>X>X>X>X>X>X>X>X>X>X>X>X>X>X>X>X>X>X>X>X>X>X>X",
">X>X>X>X>X>X>X>X>X>X>X  : , >X>X>X  , v %.^.).).).).).).).).).:.n o >X>X>X>X>X>X>X>X>X>X>X>X>X>X>X>X>X>X>X>X>X>X>X>X>X>X>X>X>X>X",
">X>X>X>X>X>X>X>X>X>X  j *., o j n %.>.~.).).).).).).).).).).~.*.b o >X>X>X>X>X>X>X>X>X>X>X>X>X>X>X>X>X>X>X>X>X>X>X>X>X>X>X>X>X>X",
">X>X>X>X>X>X>X>X>X  j 1.~.%.,.~.).).).).).).).).).).).).).).1.%.v o >X>X>X>X>X>X>X>X>X>X>X>X>X>X>X>X>X>X>X>X>X>X>X>X>X>X>X>X>X>X",
">X>X>X>X>X>X>X>X  v ~.).).).).).).).).).).).).).).).).).).).<.$.c + >X>X>X>X>X>X>X>X>X>X>X>X>X>X>X>X>X>X>X>X>X>X>X>X>X>X>X>X>X>X",
">X>X>X>X>X>X>X+ m /.).).).).).).).).).).).).).).).).).).).).-.#.l   >X>X>X>X>X>X>X>X>X>X>X>X>X>X>X>X>X>X>X>X>X>X>X>X>X>X>X>X>X>X",
">X>X>X>X>X>X+ $.(.).).).).).).).).).).).).).).).).).).).).).*.#.< >X>X>X>X>X>X>X>X>X>X>X>X>X>X>X>X>X>X>X>X>X>X>X>X>X>X>X>X>X>X>X",
">X>X>X>X>X+ %.).).).).).).).).).).).).).).).).).).).).).).~.%.#.o >X>X>X>X>X>X>X>X>X>X>X>X>X>X>X>X>X>X>X>X>X>X>X>X>X>X>X>X>X>X>X",
">X>X>X  o ;.[.'.).).).).).).).).).).).).).).).).).).).).).1.#.@.  >X>X>X>X>X>X>X>X>X>X>X>X>X>X>X>X>X>X>X>X>X>X>X>X>X>X>X>X>X>X>X",
">X>X  o =.}.|.|.[.'.).).).).).).).)._._.`.).).).).).).).).-.@.b   >X>X>X>X>X>X>X>X>X>X>X>X>X>X>X>X>X>X>X>X>X>X>X>X>X>X>X>X>X>X>X",
">X  + 2.[.|.|.|.|.|.[.[.{.{.].'.'._.`.).).).).).).).).).~.$.+.< >X>X>X>X>X>X>X>X>X>X>X>X>X>X>X>X>X>X>X>X>X>X>X>X>X>X>X>X>X>X>X>X",
">X+ ;.{.}.}.}.}.}.}.[.[.{.'.`.).).).).).).).).).).).).).:.#.b + >X>X>X>X>X>X>X>X>X>X>X>X>X>X>X>X    >X>X>X>X>X>X>X>X>X>X>X>X>X>X",
">X, 1.).`._._.'.`.`.`.`.).).).).).).).).).).).).).).).:.$.#.<   >X>X>X>X>X>X>X>X>X>X>X>X>X>X>X. @ 7 >X>X>X>X>X>X>X>X>X>X>X>X>X>X",
">X, 1.).).).).(.).).).).).).).).).).).).).).).).).).1.%.%.+.o   >X>X>X>X>X>X>X>X>X>X>X>X>X>X6 H U s.# >X>X>X>X>X>X>X>X>X>X>X>X>X",
">X, <.).).).).).).).).).).).).).).).).).).).).).).(.<.).>.v   >X>X>X>X>X>X>X>X>X>X>X>X>X>X6 d.h.f.G   >X>X>X>X>X>X>X>X>X>X>X>X>X",
">X: 1.(.).).).).).).).).).).).).).).).).).).).).).).).).<.o   >X>X>X>X>X>X>X>X>X>X>X>X@ G f.h.h.U 9 U 0 >X>X>X>X>X>X>X>X>X>X>X>X",
">X: ,.:.).).).).).).).).).).).).).).).).).).).).).).).).:.+     >X>X>X>X>X>X>X>X>X>X  H g.h.h.h.g.g.g.K . >X>X>X>X>X>X>X>X>X>X>X",
">Xo b +.~.~.).).).~.:.(.).).).).).).).).).).).).).).).).).^.c   >X>X>X>X>X>X>X>X>X@ T h.h.h.h.h.h.s.8 7 9 >X>X>X>X>X>X>X>X>X>X>X",
">X  + n -.*.).).,.%.1.1.>.%.1.).).).).).).).).).).).).).1.n o >X>X>X>X>X>X>X>X>X7 U h.h.h.h.h.h.h.g.T s.U . >X>X>X>X>X>X>X>X>X>X",
">X    v +.z (.-.l $.*.n j 1 1.).).).).).).).1.).).).1.-.n     >X>X>X>X>X>X>X@ G s.h.h.h.h.h.h.h.h.h.f.I 0 . >X>X>X>X>X>X>X>X>X>X",
">X  >Xj , + -.l , o   > 4 : 1.).).1.:.).).-.*.).).,.< : @ H K J @     # 6 0 T g.h.h.h.h.h.h.f.s.Y G 6     >X>X>X>X>X>X>X>X>X>X>X",
">X>X>X+ +   :.-.v o M  XA , 1.).~.,.m ).).#.-.1.*.1.O 9 L d.f.g.9 @ 0 P H J J U R f.f.s.R U J 0 # . >X>X>X>X>X>X>X>X>X>X>X>X>X>X",
">X>X>X      %.%.< N @X@X> z ~.>.1.>.x 1.).z %.1.z *.#.e f.h.h.h.# # K K H K J J J K L J 0 7 @   >X>X>X>X>X>X>X>X>X>X>X>X>X>X>X>X",
">X>X>X      l 1 + 7.4.2   *.%.b ).*.l >.1.j m %.c + o + # G Y I   . 7 7 & t r 6 8 # @   >X>X>X>X>X>X>X>X>X>X>X>X>X>X>X>X>X>X>X>X",
">X>X>X>X  s 5 ........; o n < #.).#.l >.>.l +.l +.& L B u.XXw.r w w $ . 3 t.8.N O . .   . . >X>X>X>X>X>X>X>X>X>X>X>X>X>X>X>X>X>X",
">X>X>X>X  T.E.*X-X-X-XR...  o %.1.< < 1.&.z #.o o o . .X:X@Xu.u.M.v.] p s i. X4.M J d.d.a.R T T U Y #     >X>X>X>X>X>X>X>X>X>X>X",
">X>X>X>X>XOX;X;X=X=X;X;X&X6.1 %.n , z 1.m c , # I e u  XN k 5.oXm.F.k.^ C .X X9.D H h.h.h.h.h.h.h.h.a.U 7 >X>X>X>X>X>X>X>X>X>X>X",
">X>X>X>X>XR.;X;X;X=X;X;X;XT.B b < 1 x 1.z % 7 J g.~ `  Xt.Z XXp.B.J.z.^ C oX X8.3.# J d.h.h.h.h.h.f.U R 7 >X>X>X>X>X>X>X>X>X>X>X",
">X>X>X>X>XB &X;X;X;X;X;X;XR.C + v 1 b *.& H J d.h.Q S.f u.+X8.^ I.F.k.E S +X X7.S B V & G f.h.h.h.U . .   >X>X>X>X>X>X>X>X>X>X>X",
">X>X>X>X>X>XC T.#X;X;X;X-Xb.V   z o #.l 9 J J h.h.e B.B.k.] v.J.H.A. .i 4.+Xi.3.N q.b.q.C & J f.h.h.f.G >X>X>X>X>X>X>X>X>X>X>X>X",
">X>X>X>X>X>X  X.E.#X*X-XOXe.5   + + b $ I I I h.h.J u x.B.A.G.G.H.M.{ = 8.oXy.S 5 OX%XE.Y.6.V t L K U G >X>X>X>X>X>X>X>X>X>X>X>X",
">X>X>X>X>X>X>XO Y.=X;XOXr.o.      o : K g.f.T h.h.R * y = w E ] j.^ ^ 2 p. X4.F 2 #X=X=X&X$XY.q.s .   . >X>X>X>X>X>X>X>X>X>X>X>X",
">X>X>X>X>X>X>X>X+ Y.Y...! H K U 0 + . f.h.h.g.h.h.s.@ ^ 5.4 E ] p i X F p.8.A o   % X.R.&X;X*X#XR.q.s +   O s >X>X>X>X>X>X>X>X>X",
">X>X>X>X>X>X>X>X>X>X>X8 s.h.h.h.H   H f.s.R a.h.h.s.# N 7.$ M.m.x.j.y * X       >X>X    5 b.#X*X=X-XE.e.X.r.R.q.s >X>X>X>X>X>X>X",
">X>X>X>X>X>X>X>X>X>X>X>X# 0 L T 7 8 R L J J a.h.h.R 6 5.M ' D.x.A.S.{ ] ` =   >X>X>X>X>X>X  3 6.#X*X*X%X#X%X;X%XT.6.3 >X>X>X>X>X",
">X>X>X>X>X>X>X>X>X>X>X>X>X    # @ H g.h.g.f.h.h.h.Y r A q F.A.C.H.H.x.{  .] X >X>X>X>X>X>X>X>X+ X ! Y.-X;X=X;X;X;X#Xn.V >X>X>X>X",
">X>X>X>X>X>X>X>X>X>X>X>X>X>X>X  G H K g.h.h.h.h.s.0 3.r x.H.H.H.H.H.S.{ { { Q   >X  >X>X>X>X>X>X>X>X  OX;X;X;X;X;X&XOXX.  >X>X>X",
">X>X>X>X>X>X>X>X>X>X>X>X>X>X>X>XK R Y f.h.h.h.s.K V A Q F.H.H.H.H.H.F. .{ { { =   S F >X>X>X>X>X>X>X  T.;X;X;X;X;X=XT.s >X>X>X>X",
">X>X>X>X>X>X>X>X>X>X>X>X>X>X>X>XH g.h.h.h.h.f.J 3 7.- V.H.H.H.H.H.H.M.{ { { ] X $. Xt.4 + >X>X>X>X>X>XX.$XOX=X;X%XR.T.r >X>X>X>X",
">X>X>X>X>X>X>X>X>X>X>X>X>X>X>X>X# R h.h.h.d.H . 8.N } H.H.H.H.H.H.A.j.{ { ] = 4.n.n.5.A 2 >X>X>X>X>X>X  r.e.6.OX-XE.2 >X>X>X>X>X",
">X>X>X>X>X>X>X>X>X>X>X>X>X>X>X>X  7 R a.I 7 . Z 7.> | c.c.N.V.V.V.k.} } ^ u 7. Xn.6.S N + >X>X>X>X>X>X>X5 >X>Xr X.b.5 >X>X>X>X>X",
">X>X>X>X>X>X>X>X>X>X>X>X>X>X>X>X>X>X. 8 @   > t.k N 9.9.7.7.0.6.o.O...y 5 7. Xi.9.$.S 2 >X>X>X>X>X>X>X>X>X>X>X>X>X  >X>X>X>X>X>X",
">X>X>X>X>X>X>X>X>X>X>X>X>X>X>X>X>X>X>X>X>X>X4 3.  u d s s V B N ..5.M M y. X X9.3.3.3 >X>X>X>X>X>X>X>X>X>X>X>X>X>X>X>X>X>X>X>X>X",
">X>X>X>X>X>X>X>X>X>X>X>X>X>X>X>X>X>X>X>X>X>X>X>X  l.A.S.M.k.^ E X 4 S i. Xi.9.5.S 4   >X>X>X>X>X>X>X>X>X>X>X>X>X>X>X>X>X>X>X>X>X",
">X>X>X>X>X>X>X>X>X>X>X>X>X>X>X>X>X>X>X>X>X>X>X>X>XE B.m.{ Q i r 4.u. X[.i.7.3.! k : + >X>X>X>X>X>X>X>X>X>X>X>X>X>X>X>X>X>X>X>X>X",
">X>X>X>X>X>X>X>X>X>X>X>X>X>X>X>X>X>X>X>X>X>X>X    + > 2 z 4.i.XXXX.Xn.e.4.3.S l 2 k + >X>X>X>X>X>X>X>X>X>X>X>X>X>X>X>X>X>X>X>X>X",
">X>X>X>X>X>X>X>X>X>X>X>X>X>X>X>X>X>X>X>X>X>X>X>XN y.p..XoX+XXX.Xu.y.0.3.3.Z 4 k A k   >X>X>X>X>X>X>X>X>X>X>X>X>X>X>X>X>X>X>X>X>X",
">X>X>X>X>X>X>X>X>X>X>X>X>X>X>X>X>X>X>X>X>X>X>X>X2 i. XXXXXi.t.8.5.3.3.3.F > 4 S S k     >X>X>X>X>X>X>X>X>X>X>X>X>X>X>X>X>X>X>X>X",
">X>X>X>X>X>X>X>X>X>X>X>X>X>X>X>X>X>X>X>X>X>X>X>X  S 0.5.3.S 3.3.3.S F > 2 F S S N 2 X + >X>X>X>X>X>X>X>X>X>X>X>X>X>X>X>X>X>X>X>X",
">X>X>X>X>X>X>X>X>X>X>X>X>X>X>X>X>X>X>X>X>X>X>X>X>X2 A A S A Z Z k 4 4 k A S S Z k O 2 X >X>X>X>X>X>X>X>X>X>X>X>X>X>X>X>X>X>X>X>X",
">X>X>X>X>X>X>X>X>X>X>X>X>X>X>X>X>X>X>X>X>X>X>X>X>X  > 2 2 > > 2 k N S S S S S k 3 + 4 O >X>X>X>X>X>X>X>X>X>X>X>X>X>X>X>X>X>X>X>X",
">X>X>X>X>X>X>X>X>X>X>X>X>X>X>X>X>X>X>X>X>X>X>X>X>X>X  4 A S S S S S S S S S N 4 + k M 2   >X>X>X>X>X>X>X>X>X>X>X>X>X>X>X>X>X>X>X",
">X>X>X>X>X>X>X>X>X>X>X>X>X>X>X>X>X>X>X>X>X>X>X>X>X>X+ N S S S S S S S S S F k O > Z k 2   >X>X>X>X>X>X>X>X>X>X>X>X>X>X>X>X>X>X>X",
">X>X>X>X>X>X>X>X>X>X>X>X>X>X>X>X>X>X>X>X>X>X>X>X>X>XO A 3.S S S S S S S Z k 2 + N S M 2   >X>X>X>X>X>X>X>X>X>X>X>X>X>X>X>X>X>X>X",
">X>X>X>X>X>X>X>X>X>X>X>X>X>X>X>X>X>X>X>X>X>X>X>X>X  M ! S S S S S S S Z k > . N S S N 4 o >X>X>X>X>X>X>X>X>X>X>X$ + >X>X>X>X>X>X",
">X>X>X>X>X>X>X>X>X>X>X>X>X>X>X>X>X>X>X>X>X>X>X>X>X+ A 3.S S S S 3.S A k 2 + k A S S N r O >X>X>X>X>X>X>X>X>X>X  q q   >X>X>X>X>X",
">X>X>X>X>X>X>X>X>X>X>X>X>X>X>X>X>X>X>X>X>X>X>X>X>X2 S S S S S S S Z M 2 o M S S S ! A k 2   >X>X>X    * w p p X ; d -   >X>X>X>X",
">X>X>X>X>X>X>X>X>X>X>X>X>X>X>X>X>X>X>X>X>X>X>X>X>XM S S S S S 3.Z M 2   o Z S S S S S M 4 +   X E ^  .z.z.j.j.i f / f *   >X>X>X",
">X>X>X>X>X>X>X>X>X>X>X>X>X>X>X>X>X>X>X>X>X>X>X>X  F ! S S S S Z r 2 + >X>X3 A S S S S N 4   y ] m.B.D.D.D.S.k.y / ( ) f X >X>X>X",
">X>X>X>X>X>X>X>X>X>X>X>X>X>X>X>X>X>X>X>X>X>X>X>X+ A 3.S S S N k 2   >X>X>X>X4 S S S S Z 2 = M.F.H.H.H.H.F.{ w / ( ( ( ( W   >X>X",
">X>X>X>X>X>X>X>X>X>X>X>X>X>X>X>X>X>X>X>X>X>X>X>X2 S S S S N 4 2   >X>X>X>X>X>X4 A S S Z 2 l.G.G.I.I.K.m.E     - f / ( ( ( W   >X",
">X>X>X>X>X>X>X>X>X>X>X>X>X>X>X>X>X>X>X>X  >X>X  k 3.! S N k 2   >X>X>X>X>X>X>X>X2 A S F > S.G.U.U.L.^   >X>X>X>X>X  u / ( ( ;   ",
">X>X>X>X>X>X>X>X>X>X>X>X>X>X>X>X>X>X>X>X>X      2 N Z F k 4 X >X>X>X>X>X>X>X>X>X  2 Z F ; P.!.Q.N.p >X>X>X>X>X>X>X>X  u ( g . >X",
">X>X>X>X>X>X>X>X>X>X>X>X>X>X>X>X>X>X>X>X>X  { c.{ [ Q -   o >X>X>X>X>X>X>X>X>X>X>X>X  > i W.L.] X >X>X>X>X>X>X>X>X>X>XX q   >X>X",
">X>X>X>X>X>X>X>X>X>X>X>X>X>X>X>X>X>X>X>X>X>Xa P.-XI.H.B.E   >X>X>X>X>X>X>X>X>X>X>X>X>X  ^ x.= >X>X>X>X>X>X>X>X>X>X>X>X    >X>X>X",
">X>X>X>X>X>X>X>X>X>X>X>X>X>X>X>X>X>X>X>X>X>X>X^ W.U.H.G.M.p >X>X>X>X>X>X>X>X>X>X>X>X>X  = . >X>X>X>X>X>X>X>X>X>X>X>X>X>X>X>X>X>X",
">X>X>X>X>X>X>X>X>X>X>X>X>X>X>X>X>X>X>X>X>X>X>XX l.Q.I.H.F.l.= >X>X>X>X>X>X>X>X>X>X>X>X  >X>X>X>X>X>X>X>X>X>X>X>X>X>X>X>X>X>X>X>X",
">X>X>X>X>X>X>X>X>X>X>X>X>X>X>X>X>X>X>X>X>X>X>X>X+ N.U.H.H.M.p >X>X>X>X>X>X>X>X>X>X>X>X>X>X>X>X>X>X>X>X>X>X>X>X>X>X>X>X>X>X>X>X>X",
">X>X>X>X>X>X>X>X>X>X>X>X>X>X>X>X>X>X>X>X>X>X>X>X>Xy Z.H.H.D.` . >X>X>X>X>X>X>X>X>X>X>X>X>X>X>X>X>X>X>X>X>X>X>X>X>X>X>X>X>X>X>X>X",
">X>X>X>X>X>X>X>X>X>X>X>X>X>X>X>X>X>X>X>X>X>X>X>X>X>XE D.H.F.{ = >X>X>X>X>X>X>X>X>X>X>X>X>X>X>X>X>X>X>X>X>X>X>X>X>X>X>X>X>X>X>X>X",
">X>X>X>X>X>X>X>X>X>X>X>X>X>X>X>X>X>X>X>X>X>X>X>X>X>X>X} J.J.k.i >X>X>X>X>X>X>X>X>X>X>X>X>X>X>X>X>X>X>X>X>X>X>X>X>X>X>X>X>X>X>X>X",
">X>X>X>X>X>X>X>X>X>X>X>X>X>X>X>X>X>X>X>X>X>X>X>X>X>X>X* { F.z.E >X>X>X>X>X>X>X>X>X>X>X>X>X>X>X>X>X>X>X>X>X>X>X>X>X>X>X>X>X>X>X>X",
">X>X>X>X>X>X>X>X>X>X>X>X>X>X>X>X>X>X>X>X>X>X>X>X>X>X>X>X* m.k.^   >X>X>X>X>X>X>X>X>X>X>X>X>X>X>X>X>X>X>X>X>X>X>X>X>X>X>X>X>X>X>X",
">X>X>X>X>X>X>X>X>X>X>X>X>X>X>X>X>X>X>X>X>X>X>X>X>X>X>X  * q p w   >X>X>X>X>X>X>X>X>X>X>X>X>X>X>X>X>X>X>X>X>X>X>X>X>X>X>X>X>X>X>X",
">X>X>X>X>X>X>X>X>X>X>X>X>X>X>X>X>X>X>X>X>X>X>X    . X d ) ) W u q X >X>X>X>X>X>X>X>X>X>X>X>X>X>X>X>X>X>X>X>X>X>X>X>X>X>X>X>X>X>X",
">X>X>X>X>X>X>X>X>X>X>X>X>X>X>X>X>X>X>X>X>X>X>X  u W _ ( ( ( ( / d - >X>X>X>X>X>X>X>X>X>X>X>X>X>X>X>X>X>X>X>X>X>X>X>X>X>X>X>X>X>X",
">X>X>X>X>X>X>X>X>X>X>X>X>X>X>X>X>X>X>X>X>X>X>X  u ( ( ( ( / W d d ;   >X>X>X>X>X>X>X>X>X>X>X>X>X>X>X>X>X>X>X>X>X>X>X>X>X>X>X>X>X",
">X>X>X>X>X>X>X>X>X>X>X>X>X>X>X>X>X>X>X>X>X>X>X>X* _ _ W d q - * X X >X>X>X>X>X>X>X>X>X>X>X>X>X>X>X>X>X>X>X>X>X>X>X>X>X>X>X>X>X>X",
">X>X>X>X>X>X>X>X>X>X>X>X>X>X>X>X>X>X>X>X>X>X>X>X  * .         >X>X>X>X>X>X>X>X>X>X>X>X>X>X>X>X>X>X>X>X>X>X>X>X>X>X>X>X>X>X>X>X>X"
};
