/* XPM */
static char *result[] = {
/* columns rows colors chars-per-pixel */
"64 88 192 2 ",
"   c #010101",
".  c #0B0402",
"X  c #0C0A04",
"o  c #050C0D",
"O  c #0C0B0B",
"+  c #050708",
"@  c #140504",
"#  c #1B0605",
"$  c #130E02",
"%  c #130D0C",
"&  c #1C1502",
"*  c #13120D",
"=  c #1A1608",
"-  c #060F10",
";  c #071113",
":  c #081516",
">  c #0A1A1C",
",  c #0A1718",
"<  c #141414",
"1  c #181612",
"2  c #1C1B1B",
"3  c #1C1914",
"4  c #230807",
"5  c #2C0A08",
"6  c #200706",
"7  c #350C0A",
"8  c #3C0E0B",
"9  c #231B02",
"0  c #261D07",
"q  c #241C1A",
"w  c #3B120D",
"e  c #2C2202",
"r  c #2D250E",
"t  c #3C2D02",
"y  c #342803",
"u  c #25221B",
"i  c #372D12",
"p  c #3D3213",
"a  c #0C1F21",
"s  c #0E2326",
"d  c #0F272A",
"f  c #10292D",
"g  c #122E32",
"h  c #133236",
"j  c #15363A",
"k  c #16393D",
"l  c #232222",
"z  c #2B2B2B",
"x  c #2B2825",
"c  c #3A352A",
"v  c #343333",
"b  c #3E3C3D",
"n  c #383638",
"m  c #302F30",
"M  c #45100D",
"N  c #4C120E",
"B  c #52130F",
"V  c #5D1511",
"C  c #551410",
"Z  c #621712",
"A  c #6B1914",
"S  c #671813",
"D  c #741B16",
"F  c #7A1C17",
"G  c #7E1D18",
"H  c #423203",
"J  c #4C3903",
"K  c #473708",
"L  c #473A16",
"P  c #533F03",
"I  c #423E36",
"U  c #42372C",
"Y  c #594304",
"T  c #5D4D1E",
"R  c #54451A",
"E  c #624A04",
"W  c #694F04",
"Q  c #6C5204",
"!  c #7C5E05",
"~  c #745806",
"^  c #7F6005",
"/  c #4B4436",
"(  c #574E3C",
")  c #645429",
"_  c #183E43",
"`  c #194146",
"'  c #1B464B",
"]  c #1C494E",
"[  c #1E4D53",
"{  c #1F5057",
"}  c #1F5158",
"|  c #21545B",
" . c #22585F",
".. c #235C63",
"X. c #26636C",
"o. c #296B74",
"O. c #2A6C75",
"+. c #2C727C",
"@. c #387179",
"#. c #424242",
"$. c #4D4C4C",
"%. c #484649",
"&. c #5B5344",
"*. c #545354",
"=. c #5B5B5B",
"-. c #585559",
";. c #665C49",
":. c #766A55",
">. c #766B55",
",. c #7E725A",
"<. c #6E634F",
"1. c #615E62",
"2. c #40777F",
"3. c #646364",
"4. c #6A6A6A",
"5. c #686569",
"6. c #737373",
"7. c #7B7B7B",
"8. c #851F19",
"9. c #881F19",
"0. c #8C201A",
"q. c #93221C",
"w. c #9D241E",
"e. c #A4261F",
"r. c #856505",
"t. c #8C6A06",
"y. c #916E06",
"u. c #977306",
"i. c #A37B06",
"p. c #82755D",
"a. c #897C62",
"s. c #AC8307",
"d. c #AA830E",
"f. c #B88C07",
"g. c #B98F10",
"h. c #C49408",
"j. c #CB9A08",
"k. c #D19F08",
"l. c #C79D1F",
"z. c #DAA509",
"x. c #D4A519",
"c. c #E3AC09",
"v. c #ECB30A",
"b. c #F5BA0A",
"n. c #F9BD0A",
"m. c #F1B70A",
"M. c #E2B42B",
"N. c #FAC21D",
"B. c #FACA38",
"V. c #97886C",
"C. c #9E8F71",
"Z. c #A69677",
"A. c #B09F7E",
"S. c #B1A07F",
"D. c #FBCE4B",
"F. c #FBD052",
"G. c #FCD973",
"H. c #FBD563",
"J. c #2D7680",
"K. c #2F7A84",
"L. c #307C87",
"P. c #307E89",
"I. c #437B83",
"U. c #32828D",
"Y. c #3B8892",
"T. c #468E98",
"R. c #4A919B",
"E. c #52959F",
"W. c #599AA3",
"Q. c #619FA8",
"!. c #63A0A9",
"~. c #828282",
"^. c #8E8E8E",
"/. c #9A9A9A",
"(. c #949494",
"). c #B9A885",
"_. c #A4A4A4",
"`. c gray67",
"'. c #B7B7B7",
"]. c #CBB791",
"[. c #C7B48F",
"{. c #D9C59C",
"}. c #D7C29A",
"|. c #E3CDA3",
" X c #ECD5A9",
".X c #EFD8AB",
"XX c #E7D1A5",
"oX c #F0D9AC",
"OX c gainsboro",
"+X c gray79",
"@X c #F4F4F4",
"#X c None",
/* pixels */
"#X#X#X#X#X#X#X#X#X#X#X#X#X#X#X#X#X#X#X#X#X#X#X#X#X#X#X#X#X#X#X#X#X#X#X#X#X#X#X#X#X#X#X#X#X#X#X#X#X#X#X#X#X#X#X#X#X#X#X#X#X#X#X#X",
"#X#X#X#X#X#X#X#X#X#X#X#X#X#X#X#X#X#X#X#X#X#X#X#X#X#X#X#X#X#X#X#X#X    #X#X#X#X#X#X#X#X#X#X#X#X#X#X#X#X#X#X#X#X#X#X#X#X#X#X#X#X#X",
"#X#X#X#X#X#X#X#X#X#X#X#X#X#X#X#X#X#X#X#X#X#X#X#X#X#X#X#X#X#X#X#X  +   #X#X#X#X#X#X#X#X#X#X#X#X#X#X#X#X#X#X#X#X#X#X#X#X#X#X#X#X#X",
"#X#X#X#X#X#X#X#X#X#X#X#X#X#X#X#X#X#X#X#X#X#X#X#X#X#X#X#X#X#X    ` `   #X#X#X#X#X#X#X#X#X#X#X#X#X#X#X#X#X#X#X#X#X#X#X#X#X#X#X#X#X",
"#X#X#X#X#X#X#X#X#X#X#X#X#X#X#X#X#X#X#X#X#X#X#X#X#X#X#X#X#X  h +.U.'   #X#X#X#X#X#X#X#X#X#X#X#X#X#X#X#X#X#X#X#X#X#X#X#X#X#X#X#X#X",
"#X#X#X#X#X#X#X#X#X#X#X#X#X#X#X#X#X#X#X#X#X#X#X#X#X#X#X  > ..U.U.U._   #X#X#X#X#X#X#X#X#X#X#X#X#X#X#X#X#X#X#X#X#X#X#X#X#X#X#X#X#X",
"#X#X#X#X#X#X#X#X#X#X#X#X#X#X  #X#X#X#X#X#X#X#X#X#X  : } P.U.U.U.+._   #X#X#X#X#X#X#X#X#X#X#X#X#X#X#X#X#X#X#X#X#X#X#X#X#X#X#X#X#X",
"#X#X#X#X#X#X#X#X#X#X#X#X#X    #X#X#X#X#X#X#X#X  o ` J.U.U.U.U.U.o.k   #X#X#X#X#X#X#X#X#X#X#X#X#X#X#X#X#X#X#X#X#X#X#X#X#X#X#X#X#X",
"#X#X#X#X#X#X#X#X#X#X#X#X      #X#X#X#X#X    a [ K.U.U.U.U.U.U.U...j   #X#X#X#X#X#X#X#X#X#X#X#X#X#X#X#X#X#X#X#X#X#X#X#X#X#X#X#X#X",
"#X#X#X#X#X#X#X#X#X#X#X  + ; #X#X#X    > k o.U.U.U.U.U.U.U.U.U.U.[ h   #X#X#X#X#X#X#X#X#X#X#X#X#X#X#X#X#X#X#X#X#X#X#X#X#X#X#X#X#X",
"#X#X#X#X#X#X#X#X#X#X  > O.-   ; h } +.U.U.U.U.U.U.U.U.U.U.U.U.P.' h   #X#X#X#X#X#X#X#X#X#X#X#X#X#X#X#X#X#X#X#X#X#X#X#X#X#X#X#X#X",
"#X#X#X#X#X#X#X#X#X  > +.P.` ..J.U.U.U.U.U.U.U.U.U.U.U.U.U.U.U.J.` g   #X#X#X#X#X#X#X#X#X#X#X#X#X#X#X#X#X#X#X#X#X#X#X#X#X#X#X#X#X",
"#X#X#X#X#X#X#X#X  j U.U.U.U.U.U.U.U.U.U.U.U.U.U.U.U.U.U.U.U.U.X.` f #X#X#X#X#X#X#X#X#X#X#X#X#X#X#X#X#X#X#X#X#X#X#X#X#X#X#X#X#X#X",
"#X#X#X#X#X#X#X  _ P.U.U.U.U.U.U.U.U.U.U.U.U.U.U.U.U.U.U.U.U.U. .` s #X#X#X#X#X#X#X#X#X#X#X#X#X#X#X#X#X#X#X#X#X#X#X#X#X#X#X#X#X#X",
"#X#X#X#X#X#X  [ U.U.U.U.U.U.U.U.U.U.U.U.U.U.U.U.U.U.U.U.U.U.K.] ` > #X#X#X#X#X#X#X#X#X#X#X#X#X#X#X#X#X#X#X#X#X#X#X#X#X#X#X#X#X#X",
"#X#X#X#X#X+  .U.U.U.U.U.U.U.U.U.U.U.U.U.U.U.U.U.U.U.U.U.U.U.+.` ` o #X#X#X#X#X#X#X#X#X#X#X#X#X#X#X#X#X#X#X#X#X#X#X#X#X#X#X#X#X#X",
"#X#X#X  o @.W.Y.U.U.U.U.U.U.U.U.U.U.Y.U.U.U.U.U.U.U.U.U.U.U...` h + #X#X#X#X#X#X#X#X#X#X#X#X#X#X#X#X#X#X#X#X#X#X#X#X#X#X#X#X#X#X",
"#X#X  O @.!.Q.Q.R.Y.Y.U.U.U.U.U.U.U.U.Y.U.U.U.U.U.U.U.U.U.U.[ ` s   #X#X#X#X#X#X#X#X#X#X#X#X#X#X#X#X#X#X#X#X#X#X#X#X#X#X#X#X#X#X",
"#X  , I.!.!.!.!.!.Q.W.W.T.T.T.R.R.T.Y.U.U.U.U.U.U.U.U.U.U.J.` _ o #X#X#X#X#X#X#X#X#X#X#X#X#X#X#X#X#X#X#X#X#X#X#X#X#X#X#X#X#X#X#X",
"  + K.Q.!.!.!.!.!.!.!.W.W.W.R.Y.U.U.U.U.U.U.U.U.U.U.U.U.U...` j   #X#X#X#X#X#X#X#X#X#X#X#X#X#X#X#X#X#X#X#X#X#X#X#X#X#X#X#X#X#X#X",
"  h U.Y.T.T.R.R.T.T.Y.Y.U.U.U.U.U.U.U.U.U.U.U.U.U.U.U.U.X.` ` >   #X#X#X#X#X#X#X#X#X#X#X#X#X#X#X#X#X#X#X#X#X#X#X#X#X#X#X#X#X#X#X",
"  g U.U.U.U.U.U.U.U.U.U.U.U.U.U.U.U.U.U.U.U.U.U.U.U.U.o.' ` k   #X#X#X#X#X#X#X#X#X#X#X#X#X#X#X#X#X#X#X#X#X#X#X#X#X#X#X#X#X#X#X#X",
"  f U.U.U.U.U.U.U.U.U.U.U.U.U.U.U.U.U.U.U.U.U.U.U.U.+.X.J.[ a   #X#X#X#X#X#X#X#X#X#X#X#X#X#X#X#X#X#X#X#X  #X#X#X#X#X#X#X#X#X#X#X",
"#Xd U.U.U.U.U.U.U.U.U.U.U.U.U.U.U.U.U.U.U.U.U.U.U.U.P.U.U.} +   #X#X#X#X#X#X#X#X#X#X#X#X#X#X#X#X#X#X      #X#X#X#X#X#X#X#X#X#X#X",
"#Xs +.L.U.U.U.U.U.U.U.U.U.U.U.U.U.U.U.U.U.U.U.U.U.U.U.U.U.'     #X#X#X#X#X#X#X#X#X#X#X#X#X#X#X#X@ Z V G 9.  #X#X#X#X#X#X#X#X#X#X",
"#Xs k X.U.U.U.U.U.U.+.U.U.U.U.U.U.U.U.U.U.U.U.U.U.U.U.U.U...k ;   #X#X#X#X#X#X#X#X#X#X#X#X#X  7 9.e.e.9.N   #X#X#X#X#X#X#X#X#X#X",
"  - + ..X.J.U.U.U. .O.U.U.O.P.U.U.U.U.U.U.U.U.U.U.U.U.U.P.P.` + #X#X#X#X#X#X#X#X#X#X#X#X  6 D e.e.e.e.@ @ 4 #X#X#X#X#X#X#X#X#X#X",
"       .d ..U.K.j } +.X.] g J.U.U.U.U.U.U.U.U.U.U.U.U.U.J.[ + #X#X#X#X#X#X#X#X#X#X#X#X. N q.e.e.e.e.e.F q.q.@ #X#X#X#X#X#X#X#X#X",
"      _   _ } ; a f a o   - L.U.U.U.o.U.U.U.[ U.U.U.o.' d + 6 @   #X#X#X#X#X#X#X  . 8 q.e.e.e.e.e.e.e.e.A 8 . #X#X#X#X#X#X#X#X#X",
"  #X#X>   d o.g ;     m l - L.U.U.U.' P.U.P.j U.K.U.h o . 7 Z A Z @             7 9.e.e.e.e.e.e.e.e.e.e.4 7 7 #X#X#X#X#X#X#X#X#X",
"#X#X#X    o K.[ f   6.OX+ a U.K.J.U.f +.U.X.g U._ X...@ Z q.e.e.e.6 4 # n -.#.z # w.e.e.e.e.e.e.e.e.e.e.e.e.9.  #X#X#X#X#X#X#X#X",
"#X#X#X      X.h O /.@X7.  ` K.[ O.U.: ..U._ g X._ a ' f 8 e.w.8.V   @ . $.~.7.#.l C w.e.e.e.e.e.w.9.9.F S 7 #   #X#X#X#X#X#X#X#X",
"#X#X#X      s   O <       ..j h L.X.o | U.s k h { + # + u ' * & P Y Y e m ~.~.=.b % 5 N V V B N 8 5 # .       #X#X#X#X#X#X#X#X#X",
"#X#X#X#X  &.u p.>.>.>.u ; > + [ P._ o ..U.- ` d g a 6 $.OX(._.c k.j.! W 3 ^.~.6.#.< 3 % . # @   # N Z D D A   #X#X#X#X#X#X#X#X#X",
"#X#X#X#X  }.}.oXoXoX.X[.<.O   } P.o o X.o.: _ >   o O '.OX1.$./.i.n.i.~ * ^.^.7.#.l &.:.;.( c q % 4 N S A N     % #X#X#X#X#X#X#X",
"#X#X#X#X* oXoXoXoXoX.X.XXX;.*  .' : : o.[ a >   B V 0 '.3 @ *._.y.n.h.! $ 6._.6.#.l V.[.).Z.V.,.<.&.U q +   + / a.;.I u * . #X#X",
"#X#X#X#XO }..X.XoXoXoXoXoXV.x f : s , +.f X 7 N 9.N E 6._.~.+X/ j.N.h.! & =.`.4.#.< [..XoXoXoXoXXX].[.A.C.>.:.Z.oXoX{.).V.<.1 #X",
"#X#X#X#X#X;..X.XoXoXoXoXoXV.U + s : s O.o N B A w.8 z.y %.6.c ~ n.N.f.! & -./.3.I O &.,.Z.).}.XXoXoXoXoXoX.X|..XoXoXoXoX|.S.c #X",
"#X#X#X#X#X#Xc a.{..XoXoXXX,.c   s   f g 4 B B 0.e.C r.m.h.s.z.n.n.n.s.~ & =.~.*.v   7 8 5 @ + 1 u / <.a.Z.]..XoXoXoXoXoXXXC.q #X",
"#X#X#X#X#X#X+ p.S.]. X.XZ.<.1       f + V D B q.e.q.@ Q f.j.f.s.u.~ e $   -.1.x O     6 M V D D A B 7 6 . 1 {..XoXoXoXoXoX Xx #X",
"#X#X#X#X#X#X#XO )..X XZ.>.I         : 5 e.e.A e.e.e.5 y 0 < O @ t J E E           #X#X#X#X#X  . 6 8 B 7 V # p..XXXoXoXXXV.I . #X",
"#X#X#X#X#X#X#X#X* ).a./ U w B S C   + F e.e.q.e.e.e.7 t R 1.% ~ t.! ! ! J . #X#X#X#X#X#X#X#X#X#X#X#X        1 ).S.<.V.).{.].* #X",
"#X#X#X#X#X#X#X#X#X#X#X# w.e.e.e.A   4 q.0.G G w.e.e.N   *.m H c.r.y.^ ! ! y   #X#X#X#X#X#X#X#X#X#X#X#X#X#X#X#X+ >.3 #X#X* 1 #X#X",
"#X#X#X#X#X#X#X#X#X#X#X  4 N A F M . A Z B B A e.e.e.M < *.. f.c.t.c.f.! ! ~ X #X#X#X#X#X#X#X#X#X#X#X#X#X#X#X#X#X#X#X#X#X#X#X#X#X",
"#X#X#X#X#X#X#X#X#X#X#X#X#X    6 . M w.e.w.q.e.e.e.9.8 #.q E n.h.v.n.n.y.! ! W . #X#X#X#X#X#X#X#X#X#X#X#X#X#X#X#X#X#X#X#X#X#X#X#X",
"#X#X#X#X#X#X#X#X#X#X#X#X#X#X#X. 7 N B q.e.e.e.e.w.Z q %.4 c.b.m.n.n.n.h.! ! ! H   #X  #X#X#X#X#X#X#X#X#X#X#X#X#X#X#X#X#X#X#X#X#X",
"#X#X#X#X#X#X#X#X#X#X#X#X#X#X#X#XM D S 8.w.e.e.e.A 5 %.< i.b.n.n.n.n.n.z.! ! ! ! &   l z #X#X#X#X#X#X#X#X#X#X#X#X#X#X#X#X#X#X#X#X",
"#X#X#X#X#X#X#X#X#X#X#X#X#X#X#X#X7 e.e.e.e.e.e.F 7 n n y m.n.n.n.n.n.n.f.! ! ! ! $ u 7.4.< #X#X#X#X#X#X#X#X#X#X#X#X#X#X#X#X#X#X#X",
"#X#X#X#X#X#X#X#X#X#X#X#X#X#X#X#X  q.e.e.e.e.A 5 l 5.1 k.n.n.n.n.n.n.c.r.! r.! 0 x 7.~.*.b <   #X#X#X#X#X#X#X#X#X#X#X#X#X#X#X#X#X",
"#X#X#X#X#X#X#X#X#X#X#X#X#X#X#X#X  7 w.e.q.V 4   1.l H h.z.c.v.n.n.b.y.! ! ~ e z 7.~.3.#.' <   #X#X#X#X#X#X#X#X#X#X#X#X#X#X#X#X#X",
"#X#X#X#X#X#X#X#X#X#X#X#X#X#X#X#X#X  @ 7 6     I -.+ %.*.&.&.( ( ) T L K K # #.~.~.3.I #.u @ #X#X#X#X#X#X#X#X#X#X#X#X#X#X#X#X#X#X",
"#X#X#X#X#X#X#X#X#X#X#X#X#X#X#X#X#X#X#X#X#X#X  5.2 % z m I ' $.-.1.5.5.n X $.~.~.6.#.#.m . #X#X#X#X#X#X#X#X#X#X#X#X#X#X#X#X#X#X#X",
"#X#X#X#X#X#X#X#X#X#X#X#X#X#X#X#X#X#X#X#X#X#X#X+ + K j.f.u.t.Y y 9   O l 6.a.~.5.#.#.n   #X#X#X#X#X#X#X#X#X#X#X#X#X#X#X#X#X#X#X#X",
"#X#X#X#X#X#X#X#X#X#X#X#X#X#X#X#X#X#X#X#X#X#X#X#X#X. c.n.z.i.Q J 9 l -.7.W.V.5.%.#.n o #X#X#X#X#X#X#X#X#X#X#X#X#X#X#X#X#X#X#X#X#X",
"#X#X#X#X#X#X#X#X#X#X#X#X#X#X#X#X#X#X#X#X#X#X#X#X#X  0 y & < m $.6.^.~.~.7.-.#.b n +   #X#X#X#X#X#X#X#X#X#X#X#X#X#X#X#X#X#X#X#X#X",
"#X#X#X#X#X#X#X#X#X#X#X#X#X#X#X#X#X#X#X#X#X#X#X#X+ z b $.3.V./._./.^.7.4.%.#.#.v O O   #X#X#X#X#X#X#X#X#X#X#X#X#X#X#X#X#X#X#X#X#X",
"#X#X#X#X#X#X#X#X#X#X#X#X#X#X#X#X#X#X#X#X#X#X#X#X+ 7.~.^._._.^.7.4.-.#.#.#.b l O 2 <   #X#X#X#X#X#X#X#X#X#X#X#X#X#X#X#X#X#X#X#X#X",
"#X#X#X#X#X#X#X#X#X#X#X#X#X#X#X#X#X#X#X#X#X#X#X#X  $.7.6.5.1.$.#.' / #.#.v < < v z <   #X#X#X#X#X#X#X#X#X#X#X#X#X#X#X#X#X#X#X#X#X",
"#X#X#X#X#X#X#X#X#X#X#X#X#X#X#X#X#X#X#X#X#X#X#X#X#XO #.#.#.#.#.#./ b z < O x b b x <   #X#X#X#X#X#X#X#X#X#X#X#X#X#X#X#X#X#X#X#X#X",
"#X#X#X#X#X#X#X#X#X#X#X#X#X#X#X#X#X#X#X#X#X#X#X#X#X  l m m m z l q O < x n b b b z <   #X#X#X#X#X#X#X#X#X#X#X#X#X#X#X#X#X#X#X#X#X",
"#X#X#X#X#X#X#X#X#X#X#X#X#X#X#X#X#X#X#X#X#X#X#X#X#X#X  O < 2 + < v b b b b #.b b z <   #X#X#X#X#X#X#X#X#X#X#X#X#X#X#X#X#X#X#X#X#X",
"#X#X#X#X#X#X#X#X#X#X#X#X#X#X#X#X#X#X#X#X#X#X#X#X#X#XO n b b < % b b #.b b b b b z 3   #X#X#X#X#X#X#X#X#X#X#X#X#X#X#X#X#X#X#X#X#X",
"#X#X#X#X#X#X#X#X#X#X#X#X#X#X#X#X#X#X#X#X#X#X#X#X#X#X< b b b l + n b b b b b b b z <   #X#X#X#X#X#X#X#X#X#X#X#X#X#X#X#X#X#X#X#X#X",
"#X#X#X#X#X#X#X#X#X#X#X#X#X#X#X#X#X#X#X#X#X#X#X#X#X#Xl b b b n O l b b b b b b b l <   #X#X#X#X#X#X#X#X#X#X#X#X#X#X#X#X#X#X#X#X#X",
"#X#X#X#X#X#X#X#X#X#X#X#X#X#X#X#X#X#X#X#X#X#X#X#X#X  v b b b b l O n b b b b b b l <   #X#X#X#X#X#X#X#X#X#X#X#X#X#X#X#X#X#X#X#X#X",
"#X#X#X#X#X#X#X#X#X#X#X#X#X#X#X#X#X#X#X#X#X#X#X#X#X  b b b b #.m + z b b #.b b b l <   #X#X#X#X#X#X#X#X#X#X#X#X#X#X#X#X#X#X#X#X#X",
"#X#X#X#X#X#X#X#X#X#X#X#X#X#X#X#X#X#X#X#X#X#X#X#X#XO #.b b x l < O O b b b b b b 2 <   #X#X#X#X#X#X#X#X#X#X#X#X#X#X#X#X#X#X#X#X#X",
"#X#X#X#X#X#X#X#X#X#X#X#X#X#X#X#X#X#X#X#X#X#X#X#X#X1 b b 2   $ 9 9 . m b b b b b l <   #X#X#X#X#X#X#X#X#X#X#X#X#X#X#X#X#X#X#X#X#X",
"#X#X#X#X#X#X#X#X#X#X#X#X#X#X#X#X#X#X#X#X#X#X#X#X  l b l y s.j.f.d.! < b b b b b q 2   #X#X#X#X#X#X#X#X#X#X#X#X#X#X#X#X#X#X#X#X#X",
"#X#X#X#X#X#X#X#X#X#X#X#X#X#X#X#X#X#X#X#X#X#X#X#X  2 z 0 z.n.n.n.n.b.J z b b b b 2 2   #X#X#X#X#X#X#X#X#X#X#X#X#X#X#X#X#X#X#X#X#X",
"#X#X#X#X#X#X#X#X#X#X#X#X#X#X#X#X#X#X#X#X#X#X#X#X  O 0 x.N.n.n.n.n.n.c.= n / b b l 3   #X#X#X#X#X#X#X#X#X#X#X#X#X#X#X#X#X#X#X#X#X",
"#X#X#X#X#X#X#X#X#X#X#X#X#X#X#X#X#X#X#X#X#X#X#X#X#X  d.G.G.H.D.B.n.n.n.Q s b b z O +     #X#X#X#X#X#X#X#X#X#X#X#X#X#X#X#X#X#X#X#X",
"#X#X#X#X#X#X#X#X#X#X#X#X#X#X#X#X#X#X#X#X#X#X#X    E y.r.! ~ E Y J t 0 $   < O Y s.h.r.H X #X#X#X#X#X#X#X#X#X#X#X#X#X#X#X#X#X#X#X",
"#X#X#X#X#X#X#X#X#X#X#X#X#X#X#X#X#X#X#X#X#X#X#X            #X#X#X#X    . y ~ M.N.n.n.n.f.Q & #X#X#X#X#X#X#X#X#X#X#X#X#X#X#X#X#X#X",
"#X#X#X#X#X#X#X#X#X#X#X#X#X#X#X#X#X#X#X#X#X#X#X#X#X#X#X#X#X#X#X#X#X#X#X. J g.F.G.B.n.n.n.z.r.9 #X#X#X#X#X#X#X#X#X#X#X#X#X#X#X#X#X",
"#X#X#X#X#X#X#X#X#X#X#X#X#X#X#X#X#X#X#X#X#X#X#X#X#X#X#X#X#X#X#X#X#X#X#X#X#XX Y l.D.D.n.n.n.k.~ $ #X#X#X#X#X#X#X#X#X#X#X#X#X#X#X#X",
"#X#X#X#X#X#X#X#X#X#X#X#X#X#X#X#X#X#X#X#X#X#X#X#X#X#X#X#X#X#X#X#X#X#X#X#X#X#X#X  t d.N.n.n.n.h.Q $ #X#X#X#X#X#X#X#X#X#X#X#X#X#X#X",
"#X#X#X#X#X#X#X#X#X#X#X#X#X#X#X#X#X#X#X#X#X#X#X#X#X#X#X#X#X#X#X#X#X#X#X#X#X#X#X  = = K d.b.n.b.r.Y .   #X#X#X#X#X#X#X#X#X#X#X#X#X",
"#X#X#X#X#X#X#X#X#X#X#X#X#X#X#X#X#X#X#X#X#X#X#X#X#X#X#X#X#X#X#X#X#X#X#X#X#X#X#X  0 T i + 0 r.v.f.^ e X X   #X#X#X#X#X#X#X#X#X#X#X",
"#X#X#X#X#X#X#X#X#X#X#X#X#X#X#X#X#X#X#X#X#X#X#X#X#X#X#X#X#X#X#X#X#X#X#X#X#X#X#X  O $     #X  e ~ J X = r . #X#X#X#X#X#X#X#X#X#X#X",
"#X#X#X#X#X#X#X#X#X#X#X#X#X#X#X#X#X#X#X#X#X#X#X#X#X#X#X#X#X#X#X#X#X#X#X#X#X#X#X#X  #X#X#X#XO T L L p r =   #X#X#X#X#X#X#X#X#X#X#X",
"#X#X#X#X#X#X#X#X#X#X#X#X#X#X#X#X#X#X#X#X#X#X#X#X#X#X#X#X#X#X#X#X#X#X#X#X#X#X#X#X#X#X#X#X#X= T T T p =   #X#X#X#X#X#X#X#X#X#X#X#X",
"#X#X#X#X#X#X#X#X#X#X#X#X#X#X#X#X#X#X#X#X#X#X#X#X#X#X#X#X#X#X#X#X#X#X#X#X#X#X#X#X#X#X#X#X  i T T R =   #X#X#X#X#X#X#X#X#X#X#X#X#X",
"#X#X#X#X#X#X#X#X#X#X#X#X#X#X#X#X#X#X#X#X#X#X#X#X#X#X#X#X#X#X#X#X#X#X#X#X#X#X#X#X#X#X#X  $ R T T p   #X#X#X#X#X#X#X#X#X#X#X#X#X#X",
"#X#X#X#X#X#X#X#X#X#X#X#X#X#X#X#X#X#X#X#X#X#X#X#X#X#X#X#X#X#X#X#X#X#X#X#X#X#X#X#X#X#X  $ R T T L . #X#X#X#X#X#X#X#X#X#X#X#X#X#X#X",
"#X#X#X#X#X#X#X#X#X#X#X#X#X#X#X#X#X#X#X#X#X#X#X#X#X#X#X#X#X#X#X#X#X#X#X#X#X#X#X#X#X#X#X  r T R X #X#X#X#X#X#X#X#X#X#X#X#X#X#X#X#X",
"#X#X#X#X#X#X#X#X#X#X#X#X#X#X#X#X#X#X#X#X#X#X#X#X#X#X#X#X#X#X#X#X#X#X#X#X#X#X#X#X#X#X#X#X  X X #X#X#X#X#X#X#X#X#X#X#X#X#X#X#X#X#X",
"#X#X#X#X#X#X#X#X#X#X#X#X#X#X#X#X#X#X#X#X#X#X#X#X#X#X#X#X#X#X#X#X#X#X#X#X#X#X#X#X#X#X#X#X#X#X  #X#X#X#X#X#X#X#X#X#X#X#X#X#X#X#X#X"
};
