/* XPM */
static char *result[] = {
/* columns rows colors chars-per-pixel */
"64 86 193 2 ",
"   c #010101",
".  c #0B0402",
"X  c #0C0A03",
"o  c #040B0B",
"O  c #0C0C0B",
"+  c #150504",
"@  c #1C0605",
"#  c #120E04",
"$  c #110E0D",
"%  c #1D0908",
"&  c #161203",
"*  c #1B1502",
"=  c #191509",
"-  c #17140A",
";  c #070F10",
":  c #100F10",
">  c #071213",
",  c #0A1A1C",
"<  c #091618",
"1  c #141413",
"2  c #191715",
"3  c #1D1C1C",
"4  c #1D1B15",
"5  c #240907",
"6  c #2C0A08",
"7  c #240807",
"8  c #340C0A",
"9  c #3B0E0B",
"0  c #231A01",
"q  c #231D0B",
"w  c #291F02",
"e  c #211F1C",
"r  c #3D140A",
"t  c #2B240E",
"y  c #2D2205",
"u  c #3B2D02",
"i  c #322707",
"p  c #27241C",
"a  c #352C11",
"s  c #3C3213",
"d  c #0C1E21",
"f  c #201F20",
"g  c #0D2224",
"h  c #0F2629",
"j  c #0F282B",
"k  c #122E32",
"l  c #133236",
"z  c #15363A",
"x  c #16393E",
"c  c #1B383C",
"v  c #112B2E",
"b  c #232223",
"n  c #282728",
"m  c #2C2B2C",
"M  c #2A2725",
"N  c #312C26",
"B  c #363229",
"V  c #353434",
"C  c #3E3C3D",
"Z  c #383637",
"A  c #332F31",
"S  c #400F0C",
"D  c #4C120E",
"F  c #46130C",
"G  c #52130F",
"H  c #551410",
"J  c #5B1511",
"K  c #631713",
"L  c #6B1914",
"P  c #651813",
"I  c #741B16",
"U  c #7E1D18",
"Y  c #7B1C17",
"T  c #423203",
"R  c #4C3A05",
"E  c #523E03",
"W  c #443917",
"Q  c #413A24",
"!  c #594404",
"~  c #5E4E1E",
"^  c #54451A",
"/  c #4F4219",
"(  c #634C06",
")  c #6C5204",
"_  c #765905",
"`  c #7B5E05",
"'  c #715605",
"]  c #7F6105",
"[  c #494234",
"{  c #564D3E",
"}  c #183E43",
"|  c #173C41",
" . c #403F41",
".. c #194146",
"X. c #1A444A",
"o. c #1C494F",
"O. c #1D4C53",
"+. c #1F5158",
"@. c #1F5157",
"#. c #21565D",
"$. c #245D64",
"%. c #26636B",
"&. c #2A6C75",
"*. c #2B6F78",
"=. c #2C737D",
"-. c #424242",
";. c #4B4B4B",
":. c #4B4845",
">. c #5B5345",
",. c #545454",
"<. c #5C5B5C",
"1. c #5A5759",
"2. c #504E51",
"3. c #655B48",
"4. c #756A54",
"5. c #756A54",
"6. c #625F63",
"7. c #656465",
"8. c gray42",
"9. c #747474",
"0. c #7B7B7B",
"q. c #79757A",
"w. c #841F19",
"e. c #881F1A",
"r. c #8C201A",
"t. c #94221C",
"y. c #9C241E",
"u. c #A4261F",
"i. c #846405",
"p. c #8C6A06",
"a. c #926E06",
"s. c #9B7606",
"d. c #A47C07",
"f. c #877A61",
"g. c #82755D",
"h. c #AB8208",
"j. c #B18607",
"k. c #B88B07",
"l. c #B48B14",
"z. c #C79708",
"x. c #D29F08",
"c. c #D9A509",
"v. c #D5A81F",
"b. c #E2AC09",
"n. c #ECB30A",
"m. c #E7B009",
"M. c #F5BA0A",
"N. c #F9BD0A",
"B. c #F1B70A",
"V. c #DBB02F",
"C. c #FAC423",
"Z. c #F9C837",
"A. c #F9C21B",
"S. c #96886C",
"D. c #8E8066",
"F. c #A39375",
"G. c #AE9D7D",
"H. c #FACE4B",
"J. c #FBD259",
"K. c #FCDB78",
"L. c #2D7680",
"P. c #2F7A84",
"I. c #317E89",
"U. c #307D87",
"Y. c #32828D",
"T. c #3A8791",
"R. c #3E8A94",
"E. c #448C96",
"W. c #4D939C",
"Q. c #54949D",
"!. c #5798A2",
"~. c #619FA8",
"^. c #63A0A9",
"/. c #828282",
"(. c #8B8B8B",
"). c #969696",
"_. c #9A9A9A",
"`. c #BAA986",
"'. c #A9A9A9",
"]. c #B6B6B6",
"[. c #C6B38D",
"{. c #CBB892",
"}. c #C9B690",
"|. c #DAC59C",
" X c #E4CEA3",
".X c #E9D2A7",
"XX c #ECD5A9",
"oX c #ECD5A9",
"OX c #F0D9AC",
"+X c #C7C7C7",
"@X c gray85",
"#X c #F4F4F4",
"$X c None",
/* pixels */
"$X$X$X$X$X$X$X$X$X$X$X$X$X$X$X$X$X$X$X$X$X$X$X$X$X$X$X$X$X$X$X$X$X$X$X$X$X$X$X$X$X$X$X$X$X$X$X$X$X$X$X$X$X$X$X$X$X$X$X$X$X$X$X$X",
"$X$X$X$X$X$X$X$X$X$X$X$X$X$X$X$X$X$X$X$X$X$X$X$X$X$X$X$X    $X$X$X$X$X$X$X$X$X$X$X$X$X$X$X$X$X$X$X$X$X$X$X$X$X$X$X$X$X$X$X$X$X$X",
"$X$X$X$X$X$X$X$X$X$X$X$X$X$X$X$X$X$X$X$X$X$X$X$X$X$X$X$X        $X$X$X$X$X$X$X$X$X$X$X$X$X$X$X$X$X$X$X$X$X$X$X$X$X$X$X$X$X$X$X$X",
"$X$X$X$X$X$X$X$X$X$X$X$X$X$X$X$X$X$X$X$X$X$X$X$X$X$X$X$X  < #.,   $X$X$X$X$X$X$X$X$X$X$X$X$X$X$X$X$X$X$X$X$X$X$X$X$X$X$X$X$X$X$X",
"$X$X$X$X$X$X$X$X$X$X$X$X$X$X$X$X$X$X$X$X$X$X$X$X$X$X$X$X  , P.P.x     $X$X$X$X$X$X$X$X$X$X$X$X$X$X$X$X$X$X$X$X$X$X$X$X$X$X$X$X$X",
"$X$X$X$X$X$X$X$X$X$X$X$X$X$X$X$X$X$X$X$X$X$X$X$X$X$X$X$X  , =.Y.Y.=.l   $X$X$X$X$X$X$X$X$X$X$X$X$X$X$X$X$X$X$X$X$X$X$X$X$X$X$X$X",
"$X$X$X$X$X$X$X$X$X$X$X$X$X$X$X$X$X$X$X$X$X$X$X$X$X$X$X$X  d %.Y.Y.Y.Y.$.g   $X$X$X$X$X$X$X$X$X$X$X$X$X$X$X$X$X$X$X$X$X$X$X$X$X$X",
"$X$X$X$X$X$X$X$X$X$X$X$X$X$X$X$X$X$X$X$X$X$X$X$X$X$X$X$X  g #.Y.Y.Y.Y.Y.I.#.<   $X$X$X$X$X$X$X$X$X  $X$X$X$X$X$X$X$X$X$X$X$X$X$X",
"$X$X$X$X$X$X$X$X$X$X$X$X$X$X$X$X$X$X$X$X$X$X$X$X$X$X$X$X$Xg O.I.Y.Y.Y.Y.Y.Y.I.+.g     $X$X$X$X$X$X    $X$X$X$X$X$X$X$X$X$X$X$X$X",
"$X$X$X$X$X$X$X$X$X$X$X$X$X$X$X$X$X$X$X$X$X$X$X$X$X$X$X$X$X, X.=.Y.Y.Y.Y.Y.Y.Y.Y.Y.L.o.<     $X$X$X  ;   $X$X$X$X$X$X$X$X$X$X$X$X",
"$X$X$X$X$X$X$X$X$X$X$X$X$X$X$X$X$X$X$X$X$X$X$X$X$X$X$X$X$X, ..&.Y.Y.Y.Y.Y.Y.Y.Y.Y.Y.Y.Y.L.+.k >     X.|   $X$X$X$X$X$X$X$X$X$X$X",
"$X$X$X$X$X$X$X$X$X$X$X$X$X$X$X$X$X$X$X$X$X$X$X$X$X$X$X$X$X> ..$.Y.Y.Y.Y.Y.Y.Y.Y.Y.Y.Y.Y.Y.Y.Y.P.$.} o.Y.o.  $X$X$X$X$X$X$X$X$X$X",
"$X$X$X$X$X$X$X$X$X$X$X$X$X$X$X$X$X$X$X$X$X$X$X$X$X$X$X$X$X> ..O.Y.Y.Y.Y.Y.Y.Y.Y.Y.Y.Y.Y.Y.Y.Y.Y.Y.Y.Y.Y.Y.$.o $X$X$X$X$X$X$X$X$X",
"$X$X$X$X$X$X$X$X$X$X$X$X$X$X$X$X$X$X$X$X$X$X$X$X$X$X$X$X$X  ..X.I.Y.Y.Y.Y.Y.Y.Y.Y.Y.Y.Y.Y.Y.Y.Y.Y.Y.Y.Y.Y.Y.%.o   $X$X$X$X$X$X$X",
"$X$X$X$X$X$X$X$X$X$X$X$X$X$X$X$X$X$X$X$X$X$X$X$X$X$X$X$X$X  } ..=.Y.Y.Y.Y.Y.Y.Y.Y.Y.Y.Y.Y.Y.Y.Y.Y.Y.Y.Y.Y.Y.Y.=.>   $X$X$X$X$X$X",
"$X$X$X$X$X$X$X$X$X$X$X$X$X$X$X$X$X$X$X$X$X$X$X$X$X$X$X$X$X  z ..$.Y.Y.Y.Y.Y.Y.Y.Y.Y.Y.Y.Y.Y.Y.Y.Y.Y.Y.Y.Y.Y.Y.Y.L.d   $X$X$X$X$X",
"$X$X$X$X$X$X$X$X$X$X$X$X$X$X$X$X$X$X$X$X$X$X$X$X$X$X$X$X$X  h ..O.Y.Y.Y.Y.Y.Y.Y.Y.Y.Y.Y.Y.Y.Y.Y.Y.Y.Y.Y.Y.Y.Y.Y.T.E.g   $X$X$X$X",
"$X$X$X$X$X$X$X$X$X$X$X$X$X$X$X$X$X$X$X$X$X$X$X$X$X$X$X$X$X$X< ..X.=.Y.Y.Y.Y.Y.Y.Y.Y.T.T.Y.Y.Y.Y.Y.Y.Y.Y.Y.Y.T.W.!.^.Q.l   $X$X$X",
"$X$X$X$X$X$X$X$X$X$X$X$X$X$X$X$X$X$X$X$X$X$X$X$X$X$X$X$X$X$X  x ..%.Y.Y.Y.Y.Y.Y.Y.Y.Y.Y.R.R.E.R.T.T.T.R.W.!.!.^.^.^.^.!.c   $X$X",
"$X$X$X$X$X$X$X$X$X$X$X$X$X$X$X$X$X$X$X$X$X$X$X$X$X$X$X$X$X$X  d ..X.Y.Y.Y.Y.Y.Y.Y.Y.Y.Y.Y.Y.Y.R.W.!.^.^.^.^.^.^.^.^.^.^.!.c   $X",
"$X$X$X$X$X$X$X$X$X$X$X$X$X$X$X$X$X$X$X$X$X$X$X$X$X$X$X$X$X$X  o ....%.Y.Y.Y.Y.Y.Y.Y.Y.Y.Y.Y.Y.Y.Y.Y.T.R.E.W.!.!.!.!.!.W.E.U.o   ",
"$X$X$X$X$X$X$X$X$X$X$X$X$X$X$X$X$X$X$X$X$X$X$X$X$X$X$X$X$X$X$X  v ....%.Y.Y.Y.Y.Y.Y.Y.Y.Y.Y.Y.Y.Y.Y.Y.Y.Y.Y.Y.Y.Y.Y.Y.Y.Y.I.; $X",
"$X$X$X$X$X$X$X$X$X$X$X$X$X$X$X$X$X$X$X$X$X$X$X$X$X$X$X$X$X$X$X  > ..%.+.%.Y.Y.Y.Y.Y.Y.Y.Y.Y.Y.Y.Y.Y.Y.Y.Y.Y.Y.Y.Y.Y.Y.Y.Y.U.o $X",
"$X$X$X$X$X$X$X$X$X$X$X    $X$X$X$X$X$X$X$X$X$X$X$X$X$X$X$X$X$X$X  l P.Y.I.Y.Y.Y.Y.Y.Y.Y.Y.Y.Y.Y.Y.Y.Y.Y.Y.Y.Y.Y.Y.Y.Y.Y.Y.P.o $X",
"$X$X$X$X$X$X$X$X$X$X+ J @ +   $X$X$X$X$X$X$X$X$X$X$X$X$X$X$X$X$X  < Y.Y.Y.Y.Y.Y.Y.Y.Y.Y.Y.Y.Y.Y.Y.Y.Y.Y.Y.Y.Y.Y.Y.Y.Y.Y.U.L.o $X",
"$X$X$X$X$X$X$X$X$X$X5 t.y.e.K . $X$X$X$X$X$X$X$X$X$X$X$X$X$X    < , Y.Y.Y.Y.Y.Y.Y.Y.Y.Y.Y.Y.Y.Y.Y.Y.Y.Y.I.I.Y.Y.Y.Y.Y.Y.#.&.o $X",
"$X$X$X$X$X$X$X$X$X    + U u.u.w.@ $X$X$X$X$X$X$X$X$X$X$X$X$X$X  O.Y.Y.Y.Y.Y.Y.Y.Y.Y.Y.Y.Y.Y.Y.Y.Y.I.Y.Y.I.#.Y.Y.Y.Y.Y.U.} j   $X",
"$X$X$X$X$X$X$X$X$X8 w.9 Y u.u.u.t.8   $X$X$X$X$X$X$X$X$X$X$X$X$X  X.L.Y.Y.Y.Y.Y.Y.Y.Y.Y.Y.Y.Y.Y.Y.+.O.&.P.=.z =.Y.Y.o.$.z     $X",
"$X$X$X$X$X$X$X$X  J y.u.u.u.u.u.u.u.J   $X$X$X$X$X$X$X$X$X$X$X      z #.=.Y.Y.Y.=.L.Y.Y.Y.=.Y.Y.Y.O.  < l X...; O.Y., z k     $X",
"$X$X$X$X$X$X$X$X@ @ + Y u.u.u.u.u.u.u.Y @ $X$X$X$X$X$X$X$X$X7 S G 9   < d =.Y.Y.%.O.Y.Y.=.%.Y.Y.Y...  f     o ; h %.  ; d $X  $X",
"$X$X$X$X$X$X$X  I u.I y.u.u.u.u.u.u.u.u.r.F .   $X$X$X$X$X  e.u.t.w.D 7 > L.%.=.%.k Y.Y.@.+.Y.Y.Y.@.  q.8.o > | &.$.      $X$X$X",
"$X$X$X$X$X$X$X  6 G e.y.u.u.u.u.u.u.u.u.u.u.t.K @ .     $X  K u.u.u.t.$ o.O., =.@., Y.I.z X.Y.+.=.L.  n #X].2 g +.}       $X$X$X",
"$X$X$X$X$X$X$X$X    7 D L Y r.u.u.u.u.u.u.e.K 9 5 @ 8 8 @   5 u.u.e.% > , o g $.| , L.L.l l Y.+.} =.g   -.9.<.  k g       $X$X$X",
"$X$X$X$X$X$X$X$X$X$X  +   7 9 G K L w.r.L . 3 ;.9.n % 6 +   . 5 2 b   8 I @ | g | h $.L.l < Y.%.h g x     2 # 1 1 X O   $X$X$X$X",
"$X$X$X$X$X$X$X$X$X$X. 8 9 D 9 @ @ 6 9 D 9 2 :.0./.V X u ! _ T 8._.@X+X2 + > , o } k ..I.l   %.&.v   o B [.OXOXOX Xf.S.  $X$X$X$X",
"$X$X$X$X$X$X$X$X$X$X  + + L u.y.w.H 6 @ . n 2././.C u ` j.N./ ].2 +X9.9.  @ 8 . , z h I.|   h =.h $ 4.oXOXOXOXOXOXOXG.  $X$X$X$X",
"$X$X$X$X$X$X$X$X$X$X7 u.u.u.u.u.u.u.y.L @ Z <./.).-.T ` b.M.Q +X. o c D.T r y.F @ O o &.o.o g } g { [.OXOXOXOXOXOXOX`.  $X$X$X$X",
"$X$X$X$X$X$X$X$X$X$X@ H J e.u.u.y.L 5 $ 2 C ,./.'.;.u ] m.N.! )._.q.+XA s.F u.I G 9 . O.+.  z o > 3.{.OXOXOXOXOXOXOX{ $X$X$X$X$X",
"$X$X$X$X$X$X$X$X$X$X. 6 9 w.u.G + e { 4.Q A :.0.].2.0 ] x.M.b.T ;.<.2 i.m.r u.u.G G 9 , $.  j >   5.`.OXOXOXOXOX X3.  $X$X$X$X$X",
"$X$X$X$X$X$X$X$X$X$X5 u.y.K 7 p { 4.S.[.f.p o.8.'.6.& ` j.N.N.B.h.s.z.B._ D u.u.K H J . ..;   >   3.f.XXOX.X[.S.[   $X$X$X$X$X$X",
"$X$X$X$X$X$X$X$X$X$X+ G + e 3.g.F. XoXOX}.$ C 1.).0.O ' i.M.N.N.B.c.j.u   I u.u.I L u.H ; >       N 4.F.oX.X.X[.$ $X$X$X$X$X$X$X",
"$X$X$X$X$X$XO   $X$Xo p 3.S.[..XOXOXXXG.{ o b -.0./.n y i T T i * $ O ! + e.u.u.r.y.u.y.. o . 7 @   [ 5.F. X{.e $X$X$X$X$X$X$X$X",
"$X$X$X$XX B g.3.p p 3.F.|.OXOXOX|.f.e     $X  A -.<.V . T E ! s.i b 6.0 + e.u.u.t.u.u.u.D   7 u.u.u.L 8 2 [ p $X$X$X$X$X$X$X$X$X",
"$X$X$ [ f.}.OX}.F.[.oXOXoXoXS.B     $X$X$X$X      # 0 u _ c.i.k.z.# ;.A % e.u.u.e.H K L L . . y.u.u.t.S $X$X$X$X$X$X$X$X$X$X$X$X",
"$XN g.`.oXOXOXOXOXOXXX`.3.2     $X$X$X$X$X$X$X$X# _ ` ` j.N.c.d.M.' 2 2.% I u.u.y.L K I t.I   9 8 +     $X$X$X$X$X$X$X$X$X$X$X$X",
"  4.{.oXOXOXOXOXOXoXp     $X$X$X$X$X$X$X$X$X$X  ) ` ` i.m.N.M.m.m.n.* C M J y.u.u.u.u.u.y.J 6 7 . $X$X$X$X$X$X$X$X$X$X$X$X$X$X$X",
"  [ F.OXOXOXOXOXOX{.  $X$X$X$X$X$X$X$X  o     T ` ] ` h.N.N.N.N.M.N.h.$ :.8 I u.u.u.u.y.H D J + $X$X$X$X$X$X$X$X$X$X$X$X$X$X$X$X",
"$XB OX X|.OXOXOX XF.$X$X$X$X$X$X$X$X  A 6.O . ' ` ` ` j.N.N.N.N.N.N.N.T m A 9 U u.u.u.y.e.w.t.. $X$X$X$X$X$X$X$X$X$X$X$X$X$X$X$X",
"$X$XN f.OXXXG.f.{.4 $X$X$X$X$X$X$X  f <./.8.$ T ` ` i.i.b.N.N.N.N.N.M.x.= 1.n 9 Y u.u.u.u.u.I   $X$X$X$X$X$X$X$X$X$X$X$X$X$X$X$X",
"$X$X5. XF.[ X 3.{ $X$X$X$X$X$X$X$X$ C -.9./.8.5 E ` ` _ d.N.N.N.N.N.M.M.i.n 7.. 8 Y u.u.u.y.8 $X$X$X$X$X$X$X$X$X$X$X$X$X$X$X$X$X",
"$X$XX 2 $X$X$X$X$X$X$X$X$X$X$X$X$X  m  .:.9./.g.1 T ` ` ] k.b.c.z.d.i.( R X ;. .  @ J e.t.S   $X$X$X$X$X$X$X$X$X$X$X$X$X$X$X$X$X",
"$X$X$X$X$X$X$X$X$X$X$X$X$X$X$X$X$X$Xo C  .;.0.Q.9.M % a [ :.>.<.1.6.6.6.<.m 2 q.1     + . $X$X$X$X$X$X$X$X$X$X$X$X$X$X$X$X$X$X$X",
"$X$X$X$X$X$X$X$X$X$X$X$X$X$X$X$X$X$X$X$  . .;.0././. .:  . .V n f f 1 : = q   Z 3 $X$X$X$X$X$X$X$X$X$X$X$X$X$X$X$X$X$X$X$X$X$X$X",
"$X$X$X$X$X$X$X$X$X$X$X$X$X$X$X$X$X$X  o e [ X.;.0././.1.f . 5 R ( d.c.B.N.s.    $X$X$X$X$X$X$X$X$X$X$X$X$X$X$X$X$X$X$X$X$X$X$X$X",
"$X$X$X$X$X$X$X$X$X$X$X$X$X$X$X$X$X$X  e . e  . .;.9.Q.(./.<.n q T ! a.z.c.T $X$X$X$X$X$X$X$X$X$X$X$X$X$X$X$X$X$X$X$X$X$X$X$X$X$X",
"$X$X$X$X$X$X$X$X$X$X$X$X$X$X$X$X$X  1 f     2 C C :.3.f./.(._./.<. .M 1 X       $X$X$X$X$X$X$X$X$X$X$X$X$X$X$X$X$X$X$X$X$X$X$X$X",
"$X$X$X$X$X$X$X$X$X$X$X$X$X$X$X$X$X  3 f O O O 1 C -. .2.7.0.(._.'.'.).0.7.1.m   $X$X$X$X$X$X$X$X$X$X$X$X$X$X$X$X$X$X$X$X$X$X$X$X",
"$X$X$X$X$X$X$X$X$X$X$X$X$X$X$X$X$X$ e n b O f : o A  . .-.-.2.7.0./.).)././.m o       $X$X$X$X$X$X$X$X$X$X$X$X$X$X$X$X$X$X$X$X$X",
"$X$X$X$X$X$X$X$X$X$X$X$X$X$X$X$X  3 f V V o e f e O 2 Z X.[ -.-.-.:.,.<.7.<.O C Z n 2 o   $X$X$X$X$X$X$X$X$X$X$X$X$X$X$X$X$X$X$X",
"$X$X$X$X$X$X$X$X$X$X$X$X$X$X$X$Xo 3 b  .C b $ e e V f . e A C  . .-. .-.-.3 3 C C C C C m $   $X$X$X$X$X$X$X$X$X$X$X$X$X$X$X$X$X",
"$X$X$X$X$X$X$X$X$X$X$X$X$X$X$X  : f m C C Z O 1 e m C Z m 3 : ; 2 3 f 3 4   A C C C C C C C n   $X$X$X$X$X$X$X$X$X$X$X$X$X$X$X$X",
"$X$X$X$X$X$X$X$X$X$X$X$X$X$X$X  2 f Z C  .C V . 1 f V  .C C Z V m b 3 4 4 3 C C m : $ b Z C  .2   $X$X$X$X$X$X$X$X$X$X$X$X$X$X$X",
"$X$X$X$X$X$X$X$X$X$X$X$X$X$X$XO 3 n C C C C C A   $ f Z C  .C C C C  .C C C C 1 o u _ _ * 1 p O   $X$X$X$X$X$X$X$X$X$X$X$X$X$X$X",
"$X$X$X$X$X$X$X$X$X$X$X$X$X$X  3 f Z C C C C C C m   O f V C C C C C C C C V 1 u a.c.N.N.M.h.E &       $X$X$X$X$X$X$X$X$X$X$X$X$X",
"$X$X$X$X$X$X$X$X$X$X$X$X$X$XO e n C C C C C C C 1       2 M V Z C C C C Z $ ! d.B.N.N.N.J.K.Z.h.0   $X$X$X$X$X$X$X$X$X$X$X$X$X$X",
"$X$X$X$X$X$X$X$X$X$X$X$X$X  3 b V C C C C C Z : $X$X$X    o 3 f n n n M $ E d.M.N.N.C.J.H.l.u   $X$X$X$X$X$X$X$X$X$X$X$X$X$X$X$X",
"$X$X$X$X$X$X$X$X$X$X$X$X  $ 3 m  .C C C C V o $X$X$X$X$X$X    O $ O o   u s.n.N.N.C.H.k.u   $X$X$X$X$X$X$X$X$X$X$X$X$X$X$X$X$X$X",
"$X$X$X$X$X$X$X$X$X$X$X$X  3 b V C C C C b . $X$X$X$X$X$X$X  = = = #   u ` c.M.N.n.s.i   $X$X$X$X$X$X$X$X$X$X$X$X$X$X$X$X$X$X$X$X",
"$X$X$X$X$X$X$X$X$X      X O 2 V C C Z 2 $X$X$X$X$X$X$X$X$X  t t a q X _ a.M.b.s.i   $X$X$X$X$X$X$X$X$X$X$X$X$X$X$X$X$X$X$X$X$X$X",
"$X$X$X$X$X$X$X$X  y ] c.c.j.R X o 1     $X$X$X$X$X$X$X$X$X  q a ~ t X ' d.i.*   $X$X$X$X$X$X$X$X$X$X$X$X$X$X$X$X$X$X$X$X$X$X$X$X",
"$X$X$X$X$X$X$X. ! h.M.N.N.A.J.V.d.0   $X$X$X$X$X$X$X$X$X$X  = s ~ ^ t # & $X$X$X$X$X$X$X$X$X$X$X$X$X$X$X$X$X$X$X$X$X$X$X$X$X$X$X",
"$X$X$X$X$X$XX ! k.N.N.N.C.K.H.h.0   $X$X$X$X$X$X$X$X$X$X$X$XX W ~ ~ ~ # $X$X$X$X$X$X$X$X$X$X$X$X$X$X$X$X$X$X$X$X$X$X$X$X$X$X$X$X",
"$X$X$X$X$X  R h.M.N.N.Z.H.l.T   $X$X$X$X$X$X$X$X$X$X$X$X$X$X  W ~ ~ ^   $X$X$X$X$X$X$X$X$X$X$X$X$X$X$X$X$X$X$X$X$X$X$X$X$X$X$X$X",
"$X$X$X$X$Xy i.B.N.N.A.v.( . $X$X$X$X$X$X$X$X$X$X$X$X$X$X$X$X  s ~ ~ a   $X$X$X$X$X$X$X$X$X$X$X$X$X$X$X$X$X$X$X$X$X$X$X$X$X$X$X$X",
"$X$X$X$X* ` k.N.N.c.! # $X$X$X$X$X$X$X$X$X$X$X$X$X$X$X$X$X$X  a ~ ~ q   $X$X$X$X$X$X$X$X$X$X$X$X$X$X$X$X$X$X$X$X$X$X$X$X$X$X$X$X",
"  & =   ! ` b.b._ * $X$X$X$X$X$X$X$X$X$X$X$X$X$X$X$X$X$X$X$X$Xq ~ ~ W   $X$X$X$X$X$X$X$X$X$X$X$X$X$X$X$X$X$X$X$X$X$X$X$X$X$X$X$X",
"  = t   R ] a.X   $X$X$X$X$X$X$X$X$X$X$X$X$X$X$X$X$X$X$X$X$X$XX ^ / W   $X$X$X$X$X$X$X$X$X$X$X$X$X$X$X$X$X$X$X$X$X$X$X$X$X$X$X$X",
"$X= t s q q a   $X$X$X$X$X$X$X$X$X$X$X$X$X$X$X$X$X$X$X$X$X$X$X          $X$X$X$X$X$X$X$X$X$X$X$X$X$X$X$X$X$X$X$X$X$X$X$X$X$X$X$X",
"$X# a ~ ~ ~ s $X$X$X$X$X$X$X$X$X$X$X$X$X$X$X$X$X$X$X$X$X$X$X$X$X$X$X$X$X$X$X$X$X$X$X$X$X$X$X$X$X$X$X$X$X$X$X$X$X$X$X$X$X$X$X$X$X",
"$X  s ~ ~ ~ q $X$X$X$X$X$X$X$X$X$X$X$X$X$X$X$X$X$X$X$X$X$X$X$X$X$X$X$X$X$X$X$X$X$X$X$X$X$X$X$X$X$X$X$X$X$X$X$X$X$X$X$X$X$X$X$X$X",
"$X  s ~ ~ ~ X $X$X$X$X$X$X$X$X$X$X$X$X$X$X$X$X$X$X$X$X$X$X$X$X$X$X$X$X$X$X$X$X$X$X$X$X$X$X$X$X$X$X$X$X$X$X$X$X$X$X$X$X$X$X$X$X$X",
"$X  a ~ ~ W   $X$X$X$X$X$X$X$X$X$X$X$X$X$X$X$X$X$X$X$X$X$X$X$X$X$X$X$X$X$X$X$X$X$X$X$X$X$X$X$X$X$X$X$X$X$X$X$X$X$X$X$X$X$X$X$X$X",
"$X$Xq ~ ~ a   $X$X$X$X$X$X$X$X$X$X$X$X$X$X$X$X$X$X$X$X$X$X$X$X$X$X$X$X$X$X$X$X$X$X$X$X$X$X$X$X$X$X$X$X$X$X$X$X$X$X$X$X$X$X$X$X$X",
"$X$XX ~ ~ ^   $X$X$X$X$X$X$X$X$X$X$X$X$X$X$X$X$X$X$X$X$X$X$X$X$X$X$X$X$X$X$X$X$X$X$X$X$X$X$X$X$X$X$X$X$X$X$X$X$X$X$X$X$X$X$X$X$X",
"$X$X  W W W .   $X$X$X$X$X$X$X$X$X$X$X$X$X$X$X$X$X$X$X$X$X$X$X$X$X$X$X$X$X$X$X$X$X$X$X$X$X$X$X$X$X$X$X$X$X$X$X$X$X$X$X$X$X$X$X$X",
"$X$X          $X$X$X$X$X$X$X$X$X$X$X$X$X$X$X$X$X$X$X$X$X$X$X$X$X$X$X$X$X$X$X$X$X$X$X$X$X$X$X$X$X$X$X$X$X$X$X$X$X$X$X$X$X$X$X$X$X"
};
