/* XPM */
static char *result[] = {
/* columns rows colors chars-per-pixel */
"64 77 190 2 ",
"   c #010101",
".  c #0B0503",
"X  c #0C0A03",
"o  c #050A0B",
"O  c #0B0B0B",
"+  c #130404",
"@  c #110D03",
"#  c #120E0D",
"$  c #190605",
"%  c #1C1502",
"&  c #191407",
"*  c #071113",
"=  c #081416",
"-  c #091618",
";  c #0A1A1D",
":  c #131313",
">  c #1C1A15",
",  c #1C1B1C",
"<  c #171817",
"1  c #230907",
"2  c #2C0B09",
"3  c #220E0D",
"4  c #330C0A",
"5  c #3C0E0C",
"6  c #231B03",
"7  c #261A0A",
"8  c #211F1C",
"9  c #271912",
"0  c #331513",
"q  c #2C2203",
"w  c #2C250D",
"e  c #3A2C03",
"r  c #332808",
"t  c #3E3006",
"y  c #27231A",
"u  c #332B11",
"i  c #3C3213",
"p  c #0C1E20",
"a  c #211F20",
"s  c #0D2225",
"d  c #0F2629",
"f  c #102A2D",
"g  c #122E32",
"h  c #133135",
"j  c #15353A",
"k  c #16393D",
"l  c #242323",
"z  c #282726",
"x  c #2D2C2C",
"c  c #2A2826",
"v  c #312C2B",
"b  c #393328",
"n  c #312F30",
"m  c #343334",
"M  c #393738",
"N  c #3D3B3C",
"B  c #383637",
"V  c #410F0C",
"C  c #43100D",
"Z  c #4B110E",
"A  c #51130F",
"S  c #5A1511",
"D  c #551410",
"F  c #6A1914",
"G  c #631713",
"H  c #741B16",
"J  c #7C1D17",
"K  c #423303",
"L  c #4C3A05",
"P  c #523E03",
"I  c #443917",
"U  c #453E32",
"Y  c #4E372C",
"T  c #5C4605",
"R  c #5A4607",
"E  c #51441A",
"W  c #5D4D1E",
"Q  c #57481C",
"!  c #4D4018",
"~  c #654C04",
"^  c #6D5305",
"/  c #7C5E05",
"(  c #725707",
")  c #6F5810",
"_  c #7B6111",
"`  c #4B4436",
"'  c #544D3D",
"]  c #66562B",
"[  c #193E43",
"{  c #173C40",
"}  c #403E41",
"|  c #194146",
" . c #1B454B",
".. c #1C494F",
"X. c #1E4D53",
"o. c #1F5157",
"O. c #21565D",
"+. c #25484D",
"@. c #235B63",
"#. c #255F68",
"$. c #26636B",
"%. c #28676F",
"&. c #296C75",
"*. c #2A6D76",
"=. c #2C737C",
"-. c #424242",
";. c #4C4B4C",
":. c #484649",
">. c #535353",
",. c #5A5A5A",
"<. c #575043",
"1. c #625846",
"2. c #6C614D",
"3. c #786C56",
"4. c #7D715A",
"5. c #646364",
"6. c #6B6A6B",
"7. c #6F6C71",
"8. c gray45",
"9. c #7B7B7B",
"0. c #787479",
"q. c #706A6A",
"w. c #841F19",
"e. c #8A201A",
"r. c #94231C",
"t. c #9B241E",
"y. c #A4261F",
"u. c #826305",
"i. c #8E6C07",
"p. c #9B7506",
"a. c #947108",
"s. c #836712",
"d. c #A47C07",
"f. c #82755D",
"g. c #AB8207",
"h. c #BA8D08",
"j. c #B48907",
"k. c #A38019",
"l. c #BF9822",
"z. c #CB9A08",
"x. c #C49508",
"c. c #D19F09",
"v. c #D6A209",
"b. c #DBA60A",
"n. c #DAA914",
"m. c #E3AC09",
"M. c #EDB40A",
"N. c #F1B70A",
"B. c #F9BD0A",
"V. c #F5BA0A",
"C. c #F1BA17",
"Z. c #FAC21A",
"A. c #F4C538",
"S. c #96876B",
"D. c #9E8E71",
"F. c #9F9072",
"G. c #A59677",
"H. c #FBD259",
"J. c #F3C848",
"K. c #2E7781",
"L. c #2F7A84",
"P. c #317E89",
"I. c #307C86",
"U. c #32828D",
"Y. c #3D8993",
"T. c #388691",
"R. c #448D97",
"E. c #4D939D",
"W. c #52949D",
"Q. c #5C9CA5",
"!. c #5597A1",
"~. c #609EA7",
"^. c #63A0A9",
"/. c #838383",
"(. c gray54",
"). c #939393",
"_. c #9A9A9A",
"`. c #BAA885",
"'. c #A3A3A3",
"]. c #A9A9A9",
"[. c #BCBCBC",
"{. c #C9B690",
"}. c #D2BE97",
"|. c #C2AF8B",
" X c #D9C49B",
".X c #E2CCA2",
"XX c #ECD5A9",
"oX c #F0D9AC",
"OX c #E2E2E2",
"+X c None",
/* pixels */
"+X+X+X+X+X+X+X+X+X+X+X+X+X+X+X+X+X+X+X+X+X+X+X+X+X+X+X+X+X+X+X+X+X  +X+X+X+X+X+X+X+X+X+X+X+X+X+X+X+X+X+X+X+X+X+X+X+X+X+X+X+X+X+X",
"+X+X+X+X+X+X+X+X+X+X+X+X+X+X+X+X+X+X+X+X+X+X+X+X+X+X+X+X+X+X+X+X+X    +X+X+X+X+X+X+X+X+X+X+X+X+X+X+X+X+X+X+X+X+X+X+X+X+X+X+X+X+X",
"+X+X+X+X+X+X+X+X+X+X+X+X+X+X+X+X+X+X+X+X+X+X+X+X+X+X+X+X+X+X+X+X+X  f *   +X+X+X+X+X+X+X+X+X+X+X+X+X+X+X+X+X+X+X+X+X+X+X+X+X+X+X",
"+X+X+X+X+X+X+X+X+X+X+X+X+X+X+X+X+X+X+X+X+X+X+X+X+X+X+X+X+X+X+X+X+X  o.=.[ * +X+X+X+X+X+X+X+X+X+X+X+X+X+X+X+X+X+X+X+X+X+X+X+X+X+X",
"+X+X+X+X+X+X+X+X+X+X+X+X+X+X+X+X+X+X+X+X+X+X+X+X+X+X+X+X+X+X+X+X+X  X.U.U.@.=   +X+X+X+X+X+X+X+X+X+X+X+X+X+X+X+X+X+X+X+X+X+X+X+X",
"+X+X+X+X+X+X+X+X+X+X+X+X+X+X+X+X+X+X+X+X+X+X+X+X+X+X+X+X+X+X+X+X+X  { U.U.U.P.@.-   +X+X+X+X+X+X+X+X+X+X+X+X+X+X+X+X+X+X+X+X+X+X",
"+X+X+X+X+X+X+X+X+X+X+X+X+X+X+X+X+X+X+X+X+X+X+X+X+X+X+X+X+X+X+X+X+X  k L.U.U.U.U.P.o.;   +X+X+X+X+X+X+X  +X+X+X+X+X+X+X+X+X+X+X+X",
"+X+X+X+X+X+X+X+X+X+X+X+X+X+X+X+X+X+X+X+X+X+X+X+X+X+X+X+X+X+X+X+X+X  k *.U.U.U.U.U.U.=. .s o +X+X+X+X+X    +X+X+X+X+X+X+X+X+X+X+X",
"+X+X+X+X+X+X+X+X+X+X+X+X+X+X+X+X+X+X+X+X+X+X+X+X+X+X+X+X+X+X+X+X+X  j $.U.U.U.U.U.U.U.U.U.&.X.f ; o +X  g o +X+X+X+X+X+X+X+X+X+X",
"+X+X+X+X+X+X+X+X+X+X+X+X+X+X+X+X+X+X+X+X+X+X+X+X+X+X+X+X+X+X+X+X+X  h O.U.U.U.U.U.U.U.U.U.U.U.U.K.$.j * | @.= +X+X+X+X+X+X+X+X+X",
"+X+X+X+X+X+X+X+X+X+X+X+X+X+X+X+X+X+X+X+X+X+X+X+X+X+X+X+X+X+X+X+X+X  g  .U.U.U.U.U.U.U.U.U.U.U.U.U.U.U.U.K.U.&.= +X+X+X+X+X+X+X+X",
"+X+X+X+X+X+X+X+X+X+X+X+X+X+X+X+X+X+X+X+X+X+X+X+X+X+X+X+X+X+X+X+X+X  f | =.U.U.U.U.U.U.U.U.U.U.U.U.U.U.U.U.U.U.=.s   +X+X+X+X+X+X",
"+X+X+X+X+X+X+X+X+X+X+X+X+X+X+X+X+X+X+X+X+X+X+X+X+X+X+X+X+X+X+X+X+X+Xs [ #.U.U.U.U.U.U.U.U.U.U.U.U.U.U.U.U.U.U.U.U.g   +X+X+X+X+X",
"+X+X+X+X+X+X+X+X+X+X+X+X+X+X+X+X+X+X+X+X+X+X+X+X+X+X+X+X+X+X+X+X+X+X= | X.P.U.U.U.U.U.U.U.U.U.U.U.U.U.U.U.U.U.U.U.I.h   +X+X+X+X",
"+X+X+X+X+X+X+X+X+X+X+X+X+X+X+X+X+X+X+X+X+X+X+X+X+X+X+X+X+X+X+X+X+X+Xo [  .=.U.U.U.U.U.U.U.U.U.U.U.U.U.U.U.U.U.U.U.R.W.[ o +X+X+X",
"+X+X+X+X+X+X+X+X+X+X+X+X+X+X+X+X+X+X+X+X+X+X+X+X+X+X+X+X+X+X+X+X+X+X  j | &.U.U.U.U.U.U.U.U.Y.T.U.U.U.U.U.U.U.Y.W.^.~.W.+.  +X+X",
"+X+X+X+X+X+X+X+X+X+X+X+X+X+X+X+X+X+X+X+X+X+X+X+X+X+X+X+X+X+X+X+X+X+X+X; | o.U.U.U.U.U.U.U.U.U.U.Y.R.E.W.!.!.~.~.^.^.^.^.Q.+.o +X",
"+X+X+X+X+X+X+X+X+X+X+X+X+X+X+X+X+X+X+X+X+X+X+X+X+X+X+X+X+X+X+X+X+X+X+Xo {  .&.U.U.U.U.U.U.U.U.U.U.U.U.T.Y.E.!.Q.Q.~.Q.Q.!.R.j   ",
"+X+X+X+X+X+X+X+X+X+X+X+X+X+X+X+X+X+X+X+X+X+X+X+X+X+X+X+X+X+X+X+X+X+X+X  f | o.=.U.U.U.U.U.U.U.U.U.U.U.U.U.U.T.T.Y.Y.Y.Y.T.U...  ",
"+X+X+X+X+X+X+X+X+X+X+X+X+X+X+X+X+X+X+X+X+X+X+X+X+X+X+X+X+X+X+X+X+X+X+X  o k @.@.K.U.U.U.U.U.U.U.U.U.U.U.U.U.U.U.U.U.U.U.U.U.[   ",
"+X+X+X+X+X+X+X+X+X+X+X+X+X+X+X+X+X+X+X+X+X+X+X+X+X+X+X+X+X+X+X+X+X+X+X+X  h =.U.L.U.U.U.U.U.U.U.U.U.U.U.U.U.U.U.U.U.U.U.U.U.{   ",
"+X+X+X+X+X+X+X+X+X+X+X+X+X+X+X+X+X+X+X+X+X+X+X+X+X+X+X+X+X+X+X+X+X+X+X+X  ; K.U.U.U.U.U.U.U.U.U.U.U.U.U.U.U.U.U.U.U.U.U.U.L.k   ",
"+X+X+X+X+X+X+X+X+X+X+X+X+X+X+X+X+X+X+X+X+X+X+X+X+X+X+X+X+X+X+X+X+X+X+X  f X.L.U.U.U.U.U.U.U.U.U.U.U.U.U.U.U.K.P.U.U.U.U.P.| h   ",
"+X+X+X+X+X+X+X+X+X+X+X+X+X+X+X+X+X+X+X+X+X+X+X+X+X+X+X+X+X+X+X+X+X+X+X+X* %.U.U.U.U.U.U.U.U.U.U.U.U.U.K.K.U.K.O.P.U.U.$.&.; *   ",
"+X+X+X+X+X+X+X+X+X+X+X+X+X+X+X+X+X+X+X+X+X+X+X+X+X+X+X+X+X+X+X+X+X+X+X+X  ; @.=.U.U.U.L.U.U.U.U.P.U.U.$.s  .@.o.h $.U.s  .-     ",
"+X+X+X+X+X+X+X+X+X+X+X+X+X+X+X+X+X+X    +X+X+X+X+X+X+X+X+X+X+X+X+X+X. 4 5 2 * d X.U.U.&.#.U.U.$.=.U.U.@.  - o - = ; $.  p -     ",
"+X+X+X+X+X+X+X+X+X+X+X+X+X+X+X+X+X+X2 1 2 2   +X+X+X+X+X+X+X+X+X+X+X2 r.w.F 4 $ h K.&.*...U.U.k *.U.U.$.  9.z   s X.%.  o o +X+X",
"+X+X+X+X+X+X+X+X+X+X+X+X+X+X+X+X+X  F t.y.y.e.Z + +X+X+X+X+X+X+X+X+X$ y.y.y.J # @.h  .$.h U.*.s %.%.=.L.  /.OX,.*  .X.    +X+X+X",
"+X+X+X+X+X+X+X+X+X+X+X+X+X+X+X+X  . 1 V 4 5 D J t.J 4     O O +X+X    G G V + o O O @.k f $.$.= O.=.h @.f . x ;.< * s     +X+X+X",
"+X+X+X+X+X+X+X+X+X+X+X+X+X+X+X+X1 w.w.t.w.H S Z C Z 5 : B 5.n   X @ 6 9 q.).>.3 C s h j f X.&.= | =.g = s O b ` ` ` 8 >   +X+X+X",
"+X+X+X+X+X+X+X+X+X+X+X+X+X+X+X+X+ V H y.y.y.y.y.r.w.4 U 6.S.;.6 ^ d.d./.-.].'.5.. : o f f g =.= ; *.h   b G..XoXoXoX|.2.+X+X+X+X",
"+X+X+X+X+X+X+X+X+X+X+X+X+X+X+X+X+ 4 G t.y.y.y.y.y.y.0 +.8./.5.i i.M.d.].O : >./.e H 5 . s - =.; = | h y G.oXoXoXoXoXoXf.+X+X+X+X",
"+X+X+X+X+X+X+X+X+X+X+X+X+X+X+X+XC y.y.y.y.y.y.y.w.Z < -.8._.7.t a.N.v.,.[.8.'.N g.F w.Z 1   *.; ; ; p ` }.oXoXoXoXoXoX1.+X+X+X+X",
"+X+X+X+X+X+X+X+X+X+X+X+X+X+X+X+X+ $ Z t.y.y.r.5 9 U z U 6._.0.w u.m.B.p.i :.i p.d.F t.G D 4 [ f * s O ' {.oXoXoXoXXXS.+X+X+X+X+X",
"+X+X+X+X+X+X+X+X+X+X+X+X+X+X+X+X2 e.t.y.r.S @ U 4.S.' M ;.).(.w ( x.B.B.V.m.V.b.q e.y.H D S O j o = . ` D.oXXX.X`.'   +X+X+X+X+X",
"+X+X+X+X+X+X+X+X+X+X+X+X+X+X+X+X2 F S Z 0 b 2.G.}..XG.y +.9._.x T u.v.z.h.p.T e $ y.y.w.H r.5 ; o     > 3.`.XX.X{.` +X+X+X+X+X+X",
"+X+X+X+X+X+X+X+X+X+X+X+X+X+X+X+X    # b 3.G. XoX.X`.<.. x >./.>.% 6 e K % s I ( 4 y.y.t.r.y.w.o   4 5 4 Y 1.S.`.` +X+X+X+X+X+X+X",
"+X+X+X+X+X+X+X+X+X+X+X+X+X+Xy O   > 1.S. XoXoX{.1.>     O x :.m + T / j.i.y ;.6 5 y.y.r.r.y.y.1   J y.y.w.2 > b +X+X+X+X+X+X+X+X",
"+X+X+X+X+X+X+X+X+X+X+X. b 4.`.f.3.G.XXXX.XG.U   +X+X+X+X    r R ~ h.v.p.N.L } M 5 y.y.r.D A S G $ A J F C . +X+X+X+X+X+X+X+X+X+X",
"+X+X+X+X+X+X+X+X+X+Xy 4.}.XXoXoXoXoX|.3.:   +X+X+X+X+X+X+Xe / / a.V.B.v.b.z.9 :.4 e.y.y.t.r.y.t.A + +     +X+X+X+X+X+X+X+X+X+X+X",
"+X+X+X+X+X+X+X+X+Xy f.}.oXoXoXoXoXF.y O +X+X+X+X+X+X  +X@ ^ / / h.B.B.V.M.N.R c v F y.y.y.y.t.S Z 4 +X+X+X+X+X+X+X+X+X+X+X+X+X+X",
"+X+X+X+X+X+X+X+X+Xc f..XoXoXoXoXoX<.+X+X+X+X+X+XO N m   K / / / z.B.B.B.B.B.c.r } 0 H t.y.y.r.J w.5 +X+X+X+X+X+X+X+X+X+X+X+X+X+X",
"+X+X+X+X+X+X+X+X+XO 4.oX.XoXoX.X.Xb +X+X+X+X+X  z 5.9.n % / / / d.V.B.B.B.B.B.j.a } 2 H y.y.y.y.t.2 +X+X+X+X+X+X+X+X+X+X+X+X+X+X",
"+X+X+X+X+X+X+X+X+X+X8 1. XXXG.G.G.+X+X+X+X+X+XO -.:.0./.B e / / u.z.B.B.B.B.B.B.K ,.a 1 H t.y.y.H . +X+X+X+X+X+X+X+X+X+X+X+X+X+X",
"+X+X+X+X+X+X+X+X+X+X+XG.f.b +Xb 8 +X+X+X+X+X+X  x } >.9./.:.1 ~ ~ ~ a.i.s._ ] ] U : 7.: + 4 G Z + +X+X+X+X+X+X+X+X+X+X+X+X+X+X+X",
"+X+X+X+X+X+X+X+X+X+X+X  +X+X+X+X+X+X+X+X+X+X+X  O n } >./.f.,.$ n 5.7.0.7.5.>.;.} : } } +X+X+X+X+X+X+X+X+X+X+X+X+X+X+X+X+X+X+X+X",
"+X+X+X+X+X+X+X+X+X+X+X+X+X+X+X+X+X+X+X+X+X+X  O   : M } ,.9.W.3.z a < w w E ) u.i.7 # < +X+X+X+X+X+X+X+X+X+X+X+X+X+X+X+X+X+X+X+X",
"+X+X+X+X+X+X+X+X+X+X+X+X+X+X+X+X+X+X+X+X+X  : : O : , U +.>.0./.8.,.x u P / j.b.c.. +X+X+X+X+X+X+X+X+X+X+X+X+X+X+X+X+X+X+X+X+X+X",
"+X+X+X+X+X+X+X+X+X+X+X+X+X+X+X+X+X+X+X+X  : a : # l l : } } ;.8././.(.,.M w 7 e t   +X+X+X+X+X+X+X+X+X+X+X+X+X+X+X+X+X+X+X+X+X+X",
"+X+X+X+X+X+X+X+X+X+X+X+X+X+X+X+X+X+X+X  * a l a : c } x O M -.:.,.8./._.'.'.(.7.>.N   +X+X+X+X+X+X+X+X+X+X+X+X+X+X+X+X+X+X+X+X+X",
"+X+X+X+X+X+X+X+X+X+X+X+X+X+X+X+X+X+X  O a c N l # l } N m # l } U } :.,.6.9.).)./.>.  +X+X+X+X+X+X+X+X+X+X+X+X+X+X+X+X+X+X+X+X+X",
"+X+X+X+X+X+X+X+X+X+X+X+X+X+X+X+X+X  : , c M N m O a M } N n : , B } +.` :.;.>.,.5.z +X+X+X+X+X+X+X+X+X+X+X+X+X+X+X+X+X+X+X+X+X+X",
"+X+X+X+X+X+X+X+X+X+X+X+X+X+X+X+Xo : a x N N N N a < n N N U N x , < a n B B M M m     +X+X+X+X+X+X+X+X+X+X+X+X+X+X+X+X+X+X+X+X+X",
"+X+X+X+X+X+X+X+X+X            O , a x M N N N } B , , n N } N N N B v , : o o o o , ,   +X+X+X+X+X+X+X+X+X+X+X+X+X+X+X+X+X+X+X+X",
"+X+X+X+X+X+X  6 e T / u.^ r . , a m N N N N N N N B : < l B N } N N } N N N M B m N N , +X+X+X+X+X+X+X+X+X+X+X+X+X+X+X+X+X+X+X+X",
"+X. & . X K ( p.z.V.B.B.V.M.T < n } U N } N N N B l o   * a l n N N N N } N N U N N N N <   +X+X+X+X+X+X+X+X+X+X+X+X+X+X+X+X+X+X",
"+XX w @ K u.x.B.B.B.V.V.B.Z.n.q z } N N N B n ,   +X+X+X+X. < , l n M N U N N } } N N N M < +X+X+X+X+X+X+X+X+X+X+X+X+X+X+X+X+X+X",
"+XX u i 6 / h.x.v.b.C.A.J.H.H.k.6 z l a < O +X+X+X+X+X+X+X+X  o # < , x n B M N N N N N } M O +X+X+X+X  +X+X+X+X+X+X+X+X+X+X+X+X",
"+X@ I W Q I   @ 6 r e K P ~ ) _ T     +X+X+X+X+X+X+X+X+X+X+X+X+X    o O < , l z x B M N N M l     X   +X+X+X+X+X+X+X+X+X+X+X+X+X",
"+X& E W W i +X+X+X+X+X+X+X+X+X+X+X    +X+X+X+X+X+X+X+X+X+X+X+X+X+X        O * < , l c x l < & e T ~ . +X+X+X+X+X+X+X+X+X+X+X+X+X",
"  > W W Q o +X+X+X+X+X+X+X+X+X+X+X+X+X+X+X+X+X+X+X+X+X+X+X+X+X+X+X+X+X+X+X+X+X  . * , . P z.B.H.J.K +X+X+X+X+X+X+X+X+X+X+X+X+X+X",
"  u W Q 7 +X+X+X+X+X+X+X+X+X+X+X+X+X+X+X+X+X+X+X+X+X+X+X+X+X+X+X+X+X+X+X+X+X+X+X+X+X  K b.Z.Z.H._ +X+X+X+X+X+X+X+X+X+X+X+X+X+X+X",
"  i W ! X +X+X+X+X+X+X+X+X+X+X+X+X+X+X+X+X+X+X+X+X+X+X+X+X+X+X+X+X+X+X+X+X+X+X+X+X+XX u.N.B.A.l.r +X+X+X+X+X+X+X+X+X+X+X+X+X+X+X",
"  r E I . +X+X+X+X+X+X+X+X+X+X+X+X+X+X+X+X+X+X+X+X+X+X+X+X+X+X+X+X+X+X+X+X+X+X+X+X+Xq h.B.B.A.r +X+X+X+X+X+X+X+X+X+X+X+X+X+X+X+X",
"+X  . X   +X+X+X+X+X+X+X+X+X+X+X+X+X+X+X+X+X+X+X+X+X+X+X+X+X+X+X+X+X+X+X+X+X+X+X+X+XP v.V.Z.a.+X+X+X+X+X+X+X+X+X+X+X+X+X+X+X+X+X",
"+X+X+X+X+X+X+X+X+X+X+X+X+X+X+X+X+X+X+X+X+X+X+X+X+X+X+X+X+X+X+X+X+X+X+X+X+X+X+X+X+X  ( m.V.m.% +X+X+X+X+X+X+X+X+X+X+X+X+X+X+X+X+X",
"+X+X+X+X+X+X+X+X+X+X+X+X+X+X+X+X+X+X+X+X+X+X+X+X+X+X+X+X+X+X+X+X+X+X+X+X+X+X+X+X+X@ u.m.m.R +X+X+X+X+X+X+X+X+X+X+X+X+X+X+X+X+X+X",
"+X+X+X+X+X+X+X+X+X+X+X+X+X+X+X+X+X+X+X+X+X+X+X+X+X+X+X+X+X+X+X+X+X+X+X+X+X+X+X+X+X% / b.u.  +X+X+X+X+X+X+X+X+X+X+X+X+X+X+X+X+X+X",
"+X+X+X+X+X+X+X+X+X+X+X+X+X+X+X+X+X+X+X+X+X+X+X+X+X+X+X+X+X+X+X+X+X+X+X+X+X+Xo @ 7 6 / p.q +X+X+X+X+X+X+X+X+X+X+X+X+X+X+X+X+X+X+X",
"+X+X+X+X+X+X+X+X+X+X+X+X+X+X+X+X+X+X+X+X+X+X+X+X+X+X+X+X+X+X+X+X+X+X+X+X+X+X& w i X q 6 +X+X+X+X+X+X+X+X+X+X+X+X+X+X+X+X+X+X+X+X",
"+X+X+X+X+X+X+X+X+X+X+X+X+X+X+X+X+X+X+X+X+X+X+X+X+X+X+X+X+X+X+X+X+X+X+X+X+X+X@ w I I i i +X+X+X+X+X+X+X+X+X+X+X+X+X+X+X+X+X+X+X+X",
"+X+X+X+X+X+X+X+X+X+X+X+X+X+X+X+X+X+X+X+X+X+X+X+X+X+X+X+X+X+X+X+X+X+X+X+X+X+X+X. u W W E X +X+X+X+X+X+X+X+X+X+X+X+X+X+X+X+X+X+X+X",
"+X+X+X+X+X+X+X+X+X+X+X+X+X+X+X+X+X+X+X+X+X+X+X+X+X+X+X+X+X+X+X+X+X+X+X+X+X+X+X+X@ E W W &   +X+X+X+X+X+X+X+X+X+X+X+X+X+X+X+X+X+X",
"+X+X+X+X+X+X+X+X+X+X+X+X+X+X+X+X+X+X+X+X+X+X+X+X+X+X+X+X+X+X+X+X+X+X+X+X+X+X+X+X  u W W i . +X+X+X+X+X+X+X+X+X+X+X+X+X+X+X+X+X+X",
"+X+X+X+X+X+X+X+X+X+X+X+X+X+X+X+X+X+X+X+X+X+X+X+X+X+X+X+X+X+X+X+X+X+X+X+X+X+X+X+X+Xo i W Q w   +X+X+X+X+X+X+X+X+X+X+X+X+X+X+X+X+X",
"+X+X+X+X+X+X+X+X+X+X+X+X+X+X+X+X+X+X+X+X+X+X+X+X+X+X+X+X+X+X+X+X+X+X+X+X+X+X+X+X+X+X  i &   +X+X+X+X+X+X+X+X+X+X+X+X+X+X+X+X+X+X",
"+X+X+X+X+X+X+X+X+X+X+X+X+X+X+X+X+X+X+X+X+X+X+X+X+X+X+X+X+X+X+X+X+X+X+X+X+X+X+X+X+X+X+X  +X+X+X+X+X+X+X+X+X+X+X+X+X+X+X+X+X+X+X+X"
};
