/* XPM */
static char *result[] = {
/* columns rows colors chars-per-pixel */
"64 69 201 2 ",
"   c #020202",
".  c #0A0503",
"X  c #0C0A03",
"o  c #040B0C",
"O  c #0C0C0C",
"+  c #030708",
"@  c #130504",
"#  c #1C0705",
"$  c #130E04",
"%  c #160C0C",
"&  c #161102",
"*  c #1C1602",
"=  c #18140B",
"-  c #060F10",
";  c #071113",
":  c #0A1416",
">  c #0A1A1C",
",  c #081618",
"<  c #141313",
"1  c #191516",
"2  c #1D1A14",
"3  c #1D1C1C",
"4  c #230807",
"5  c #2C0B09",
"6  c #270A08",
"7  c #350C0A",
"8  c #3A0E0B",
"9  c #231A02",
"0  c #211C0B",
"q  c #2A1B04",
"w  c #39110C",
"e  c #221E1B",
"r  c #361614",
"t  c #2C240E",
"y  c #2B2206",
"u  c #3C2E03",
"i  c #322808",
"p  c #272217",
"a  c #362E14",
"s  c #3C310F",
"d  c #0C1F21",
"f  c #1F1E20",
"g  c #201F21",
"h  c #0D2224",
"j  c #0E262A",
"k  c #10292D",
"l  c #142224",
"z  c #122E31",
"x  c #133135",
"c  c #15363A",
"v  c #16393E",
"b  c #232323",
"n  c #2D2A22",
"m  c #2C2B2C",
"M  c #282727",
"N  c #322E27",
"B  c #3B352A",
"V  c #393327",
"C  c #333233",
"Z  c #393738",
"A  c #3D3B3C",
"S  c #383335",
"D  c #312F30",
"F  c #410F0C",
"G  c #44100D",
"H  c #4C120E",
"J  c #52130F",
"K  c #531410",
"L  c #5C1512",
"P  c #6B1914",
"I  c #651814",
"U  c #721A15",
"Y  c #7A1C17",
"T  c #7E1E18",
"R  c #423204",
"E  c #4A3805",
"W  c #523F04",
"Q  c #4B3E18",
"!  c #443816",
"~  c #43261E",
"^  c #443E31",
"/  c #443C28",
"(  c #5B4606",
")  c #5C4D1E",
"_  c #55461B",
"`  c #4D4019",
"'  c #674E06",
"]  c #715605",
"[  c #7B5D05",
"{  c #765B0A",
"}  c #685316",
"|  c #72590E",
" . c #7F6005",
".. c #4C4537",
"X. c #554C3D",
"o. c #5B523A",
"O. c #183E43",
"+. c #173C41",
"@. c #194045",
"#. c #1A444A",
"$. c #1C494F",
"%. c #1E4D53",
"&. c #1F5158",
"*. c #21555C",
"=. c #22585F",
"-. c #245D65",
";. c #2B5C63",
":. c #26636B",
">. c #28676F",
",. c #296A73",
"<. c #2A6B74",
"1. c #2C737D",
"2. c #3C6E75",
"3. c #424242",
"4. c #4B4B4B",
"5. c #484649",
"6. c #545353",
"7. c #5C5A59",
"8. c #56524E",
"9. c #665C49",
"0. c #615A50",
"q. c #6E654C",
"w. c #746953",
"e. c #7E725A",
"r. c #5F5C60",
"t. c #605D61",
"y. c #686868",
"u. c #737373",
"i. c #7C7C7C",
"p. c #706F6E",
"a. c #831F19",
"s. c #881F1A",
"d. c #8D211B",
"f. c #93221C",
"g. c #9D241E",
"h. c #A3261F",
"j. c #805E07",
"k. c #866507",
"l. c #9B7708",
"z. c #8F7012",
"x. c #A47D07",
"c. c #82755D",
"v. c #897C62",
"b. c #AA8207",
"n. c #A9820C",
"m. c #B18607",
"M. c #B78C0B",
"N. c #BE9108",
"B. c #AF8918",
"V. c #C49508",
"C. c #CB9A09",
"Z. c #D19F08",
"A. c #DBA609",
"S. c #D4A109",
"D. c #E2AB09",
"F. c #EBB20A",
"G. c #F6BA0A",
"H. c #F9BD0A",
"J. c #F2B70A",
"K. c #DEB53C",
"L. c #E3B630",
"P. c #F8C52D",
"I. c #95876B",
"U. c #A49475",
"Y. c #AC9B7B",
"T. c #FBCD47",
"R. c #F7CE56",
"E. c #2D7680",
"W. c #2F7A84",
"Q. c #307C86",
"!. c #317E89",
"~. c #32828D",
"^. c #3B8893",
"/. c #428C96",
"(. c #468F99",
"). c #4B919C",
"_. c #4B8C95",
"`. c #5C9BA5",
"'. c #5698A1",
"]. c #629FA8",
"[. c #609EA7",
"{. c #63A0A9",
"}. c #838383",
"|. c #8C8C8B",
" X c #999999",
".X c #939393",
"XX c #B9A785",
"oX c #AAAAAA",
"OX c #C4B18D",
"+X c #D1BD96",
"@X c #C6B38E",
"#X c #D6C199",
"$X c #DAC59C",
"%X c #DFCAA0",
"&X c #E2CCA2",
"*X c #EDD6AA",
"=X c #EFD8AB",
"-X c #E8D2A6",
";X c #F0D9AC",
":X c #CBCBCB",
">X c None",
/* pixels */
">X>X>X>X>X>X>X>X>X>X>X>X>X>X>X>X>X>X>X>X>X>X>X>X>X>X>X>X>X>X>X>X>X>X  >X>X>X>X>X>X>X>X>X>X>X>X>X>X>X>X>X>X>X>X>X>X>X>X>X>X>X>X>X",
">X>X>X>X>X>X>X>X>X>X>X>X>X>X>X>X>X>X>X>X>X>X>X>X>X>X>X>X>X>X>X>X>X>X    >X>X>X>X>X>X>X>X>X>X>X>X>X>X>X>X>X>X>X>X>X>X>X>X>X>X>X>X",
">X>X>X>X>X>X>X>X>X>X>X>X>X>X>X>X>X>X>X>X>X>X>X>X>X>X>X>X>X>X>X>X>X>X+ k o   >X>X>X>X>X>X>X>X>X>X>X>X>X>X>X>X>X>X>X>X>X>X>X>X>X>X",
">X>X>X>X>X>X>X>X>X>X>X>X>X>X>X>X>X>X>X>X>X>X>X>X>X>X>X>X>X>X>X>X>X>X+ *.>.k + >X>X>X>X>X>X>X>X>X>X>X>X>X>X>X>X>X>X>X>X>X>X>X>X>X",
">X>X>X>X>X>X>X>X>X>X>X>X>X>X>X>X>X>X>X>X>X>X>X>X>X>X>X>X>X>X>X>X>X>Xo %.~.W.*.h o >X>X>X>X>X>X>X>X>X>X>X>X>X>X>X>X>X>X>X>X>X>X>X",
">X>X>X>X>X>X>X>X>X>X>X>X>X>X>X>X>X>X>X>X>X>X>X>X>X>X>X>X>X>X>X>X>X>Xo #.Q.~.~.E.*.h + >X>X>X>X>X>X>X>X>X>X>X>X>X>X>X>X>X>X>X>X>X",
">X>X>X>X>X>X>X>X>X>X>X>X>X>X>X>X>X>X>X>X>X>X>X>X>X>X>X>X>X>X>X>X>X>X- +.E.~.~.~.~.W.&.h + >X>X>X>X>X>X    >X>X>X>X>X>X>X>X>X>X>X",
">X>X>X>X>X>X>X>X>X>X>X>X>X>X>X>X>X>X>X>X>X>X>X>X>X>X>X>X>X>X>X>X>X>Xo v <.~.~.~.~.~.~.W.*.k +   >X>X>X>X    >X>X>X>X>X>X>X>X>X>X",
">X>X>X>X>X>X>X>X>X>X>X>X>X>X>X>X>X>X>X>X>X>X>X>X>X>X>X>X>X>X>X>X>X>Xo c >.~.~.~.~.~.~.~.~.~.1.%.k o     x >   >X>X>X>X>X>X>X>X>X",
">X>X>X>X>X>X>X>X>X>X>X>X>X>X>X>X>X>X>X>X>X>X>X>X>X>X>X>X>X>X>X>X>X>X+ x *.~.~.~.~.~.~.~.~.~.~.~.~.W.>.%.@.W.j   >X>X>X>X>X>X>X>X",
">X>X>X>X>X>X>X>X>X>X>X>X>X>X>X>X>X>X>X>X>X>X>X>X>X>X>X>X>X>X>X>X>X>X+ z %.W.~.~.~.~.~.~.~.~.~.~.~.~.~.~.~.~.!.c o >X>X>X>X>X>X>X",
">X>X>X>X>X>X>X>X>X>X>X>X>X>X>X>X>X>X>X>X>X>X>X>X>X>X>X>X>X>X>X>X>X>X  j #.1.~.~.~.~.~.~.~.~.~.~.~.~.~.~.~.~.~.~.-.o >X>X>X>X>X>X",
">X>X>X>X>X>X>X>X>X>X>X>X>X>X>X>X>X>X>X>X>X>X>X>X>X>X>X>X>X>X>X>X>X>X>Xd @.>.~.~.~.~.~.~.~.~.~.~.~.~.~.~.~.~.~.~.~.-.o >X>X>X>X>X",
">X>X>X>X>X>X>X>X>X>X>X>X>X>X>X>X>X>X>X>X>X>X>X>X>X>X>X>X>X>X>X>X>X>X>X, @.=.~.~.~.~.~.~.~.~.~.~.~.~.~.~.~.~.~.~.~.~.;.- >X>X>X>X",
">X>X>X>X>X>X>X>X>X>X>X>X>X>X>X>X>X>X>X>X>X>X>X>X>X>X>X>X>X>X>X>X>X>X>Xo v %.W.~.~.~.~.~.~.~.~.~.~.~.~.~.~.~.~.^./.'.`.2.,   >X>X",
">X>X>X>X>X>X>X>X>X>X>X>X>X>X>X>X>X>X>X>X>X>X>X  >X>X>X>X>X>X>X>X>X>X>X  k @.<.~.~.~.~.~.~.~.~.^.^././.^.(.(.).`.].].{.].2.l   >X",
">X>X>X>X>X>X>X>X>X>X>X>X>X>X>X>X>X>X>X>X>X>X7 #   >X>X>X>X>X>X>X>X>X>X>X; O.&.Q.~.~.~.~.~.~.~.~.~.^.^./.).'.`.[.].].{.[.`./.:   ",
">X>X>X>X>X>X>X>X>X>X>X>X>X>X>X>X>X>X>X>X>X  Y U G # >X>X>X>X>X>X>X>X>X>X+ v #.<.~.~.~.~.~.~.~.~.~.~.~.~.~.^.^.(.).).).^.^.~.c   ",
">X>X>X>X>X>X>X>X>X>X>X>X>X>X>X>X>X>X>X>X>X4 @ d.h.T @ >X>X>X>X>X>X>X>X>X  d #.%.:.~.~.~.~.~.~.~.~.~.~.~.~.~.~.~.~.~.~.~.~.~.z >X",
">X>X>X>X>X>X>X>X>X>X>X>X>X>X>X>X>X>X>X>X7 g.I f.h.h.U @ >X>X>X>X>X>X>X>X>Xo %.Q.E.Q.~.~.~.~.~.~.~.~.~.~.~.~.~.~.~.~.~.~.~.~.z >X",
">X>X>X>X>X>X>X>X>X>X>X>X>X>X>X>X>X>X>X# 4 7 g.h.h.h.h.U . >X>X>X>X>X>X>X>X  +.~.!.~.~.~.~.~.~.~.~.~.~.~.~.~.~.~.~.~.~.~.!.Q.k >X",
">X>X>X>X>X>X>X>X>X>X>X>X>X>X>X>X>X>X  K g.Y h.h.h.h.h.h.I @ >X>X>X>X>X>X  z &.~.~.~.~.~.~.~.~.~.~.~.~.~.~.~.E.~.~.~.~.~.,.+.k >X",
">X>X>X>X>X>X>X>X>X>X>X>X>X>X>X>X>X>X    G f.h.h.h.h.h.h.h.U . >X>X>X>X>X  z E.~.~.~.~.~.~.~.~.~.~.~.~.Q.1.~.W.&.W.~.~.,.-.- ; >X",
">X>X>X>X>X>X>X>X>X>X>X>X>X>X>X>X>X>X>X  # 7 I f.g.h.h.h.h.h.U 4 >X>X>X>X>X+ c ,.W.~.~.~.Q.~.~.!.~.~.~.E.h #.-.&.v >.W.z %.o   >X",
">X>X>X>X>X>X>X>X>X>X>X>X>X>X>X>X>X>X>X  5 8 5 7 K Y f.h.h.h.g.T 7 @ >X. 5 8 # > c >.!.~.%.~.~.1.1.~.~.E.  : - , , d *.- k     >X",
">X>X>X>X>X>X>X>X>X>X>X>X>X>X>X>X>X>X>XH L K f.L 7 5 H I I G r r 7 F # 8 f.f.P 7 @ -.-.Q.c E.!.*.-.Q.Q.W.  p.4.+ h &.*.  o >X>X>X",
">X>X>X>X>X>X>X>X>X>X>X>X>X>X>X>X>X>X  F a.h.h.h.g.Y F 5 4 f 5.y.D 5 4 4 s.h.g.w h #.d <.x &.!.O.&.E.-.W.d Z :Xp.l @.v     >X>X>X",
">X>X>X>X>X>X>X>X>X>X>X>X>X>X>X>X>X>X    @ a.h.h.h.h.g.U 6 ^ p.}.D X & $ 8 L G O ; O k $.c c W.+.O.E.c %.O.  A 6.b > >     >X>X>X",
">X>X>X>X>X>X>X>X>X>X>X>X>X>X>X>X>X>X>X>X>X  # L T Y K 6 M 5.}.|.b ] k.m.' p. Xi.r 0 c h +.d 1.c j E.%.o d   w.e.e.w.V n >X>X>X>X",
">X>X>X>X>X>X>X>X>X>X>X>X>X>X>X>X>X>X>X>X>X>X  + = N X.B C 6.v. Xp  .A.D.q.y.i.:Xi.  @ ; c > >.O.o -.&.+ V XX*X;X;X=X%Xq.>X>X>X>X",
">X>X>X>X>X>X>X>X>X>X>X>X>XO p B 2 >X>X  2 V o.w.v.U.XXw.C 4.|.|.9 k.G.A.w.u.  6.}.6 f.7 O ; %.$.; j %.e Y.;X;X;X;X;X;Xc.>X>X>X>X",
">X>X>X>X>X>X>X>X>X>X>X^ w.U.OX$Xv...9.v.Y.OX$X*X=X;X=XI.m 5..X`.9  .J.G.| |.oX}.a [ g.P J 7 k &., j ; V XX;X;X;X;X;X#XB >X>X>X>X",
">X>X>X>X>X>X>X>X>X>Xn U.#X-X=X=X#X@X#X&X*X*X%X#XOXY.e...3 3.i.i.9  .D.H.S.} o.} x.] g.s.K J 1 #.; h + B U.;X;X=X-XXXq.>X>X>X>X>X",
">X>X>X>X>X>X>X>X>X>XN XX=X;X;X;X=X&XXXI.w.X.V p O   >X>XO m y.i.& W x.Z.A.A.Z.Z.l.w h.f.J U G l o + + 2 e.$X=X+XXXq.  >X>X>X>X>X",
">X>X>X>X>X>X>X>X>X>Xp @X$X;X=X=X=XI.O . >X>X>X>X>X>X>X>X    1 M   u u u R y i i * K h.h.U h.s.# o . . . X.v.#X*XY.2 >X>X>X>X>X>X",
">X>X>X>X>X>X>X>X>X>XO v.$X-X#X+X+X^ >X>X>X>X>X>X>X>X>X>X>X>X>X  R [ [ [ l.R Z Q q P h.h.f.h.h.K   J s.Y I ~ ..e.n >X>X>X>X>X>X>X",
">X>X>X>X>X>X>X>X>X>X>Xe.w.X.V v.X.>X>X>X>X>X>X>X>X>X>X>X>X>X>Xy [ [ M.b.b.m.p 4.% P h.h.U I P P @ F f.s.T 7 >X>X>X>X>X>X>X>X>X>X",
">X>X>X>X>X>X>X>X>X>X>X. >X>X>Xp >X>X>X>X>X>X>X>X>X>X>X>X>X>X. ' [ k.F.F.m.D.E A m L h.h.a.P U d.I # G 6 .   >X>X>X>X>X>X>X>X>X>X",
">X>X>X>X>X>X>X>X>X>X>X>X>X>X>X>X>X>X>X>X>X>X>X>X>X>X>X>X>X  E  .[ m.H.H.J.F.V.p 3.8 d.h.h.h.h.d.H 5 @ >X>X>X>X>X>X>X>X>X>X>X>X>X",
">X>X>X>X>X>X>X. X >X>X>X>X>X>X>X>X>X>X>X>X>X>X>X>X>X1 b   9 [ [ [ Z.H.H.H.H.G.{ 3 S K g.h.h.g.U I J >X>X>X>X>X>X>X>X>X>X>X>X>X>X",
">X>X>X>X>X. & t t   >X>X>X>X>X>X>X>X>X>X>X>X>X>X>XO 7.i.m & [ [ [ m.H.H.H.H.H.D.W 5.r L g.h.h.h.h.H >X>X>X>X>X>X>X>X>X>X>X>X>X>X",
">X>X>X>X. = a a $ &   >X>X>X>X>X>X>X>X>X>X>X>X>X  m 3.p.i.4.y { [ k.A.G.G.G.H.H.Z.e r.@ J f.h.h.d.# >X>X>X>X>X>X>X>X>X>X>X>X>X>X",
">X>X>XX t ` ) Q * ' R $ >X>X>X>X>X>X>X>X>X>X>X>X>Xb A 6.i.i.Z u ] ] l.V.C.V.x.z.z.2 4.M @ G U a.8   >X>X>X>X>X>X>X>X>X>X>X>X>X>X",
">X  0 Q ) ) ) _ i b.x.[ y X >X>X>X>X>X>X>X>X>X>X>X+ D 3.7.i.i.4.9 V 8.0.7.7.6.4.5.S < r.    . @ >X>X>X>X>X>X>X>X>X>X>X>X>X>X>X>X",
">X. _ ) ) _ ` ! t [ J.D.b.( 9 >X>X>X>X>X>X>X>XO O + O C 3.4.i.}.t.b f e e s } | { z.. 3 >X>X>X>X>X>X>X>X>X>X>X>X>X>X>X>X>X>X>X>X",
">X  a ` 0 X X >X>XX N.H.G.Z.[ & >X>X>X>X>X  < 3 e O 1 1 Z 3.4.u.I.u.4.N i ' k.V.A.l.  >X>X>X>X>X>X>X>X>X>X>X>X>X>X>X>X>X>X>X>X>X",
">X>X. X   >X>X>X>X>XR H.H.H.A.R   >X    O 3 3 M m O e m < C A 4.p.}.|.|.y.3.0 * q $   >X>X>X>X>X>X>X>X>X>X>X>X>X>X>X>X>X>X>X>X>X",
">X>X    >X>X>X>X>X>X>Xb.P.H.H.l.. O 1 3 3 b C Z C O b A m : C 3.$.r.u.|. XoX Xi.y.4.M >X>X>X>X>X>X>X>X>X>X>X>X>X>X>X>X>X>X>X>X>X",
">X>X>X>X>X>X>X>X>X>X>X* L.P.H.V.= 3 b M C A A A A < f Z A A < g 3.3.3.5.t.p.}..X|.}.m >X>X>X>X>X>X>X>X>X>X>X>X>X>X>X>X>X>X>X>X>X",
">X>X>X>X>X>X>X>X>X>X>X>X( T.R.n.3 Z A A ^ A A A A M < C A A A g - m A 3.^ $.3.5.4.6.+ >X>X>X>X>X>X>X>X>X>X>X>X>X>X>X>X>X>X>X>X>X",
">X>X>X>X>X>X>X>X>X>X>X>X>X .R.} m A A A A A A 3.A Z < 3 D A A A Z g % < M D C C C 3   >X>X>X>X>X>X>X>X>X>X>X>X>X>X>X>X>X>X>X>X>X",
">X>X>X>X>X>X>X>X>X>X>X>X>XX l.u m A A A A A A A A A D o 3 M Z A A A A ^ D M f 1 < < D + >X>X>X>X>X>X>X>X>X>X>X>X>X>X>X>X>X>X>X>X",
">X>X>X>X>X>X>X>X>X>X>X>X>X>Xu 0 O 1 b m D C C C S D f   O 1 M D A A A A A A A A Z Z A M >X>X>X>X>X>X>X>X>X>X>X>X>X>X>X>X>X>X>X>X",
">X>X>X>X>X>X>X>X>X>X>X>X>X>X>X  >X>X>X>X>X>X>X>X>X  >X>X>X  O 3 M D A A A A A A A A A A f     >X>X>X>X>X>X>X>X>X>X>X>X>X>X>X>X>X",
">X>X>X>X>X>X>X>X>X>X>X>X>X>X>X>X>X>X>X>X>X>X>X>X>X>X>X>X>X>X  + O 3 b m C A A A A A A A A 1 y ! >X>X>X>X>X>X>X>X>X>X>X>X>X>X>X>X",
">X>X>X>X>X>X>X>X>X>X>X>X>X>X>X>X>X>X>X>X>X>X>X>X>X>X>X>X>X>X>X>X    O < 3 M m Z A A ^ A ^ C E B.q >X>X>X>X>X>X>X>X>X>X>X>X>X>X>X",
">X>X>X>X>X>X>X>X>X>X>X>X>X>X>X>X>X>X>X>X>X>X>X>X>X>X>X>X>X>X>X>X>X>X>X  + O 3 g b m Z A A m | R.{ >X>X>X>X>X>X>X>X>X>X>X>X>X>X>X",
">X>X>X>X>X>X>X>X>X>X>X>X>X>X>X>X>X>X>X>X>X>X>X>X>X>X>X>X>X>X>X>X>X>X>X>X>X    . < b e m Z p n.T.K.y >X>X>X>X>X>X>X>X>X>X>X>X>X>X",
">X>X>X>X>X>X>X>X>X>X>X>X>X>X>X>X>X>X>X>X>X>X>X>X>X>X>X>X>X>X>X>X>X>X>X>X>X>X>X>X>X  1 g f & C.H.T.B.X >X>X>X>X>X>X>X>X>X>X>X>X>X",
">X>X>X>X>X>X>X>X>X>X>X>X>X>X>X>X>X>X>X>X>X>X>X>X>X>X>X>X>X>X>X>X>X>X>X>X>X>X>X>X>X>X>X  - . x.H.G.P.] >X>X>X>X>X>X  >X>X>X>X>X>X",
">X>X>X>X>X>X>X>X>X>X>X>X>X>X>X>X>X>X>X>X>X>X>X>X>X>X>X>X>X>X>X>X>X>X>X>X>X>X>X>X>X>X>X>X>X  R Z.G.H.G.R >X>X>X>X  t   >X>X>X>X>X",
">X>X>X>X>X>X>X>X>X>X>X>X>X>X>X>X>X>X>X>X>X>X>X>X>X>X>X>X>X>X>X>X>X>X>X>X>X>X>X>X>X>X>X>X>X>X$ ] A.H.H.N.. >X>X. t ) t >X>X>X>X>X",
">X>X>X>X>X>X>X>X>X>X>X>X>X>X>X>X>X>X>X>X>X>X>X>X>X>X>X>X>X>X>X>X>X>X>X>X>X>X>X>X>X>X>X>X>X>X>X9 ] V.F.G.( $ t Q ) ) !   >X>X>X>X",
">X>X>X>X>X>X>X>X>X>X>X>X>X>X>X>X>X>X>X>X>X>X>X>X>X>X>X>X>X>X>X>X>X>X>X>X>X>X>X>X>X>X>X>X>X>X>X>X$ E k.x.b.a ) ) ) Q $ >X>X>X>X>X",
">X>X>X>X>X>X>X>X>X>X>X>X>X>X>X>X>X>X>X>X>X>X>X>X>X>X>X>X>X>X>X>X>X>X>X>X>X>X>X>X>X>X>X>X>X>X>X>X>X>X9 W ' * ) ) ! & >X>X>X>X>X>X",
">X>X>X>X>X>X>X>X>X>X>X>X>X>X>X>X>X>X>X>X>X>X>X>X>X>X>X>X>X>X>X>X>X>X>X>X>X>X>X>X>X>X>X>X>X>X>X>X>X>X>X  $ t Q t X >X>X>X>X>X>X>X",
">X>X>X>X>X>X>X>X>X>X>X>X>X>X>X>X>X>X>X>X>X>X>X>X>X>X>X>X>X>X>X>X>X>X>X>X>X>X>X>X>X>X>X>X>X>X>X>X>X>X>X>X= t t . >X>X>X>X>X>X>X>X",
">X>X>X>X>X>X>X>X>X>X>X>X>X>X>X>X>X>X>X>X>X>X>X>X>X>X>X>X>X>X>X>X>X>X>X>X>X>X>X>X>X>X>X>X>X>X>X>X>X>X>X>XX t X >X>X>X>X>X>X>X>X>X",
">X>X>X>X>X>X>X>X>X>X>X>X>X>X>X>X>X>X>X>X>X>X>X>X>X>X>X>X>X>X>X>X>X>X>X>X>X>X>X>X>X>X>X>X>X>X>X>X>X>X>X>X>X  >X>X>X>X>X>X>X>X>X>X"
};
