/* XPM */
static char *result[] = {
/* columns rows colors chars-per-pixel */
"64 87 201 2 ",
"   c #020202",
".  c #0B0402",
"X  c #0C0903",
"o  c #040B0C",
"O  c #0C0C0B",
"+  c #030708",
"@  c #130403",
"#  c #1B0605",
"$  c #120D03",
"%  c #120D0C",
"&  c #1A0B09",
"*  c #151106",
"=  c #1B1501",
"-  c #1A1508",
";  c #1A160A",
":  c #060F10",
">  c #140F10",
",  c #071112",
"<  c #0A1B1D",
"1  c #091617",
"2  c #141414",
"3  c #1A1513",
"4  c #1C1C1C",
"5  c #1D1A16",
"6  c #240807",
"7  c #2C0A09",
"8  c #220908",
"9  c #310B09",
"0  c #3A0E0B",
"q  c #231D0B",
"w  c #261D03",
"e  c #34130A",
"r  c #221A16",
"t  c #321612",
"y  c #2C2102",
"u  c #2D250D",
"i  c #322603",
"p  c #3C2D03",
"a  c #342904",
"s  c #27231A",
"d  c #342B12",
"f  c #392F12",
"g  c #3D3315",
"h  c #3F3003",
"j  c #0C1E21",
"k  c #201F20",
"l  c #0D2225",
"z  c #0E2629",
"x  c #0F282A",
"c  c #102A2D",
"v  c #122E32",
"b  c #133236",
"n  c #143539",
"m  c #16383D",
"M  c #232223",
"N  c #2C2B2C",
"B  c #2B2723",
"V  c #322D29",
"C  c #383429",
"Z  c #343334",
"A  c #393738",
"S  c #3D3C3D",
"D  c #393735",
"F  c #312F30",
"G  c #45100D",
"H  c #4C120E",
"J  c #52130F",
"K  c #551410",
"L  c #5C1511",
"P  c #431410",
"I  c #631713",
"U  c #6C1915",
"Y  c #641813",
"T  c #731B16",
"R  c #7B1D17",
"E  c #473603",
"W  c #463A16",
"Q  c #573E05",
"!  c #443A2E",
"~  c #683A0A",
"^  c #5A4505",
"/  c #54451B",
"(  c #5D4D1E",
")  c #56481B",
"_  c #4F4219",
"`  c #634B05",
"'  c #604A08",
"]  c #6C5204",
"[  c #6C5308",
"{  c #7C5E05",
"}  c #735806",
"|  c #6D581C",
" . c #7F6005",
".. c #4A4335",
"X. c #554C3C",
"o. c #584F3F",
"O. c #534934",
"+. c #173C41",
"@. c #183E43",
"#. c #194146",
"$. c #1B464C",
"%. c #1E4C53",
"&. c #1F5057",
"*. c #21555C",
"=. c #26545A",
"-. c #235C63",
";. c #2C5F66",
":. c #26636C",
">. c #28666F",
",. c #296B74",
"<. c #2A6C75",
"1. c #2C727C",
"2. c #3A6B72",
"3. c #424242",
"4. c #4B4B4B",
"5. c #49474A",
"6. c #5C5445",
"7. c #545354",
"8. c #5B5B5B",
"9. c #59565A",
"0. c #514E51",
"q. c #665C49",
"w. c #605857",
"e. c #756A54",
"r. c #7E725B",
"t. c #6A6A6A",
"y. c #656565",
"u. c #737373",
"i. c #7C7C7C",
"p. c #72716E",
"a. c #841F19",
"s. c #881F1A",
"d. c #8B211B",
"f. c #94221C",
"g. c #9B241D",
"h. c #A4261F",
"j. c #846405",
"k. c #8D6B06",
"l. c #846507",
"z. c #916E06",
"x. c #987306",
"c. c #917216",
"v. c #A37C07",
"b. c #84785F",
"n. c #8A7C63",
"m. c #AC8307",
"M. c #B88C08",
"N. c #A98313",
"B. c #CC9B08",
"V. c #C29409",
"C. c #D19F09",
"Z. c #C89B16",
"A. c #DAA509",
"S. c #D9A509",
"D. c #E2AB09",
"F. c #ECB30A",
"G. c #F6BB0A",
"H. c #F9BD0A",
"J. c #F1B70A",
"K. c #F7BD10",
"L. c #D4AB2E",
"P. c #E8B92E",
"I. c #F9C117",
"U. c #FAC831",
"Y. c #96876B",
"T. c #9A8B6F",
"R. c #A89879",
"E. c #B09F7E",
"W. c #F8CC48",
"Q. c #FAD155",
"!. c #FCD870",
"~. c #2F7983",
"^. c #2E7781",
"/. c #317E89",
"(. c #307D87",
"). c #32828D",
"_. c #3E8994",
"`. c #388691",
"'. c #458E98",
"]. c #4E939D",
"[. c #5C9BA4",
"{. c #5396A0",
"}. c #619FA8",
"|. c #63A0A9",
" X c #838383",
".X c #8A8A8A",
"XX c #929292",
"oX c #9A9A9A",
"OX c #B8A684",
"+X c #A7A7A7",
"@X c #B9B9B9",
"#X c #CDB993",
"$X c #C9B690",
"%X c #D7C29A",
"&X c #E2CDA2",
"*X c #ECD5A9",
"=X c #EFD8AB",
"-X c #E8D2A6",
";X c #F0D9AC",
":X c #D2D2D2",
">X c None",
/* pixels */
">X>X>X>X>X>X>X>X>X>X>X>X>X>X>X>X>X>X>X>X>X>X>X>X>X>X>X>X>X>X>X>X>X>X>X>X>X>X>X>X>X>X>X>X>X>X>X>X>X>X>X>X>X>X>X>X>X>X>X>X>X>X>X>X",
">X>X>X>X>X>X>X>X>X>X>X>X>X>X>X>X>X>X>X>X>X>X>X>X>X>X>X>X>X>X  >X>X>X>X>X>X>X>X>X>X>X>X>X>X>X>X>X>X>X>X>X>X>X>X>X>X>X>X>X>X>X>X>X",
">X>X>X>X>X>X>X>X>X>X>X>X>X>X>X>X>X>X>X>X>X>X>X>X>X>X>X>X>X>X      >X>X>X>X>X>X>X>X>X>X>X>X>X>X>X>X>X>X>X>X>X>X>X>X>X>X>X>X>X>X>X",
">X>X>X>X>X>X>X>X>X>X>X>X>X>X>X>X>X>X>X>X>X>X>X>X>X>X>X>X>X>X+ @.c + >X>X>X>X>X>X>X>X>X>X>X>X>X>X>X>X>X>X>X>X>X>X>X>X>X>X>X>X>X>X",
">X>X>X>X>X>X>X>X>X>X>X>X>X>X>X>X>X>X>X>X>X>X>X>X>X>X>X>X>X>Xo $.1.%.<   >X>X>X>X>X>X>X>X>X>X>X>X>X>X>X>X>X>X>X>X>X>X>X>X>X>X>X>X",
">X>X>X>X>X>X>X>X>X>X>X>X>X>X>X>X>X>X>X>X>X>X>X>X>X>X>X>X>X>Xo #.).).^.@.o >X>X>X>X>X>X>X>X>X>X>X>X>X>X>X>X>X>X>X>X>X>X>X>X>X>X>X",
">X>X>X>X>X>X>X>X>X>X>X>X>X>X>X>X>X>X>X>X>X>X>X>X>X>X>X>X>X>Xo m ).).).).1.n + >X>X>X>X>X>X>X>X>X>X>X>X>X>X>X>X>X>X>X>X>X>X>X>X>X",
">X>X>X>X>X>X>X>X>X>X>X>X>X>X>X>X>X>X>X>X>X>X>X>X>X>X>X>X>X>Xo n ~.).).).).~.*.z o >X>X>X>X>X>X>X>X>X  >X>X>X>X>X>X>X>X>X>X>X>X>X",
">X>X>X>X>X>X>X>X>X>X>X>X>X>X>X>X>X>X>X>X>X>X>X>X>X>X>X>X>X>Xo n <.).).).).).)./.,.c     >X>X>X>X>X>X    >X>X>X>X>X>X>X>X>X>X>X>X",
">X>X>X>X>X>X>X>X>X>X>X>X>X>X>X>X>X>X>X>X>X>X>X>X>X>X>X>X>X>Xo b :./.).).).).).).).).^.%.v ,   >X>X>X: ,   >X>X>X>X>X>X>X>X>X>X>X",
">X>X>X>X>X>X>X>X>X>X>X>X>X>X>X>X>X>X>X>X>X>X>X>X>X>X>X>X>X>Xo b *.~.).).).).).).).).).).~.>.%.b < : : *.l   >X>X>X>X>X>X>X>X>X>X",
">X>X>X>X>X>X>X>X>X>X>X>X>X>X>X>X>X>X>X>X>X>X>X>X>X>X>X>X>X>Xo v %.^.).).).).).).).).).).).).).).~.,.%.^.1.j   >X>X>X>X>X>X>X>X>X",
">X>X>X>X>X>X>X>X>X>X>X>X>X>X>X>X>X>X>X>X>X>X>X>X>X>X>X>X>X>X+ x #.<.).).).).).).).).).).).).).).).).).).).~.b   >X>X>X>X>X>X>X>X",
">X>X>X>X>X>X>X>X>X>X>X>X>X>X>X>X>X>X>X>X>X>X>X>X>X>X>X>X>X>X  l #.:.).).).).).).).).).).).).).).).).).).).)./.m + >X>X>X>X>X>X>X",
">X>X>X>X>X>X>X>X>X>X>X>X>X>X>X>X>X>X>X>X>X>X>X>X>X>X>X>X>X>X>X< #.*.).).).).).).).).).).).).).).).).).).).).)./.$.  >X>X>X>X>X>X",
">X>X>X>X>X>X>X>X>X>X>X>X>X>X>X>X>X>X>X>X>X>X>X>X>X>X>X>X>X>X>X: #.$.~.).).).).).).).).).).).).).).).).).).).).).).&.+ >X>X>X>X>X",
">X>X>X>X>X>X>X>X>X>X>X>X>X>X>X>X>X>X>X>X>X>X>X>X>X>X>X>X>X>X>X  +.$.1.).).).).).).).).).).).).).).).).).).).).).'.[.;.o   >X>X>X",
">X>X>X>X>X>X>X>X>X>X>X>X>X>X>X>X>X>X>X>X>X>X>X>X>X>X>X>X>X>X>X  b #.-.).).).).).).).).)._._.).).).).).).).`.'.[.|.|.}.;.o   >X>X",
">X>X>X>X>X>X>X>X>X>X>X>X>X>X>X>X>X>X>X>X>X>X>X>X>X>X>X>X>X>X>X>X< +.$.~.).).).).).).).).).`.`.'.'.].].{.[.}.|.|.|.|.|.[.2.+   >X",
">X>X>X>X>X>X>X>X>X>X>X>X>X>X    >X>X>X>X>X>X>X>X>X>X>X>X>X>X>X>X+ b #.:.).).).).).).).).).).).).).`.'.{.[.[.[.|.|.}.[.[.[.;.+ >X",
">X>X>X>X>X>X>X>X>X>X>X>X>X>X7 @ . >X>X>X>X>X>X>X>X>X>X>X>X>X>X>X  < #.$.:.).).).).).).).).).).).).).).).`.`.`._._._._.`.).1., >X",
">X>X>X>X>X>X>X>X>X>X>X>X>X@ s.U H 6 >X>X>X>X>X>X>X>X>X>X>X>X>X>X  o +.%.&.<.).).).).).).).).).).).).).).).).).).).).).).).1., >X",
">X>X>X>X>X>X>X>X>X>X>X>X>X  G f.h.d.6 >X>X>X>X>X>X>X>X>X>X>X>X>X>X  v :.).,.).).).).).).).).).).).).).).).).).).).).).).).1., >X",
">X>X>X>X>X>X>X>X>X>X>X>X0 U 9 T h.h.f.0 @ >X>X>X>X>X>X>X>X>X>X>X>X  : <.).).).).).).).).).).).).).).).).).).).).).).).)./.<.: >X",
">X>X>X>X>X>X>X>X>X>X>X. K g.f.g.h.h.h.g.H   >X>X>X>X>X>X>X>X>X>X    + :.).).).).).).).).).).).).).).).).).).).).).).).).:.,.o >X",
">X>X>X>X>X>X>X>X>X>X>X9 7 6 d.h.h.h.h.h.h.T @ >X>X>X>X>X>X>X>X>X  c ^.).).).).).).).).).).).).).).).).).).:.1.).).).(.~.+.b o >X",
">X>X>X>X>X>X>X>X>X>X. T s.T g.h.h.h.h.h.h.h.T 6 >X>X>X>X>X>X>X>X>X+ n 1.).).).).).).).).).).).).).1.%.>.1.1.%.,.).).*.-.b +   >X",
">X>X>X>X>X>X>X>X>X>X  0 I f.h.h.h.h.h.h.h.h.h.a.G @ >X>X>X>X>X>X>X    n -.1.).).).1.).).).~.).).).1.1 < n *.$.l *.).z m v     >X",
">X>X>X>X>X>X>X>X>X>X>X    6 G U s.g.h.h.h.h.h.h.g.T 0 8 @     @ H K H @ o < <.).).-.-.).).:.1.).).1.: 5 2   + , l -.+ 1 j >X  >X",
">X>X>X>X>X>X>X>X>X>X>X>X>X>X. # 0 J U a.d.f.f.R Y K K H H 0 # 7 g.f.d.L 9 O 1.-.1.-.#.).~.+.,.).).1.1 Z  XM o b -.:.    + >X>X>X",
">X>X>X>X>X>X>X>X>X>X>X>X>X>X>X>X  @ 6 0 H L L J J J J K K K # # h.h.h.f.0 @.*.z ,.&.l ).1.x :.1.>.~.l 2 @X@XN j %.%.      >X>X>X",
">X>X>X>X>X>X>X>X>X>X>X>X>X>X>X>X>X>X>X>X  @ # 6 6 r t & 7 7 .   I Y H # o :   c &.m l 1.:.l *.).n %.*.  2 5.7.+ 1 l       >X>X>X",
">X>X>X>X>X>X>X>X>X>X>X>X>X>X>X>X>X>X. . . @ . O N 8.t.2   * = y r w.XXu.B K & +.l @.l ,.,.j @.).#.< n o 2 ..! ....5 s   >X>X>X>X",
">X>X>X>X>X>X>X>X>X>X>X    # Y U T R R a.a.a.L M 4. Xi.s E ] m.M.u.u.@X:X.X. o : o @.z &.<.j < 1.%.o   ..R.=X*X*X*XR.T.  >X>X>X>X",
">X>X>X>X>X>X>X>X>X>X>X7 U s.h.h.h.h.h.h.h.h.J D 8. X.XV ^ k.F.m.+X5.s M  Xd e I # , c m ^.z : n &.2 6.&X;X;X;X;X=X=XOX>X>X>X>X>X",
">X>X>X>X>X>X>X>X>X>X>X7 R U f.h.h.h.h.h.s.J 6 $.8. XoXC ^ z.J.B.p..XZ t. X` ~ f.K 7 & l 1.c 1 j n M T.=X;X;X;X;X=X=XE.>X>X>X>X>X",
">X>X>X>X>X>X>X>X>X>X>X  . . U h.h.h.f.G $ V s ..0. X+XS E k.F.G.^ 8.+Xu.g C.Q h.a.K H > -.b 1 v + C R.=X=X=X=X;X;X&XV >X>X>X>X>X",
">X>X>X>X>X>X>X>X>X>X>X>XG f.h.h.d.J & C q.b.q.N S i.+X4.i  .S.H.F.v.[ k.B.B.e h.h.K H 9 j @.o l   V b.*X=X=X=X#XT.C >X>X>X>X>X>X",
">X>X>X>X>X>X>X>X>X>X>X>XG U K I t B q.n.E.%XOX2 3.y.oX8.=  .M.G.H.H.A.B.x.i K h.h.Y I I @ b + +   5 e.OX*X-X$XE.X.  >X>X>X>X>X>X",
">X>X>X>X>X>X>X>X>X>X>X>X.   + s q.Y.$X-X=X=X%X2 F 4. Xp.3 ^ ^ j.[ E y = i $ T h.h.T d.h.K : o       o.r.OX=X=XY.O >X>X>X>X>X>X>X",
">X>X>X>X>X>X>X>X>Xs O     B q.R.%X*X;X&XR.X.%   o D 8.t.Z . i h ` E 4 3.' @ s.h.h.g.h.h.f.    G U L P ! ..Y.Y.X >X>X>X>X>X>X>X>X",
">X>X>X>X>X>X>Xs q.R.r.X.e.E.&X;X*X#Xb.5     >X>X      X $ y j.x.m.M.$ 7.F # a.h.h.a.T d.f.H   H h.h.h.s.6 >X>X>X>X>X>X>X>X>X>X>X",
">X>X>X>X>X3 o.T.%X;X%X#X%X;X*X#XX.r   >X>X>X>X>X>X  = ` ] { C.D.x.A.' M 5.6 R h.h.s.K K I R 8 7 T L 0 @ >X>X>X>X>X>X>X>X>X>X>X>X",
">X>X>X>XV n.#X;X;X;X;X;X-XY.! X   >X>X>X>X>X>X>X>X$ ] {  .v.J.H.S.S.F.w Z r I h.h.h.f.f.h.g.H . #     >X>X>X>X>X>X>X>X>X>X>X>X>X",
">X>X>X  X.OX&X;X;X;X;X;XOX  >X>X>X>X>X>X>X>X+ >X  Q { { { S.H.H.H.H.H.x.s 3.0 s.h.h.h.h.f.J H G   >X>X>X>X>X>X>X>X>X>X>X>X>X>X>X",
">X>X>X>Xs T.;X;X;X;X;X=XT.  >X>X>X>X>X>X>XN S   = { { { { F.H.H.H.H.H.F.^ D B L f.h.h.h.f.U R L >X>X>X>X>X>X>X>X>X>X>X>X>X>X>X>X",
">X>X>X>Xr T.R.%X;X*XOX$XX.>X>X>X>X>X>X  r y.i.3.X ` { { { M.H.H.H.H.H.H.V.- 7.3 H f.h.h.h.h.g.G >X>X>X>X>X>X>X>X>X>X>X>X>X>X>X>X",
">X>X>X>X>X> OX&XOX6.r.r.  >X>X>X>X>X>X2 A =.u.Y.4.w ] { { j.A.H.H.H.H.H.G.} N 8.O H s.h.h.h.a.@ >X>X>X>X>X>X>X>X>X>X>X>X>X>X>X>X",
">X>X>X>X>X5 b.X.5 >X>X5 >X>X>X>X>X>X>X+ N 3.0.n. X7.r ^ } [ k.V.V.M.N.c.c.| % 7.Z . 9 Y a.R 7   >X>X>X>X>X>X>X>X>X>X>X>X>X>X>X>X",
">X>X>X>X>X>X  >X>X>X>X>X>X>X>X>X>X>X>X>X> S 5.w. X X9.5 u _ O.6.6.0.9.9.9.9.N M t.O   @ # @ >X>X>X>X>X>X>X>X>X>X>X>X>X>X>X>X>X>X",
">X>X>X>X>X>X>X>X>X>X>X>X>X>X>X>X>X>X>X>X>X2 S ! 9.i. Xy.M N 5.S F N B s s f u   3.4 >X>X>X>X>X>X>X>X>X>X>X>X>X>X>X>X>X>X>X>X>X>X",
">X>X>X>X>X>X>X>X>X>X>X>X>X>X>X>X>X>X>X>X>X  4 $.3.9.i. Xu.3.4 X p ^ z.M.C.D.j.  >X>X>X>X>X>X>X>X>X>X>X>X>X>X>X>X>X>X>X>X>X>X>X>X",
">X>X>X>X>X>X>X>X>X>X>X>X>X>X>X>X>X>X>X>X>X  O M S 3.9.i. X Xu.5.s y Q { m.S.h >X>X>X>X>X>X>X>X>X>X>X>X>X>X>X>X>X>X>X>X>X>X>X>X>X",
">X>X>X>X>X>X>X>X>X>X>X>X>X>X>X>X>X>X>X>X>X  k 2 k S ! 6.t. X.XXXXXi.4.M 2 O +     >X>X>X>X>X>X>X>X>X>X>X>X>X>X>X>X>X>X>X>X>X>X>X",
">X>X>X>X>X>X>X>X>X>X>X>X>X>X>X>X>X>X>X>X>X  k A k 4 Z $.3.0.y.u..XoX+XoX.Xu.y.N >X>X>X>X>X>X>X>X>X>X>X>X>X>X>X>X>X>X>X>X>X>X>X>X",
">X>X>X>X>X>X>X>X>X>X>X>X>X>X>X>X>X>X>X>X    r S S 4 2 F 3.3.3.5.8.y.i..XXX Xi.2 >X>X>X>X>X>X>X>X>X>X>X>X>X>X>X>X>X>X>X>X>X>X>X>X",
">X>X>X>X>X>X>X>X>X>X>X>X>X>X>X>X>X>X>X>X+ O > N S S F 2 2 F S 3.$...3.3.5.0.S   >X>X>X>X>X>X>X>X>X>X>X>X>X>X>X>X>X>X>X>X>X>X>X>X",
">X>X>X>X>X>X>X>X>X>X>X>X>X>X>X>X>X>X>X>X+ 3 O k A S S A M 2 4 k F ! A S A A 2 >X>X>X>X>X>X>X>X>X>X>X>X>X>X>X>X>X>X>X>X>X>X>X>X>X",
">X>X>X>X>X>X>X>X>X>X>X>X>X>X>X>X>X>X>X>X% 4   4 k S S S S S F k 2 2 2 2 2 > + >X>X>X>X>X>X>X>X>X>X>X>X>X>X>X>X>X>X>X>X>X>X>X>X>X",
">X>X>X>X>X>X>X>X>X>X>X>X>X>X>X>X>X>X>X  2 k k + 4 N S S S S S S S S ! A 4   >X>X>X>X>X>X>X>X>X>X>X>X>X>X>X>X>X>X>X>X>X>X>X>X>X>X",
">X>X>X>X>X>X>X>X>X>X>X>X>X>X>X>X>X>X>X  2 k Z > O 4 F S S S S S S S S S N   >X>X>X>X>X>X>X>X>X>X>X>X>X>X>X>X>X>X>X>X>X>X>X>X>X>X",
">X>X>X>X>X>X>X>X>X>X>X>X>X>X>X>X>X>X>X  4 k S N + 2 k Z S S S S S S S S A o >X>X>X>X>X>X>X>X>X>X>X>X>X>X>X>X>X>X>X>X>X>X>X>X>X>X",
">X>X>X>X>X>X  o >X>X>X>X>X>X>X>X>X>X>X+ 4 M S S B + 2 k A S S S S S S S S M   >X>X>X>X>X>X>X>X>X>X>X>X>X>X>X>X>X>X>X>X>X>X>X>X>X",
">X>X>X>X>XX ; y X >X>X>X>X>X>X>X>X>X>XO 4 F S S S k + 2 k A S S S S 3.! S D + >X>X>X>X>X>X>X>X>X>X>X>X>X>X>X>X>X>X>X>X>X>X>X>X>X",
">X>X>X>X  - u ; X h a w $     >X>X>X  2 M A S S S S M + 2 M A S S S S S S S 2 >X>X>X>X>X>X>X>X>X>X>X>X>X>X>X>X>X>X>X>X>X>X>X>X>X",
">X>X>X  * f / g i { j.z.z.j.^ E X     4 M A S S S S Z O   3 M F S S S S S S M >X>X>X>X>X>X>X>X>X>X>X>X>X>X>X>X>X>X>X>X>X>X>X>X>X",
">X>X>X* f ) ( / u k.S.D.D.D.B.m.[ y   4 N S S S S A 2 >X>X+ 2 k Z S S S ! S F   >X>X>X>X>X>X>X>X>X>X>X>X>X>X>X>X>X>X>X>X>X>X>X>X",
">X>X  W ( ( ( ( / w { F.H.H.H.H.F.M.= 3 Z S S S S 3 >X>X>X>X  > M F S S 3.S A o >X>X>X>X>X>X>X>X>X>X>X>X>X>X>X>X>X>X>X>X>X>X>X>X",
">X. g ( ( ( / f -     E m.H.I.H.H.H.j.2 D S S A 4 >X>X>X>X>X>X  2 r N S S S S 2 >X>X>X>X>X>X>X>X>X>X>X>X>X>X>X>X>X>X>X>X>X>X>X>X",
"  ; ( ( / u   >X>X>X>X>X  ` L.W.U.I.C.% F S A 2 >X>X>X>X>X>X>X>X  2 k N S S S M   >X>X  >X>X>X>X>X>X>X>X>X>X>X>X>X>X>X>X>X>X>X>X",
">XX g ( u   >X>X>X>X>X>X>X>Xa N.Q.!.P.3 F Z %   >X>X>X>X>X>X>X>X>X+ 4 r F A N 3       >X>X>X>X>X>X>X>X>X>X>X>X>X>X>X>X>X>X>X>X>X",
">X>X  q X >X>X>X>X>X>X>X>X>X>X. ] L.U.i , X >X>X>X>X>X>X>X>X>X>X>X>Xo + * Q } | c.}   >X>X>X>X>X>X>X>X>X>X>X>X>X>X>X>X>X>X>X>X>X",
">X>X>X    >X>X>X>X>X>X>X>X>X>X>X>X= x.^   >X>X>X>X>X>X>X>X>X>X>X>X>X  E B.H.I.!.P.i >X>X>X>X>X>X>X>X>X>X>X>X>X>X>X>X>X>X>X>X>X>X",
">X>X>X>X>X>X>X>X>X>X>X>X>X>X>X>X>X>XX =   >X>X>X>X>X>X>X>X>X>X>X>X>Xp M.G.H.W.W.' >X>X>X>X>X>X>X>X>X>X>X>X>X>X>X>X>X>X>X>X>X>X>X",
">X>X>X>X>X>X>X>X>X>X>X>X>X>X>X>X>X>X>X>X  >X>X>X>X>X>X>X>X>X>X>X>X=  .J.H.I.Q.l.X >X>X>X>X>X>X>X>X>X>X>X>X>X>X>X>X>X>X>X>X>X>X>X",
">X>X>X>X>X>X>X>X>X>X>X>X>X>X>X>X>X>X>X>X>X>X>X>X>X>X>X>X>X>X>X>X>Xh M.H.H.U.N.  >X>X>X>X>X>X>X>X>X>X>X>X>X>X>X>X>X>X>X>X>X>X>X>X",
">X>X>X>X>X>X>X>X>X>X>X>X>X>X>X>X>X>X>X>X>X>X>X>X>X>X>X>X>X>X>X>XX ` A.H.H.Z.w >X>X>X>X>X>X>X>X>X>X>X>X>X>X>X>X>X>X>X>X>X>X>X>X>X",
">X>X>X>X>X>X>X>X>X>X>X>X>X>X>X>X>X>X>X>X>X>X>X>X>X>X>X>X>X>X>X>X= { F.H.D.E >X>X>X>X>X>X>X>X>X>X>X>X>X>X>X>X>X>X>X>X>X>X>X>X>X>X",
">X>X>X>X>X>X>X>X>X>X>X>X>X>X>X>X>X>X>X>X>X>X>X>X>X>X>X>X>X>X>X>Xa k.G.F.} >X>X>X>X>X>X>X>X>X>X>X>X>X>X>X>X>X>X>X>X>X>X>X>X>X>X>X",
">X>X>X>X>X>X>X>X>X>X>X>X>X>X>X>X>X>X>X>X>X>X>X>X>X>X>X>X>X>X>X>XE z.F.} = >X>X>X>X>X>X>X>X>X>X>X>X>X>X>X>X>X>X>X>X>X>X>X>X>X>X>X",
">X>X>X>X>X>X>X>X>X>X>X>X>X>X>X>X>X>X>X>X>X>X>X>X>X>X>X>X>X>X>X  ^ j.m.$ >X>X>X>X>X>X>X>X>X>X>X>X>X>X>X>X>X>X>X>X>X>X>X>X>X>X>X>X",
">X>X>X>X>X>X>X>X>X>X>X>X>X>X>X>X>X>X>X>X>X>X>X>X>X>X>X>X>X>X>X  w p y *   >X>X>X>X>X>X>X>X>X>X>X>X>X>X>X>X>X>X>X>X>X>X>X>X>X>X>X",
">X>X>X>X>X>X>X>X>X>X>X>X>X>X>X>X>X>X>X>X>X>X>X>X>X>X>X>X>X>XX q d W ) ) f % X     >X>X>X>X>X>X>X>X>X>X>X>X>X>X>X>X>X>X>X>X>X>X>X",
">X>X>X>X>X>X>X>X>X>X>X>X>X>X>X>X>X>X>X>X>X>X>X>X>X>X>X>X>X>X- u ) ( ( ( ( W g u   >X>X>X>X>X>X>X>X>X>X>X>X>X>X>X>X>X>X>X>X>X>X>X",
">X>X>X>X>X>X>X>X>X>X>X>X>X>X>X>X>X>X>X>X>X>X>X>X>X>X>X>X>X  q u d W / ( ( ( ( u   >X>X>X>X>X>X>X>X>X>X>X>X>X>X>X>X>X>X>X>X>X>X>X",
">X>X>X>X>X>X>X>X>X>X>X>X>X>X>X>X>X>X>X>X>X>X>X>X>X>X>X>X>X>XX $ * * q u W _ / * >X>X>X>X>X>X>X>X>X>X>X>X>X>X>X>X>X>X>X>X>X>X>X>X",
">X>X>X>X>X>X>X>X>X>X>X>X>X>X>X>X>X>X>X>X>X>X>X>X>X>X>X>X>X>X>X>X>X        X %   >X>X>X>X>X>X>X>X>X>X>X>X>X>X>X>X>X>X>X>X>X>X>X>X"
};
