/* XPM */
static char *result[] = {
/* columns rows colors chars-per-pixel */
"64 88 192 2 ",
"   c #010101",
".  c #0B0402",
"X  c #0C0A04",
"o  c #050C0D",
"O  c #0C0B0B",
"+  c #050708",
"@  c #140504",
"#  c #1B0605",
"$  c #130E02",
"%  c #130D0C",
"&  c #1C1502",
"*  c #13120D",
"=  c #1A1608",
"-  c #060F10",
";  c #071113",
":  c #081516",
">  c #0A1A1C",
",  c #0A1718",
"<  c #141414",
"1  c #181612",
"2  c #1C1B1B",
"3  c #1C1914",
"4  c #230807",
"5  c #2C0A08",
"6  c #200706",
"7  c #350C0A",
"8  c #3C0E0B",
"9  c #231B02",
"0  c #261D07",
"q  c #241C1A",
"w  c #3B120D",
"e  c #2C2202",
"r  c #2D250E",
"t  c #3C2D02",
"y  c #342803",
"u  c #25221B",
"i  c #372D12",
"p  c #3D3213",
"a  c #0C1F21",
"s  c #0E2326",
"d  c #0F272A",
"f  c #10292D",
"g  c #122E32",
"h  c #133236",
"j  c #15363A",
"k  c #16393D",
"l  c #232222",
"z  c #2B2B2B",
"x  c #2B2825",
"c  c #3A352A",
"v  c #343333",
"b  c #3E3C3D",
"n  c #383638",
"m  c #302F30",
"M  c #45100D",
"N  c #4C120E",
"B  c #52130F",
"V  c #5D1511",
"C  c #551410",
"Z  c #621712",
"A  c #6B1914",
"S  c #671813",
"D  c #741B16",
"F  c #7A1C17",
"G  c #7E1D18",
"H  c #423203",
"J  c #4C3903",
"K  c #473708",
"L  c #473A16",
"P  c #533F03",
"I  c #423E36",
"U  c #42372C",
"Y  c #594304",
"T  c #5D4D1E",
"R  c #54451A",
"E  c #624A04",
"W  c #694F04",
"Q  c #6C5204",
"!  c #7C5E05",
"~  c #745806",
"^  c #7F6005",
"/  c #4B4436",
"(  c #574E3C",
")  c #645429",
"_  c #183E43",
"`  c #194146",
"'  c #1B464B",
"]  c #1C494E",
"[  c #1E4D53",
"{  c #1F5057",
"}  c #1F5158",
"|  c #21545B",
" . c #22585F",
".. c #235C63",
"X. c #26636C",
"o. c #296B74",
"O. c #2A6C75",
"+. c #2C727C",
"@. c #387179",
"#. c #424242",
"$. c #4D4C4C",
"%. c #484649",
"&. c #5B5344",
"*. c #545354",
"=. c #5B5B5B",
"-. c #585559",
";. c #665C49",
":. c #766A55",
">. c #766B55",
",. c #7E725A",
"<. c #6E634F",
"1. c #615E62",
"2. c #40777F",
"3. c #646364",
"4. c #6A6A6A",
"5. c #686569",
"6. c #737373",
"7. c #7B7B7B",
"8. c #851F19",
"9. c #881F19",
"0. c #8C201A",
"q. c #93221C",
"w. c #9D241E",
"e. c #A4261F",
"r. c #856505",
"t. c #8C6A06",
"y. c #916E06",
"u. c #977306",
"i. c #A37B06",
"p. c #82755D",
"a. c #897C62",
"s. c #AC8307",
"d. c #AA830E",
"f. c #B88C07",
"g. c #B98F10",
"h. c #C49408",
"j. c #CB9A08",
"k. c #D19F08",
"l. c #C79D1F",
"z. c #DAA509",
"x. c #D4A519",
"c. c #E3AC09",
"v. c #ECB30A",
"b. c #F5BA0A",
"n. c #F9BD0A",
"m. c #F1B70A",
"M. c #E2B42B",
"N. c #FAC21D",
"B. c #FACA38",
"V. c #97886C",
"C. c #9E8F71",
"Z. c #A69677",
"A. c #B09F7E",
"S. c #B1A07F",
"D. c #FBCE4B",
"F. c #FBD052",
"G. c #FCD973",
"H. c #FBD563",
"J. c #2D7680",
"K. c #2F7A84",
"L. c #307C87",
"P. c #307E89",
"I. c #437B83",
"U. c #32828D",
"Y. c #3B8892",
"T. c #468E98",
"R. c #4A919B",
"E. c #52959F",
"W. c #599AA3",
"Q. c #619FA8",
"!. c #63A0A9",
"~. c #828282",
"^. c #8E8E8E",
"/. c #9A9A9A",
"(. c #949494",
"). c #B9A885",
"_. c #A4A4A4",
"`. c gray67",
"'. c #B7B7B7",
"]. c #CBB791",
"[. c #C7B48F",
"{. c #D9C59C",
"}. c #D7C29A",
"|. c #E3CDA3",
" X c #ECD5A9",
".X c #EFD8AB",
"XX c #E7D1A5",
"oX c #F0D9AC",
"OX c gainsboro",
"+X c gray79",
"@X c #F4F4F4",
"#X c None",
/* pixels */
"#X#X#X#X#X#X#X#X#X#X#X#X#X#X#X#X#X#X#X#X#X#X#X#X#X#X#X#X#X#X#X#X#X#X#X#X#X#X#X#X#X#X#X#X#X#X#X#X#X#X#X#X#X#X#X#X#X#X#X#X#X#X#X#X",
"#X#X#X#X#X#X#X#X#X#X#X#X#X#X#X#X#X#X#X#X#X#X#X#X#X#X#X#X#X    #X#X#X#X#X#X#X#X#X#X#X#X#X#X#X#X#X#X#X#X#X#X#X#X#X#X#X#X#X#X#X#X#X",
"#X#X#X#X#X#X#X#X#X#X#X#X#X#X#X#X#X#X#X#X#X#X#X#X#X#X#X#X#X      #X#X#X#X#X#X#X#X#X#X#X#X#X#X#X#X#X#X#X#X#X#X#X#X#X#X#X#X#X#X#X#X",
"#X#X#X#X#X#X#X#X#X#X#X#X#X#X#X#X#X#X#X#X#X#X#X#X#X#X#X#X#X  ' `     #X#X#X#X#X#X#X#X#X#X#X#X#X#X#X#X#X#X#X#X#X#X#X#X#X#X#X#X#X#X",
"#X#X#X#X#X#X#X#X#X#X#X#X#X#X#X#X#X#X#X#X#X#X#X#X#X#X#X#X#X  ] U.+.j   #X#X#X#X#X#X#X#X#X#X#X#X#X#X#X#X#X#X#X#X#X#X#X#X#X#X#X#X#X",
"#X#X#X#X#X#X#X#X#X#X#X#X#X#X#X#X#X#X#X#X#X#X#X#X#X#X#X#X#X  _ P.U.U...>   #X#X#X#X#X#X#X#X#X#X#X#X#X#X#X#X#X#X#X#X#X#X#X#X#X#X#X",
"#X#X#X#X#X#X#X#X#X#X#X#X#X#X#X#X#X#X#X#X#X#X#X#X#X#X#X#X#X  k +.U.U.U.P.} ,   #X#X#X#X#X#X#X#X#X#X  #X#X#X#X#X#X#X#X#X#X#X#X#X#X",
"#X#X#X#X#X#X#X#X#X#X#X#X#X#X#X#X#X#X#X#X#X#X#X#X#X#X#X#X#X  k o.U.U.U.U.U.J.` o   #X#X#X#X#X#X#X#X    #X#X#X#X#X#X#X#X#X#X#X#X#X",
"#X#X#X#X#X#X#X#X#X#X#X#X#X#X#X#X#X#X#X#X#X#X#X#X#X#X#X#X#X  j ..U.U.U.U.U.U.U.P.[ a     #X#X#X#X#X      #X#X#X#X#X#X#X#X#X#X#X#X",
"#X#X#X#X#X#X#X#X#X#X#X#X#X#X#X#X#X#X#X#X#X#X#X#X#X#X#X#X#X  j { U.U.U.U.U.U.U.U.U.U.X._ >     #X#X#X; o   #X#X#X#X#X#X#X#X#X#X#X",
"#X#X#X#X#X#X#X#X#X#X#X#X#X#X#X#X#X#X#X#X#X#X#X#X#X#X#X#X#X  h ' K.U.U.U.U.U.U.U.U.U.U.U.U.+.} g ;   o O.>   #X#X#X#X#X#X#X#X#X#X",
"#X#X#X#X#X#X#X#X#X#X#X#X#X#X#X#X#X#X#X#X#X#X#X#X#X#X#X#X#X  g ` J.U.U.U.U.U.U.U.U.U.U.U.U.U.U.U.K...` L.+.>   #X#X#X#X#X#X#X#X#X",
"#X#X#X#X#X#X#X#X#X#X#X#X#X#X#X#X#X#X#X#X#X#X#X#X#X#X#X#X#X#Xf ` X.U.U.U.U.U.U.U.U.U.U.U.U.U.U.U.U.U.U.U.U.P.k   #X#X#X#X#X#X#X#X",
"#X#X#X#X#X#X#X#X#X#X#X#X#X#X#X#X#X#X#X#X#X#X#X#X#X#X#X#X#X#Xs ` ..U.U.U.U.U.U.U.U.U.U.U.U.U.U.U.U.U.U.U.U.U.U.k   #X#X#X#X#X#X#X",
"#X#X#X#X#X#X#X#X#X#X#X#X#X#X#X#X#X#X#X#X#X#X#X#X#X#X#X#X#X#X> ` ' K.U.U.U.U.U.U.U.U.U.U.U.U.U.U.U.U.U.U.U.U.U.U.}   #X#X#X#X#X#X",
"#X#X#X#X#X#X#X#X#X#X#X#X#X#X#X#X#X#X#X#X#X#X#X#X#X#X#X#X#X#X- ` ` +.U.U.U.U.U.U.U.U.U.U.U.U.U.U.U.U.U.U.U.U.U.U.U...  #X#X#X#X#X",
"#X#X#X#X#X#X#X#X#X#X#X#X#X#X#X#X#X#X#X#X#X#X#X#X#X#X#X#X#X#X  j ` ..U.U.U.U.U.U.U.U.U.U.U.U.U.U.U.U.U.U.U.U.U.U.Y.W.@.-   #X#X#X",
"#X#X#X#X#X#X#X#X#X#X#X#X#X#X#X#X#X#X#X#X#X#X#X#X#X#X#X#X#X#X  s ` [ U.U.U.U.U.U.U.U.U.Y.Y.U.U.U.U.U.U.U.U.U.Y.R.Q.!.!.@.o   #X#X",
"#X#X#X#X#X#X#X#X#X#X#X#X#X#X#X#X#X#X#X#X#X#X#X#X#X#X#X#X#X#X#Xo ` ` +.U.U.U.U.U.U.U.U.U.U.Y.T.T.R.T.T.R.E.W.!.!.!.!.!.!.I.<   #X",
"#X#X#X#X#X#X#X#X#X#X#X#X#X#X#X#X#X#X#X#X#X#X#X#X#X#X#X#X#X#X#X  j ` ..U.U.U.U.U.U.U.U.U.U.U.U.U.Y.R.W.W.!.!.!.!.!.!.!.!.Q.K.+   ",
"#X#X#X#X#X#X#X#X#X#X#X#X#X#X#X#X#X#X#X#X#X#X#X#X#X#X#X#X#X#X#X  > ` ` X.U.U.U.U.U.U.U.U.U.U.U.U.U.U.U.U.Y.Y.T.T.R.R.T.T.Y.U.h   ",
"#X#X#X#X#X#X#X#X#X#X#X#X#X#X#X#X#X#X#X#X#X#X#X#X#X#X#X#X#X#X#X#X  k ` ] O.U.U.U.U.U.U.U.U.U.U.U.U.U.U.U.U.U.U.U.U.U.U.U.U.U.g   ",
"#X#X#X#X#X#X#X#X#X#X#X  #X#X#X#X#X#X#X#X#X#X#X#X#X#X#X#X#X#X#X#X  s [ +.X.+.U.U.U.U.U.U.U.U.U.U.U.U.U.U.U.U.U.U.U.U.U.U.U.U.f   ",
"#X#X#X#X#X#X#X#X#X#X#X      #X#X#X#X#X#X#X#X#X#X#X#X#X#X#X#X#X#X  + } U.U.U.U.U.U.U.U.U.U.U.U.U.U.U.U.U.U.U.U.U.U.U.U.U.U.U.d #X",
"#X#X#X#X#X#X#X#X#X#X  8.G V V @ #X#X#X#X#X#X#X#X#X#X#X#X#X#X#X#X    ' U.U.U.U.U.U.U.U.U.U.U.U.U.U.U.U.U.U.U.U.U.U.U.U.U.L.+.s #X",
"#X#X#X#X#X#X#X#X#X#X  N 9.e.e.8.8   #X#X#X#X#X#X#X#X#X#X#X#X#X  : j ..U.U.U.U.U.U.U.U.U.U.U.U.U.U.U.U.U.P.+.U.U.U.U.U.U.X._ s #X",
"#X#X#X#X#X#X#X#X#X#X4 @ @ e.e.e.e.D 6   #X#X#X#X#X#X#X#X#X#X#X#X  ' U.U.U.U.U.U.U.U.U.U.U.U.U.U.U.P.O.U.U.O.| U.U.U.J.X.X.  ;   ",
"#X#X#X#X#X#X#X#X#X@ q.q.F e.e.e.e.e.q.N . #X#X#X#X#X#X#X#X#X#X#X#X+ [ +.U.U.U.U.U.U.U.U.U.U.U.U.U.J.g ] X.+.| j K.U...d }       ",
"#X#X#X#X#X#X#X#X#X. 8 A e.e.e.e.e.e.e.e.q.8 .   #X#X#X#X#X#X#X  @ 4 + f ' o.U.U.U.[ U.U.U.o.U.U.U.P.;   o a f a ; } _ + _       ",
"#X#X#X#X#X#X#X#X#X7 7 4 e.e.e.e.e.e.e.e.e.e.0.7             @ V D V 7 . + h U.K.U.j U.U.P.' U.U.U.K.- l m     : g o.s   > #X#X  ",
"#X#X#X#X#X#X#X#X  9.e.e.e.e.e.e.e.e.e.e.e.e.w.# z #.-.n # 4 4 e.e.e.q.Z @  .X._ U.g X.U.O.f U.+.K.U.a + OX4.+ f [ K.o     #X#X#X",
"#X#X#X#X#X#X#X#X  # 5 A F 9.q.w.e.e.e.e.e.w.B q #.7.~.$.. @   V 8.w.w.8 f ] a _ X.g ` U...: U.o.[ K.`   7.@X/.o h X.      #X#X#X",
"#X#X#X#X#X#X#X#X#X      . # 5 8 M C V V B 5 # I 1.a.W.m e Y Y Y & % I l   #   } h k s U.| o o.K.h k ..      < O + s       #X#X#X",
"#X#X#X#X#X#X#X#X#X  A D F V M 4 . @ @ @ O 2 2 #.6.~.C.3 W ! j.z.c _./.OX$.4 s h d ` o U...o _ P.] + > o u >.>.:.,.u (   #X#X#X#X",
"#X#X#X#X#X#X#X%     N A A M 4 % q c ( ;.:.&.x I I./.^.= ~ i.n.u./.*.*.OX'.O o   > ` : o.X.- o P.}   O :.[..XoXoX.X{.{.  #X#X#X#X",
"#X#X  1 u I ;.a./ +   X u U &.<.,.V.Z.).[.V.x I a._.6.$ ! h.n.y._.*.  2 '.3 V B   > a [ o.; ; '  .O ;.|.oXoXoXoX.X.X.X* #X#X#X#X",
"#X1 <.V.).{.oXoXZ.:.>.C.A.[.].XX.XoXoXoX.X).2 ' 5.`.1.4 ! j.n.j.b +X~._.6.Y B 0.N 7 . f +.> a ; f x C..X.X.XoXoXoXoX{.O #X#X#X#X",
"#XU S.|.oXoXoXoX X|.oXoX.X.XoXoXXX].[.Z.p.( O b 1./.-.4 ! f.n.n.! c 6.$.y z.w w.S B N O O.a : d + c V..X.X.XoXoXoX.X&.#X#X#X#X#X",
"#Xq C.XXoXoXoXoXoXoX[.Z.a.<./ u 1 . @ 5 8 7   v *.~.=.& ! i.n.n.n.z.s.f.b.t.B e.0.B B 6 h f   d   c ,.|.oX.XoX{.a.c #X#X#X#X#X#X",
"#Xx  XoXoXoXoXoXoX{.1 . # 8 B Z D A V M 4 .   O x 1.-.  $ e ~ u.s.f.j.f.W $ q.e.q.B D V + f       3 :.Z..X X].S.,.. #X#X#X#X#X#X",
"#X  I V. X.X.X|. Xp.# V 7 B 8 4 .   #X#X#X#X#X          E E J t $ + < 9 y 5 e.e.e.A e.w.7 :         I >.Z. X.X).* #X#X#X#X#X#X#X",
"#X< ].{.).V.<.A.).3         #X#X#X#X#X#X#X#X#X#X#X#X  J ! ! ! t.! * 3.R t 8 e.e.e.w.e.e.F +   V S B M U / a.).* #X#X#X#X#X#X#X#X",
"#X#X1 * #X#X3 >.X #X#X#X#X#X#X#X#X#X#X#X#X#X#X#X#X  t ! ! ! u.r.c.H z *.  M e.e.e.F G 9.q.4   A e.e.e.q.# #X#X#X#X#X#X#X#X#X#X#X",
"#X#X#X#X#X#X#X#X#X#X#X#X#X#X#X#X#X#X#X#X#X#X#X#X#XX ~ ! ! f.c.t.c.f.. *.< M e.e.e.A B C Z A   M G Z B 6   #X#X#X#X#X#X#X#X#X#X#X",
"#X#X#X#X#X#X#X#X#X#X#X#X#X#X#X#X#X#X#X#X#X#X#X#X. W ! ! y.n.n.v.j.b.E 2 %.7 9.e.e.e.q.w.e.w.M . 6     #X#X#X#X#X#X#X#X#X#X#X#X#X",
"#X#X#X#X#X#X#X#X#X#X#X#X#X#X#X#X#X#X#X#X#X  #X  H ! ! ! h.n.n.n.m.b.c.9 %.q V e.e.e.e.e.q.B M 7 . #X#X#X#X#X#X#X#X#X#X#X#X#X#X#X",
"#X#X#X#X#X#X#X#X#X#X#X#X#X#X#X#X#X#X#X#Xz s   & ! ! ! ^ z.b.n.n.n.n.n.u.* %.5 A e.e.e.e.8.Z D M #X#X#X#X#X#X#X#X#X#X#X#X#X#X#X#X",
"#X#X#X#X#X#X#X#X#X#X#X#X#X#X#X#X#X#X#X1 6.7.u $ ~ ! ! ^ f.n.n.n.n.n.n.m.y n n 8 D e.e.e.e.e.e.7 #X#X#X#X#X#X#X#X#X#X#X#X#X#X#X#X",
"#X#X#X#X#X#X#X#X#X#X#X#X#X#X#X#X#X  < I *.W.I.U 8 ! ! ! r.z.n.n.n.n.n.n.j.= 5.2 5 A e.e.e.e.q.  #X#X#X#X#X#X#X#X#X#X#X#X#X#X#X#X",
"#X#X#X#X#X#X#X#X#X#X#X#X#X#X#X#X#X  < #.I <.~.a.m w ~ ! ! y.b.n.n.v.c.z.h.H x 3.  4 V q.e.w.8   #X#X#X#X#X#X#X#X#X#X#X#X#X#X#X#X",
"#X#X#X#X#X#X#X#X#X#X#X#X#X#X#X#X#X#X  l #.#.5.~.~.#.& J K L T ) ( ( $.*.-.%.+ -.b   . # 5 @   #X#X#X#X#X#X#X#X#X#X#X#X#X#X#X#X#X",
"#X#X#X#X#X#X#X#X#X#X#X#X#X#X#X#X#X#X#X  m #.#.6.~.~.$.. n 5.5.5.-.$.#.n m x < 2 5.  #X#X#X#X#X#X#X#X#X#X#X#X#X#X#X#X#X#X#X#X#X#X",
"#X#X#X#X#X#X#X#X#X#X#X#X#X#X#X#X#X#X#X#X  v #.#.4.~.~.6.l o + 4 y Y t.i.f.h.H O + #X#X#X#X#X#X#X#X#X#X#X#X#X#X#X#X#X#X#X#X#X#X#X",
"#X#X#X#X#X#X#X#X#X#X#X#X#X#X#X#X#X#X#X#X#XO n #.#.5.~.~.I.-.l 5 J Q i.z.b.c.. #X#X#X#X#X#X#X#X#X#X#X#X#X#X#X#X#X#X#X#X#X#X#X#X#X",
"#X#X#X#X#X#X#X#X#X#X#X#X#X#X#X#X#X#X#X#X#X  + n / %.-.a.^.~.(.a.$.m = 9 y e   #X#X#X#X#X#X#X#X#X#X#X#X#X#X#X#X#X#X#X#X#X#X#X#X#X",
"#X#X#X#X#X#X#X#X#X#X#X#X#X#X#X#X#X#X#X#X#X  o O m ' I $.>.~.~./._./.~.1.$.b z . #X#X#X#X#X#X#X#X#X#X#X#X#X#X#X#X#X#X#X#X#X#X#X#X",
"#X#X#X#X#X#X#X#X#X#X#X#X#X#X#X#X#X#X#X#X#X  < 2 % l I ' #.#.-.5.7.^._._.(.~.I.4 #X#X#X#X#X#X#X#X#X#X#X#X#X#X#X#X#X#X#X#X#X#X#X#X",
"#X#X#X#X#X#X#X#X#X#X#X#X#X#X#X#X#X#X#X#X#X  < x v % q v #.#.#.#.#.$.1.4.6.a.$.@ #X#X#X#X#X#X#X#X#X#X#X#X#X#X#X#X#X#X#X#X#X#X#X#X",
"#X#X#X#X#X#X#X#X#X#X#X#X#X#X#X#X#X#X#X#X#X  < z I b x O < z b #.#.#./ ' #.#.@ #X#X#X#X#X#X#X#X#X#X#X#X#X#X#X#X#X#X#X#X#X#X#X#X#X",
"#X#X#X#X#X#X#X#X#X#X#X#X#X#X#X#X#X#X#X#X#X  < z b b b n x < O 2 l z m m m l   #X#X#X#X#X#X#X#X#X#X#X#X#X#X#X#X#X#X#X#X#X#X#X#X#X",
"#X#X#X#X#X#X#X#X#X#X#X#X#X#X#X#X#X#X#X#X#X  < z b b b b b b b n % o 2 < O   #X#X#X#X#X#X#X#X#X#X#X#X#X#X#X#X#X#X#X#X#X#X#X#X#X#X",
"#X#X#X#X#X#X#X#X#X#X#X#X#X#X#X#X#X#X#X#X#X  2 z b b b b b b b b % < b b n O #X#X#X#X#X#X#X#X#X#X#X#X#X#X#X#X#X#X#X#X#X#X#X#X#X#X",
"#X#X#X#X#X#X#X#X#X#X#X#X#X#X#X#X#X#X#X#X#X  2 l b b b b b b b n + l b b b < #X#X#X#X#X#X#X#X#X#X#X#X#X#X#X#X#X#X#X#X#X#X#X#X#X#X",
"#X#X#X#X#X#X#X#X#X#X#X#X#X#X#X#X#X#X#X#X#X  < z b b b b b b b l o n b b I l #X#X#X#X#X#X#X#X#X#X#X#X#X#X#X#X#X#X#X#X#X#X#X#X#X#X",
"#X#X#X#X#X#X#X#X#X#X#X#X#X#X#X#X#X#X#X#X#X  < l b b b b #.b b o l b b b b v   #X#X#X#X#X#X#X#X#X#X#X#X#X#X#X#X#X#X#X#X#X#X#X#X#X",
"#X#X#X#X#X#X#X#X#X#X#X#X#X#X#X#X#X#X#X#X#X  < 2 b b b b b b x + m b I b b b + #X#X#X#X#X#X#X#X#X#X#X#X#X#X#X#X#X#X#X#X#X#X#X#X#X",
"#X#X#X#X#X#X#X#X#X#X#X#X#X#X#X#X#X#X#X#X#X  < 2 b b b b b b O % < l z b b b % #X#X#X#X#X#X#X#X#X#X#X#X#X#X#X#X#X#X#X#X#X#X#X#X#X",
"#X#X#X#X#X#X#X#X#X#X#X#X#X#X#X#X#X#X#X#X#X  < l n I b b b v . = 9 $   2 b b < #X#X#X#X#X#X#X#X#X#X#X#X#X#X#X#X#X#X#X#X#X#X#X#X#X",
"#X#X#X#X#X#X#X#X#X#X#X#X#X#X#X#X#X#X#X#X#X  1 l n b #.b b % ! s.f.j.s.t l b 2   #X#X#X#X#X#X#X#X#X#X#X#X#X#X#X#X#X#X#X#X#X#X#X#X",
"#X#X#X#X#X#X#X#X#X#X#X#X#X#X#X#X#X#X#X#X#X  2 l b b b b z J b.n.n.n.n.z.9 z 2   #X#X#X#X#X#X#X#X#X#X#X#X#X#X#X#X#X#X#X#X#X#X#X#X",
"#X#X#X#X#X#X#X#X#X#X#X#X#X#X#X#X#X#X#X#X#X  2 l b b b n = z.n.n.n.n.n.N.x.9 O   #X#X#X#X#X#X#X#X#X#X#X#X#X#X#X#X#X#X#X#X#X#X#X#X",
"#X#X#X#X#X#X#X#X#X#X#X#X#X#X#X#X#X#X#X#X      O z b b l Q n.n.N.B.D.G.G.G.d.  #X#X#X#X#X#X#X#X#X#X#X#X#X#X#X#X#X#X#X#X#X#X#X#X#X",
"#X#X#X#X#X#X#X#X#X#X#X#X#X#X#X#X#X#X#XX H r.h.s.E = <   % e t J Y E ~ ! r.y.E     #X#X#X#X#X#X#X#X#X#X#X#X#X#X#X#X#X#X#X#X#X#X#X",
"#X#X#X#X#X#X#X#X#X#X#X#X#X#X#X#X#X#X& Q f.b.n.n.N.l.! y       #X#X#X#X            #X#X#X#X#X#X#X#X#X#X#X#X#X#X#X#X#X#X#X#X#X#X#X",
"#X#X#X#X#X#X#X#X#X#X#X#X#X#X#X#X#X9 ! z.n.n.n.B.G.F.g.J . #X#X#X#X#X#X#X#X#X#X#X#X#X#X#X#X#X#X#X#X#X#X#X#X#X#X#X#X#X#X#X#X#X#X#X",
"#X#X#X#X#X#X#X#X#X#X#X#X#X#X#X#X$ ~ z.n.n.n.D.F.l.Y % #X#X#X#X#X#X#X#X#X#X#X#X#X#X#X#X#X#X#X#X#X#X#X#X#X#X#X#X#X#X#X#X#X#X#X#X#X",
"#X#X#X#X#X#X#X#X#X#X#X#X#X#X#X& Q h.n.n.N.N.d.t   #X#X#X#X#X#X#X#X#X#X#X#X#X#X#X#X#X#X#X#X#X#X#X#X#X#X#X#X#X#X#X#X#X#X#X#X#X#X#X",
"#X#X#X#X#X#X#X#X#X#X#X#X#X    Y r.b.n.m.s.H = =   #X#X#X#X#X#X#X#X#X#X#X#X#X#X#X#X#X#X#X#X#X#X#X#X#X#X#X#X#X#X#X#X#X#X#X#X#X#X#X",
"#X#X#X#X#X#X#X#X#X#X#X  X . e ! f.v.r.9 + i T 0   #X#X#X#X#X#X#X#X#X#X#X#X#X#X#X#X#X#X#X#X#X#X#X#X#X#X#X#X#X#X#X#X#X#X#X#X#X#X#X",
"#X#X#X#X#X#X#X#X#X#X#XX r = X J ~ y   #X    X X   #X#X#X#X#X#X#X#X#X#X#X#X#X#X#X#X#X#X#X#X#X#X#X#X#X#X#X#X#X#X#X#X#X#X#X#X#X#X#X",
"#X#X#X#X#X#X#X#X#X#X#X  * i p p L T X #X#X#X#X  #X#X#X#X#X#X#X#X#X#X#X#X#X#X#X#X#X#X#X#X#X#X#X#X#X#X#X#X#X#X#X#X#X#X#X#X#X#X#X#X",
"#X#X#X#X#X#X#X#X#X#X#X#X  = p T T T 0 #X#X#X#X#X#X#X#X#X#X#X#X#X#X#X#X#X#X#X#X#X#X#X#X#X#X#X#X#X#X#X#X#X#X#X#X#X#X#X#X#X#X#X#X#X",
"#X#X#X#X#X#X#X#X#X#X#X#X#X  0 R T T i   #X#X#X#X#X#X#X#X#X#X#X#X#X#X#X#X#X#X#X#X#X#X#X#X#X#X#X#X#X#X#X#X#X#X#X#X#X#X#X#X#X#X#X#X",
"#X#X#X#X#X#X#X#X#X#X#X#X#X#X  p T T R X   #X#X#X#X#X#X#X#X#X#X#X#X#X#X#X#X#X#X#X#X#X#X#X#X#X#X#X#X#X#X#X#X#X#X#X#X#X#X#X#X#X#X#X",
"#X#X#X#X#X#X#X#X#X#X#X#X#X#X#X  L T T T X   #X#X#X#X#X#X#X#X#X#X#X#X#X#X#X#X#X#X#X#X#X#X#X#X#X#X#X#X#X#X#X#X#X#X#X#X#X#X#X#X#X#X",
"#X#X#X#X#X#X#X#X#X#X#X#X#X#X#X#XO R R r   #X#X#X#X#X#X#X#X#X#X#X#X#X#X#X#X#X#X#X#X#X#X#X#X#X#X#X#X#X#X#X#X#X#X#X#X#X#X#X#X#X#X#X",
"#X#X#X#X#X#X#X#X#X#X#X#X#X#X#X#X#XX X   #X#X#X#X#X#X#X#X#X#X#X#X#X#X#X#X#X#X#X#X#X#X#X#X#X#X#X#X#X#X#X#X#X#X#X#X#X#X#X#X#X#X#X#X",
"#X#X#X#X#X#X#X#X#X#X#X#X#X#X#X#X#X  #X#X#X#X#X#X#X#X#X#X#X#X#X#X#X#X#X#X#X#X#X#X#X#X#X#X#X#X#X#X#X#X#X#X#X#X#X#X#X#X#X#X#X#X#X#X"
};
