/* XPM */
static char *result[] = {
/* columns rows colors chars-per-pixel */
"64 96 232 2 ",
"   c #020202",
".  c #0B0505",
"X  c #050B0B",
"o  c #0C0B0B",
"O  c #02050C",
"+  c #140A0A",
"@  c #1C0E0E",
"#  c #180506",
"$  c #050C1B",
"%  c #0A1414",
"&  c #0D1B1B",
"*  c #061313",
"=  c #141414",
"-  c #1D1212",
";  c #121D1D",
":  c #191919",
">  c #250707",
",  c #34090C",
"<  c #231212",
"1  c #2A1515",
"2  c #2B1919",
"3  c #331A1A",
"4  c #3A1B1C",
"5  c #3E1008",
"6  c #000D27",
"7  c #091726",
"8  c #001237",
"9  c #121D32",
"0  c #0A2627",
"q  c #122425",
"w  c #152B2B",
"e  c #1B2727",
"r  c #152432",
"t  c #1B3535",
"y  c #1C3A3A",
"u  c #153636",
"i  c #0C2D3B",
"p  c #282828",
"a  c #3C2324",
"s  c #263B3B",
"d  c #313131",
"f  c #373C3A",
"g  c #303230",
"h  c #450C0D",
"j  c #48120C",
"k  c #470D11",
"l  c #461616",
"z  c #581419",
"x  c #540C09",
"c  c #7A0101",
"v  c #69141A",
"b  c #71161B",
"n  c #691004",
"m  c #482812",
"M  c #7D280B",
"N  c #682605",
"B  c #432222",
"V  c #4B2626",
"C  c #4F2828",
"Z  c #532A2A",
"A  c #5A2E2E",
"S  c #55252A",
"D  c #5F3030",
"F  c #572F2F",
"G  c #643232",
"H  c #6B3636",
"J  c #6E3838",
"K  c #743B3B",
"L  c #7B3E3E",
"P  c #76353D",
"I  c #722831",
"U  c #7E1720",
"Y  c #00194A",
"T  c #162A48",
"R  c #0C2657",
"E  c #19304B",
"W  c #012163",
"Q  c #03256B",
"!  c #00297C",
"~  c #002777",
"^  c #183162",
"/  c #233B6B",
"(  c #603C41",
")  c #174545",
"_  c #195858",
"`  c #234343",
"'  c #254B4C",
"]  c #294D4D",
"[  c #294447",
"{  c #245454",
"}  c #2B5454",
"|  c #2D5B5B",
" . c #205959",
".. c #315D5D",
"X. c #345757",
"o. c #304D4D",
"O. c #1E6464",
"+. c #2E6464",
"@. c #276B6B",
"#. c #336363",
"$. c #356A6A",
"%. c #396D6D",
"&. c #3A6464",
"*. c #297575",
"=. c #337474",
"-. c #3C7575",
";. c #357C7C",
":. c #3E7A7A",
">. c #29447C",
",. c #484747",
"<. c #48595B",
"1. c #585556",
"2. c #504746",
"3. c #7E4040",
"4. c #764447",
"5. c #755356",
"6. c #675052",
"7. c #466869",
"8. c #407D7D",
"9. c #457272",
"0. c #557A7A",
"q. c #5F6868",
"w. c #666868",
"e. c #6B7373",
"r. c gray48",
"t. c #757474",
"y. c #7B6E65",
"u. c #5A6060",
"i. c #A70602",
"p. c #BB0503",
"a. c #BF1513",
"s. c #96310E",
"d. c #A43C06",
"f. c #BB3C11",
"g. c #881A23",
"h. c #971B26",
"j. c #A31E29",
"k. c #AA1E2B",
"l. c #B01F2D",
"z. c #B2212D",
"x. c #B9212F",
"c. c #BD2230",
"v. c #A02F3B",
"b. c #8F292D",
"n. c #C32331",
"m. c #CC2434",
"M. c #D12B2D",
"N. c #C4260A",
"B. c #BB430A",
"V. c #E24816",
"C. c #8B3D45",
"Z. c #AE3945",
"A. c #CD3D4B",
"S. c #834242",
"D. c #8A4646",
"F. c #8E4949",
"G. c #944B4B",
"H. c #994E4E",
"J. c #9C5050",
"K. c #8C535A",
"L. c #867670",
"P. c #DD4757",
"I. c #C74657",
"U. c #E04C5B",
"Y. c #C95965",
"T. c #E25362",
"R. c #E56372",
"E. c #D07F7F",
"W. c #073797",
"Q. c #0F3889",
"!. c #0A3EA7",
"~. c #294988",
"^. c #0E46B7",
"/. c #144AB8",
"(. c #0E43AD",
"). c #335BAD",
"_. c #1753CA",
"`. c #1B59D7",
"'. c #144FC8",
"]. c #255FD3",
"[. c #2964DA",
"{. c #1F5FE2",
"}. c #2162E7",
"|. c #286DF8",
" X c #3576FB",
".X c #3871E2",
"XX c #3A8282",
"oX c #3D8888",
"OX c #438383",
"+X c #468A8A",
"@X c #498D8D",
"#X c #5A8686",
"$X c #4C9494",
"%X c #4F9898",
"&X c #429191",
"*X c #519C9C",
"=X c #6E8C8C",
"-X c #55A3A3",
";X c #58A7A7",
":X c #5AABAB",
">X c #839C9C",
",X c #929292",
"<X c #9B9B9B",
"1X c #908B87",
"2X c #A49A96",
"3X c #8AA2A2",
"4X c #98ADAD",
"5X c #A7A7A7",
"6X c #ABBCBC",
"7X c #BABABA",
"8X c #B4B4B4",
"9X c #BEB5A6",
"0X c #C9C3B2",
"qX c #B9C7C7",
"wX c #CCCCCC",
"eX c #C3CBCB",
"rX c #D2D2D2",
"tX c gainsboro",
"yX c #CAD4D4",
"uX c #F3EAD8",
"iX c #DCE3E3",
"pX c #E5E5E5",
"aX c #EBECEC",
"sX c #E5E9E9",
"dX c #FFF9EA",
"fX c #FFF6E4",
"gX c #F4F4F4",
"hX c #FEFEFD",
"jX c #FFFCF6",
"kX c #EEF1F1",
"lX c #E4DBC6",
"zX c None",
/* pixels */
"zXzXzXzXzXzXzXzXzXzXzXzXzXzXzXzXzXzXzXzXzXzXzXzXzXzXzXzXzXzXzXzXzXzXzXzXzXzXzXzXzXzXzXzXzXzXzXzXzXzXzXzXzXzXzXzXzXzXzXzXzXzXzXzX",
"zXzXzXzXzXzXzXzXzXzXzXzXzXzXzXzXzXzXzXzXzXzXzXzXzXzXzXzXzXzXzXzXzXzXzXzXzXzXzXzXzXzXzXzXzXzXzXzXzXzXzXzXzXzXzXzXzXzXzXzXzXzXzXzX",
"zXzXzXzXzXzXzXzXzXzXzXzXzXzXzXzXzXzXzXzXzXzXzXzXzXzXzXzXzXzXzXzXzXzXzXzXzXzXzXzXzXzXzXzXzXzXzXzXzXzXzXzXzXzXzXzXzXzXzXzXzXzXzXzX",
"zXzXzXzXzXzXzXzXzXzXzXzXzXzXzXzXzXzXzXzXzXzXzXzXzXzXzXzXzXzXzXzXzXzXzXzXzXzXzXzXzXzXzXzXzXzXzXzXzXzXzXzXzXzXzXzXzXzXzXzXzXzXzXzX",
"zXzXzXzXzXzXzXzXzXzXzXzXzXzXzXzXzXzXzXzXzXzXzXzXzXzXzXzXzXzXzXzXzXzXzXzXzXzXzXzXzXzXzXzXzXzXzXzXzXzXzXzXzXzXzXzXzXzXzXzXzXzXzXzX",
"zXzXzXzXzXzXzXzXzXzXzXzXzXzXzXzXzXzXzXzXzXzXzXzXzXzXzXzXzXzXzXzXzXzXzXzXzXzXzXzXzXzXzXzXzXzXzXzXzXzXzXzXzXzXzXzXzXzXzXzXzXzXzXzX",
"zXzXzXzXzXzXzXzXzXzXzXzXzXzXzXzXzXzXzXzXzXzXzXzXzXzXzXzXzXzXzXzXzXzXzXzXzXzXzXzXzXzXzXzXzXzXzXzXzXzXzXzXzXzXzXzXzXzXzXzXzXzXzXzX",
"zXzXzXzXzXzXzXzXzXzXzXzXzXzXzXzXzXzXzXzXzXzXzXzXzXzXzXzXzXzXzXzXzXzXzXzX  zXzXzXzXzXzXzXzXzXzXzXzXzXzXzXzXzXzXzXzXzXzXzXzXzXzXzX",
"zXzXzXzXzXzXzXzXzXzXzXzXzXzXzXzXzXzXzXzXzXzXzXzXzXzXzXzXzXzXzXzXzXzXzXzX  zXzXzXzXzXzXzXzXzXzXzXzXzXzXzXzXzXzXzXzXzXzXzXzXzXzXzX",
"zXzXzXzXzXzXzXzXzXzXzXzXzXzXzXzXzXzXzXzXzXzXzXzXzXzXzXzXzXzXzXzXzXzXzXzXo + zXzXzXzXzXzXzXzXzXzXzXzXzXzXzXzXzXzXzXzXzXzXzXzXzXzX",
"zXzXzXzXzXzXzXzXzXzXzXzXzXzXzXzXzXzXzX  . . + @ - @ @ . .   zXzXzXzXzXzX  B   zXzXzXzXzXzXzXzXzXzXzXzXzXzXzXzXzXzXzXzXzXzXzXzXzX",
"zXzXzXzXzXzXzXzXzXzXzXzXzXzXzX+ 1 B A H L D.D.D.F.F.D.S.L H A B 1 + zXzX  G 3 zXzXzXzXzXzXzXzXzXzXzXzXzXzXzXzXzXzXzXzXzXzXzXzXzX",
"zXzXzXzXzXzXzXzXzXzXzXzX+ 4 G D.G.F.F.S.D.S.S.S.S.S.S.S.D.D.F.G.H.S.D 3 . Z D   zXzXzXzXzXzXzXzXzXzXzXzXzXzXzXzXzXzXzXzXzXzXzXzX",
"zXzXzXzXzXzXzXzXzX  < A D.G.D.S.S.L S.S.S.S.S.S.S.S.S.S.S.L L L L S.D.F.L H K l @ < - @ +     zXzXzXzXzXzXzXzXzXzXzXzXzXzXzXzXzX",
"zXzXzXzXzXzXzXzXzX. H 3.L K K L L S.S.L S.S.D.S.S.S.S.S.3.L 3.L L K K L S.K J F.F.S.K C @   zXzXzXzXzXzXzXzXzXzXzXzXzXzXzXzXzXzX",
"zXzXzXzXzXzXzXzXzX+ 2 J K K L L L L L S.S.S.S.D.S.S.S.S.S.S.L L L K L K K K J J D B @   zXzXzXzXzXzXzXzXzXzXzXzXzXzXzXzXzXzXzXzX",
"zXzXzXzXzX  + 3 V J L S.L L L L L L L S.S.S.S.S.S.S.S.S.3.L L L L L K K K J J J J A a + zXzXzXzXzXzXzXzXzXzXzXzXzXzXzXzXzXzXzXzX",
"zXzXzXzXzXzX  3 Z Z D J L L L L L L L S.S.S.S.S.S.S.S.3.3.3.L L K K K K K K L S.G.F.D.F.B   zXzXzXzXzXzXzXzXzXzXzXzXzXzXzXzXzXzX",
"zXzXzXzXzXzX  + Z D.H.J.H.H.H.G.F.F.D.D.D.S.S.S.S.S.S.S.S.S.D.D.D.F.G.H.H.J S.J.H.H.H < @     zXzXzXzXzXzXzXzXzXzXzXzXzXzXzXzXzX",
"zXzXzX  + 4 G F.G.H.H.J.H.J.H.J.J.J.H.J.H.J.H.H.H.F.J.J.J.J.H.G.D.J.J.G.G C D.J.H.F.L 4   zXzXzXzXzXzXzXzXzXzXzXzXzXzXzXzXzXzXzX",
"zX    . 3 C A A G L S.F.H.J.J.J.J.J.J.J.J.J.J.J.D.D G.J.J.J.F.D K H.F.A C Z S.L J G G G < zXzXzXzXzXzXzXzXzXzXzXzXzXzXzXzXzXzXzX",
"zXzXzX  + 3 A D.G.S.J H J K S.L D.G.H.H.H.D.J.H.D Z K J.J.F.G Z H S.Z C Z Z A G G G G G Z   zXzXzXzXzXzXzXzXzXzXzXzXzXzXzXzXzXzX",
"zXzXzX. C G H H H G H H J J H Z G J J K G A L K Z Z F K K F Z Z Z C Z B V Z A G H G H G G @ zXzXzXzXzXzXzXzXzXzXzXzXzXzXzXzXzXzX",
"zXzXzXzX  4 Z A H G G Z D H A C A H H A C C H S Z Z Z F Z Z Z Z Z C 3 + C S A G G G G G H 4 zXzXzXzXzXzXzXzXzXzXzXzXzXzXzXzXzXzX",
"zXzXzX  + a L F.S.G D Z A D Z Z Z D A Z Z Z A Z Z C Z Z Z Z B C Z 1 . 1 @ V A D Z D G G G Z . zXzXzXzXzXzXzXzXzXzXzXzXzXzXzXzXzX",
"zX  + Z H H G G G D Z Z Z Z B B Z Z Z C V Z Z Z 3 + V Z V @ + C @ ] w X o Z Z Z Z D G G G D + zXzXzXzXzXzXzXzXzXzXzXzXzXzXzXzXzX",
"zXzXzX. < B Z H G A Z V Z V + < Z C V @ - Z C < s s B 3 q o.- + #.8.` %.1 Z Z Z Z D G G G G @ zXzXzXzXzXzXzXzXzXzXzXzXzXzXzXzXzX",
"zXzXzXzXzX  G H G Z B + V - { - C 2 : %.: B = #.-X} o ' *X..X %.*X%X%X&.3 Z V V Z G G A G G < zXzXzXzXzXzXzXzXzXzXzXzXzXzXzXzXzX",
"zXzXzXzXzX1 J A Z V - y + } @X= @ | %X-X; e OX-X-X+X+X;X-X} -.-X*X*X*X] a 2 + < Z Z G Z G G < zXzXzXzXzXzXzXzXzXzXzXzXzXzXzXzXzX",
"zXzXzXzX  V A Z Z < #.-.` *X*X] +X-X-X-X%.*X;X;X;X:X:X:X;X*X-X*X-X*X*Xw % ` ` 3 Z Z A Z G H < zXzXzXzXzXzXzXzXzXzXzXzXzXzXzXzXzX",
"zXzXzXzX. V 1 B V s *X$X$X*X*X*X-X-X-X-X:X;X:X:X:X:X:X:X:X;X-X-X*X-X$X` -.-.s B Z Z Z Z G G < zXzXzXzXzXzXzXzXzXzXzXzXzXzXzXzXzX",
"zXzXzXzX  .   3 V [ *X%X@X*X-X-X-X-X-X;X;X:X:X:X:X:X:X:X:X:X;X-X%X%X#.] ] %.t B Z Z Z A G G @ zXzXzXzXzXzXzXzXzXzXzXzXzXzXzXzXzX",
"zXzXzXzXzXzXzX@ V o.*X%XX.+X*X-X-X-X-X;X;X:X:X:X:X:X:X:X:X:X:X-X#.+X| ] ] -.e V 3 Z C Z Z G + zXzXzXzXzXzXzXzXzXzXzXzXzXzXzXzXzX",
"zXzXzXzXzXzXzX. V X.OX-.#.@X-X:X:X;X-X;X;X;X:X:X:X:X:X:X:X;X-X-X%X*X8.| #.@Xe 4 o Z Z Z Z C . zXzXzXzXzXzXzXzXzXzXzXzXzXzXzXzXzX",
"zXzXzXzXzXzXzX  B X...} @X*X:X:X:X:X-X;X-X;X:X:X:X:X:X:X;X*X+X9.-.8.OX@X$X@X= = o C Z C Z a . zXzXzXzXzXzXzXzXzXzXzXzXzXzXzXzXzX",
"zXzXzXzXzXzXzXzX3 &.$.X.%X-X:X:X:X:X-X;X*X-X;X;X:X:X:X;X+X%.#X3X3X0.#.&.@X-.* } = V Z 3 + +   zXzXzXzXzXzXzXzXzXzXzXzXzXzXzXzXzX",
"zXzXzXzXzXzXzXzX+ 9.$X+X*X*X*X*X:X-X-X-X*X-X-X-X:X;X-X+X0.qXgXhXhXkX6X&.#.| ` OXq V B         zXzXzXzXzXzXzXzXzXzXzXzXzXzXzXzXzX",
"zXzXzXzXzXzXzX* o 9.-X$X+X8.OX*X-X-X*X$XX.+X-X-X:X;X%X9.tXhXgXhXhXhXhXqX&.] OX+Xq B 3 q | #.} q   zXzXzXzXzXzXzXzXzXzXzXzXzXzXzX",
"zXzXzXzXzX  t *Xt #.-X:.9.4X6X#X*X*X*X*X$.@X*X-X-X*X8.>XjXpXaXhXhXhXhXhX#X..OX$Xt B < | +X+X@X-X..X zXzXzXzXzXzXzXzXzXzXzXzXzXzX",
"zXzXzXzXzXw $X+X] | %X#.qXhXhXaX#X*XOX*X*X-X*X-X*X%X%.eXaXpXsXhXhXhXhXjX4X#.%.$X` 3 o :.OXOX+X+X%X}   zXzXzXzXzXzXzXzXzXzXzXzXzX",
"zXzXzXzX  8.@XOX} | OX0.kXgXhXhX4X%X%X%X*X*X*X*X*X$X#.iXsXpXpXkXhXhXhXhX6X..%.$X} < % -.-.-.:.XX+X$Xq zXzXzXzXzXzXzXzXzXzXzXzXzX",
"zXzXzXzX& %X+XOX' | -.=XaXaXhXhXeX&X%X%X%X%X%X*X*X$X#.yXaXpXsXpXsXaXhXhX4X..$.%X#.. q -.:.-.-.:.+X@X| zXzXzXzXzXzXzXzXzXzXzXzXzX",
"zXzXzXzX) @X+X:.E &.%.=XaXpXaXjXqX$X%X%X%X%X%X%X%X$X9.=XhXhXaXpXsXgXhXhX#X..%.$X$.  ` -.-.-.-.-.OX+X$.  zXzXzXzXzXzXzXzXzXzXzXzX",
"zXzXzXzXs +X+X:.t -.9.0.dXaXsXhX3X$X$X$X%X$X%X%X$X%X8.&.iXhXgXaXjXhXhXqX#...OX@X%.X } -.-.:.-.-.+X+X$.  zXzXzXzXzXzXzXzXzXzXzXzX",
"zXzXzXzX; @X+X:.; +X8.#.qXhXhXsX9.@X$X$X$X$X$X$X$X$X@X..9.yXjXhXhXgXqX&...$.$X+X%.& $.-.-.:.-.:.+XOX} zXzXzXzXzXzXzXzXzXzXzXzXzX",
"zXzXzXzX  %.+XOX% @X@X#.&.3X4X9.OX$X@X$X&X$X$X$X@X$X$XOX&.&.0.3X>X0.#...#.+X$XOX%.w -.:.-.-.-.:.+XOXq zXzXzXzXzXzXzXzXzXzXzXzXzX",
"zXzXzXzXzX& ;.+X% +X+X@X#.#.+.:.@X@X@X@X$X@X@X@X@X$X@X$XOX#.#.#.....#.#.@X$X8.#.-.' -.-.-.-.:.+X+X`   zXzXzXzXzXzXzXzXzXzXzXzXzX",
"zXzXzXzXzX  w 8.; -.OX8.@X+X@X@X@X&X@X@X$X@X+X@X@X$X@X@X@X@X8.%.$.%.OX%X@XOX%...-.+.-.-.:.OX@X+X'   zXzXzXzXzXzXzXzXzXzXzXzXzXzX",
"zXzXzXzXzXzXzXX & & %.#.OX+X+X+X+X+X8.%.#.<.<.<.<.<.9.OX@X+X+X@X$X$XOXOX8.-.-.-.-.-.[ q ' } s %   zXzXzXzXzXzXzXzXzXzXzXzXzXzXzX",
"zXzXzXzXzXzXzXzXzX  * } $.OXOX+X8.$.<.5.C.4.5.L.L.5.( K.7.:.+X+X+X8.} | #.$.-.-.%.y .       zXzXzXzXzXzXzXzXzXzXzXzXzXzXzXzXzXzX",
"zXzXzXzXzXzXzXzXzXzXzX  & } =.%.$.6.4.2XlXdXjXdXhXfXlX,XJ J.7.:.-.-.} ..-.$.} e + k b , zXzXzXzXzXzXzXzXzXzXzXzXzXzXzXzXzXzXzXzX",
"zXzXzXzXzXzXzXzXzXzXzXzXzX  X q F C.0XjXfXdXjXdXhXdXfXjXL.P.I.1.$...` w & @ k b g.v k k # zXzXzXzXzXzXzXzXzXzXzXzXzXzXzXzXzXzXzX",
"zXzXzXzXzXzXzXzXzXzXzXzXzXzXzXzX  . f L.y.L.1XuXhXdX9X6.2 D 4 < + > z U j.l.j.h.j s.b k # zXzXzXzXzXzXzXzXzXzXzXzXzXzXzXzXzXzXzX",
"zXzXzXzXzXzXzXzXzXzXzXzXzXzXzXzXzXzXzXI m.P.v.2Xr.K.C.v.  N v d.n.m.n.c.z.l.k.j f.x.j.g.v # zXzXzXzXzXzXzXzXzXzXzXzXzXzXzXzXzXzX",
"zXzXzXzXzXzXzXzXzXzXzXzXzXzXzXzXzXzXzXI P.P.I.Z.P.U.U.Z.x f.h.B.m.m.n.c.x.z.h.M M.z.j.h.v h zXzXzXzXzXzXzXzXzXzXzXzXzXzXzXzXzXzX",
"zXzXzXzXzXzXzXzXzXzXzXzXzXzXzXzXzXzXzXI T.T.U.P.T.U.U.I B.z.j.B.m.m.n.n.z.l.b B.c.z.j.g.b k   zXzXzXzXzXzXzXzXzXzXzXzXzXzXzXzXzX",
"zXzXzXzXzXzXzXzXzXzXzXzXzXzXzXzXzXzXzXzXY.T.T.T.T.T.Y.> B.c.b.d.M.m.n.n.x.l.z M k.b z g.v k # zXzXzXzXzXzXzXzXzXzXzXzXzXzXzXzXzX",
"zXzXzXzXzXzXzXzXzXzXzXzXzXzXzXzXzXzXzXzXS Y.R.R.R.Y.Z . j b > N M.m.m.n.x.k., > d [ ] , @ , , zXzXzXzXzXzXzXzXzXzXzXzXzXzXzXzXzX",
"zXzXzXzXzXzXzXzXzXzXzXzXzXzXzXzXzXzXzXzXzXzXD C.L zXzXzX  +.=.m V.M.m.n.x.k.j.z -X*X+X} g # , . zXzXzXzXzXzXzXzXzXzXzXzXzXzXzXzX",
"zXzXzXzXzXzXzXzXzXzXzXzXzXzXzXzXzXzXzXzXzXzXw zXzXzXzXzXX +.;.g V.M.m.m.l.k.j.z +X%XOX-.a k p * zXzXzXzXzXzXzXzXzXzXzXzXzXzXzXzX",
"zXzXzXzXzXzXzXzXzXzXzXzXzXzXzXzXw u X zXzX* +.{ X zXzXq ' =.~.` m h.z n.z 3 a ..OX+XOX-.p k [ y zXzXzXzXzXzXzXzXzXzXzXzXzXzXzXzX",
"zXzXzXzXzXzXzXzXzXzXzXzXzXzXzX{ ;.=.$.w & X t =.{ w } XXoX;.oX=.` f d g.d -.%X*X$X$X8.$.{ s | } zXzXzXzXzXzXzXzXzXzXzXzXzXzXzXzX",
"zXzXzXzXzXzXzXzXzXzXzXzXzXzXy =.y y $.+XoX;.+.=.=.=.oX&X%.{ ) ' ' } [ 9.;X;X-X%X$X+XOX} 8.:.-.#.zXzXzXzXzXzXzXzXzXzXzXzXzXzXzXzX",
"zXzXzXzXzXzXzXzXzXzXzXzXzXzXX X   O y &X&XXX;.XX;.XXoXXXt 8.%X*X#.8.*X+X-X%X%X%X+XOX=.%.+X8.%.-.zXzXzXzXzXzXzXzXzXzXzXzXzXzXzXzX",
"zXzXzXzXzXzXzXzXzXzXzXzXzXzXzXq +.@.+.oXoX;.;.XX;.;.;.=.w } :.*X*X%X$X%X%X$X@XOX8.$.] XX8.&.] s   zXzXzXzXzXzXzXzXzXzXzXzXzXzXzX",
"zXzXzXzXzXzXzXzXzXzXzXzXzXzX& =.| | =.;.;.:.;.=.=.@.@._ t t *X;X-X*X@X+XOXXX+.' w r T E E / ~.).T zXzXzXzXzXzXzXzXzXzXzXzXzXzXzX",
"zXzXzXzXzXzXzXzXzXzXzXzXzXzXy #.* X y =.=.*.=.*.@.{ w . * *X*X-X-X@X+X:.| u Q.].].]././.!.W.Q.~ 6 zXzXzXzXzXzXzXzXzXzXzXzXzXzXzX",
"zXzXzXzXzXzXzXzXzXzXzXzXzXzXt u zXu $.@.+.$.+...] X w } 8.-X;X-X*X@X+X$.>.{.{.`.'.'.W.~.`.!.W.~ O zXzXzXzXzXzXzXzXzXzXzXzXzXzXzX",
"zXzXzXzXzXzXzXzXzXzXzXzXzXzXzXzXX +.' w & w q & zXy +X8.8.$X$X*X@X:.8.] /.`.`._./.!./  X}.`.!.Q.6 zXzXzXzXzXzXzXzXzXzXzXzXzXzXzX",
"zXzXzXzXzXzXzXzXzXzXzXzXzXzXzXzXO | q zXzXzXzXzXzX..-.% o -.%X$X@X:.#.* Q W R Q W Y ~.|.}.`.!.! Y zXzXzXzXzXzXzXzXzXzXzXzXzXzXzX",
"zXzXzXzXzXzXzXzXzXzXzXzXzXzXzXzXzX' q zXzXzXzXzXzX$.|   | %X+X+X).&.i R 8 6       O ).|.{.`.!.~ Y zXzXzXzXzXzXzXzXzXzXzXzXzXzXzX",
"zXzXzXzXzXzXzXzXzXzXzXzXzXzXzXzXzXX zXzXzXzXzXzXzX` w q +X| q -.%.R !.W.! $ zXzXzX9 .X|.{._.^.Q.Y zXzXzXzXzXzXzXzXzXzXzXzXzXzXzX",
"zXzXzXzXzXzXzXzXzXzXzXzXzXzXzXzXzXzXzXzXzXzXzXzXzXzXzXw 8.r T :.` W./.! Q zXzXzXzXE  X|.{.'.!.! 8 zXzXzXzXzXzXzXzXzXzXzXzXzXzXzX",
"zXzXzXzXzXzXzXzXzXzXzXzXzXzXzXzXzXzXzXzXzXzXzXzXzXzXzX% :.y 7 | ;.T R Q 6 zXzXzXzX/  X|.`.'.!.! 6 zXzXzXzXzXzXzXzXzXzXzXzXzXzXzX",
"zXzXzXzXzXzXzXzXzXzXzXzXzXzXzXzXzXzXzXzXzXzXzXzXzXzXzXzX' y u 0 | | 0 i 0 O zXzXzX~.}.].`.^.!.~ 6 zXzXzXzXzXzXzXzXzXzXzXzXzXzXzX",
"zXzXzXzXzXzXzXzXzXzXzXzXzXzXzXzXzXzXzXzXzXzXzXzXzXzXzXzXO   ) O.) 0 _ _ _ ) u 0 X % R 7 9 9 Q W $ zXzXzXzXzXzXzXzXzXzXzXzXzXzXzX",
"zXzXzXzXzXzXzXzXzXzXzXzXzXzXzXzXzXzXzXzXzXzXzXzXzXzXzXzXzXzX* O.*.*.O.O.O.O._ _ p 1Xr XXOX| q % O zXzXzXzXzXzXzXzXzXzXzXzXzXzXzX",
"zXzXzXzXzXzXzXzXzXzXzXzXzXzXzXzXzXzXzXzXzXzXzXzXzXzXzXzXzXzXzX .*.;.*.*.*.@.O.) ,X8X7.-X*X+XX.A > o : zXzXzXzXzXzXzXzXzXzXzXzXzX",
"zXzXzXzXzXzXzXzXzXzXzXzXzXzXzXzXzXzXzXzXzXzXzXzXzXzXzXzXzXzXzXzX_ *.*.*.*.@._ s wXw.-.-X-X%X-.1 x 1.,X: zXzXzXzXzXzXzXzXzXzXzXzX",
"zXzXzXzXzXzXzXzXzXzXzXzXzXzXzXzXzXzXzXzXzXzXzXzXzXzXzXzXzXzXzXzXzXzXzX0 i ) u <X8X5 <.;X-X*XOX` < <Xr.  zXzXzXzXzXzXzXzXzXzXzXzX",
"zXzXzXzXzXzXzXzXzXzXzXzXzXzXzXzXzXzXzXzXzXzXzXzXzXzXzXzXzXzXzXzXzXzXzXzXzXzXg wX,.n - $X-X%X@X%.1.8X,.zXzXzXzXzXzXzXzXzXzXzXzXzX",
"zXzXzXzXzXzXzXzXzXzXzXzXzXzXzXzXzXzXzXzXzXzXzXzXzXzXzXzXzXzXzXzXzXzXzXzXzXzXzXw.. 1.,Xo.-X*X$X8.s r.o zXzXzXzXzXzXzXzXzXzXzXzXzX",
"zXzXzXzXzXzXzXzXzXzXzXzXzXzXzXzXzXzXzXzXzXzXzXzXzXzXzXzXzXzXzXzXzXzXzXzXzXzXzX  t.7X7Xw.$X%X%X+X} e zXzXzXzXzXzXzXzXzXzXzXzXzXzX",
"zXzXzXzXzXzXzXzXzXzXzXzXzXzXzXzXzXzXzXzXzXzXzXzXzXzXzXzXzXzXzXzXzXzXzXzXzXzXzX,.wXwXeX,X8.+X8.oX#.% zXzXzXzXzXzXzXzXzXzXzXzXzXzX",
"zXzXzXzXzXzXzXzXzXzXzXzXzXzXzXzXzXzXzXzXzXzXzXzXzXzXzXzXzXzXzXzXzXzXzXzXzXzXo 5XrXrXwX8Xf q.e.e.e.w.p zXzXzXzXzXzXzXzXzXzXzXzXzX",
"zXzXzXzXzXzXzXzXzXzXzXzXzXzXzXzXzXzXzXzXzXzXzXzXzXzXzXzXzXzXzXzXzXzXzXzXzXzXp wXrXrXwX5Xe.kXgXhXjXgX,XzXzXzXzXzXzXzXzXzXzXzXzXzX",
"zXzXzXzXzXzXzXzXzXzXzXzXzXzXzXzXzXzXzXzXzXzXzXzXzXzXzXzXzXzXzXzXzXzXzXzXzXzXd 7Xr.2.f d = + 5 l F w.1.zXzXzXzXzXzXzXzXzXzXzXzXzX",
"zXzXzXzXzXzXzXzXzXzXzXzXzXzXzXzXzXzXzXzXzXzXzXzXzXzXzXzXzXzXzXzXzXzXzXzXzXzX= ,.,XiXhXgX7X6.n p.p.i.n + zXzXzXzXzXzXzXzXzXzXzXzX",
"zXzXzXzXzXzXzXzXzXzXzXzXzXzXzXzXzXzXzXzXzXzXzXzXzXzXzXzXzXzXzXzXzXzXzXzXzXzX,.pXhXhXhXhXgXpX,Xx p.p.a.2XzXzXzXzXzXzXzXzXzXzXzXzX",
"zXzXzXzXzXzXzXzXzXzXzXzXzXzXzXzXzXzXzXzXzXzXzXzXzXzXzXzXzXzXzXzXzXzXzXzXzXg wXhXhXhXhXhXaXsXtXw.c p.p.tXp zXzXzXzXzXzXzXzXzXzXzX",
"zXzXzXzXzXzXzXzXzXzXzXzXzXzXzXzXzXzXzXzXzXzXzXzXzXzXzXzXzXzXzXzXzXzXzXzXzX,XsXhXhXhXhXkXsXpXtXwXa i.p.E.2.zXzXzXzXzXzXzXzXzXzXzX",
"zXzXzXzXzXzXzXzXzXzXzXzXzXzXzXzXzXzXzXzXzXzXzXzXzXzXzXzXzXzXzXzXzXzXzXzX  rXpXsXaXaXpXpXpXpXwXwX,Xc i.i.l zXzXzXzXzXzXzXzXzXzXzX",
"zXzXzXzXzXzXzXzXzXzXzXzXzXzXzXzXzXzXzXzXzXzXzXzXzXzXzXzXzXzXzXzXzXzXzXzXO 8X7X7X7X8X7X8X5X5X5X5X<X3 c i., zXzXzXzXzXzXzXzXzXzXzX",
"zXzXzXzXzXzXzXzXzXzXzXzXzXzXzXzXzXzXzXzXzXzXzXzXzXzXzXzXzXzXzXzXzXzXzXzXf t.r.1X1Xt.t.r.r.r.r.r.r.e.e.w.u.. zXzXzXzXzXzXzXzXzXzX",
"zXzXzXzXzXzXzXzXzXzXzXzXzXzXzXzXzXzXzXzXzXzXzXzXzXzXzXzXzXzXzXzXzXzXzXzXL.tXgXhXaXiXpXpXpXpXpXpXpXpXpXwXeX. zXzXzXzXzXzXzXzXzXzX",
"zXzXzXzXzXzXzXzXzXzXzXzXzXzXzXzXzXzXzXzXzXzXzXzXzXzXzXzXzXzXzXzXzXzXzXzX: p d f d g g g p d d p g g d p p   zXzXzXzXzXzXzXzXzXzX"
};
