/* XPM */
static char *result[] = {
/* columns rows colors chars-per-pixel */
"64 96 229 2 ",
"   c #010102",
".  c #0B0505",
"X  c #050B0C",
"o  c #0B0B0B",
"O  c #01050D",
"+  c #140A0A",
"@  c #1A0D0D",
"#  c #160203",
"$  c #00091C",
"%  c #0A1313",
"&  c #0D1B1B",
"*  c #061616",
"=  c #131414",
"-  c #1D1212",
";  c #131C1C",
":  c #1C1A1A",
">  c #1F100E",
",  c #28080A",
"<  c #3A0B0D",
"1  c #241313",
"2  c #2A1616",
"3  c #2E1718",
"4  c #321919",
"5  c #3B1E1E",
"6  c #3F0B10",
"7  c #000C25",
"8  c #061430",
"9  c #0C2A2A",
"0  c #122323",
"q  c #162C2C",
"w  c #1A2B2B",
"e  c #1A3334",
"r  c #1D3B3B",
"t  c #153436",
"y  c #0E2D3B",
"u  c #272728",
"i  c #392626",
"p  c #223E3E",
"a  c #2B3B3A",
"s  c #3D3D3D",
"d  c #363332",
"f  c #2D302A",
"g  c #410708",
"h  c #560703",
"j  c #490D12",
"k  c #5A1317",
"l  c #4E170D",
"z  c #680101",
"x  c #6B141A",
"c  c #76171C",
"v  c #790000",
"b  c #67260B",
"n  c #551B22",
"m  c #432222",
"M  c #4A2626",
"N  c #4E2828",
"B  c #522A2A",
"V  c #5B2E2E",
"C  c #532225",
"Z  c #5F3030",
"A  c #453133",
"S  c #643232",
"D  c #6B3636",
"F  c #6F3838",
"G  c #743B3B",
"H  c #7B3E3E",
"J  c #75353C",
"K  c #69262B",
"L  c #60261C",
"P  c #44403A",
"I  c #011E5A",
"U  c #071E40",
"Y  c #1B3845",
"T  c #0A2352",
"R  c #132649",
"E  c #223853",
"W  c #00236B",
"Q  c #01297C",
"!  c #002877",
"~  c #183976",
"^  c #203662",
"/  c #6F3D41",
"(  c #1B4444",
")  c #185858",
"_  c #0F4747",
"`  c #234444",
"'  c #254A4A",
"]  c #284D4D",
"[  c #2C4343",
"{  c #255353",
"}  c #2B5454",
"|  c #2C5A5A",
" . c #235A5A",
".. c #315E5E",
"X. c #375555",
"o. c #2E474B",
"O. c #30516E",
"+. c #1E6565",
"@. c #236C6C",
"#. c #286767",
"$. c #336262",
"%. c #346A6A",
"&. c #396D6D",
"*. c #3C6666",
"=. c #287474",
"-. c #337575",
";. c #3C7575",
":. c #357B7B",
">. c #3E7B7B",
",. c #4C4B4B",
"<. c #444444",
"1. c #545454",
"2. c #5A5A5A",
"3. c #505051",
"4. c #7E4040",
"5. c #77454A",
"6. c #65595C",
"7. c #725052",
"8. c #4B5D60",
"9. c #436B6C",
"0. c #417D7D",
"q. c #497272",
"w. c #577B7B",
"e. c #696969",
"r. c #787878",
"t. c #766968",
"y. c #890000",
"u. c #970301",
"i. c #89120B",
"p. c #A80900",
"a. c #BA0202",
"s. c #9C3807",
"d. c #922E0E",
"f. c #AE3C0B",
"g. c #871821",
"h. c #991B26",
"j. c #A71E2A",
"k. c #B2202D",
"l. c #B9212F",
"z. c #B82826",
"x. c #BF2230",
"c. c #AE323E",
"v. c #9A3535",
"b. c #C32331",
"n. c #CC2434",
"m. c #D32E2C",
"M. c #E43E22",
"N. c #DF4B10",
"B. c #B23745",
"V. c #CF3D4B",
"C. c #834243",
"Z. c #894646",
"A. c #8E4848",
"S. c #86424C",
"D. c #934C4C",
"F. c #9A4F4F",
"G. c #9C5050",
"H. c #984753",
"J. c #AE4A56",
"K. c #8C6D6A",
"L. c #DC4656",
"P. c #C64B54",
"I. c #E04E5D",
"U. c #D75866",
"Y. c #E15665",
"T. c #E46371",
"R. c #CC7171",
"E. c #93857D",
"W. c #032D81",
"Q. c #083899",
"!. c #09358E",
"~. c #083BA2",
"^. c #134CBD",
"/. c #1145AE",
"(. c #2A58B5",
"). c #234997",
"_. c #1550C8",
"`. c #1B5AD9",
"'. c #134EC6",
"]. c #3769CB",
"[. c #386BD2",
"{. c #1E5FE1",
"}. c #276BF6",
"|. c #3273F6",
" X c #3A8383",
".X c #3D8888",
"XX c #438484",
"oX c #468A8A",
"OX c #498E8E",
"+X c #4C9393",
"@X c #4F9999",
"#X c #429292",
"$X c #519D9D",
"%X c #5A8B8B",
"&X c #6F8D8D",
"*X c #55A3A3",
"=X c #58A7A7",
"-X c #5AABAB",
";X c #858585",
":X c #8A8A8A",
">X c #9B9B9B",
",X c #959595",
"<X c #919591",
"1X c #A59A92",
"2X c #93A9A9",
"3X c #A3A3A3",
"4X c #ACABAA",
"5X c #B4B4B4",
"6X c #BABABA",
"7X c #A4B6B6",
"8X c #C5BCAC",
"9X c #B7C5C5",
"0X c #C4C4C4",
"qX c #CBCBCB",
"wX c #C3CCCB",
"eX c #CBD5D5",
"rX c #D2D2D2",
"tX c #DCDCDC",
"yX c #E2DAC7",
"uX c #F5ECD8",
"iX c #DDE3E3",
"pX c #E5E5E5",
"aX c #ECECEC",
"sX c #E4E9E9",
"dX c #FEF7E7",
"fX c #F3F3F3",
"gX c #FDFDFD",
"hX c #FEFCF5",
"jX c None",
/* pixels */
"jXjXjXjXjXjXjXjXjXjXjXjXjXjXjXjXjXjXjXjXjXjXjXjXjXjXjXjXjXjXjXjXjXjXjXjXjXjXjXjXjXjXjXjXjXjXjXjXjXjXjXjXjXjXjXjXjXjXjXjXjXjXjXjX",
"jXjXjXjXjXjXjXjXjXjXjXjXjXjXjXjXjXjXjXjXjXjXjXjXjXjXjXjXjXjXjXjXjXjXjXjXjXjXjXjXjXjXjXjXjXjXjXjXjXjXjXjXjXjXjXjXjXjXjXjXjXjXjXjX",
"jXjXjXjXjXjXjXjXjXjXjXjXjXjXjXjXjXjXjXjXjXjXjXjXjXjXjXjXjXjXjXjXjXjXjXjXjXjXjXjXjXjXjXjXjXjXjXjXjXjXjXjXjXjXjXjXjXjXjXjXjXjXjXjX",
"jXjXjXjXjXjXjXjXjXjXjXjXjXjXjXjXjXjXjXjXjXjXjXjXjXjXjXjXjXjXjXjXjXjXjXjXjXjXjXjXjXjXjXjXjXjXjXjXjXjXjXjXjXjXjXjXjXjXjXjXjXjXjXjX",
"jXjXjXjXjXjXjXjXjXjXjXjXjXjXjXjXjXjXjXjXjXjXjXjXjXjXjXjXjXjXjXjXjXjXjXjX  jXjXjXjXjXjXjXjXjXjXjXjXjXjXjXjXjXjXjXjXjXjXjXjXjXjXjX",
"jXjXjXjXjXjXjXjXjXjXjXjXjXjXjXjXjXjXjXjXjXjXjXjXjXjXjXjXjXjXjXjXjXjXjXjX  jXjXjXjXjXjXjXjXjXjXjXjXjXjXjXjXjXjXjXjXjXjXjXjXjXjXjX",
"jXjXjXjXjXjXjXjXjXjXjXjXjXjXjXjXjXjXjXjXjXjXjXjXjXjXjXjXjXjXjXjXjXjXjXjX@ o jXjXjXjXjXjXjXjXjXjXjXjXjXjXjXjXjXjXjXjXjXjXjXjXjXjX",
"jXjXjXjXjXjXjXjXjXjXjXjXjXjXjXjXjXjXjXjX                    jXjXjXjXjXjX+ 5 jXjXjXjXjXjXjXjXjXjXjXjXjXjXjXjXjXjXjXjXjXjXjXjXjXjX",
"jXjXjXjXjXjXjXjXjXjXjXjXjXjXjX  , 5 B S G C.A.D.F.D.A.Z.4.D V m 2 . jXjX. D 1 jXjXjXjXjXjXjXjXjXjXjXjXjXjXjXjXjXjXjXjXjXjXjXjXjX",
"jXjXjXjXjXjXjXjXjXjXjXjX  1 V 4.A.D.D.A.Z.Z.Z.C.C.C.C.Z.Z.Z.A.F.D.C.S 3   Z V   jXjXjXjXjXjXjXjXjXjXjXjXjXjXjXjXjXjXjXjXjXjXjXjX",
"jXjXjXjXjXjXjXjXjXjX@ M 4.D.A.C.C.G C.G 4.C.4.C.4.C.4.4.4.H H H 4.C.Z.D.C.D G m 2 2 2 2 +     jXjXjXjXjXjXjXjXjXjXjXjXjXjXjXjXjX",
"jXjXjXjXjXjXjXjXjX. D Z.4.H H H H H H C.4.C.C.C.C.C.C.C.4.4.H H H G G G C.G F Z.C.H S 5 + jXjXjXjXjXjXjXjXjXjXjXjXjXjXjXjXjXjXjX",
"jXjXjXjXjXjXjXjXjX  3 S G G H H C.H C.C.C.C.C.Z.Z.C.C.C.4.4.4.H H G G G G F F F S i +   jXjXjXjXjXjXjXjXjXjXjXjXjXjXjXjXjXjXjXjX",
"jXjXjXjXjX  . 2 m Z G C.4.G H H G C.H C.C.C.C.C.C.C.C.C.4.4.4.H H G G G G F F D D D N @ jXjXjXjXjXjXjXjXjXjXjXjXjXjXjXjXjXjXjXjX",
"jXjXjXjXjXjX+ N V V S D G G G H C.H C.C.4.C.C.C.C.4.C.C.4.4.4.G G G G G G G H A.A.A.C.A.B . jXjXjXjXjXjXjXjXjXjXjXjXjXjXjXjXjXjX",
"jXjXjXjXjXjXjX. N H D.G.F.D.D.A.Z.C.4.C.Z.C.C.C.C.C.4.C.C.C.Z.C.A.D.D.F.D.D C.G.G.F.D @       jXjXjXjXjXjXjXjXjXjXjXjXjXjXjXjXjX",
"jXjXjXjX  1 M H D.G.G.G.G.G.G.G.G.G.G.G.G.G.G.G.F.A.G.G.G.G.G.D.Z.F.F.D.S B A.F.F.Z.G 5   jXjXjXjXjXjXjXjXjXjXjXjXjXjXjXjXjXjXjX",
"jXjX  . M S S S D 4.A.D.G.G.G.G.G.G.G.G.G.G.G.G.Z.S D.G.G.G.D.Z G F.Z.V B B H G D S D Z 1 jXjXjXjXjXjXjXjXjXjXjXjXjXjXjXjXjXjXjX",
"jXjXjX    1 B C.D.C.D D G H C.4.D.F.G.G.G.A.G.G.Z B G G.G.A.Z B F G V N B B V S S S S D V   jXjXjXjXjXjXjXjXjXjXjXjXjXjXjXjXjXjX",
"jXjX  . Z F G G D D D D D D D V S F F G S Z 4.G B B V G G V B B B B B 5 M B V S S S S S D 1 jXjXjXjXjXjXjXjXjXjXjXjXjXjXjXjXjXjX",
"jXjXjXjX+ M B V S S D V S D Z N V D D V B B D B B B B V B B B B B B 4 + B N V D S S S S D 5 jXjXjXjXjXjXjXjXjXjXjXjXjXjXjXjXjXjX",
"jXjXjXjX. 2 D C.C.D Z N V S B B B S V B B B V B B N N B B B m N B 2 X 1 @ M V Z B Z S S S B . jXjXjXjXjXjXjXjXjXjXjXjXjXjXjXjXjX",
"jX  . m D G F D S S B B B B M m B B B B B B B B m + N B M - + B 1 ` q o . B B B B S S S S Z @ jXjXjXjXjXjXjXjXjXjXjXjXjXjXjXjXjX",
"jXjX  + 5 N B S S Z B N B N - 1 B B N 1 > B N 1 e e m 4 ; } - > $.0.` ;.1 B B B B S S S Z S 1 jXjXjXjXjXjXjXjXjXjXjXjXjXjXjXjXjX",
"jXjXjXjX  . V F S B N @ N 1 r - B 5 = } = M - } $X| . p +X$.X %.$X@X@X&.4 B N m B Z S Z S S 1 jXjXjXjXjXjXjXjXjXjXjXjXjXjXjXjXjX",
"jXjXjXjXjX@ G Z V M 1 0 > ` +X= - p +X*X0 ; 0.=X=XOX0.*X*XX.;.$X$X$X$X} 5 2 o 2 B B Z B Z D 3 jXjXjXjXjXjXjXjXjXjXjXjXjXjXjXjXjX",
"jXjXjXjXjXm Z B B 1 } ;.q @X$X[ >.$X*X*X&.@X=X=X-X-X-X=X*X$X*X*X$X$X$Xq 0 ] ` 3 B B V B S S 1 jXjXjXjXjXjXjXjXjXjXjXjXjXjXjXjXjX",
"jXjXjXjX  B 5 M N u $X+X+X$X$X*X*X*X*X=X=X=X=X-X-X-X-X-X-X*X*X*X*X$X+X] q.;.p i B B N B S D 1 jXjXjXjXjXjXjXjXjXjXjXjXjXjXjXjXjX",
"jXjXjXjX. o   4 N p $X$X$X$X$X$X*X*X*X=X=X-X-X-X-X-X-X-X-X-X*X*X$X$X$.] ] %.p m N B B V S S 1 jXjXjXjXjXjXjXjXjXjXjXjXjXjXjXjXjX",
"jXjXjXjXjXjXjX@ B [ $X@X..oX*X*X*X*X*X=X=X-X-X-X-X-X-X-X-X-X=X*X%.XX..] ] -.w M 3 B B B B S + jXjXjXjXjXjXjXjXjXjXjXjXjXjXjXjXjX",
"jXjXjXjXjXjXjX. N o.OX0...XX$X=X-X=X=X=X=X=X-X-X-X-X-X-X-X-X-X*X@X$XXX} ..OXu 4 . B B B B M + jXjXjXjXjXjXjXjXjXjXjXjXjXjXjXjXjX",
"jXjXjXjXjXjXjX  m X.%.} oX$X=X-X-X-X*X=X=X=X=X-X-X-X-X-X-X-X+X0.;.q.XX+X@X+X; = % M B B B m . jXjXjXjXjXjXjXjXjXjXjXjXjXjXjXjXjX",
"jXjXjXjXjXjXjXjX3 X.*.} +X*X-X-X-X=X*X=X*X*X=X=X=X-X-X=X+X&.q.<X2Xq.$.%.oXXX% } 0 M B 4 . .   jXjXjXjXjXjXjXjXjXjXjXjXjXjXjXjXjX",
"jXjXjXjXjXjXjXjX+ *.+X0.+X$X*X$X-X=X*X*X*X*X*X=X=X=X=X+Xq.9XgXgXgXhXwXq.$.$.` XXw m M         jXjXjXjXjXjXjXjXjXjXjXjXjXjXjXjXjX",
"jXjXjXjXjXjXjX. o *.*X+XOXXXoX$X*X*X*X@X$.XX*X*X*X*X$X9.9XgXfXgXgXgXgXeX*.] 0.OXe 5 5 0 %.;.&.p X jXjXjXjXjXjXjXjXjXjXjXjXjXjXjX",
"jXjXjXjXjXjX& &.p } =XOX*.&X2X%X@X@X$X@X$.XX$X*X$X*XXX%XgXsXaXgXgXgXgXgX&X..0.+X' 5 1 ' oXoXOX$X0.& jXjXjXjXjXjXjXjXjXjXjXjXjXjX",
"jXjXjXjXjX% 0.+X$.' $X&.2XfXgXsX%X*XOX+X@X*X*X*X$X$X;.7XfXpXpXgXgXgXgXgX9X$.%.+X..3 + %.XXXXXXoX+X;.X jXjXjXjXjXjXjXjXjXjXjXjXjX",
"jXjXjXjX  | +XoX%.` OX9.sXaXgXgX7X@XOX@X$X$X@X$X$X$X&.9XaXpXpXaXgXgXgXgXtX..$.@X%.- o ;.;.>.;. XXX+X` jXjXjXjXjXjXjXjXjXjXjXjXjX",
"jXjXjXjX  +XoXXX$.[ 0.w.aXaXgXgXiXOX@X@X@X@X@X@X@X+X*.7XfXsXpXpXpXaXgXgX9X..$.$X;.o & ;.;.;.;.;.XXOX;.  jXjXjXjXjXjXjXjXjXjXjXjX",
"jXjXjXjX& +XoX>.| ] 0.w.aXsXaXhXiXOX@X@X@X@X@X@X@X+X&.&XfXhXfXsXpXfXgXgX&X$.&.+X>.X e ;.;.;.;.;.XXoX0.  jXjXjXjXjXjXjXjXjXjXjXjX",
"jXjXjXjX0 OXoX>.' ..0.9.aXaXsXgX9XoX+X+X+X@X@X+X+X@X0.$.wXgXfXaXfXgXgXeX*.$.>.+X>.X ` ;.;.>.;.;.XXoX;.  jXjXjXjXjXjXjXjXjXjXjXjX",
"jXjXjXjXX OXoXXXe &.XX$.9XhXhXhX%XOX+X+X+X+X+X+X+X+XOX%.q.9XgXgXgXgXeXq.$.$.OXoX;.& | >.;.;.;.>.oXoX$.  jXjXjXjXjXjXjXjXjXjXjXjX",
"jXjXjXjX  %.oXoX; XXOX%...7X9X&Xq.+XOX+X+X+X+X+X+X+XOXoX$.$.w.2X2Xw.$...$.XX+XXX;.q ;.;.>.;.>.>.oXXXq jXjXjXjXjXjXjXjXjXjXjXjXjX",
"jXjXjXjXjX& >.oX& XXoXoX$.$.$.&.OXOXOXOXOXOX+X#XOX+XOXOXoX$.........$.$.XX+XXX$.;.' ;.;.;.;.>.XXoX'   jXjXjXjXjXjXjXjXjXjXjXjXjX",
"jXjXjXjXjX  q >.e %.oX0.@X).XXOXoXOXoXOXOXOXOXOXoXOXOXOXoX+XXX&.&.;.0.+X+XXX;.| ;.%.;.;.>.XXoXXX'   jXjXjXjXjXjXjXjXjXjXjXjXjXjX",
"jXjXjXjXjXjXjX% e 0 >.| OXoXoXoXoXoXoX;.%.$.8.8.8.8.&.XXOXoXoXOX+XOXoXXXXX;.;.;.;.;.} % r ` e %   jXjXjXjXjXjXjXjXjXjXjXjXjXjXjX",
"jXjXjXjXjXjXjXjXjX  o } $.XXoXoXXX&...6.S./ 5.t.;XK.5./ 6.q.oXoXXXXX| ] $.$.;.>.&.e . jXjXjXjXjXjXjXjXjXjXjXjXjXjXjXjXjXjXjXjXjX",
"jXjXjXjXjXjXjXjXjXjXjXX 0 ..;.q.$.8.D K.8XuXhXdXgXdXuX<X5.H.8.q.0.;...} ;.&.} q + 6 x , jXjXjXjXjXjXjXjXjXjXjXjXjXjXjXjXjXjXjXjX",
"jXjXjXjXjXjXjXjXjXjXjXjXjX  X q ,.B.<XhXdXdXhXdXgXdXdXhX8XB.L.6...$.] e = , g c h.g.x x # jXjXjXjXjXjXjXjXjXjXjXjXjXjXjXjXjXjXjX",
"jXjXjXjXjXjXjXjXjXjXjXjXjXjXjXjX  + A <X1XE.1XyXgXhXyXK.f K C 2 % , j c h.j.j.j.x l l , # jXjXjXjXjXjXjXjXjXjXjXjXjXjXjXjXjXjXjX",
"jXjXjXjXjXjXjXjXjXjXjXjXjXjXjXjXjXjXjXn V.L.c.E.3XK.5.c.. b c s.n.n.b.x.l.k.j.x s.z.h.g.k . jXjXjXjXjXjXjXjXjXjXjXjXjXjXjXjXjXjX",
"jXjXjXjXjXjXjXjXjXjXjXjXjXjXjXjXjXjXjXK L.L.L.c.P.L.L.P.l N.h.s.m.n.b.l.l.k.j.l m.k.j.h.x < jXjXjXjXjXjXjXjXjXjXjXjXjXjXjXjXjXjX",
"jXjXjXjXjXjXjXjXjXjXjXjXjXjXjXjXjXjXjXB I.I.I.L.L.L.I.J.s.b.h.s.n.n.n.b.k.k.g.s.b.k.j.h.c j . jXjXjXjXjXjXjXjXjXjXjXjXjXjXjXjXjX",
"jXjXjXjXjXjXjXjXjXjXjXjXjXjXjXjXjXjXjXjXJ.Y.I.Y.I.I.Y.C f.b.h.s.m.n.n.b.l.k.x f.b.h.h.h.x j . jXjXjXjXjXjXjXjXjXjXjXjXjXjXjXjXjX",
"jXjXjXjXjXjXjXjXjXjXjXjXjXjXjXjXjXjXjXjXjXJ.T.T.T.U.G . < k 2 b m.n.n.x.l.k.< , m u w j < g , jXjXjXjXjXjXjXjXjXjXjXjXjXjXjXjXjX",
"jXjXjXjXjXjXjXjXjXjXjXjXjXjXjXjXjXjXjXjXjXjXS G J N jXjX  ;.=.L M.n.n.x.k.j.g.j +X+XoXw w # < jXjXjXjXjXjXjXjXjXjXjXjXjXjXjXjXjX",
"jXjXjXjXjXjXjXjXjXjXjXjXjXjXjXjXjXjXjXjXjXX & jXjXjXjXjXX %.-.f N.n.x.b.k.l.j.x =X$XoX>.d g 1 . jXjXjXjXjXjXjXjXjXjXjXjXjXjXjXjX",
"jXjXjXjXjXjXjXjXjXjXjXjXjXjXjXjXjXjXjXjXjX0 %.e jXjXjX* | :.:.e b d.c b.k n j i 0.OXXX;.i k Y & jXjXjXjXjXjXjXjXjXjXjXjXjXjXjXjX",
"jXjXjXjXjXjXjXjXjXjXjXjXjXjXjXe #.%.(       ( :.r q | .X.X:. X| o.a N j.u Y ;.$X+X+X X&.r : ..r jXjXjXjXjXjXjXjXjXjXjXjXjXjXjXjX",
"jXjXjXjXjXjXjXjXjXjXjXjXjXjXt -.| | :.%.%.#.} -.-.-.#X#X.X:.-.@.*.>.a A &.*X*X@X+XOXXX} &.%.&.' jXjXjXjXjXjXjXjXjXjXjXjXjXjXjXjX",
"jXjXjXjXjXjXjXjXjXjXjXjXjXjXe r X % ] #X#X X-. X:. X X X| ( ( ' ' ] &.+X=X*X$X@XOXoX>.$.oX0.;.| jXjXjXjXjXjXjXjXjXjXjXjXjXjXjXjX",
"jXjXjXjXjXjXjXjXjXjXjXjXjXjXjXX r ( { .X.X:. X X:.:.:.-.t q.OX@XXXoX@X+X$X@X+XOXXX>.| >.oX;.%.X.jXjXjXjXjXjXjXjXjXjXjXjXjXjXjXjX",
"jXjXjXjXjXjXjXjXjXjXjXjXjXjXjX .-.:. X X X:.:.:.-.=.@. .& ` ;.$X$X$XOX+X+XoXXX$.p w w Y r Y Y E X jXjXjXjXjXjXjXjXjXjXjXjXjXjXjX",
"jXjXjXjXjXjXjXjXjXjXjXjXjXjXq %.e 0 { -.-.-.-.=.%.{ t X jXe $X*X=X+XOXXX X$.E ~ [.].].[.[.(.(.Q.O jXjXjXjXjXjXjXjXjXjXjXjXjXjXjX",
"jXjXjXjXjXjXjXjXjXjXjXjXjXjX( |   % { %.%.%.%.#.| & jXjXX oX*X$X*X@XoX:.' ~ ^._._.^.Q.~._.Q.Q W   jXjXjXjXjXjXjXjXjXjXjXjXjXjXjX",
"jXjXjXjXjXjXjXjXjXjXjXjXjXjX% X jX ...' r ` ( q   jX0 | 0.*X*X=X@XOXoX&.~ {.`._.'.Q.^ |.{._.!.I jXjXjXjXjXjXjXjXjXjXjXjXjXjXjXjX",
"jXjXjXjXjXjXjXjXjXjXjXjXjXjXjXjXjX| q jXjXjXjXjXjX& XX>.;.+XOX$X+X;.>.] I Q Q W.W.I ].}.{._.~.Q 7 jXjXjXjXjXjXjXjXjXjXjXjXjXjXjX",
"jXjXjXjXjXjXjXjXjXjXjXjXjXjXjXjXjX) e jXjXjXjXjXjX` XXq   [ @X+XOX0.%.$ 7 O     . & |.}.{._.~.Q 7 jXjXjXjXjXjXjXjXjXjXjXjXjXjXjX",
"jXjXjXjXjXjXjXjXjXjXjXjXjXjXjXjXjX& % jXjXjXjXjXjX` XXO r +XXXXXXX..y ! W jXjXjXjXR |.}.{._.~.! 7 jXjXjXjXjXjXjXjXjXjXjXjXjXjXjX",
"jXjXjXjXjXjXjXjXjXjXjXjXjXjXjXjXjXjXjXjXjXjXjXjXjXw }   >.&.t r >.R !.Q 8 jXjXjXjX^ |.}.{._.~.Q 7 jXjXjXjXjXjXjXjXjXjXjXjXjXjXjX",
"jXjXjXjXjXjXjXjXjXjXjXjXjXjXjXjXjXjXjXjXjXjXjXjXjXjXjXjX;.] 8 ` ;.T W.! 7 jXjXjXjXO.|.}.`.'.Q.Q 7 jXjXjXjXjXjXjXjXjXjXjXjXjXjXjX",
"jXjXjXjXjXjXjXjXjXjXjXjXjXjXjXjXjXjXjXjXjXjXjXjXjXjXjXjX' ;.9 0 >.&.U I jXjXjXjXjX).}.}.`.'.Q.Q 7 jXjXjXjXjXjXjXjXjXjXjXjXjXjXjX",
"jXjXjXjXjXjXjXjXjXjXjXjXjXjXjXjXjXjXjXjXjXjXjXjXjXjXjXjXX $.t ) 9 | y 8 jXjXjXjXjXR ).T T T W.W $ jXjXjXjXjXjXjXjXjXjXjXjXjXjXjX",
"jXjXjXjXjXjXjXjXjXjXjXjXjXjXjXjXjXjXjXjXjXjXjXjXjXjXjXjXjX  ) =.+._ 9   jXjXjXjXjX  * %.;.$.e O O jXjXjXjXjXjXjXjXjXjXjXjXjXjXjX",
"jXjXjXjXjXjXjXjXjXjXjXjXjXjXjXjXjXjXjXjXjXjXjXjXjXjXjXjXjXjX=.=.=.@.) 9 jXjXjXjXjXjXq @X$X+X;.e   jXjXjXjXjXjXjXjXjXjXjXjXjXjXjX",
"jXjXjXjXjXjXjXjXjXjXjXjXjXjXjXjXjXjXjXjXjXjXjXjXjXjXjXjXjXjX+.:.=.+.+._ * jXjXjXjXjXjX=X*X$X+X;.& jXjXjXjXjXjXjXjXjXjXjXjXjXjXjX",
"jXjXjXjXjXjXjXjXjXjXjXjXjXjXjXjXjXjXjXjXjXjXjXjXjXjXjXjXjXjX9 @.=.@.@.) _ X jXjXjXjXjX=X=X*X+XoX%.& jXjXjXjXjXjXjXjXjXjXjXjXjXjX",
"jXjXjXjXjXjXjXjXjXjXjXjXjXjXjXjXjXjXjXjXjXjXjXjXjXjXjXjXjXjXjXX #.=.@.@.) _ X jXjXjXjX} =X=X$X$XXX} jXjXjXjXjXjXjXjXjXjXjXjXjXjX",
"jXjXjXjXjXjXjXjXjXjXjXjXjXjXjXjXjXjXjXjXjXjXjXjXjXjXjXjXjXjXjXjX* #.@.) +.9 u X jXjXjXjXe $X*X@XOX0.` jXjXjXjXjXjXjXjXjXjXjXjXjX",
"jXjXjXjXjXjXjXjXjXjXjXjXjXjXjXjXjXjXjXjXjXjXjXjXjXjXjXjXjXjXjXjXjX9 @.( o.>XqX:XjXjXjXjXjX' @X+X+X>.' s A jXjXjXjXjXjXjXjXjXjXjX",
"jXjXjXjXjXjXjXjXjXjXjXjXjXjXjXjXjXjXjXjXjXjXjXjXjXjXjXjXjXjXjXjXjXjX; e.wX0Xr.d # + jXjXjXjX$.OXp 2.4XfXtX: jXjXjXjXjXjXjXjXjXjX",
"jXjXjXjXjXjXjXjXjXjXjXjXjXjXjXjXjXjXjXjXjXjXjXjXjXjXjXjXjXjXjXjXjXjX;X0Xe.j z u.u.K.2.jXjXjXjX3.qXhXrX<X6.1   jXjXjXjXjXjXjXjXjX",
"jXjXjXjXjXjXjXjXjXjXjXjXjXjXjXjXjXjXjXjXjXjXjXjXjXjXjXjXjXjXjXjXjXjX1.i h v y.y.y.v.1X/ jXjXjX3X4X7.L i.p.p.K.A jXjXjXjXjXjXjXjX",
"jXjXjXjXjXjXjXjXjXjXjXjXjXjXjXjXjXjXjXjXjXjXjXjXjXjXjXjXjXjXjXjXjXX f ,.3.A g z y.y.i.K # jXjX= o h p.a.a.a.U.qX2 jXjXjXjXjXjXjX",
"jXjXjXjXjXjXjXjXjXjXjXjXjXjXjXjXjXjXjXjXjXjXjXjXjXjXjXjXjXjXjXjXu :X0X0X6X4X;X,.j v v z # f ;X5X5X<X6.k u.a.a.R.7.jXjXjXjXjXjXjX",
"jXjXjXjXjXjXjXjXjXjXjXjXjXjXjXjXjXjXjXjXjXjXjXjXjXjXjXjXjXjXjX: 5XrXrXqX6X6X4X3Xr.5 g , ,.tXgXgXfXpXtX4XA y.a.p.u.# jXjXjXjXjXjX",
"jXjXjXjXjXjXjXjXjXjXjXjXjXjXjXjXjXjXjXjXjXjXjXjXjXjXjXjXjXjXo ,XrXrXrXqX6X6X4X>XK.[ 1.E aXgXgXgXdXpXpXrXqX,.z y.h i : jXjXjXjXjX",
"jXjXjXjXjXjXjXjXjXjXjXjXjXjXjXjXjXjXjXjXjXjXjXjXjXjXjXjXjXjXd qXrXrXrX0X6X6X>X1.3.>X6.4XgXgXgXgXaXpXpXqXqX,Xu 3.,X0X2.jXjXjXjXjX",
"jXjXjXjXjXjXjXjXjXjXjXjXjXjXjXjXjXjXjXjXjXjXjXjXjXjXjXjXjXjX2.rXrXrXqX6X5Xr.s ;X6X>X,.aXgXgXgXfXsXpX0X<X3.e.0XpXrXr.u jXjXjXjXjX",
"jXjXjXjXjXjXjXjXjXjXjXjXjXjXjXjXjXjXjXjXjXjXjXjXjXjXjXjXjXjXe.0XqX0X6X3X,.2.3X6Xr.u 1.aXgXgXaXpXtX;X3.r.qXpXrX;Xs jXjXjXjXjXjXjX",
"jXjXjXjXjXjXjXjXjXjXjXjXjXjXjXjXjXjXjXjXjXjXjXjXjXjXjXjXjXjXe.6X6X4Xe.s 3X6X,Xs jXjXe.pXpXpX0X;X<.,XpXpX0Xe.- jXjXjXjXjXjXjXjXjX",
"jXjXjXjXjXjXjXjXjXjXjXjXjXjXjXjXjXjXjXjXjXjXjXjXjXjXjXjXjXjX,.6X:X<.:X6X5X1.= jXjXjX3.pX6X2.2.5XiXiX5X,.% jXjXjXjXjXjXjXjXjXjXjX",
"jXjXjXjXjXjXjXjXjXjXjXjXjXjXjXjXjXjXjXjXjXjXjXjXjXjXjXjXjXjX= ,.1.0XqX;Xu jXjXjXjXjX= 2.e.tXhXtX3X<.  jXjXjXjXjXjXjXjXjXjXjXjXjX",
"jXjXjXjXjXjXjXjXjXjXjXjXjXjXjXjXjXjXjXjXjXjXjXjXjXjXjXjXjXjXX t.5X5X1.jXjXjXjXjXjXjX= 6XpXaX,Xu jXjXjXjXjXjXjXjXjXjXjXjXjXjXjXjX",
"jXjXjXjXjXjXjXjXjXjXjXjXjXjXjXjXjXjXjXjXjXjXjXjXjXjXjXjXjXjXjXd ,.o jXjXjXjXjXjXjXjXjXe.1.= jXjXjXjXjXjXjXjXjXjXjXjXjXjXjXjXjXjX",
"jXjXjXjXjXjXjXjXjXjXjXjXjXjXjXjXjXjXjXjXjXjXjXjXjXjXjXjXjXjXjX  jXjXjXjXjXjXjXjXjXjXjX. jXjXjXjXjXjXjXjXjXjXjXjXjXjXjXjXjXjXjXjX"
};
