/* XPM */
static char *result[] = {
/* columns rows colors chars-per-pixel */
"64 96 237 2 ",
"   c #020202",
".  c #0B0505",
"X  c #050B0B",
"o  c #0C0C0C",
"O  c #00040B",
"+  c #130B0B",
"@  c #1B0E0D",
"#  c #190506",
"$  c #000715",
"%  c #0A1313",
"&  c #0E1C1C",
"*  c #061617",
"=  c #151313",
"-  c #1C1212",
";  c #121C1C",
":  c #1C1B1B",
">  c #190F10",
",  c #280707",
"<  c #38080A",
"1  c #231213",
"2  c #2B1516",
"3  c #281A1A",
"4  c #331A1A",
"5  c #3B1E1E",
"6  c #391415",
"7  c #2D0F13",
"8  c #041839",
"9  c #051226",
"0  c #0B2424",
"q  c #122323",
"w  c #152B2B",
"e  c #182629",
"r  c #0B3535",
"t  c #1B3434",
"y  c #1D3B3C",
"u  c #163235",
"i  c #172D30",
"p  c #242424",
"a  c #292C2D",
"s  c #3A2525",
"d  c #253939",
"f  c #363737",
"g  c #302E30",
"h  c #31271B",
"j  c #4A0E13",
"k  c #520F14",
"l  c #5A1717",
"z  c #4C0905",
"x  c #680905",
"c  c #770101",
"v  c #681318",
"b  c #76151D",
"n  c #661106",
"m  c #5C2C16",
"M  c #6E290E",
"N  c #4E1B21",
"B  c #741820",
"V  c #442323",
"C  c #4B2626",
"Z  c #4E2828",
"A  c #532A2A",
"S  c #5A2E2E",
"D  c #5B2228",
"F  c #5E3030",
"G  c #483A3B",
"H  c #643232",
"J  c #6B3636",
"K  c #6F3838",
"L  c #743A3A",
"P  c #7B3E3E",
"I  c #743138",
"U  c #712F30",
"Y  c #59413D",
"T  c #001B51",
"R  c #1C3844",
"E  c #122951",
"W  c #00297C",
"Q  c #002673",
"!  c #05286D",
"~  c #243E73",
"^  c #753E44",
"/  c #1A4747",
"(  c #185656",
")  c #234444",
"_  c #244B4B",
"`  c #294E4D",
"'  c #2C4445",
"]  c #2A5253",
"[  c #2D5B5B",
"{  c #255757",
"}  c #315E5E",
"|  c #355454",
" . c #334848",
".. c #1E6464",
"X. c #236C6C",
"o. c #2B6868",
"O. c #336262",
"+. c #356B6B",
"@. c #396D6D",
"#. c #3A6565",
"$. c #297575",
"%. c #327474",
"&. c #3C7575",
"*. c #357B7B",
"=. c #3D7B7B",
"-. c #464646",
";. c #585758",
":. c #4E5354",
">. c #7F4040",
",. c #6B5452",
"<. c #466C6C",
"1. c #5B6262",
"2. c #407D7D",
"3. c #4B7373",
"4. c #527777",
"5. c #416F70",
"6. c #6C6C6C",
"7. c #626464",
"8. c #757575",
"9. c #7C7C7C",
"0. c #7E7675",
"q. c #6C7070",
"w. c #475E60",
"e. c #8D0202",
"r. c #820000",
"t. c #970101",
"y. c #AA0404",
"u. c #BB0400",
"i. c #A81000",
"p. c #893205",
"a. c #8C2E0B",
"s. c #8A1A23",
"d. c #961B26",
"f. c #A41E29",
"g. c #AB1F2B",
"h. c #B3202D",
"j. c #B9212F",
"k. c #B52C21",
"l. c #BF2230",
"z. c #A42027",
"x. c #A4390A",
"c. c #C4252B",
"v. c #C32332",
"b. c #CC2434",
"n. c #D62D2E",
"m. c #DD3D20",
"M. c #B4400D",
"N. c #D24610",
"B. c #813A42",
"V. c #973A45",
"C. c #B83845",
"Z. c #CB3B49",
"A. c #834242",
"S. c #894646",
"D. c #8D4848",
"F. c #81404A",
"G. c #934B4B",
"H. c #994F4F",
"J. c #994447",
"K. c #9C5050",
"L. c #90515C",
"P. c #87575C",
"I. c #8D6E6A",
"U. c #AC4958",
"Y. c #DC4757",
"T. c #C64D5B",
"R. c #E04D5C",
"E. c #E25766",
"W. c #DE6573",
"Q. c #E56574",
"!. c #96857D",
"~. c #022D83",
"^. c #063695",
"/. c #0B368D",
"(. c #294B90",
"). c #124ABC",
"_. c #1246AF",
"`. c #325DB3",
"'. c #2A53A4",
"]. c #3764BD",
"[. c #114CC3",
"{. c #1B59D8",
"}. c #1551CB",
"|. c #3A67C2",
" X c #2568F0",
".X c #2C72FE",
"XX c #2F70F7",
"oX c #3A8383",
"OX c #3C8888",
"+X c #438484",
"@X c #458A8A",
"#X c #498D8D",
"$X c #488585",
"%X c #4C9494",
"&X c #4F9999",
"*X c #439494",
"=X c #519C9C",
"-X c #559090",
";X c #548C8C",
":X c #789494",
">X c #688C8C",
",X c #55A3A3",
"<X c #58A7A7",
"1X c #5AABAB",
"2X c #888888",
"3X c #999999",
"4X c #839C9C",
"5X c #AA8F8C",
"6X c #8FA5A5",
"7X c #A2A2A2",
"8X c #ACACAC",
"9X c #A9BABA",
"0X c #B4B4B4",
"qX c #BBBBBB",
"wX c #AAA093",
"eX c #CE9F9E",
"rX c #D0C6B7",
"tX c #B5C4C4",
"yX c #C5C5C5",
"uX c #CDCDCD",
"iX c #C9D4D4",
"pX c #D1D1D1",
"aX c #DBDCDC",
"sX c #D4DDDD",
"dX c #D4CCC2",
"fX c #FCF4DE",
"gX c #EDE5D0",
"hX c #DAE1E1",
"jX c #E5E5E5",
"kX c #EBEBEB",
"lX c #E5EAEA",
"zX c #FEF6E6",
"xX c #EEF1F1",
"cX c #F4F4F4",
"vX c #FDFDFD",
"bX c #FDFBF5",
"nX c None",
/* pixels */
"nXnXnXnXnXnXnXnXnXnXnXnXnXnXnXnXnXnXnXnXnXnXnXnXnXnXnXnXnXnXnXnXnXnXnXnXnXnXnXnXnXnXnXnXnXnXnXnXnXnXnXnXnXnXnXnXnXnXnXnXnXnXnXnX",
"nXnXnXnXnXnXnXnXnXnXnXnXnXnXnXnXnXnXnXnXnXnXnXnXnXnXnXnXnXnXnXnXnXnXnXnXnXnXnXnXnXnXnXnXnXnXnXnXnXnXnXnXnXnXnXnXnXnXnXnXnXnXnXnX",
"nXnXnXnXnXnXnXnXnXnXnXnXnXnXnXnXnXnXnXnXnXnXnXnXnXnXnXnXnXnXnXnXnXnXnXnXnXnXnXnXnXnXnXnXnXnXnXnXnXnXnXnXnXnXnXnXnXnXnXnXnXnXnXnX",
"nXnXnXnXnXnXnXnXnXnXnXnXnXnXnXnXnXnXnXnXnXnXnXnXnXnXnXnXnXnXnXnXnXnXnXnXnXnXnXnXnXnXnXnXnXnXnXnXnXnXnXnXnXnXnXnXnXnXnXnXnXnXnXnX",
"nXnXnXnXnXnXnXnXnXnXnXnXnXnXnXnXnXnXnXnXnXnXnXnXnXnXnXnXnXnXnXnXnXnXnXnXnXnXnXnXnXnXnXnXnXnXnXnXnXnXnXnXnXnXnXnXnXnXnXnXnXnXnXnX",
"nXnXnXnXnXnXnXnXnXnXnXnXnXnXnXnXnXnXnXnXnXnXnXnXnXnXnXnXnXnXnXnXnXnXnXnXnXnXnXnXnXnXnXnXnXnXnXnXnXnXnXnXnXnXnXnXnXnXnXnXnXnXnXnX",
"nXnXnXnXnXnXnXnXnXnXnXnXnXnXnXnXnXnXnXnXnXnXnXnXnXnXnXnXnXnXnXnXnXnXnX  nXnXnXnXnXnXnXnXnXnXnXnXnXnXnXnXnXnXnXnXnXnXnXnXnXnXnXnX",
"nXnXnXnXnXnXnXnXnXnXnXnXnXnXnXnXnXnXnXnXnXnXnXnXnXnXnXnXnXnXnXnXnXnXnXnX  nXnXnXnXnXnXnXnXnXnXnXnXnXnXnXnXnXnXnXnXnXnXnXnXnXnXnX",
"nXnXnXnXnXnXnXnXnXnXnXnXnXnXnXnXnXnXnXnXnXnXnXnXnXnXnXnXnXnXnXnXnXnXnXnX  nXnXnXnXnXnXnXnXnXnXnXnXnXnXnXnXnXnXnXnXnXnXnXnXnXnXnX",
"nXnXnXnXnXnXnXnXnXnXnXnXnXnXnXnXnXnXnXnXnXnXnXnXnXnXnXnXnXnXnXnXnXnXnXnX2 . nXnXnXnXnXnXnXnXnXnXnXnXnXnXnXnXnXnXnXnXnXnXnXnXnXnX",
"nXnXnXnXnXnXnXnXnXnXnXnXnXnXnXnXnXnXnX  . + 1 2 2 2 1 - + .   nXnXnXnXnX@ C   nXnXnXnXnXnXnXnXnXnXnXnXnXnXnXnXnXnXnXnXnXnXnXnXnX",
"nXnXnXnXnXnXnXnXnXnXnXnXnXnXnX+ 2 C F K A.S.S.G.G.G.D.D.S.A.K S V 1 + nX  K 4 nXnXnXnXnXnXnXnXnXnXnXnXnXnXnXnXnXnXnXnXnXnXnXnXnX",
"nXnXnXnXnXnXnXnXnXnXnXnX+ 4 H S.G.G.D.S.A.A.A.A.A.>.A.A.S.S.S.S.G.G.P A 1 H H . nXnXnXnXnXnXnXnXnXnXnXnXnXnXnXnXnXnXnXnXnXnXnXnX",
"nXnXnXnXnXnXnXnXnXnX- A A.G.S.A.A.P P A.A.A.A.A.A.A.A.P P P P P P P A.D.S.L L S C C C s +     nXnXnXnXnXnXnXnXnXnXnXnXnXnXnXnXnX",
"nXnXnXnXnXnXnXnXnX+ P S.P P L P P P A.P A.A.A.S.S.A.A.A.P A.P P P L L L P L K A.>.K C @   nXnXnXnXnXnXnXnXnXnXnXnXnXnXnXnXnXnXnX",
"nXnXnXnXnXnXnXnXnX. 4 H L L P P A.P P A.A.A.A.S.A.A.A.A.A.>.P P P L P L K L K K H 5 . nXnXnXnXnXnXnXnXnXnXnXnXnXnXnXnXnXnXnXnXnX",
"nXnXnXnXnX  . 1 V F P S.P P P P P P A.A.A.A.A.A.A.A.A.A.>.P P P P L L L L K K K L >.L 5 . nXnXnXnXnXnXnXnXnXnXnXnXnXnXnXnXnXnXnX",
"nXnXnXnXnXnX@ C A S F K P L P P P P P A.P A.A.A.A.>.>.>.P P P P P P P P A.P A.H.K.S.J P S .   nXnXnXnXnXnXnXnXnXnXnXnXnXnXnXnXnX",
"nXnXnXnXnXnX    C A.G.H.K.G.G.G.D.S.S.S.S.S.A.A.A.S.S.S.D.D.D.G.G.G.H.K.S.S S.K.K.K.L +   nXnXnXnXnXnXnXnXnXnXnXnXnXnXnXnXnXnXnX",
"nXnXnXnX. 1 C S.H.K.K.K.K.K.K.K.K.K.K.K.H.K.K.H.H.S.K.K.K.K.K.S.A.K.H.A.A A S.G.D.P J Z . nXnXnXnXnXnXnXnXnXnXnXnXnXnXnXnXnXnXnX",
"nX    . C H H H H P D.G.K.K.K.K.K.K.K.H.K.H.K.K.>.F G.K.K.K.S.A L K.L A A A K K H H J H 4 nXnXnXnXnXnXnXnXnXnXnXnXnXnXnXnXnXnXnX",
"nXnXnX    1 A >.G.S.J J K P S.A.D.G.H.H.H.S.H.H.F A K H.K.A.S A J J A A A A S H H H H H H . nXnXnXnXnXnXnXnXnXnXnXnXnXnXnXnXnXnX",
"nXnX  . S L L K K J K H K J H A H K K L H S L K A A A K J A A A A A Z 2 C A S H H H H J H 2 nXnXnXnXnXnXnXnXnXnXnXnXnXnXnXnXnXnX",
"nXnXnXnX. V A S H H H S H H F A S J J S A A H A A A A A A A A A A Z @ - C Z S H S H H H H V nXnXnXnXnXnXnXnXnXnXnXnXnXnXnXnXnXnX",
"nXnXnXnX  1 J S.A.H F A S H A A A H A A A A A A A C A A Z Z 5 Z Z - % 1 . Z S S A F H H H S + nXnXnXnXnXnXnXnXnXnXnXnXnXnXnXnXnX",
"nX  . V K L K J H H A A A A C 5 A A A A C A A A 4 o Z A V + + C = O.q q > Z A A A F H H H H @ nXnXnXnXnXnXnXnXnXnXnXnXnXnXnXnXnX",
"nXnX. + 4 A A H H S A Z A Z @ 1 A A C 1 @ A C - ` ) 5 1 t } > = &.+X+.&.1 A A A A H H H H H 1 nXnXnXnXnXnXnXnXnXnXnXnXnXnXnXnXnX",
"nXnXnXnX  . S K H A C @ C 1 ) > Z 4 = #.; V - +.=XO.o [ ,XO.% 2.=X=X=X+.4 Z V 4 A S F S H H 2 nXnXnXnXnXnXnXnXnXnXnXnXnXnXnXnXnX",
"nXnXnXnXnX+ K S S A - w @ ) %X; > ` %X,Xw e $X<X<X&X%X<X<X#.+X,X,X=X=X] 2 + & 1 A A S A H J 2 nXnXnXnXnXnXnXnXnXnXnXnXnXnXnXnXnX",
"nXnXnXnXnX5 H A A 2 ' 2.w %X=X] 2.,X,X,X&.=X<X<X<X1X1X1X<X,X,X,X,X,X&Xt y O.` 4 A A S A H H 2 nXnXnXnXnXnXnXnXnXnXnXnXnXnXnXnXnX",
"nXnXnXnX  A 5 V Z e &X%X#X=X=X=X,X,X,X,X<X<X1X1X1X1X1X1X1X1X<X,X=X,X#X` O.&.) 5 A A A A H H 2 nXnXnXnXnXnXnXnXnXnXnXnXnXnXnXnXnX",
"nXnXnXnX. +   2 A d =X=X%X=X=X,X,X,X,X<X1X<X1X1X1X1X1X1X1X1X<X,X#X#X#._ _ +.y V C A A A S H 1 nXnXnXnXnXnXnXnXnXnXnXnXnXnXnXnXnX",
"nXnXnXnXnXnXnX+ A d =X&XO.+X,X,X,X<X,X<X<X1X1X1X1X1X1X1X1X1X<X,X&.$X+._ ` &.d V - C A A A F @ nXnXnXnXnXnXnXnXnXnXnXnXnXnXnXnXnX",
"nXnXnXnXnXnXnX  Z ' %X=.O.+X=X<X1X<X,X<X<X<X1X1X1X1X1X1X1X<X,X,X&X,X%X@.&.%Xt 2 . C A A A Z + nXnXnXnXnXnXnXnXnXnXnXnXnXnXnXnXnX",
"nXnXnXnXnXnXnXnX5  .&.` $X&X<X1X1X1X,X<X<X,X1X<X1X1X1X1X<X&X+X&.+.+.5.$X&X&Xq = q V A Z 5 5 . nXnXnXnXnXnXnXnXnXnXnXnXnXnXnXnXnX",
"nXnXnXnXnXnXnXnX7 | &.` #X,X1X1X1X1X,X<X<X=X<X<X1X1X1X<X#X@.:X9XtX6X4.O.&.#X& O.i V A 1       nXnXnXnXnXnXnXnXnXnXnXnXnXnXnXnXnX",
"nXnXnXnXnXnXnXnX. | &X2.&X=X=X,X1X1X,X,X=X,X<X,X1X<X,X%X3.iXcXvXvXvXlX:X} } _ #Xy 5 C   % ; * X nXnXnXnXnXnXnXnXnXnXnXnXnXnXnXnX",
"nXnXnXnXnXnXnX  . | ,X&X#X+X$X%X=X,X=X=X} 5.,X,X<X<X=X@.uXvXxXvXvXvXvXcX4.[ 2.%X] 4 s q #X=X%X=.t   nXnXnXnXnXnXnXnXnXnXnXnXnXnX",
"nXnXnXnXnXnX% +.} ) ,X#X#.:X9X>X%X=X=X=X&.$X,X=X=X=X$X>XvXjXkXvXvXvXvXvX9XO.+.%X+.2 2 ) @X$X@X@X=X_   nXnXnXnXnXnXnXnXnXnXnXnXnX",
"nXnXnXnXnX. +.%X&.t ,X+.:XcXvXvX>X=X#X#X=X=X=X,X=X=X2.4XcXjXjXcXvXvXvXvXjXO.O.&X&.2 + [ =.=.2.$X@X%Xw nXnXnXnXnXnXnXnXnXnXnXnXnX",
"nXnXnXnXnX_ %X@X=.t %X#.hXkXvXvXsX%X&X&X=X=X=X=X,X&X&.6XcXjXjXjXcXcXvXvXxX#.O.%X2.- . @.=.&.&.=.$X#X@.  nXnXnXnXnXnXnXnXnXnXnXnX",
"nXnXnXnX  2.#X$X@.t #X5.lXkXvXvXxX-X&X&X&X&X&X=X&X&X&.:XcXkXjXjXkXkXvXvXiX} O.%X+X% % &.&.&.&.&.+X@X@X  nXnXnXnXnXnXnXnXnXnXnXnX",
"nXnXnXnX  #X@X+X+.d $X<.jXjXkXcXcX;X&X&X&X&X&X&X&X&X=.3.xXvXvXjXjXcXvXvX:XO.#.&X$X* w &.=.&.=.&.oX@X#XX nXnXnXnXnXnXnXnXnXnXnXnX",
"nXnXnXnXX #X@X2.[ ' @X#.sXcXkXcXsX$X%X%X%X&X%X%X%X%X@XO.4XvXvXcXvXvXvXiX#.O.&.%X+X& y &.&.&.&.&.+X@X$X  nXnXnXnXnXnXnXnXnXnXnXnX",
"nXnXnXnX  =.#X+X_ } #X} 4XvXcXvX:X@X%X%X%X%X%X%X%X%X%X&.O.:XhXbXvXkXqX#.O.O.#X@X=.w ] =.&.&.=.&.$X$XO.  nXnXnXnXnXnXnXnXnXnXnXnX",
"nXnXnXnX  ] @X@Xt +.#X&.O.:XtX:X@.#X%X*X%X%X#X#X%X#X#X#X+.O.#.4.4.@.} O.} @X%X+X&.y O.=.&.&.&.2.@XoXq nXnXnXnXnXnXnXnXnXnXnXnXnX",
"nXnXnXnXnXX +.@Xu @.@X#X@.} O.+.#X#X#X#X%X#X#X#X#X#X#X#X%X&.O.O.O.} O.#.%X%XoX] &.] &.&.=.&.+X$X@Xt   nXnXnXnXnXnXnXnXnXnXnXnXnX",
"nXnXnXnXnXnX& &.] ` @X+X#X@X@X#X@X@X#X#X#X#X@X#X#X#X%X#X#X#X#X2.2.2.#X&X#X+X=.#.&.@.&.O.=.@X+X%.w   nXnXnXnXnXnXnXnXnXnXnXnXnXnX",
"nXnXnXnXnXnXnX  t % O.O.+X@X@X@X@X@X@X5.#.w.;.;.:.:.w.5.2.#X@X#X@X#X+X@.=.@.&.&.&.&._   X % X   nXnXnXnXnXnXnXnXnXnXnXnXnXnXnXnX",
"nXnXnXnXnXnXnXnXnX  X ) } 2.@X@X@X&.O.;.B.^ ,.I.wX!.,.^ P.<.=.$X@X$X} _ @.O.&.&.} e . nXnXnXnXnXnXnXnXnXnXnXnXnXnXnXnXnXnXnXnXnX",
"nXnXnXnXnXnXnXnXnXnXnX  % ) +.&.O.w.>.I.dXfXbXzXvXbXzXdX!.V.H.#.&.&.+.} +.[ t = , v b < nXnXnXnXnXnXnXnXnXnXnXnXnXnXnXnXnXnXnXnX",
"nXnXnXnXnXnXnXnXnXnXnXnXnXnXX & d V.I.zXzXfXbXzXvXbXzXbXfXV.Y.U.| ) u & + j v d.d.s.b v # nXnXnXnXnXnXnXnXnXnXnXnXnXnXnXnXnXnXnX",
"nXnXnXnXnXnXnXnXnXnXnXnXnXnXnXnX    3 ;.!.,.6.wXvXbXgX,.3 7 7 @ , l b f.h.h.f.f.b j j , # nXnXnXnXnXnXnXnXnXnXnXnXnXnXnXnXnXnXnX",
"nXnXnXnXnXnXnXnXnXnXnXnXnXnXnXnXnXnXnX6 Z.Z.Z.,.I.P.G.C.7 a.d.p.b.b.v.v.j.h.g.B a.k.z.s.k . nXnXnXnXnXnXnXnXnXnXnXnXnXnXnXnXnXnX",
"nXnXnXnXnXnXnXnXnXnXnXnXnXnXnXnXnXnXnXnXR.Y.Y.b.R.Y.Y.Y.a.n.z.p.n.b.v.v.j.h.z.j m.h.z.s.v j nXnXnXnXnXnXnXnXnXnXnXnXnXnXnXnXnXnX",
"nXnXnXnXnXnXnXnXnXnXnXnXnXnXnXnXnXnXnXnXT.R.R.R.E.Y.R.T.M.v.d.p.n.b.v.l.j.k.s.p.c.h.z.d.b k . nXnXnXnXnXnXnXnXnXnXnXnXnXnXnXnXnX",
"nXnXnXnXnXnXnXnXnXnXnXnXnXnXnXnXnXnXnXnXI W.E.E.E.E.E.U M k.s.M n.b.b.l.j.h.v x.l.d.d.d.B j . nXnXnXnXnXnXnXnXnXnXnXnXnXnXnXnXnX",
"nXnXnXnXnXnXnXnXnXnXnXnXnXnXnXnXnXnXnXnXnXB.W.Q.Q.Q.^ . , a : M n.b.v.v.j.h.< , l 1 3 v k j # nXnXnXnXnXnXnXnXnXnXnXnXnXnXnXnXnX",
"nXnXnXnXnXnXnXnXnXnXnXnXnXnXnXnXnXnXnXnXnXnXnXB.B.nXnXnX% OXoXm m.b.b.v.j.f.s.j $X%X$Xe q # < nXnXnXnXnXnXnXnXnXnXnXnXnXnXnXnXnX",
"nXnXnXnXnXnXnXnXnXnXnXnXnXnXnXnXnXnXnXnXnX% q nXnXnXnXnXw +.*.h N.b.j.v.g.h.g.D <X=X@X&.g < , O nXnXnXnXnXnXnXnXnXnXnXnXnXnXnXnX",
"nXnXnXnXnXnXnXnXnXnXnXnXnXnXnXnXnXnXnXnXnXi +.u nXnXnX) *.OX*.w m v B l.V l j s +X#X+X&.s k d X nXnXnXnXnXnXnXnXnXnXnXnXnXnXnXnX",
"nXnXnXnXnXnXnXnXnXnXnXnXnXnXnXw { { t nX  X _ *.t / %.@XOX*.*.[ [ ] D s.' t ] #X&X%XoX@.i 1 O.q nXnXnXnXnXnXnXnXnXnXnXnXnXnXnXnX",
"nXnXnXnXnXnXnXnXnXnXnXnXnXnXw *.o.+.*.[ o.[ ] *.%.oXOX*XOX*.%.o.=.+XG 7 ] #X<X%X%X#X+X] @.} &.w nXnXnXnXnXnXnXnXnXnXnXnXnXnXnXnX",
"nXnXnXnXnXnXnXnXnXnXnXnXnXnX) _ o * [ *X*XoX*.oX*.oXoXoX*.X.[ / &.@._ +X<X<X,X&X#X$X=.+.@X&.&.) nXnXnXnXnXnXnXnXnXnXnXnXnXnXnXnX",
"nXnXnXnXnXnXnXnXnXnXnXnXnXnXnX  w t _ OX@X*.oXoX*.*.*.%./ d ] O.O.O.=X#X,X&X&X#X@X(.#.=.@X@.&.) nXnXnXnXnXnXnXnXnXnXnXnXnXnXnXnX",
"nXnXnXnXnXnXnXnXnXnXnXnXnXnXnX) *.*.oXoX*.*.*.*.%.o.o./ q @X#X&X,X&X%X&X%X#X$X&.] y t ` _ R R e nXnXnXnXnXnXnXnXnXnXnXnXnXnXnXnX",
"nXnXnXnXnXnXnXnXnXnXnXnXnXnX0 %.) w { *.%.%.%.%.%./ 0 nXnX% O.<X,X&X%X+X@X=.[ R ].|.].].].`.`.(.nXnXnXnXnXnXnXnXnXnXnXnXnXnXnXnX",
"nXnXnXnXnXnXnXnXnXnXnXnXnXnXt o.X X / %.o.%.+.o.] nXnXnXnX) ,X&X,X&X#X$XO.E /.}.)._./._.).~.W T nXnXnXnXnXnXnXnXnXnXnXnXnXnXnXnX",
"nXnXnXnXnXnXnXnXnXnXnXnXnXnX& & nX_ +.` y / t q X nXnXnXo #X<X<X,X%X#X*.u }.{.}.).W '.XX{._.~.8 nXnXnXnXnXnXnXnXnXnXnXnXnXnXnXnX",
"nXnXnXnXnXnXnXnXnXnXnXnXnXnXnXnXnX{ y   nXnXnXnXnXnXq @.%X=X%X,X&X$X+X@.8 ! Q W /.E XX X{.}./.! O nXnXnXnXnXnXnXnXnXnXnXnXnXnXnX",
"nXnXnXnXnXnXnXnXnXnXnXnXnXnXnXnXnX/ y nXnXnXnXnXnXnX+.=.[ +.%X&X%X+X=.R 9 O O $ * E .X X{.).^.W O nXnXnXnXnXnXnXnXnXnXnXnXnXnXnX",
"nXnXnXnXnXnXnXnXnXnXnXnXnXnXnXnXnX& q nXnXnXnXnXnXq 2.)   y #X%X#X=.] 8 8 nXnXnXnX~ .XXX{.}.^.W O nXnXnXnXnXnXnXnXnXnXnXnXnXnXnX",
"nXnXnXnXnXnXnXnXnXnXnXnXnXnXnXnXnXnXnXnXnXnXnXnXnX; 2.y & %X=._ +X} 8 Q $ nXnXnXnX~ .X X{.[.^.W O nXnXnXnXnXnXnXnXnXnXnXnXnXnXnX",
"nXnXnXnXnXnXnXnXnXnXnXnXnXnXnXnXnXnXnXnXnXnXnXnXnXnXy X ` =.q * +XR ! T nXnXnXnXnX(..X X{.}.^.W $ nXnXnXnXnXnXnXnXnXnXnXnXnXnXnX",
"nXnXnXnXnXnXnXnXnXnXnXnXnXnXnXnXnXnXnXnXnXnXnXnXnXnXnXnXd (.i * =.} 8 9 nXnXnXnXnX'. X X{.).^.W $ nXnXnXnXnXnXnXnXnXnXnXnXnXnXnX",
"nXnXnXnXnXnXnXnXnXnXnXnXnXnXnXnXnXnXnXnXnXnXnXnXnXnXnXnXX +._ / 0 @.O.  nXnXnXnXnXE '.E T E ! T $ nXnXnXnXnXnXnXnXnXnXnXnXnXnXnX",
"nXnXnXnXnXnXnXnXnXnXnXnXnXnXnXnXnXnXnXnXnXnXnXnXnXnXnXnX/ t w ../ X * nXnXnXnXnXnXX & O.&.=.+.R O nXnXnXnXnXnXnXnXnXnXnXnXnXnXnX",
"nXnXnXnXnXnXnXnXnXnXnXnXnXnXnXnXnXnXnXnXnXnXnXnXnXnXnXnX{ X.X.X./ * nXnXnXnXnXnXnXnXe #X=X&X%X=.[ q nXnXnXnXnXnXnXnXnXnXnXnXnXnX",
"nXnXnXnXnXnXnXnXnXnXnXnXnXnXnXnXnXnXnXnXnXnXnXnXnXnXnXnX( *.$.X.( * nXnXnXnXnXnXnXnXnX&.&X,X&X&X@X@.) nXnXnXnXnXnXnXnXnXnXnXnXnX",
"nXnXnXnXnXnXnXnXnXnXnXnXnXnXnXnXnXnXnXnXnXnXnXnXnXnXnXnX* $.X.X.( 0 nXnXnXnXnXnXnXnXnX` <X1X,X&X=X@X+XO.% f nXnXnXnXnXnXnXnXnXnX",
"nXnXnXnXnXnXnXnXnXnXnXnXnXnXnXnXnXnXnXnXnXnXnXnXnXnXnXnX  X.$.X.( 0 nXnXnXnXnXnXnXnXnXnX[ =X<X,X&X&X%X+.6.jX2XnXnXnXnXnXnXnXnXnX",
"nXnXnXnXnXnXnXnXnXnXnXnXnXnXnXnXnXnXnXnXnXnXnXnXnXnXnXnXnXX.X.X.( 0 nXnXnXnXnXnXnXnXnXnXnXnXd #X=X#X@.1.cXyXY x I.I.g nXnXnXnXnX",
"nXnXnXnXnXnXnXnXnXnXnXnXnXnXnXnXnXnXnXnXnXnXnXnXnXnXnXnXnX( ....( r nXnXnXnXnXnXnXnXnXnXnXnXnXq +.@.1.lX8Xm i.u.c.eXeXC nXnXnXnX",
"nXnXnXnXnXnXnXnXnXnXnXnXnXnXnXnXnXnXnXnXnXnXnXnXnXnXnXnXnX/ ( ( ( r nXnXnXnXnXnXnXnXnXnXnXnXnXnXnXf jXqXv u.u.u.u.u.y.e., + nXnX",
"nXnXnXnXnXnXnXnXnXnXnXnXnXnXnXnXnXnXnXnXnXnXnXnXnXnXnXnX;.7.7.1.;.f nXnXnXnXnXnXnXnXnXnXnXnXnXnXnXf 7X4 n v n x e.u.y.c -.3Xg nX",
"nXnXnXnXnXnXnXnXnXnXnXnXnXnXnXnXnXnXnXnXnXnXnXnXnXnXnXp 8XqXyXiXuX7X: nXnXnXnXnXnXnXnXnXnXnXnXnXnXnX= 1.3XqX8X2X7.C z G uX8Xg nX",
"nXnXnXnXnXnXnXnXnXnXnXnXnXnXnXnXnXnXnXnXnXnXnXnXp -.f p . , < 6 G ;.o nXnXnXnXnXnXnXnXnXnXnXnXnXnXg yXcXjXjXjXuXuX3X-.aXpXg nXnX",
"nXnXnXnXnXnXnXnXnXnXnXnXnXnXnXnXnXnXnXnXnXnXa !.yXuXuXqX8.j c t.r.x , nXnXnXnXnXnXnXnXnXnXnXnXnXo qXvXvXcXjXjXpX0X;.yXaX-.nXnXnX",
"nXnXnXnXnXnXnXnXnXnXnXnXnXnXnXnXnXnXnXnXnXf 0XpXuXpXpXuXqX3X5 c e.e.I.. nXnXnXnXnXnXnXnXnXnXnXnX;.vXvXvXcXjXjXqX-.yXaX;.nXnXnXnX",
"nXnXnXnXnXnXnXnXnXnXnXnXnXnXnXnXnXnXnXnX= 7XuXpXpXpXpXyXqXqX9.z e.e.5X,.nXnXnXnXnXnXnXnXnXnXnXnX8XvXvXvXcXjXuX:.0XaXq.nXnXnXnXnX",
"nXnXnXnXnXnXnXnXnXnXnXnXnXnXnXnXnXnXnXnX7.qXyXpXpXuXyXqXqX0X7X-.c e.V.8.nXnXnXnXnXnXnXnXnXnXnX  aXvXvXvXjXaX1.8XjX6.nXnXnXnXnXnX",
"nXnXnXnXnXnXnXnXnXnXnXnXnXnXnXnXnXnXnXnX3XqXqXqXqXqXqXqX0X7X7X2X< r.c l nXnXnXnXnXnXnXnXnXnXnX. aXvXvXcXjX7.3XjX9.nXnXnXnXnXnXnX",
"nXnXnXnXnXnXnXnXnXnXnXnXnXnXnXnXnXnXnX. ;.8.8.9.9.9.9.9.8.9.9.9.3 z x z nXnXnXnXnXnXnXnXnXnXnXnXqXkXkXaX6.3XaX3XX nXnXnXnXnXnXnX",
"nXnXnXnXnXnXnXnXnXnXnXnXnXnXnXnXnXnXnXa 2X7X8X3X2X2X9.9.9.q.6.7.7.1.-.-.o nXnXnXnXnXnXnXnXnXnXnX9.jXjX2X3XjX7X+ nXnXnXnXnXnXnXnX",
"nXnXnXnXnXnXnXnXnXnXnXnXnXnXnXnXnXnXnXg 3X0XtX0X8X8X8X0X0X0X0X0XqX0X7X3X: nXnXnXnXnXnXnXnXnXnXnX= yX2X2XvX0X- nXnXnXnXnXnXnXnXnX",
"nXnXnXnXnXnXnXnXnXnXnXnXnXnXnXnXnXnXnX  o = = = = : = : : : : p 3 a p e . nXnXnXnXnXnXnXnXnXnXnXnXp ;.kXpX: nXnXnXnXnXnXnXnXnXnX"
};
