/* XPM */
static char *result[] = {
/* columns rows colors chars-per-pixel */
"64 96 234 2 ",
"   c #020202",
".  c #0B0505",
"X  c #060C0C",
"o  c #0D0909",
"O  c #02070F",
"+  c #130B0B",
"@  c #1C0C0D",
"#  c #1B0705",
"$  c #010715",
"%  c #0B1414",
"&  c #0D1C1C",
"*  c #051616",
"=  c #131313",
"-  c #1C1213",
";  c #131C1C",
":  c #1D1C1C",
">  c #1A0E10",
",  c #250708",
"<  c #390A0B",
"1  c #241313",
"2  c #2A1515",
"3  c #2C1B1B",
"4  c #341A1A",
"5  c #3B1E1E",
"6  c #31110D",
"7  c #36251C",
"8  c #000E2A",
"9  c #011439",
"0  c #0A1324",
"q  c #0C2323",
"w  c #122323",
"e  c #152B2B",
"r  c #1C2727",
"t  c #153232",
"y  c #1B3434",
"u  c #1E3B3B",
"i  c #0D2F36",
"p  c gray17",
"a  c #262424",
"s  c #372425",
"d  c #243838",
"f  c #363737",
"g  c #590101",
"h  c #480D12",
"j  c #5A1116",
"k  c #50120B",
"l  c #670000",
"z  c #661417",
"x  c #74151D",
"c  c #7D171F",
"v  c #750803",
"b  c #442323",
"n  c #4A2626",
"m  c #4E2928",
"M  c #532A2A",
"N  c #5B2E2E",
"B  c #532227",
"V  c #5F3030",
"C  c #543433",
"Z  c #443737",
"A  c #643232",
"S  c #6B3636",
"D  c #6F3838",
"F  c #743B3B",
"G  c #7B3E3E",
"H  c #71363D",
"J  c #6C292F",
"K  c #6E2217",
"L  c #00194A",
"P  c #001C54",
"I  c #1B2C49",
"U  c #19314E",
"Y  c #04266A",
"T  c #002879",
"R  c #102C63",
"E  c #243963",
"W  c #713D44",
"Q  c #174848",
"!  c #1C5858",
"~  c #0E4242",
"^  c #224343",
"/  c #254A4A",
"(  c #284D4D",
")  c #254548",
"_  c #2B5353",
"`  c #2E5B5B",
"'  c #255757",
"]  c #315E5E",
"[  c #374545",
"{  c #1E6464",
"}  c #2E6262",
"|  c #276B6B",
" . c #336363",
".. c #3B6465",
"X. c #356B6B",
"o. c #396D6D",
"O. c #2A7474",
"+. c #327474",
"@. c #3C7575",
"#. c #357B7B",
"$. c #3D7A7A",
"%. c #2D497F",
"&. c #4C4C4C",
"*. c #444444",
"=. c #555555",
"-. c #595A5A",
";. c #4A575A",
":. c #7F4040",
">. c #764747",
",. c #795556",
"<. c #6E4C50",
"1. c #417D7D",
"2. c #4B7272",
"3. c #577B7B",
"4. c #536A6A",
"5. c #636363",
"6. c #6D6D6D",
"7. c #797979",
"8. c gray45",
"9. c #5D5B60",
"0. c #8C0000",
"q. c #820000",
"w. c #960806",
"e. c #BB0201",
"r. c #A31301",
"t. c #AC0000",
"y. c #94370B",
"u. c #A93115",
"i. c #881822",
"p. c #9A1C27",
"a. c #AB1F2B",
"s. c #A41D29",
"d. c #892D37",
"f. c #963336",
"g. c #B5202E",
"h. c #BB222E",
"j. c #BC2230",
"k. c #BC3D3D",
"l. c #D23B1D",
"z. c #C32331",
"x. c #CB2434",
"c. c #D12634",
"v. c #C82F2C",
"b. c #EA461B",
"n. c #E9530B",
"m. c #E0431A",
"M. c #893B45",
"N. c #AB3843",
"B. c #B23946",
"V. c #834242",
"C. c #8A4646",
"Z. c #8E4848",
"A. c #85414B",
"S. c #944C4C",
"D. c #994F4F",
"F. c #93414A",
"G. c #9C5050",
"H. c #A84E59",
"J. c #95706B",
"K. c #DC4656",
"L. c #E04C5C",
"P. c #E1505F",
"I. c #CD5B67",
"U. c #E25564",
"Y. c #E36371",
"T. c #8C837E",
"R. c #022D83",
"E. c #063697",
"W. c #0B358C",
"Q. c #0E46B5",
"!. c #1C50BB",
"~. c #1245AC",
"^. c #2E59B0",
"/. c #2A4B8C",
"(. c #124CC3",
"). c #1752C7",
"_. c #1A59D7",
"`. c #3267D2",
"'. c #2364EA",
"]. c #276CF6",
"[. c #3275FC",
"{. c #205CD6",
"}. c #3E8A8A",
"|. c #3A8383",
" X c #448484",
".X c #468A8A",
"XX c #498E8E",
"oX c #4C8080",
"OX c #4C9393",
"+X c #4F9999",
"@X c #429292",
"#X c #519C9C",
"$X c #5C9393",
"%X c #5E8080",
"&X c #668686",
"*X c #799696",
"=X c #718E8E",
"-X c #55A3A3",
";X c #58A7A7",
":X c #5AABAB",
">X c #7BA2A2",
",X c #858585",
"<X c #8E8E8E",
"1X c #829C9C",
"2X c #9D9D9D",
"3X c #979595",
"4X c #918989",
"5X c #ABA396",
"6X c #90A8A8",
"7X c #ABABAB",
"8X c #A5A5A5",
"9X c #B4B4B4",
"0X c #BABABA",
"qX c #B3B6B0",
"wX c #D0B0A7",
"eX c #CFC8B9",
"rX c #B9C6C6",
"tX c #C4C4C4",
"yX c #CCCCCC",
"uX c #C1CDCD",
"iX c #D8D5CC",
"pX c #D2D2D2",
"aX c #D9D9D9",
"sX c #CCD6D6",
"dX c #F9F1DE",
"fX c #E5E5E5",
"gX c #ECECEC",
"hX c #E6EAEA",
"jX c #FCF7EA",
"kX c #F4F5F5",
"lX c #FDFEFD",
"zX c #FEFBF3",
"xX c #EEF1F1",
"cX c None",
/* pixels */
"cXcXcXcXcXcXcXcXcXcXcXcXcXcXcXcXcXcXcXcXcXcXcXcXcXcXcXcXcXcXcXcXcXcXcXcXcXcXcXcXcXcXcXcXcXcXcXcXcXcXcXcXcXcXcXcXcXcXcXcXcXcXcXcX",
"cXcXcXcXcXcXcXcXcXcXcXcXcXcXcXcXcXcXcXcXcXcXcXcXcXcXcXcXcXcXcXcXcXcXcXcXcXcXcXcXcXcXcXcXcXcXcXcXcXcXcXcXcXcXcXcXcXcXcXcXcXcXcXcX",
"cXcXcXcXcXcXcXcXcXcXcXcXcXcXcXcXcXcXcXcXcXcXcXcXcXcXcXcXcXcXcXcXcXcXcXcXcXcXcXcXcXcXcXcXcXcXcXcXcXcXcXcXcXcXcXcXcXcXcXcXcXcXcXcX",
"cXcXcXcXcXcXcXcXcXcXcXcXcXcXcXcXcXcXcXcXcXcXcXcXcXcXcXcXcXcXcXcXcXcXcXcXcXcXcXcXcXcXcXcXcXcXcXcXcXcXcXcXcXcXcXcXcXcXcXcXcXcXcXcX",
"cXcXcXcXcXcXcXcXcXcXcXcXcXcXcXcXcXcXcXcXcXcXcXcXcXcXcXcXcXcXcXcXcXcXcXcXcXcXcXcXcXcXcXcXcXcXcXcXcXcXcXcXcXcXcXcXcXcXcXcXcXcXcXcX",
"cXcXcXcXcXcXcXcXcXcXcXcXcXcXcXcXcXcXcXcXcXcXcXcXcXcXcXcXcXcXcXcXcXcXcXcX  cXcXcXcXcXcXcXcXcXcXcXcXcXcXcXcXcXcXcXcXcXcXcXcXcXcXcX",
"cXcXcXcXcXcXcXcXcXcXcXcXcXcXcXcXcXcXcXcXcXcXcXcXcXcXcXcXcXcXcXcXcXcXcXcX    cXcXcXcXcXcXcXcXcXcXcXcXcXcXcXcXcXcXcXcXcXcXcXcXcXcX",
"cXcXcXcXcXcXcXcXcXcXcXcXcXcXcXcXcXcXcXcXcXcXcXcXcXcXcXcXcXcXcXcXcXcXcXcX  1 cXcXcXcXcXcXcXcXcXcXcXcXcXcXcXcXcXcXcXcXcXcXcXcXcXcX",
"cXcXcXcXcXcXcXcXcXcXcXcXcXcXcXcXcXcXcXcX. . o + + > + + o .   cXcXcXcXcX  M + cXcXcXcXcXcXcXcXcXcXcXcXcXcXcXcXcXcXcXcXcXcXcXcXcX",
"cXcXcXcXcXcXcXcXcXcXcXcXcXcXcX  . 1 b A G C.Z.S.S.S.S.S.Z.C.F M 4 +   cX  m n cXcXcXcXcXcXcXcXcXcXcXcXcXcXcXcXcXcXcXcXcXcXcXcXcX",
"cXcXcXcXcXcXcXcXcXcXcXcX  @ n G D.D.S.Z.V.V.V.V.V.V.>.V.V.V.C.Z.S.S.Z.A 1 b F , cXcXcXcXcXcXcXcXcXcXcXcXcXcXcXcXcXcXcXcXcXcXcXcX",
"cXcXcXcXcXcXcXcXcXcX  1 S S.S.C.:.G G :.:.:.V.V.V.V.d.V.V.G :.G G G V.Z.S.G F F 4 4 5 5 2     cXcXcXcXcXcXcXcXcXcXcXcXcXcXcXcXcX",
"cXcXcXcXcXcXcXcXcX  M S.V.G F G G :.:.:.V.V.V.V.V.V.V.V.:.:.:.G G G F F F F D G C.F V 3 . cXcXcXcXcXcXcXcXcXcXcXcXcXcXcXcXcXcXcX",
"cXcXcXcXcXcXcXcXcXcX+ N A F G G G :.:.:.V.C.V.C.C.V.C.V.V.:.G G G G G F F F D D S m +   cXcXcXcXcXcXcXcXcXcXcXcXcXcXcXcXcXcXcXcX",
"cXcXcXcXcXcX  + 2 M F V.V.G F G G :.:.:.V.V.V.V.V.V.V.V.:.:.:.G F G F F F D D D S G V.n o cXcXcXcXcXcXcXcXcXcXcXcXcXcXcXcXcXcXcX",
"cXcXcXcXcXcX. b V V V A F F F G G d.:.:.:.V.V.V.V.V.V.:.:.:.G G G F F F F G G Z.D.S.F C.G @   cXcXcXcXcXcXcXcXcXcXcXcXcXcXcXcXcX",
"cXcXcXcXcXcXcX  2 A C.D.D.S.Z.Z.Z.V.V.C.V.V.V.V.V.V.V.V.V.C.V.Z.Z.S.D.D.D.F S G.D.D.S.1   cXcXcXcXcXcXcXcXcXcXcXcXcXcXcXcXcXcXcX",
"cXcXcXcXcX  1 A Z.D.D.G.G.G.G.G.G.G.G.G.G.G.G.D.G.Z.D.G.G.G.G.D.G D.D.S.S M F G.D.Z.F N + cXcXcXcXcXcXcXcXcXcXcXcXcXcXcXcXcXcXcX",
"cXcX    4 A S S S F Z.S.D.D.G.G.G.D.G.G.G.G.G.G.D.V V.G.G.G.D.S N S.S.V M M S F S A S A M . cXcXcXcXcXcXcXcXcXcXcXcXcXcXcXcXcXcX",
"cXcXcX    . 4 A V.Z.F D F V.Z.Z.Z.D.G.G.G.S.S.G.:.M V D.G.D.F M N :.N M m M M A A S A A A 1 cXcXcXcXcXcXcXcXcXcXcXcXcXcXcXcXcXcX",
"cXcXcX  5 S G G F D A S S S S A N F F G F N S :.N M M A F V M M M M M b 5 M M A A S A A A n   cXcXcXcXcXcXcXcXcXcXcXcXcXcXcXcXcX",
"cXcXcXcXo b N N V S S V V S S M M A S A M M V A M M M M N M M M M M b . n m M A A N A A A A + cXcXcXcXcXcXcXcXcXcXcXcXcXcXcXcXcX",
"cXcXcXcX  . n F C.S A M M S N m M N V M M M N M M m m m M M b b M 5 % o @ 4 N V B N S A A A 2 cXcXcXcXcXcXcXcXcXcXcXcXcXcXcXcXcX",
"cXcX  @ b F G G F A V M B M m b M M M M m M M M M @ 4 M M 4 . b 5 r _   X b m M M N A A A A 4 cXcXcXcXcXcXcXcXcXcXcXcXcXcXcXcXcX",
"cXcX  @ 5 M M N A A M M m M s . M M M b + n m b = ) 1 n @ / r 2 t XX_ 1.w n M M M N A A N A b cXcXcXcXcXcXcXcXcXcXcXcXcXcXcXcXcX",
"cXcXcXcX  + 5 G A N M 5 5 n : w n m 2 w y 5 4 ; .XXX= ; 1.#Xw y OX#XOXOX; m m b M N V A N A n cXcXcXcXcXcXcXcXcXcXcXcXcXcXcXcXcX",
"cXcXcXcXcXcXn S A M b X 1 - @._ 1 :  .-X .o ^ -X;X-Xo.#X-X X_ #X#X#X#X.X- 4 + . m M N N N A B cXcXcXcXcXcXcXcXcXcXcXcXcXcXcXcXcX",
"cXcXcXcXcXo V M M n - @.% ] #X1.y .X-X-X.X .-X;X;X;X;X;X;X#X#X-X-X#X#X@.X u ` = M m M N A A n   cXcXcXcXcXcXcXcXcXcXcXcXcXcXcXcX",
"cXcXcXcXcX4 M n M 3  .#X@.#X#X#X#X-X-X-X;X;X;X:X;X:X:X:X:X:X:X;X-X-X#XX. .@.X.> M M M m V S n   cXcXcXcXcXcXcXcXcXcXcXcXcXcXcXcX",
"cXcXcXcX  1 + o m 3 @.+X#X#X#X-X#X-X-X;X;X;X;X:X:X:X:X:X:X:X:X:X-X#X X_ ( `  .- M m M M V V b   cXcXcXcXcXcXcXcXcXcXcXcXcXcXcXcX",
"cXcXcXcX  cXcX  n 3 1.#X X@.#X#X-X-X-X-X;X;X:X:X:X:X:X:X:X:X:X:XXXo.oX/ ( `  .@ b 5 M M M N b   cXcXcXcXcXcXcXcXcXcXcXcXcXcXcXcX",
"cXcXcXcXcXcXcXcX5 s  XXX$.] #X#X;X;X;X;X;X:X:X:X:X:X:X:X:X:X:X:X-X+X+X] _ 1. .4 + 4 M M M m 3 cXcXcXcXcXcXcXcXcXcXcXcXcXcXcXcXcX",
"cXcXcXcXcXcXcXcX> s 1.( $.XX#X:X:X:X-X;X;X;X;X;X:X:X:X:X;X-X#X X@.@.1.OX+X+X_ + e 3 M m m n 1 cXcXcXcXcXcXcXcXcXcXcXcXcXcXcXcXcX",
"cXcXcXcXcXcXcXcXo s 1.( @.#X;X:X:X:X;X-X;X#X;X;X:X:X:X;X-X X..%X*X%X.. .@.+X) &  .2 M n + .   cXcXcXcXcXcXcXcXcXcXcXcXcXcXcXcXcX",
"cXcXcXcXcXcXcXcX  a #X ..X#X-X-X:X:X-X-X-X-X;X-X;X;X;X-X@.=XfXlXlXlXxX*X .o.^ 1.o.1 M 2         cXcXcXcXcXcXcXcXcXcXcXcXcXcXcXcX",
"cXcXcXcXcXcXcXcX  a -XOX#XOXOX#X#X;X-X-X Xo.#X-X;X-X-XXX2.kXkXkXlXlXlXzX&X] ] OX$.: M + `  X.X .&   cXcXcXcXcXcXcXcXcXcXcXcXcXcX",
"cXcXcXcXcXcXcX%  .; #X+X1...%X3.OX-X#X#X@.] OX-X-X-X#XX.pXkXfXkXlXlXlXlXhX.. .OX X: n X  X.X.X@X-X_   cXcXcXcXcXcXcXcXcXcXcXcXcX",
"cXcXcXcXcXcX; OXXXw .X.X .rXlXkX1XOX#XOX#X+X#X#X#X#XOX2.kXgXfXxXlXlXlXlXlX%X ..XXXr 5 w  X1. X X.XOX^ cXcXcXcXcXcXcXcXcXcXcXcXcX",
"cXcXcXcXcXX 1..X.Xy oX@.*XkXkXlXkX$X#X X#X#X#X#X#X#X X3.kXfXfXhXkXlXlXlXlX=X] 1.XXe - y @.@.@.$. X.XOX  cXcXcXcXcXcXcXcXcXcXcXcX",
"cXcXcXcXcXu OX.X$.e @. .rXhXkXlXlX>X+X+X+X#X+X#X#X#X X2.kXfXfXfXfXgXkXlXlX&X .@.OXy . / @.@.@.@.1..XOXy cXcXcXcXcXcXcXcXcXcXcXcX",
"cXcXcXcXcX] .X.X@.e 1.] uXfXgXlXlX6X+X+X+X+X+X+X+X+X.X..aXkXkXhXfXgXkXlXxX..]  X.Xd   X.$.@.@.$.$. XXX_ cXcXcXcXcXcXcXcXcXcXcXcX",
"cXcXcXcX   ..X.X@.e  X] qXjXfXfXlX*XOXOXOXOX+X+XOX+XOX .=XlXlXgXgXkXlXlX1X . .+X.X^ X @.@.@.@.@.$..X.X/ cXcXcXcXcXcXcXcXcXcXcXcX",
"cXcXcXcXcX_ .X.X@.e +XX.oXzXxXlXhX XOXOXOXOXOXOXOXOXOX1.} *XxXlXlXlXkX6X .] @.OX.X( w @.$.@.@.$.1..X.Xw cXcXcXcXcXcXcXcXcXcXcXcX",
"cXcXcXcXcXy .X.X@.y +X1. .6XkXxX%X XOXOXOX@XOXOXOXOXOXOXX.] 2.6XrX6X3... . .XX.X$._ y @.@.@.@.@. X.X@.  cXcXcXcXcXcXcXcXcXcXcXcX",
"cXcXcXcXcXX  ..X@.^ XXXXo.] ] ] @.XXXXXXXXOXXXOXXXOXXXXXOXo. . .`  .] ]  .+XOX@.o. ./ $.@.@.@. X.X$.; cXcXcXcXcXcXcXcXcXcXcXcXcX",
"cXcXcXcXcXcX& $.$.y OX.XXX$.o.1.XXXXXXXXXXXXOXOXOXXXXXXX.XOX Xo. . .X. X#XXX X . .o. .@.$.$. X.X$.w   cXcXcXcXcXcXcXcXcXcXcXcXcX",
"cXcXcXcXcXcXcXX ' w ] $.@.XX.X.X.XXXXXXX/.o. ...] ..@.$.XX.XXXXXOXOXOX.X X$.@.@.@.@.@.y w ^ ^ w   cXcXcXcXcXcXcXcXcXcXcXcXcXcXcX",
"cXcXcXcXcXcXcXcX    X _ @.$..X X.X.X1...4.,.M.H <.<.H <.9.@. X X.X.X$._  .] X.@.$. .e   cXcXcXcXcXcXcXcXcXcXcXcXcXcXcXcXcXcXcXcX",
"cXcXcXcXcXcXcXcXcXcXcX  w ` $.1.$. .;.W ,.5XiXjXzXlXdXqX,.C.,.X. X$.o._  .@.X.( w @ h h cXcXcXcXcXcXcXcXcXcXcXcXcXcXcXcXcXcXcXcX",
"cXcXcXcXcXcXcXcXcXcXcXcXcX  & / ` ,.M.eXjXdXzXzXjXlXjXdXjXJ.K.H...o.o.' u & + < x i.i.z , cXcXcXcXcXcXcXcXcXcXcXcXcXcXcXcXcXcXcX",
"cXcXcXcXcXcXcXcXcXcXcXcXcXcXcXcX  1 4 7XiXwXeXiXzXlXjXeX,XC d.K 3 + @ h x p.a.s.p.c k h h cXcXcXcXcXcXcXcXcXcXcXcXcXcXcXcXcXcXcX",
"cXcXcXcXcXcXcXcXcXcXcXcXcXcXcXcXcXcXcX. d.d.N.J dXiX5X>.K + k 6 u.g.z.z.h.h.a.s.z K p.c < . cXcXcXcXcXcXcXcXcXcXcXcXcXcXcXcXcXcX",
"cXcXcXcXcXcXcXcXcXcXcXcXcXcXcXcXcXcXcXcXB.K.K.k.d.B.K.K.x u.h.z b.x.x.z.h.g.g.i.y.h.u.p.x h . cXcXcXcXcXcXcXcXcXcXcXcXcXcXcXcXcX",
"cXcXcXcXcXcXcXcXcXcXcXcXcXcXcXcXcXcXcXcXN.L.L.L.K.L.L.L.J b.h.z b.x.x.z.h.g.a.k m.g.a.p.c z , cXcXcXcXcXcXcXcXcXcXcXcXcXcXcXcXcX",
"cXcXcXcXcXcXcXcXcXcXcXcXcXcXcXcXcXcXcXcXB U.U.U.P.U.U.I.y.v.h.z b.c.x.z.h.g.a.k v.g.a.p.i.z , cXcXcXcXcXcXcXcXcXcXcXcXcXcXcXcXcX",
"cXcXcXcXcXcXcXcXcXcXcXcXcXcXcXcXcXcXcXcXcXM.Y.U.U.U.Y.S # x 6 < b.c.x.z.h.g.i.k p.z x z c z @ cXcXcXcXcXcXcXcXcXcXcXcXcXcXcXcXcX",
"cXcXcXcXcXcXcXcXcXcXcXcXcXcXcXcXcXcXcXcXcXcXN H.I.H.M cXcX^ @.u n.c.x.z.j.g.z j : o.` d 1 < , # cXcXcXcXcXcXcXcXcXcXcXcXcXcXcXcX",
"cXcXcXcXcXcXcXcXcXcXcXcXcXcXcXcXcXcXcXcXcXcXcXcXcXcXcXcXcX} #.' n.c.x.z.j.g.a.p...;XOXo.] # , # cXcXcXcXcXcXcXcXcXcXcXcXcXcXcXcX",
"cXcXcXcXcXcXcXcXcXcXcXcXcXcXcXcXcXcXcXcXcXX ( & cXcXcXcXt +.|.' 6 l.x z.a.x p.i.o.#XOX@._ j 1 % cXcXcXcXcXcXcXcXcXcXcXcXcXcXcXcX",
"cXcXcXcXcXcXcXcXcXcXcXcXcXcXcXcXX q X cXcXX ' #.t cXq } }.#.#.| d 7 s z.b ^ @ d  XOX.X@.^ j p ) cXcXcXcXcXcXcXcXcXcXcXcXcXcXcXcX",
"cXcXcXcXcXcXcXcXcXcXcXcXcXcXcXt #.#.$.y & q w  .#.' @X@X}.|./.+.( 1.( i.y ^ oX-XXXOX.X@./ d _ _ cXcXcXcXcXcXcXcXcXcXcXcXcXcXcXcX",
"cXcXcXcXcXcXcXcXcXcXcXcXcXcXw #.' y } }.@X.X#.#.|.+.}.}.|.|.|.O.) OX@.- ..;X-X-XOXOX.X .$.@.@. .cXcXcXcXcXcXcXcXcXcXcXcXcXcXcXcX",
"cXcXcXcXcXcXcXcXcXcXcXcXcXcX% w .   & .X@X}.#.|.#.#.|.#.+.' u t y _ ` OX-X#X-X+XXX X$.` .X$.@.X.cXcXcXcXcXcXcXcXcXcXcXcXcXcXcXcX",
"cXcXcXcXcXcXcXcXcXcXcXcXcXcXcX  Q X.| |.|.|.#.|.#.+.#.| t (  X+XOXoX#X+X#X+XOX.X|.$.`  ..X@. .` cXcXcXcXcXcXcXcXcXcXcXcXcXcXcXcX",
"cXcXcXcXcXcXcXcXcXcXcXcXcXcXcXQ X.` X.#.#.#.#.+.+.X.' t X u ] OX-X+XOXOXOX.X.XX.u U I U I I E %.0 cXcXcXcXcXcXcXcXcXcXcXcXcXcXcX",
"cXcXcXcXcXcXcXcXcXcXcXcXcXcXcX| / X % +.X.+.+.O.X.Q % cXcXcX_ -X;X#XOX.X/.@.Q R !.).!.!.!.~.W.W.O cXcXcXcXcXcXcXcXcXcXcXcXcXcXcX",
"cXcXcXcXcXcXcXcXcXcXcXcXcXcX& ` & X ' X.} } } ` Q cXcXcXcXy #X#X-X#XOX.Xo.R Q.).(.Q.R `.'.Q.R.Y . cXcXcXcXcXcXcXcXcXcXcXcXcXcXcX",
"cXcXcXcXcXcXcXcXcXcXcXcXcXcXcXX cXt | u % % % X cXcXcXX d 1.-X;X-X+XXX1._ %.Q.Q.Q.R ^.]._.(.E.Y cXcXcXcXcXcXcXcXcXcXcXcXcXcXcXcX",
"cXcXcXcXcXcXcXcXcXcXcXcXcXcXcXcXcXt `   cXcXcXcXcXcX; XX.X.XOXOX#X X@.@.& 8 9 L L I [.].{.).E.R.$ cXcXcXcXcXcXcXcXcXcXcXcXcXcXcX",
"cXcXcXcXcXcXcXcXcXcXcXcXcXcXcXcXcX& }   cXcXcXcXcXcX/ 1.y &  .#XOX.X$._ P $ cXcXcXU [.'._.).E.R.$ cXcXcXcXcXcXcXcXcXcXcXcXcXcXcX",
"cXcXcXcXcXcXcXcXcXcXcXcXcXcXcXcXcXcXX cXcXcXcXcXcXcX_ o.  u OX X.X$.` 9 P cXcXcXcX/.[.]._.(.E.T O cXcXcXcXcXcXcXcXcXcXcXcXcXcXcX",
"cXcXcXcXcXcXcXcXcXcXcXcXcXcXcXcXcXcXcXcXcXcXcXcXcXcX/ `    X$.e ` o.i T 8 cXcXcXcX^.].]._.(.R.T   cXcXcXcXcXcXcXcXcXcXcXcXcXcXcX",
"cXcXcXcXcXcXcXcXcXcXcXcXcXcXcXcXcXcXcXcXcXcXcXcXcXcX% X    XQ O ] ` 9 Y O cXcXcXcX`.].'._.Q.R.Y cXcXcXcXcXcXcXcXcXcXcXcXcXcXcXcX",
"cXcXcXcXcXcXcXcXcXcXcXcXcXcXcXcXcXcXcXcXcXcXcXcXcXcXcXcXcX . .q t |.` 8 cXcXcXcX0 ^.'.~.E.~.R.Y cXcXcXcXcXcXcXcXcXcXcXcXcXcXcXcX",
"cXcXcXcXcXcXcXcXcXcXcXcXcXcXcXcXcXcXcXcXcXcXcXcXcXcXcXcXcXy  .t i e } % cXcXcXcX  * I q _  .^ 0 cXcXcXcXcXcXcXcXcXcXcXcXcXcXcXcX",
"cXcXcXcXcXcXcXcXcXcXcXcXcXcXcXcXcXcXcXcXcXcXcXcXcXcXcXcXQ ! q ! Q *     cXcXcXcXcX% @..X+XXX1.X.u % cXcXcXcXcXcXcXcXcXcXcXcXcXcX",
"cXcXcXcXcXcXcXcXcXcXcXcXcXcXcXcXcXcXcXcXcXcXcXcXcXcXcXcX' #.O.| Q & cXcXcXcXcXcXcXcX) ;X-X#X+XOX Xo.) & cXcXcXcXcXcXcXcXcXcXcXcX",
"cXcXcXcXcXcXcXcXcXcXcXcXcXcXcXcXcXcXcXcXcXcXcXcXcXcXcXcXQ O.| | Q * cXcXcXcXcXcXcXcXcX-X-X;XOX#XOX.X1.` 5.0X*.  + . cXcXcXcXcXcX",
"cXcXcXcXcXcXcXcXcXcXcXcXcXcXcXcXcXcXcXcXcXcXcXcXcXcXcXcX~ O.O.{ ~ cXcXcXcXcXcXcXcXcXcX_ #X;X-X-X+X+XXX[ kXyXm r.wXaX3X3 cXcXcXcX",
"cXcXcXcXcXcXcXcXcXcXcXcXcXcXcXcXcXcXcXcXcXcXcXcXcXcXcXcX! O.O.{ ~ cXcXcXcXcXcXcXcXcXcXcXr u X.-X+X.X` 7XgXC r.e.e.v.v.w., : . cX",
"cXcXcXcXcXcXcXcXcXcXcXcXcXcXcXcXcXcXcXcXcXcXcXcXcXcXcXcX! { | ! i cXcXcXcXcXcXcXcXcXcXcXcXcXcX& ] @.5.kX=.r.e.e.e.e.t.0.s tX6.cX",
"cXcXcXcXcXcXcXcXcXcXcXcXcXcXcXcXcXcXcXcXcXcXcXcXcXcXcXcX} ! { { i cXcXcXcXcXcXcXcXcXcXcXcXcXcXcXcX; tX0Xv w.l g g v v g 9XtXf cX",
"cXcXcXcXcXcXcXcXcXcXcXcXcXcXcXcXcXcXcXcXcXcXcXcXcXcXp 5.f t ~ Q q cXcXcXcXcXcXcXcXcXcXcXcXcXcXcXcXcX7.: 7 7.7X0X9X2X=.5.hX8.cXcX",
"cXcXcXcXcXcXcXcXcXcXcXcXcXcXcXcXcXcXcXcXcXo : : X o 6.tXyXrX<X[ X cXcXcXcXcXcXcXcXcXcXcXcXcXcXcXcXcX  &.iXgXfXaXsXwX&.aXyX: cXcX",
"cXcXcXcXcXcXcXcXcXcXcXcXcXcXcXcXcXcXcXa ,XtXpXpX0X6.o < Z ,X0XyXp cXcXcXcXcXcXcXcXcXcXcXcXcXcXcXcXcX&.kXlXgXhXfXuX6.3XfX*.cXcXcX",
"cXcXcXcXcXcXcXcXcXcXcXcXcXcXcXcXcXcXp 7XpXpXpXpXpXyX<X, 0.g 5 6.- cXcXcXcXcXcXcXcXcXcXcXcXcXcXcXcX: tXlXlXkXfXfX0X5.fX8XcXcXcXcX",
"cXcXcXcXcXcXcXcXcXcXcXcXcXcXcXcXcXp 7XrXpXpXpXpXpXtX0X7.k 0.0.l   cXcXcXcXcXcXcXcXcXcXcXcXcXcXcXcX&.kXlXlXkXhXfX*.tXpX; cXcXcXcX",
"cXcXcXcXcXcXcXcXcXcXcXcXcXcXcXcXcX5.0X0XtXpXpXyXtX0X0X7X4 0.0.w.Z cXcXcXcXcXcXcXcXcXcXcXcXcXcXcXcX6.lXlXlXkXfX2X7.fX8.cXcXcXcXcX",
"cXcXcXcXcXcXcXcXcXcXcXcXcXcXcXcX. [ 8.2X9X0X0X0X0X0X0X8X=.g 0.f.4XcXcXcXcXcXcXcXcXcXcXcXcXcXcXcXcX8.lXlXlXgXyX*.fX8Xo cXcXcXcXcX",
"cXcXcXcXcXcXcXcXcXcXcXcXcXcXcXcX-.3X,X-.f =.,X7X9X9X7X2X,Xg 0.f.3XcXcXcXcXcXcXcXcXcXcXcXcXcXcXcXcX-.kXlXkXgX7.7XfX*.cXcXcXcXcXcX",
"cXcXcXcXcXcXcXcXcXcXcXcXcXcXcXcX*.3XtXpXwX7X7.*.f &.7.3X2X< q.v ,.cXcXcXcXcXcXcXcXcXcXcXcXcXcXcXcXf pXgXgX7X8.fX,XcXcXcXcXcXcXcX",
"cXcXcXcXcXcXcXcXcXcXcXcXcXcXcXcXcXo a -.=X7X0X0X7X3X5.f f , l l < cXcXcXcXcXcXcXcXcXcXcXcXcXcXcXcXcX,XgXfX-.aXfX= cXcXcXcXcXcXcX",
"cXcXcXcXcXcXcXcXcXcXcXcXcXcXcXcXcXcXcXcXcX  a &.,X8X0X0X9X<X-.a o cXcXcXcXcXcXcXcXcXcXcXcXcXcXcXcXcX= 7X7.8XlX=.cXcXcXcXcXcXcXcX",
"cXcXcXcXcXcXcXcXcXcXcXcXcXcXcXcXcXcXcXcXcXcXcXcXcX= f 5.3X9X9X2X&.cXcXcXcXcXcXcXcXcXcXcXcXcXcXcXcXcXcX= f aX7X. cXcXcXcXcXcXcXcX",
"cXcXcXcXcXcXcXcXcXcXcXcXcXcXcXcXcXcXcXcXcXcXcXcXcXcXcXcXcX= p =.a cXcXcXcXcXcXcXcXcXcXcXcXcXcXcXcXcXcXcXp 3Xp cXcXcXcXcXcXcXcXcX",
"cXcXcXcXcXcXcXcXcXcXcXcXcXcXcXcXcXcXcXcXcXcXcXcXcXcXcXcXcXcXcXcXcXcXcXcXcXcXcXcXcXcXcXcXcXcXcXcXcXcXcXcXcX  cXcXcXcXcXcXcXcXcXcX"
};
