/* XPM */
static char *result[] = {
/* columns rows colors chars-per-pixel */
"64 96 225 2 ",
"   c #020202",
".  c #0B0505",
"X  c #050B0C",
"o  c #0D0A0A",
"O  c #00040C",
"+  c #140B0B",
"@  c #1A0D0E",
"#  c #190405",
"$  c #0A1313",
"%  c #0D1C1C",
"&  c #051414",
"*  c #151414",
"=  c #1A1212",
"-  c #121B1B",
";  c #1B1A1A",
":  c #040B16",
">  c #270607",
",  c #39090C",
"<  c #241212",
"1  c #2B1616",
"2  c #2E1A1A",
"3  c #341A1A",
"4  c #3A1D1D",
"5  c #301014",
"6  c #2E0E0E",
"7  c #02102C",
"8  c #0D2727",
"9  c #122424",
"0  c #152C2C",
"q  c #1A2D2D",
"w  c #1C2425",
"e  c #142839",
"r  c #1B3434",
"t  c #1D3C3C",
"y  c #153939",
"u  c #0D363C",
"i  c #262626",
"p  c #3F2020",
"a  c #37292C",
"s  c #243B3B",
"d  c #3C3C3C",
"f  c #363435",
"g  c #2E3027",
"h  c #490708",
"j  c #480D12",
"k  c #591016",
"l  c #4D0D0C",
"z  c #680000",
"x  c #790000",
"c  c #69141A",
"v  c #741612",
"b  c #512B11",
"n  c #6B250C",
"m  c #441D22",
"M  c #631C22",
"N  c #442323",
"B  c #4B2626",
"V  c #4E2828",
"C  c #532A2A",
"Z  c #5B2E2E",
"A  c #483C3C",
"S  c #5E3030",
"D  c #462D31",
"F  c #653333",
"G  c #6A3636",
"H  c #6E3838",
"J  c #743A3A",
"K  c #7B3E3E",
"L  c #76363E",
"P  c #642930",
"I  c #53403C",
"U  c #001746",
"Y  c #001D58",
"T  c #0D2549",
"R  c #193350",
"E  c #203C46",
"W  c #223B56",
"Q  c #002266",
"!  c #012A7C",
"~  c #002671",
"^  c #143367",
"/  c #243C6A",
"(  c #1C4444",
")  c #194747",
"_  c #134D4D",
"`  c #234444",
"'  c #254B4B",
"]  c #284D4D",
"[  c #2C4646",
"{  c #384849",
"}  c #2B5454",
"|  c #2D5A5A",
" . c #265556",
".. c #315D5D",
"X. c #385757",
"o. c #1E6464",
"O. c #2E6C6C",
"+. c #276868",
"@. c #336262",
"#. c #356A6A",
"$. c #396C6C",
"%. c #3B6565",
"&. c #287474",
"*. c #337474",
"=. c #3C7575",
"-. c #357B7B",
";. c #3D7A7A",
":. c #234476",
">. c #4C4C4C",
",. c #454444",
"<. c #584B4A",
"1. c #595759",
"2. c #47585A",
"3. c #7E4040",
"4. c #7A4A4B",
"5. c #714D51",
"6. c #446A6B",
"7. c #417D7D",
"8. c #4C7474",
"9. c #597C7C",
"0. c #6B6B6B",
"q. c #666363",
"w. c #796B66",
"e. c #7C7B7B",
"r. c #747373",
"t. c #8A0201",
"y. c #950000",
"u. c #8B1307",
"i. c #BA0301",
"p. c #8F3208",
"a. c #AA3A0C",
"s. c #871822",
"d. c #971C26",
"f. c #A31D29",
"g. c #AC1F2B",
"h. c #B21F2D",
"j. c #903136",
"k. c #B9212F",
"l. c #B2212D",
"z. c #BE2230",
"x. c #C32331",
"c. c #CB2434",
"v. c #D62933",
"b. c #D03029",
"n. c #B24008",
"m. c #DA4416",
"M. c #8E3E47",
"N. c #B73746",
"B. c #C53947",
"V. c #834242",
"C. c #894646",
"Z. c #8E4848",
"A. c #924B4B",
"S. c #994F4F",
"D. c #98434D",
"F. c #9C5050",
"G. c #855358",
"H. c #847270",
"J. c #AC7170",
"K. c #AF4B57",
"L. c #DC4555",
"P. c #C5474E",
"I. c #E14C5C",
"U. c #D85866",
"Y. c #E25564",
"T. c #E56675",
"R. c #D16A70",
"E. c #022D84",
"W. c #08358F",
"Q. c #093CA3",
"!. c #1145AE",
"~. c #2F5CB7",
"^. c #264B96",
"/. c #124DC4",
"(. c #1A58D5",
"). c #1653CC",
"_. c #2F67D7",
"`. c #1E5FE1",
"'. c #286CF7",
"]. c #2D6EF0",
"[. c #275AC1",
"{. c #3A8383",
"}. c #3B8787",
"|. c #438484",
" X c #468A8A",
".X c #498D8D",
"XX c #4C9393",
"oX c #4F9999",
"OX c #429292",
"+X c #529D9D",
"@X c #6D8E8E",
"#X c #55A3A3",
"$X c #58A7A7",
"%X c #5AABAB",
"&X c #888888",
"*X c #9D9D9D",
"=X c #929292",
"-X c #859E9E",
";X c #A2988E",
":X c #98ADAD",
">X c #8CA3A3",
",X c #A3A3A3",
"<X c #ABABAB",
"1X c #A9BABA",
"2X c #B3B3B3",
"3X c #BABABA",
"4X c #BBB6B3",
"5X c #B8B2A2",
"6X c #CBC4B6",
"7X c #B4C4C4",
"8X c #CBCBCB",
"9X c #C3C4C4",
"0X c #D2D2D2",
"qX c #DADDDD",
"wX c #FBF1DC",
"eX c #DEE4E4",
"rX c #E5E5E5",
"tX c #EBEBEB",
"yX c #E5E9E9",
"uX c #FEF6E4",
"iX c #F3F3F3",
"pX c #FDFDFD",
"aX c #FCFAF4",
"sX c #E4D9C7",
"dX c None",
/* pixels */
"dXdXdXdXdXdXdXdXdXdXdXdXdXdXdXdXdXdXdXdXdXdXdXdXdXdXdXdXdXdXdXdXdXdXdXdXdXdXdXdXdXdXdXdXdXdXdXdXdXdXdXdXdXdXdXdXdXdXdXdXdXdXdXdX",
"dXdXdXdXdXdXdXdXdXdXdXdXdXdXdXdXdXdXdXdXdXdXdXdXdXdXdXdXdXdXdXdXdXdXdXdXdXdXdXdXdXdXdXdXdXdXdXdXdXdXdXdXdXdXdXdXdXdXdXdXdXdXdXdX",
"dXdXdXdXdXdXdXdXdXdXdXdXdXdXdXdXdXdXdXdXdXdXdXdXdXdXdXdXdXdXdXdXdXdXdXdXdXdXdXdXdXdXdXdXdXdXdXdXdXdXdXdXdXdXdXdXdXdXdXdXdXdXdXdX",
"dXdXdXdXdXdXdXdXdXdXdXdXdXdXdXdXdXdXdXdXdXdXdXdXdXdXdXdXdXdXdXdXdXdXdXdXdXdXdXdXdXdXdXdXdXdXdXdXdXdXdXdXdXdXdXdXdXdXdXdXdXdXdXdX",
"dXdXdXdXdXdXdXdXdXdXdXdXdXdXdXdXdXdXdXdXdXdXdXdXdXdXdXdXdXdXdXdXdXdXdXdXdXdXdXdXdXdXdXdXdXdXdXdXdXdXdXdXdXdXdXdXdXdXdXdXdXdXdXdX",
"dXdXdXdXdXdXdXdXdXdXdXdXdXdXdXdXdXdXdXdXdXdXdXdXdXdXdXdXdXdXdXdXdXdXdXdXdXdXdXdXdXdXdXdXdXdXdXdXdXdXdXdXdXdXdXdXdXdXdXdXdXdXdXdX",
"dXdXdXdXdXdXdXdXdXdXdXdXdXdXdXdXdXdXdXdXdXdXdXdXdXdXdXdXdXdXdXdXdXdXdXdX  dXdXdXdXdXdXdXdXdXdXdXdXdXdXdXdXdXdXdXdXdXdXdXdXdXdXdX",
"dXdXdXdXdXdXdXdXdXdXdXdXdXdXdXdXdXdXdXdXdXdXdXdXdXdXdXdXdXdXdXdXdXdXdXdX  dXdXdXdXdXdXdXdXdXdXdXdXdXdXdXdXdXdXdXdXdXdXdXdXdXdXdX",
"dXdXdXdXdXdXdXdXdXdXdXdXdXdXdXdXdXdXdXdXdXdXdXdXdXdXdXdXdXdXdXdXdXdXdXdX@ # dXdXdXdXdXdXdXdXdXdXdXdXdXdXdXdXdXdXdXdXdXdXdXdXdXdX",
"dXdXdXdXdXdXdXdXdXdXdXdXdXdXdXdXdXdX        + < < < @ . .     dXdXdXdXdX+ B   dXdXdXdXdXdXdXdXdXdXdXdXdXdXdXdXdXdXdXdXdXdXdXdXdX",
"dXdXdXdXdXdXdXdXdXdXdXdXdXdX  @ 4 C F V.A.S.S.S.S.S.A.F.A.C.J Z p < . dX  G 3 dXdXdXdXdXdXdXdXdXdXdXdXdXdXdXdXdXdXdXdXdXdXdXdXdX",
"dXdXdXdXdXdXdXdXdXdXdX. < B J C.A.Z.Z.C.V.V.V.V.V.V.V.V.V.V.C.C.A.C.K C < Z G . dXdXdXdXdXdXdXdXdXdXdXdXdXdXdXdXdXdXdXdXdXdXdXdX",
"dXdXdXdXdXdXdXdXdX  1 F A.A.C.K K K K K j.V.V.V.V.V.V.3.K K K K K K V.Z.A.J J Z N N N 4 @     dXdXdXdXdXdXdXdXdXdXdXdXdXdXdXdXdX",
"dXdXdXdXdXdXdXdXdXo F K J J K K K 3.V.V.4.V.V.V.V.V.V.V.V.V.V.K K J J K K J H C.3.J C 1 . dXdXdXdXdXdXdXdXdXdXdXdXdXdXdXdXdXdXdX",
"dXdXdXdXdXdXdXdX  . 4 J K K K K K 3.3.V.V.V.C.C.C.V.V.V.V.K K K K K J J J J G G F p .   dXdXdXdXdXdXdXdXdXdXdXdXdXdXdXdXdXdXdXdX",
"dXdXdXdXdX  + 3 Z K K K J J K J K 3.3.3.V.V.V.V.V.V.V.V.V.K K K K J J J J G J H J K J 3 . dXdXdXdXdXdXdXdXdXdXdXdXdXdXdXdXdXdXdX",
"dXdXdXdXdXdXo 4 C Z F J K K K K K K K V.3.V.j.4.V.V.3.V.3.K K K J K J K 3.K 3.A.S.Z.K Z.V .   dXdXdXdXdXdXdXdXdXdXdXdXdXdXdXdXdX",
"dXdXdXdXdXdX  @ C Z.S.F.F.F.S.A.A.Z.Z.C.C.C.C.V.V.C.C.V.C.C.Z.Z.A.A.F.F.Z.S V.F.F.F.G .   dXdXdXdXdXdXdXdXdXdXdXdXdXdXdXdXdXdXdX",
"dXdXdX  + m J Z.A.F.F.F.F.F.F.F.S.F.F.F.F.F.F.F.S.V.F.F.F.F.F.Z.3.F.F.C.C C C.S.A.K G B   dXdXdXdXdXdXdXdXdXdXdXdXdXdXdXdXdXdXdX",
"dX    . 4 B C Z F K V.A.A.F.F.F.F.F.F.F.F.F.F.F.V.S A.F.F.F.C.C J S.3.C C C J G F F F G 1 dXdXdXdXdXdXdXdXdXdXdXdXdXdXdXdXdXdXdX",
"dXdXdX  + 4 H A.S.K G G J J K J C.A.A.F.S.V.F.S.Z C G F.F.V.C C G G C C V C Z G G F F G S . dXdXdXdXdXdXdXdXdXdXdXdXdXdXdXdXdXdX",
"dXdXdX+ C F F F F F G F F G G C F H H H Z C H G C C C F F C C C C C V 2 B C C F F F F F F < dXdXdXdXdXdXdXdXdXdXdXdXdXdXdXdXdXdX",
"dXdXdXdX. p C Z G F F C F G Z C C G G C C C F C C C C C C C C C C V < + B C Z F F S F F F N dXdXdXdXdXdXdXdXdXdXdXdXdXdXdXdXdXdX",
"dXdXdX  + N V.Z.3.F Z C Z S C C C S C C C C C C C N C C C C 2 C V = $ < . B Z Z C Z F G F Z o dXdXdXdXdXdXdXdXdXdXdXdXdXdXdXdXdX",
"dX  + C G G G F F F C C C C N 4 C C C V B V C V 2 + B C N + @ V * | 9 % + C C C C S G F F F # dXdXdXdXdXdXdXdXdXdXdXdXdXdXdXdXdX",
"dXdXdX  < N C G F Z C B C B + < C C N @ @ C B @ } ` 4 < r @.@ $ ;.|.@.;.< C C C C F F S S F < dXdXdXdXdXdXdXdXdXdXdXdXdXdXdXdXdX",
"dXdXdXdXdX  F G F C N . N = } * C < q ;.- 4 ; ;.#X@.$ #.+X..- |.+X+X+X%.4 C N 3 C Z F Z F G < dXdXdXdXdXdXdXdXdXdXdXdXdXdXdXdXdX",
"dXdXdXdXdX< H Z C B * s + | oX% * @.+X#X9 r XX$X$XoXXX#X#X@.|.#X+X+X+X' 1 @ $ < C C Z C F F 1 dXdXdXdXdXdXdXdXdXdXdXdXdXdXdXdXdX",
"dXdXdXdXdXB Z C C < %.;.` oX+X%..X+X#X#X|.+X$X%X$X%X%X%X%X%X#X#X#X+X+X0 s ..' 3 C C C C F F 1 dXdXdXdXdXdXdXdXdXdXdXdXdXdXdXdXdX",
"dXdXdXdX. B 1 N B s +XoXoX+X+X#X#X#X#X$X$X%X$X%X%X%X%X%X%X%X#X#X+X+X X} #.;.t p C C C C F F < dXdXdXdXdXdXdXdXdXdXdXdXdXdXdXdXdX",
"dXdXdXdX  .   1 B s +XoXXX+X+X+X#X$X#X$X$X%X%X%X%X%X%X%X%X%X%X$XXXoX@.] ' %.t N C C C C Z F < dXdXdXdXdXdXdXdXdXdXdXdXdXdXdXdXdX",
"dXdXdXdXdXdXdX+ C [ +X+X| |.+X#X#X#X$X$X$X%X%X%X%X%X%X%X%X%X%X$X=..X@.' ] 7.q B @ C C C C S + dXdXdXdXdXdXdXdXdXdXdXdXdXdXdXdXdX",
"dXdXdXdXdXdXdX  B [  X=....X#X%X%X$X#X$X$X$X%X%X%X%X%X%X$X$X#X#X+X+X.X%.*.XXw 2 . V C C C B o dXdXdXdXdXdXdXdXdXdXdXdXdXdXdXdXdX",
"dXdXdXdXdXdXdX  m X.%.} XX+X$X%X%X$X#X$X$X#X$X$X%X%X%X$X$XXX7.#.%.$.=. X+X X- - % B C C N 4 . dXdXdXdXdXdXdXdXdXdXdXdXdXdXdXdXdX",
"dXdXdXdXdXdXdXdX< X.$.} XX+X$X%X%X%X#X$X#X#X$X$X%X%X%X#X|.8.-X7X7X>X8.| 7.7.% @.9 N V < .     dXdXdXdXdXdXdXdXdXdXdXdXdXdXdXdXdX",
"dXdXdXdXdXdXdXdXo 6.+X|.+X+X+X#X$X%X+X#XoX#X#X$X$X%X#X X9.qXpXpXpXpXeX@X..| ] .Xq N N     X     dXdXdXdXdXdXdXdXdXdXdXdXdXdXdXdX",
"dXdXdXdXdXdXdX$ $ %.#XoX|.;.7.+X#X#X+XoX} 7.#X#X#X#XoX6.qXiXtXpXpXpXpXyX6.} |.XXt 4 3 0 |. X|.@.% dXdXdXdXdXdXdXdXdXdXdXdXdXdXdX",
"dXdXdXdXdXdX9 .X' ] #X|.$.:X7X@XXX+X+X+X=. X+X#X#X+X|.@XpXrXtXpXpXpXpXpX-X@.=.XX] 4 < }  X X XXX.X0 dXdXdXdXdXdXdXdXdXdXdXdXdXdX",
"dXdXdXdXdX9 .X.X#.` +X@.7XpXpXpX@XoX XXX+X+X#X+X+X+X=.1XiXrXrXaXpXpXpXpX8X@.#.XX@.1 + $.;.7.|.|..X|.$ dXdXdXdXdXdXdXdXdXdXdXdXdX",
"dXdXdXdX  #..X X%.` .X6.yXtXpXpX7XXXXXoX+X+X+X+X+XoX$.7XtXrXrXtXaXaXpXpX0X..@.oX$.= X =.=.=.;.;. XXX} dXdXdXdXdXdXdXdXdXdXdXdXdX",
"dXdXdXdXX XX|.|...` |.9.wXyXpXpXyXXXoXoXoXoXoX+XoXoX$.:XiXrXrXrXyXtXpXpX1X..@.oX=.. 9 =.=.=.;.=.|. X=.  dXdXdXdXdXdXdXdXdXdXdXdX",
"dXdXdXdX% XX X7.| ] 7.9.tXyXtXaXeX.XoXXXoXoXoXoXoXoX=.9.iXpXiXyXyXiXpXpX@X@.#.XX7.X r =.=.;.=.=.|.|.|.  dXdXdXdXdXdXdXdXdXdXdXdX",
"dXdXdXdX% XX X;.` ..|.6.yXiXyXaX1X XXXXXoXXXXXXXXXXX|.@.1XpXaXiXpXpXpX7X@...7..X;.$ ' =.=.=.=.=.|. X=.  dXdXdXdXdXdXdXdXdXdXdXdX",
"dXdXdXdX  |. X|.0 =.|.@.>XaXpXiX8..XXXXXXXXXXXXXXXXXXX$.@.>XyXpXpXtX:X@.@.#.XX X=.% @.=.=.=.;.=. X X}   dXdXdXdXdXdXdXdXdXdXdXdX",
"dXdXdXdX  |  X X% |..X$.%.@X:X8.^..XXXXXXXXXXX.XXX.XXX.X%.@.%.9.9.%.@...@..X.X|.=.r =.=.=.=.;.|. X;.9 dXdXdXdXdXdXdXdXdXdXdXdXdX",
"dXdXdXdXdX$ *. X% |. X.X%...%.=.XX.X.X.X.X.XXX X.X.X.X.X X$...@.@.@.@.#.XXXX7.} =.} ;.=.;.=.;. X Xr   dXdXdXdXdXdXdXdXdXdXdXdXdX",
"dXdXdXdXdXdX$ #.t }  X=..X.X.X.X.X.X.X.XXX.X|.7.|. XXX X XXX.X|.7.|.XXoX X7.=.$.=.$.=.#.;.|.|.=.9   dXdXdXdXdXdXdXdXdXdXdXdXdXdX",
"dXdXdXdXdXdXdX. % $ #...|. X X X X.X7.$.%.2.1.1.1.1.6.=. X X X X X X7.=.7.$.=.=.=.=.` O % 9 %   dXdXdXdXdXdXdXdXdXdXdXdXdXdXdXdX",
"dXdXdXdXdXdXdXdXdXdX  t | |.|. X7.%.2.4.M.5.H.;X4X;XH.J G.2.7. X X7.| ] #.#.=.=.| % # dXdXdXdXdXdXdXdXdXdXdXdXdXdXdXdXdXdXdXdXdX",
"dXdXdXdXdXdXdXdXdXdXdX  $ ` $.$.@.1.H *XsXuXpXuXpXaXwX6XH.M.5.=.=.=.@.| $.| E & > c c , dXdXdXdXdXdXdXdXdXdXdXdXdXdXdXdXdXdXdXdX",
"dXdXdXdXdXdXdXdXdXdXdXdXdXdX  % f j.;XaXwXuXpXuXpXuXwXaX5XN.L.Z.} ' r - + , c d.d.s.c k # dXdXdXdXdXdXdXdXdXdXdXdXdXdXdXdXdXdXdX",
"dXdXdXdXdXdXdXdXdXdXdXdXdXdXdXdXdX. = <.5.4.G.6XpXaX6XK ; 6 < @ j c s.f.g.l.g.d.j n v j # dXdXdXdXdXdXdXdXdXdXdXdXdXdXdXdXdXdXdX",
"dXdXdXdXdXdXdXdXdXdXdXdXdXdXdXdXdXdXdXM L.L.B.H.H.V.j.N.# p.d.n.c.c.x.z.k.h.g.k n.k.f.s.c # dXdXdXdXdXdXdXdXdXdXdXdXdXdXdXdXdXdX",
"dXdXdXdXdXdXdXdXdXdXdXdXdXdXdXdXdXdXdXP I.I.B.B.L.L.I.P.n b.d.a.v.c.x.z.k.l.d.n b.z.f.d.c j dXdXdXdXdXdXdXdXdXdXdXdXdXdXdXdXdXdX",
"dXdXdXdXdXdXdXdXdXdXdXdXdXdXdXdXdXdXdXdXL.I.I.I.Y.L.Y.M.n.x.d.p.v.c.c.z.k.l.c n.x.l.f.d.c l . dXdXdXdXdXdXdXdXdXdXdXdXdXdXdXdXdX",
"dXdXdXdXdXdXdXdXdXdXdXdXdXdXdXdXdXdXdXdXK.Y.Y.Y.Y.Y.U.m a.k.s.p.v.c.x.z.k.l.c p.k.s.v d.c j . dXdXdXdXdXdXdXdXdXdXdXdXdXdXdXdXdX",
"dXdXdXdXdXdXdXdXdXdXdXdXdXdXdXdXdXdXdXdXdXD.R.T.T.K.Z . # g g b v.v.x.x.k.g., > f s ` , < , > dXdXdXdXdXdXdXdXdXdXdXdXdXdXdXdXdX",
"dXdXdXdXdXdXdXdXdXdXdXdXdXdXdXdXdXdXdXdXdXdXm F F dXdXdX  }.-.b m.v.c.x.k.g.d.k +X+X X[ q # j dXdXdXdXdXdXdXdXdXdXdXdXdXdXdXdXdX",
"dXdXdXdXdXdXdXdXdXdXdXdXdXdXdXdXdXdXdXdXdX$ 0 dXdXdXdXdX$ @.*.g m.c.l.x.f.g.f.M +X+X X=.a j < X dXdXdXdXdXdXdXdXdXdXdXdXdXdXdXdX",
"dXdXdXdXdXdXdXdXdXdXdXdXdXdXdXdX9 9 dXdXdX% O.] dXdXdX( O.{.{.t b n M z.B p 4 { |. X|.=.i j [ 0 dXdXdXdXdXdXdXdXdXdXdXdXdXdXdXdX",
"dXdXdXdXdXdXdXdXdXdXdXdXdXdXdX( -.-. .& X   r -.] t *.OXOX-.-.O.| ] D d.w }  XoXoXXX;.#.' w ..t dXdXdXdXdXdXdXdXdXdXdXdXdXdXdXdX",
"dXdXdXdXdXdXdXdXdXdXdXdXdXdXt *.' ` *.7.{.*.@.-.-.-.OX}.OX^.O.+.%.6.E ,. X$X$XoXXX X|.} ;.=.=.] dXdXdXdXdXdXdXdXdXdXdXdXdXdXdXdX",
"dXdXdXdXdXdXdXdXdXdXdXdXdXdX0 0   O ] OX}.}.-.{.-.{.}.{.] E '  .' ] |.XX$X+X+XXX X|.;.#. X;.=.| dXdXdXdXdXdXdXdXdXdXdXdXdXdXdXdX",
"dXdXdXdXdXdXdXdXdXdXdXdXdXdXdX$  .| @.}.}.-.{.-.-.-.-.O.r XXoX+X#XoXoX+XoXXXXX X7.=.] ;.7.#...' dXdXdXdXdXdXdXdXdXdXdXdXdXdXdXdX",
"dXdXdXdXdXdXdXdXdXdXdXdXdXdXdX+.#.*.-.-.-.-.-.&.*.*.+.) $ q =.#X+XoX.XXX.X X;. .E e T E W W / :.@ dXdXdXdXdXdXdXdXdXdXdXdXdXdXdX",
"dXdXdXdXdXdXdXdXdXdXdXdXdXdXr O.9 X ( *.*.&.-.*.O.) 9 dXdX] +X+X#XoX.X|.=. .R ^._._.~.~.[.!.W.! . dXdXdXdXdXdXdXdXdXdXdXdXdXdXdX",
"dXdXdXdXdXdXdXdXdXdXdXdXdXdXt '   0 #.O.@.@.@.@.' dXdXdXX +X$X$X+XoX X;.R !.(.(.).W./ _.`.Q.! Y dXdXdXdXdXdXdXdXdXdXdXdXdXdXdXdX",
"dXdXdXdXdXdXdXdXdXdXdXdXdXdX    dX|  .r 0 y 0 $ dXdXq ;.oX#X+X#XoX X X$.^ ).)./.!./ ].'.`./.E.7 dXdXdXdXdXdXdXdXdXdXdXdXdXdXdXdX",
"dXdXdXdXdXdXdXdXdXdXdXdXdXdXdXdXdX| 0 dXdXdXdXdXdX0 |.=...|.oX+XXX=.;.` U Y Q Q U _.'.].(./.E.Y dXdXdXdXdXdXdXdXdXdXdXdXdXdXdXdX",
"dXdXdXdXdXdXdXdXdXdXdXdXdXdXdXdXdX) r dXdXdXdXdXdXt |.9   ] oX.X.X;.| 7 U O     W ].'.`.).!.E.Y dXdXdXdXdXdXdXdXdXdXdXdXdXdXdXdX",
"dXdXdXdXdXdXdXdXdXdXdXdXdXdXdXdXdX$ X dXdXdXdXdXdX` ;.  ] XX=.=.|. .T E.~ dXdXo ].].].`./.W.E.7 dXdXdXdXdXdXdXdXdXdXdXdXdXdXdXdX",
"dXdXdXdXdXdXdXdXdXdXdXdXdXdXdXdXdXdXdXdXdXdXdXdXdX9 t O ;.| e E ;.T Q.E.7 dXdX^.].].`.(.!.E.Q O dXdXdXdXdXdXdXdXdXdXdXdXdXdXdXdX",
"dXdXdXdXdXdXdXdXdXdXdXdXdXdXdXdXdXdXdXdXdXdXdXdXdXdXdXdX$.} T E =.T E.! : dXX R '.`.`.!.Q.! U dXdXdXdXdXdXdXdXdXdXdXdXdXdXdXdXdX",
"dXdXdXdXdXdXdXdXdXdXdXdXdXdXdXdXdXdXdXdXdXdXdXdXdXdXdXdXt ;.8 % $.=.T Q dXdXdX: e T :.^ Q ~ : dXdXdXdXdXdXdXdXdXdXdXdXdXdXdXdXdX",
"dXdXdXdXdXdXdXdXdXdXdXdXdXdXdXdXdXdXdXdXdXdXdXdXdXdXdXdX  ( ) o.8 y % U dXdXdXr {.|. X=.] 7 dXdXdXdXdXdXdXdXdXdXdXdXdXdXdXdXdXdX",
"dXdXdXdXdXdXdXdXdXdXdXdXdXdXdXdXdXdXdXdXdXdXdXdXdXdXdXdXdX) +.&.o.8 dX  dXdXdX9 XX#X+XXX|.=.` & dXdXdXdXdXdXdXdXdXdXdXdXdXdXdXdX",
"dXdXdXdXdXdXdXdXdXdXdXdXdXdXdXdXdXdXdXdXdXdXdXdXdXdXdXdXdX&.&.&.o.u dXdXdXdXdXdX.X+X$X+XoXXX7.#.s O dXdXdXdXdXdXdXdXdXdXdXdXdXdX",
"dXdXdXdXdXdXdXdXdXdXdXdXdXdXdXdXdXdXdXdXdXdXdXdXdXdXdXdXdX+.&.&.o.u dXdXdXdXdXdX} $X%X#X+X+XXX.X=.>.8Xw.dX. o dXdXdXdXdXdXdXdXdX",
"dXdXdXdXdXdXdXdXdXdXdXdXdXdXdXdXdXdXdXdXdXdXdXdXdXdXdXdXdX) &.o.o.) dXdXdXdXdXdXdX] #.+X#XoXXXXX` 0XyX<.x J.6Xe.o dXdXdXdXdXdXdX",
"dXdXdXdXdXdXdXdXdXdXdXdXdXdXdXdXdXdXdXdXdXdXdXdXdXdXdXdXdX) &.&.o.) X dXdXdXdXdXdXdXdX- | XXXX| ,XrX<.u.i.i.P.R.d.> o dXdXdXdXdX",
"dXdXdXdXdXdXdXdXdXdXdXdXdXdXdXdXdXdXdXdXdXdXdXdXdXdXdXdXdXy &.+.o.u & dXdXdXdXdXdXdXdXdXdXr } 1.iXr.u.i.i.i.i.i.y.h e.>.dXdXdXdX",
"dXdXdXdXdXdXdXdXdXdXdXdXdXdXdXdXdXdXdXdXdXdXdXdXdXdXdXdXdXy o.o.o._ & dXdXdXdXdXdXdXdXdXdXdXdX8X,Xn t.z h z x y.z r.8X0.dXdXdXdX",
"dXdXdXdXdXdXdXdXdXdXdXdXdXdXdXdXdXdXdXdXdXdXdXdXdXdXdXdXdX9 ) _  ._ % dXdXdXdXdXdXdXdXdXdXdXdX1.; I H.,X*X=Xe.A A qX<Xo dXdXdXdX",
"dXdXdXdXdXdXdXdXdXdXdXdXdXdXdXdXdXdXdXdXdXdXdXdXdXdXdXdX,.*X&Xr.1.{ X dXdXdXdXdXdXdXdXdXdXdXdX. e.rXrXrXqX8X9X>.9X8X,.dXdXdXdXdX",
"dXdXdXdXdXdXdXdXdXdXdXdXdXdXdXdXdXdXdXdXdXdXdXdX; i i + ,.e.*X2X8X6X>.dXdXdXdXdXdXdXdXdXdXdXdXe.aXpXtXyXrX8Xe.&XrX0.dXdXdXdXdXdX",
"dXdXdXdXdXdXdXdXdXdXdXdXdXdXdXdXdXdXdXdXdXdXw 0.,X3X4X&Xd > h j A r.,.dXdXdXdXdXdXdXdXdXdXdXf iXpXpXiXrXrX,Xq.rX<X* dXdXdXdXdXdX",
"dXdXdXdXdXdXdXdXdXdXdXdXdXdXdXdXdXdXdXdXdXd <X0X0X0X0X0X3X1.h y.y.z # dXdXdXdXdXdXdXdXdXdXdXr.pXpXpXiXtX0X>.8X0X; dXdXdXdXdXdXdX",
"dXdXdXdXdXdXdXdXdXdXdXdXdXdXdXdXdXdXdXdXi ,X8X0X0X0X0X0X3X4X,.x t.t.j.o dXdXdXdXdXdXdXdXdXdX=XpXpXpXiXrX0.*XqX1.dXdXdXdXdXdXdXdX",
"dXdXdXdXdXdXdXdXdXdXdXdXdXdXdXdXdXdXdXdX&X3X9X8X0X0X8X3X3X2X=X6 t.y.J.>.dXdXdXdXdXdXdXdXdXdX*XpXpXpXrX<Xr.rX=XdXdXdXdXdXdXdXdXdX",
"dXdXdXdXdXdXdXdXdXdXdXdXdXdXdXdXdXdXdX* ,X3X3X9X9X3X3X2X3X2X>XA x t.J.0.dXdXdXdXdXdXdXdXdXdXe.pXpXtXqX>.0X9Xg dXdXdXdXdXdXdXdXdX",
"dXdXdXdXdXdXdXdXdXdXdXdXdXdXdXdXdXdXdX; d 1.0.r.&X*X,X<X<X,X,XH.h t.u.<.dXdXdXdXdXdXdXdXdXdX>.rXrXqX0.3XqX,.dXdXdXdXdXdXdXdXdXdX",
"dXdXdXdXdXdXdXdXdXdXdXdXdXdXdXdXdXdXdXr.2X3X3X=X0.1.,.f f ,.1.r.> z z , dXdXdXdXdXdXdXdXdXdX- 3XrX=X&XpXr.dXdXdXdXdXdXdXdXdXdXdX",
"dXdXdXdXdXdXdXdXdXdXdXdXdXdXdXdXdXdXdX,.e.,X2X<X4X2X3X2X2X<X&X0.<.A 2 = dXdXdXdXdXdXdXdXdXdXdXg <Xq.iX8X; dXdXdXdXdXdXdXdXdXdXdX",
"dXdXdXdXdXdXdXdXdXdXdXdXdXdXdXdXdXdXdXdXdXdXo * w f 1.r.&X>X2X4X3X4X*X0.dXdXdXdXdXdXdXdXdXdXdXdXo <X0Xf dXdXdXdXdXdXdXdXdXdXdXdX",
"dXdXdXdXdXdXdXdXdXdXdXdXdXdXdXdXdXdXdXdXdXdXdXdXdXdXdXdXdXdX  = g E ,.d dXdXdXdXdXdXdXdXdXdXdXdXdX>.>.dXdXdXdXdXdXdXdXdXdXdXdXdX",
"dXdXdXdXdXdXdXdXdXdXdXdXdXdXdXdXdXdXdXdXdXdXdXdXdXdXdXdXdXdXdXdXdXdXdXdXdXdXdXdXdXdXdXdXdXdXdXdXdXdXdXdXdXdXdXdXdXdXdXdXdXdXdXdX"
};
