/* XPM */
static char *result[] = {
/* columns rows colors chars-per-pixel */
"64 96 234 2 ",
"   c #020202",
".  c #0B0505",
"X  c #050B0B",
"o  c #0C0B0B",
"O  c #00050E",
"+  c #140A0A",
"@  c #1C0E0E",
"#  c #180406",
"$  c #0A1313",
"%  c #0D1B1B",
"&  c #071717",
"*  c #131313",
"=  c #1D1212",
"-  c #121D1D",
";  c #191A1A",
":  c #020918",
">  c #28090A",
",  c #330B0D",
"<  c #390305",
"1  c #231212",
"2  c #2A1515",
"3  c #2B1A1A",
"4  c #331A1A",
"5  c #3A1A1B",
"6  c #000C26",
"7  c #041126",
"8  c #001337",
"9  c #0B2A2A",
"0  c #132425",
"q  c #152B2B",
"w  c #1C2626",
"e  c #162537",
"r  c #1B3434",
"t  c #1C3A3A",
"y  c #163636",
"u  c #0D343A",
"i  c #282727",
"p  c #3B2626",
"a  c #233B3B",
"s  c #3B3B3B",
"d  c #353534",
"f  c #303230",
"g  c #470404",
"h  c #470D11",
"j  c #581419",
"k  c #4B1410",
"l  c #640400",
"z  c #760100",
"x  c #69141A",
"c  c #71161B",
"v  c #721000",
"b  c #482812",
"n  c #742708",
"m  c #432222",
"M  c #4B2626",
"N  c #4F2828",
"B  c #532A2A",
"V  c #5A2E2E",
"C  c #55252A",
"Z  c #5F3030",
"A  c #523C3C",
"S  c #4F3334",
"D  c #643232",
"F  c #6B3636",
"G  c #6E3838",
"H  c #743B3B",
"J  c #7B3E3E",
"K  c #76353D",
"L  c #732A30",
"P  c #7E1720",
"I  c #00194B",
"U  c #152846",
"Y  c #062157",
"T  c #142C56",
"R  c #132B49",
"E  c #042465",
"W  c #00297C",
"Q  c #002673",
"!  c #1C3B79",
"~  c #213862",
"^  c #203F40",
"/  c #603C41",
"(  c #184545",
")  c #175858",
"_  c #0E4545",
"`  c #234343",
"'  c #254B4C",
"]  c #294D4D",
"[  c #294447",
"{  c #2B5454",
"}  c #2D5B5B",
"|  c #245555",
" . c #315D5D",
".. c #385454",
"X. c #384848",
"o. c #1E6565",
"O. c #2E6464",
"+. c #236C6C",
"@. c #2A6A6A",
"#. c #336363",
"$. c #356A6A",
"%. c #396D6D",
"&. c #3A6464",
"*. c #297575",
"=. c #337474",
"-. c #3C7575",
";. c #357C7C",
":. c #3E7A7A",
">. c #376C70",
",. c #29447C",
"<. c #484949",
"1. c #485B5D",
"2. c #5B5B5B",
"3. c #565556",
"4. c #574D4C",
"5. c #7E4040",
"6. c #764447",
"7. c #6B5355",
"8. c #466869",
"9. c #417E7E",
"0. c #457272",
"q. c #557A7A",
"w. c #636363",
"e. c #696969",
"r. c #797979",
"t. c #766965",
"y. c #455F61",
"u. c #8D0000",
"i. c #970000",
"p. c #801C1A",
"a. c #A80202",
"s. c #BC0200",
"d. c #AA1307",
"f. c #96310E",
"g. c #AA3C09",
"h. c #881A23",
"j. c #971B26",
"k. c #A61E2A",
"l. c #B01F2D",
"z. c #993439",
"x. c #B2212D",
"c. c #B9212F",
"v. c #BD2230",
"b. c #A02F3B",
"n. c #C32331",
"m. c #CC2434",
"M. c #D12B2D",
"N. c #C73D14",
"B. c #BB430A",
"V. c #E24816",
"C. c #8B3D45",
"Z. c #AE3945",
"A. c #CD3D4B",
"S. c #834242",
"D. c #8A4646",
"F. c #8E4949",
"G. c #944B4B",
"H. c #994E4E",
"J. c #9C5050",
"K. c #8C535A",
"L. c #89746F",
"P. c #DD4757",
"I. c #C74657",
"U. c #E04C5B",
"Y. c #C95965",
"T. c #E25362",
"R. c #E56372",
"E. c #D27C7C",
"W. c #09358C",
"Q. c #0B3FA7",
"!. c #164CBA",
"~. c #0E42AA",
"^. c #3459A6",
"/. c #204691",
"(. c #134EC5",
"). c #1A58D5",
"_. c #1853CA",
"`. c #275ECB",
"'. c #356AD3",
"]. c #1F61E4",
"[. c #2061E4",
"{. c #276AF3",
"}. c #2C72FE",
"|. c #3876F4",
" X c #3A8282",
".X c #3D8888",
"XX c #438383",
"oX c #468A8A",
"OX c #498D8D",
"+X c #4C9494",
"@X c #4F9898",
"#X c #429191",
"$X c #519C9C",
"%X c #5A8686",
"&X c #768A8A",
"*X c #6B8A8A",
"=X c #55A3A3",
"-X c #58A7A7",
";X c #5AABAB",
":X c #8D8D8D",
">X c #838383",
",X c #959595",
"<X c #9C9C9C",
"1X c #919592",
"2X c #A68986",
"3X c #8AA2A2",
"4X c #98ADAD",
"5X c #A4A4A4",
"6X c #ADADAD",
"7X c #BABABA",
"8X c #B3B3B3",
"9X c #B0BAB6",
"0X c #C9C3B2",
"qX c #B9C7C7",
"wX c #C4C4C4",
"eX c #CDCDCD",
"rX c #C1CDCD",
"tX c #D3D3D3",
"yX c #DCDCDC",
"uX c #D4DCDC",
"iX c #CAD4D4",
"pX c #F3EAD8",
"aX c #DCE3E3",
"sX c #E5E5E5",
"dX c #EBECEC",
"fX c #E5E9E9",
"gX c #FFF8E8",
"hX c #F4F4F4",
"jX c #FEFEFD",
"kX c #FFFCF6",
"lX c #EEF1F1",
"zX c #E4DBC6",
"xX c #D19D9D",
"cX c None",
/* pixels */
"cXcXcXcXcXcXcXcXcXcXcXcXcXcXcXcXcXcXcXcXcXcXcXcXcXcXcXcXcXcXcXcXcXcXcXcXcXcXcXcXcXcXcXcXcXcXcXcXcXcXcXcXcXcXcXcXcXcXcXcXcXcXcXcX",
"cXcXcXcXcXcXcXcXcXcXcXcXcXcXcXcXcXcXcXcXcXcXcXcXcXcXcXcXcXcXcXcXcXcXcXcXcXcXcXcXcXcXcXcXcXcXcXcXcXcXcXcXcXcXcXcXcXcXcXcXcXcXcXcX",
"cXcXcXcXcXcXcXcXcXcXcXcXcXcXcXcXcXcXcXcXcXcXcXcXcXcXcXcXcXcXcXcXcXcXcXcXcXcXcXcXcXcXcXcXcXcXcXcXcXcXcXcXcXcXcXcXcXcXcXcXcXcXcXcX",
"cXcXcXcXcXcXcXcXcXcXcXcXcXcXcXcXcXcXcXcXcXcXcXcXcXcXcXcXcXcXcXcXcXcXcXcXcXcXcXcXcXcXcXcXcXcXcXcXcXcXcXcXcXcXcXcXcXcXcXcXcXcXcXcX",
"cXcXcXcXcXcXcXcXcXcXcXcXcXcXcXcXcXcXcXcXcXcXcXcXcXcXcXcXcXcXcXcXcXcXcXcXcXcXcXcXcXcXcXcXcXcXcXcXcXcXcXcXcXcXcXcXcXcXcXcXcXcXcXcX",
"cXcXcXcXcXcXcXcXcXcXcXcXcXcXcXcXcXcXcXcXcXcXcXcXcXcXcXcXcXcXcXcXcXcXcXcXcXcXcXcXcXcXcXcXcXcXcXcXcXcXcXcXcXcXcXcXcXcXcXcXcXcXcXcX",
"cXcXcXcXcXcXcXcXcXcXcXcXcXcXcXcXcXcXcXcXcXcXcXcXcXcXcXcXcXcXcXcXcXcXcXcXcXcXcXcXcXcXcXcXcXcXcXcXcXcXcXcXcXcXcXcXcXcXcXcXcXcXcXcX",
"cXcXcXcXcXcXcXcXcXcXcXcXcXcXcXcXcXcXcXcXcXcXcXcXcXcXcXcXcXcXcXcXcXcXcXcX  cXcXcXcXcXcXcXcXcXcXcXcXcXcXcXcXcXcXcXcXcXcXcXcXcXcXcX",
"cXcXcXcXcXcXcXcXcXcXcXcXcXcXcXcXcXcXcXcXcXcXcXcXcXcXcXcXcXcXcXcXcXcXcXcX  cXcXcXcXcXcXcXcXcXcXcXcXcXcXcXcXcXcXcXcXcXcXcXcXcXcXcX",
"cXcXcXcXcXcXcXcXcXcXcXcXcXcXcXcXcXcXcXcXcXcXcXcXcXcXcXcXcXcXcXcXcXcXcXcX+ . cXcXcXcXcXcXcXcXcXcXcXcXcXcXcXcXcXcXcXcXcXcXcXcXcXcX",
"cXcXcXcXcXcXcXcXcXcXcXcXcXcXcXcXcXcXcX  . . + = = @ @ . .   cXcXcXcXcXcX. m   cXcXcXcXcXcXcXcXcXcXcXcXcXcXcXcXcXcXcXcXcXcXcXcXcX",
"cXcXcXcXcXcXcXcXcXcXcXcXcXcXcX+ 1 M V G J S.D.D.F.F.D.S.J F V m 2 + cXcX  D 2 cXcXcXcXcXcXcXcXcXcXcXcXcXcXcXcXcXcXcXcXcXcXcXcXcX",
"cXcXcXcXcXcXcXcXcXcXcXcX+ 5 D D.G.G.F.D.D.S.S.S.S.S.S.S.D.D.F.G.H.5.Z 4 . B Z . cXcXcXcXcXcXcXcXcXcXcXcXcXcXcXcXcXcXcXcXcXcXcXcX",
"cXcXcXcXcXcXcXcXcX  1 V D.G.D.S.5.J 5.S.z.S.S.S.S.S.S.S.5.J J J 5.S.D.G.J F H m @ 1 = @ +     cXcXcXcXcXcXcXcXcXcXcXcXcXcXcXcXcX",
"cXcXcXcXcXcXcXcXcX. F 5.J H H J J 5.5.5.6.5.D.S.S.S.S.S.5.5.5.J J J H J 5.J G D.F.S.H N @   cXcXcXcXcXcXcXcXcXcXcXcXcXcXcXcXcXcX",
"cXcXcXcXcXcXcXcXcX+ 3 G H H J J J 5.S.5.S.S.S.D.S.S.S.S.S.5.5.J J H H H H G G G Z m @   cXcXcXcXcXcXcXcXcXcXcXcXcXcXcXcXcXcXcXcX",
"cXcXcXcXcX  + 4 M F 5.S.J H H J 5.J 6.5.5.S.S.S.S.S.S.S.5.5.5.J J J H H H G G G G V m o cXcXcXcXcXcXcXcXcXcXcXcXcXcXcXcXcXcXcXcX",
"cXcXcXcXcXcX  4 N V Z G J J J J J J z.J 5.5.S.S.S.S.S.5.5.J J J H H H H H H J S.G.F.D.D.m   cXcXcXcXcXcXcXcXcXcXcXcXcXcXcXcXcXcX",
"cXcXcXcXcXcX  + B D.H.J.H.H.H.G.G.F.D.D.S.D.S.S.S.S.S.S.S.S.S.D.D.F.G.H.H.G S.H.H.H.F 2 @     cXcXcXcXcXcXcXcXcXcXcXcXcXcXcXcXcX",
"cXcXcX  + 4 F F.G.H.J.H.H.J.J.J.H.J.H.J.J.J.J.J.J.F.J.J.J.J.J.G.D.J.J.G.D N D.J.H.F.J 5   cXcXcXcXcXcXcXcXcXcXcXcXcXcXcXcXcXcXcX",
"cX    . 4 N V V D J S.F.H.J.J.J.J.J.J.J.J.J.J.J.D.Z G.J.J.J.G.V H J.F.V B V 5.J G D D D 1 cXcXcXcXcXcXcXcXcXcXcXcXcXcXcXcXcXcXcX",
"cXcXcX  + 4 V D.G.5.G G G H S.J F.G.G.H.J.D.J.J.Z B H J.J.G.Z B G J V N B B V D D D D D B   cXcXcXcXcXcXcXcXcXcXcXcXcXcXcXcXcXcX",
"cXcXcX. N D F F F D F D F G F B Z H H H Z V J G N B B J H B B B V N N m M N V D D D F D F @ cXcXcXcXcXcXcXcXcXcXcXcXcXcXcXcXcXcX",
"cXcXcXcX  5 B V F F D B D F V B B F G B B B F B B B B V B B B B N N 4 + N C V F D D D D D 5 cXcXcXcXcXcXcXcXcXcXcXcXcXcXcXcXcXcX",
"cXcXcX  + m J F.5.D V B V Z B N B D V B B B V B B B B B B B m N N 2 . 1 @ N Z Z B Z D D D C . cXcXcXcXcXcXcXcXcXcXcXcXcXcXcXcXcX",
"cX  + B F F D D D D B B B B m m B B B B M B B B 4 + M B M @ + B 1 ' q o o B B B B Z D D D Z + cXcXcXcXcXcXcXcXcXcXcXcXcXcXcXcXcX",
"cXcXcX. 1 m B F D V B M N M + 1 B B M @ @ B N = ` r m 3 - { = @  .:.` $.1 B B B B Z D D D D @ cXcXcXcXcXcXcXcXcXcXcXcXcXcXcXcXcX",
"cXcXcXcXcX  D F D B m + M = { = N 3 - $.; m ; #.=X{ o ' @X .X %.$X@X$X$.4 N N M B D D V D D 1 cXcXcXcXcXcXcXcXcXcXcXcXcXcXcXcXcX",
"cXcXcXcXcX2 G V B M * a + } OX* @ } @X=X- w XX-X=XOXoX-X=X..-.=X=X$X@X] p 3 + 2 B B D B D D 1 cXcXcXcXcXcXcXcXcXcXcXcXcXcXcXcXcX",
"cXcXcXcX  M V B B = &.%.^ $X$X] oX=X=X=X%.$X-X-X-X-X;X;X-X$X=X=X=X$X$Xq $ ` ^ 4 B B V B D F 1 cXcXcXcXcXcXcXcXcXcXcXcXcXcXcXcXcX",
"cXcXcXcX. B 2 m N a $X+X+X$X$X$X=X=X=X=X;X-X-X;X;X;X;X;X;X-X=X$X$X$X+X` -.-.a m B B B B D D 1 cXcXcXcXcXcXcXcXcXcXcXcXcXcXcXcXcX",
"cXcXcXcX      4 M [ $X$XOX$X=X=X=X=X=X-X-X;X;X;X;X;X;X;X;X;X-X=X$X@X#.' ] $.r M B B B V D D @ cXcXcXcXcXcXcXcXcXcXcXcXcXcXcXcXcX",
"cXcXcXcXcXcXcX@ N ] $X@X .oX$X=X=X=X=X-X-X;X;X;X;X;X;X;X;X;X;X=X#.oX} ] ' %.w N 2 B B B B D + cXcXcXcXcXcXcXcXcXcXcXcXcXcXcXcXcX",
"cXcXcXcXcXcXcX  N ..XX0. .OX=X;X;X-X-X-X-X-X;X;X;X;X;X;X;X-X=X=X@X$X9.} &.OXw 5 + N B B B N . cXcXcXcXcXcXcXcXcXcXcXcXcXcXcXcXcX",
"cXcXcXcXcXcXcX  m  . .{ +X$X-X;X;X;X=X-X=X-X;X;X;X;X;X;X-X$XoX0.0.:.XXOX@XoX% * o N B B B m . cXcXcXcXcXcXcXcXcXcXcXcXcXcXcXcXcX",
"cXcXcXcXcXcXcXcX4 &.&.} +X=X;X;X;X;X=X-X=X$X-X-X;X;X;X-XOX%.%X3X3Xq.#.$.OX:.o } % M B 4 @ .   cXcXcXcXcXcXcXcXcXcXcXcXcXcXcXcXcX",
"cXcXcXcXcXcXcXcX+ 0.+XXX$X$X$X=X;X-X=X=X$X=X=X=X;X-X-XoX0.rXhXjXjXlX9X&.#. .^ XX- M M         cXcXcXcXcXcXcXcXcXcXcXcXcXcXcXcXcX",
"cXcXcXcXcXcXcX$ o -.=X@XoX9.XX@X$X=X$X+X} oX=X=X;X-X$X8.uXkXhXjXjXjXjXqX#.] XXOX0 m 4 - } #.{ 0   cXcXcXcXcXcXcXcXcXcXcXcXcXcXcX",
"cXcXcXcXcX  r $Xy #.$X9.0.4X9X%X$X$X$X@X#.+X$X=X=X$X9.3XkXsXdXjXjXjXjXjX%X#.9.+Xr p @ } oXoX+X$X .X cXcXcXcXcXcXcXcXcXcXcXcXcXcX",
"cXcXcXcXcXq +XOX] ..@X#.qXjXjXdX%X$XXX$X$X=X$X=X$X$X$.qXdXsXdXjXjXjXjXkX4X#.%.+X` 4 + :.oXXXoXoX@X{   cXcXcXcXcXcXcXcXcXcXcXcXcX",
"cXcXcXcX  XXOXXX{ } XXq.dXhXjXjX4X@X+X$X$X$X$X$X$X+X#.aXpXfXsXlXjXjXjXjX9X .$.+X{ 1 $ -.-.-.:..XoX+X0 cXcXcXcXcXcXcXcXcXcXcXcXcX",
"cXcXcXcX- +XoXXX'  .-.&XfXdXjXjXqX+X@X@X@X$X$X@X$X+X#.iXdXfXfXsXfXdXjXjX4X#.$.@X#.. q -.-.-.-.:.oXOX} cXcXcXcXcXcXcXcXcXcXcXcXcX",
"cXcXcXcX` OXoX:.` #.>.&XdXsXlXkXrXOX@X@X@X@X@X@X@X+X#.3XkXkXdXfXfXhXjXjXq.&.=.+X$.  ^ -.-.:.-.-.XXoX%.  cXcXcXcXcXcXcXcXcXcXcXcX",
"cXcXcXcX` OXXX:.q -.-.q.hXlXdXjX3X+X+X+X@X+X@X+X+X@X-.&.uXjXhXlXkXjXjXqX#.#.9.OX%.X { -.-.-.:.-.oXoX#.  cXcXcXcXcXcXcXcXcXcXcXcX",
"cXcXcXcX% oXoX9.% oX9.#.qXkXjXfX0.OX+X+X+X+X+X+X+X+XOX&.0.iXhXjXjXhXqX&. .#.+XoX%.% %.-.-.-.-.-.oXoX] cXcXcXcXcXcXcXcXcXcXcXcXcX",
"cXcXcXcX  %.oXoX$ OX+X#.&.3X4X0.oXOX+X+X+XOX+X+X+X+X+X^. .y.%X3X3Xq.#.#. .OXOXoX>.q -.-.-.-.-.:.oXXX0 cXcXcXcXcXcXcXcXcXcXcXcXcX",
"cXcXcXcXcX% -.oX$ oXoXoX$. .O.:.OXOX#X+XOXOXOXOXOXOXOXOXXX&. .#.}  . .#.+X+X:.#.-.' -.-.-.-.:.oXoX`   cXcXcXcXcXcXcXcXcXcXcXcXcX",
"cXcXcXcXcX  q :.- -.XX9.+XoXOXOXoXOXOXOX+XOXOXOXOX+X+XOXOXOX9.>.$.%.XX@XOXXX>. .-.#.-.:.:.oXoXoX'   cXcXcXcXcXcXcXcXcXcXcXcXcXcX",
"cXcXcXcXcXcXcXX % % %.#.oXoXoXoXoXoXXX%.&.1.2.1.1.y.0.XXOXOXoXOX+XOXoXXX9.-.:.-.-.=.[ w ] { a $   cXcXcXcXcXcXcXcXcXcXcXcXcXcXcX",
"cXcXcXcXcXcXcXcXcX  $ { #.oXXX.X9.#.y.7.C.6.7.L.L.7./ K.8.9.OXoXoX9.{ { #.$.-.-.%.t .       cXcXcXcXcXcXcXcXcXcXcXcXcXcXcXcXcXcX",
"cXcXcXcXcXcXcXcXcXcXcX  % { %.%.#.7.6.2XzXgXjXgXjXgXzX2X6.J.y.-.:.=.} } -.$.] w + h x , cXcXcXcXcXcXcXcXcXcXcXcXcXcXcXcXcXcXcXcX",
"cXcXcXcXcXcXcXcXcXcXcXcXcX  X 0 A F.0XjXpXgXkXgXjXgXgXjXL.A.I.2.&.#.[ q $ @ k c h.c h h # cXcXcXcXcXcXcXcXcXcXcXcXcXcXcXcXcXcXcX",
"cXcXcXcXcXcXcXcXcXcXcXcXcXcXcXcX  . s L.t.L.:XgXjXgX8X7.4 L 5 1 @ > j c j.x.k.j.k p.p.k # cXcXcXcXcXcXcXcXcXcXcXcXcXcXcXcXcXcXcX",
"cXcXcXcXcXcXcXcXcXcXcXcXcXcXcXcXcXcXcXL m.P.b.2X>XK.D.z.  n n g.n.n.n.n.x.l.k.k N.x.k.p.x # cXcXcXcXcXcXcXcXcXcXcXcXcXcXcXcXcXcX",
"cXcXcXcXcXcXcXcXcXcXcXcXcXcXcXcXcXcXcXL U.P.I.Z.P.U.P.Z.k N.j.B.m.m.n.n.c.x.j.n M.l.k.h.x h cXcXcXcXcXcXcXcXcXcXcXcXcXcXcXcXcXcX",
"cXcXcXcXcXcXcXcXcXcXcXcXcXcXcXcXcXcXcXD T.U.U.P.P.P.T.L g.c.j.g.m.m.n.n.c.x.c B.v.x.k.j.c h   cXcXcXcXcXcXcXcXcXcXcXcXcXcXcXcXcX",
"cXcXcXcXcXcXcXcXcXcXcXcXcXcXcXcXcXcXcXcXY.T.T.T.T.T.Y.> B.n.j.f.M.m.m.v.c.l.j p.k.x x h.x h # cXcXcXcXcXcXcXcXcXcXcXcXcXcXcXcXcX",
"cXcXcXcXcXcXcXcXcXcXcXcXcXcXcXcXcXcXcXcXC Y.R.R.R.Y.B . k x > n M.m.m.n.c.k.< > d [ ] , # , , cXcXcXcXcXcXcXcXcXcXcXcXcXcXcXcXcX",
"cXcXcXcXcXcXcXcXcXcXcXcXcXcXcXcXcXcXcXcXcXcXZ C.H cXcXcX  O.=.b V.M.m.n.v.k.j.j =X$XOX{ f # , . cXcXcXcXcXcXcXcXcXcXcXcXcXcXcXcX",
"cXcXcXcXcXcXcXcXcXcXcXcXcXcXcXcXcXcXcXcXcXcXq cXcXcXcXcX  O.=.d V.M.m.m.l.k.k.j oX+XoX-.f h 3 $ cXcXcXcXcXcXcXcXcXcXcXcXcXcXcXcX",
"cXcXcXcXcXcXcXcXcXcXcXcXcXcXcXcXq y $ cXcX$ O.| o cXcX0 ' =. X( k f.j n.x 4 p  .XXoXXX-.i h [ t cXcXcXcXcXcXcXcXcXcXcXcXcXcXcXcX",
"cXcXcXcXcXcXcXcXcXcXcXcXcXcXcX| =.=.@.0 % X r =.| q |  X.X;.;.@.[ s d h.f >.@X$X+X+X9.&.{ a  .] cXcXcXcXcXcXcXcXcXcXcXcXcXcXcXcX",
"cXcXcXcXcXcXcXcXcXcXcXcXcXcXt =.^ t =..X.X:. .=.=.=.#X#X$.| ( ' ' | [ -.-X-X=X$X+XoXoX{ 9.:.-.#.cXcXcXcXcXcXcXcXcXcXcXcXcXcXcXcX",
"cXcXcXcXcXcXcXcXcXcXcXcXcXcXX X   X t #X.X X;. X;. X.X;.r 9.$X$X#.9.$XoX=X@X$X+XoX9.=.$.oX9.-.=.cXcXcXcXcXcXcXcXcXcXcXcXcXcXcXcX",
"cXcXcXcXcXcXcXcXcXcXcXcXcXcXcX0 O.@.@..X.X;. X X;.;. X*.q { :.$X$X$X@X@X@XOXOXXX9.$.' XXq.$.] a . cXcXcXcXcXcXcXcXcXcXcXcXcXcXcX",
"cXcXcXcXcXcXcXcXcXcXcXcXcXcX% =.} } =.;.;.:.=.=.*.@.@.| q t $X-X=X@XOXoXoX9.#.' e e e U U ~ /.^.R cXcXcXcXcXcXcXcXcXcXcXcXcXcXcX",
"cXcXcXcXcXcXcXcXcXcXcXcXcXcXt O.&   t =.=.*.=.*.=.' 9 . $ @X=X=X$X+XoX-.} t W.`.).`.! ~ W.Q.W W.6 cXcXcXcXcXcXcXcXcXcXcXcXcXcXcX",
"cXcXcXcXcXcXcXcXcXcXcXcXcXcXy r cXy >.O.O.$.O. .' X q } 9.=X=X=X@X+XoX$.W.[.[.`.(.~ ^.}.{._.W.Q   cXcXcXcXcXcXcXcXcXcXcXcXcXcXcX",
"cXcXcXcXcXcXcXcXcXcXcXcXcXcXcXcXX O.' 0 - q 0 % cXt oX9.9.+XOX=XOX:.9.' !.)._.(.T '.}.{.].).W.6 cXcXcXcXcXcXcXcXcXcXcXcXcXcXcXcX",
"cXcXcXcXcXcXcXcXcXcXcXcXcXcXcXcXX } 0 cXcXcXcXcXcX .-.$ X -.@X+XOX:.#.7 E E E e '.{.{.[.).(.W.I cXcXcXcXcXcXcXcXcXcXcXcXcXcXcXcX",
"cXcXcXcXcXcXcXcXcXcXcXcXcXcXcXcXcX' 0 cXcXcXcXcXcX#.}    .+XoXOX9.#.8 Y 8 6 U |.}.{.[.).(.Q.Q I cXcXcXcXcXcXcXcXcXcXcXcXcXcXcXcX",
"cXcXcXcXcXcXcXcXcXcXcXcXcXcXcXcXcXX cXcXcXcXcXcXcX' q 0 oX} 0 -.%.T (.Q.E O R {.{.[.)._.Q.W.Q O cXcXcXcXcXcXcXcXcXcXcXcXcXcXcXcX",
"cXcXcXcXcXcXcXcXcXcXcXcXcXcXcXcXcXcXcXcXcXcXcXcXcXcXcXq 9.y ~ :.' Q.!.W.W O 7 T !._.(.~.W.W 8 cXcXcXcXcXcXcXcXcXcXcXcXcXcXcXcXcX",
"cXcXcXcXcXcXcXcXcXcXcXcXcXcXcXcXcXcXcXcXcXcXcXcXcXcXcX$ :.a :  .-.R ~.W Y o 0.$.>.} R E Q 8 cXcXcXcXcXcXcXcXcXcXcXcXcXcXcXcXcXcX",
"cXcXcXcXcXcXcXcXcXcXcXcXcXcXcXcXcXcXcXcXcXcXcXcXcXcXcXcX] t & 9 } } Y Q 8 % XX$X@XOX-.] 6 cXcXcXcXcXcXcXcXcXcXcXcXcXcXcXcXcXcXcX",
"cXcXcXcXcXcXcXcXcXcXcXcXcXcXcXcXcXcXcXcXcXcXcXcXcXcXcXcX    9 o.u & X 8 : cX=.$X=X@X+XXX$.0 cXcXcXcXcXcXcXcXcXcXcXcXcXcXcXcXcXcX",
"cXcXcXcXcXcXcXcXcXcXcXcXcXcXcXcXcXcXcXcXcXcXcXcXcXcXcXcXcXcX| *.o.) 9   cXcX%.=X-X=X+X@XoX-.| o   cXcXcXcXcXcXcXcXcXcXcXcXcXcXcX",
"cXcXcXcXcXcXcXcXcXcXcXcXcXcXcXcXcXcXcXcXcXcXcXcXcXcXcXcXcXcX+.*.*.o.u cXcXcXcX9.=X-X=X@X+X+X%.X.eXe.cXcXcXcXcXcXcXcXcXcXcXcXcXcX",
"cXcXcXcXcXcXcXcXcXcXcXcXcXcXcXcXcXcXcXcXcXcXcXcXcXcXcXcXcXcX+.;.*.o._   cXcXcXcXr  .=X@XOXoX..sXfX4.l L.2XA cXcXcXcXcXcXcXcXcXcX",
"cXcXcXcXcXcXcXcXcXcXcXcXcXcXcXcXcXcXcXcXcXcXcXcXcXcXcXcXcXcX_ *.+.o.) % cXcXcXcXcXcXr -.+XX.7XfXS d.s.d.E.xXL # cXcXcXcXcXcXcXcX",
"cXcXcXcXcXcXcXcXcXcXcXcXcXcXcXcXcXcXcXcXcXcXcXcXcXcXcXcXcXcX7 *.*.+.) u cXcXcXcXcXcXcXcXt ,XdX4.d.s.s.s.s.a.i.< <.o cXcXcXcXcXcX",
"cXcXcXcXcXcXcXcXcXcXcXcXcXcXcXcXcXcXcXcXcXcXcXcXcXcXcXcXcXcXcXo.*.+.) u cXcXcXcXcXcXcXcX  yXt.v z l l u.a.a.z 3.wX3.cXcXcXcXcXcX",
"cXcXcXcXcXcXcXcXcXcXcXcXcXcXcXcXcXcXcXcXcXcXcXcXcXcXcXcXcXcXcX( +.o.o._ cXcXcXcXcXcXcXcXcXs i 7.:X,X:Xr.4.h A tX6Xi cXcXcXcXcXcX",
"cXcXcXcXcXcXcXcXcXcXcXcXcXcXcXcXcXcXcXcXcXcXcXcXcXcXcXcXcXcXcX- ( _ ( u $ cXcXcXcXcXcXcXcXd 7XfXsXsXtXeXwX<.7XyXd cXcXcXcXcXcXcX",
"cXcXcXcXcXcXcXcXcXcXcXcXcXcXcXcXcXcXcXcXcXcXcXcXcXcXcXcXcXcXcXe.>X>X>Xr.<.cXcXcXcXcXcXcXi tXjXjXsXfXyXwX2.5XyXe.cXcXcXcXcXcXcXcX",
"cXcXcXcXcXcXcXcXcXcXcXcXcXcXcXcXcXcXcXcXcXcXcXcXcXcXcXcXcXcXi 1X<X5X8XwX7X* cXcXcXcXcXcX<XjXjXjXfXfXyX>X>XsX:XcXcXcXcXcXcXcXcXcX",
"cXcXcXcXcXcXcXcXcXcXcXcXcXcXcXcXcXcXcXcXcXcXcXcXcXcX* s 2.2.d + < g < , d cXcXcXcXcXcX; sXjXjXjXdXsX5X3.sX5X; cXcXcXcXcXcXcXcXcX",
"cXcXcXcXcXcXcXcXcXcXcXcXcXcXcXcXcXcXcXcXcXcXcXcXcXs ,XeXtXtXwX:Xp z i.i.u., cXcXcXcXcXf hXjXjXjXsXwX3.tXeXf cXcXcXcXcXcXcXcXcXcX",
"cXcXcXcXcXcXcXcXcXcXcXcXcXcXcXcXcXcXcXcXcXcXcXcXX.wXtXtXtXtXeX7X6Xp z u.u.2Xp cXcXcXcXf hXjXjXhXyX2.7XyXs cXcXcXcXcXcXcXcXcXcXcX",
"cXcXcXcXcXcXcXcXcXcXcXcXcXcXcXcXcXcXcXcXcXcXcX* 6XeXtXtXtXeXwX7X7X>X5 u.z E.2.cXcXcXcXi fXkXhXsXr.,XsXr.cXcXcXcXcXcXcXcXcXcXcXcX",
"cXcXcXcXcXcXcXcXcXcXcXcXcXcXcXcXcXcXcXcXcXcXcXe.7XwXtXtXeX7X7X7X8X5X2.l u.z.t.cXcXcXcX* wXsXsX<Xr.sX,X  cXcXcXcXcXcXcXcXcXcXcXcX",
"cXcXcXcXcXcXcXcXcXcXcXcXcXcXcXcXcXcXcXcXcXcXcX,X7X8X7X7X7X7X7X6X5X<X,X> z l g cXcXcXcXcXw.sX7X3.kX7X; cXcXcXcXcXcXcXcXcXcXcXcXcX",
"cXcXcXcXcXcXcXcXcXcXcXcXcXcXcXcXcXcXcXcXcXcXo 3.w.e.e.e.e.e.w.2.2.w.w.i < g < cXcXcXcXcX  >X2.aXfX<.cXcXcXcXcXcXcXcXcXcXcXcXcXcX",
"cXcXcXcXcXcXcXcXcXcXcXcXcXcXcXcXcXcXcXcXcXcXd ,X6X7X6X5X<X<X<X<X<X,X,X,X,X>Xe.* cXcXcXcXcX  :XyX4.cXcXcXcXcXcXcXcXcXcXcXcXcXcXcX",
"cXcXcXcXcXcXcXcXcXcXcXcXcXcXcXcXcXcXcXcXcXcXf >X5X6X5X<X<X<X<X5X5X5X5X5X5X<X:X* cXcXcXcXcXcXf <.cXcXcXcXcXcXcXcXcXcXcXcXcXcXcXcX",
"cXcXcXcXcXcXcXcXcXcXcXcXcXcXcXcXcXcXcXcXcXcXcXcX  o o o o o o + * o * * * + o   cXcXcXcXcXcXcX  cXcXcXcXcXcXcXcXcXcXcXcXcXcXcXcX"
};
