/* XPM */
static char *result[] = {
/* columns rows colors chars-per-pixel */
"64 96 232 2 ",
"   c #020202",
".  c #0B0506",
"X  c #050B0B",
"o  c #0B0B0B",
"O  c #00030A",
"+  c #140B0B",
"@  c #1B0E0E",
"#  c #170406",
"$  c #030A19",
"%  c #0A1414",
"&  c #0E1B1B",
"*  c #061717",
"=  c #131212",
"-  c #1C1111",
";  c #151C1C",
":  c #270909",
">  c #37090B",
",  c #280E11",
"<  c #241313",
"1  c #2B1616",
"2  c #2E1818",
"3  c #241B1C",
"4  c #331A1A",
"5  c #3A1E1E",
"6  c #000D27",
"7  c #091625",
"8  c #031436",
"9  c #0E2529",
"0  c #132424",
"q  c #152B2B",
"w  c #1A2A2C",
"e  c #152B35",
"r  c #1D3B3B",
"t  c #173435",
"y  c #0C2F35",
"u  c #292728",
"i  c #3D2122",
"p  c #36272A",
"a  c #25393A",
"s  c #3D3D3D",
"d  c #343333",
"f  c #38332F",
"g  c #26201F",
"h  c #4B0E13",
"j  c #520F14",
"k  c #5B1116",
"l  c #53100C",
"z  c #68131A",
"x  c #74151D",
"c  c #6B1605",
"v  c #522211",
"b  c #672A13",
"n  c #4F1C21",
"m  c #432323",
"M  c #4A2626",
"N  c #4E2929",
"B  c #532A2A",
"V  c #5B2E2E",
"C  c #542728",
"Z  c #5F3030",
"A  c #4A3B3A",
"S  c #653232",
"D  c #6B3636",
"F  c #6F3838",
"G  c #623A3A",
"H  c #743B3B",
"J  c #7B3E3E",
"K  c #79353C",
"L  c #69222A",
"P  c #6F1B23",
"I  c #5E4224",
"U  c #001E5A",
"Y  c #1E3A48",
"T  c #192F53",
"R  c #263C4C",
"E  c #04266B",
"W  c #15346B",
"Q  c #00297C",
"!  c #002774",
"~  c #123574",
"^  c #7C3F45",
"/  c #1A4747",
"(  c #1A5858",
")  c #0F4444",
"_  c #234444",
"`  c #244B4B",
"'  c #294D4D",
"]  c #2B5354",
"[  c #2E5B5B",
"{  c #235555",
"}  c #315E5E",
"|  c #325152",
" . c #324752",
".. c #1D6464",
"X. c #2C6464",
"o. c #236C6C",
"O. c #2E6B6B",
"+. c #336263",
"@. c #356B6B",
"#. c #396D6D",
"$. c #396566",
"%. c #2A7575",
"&. c #337575",
"*. c #3C7575",
"=. c #357B7B",
"-. c #3E7B7B",
";. c #3C7478",
":. c #434343",
">. c #4B4B4B",
",. c #5C5C5C",
"<. c #535556",
"1. c #524D50",
"2. c #7F4040",
"3. c #7A464F",
"4. c #6E4F51",
"5. c #515E62",
"6. c #4B7171",
"7. c #417D7D",
"8. c #457575",
"9. c #4D6D6D",
"0. c #696868",
"q. c #787878",
"w. c #8C0500",
"e. c #980000",
"r. c #BB0502",
"t. c #A50000",
"y. c #8D3207",
"u. c #93320A",
"i. c #923407",
"p. c #832714",
"a. c #8C1A23",
"s. c #951B25",
"d. c #AC1F2B",
"f. c #A31E29",
"g. c #B11F2D",
"h. c #91303B",
"j. c #B3202D",
"k. c #B9212F",
"l. c #BA2828",
"z. c #BF2230",
"x. c #AB3032",
"c. c #BC3F0D",
"v. c #DA3329",
"b. c #C32331",
"n. c #CD2434",
"m. c #C92E2B",
"M. c #D93B20",
"N. c #E4441A",
"B. c #973B45",
"V. c #B63745",
"C. c #CE3C4A",
"Z. c #834242",
"A. c #8A4646",
"S. c #8E4949",
"D. c #944B4B",
"F. c #994F4F",
"G. c #9C5050",
"H. c #895058",
"J. c #8A746D",
"K. c #B95560",
"L. c #DD4455",
"P. c #C44856",
"I. c #E04C5C",
"U. c #E25463",
"Y. c #E26472",
"T. c #D25D6B",
"R. c #97877D",
"E. c #07338D",
"W. c #093EA7",
"Q. c #335290",
"!. c #0C40AA",
"~. c #1646A7",
"^. c #1249B9",
"/. c #2A59B6",
"(. c #124CC2",
"). c #1A58D6",
"_. c #1753CD",
"`. c #3869CC",
"'. c #1E5FE1",
"]. c #2466E9",
"[. c #2A70FD",
"{. c #3171F1",
"}. c #3B8484",
"|. c #3B8686",
" X c #438484",
".X c #468A8A",
"XX c #498D8D",
"oX c #4C8484",
"OX c #568888",
"+X c #4C9393",
"@X c #4F9999",
"#X c #439292",
"$X c #519C9C",
"%X c #7B9696",
"&X c #6A8A8A",
"*X c #55A3A3",
"=X c #58A7A7",
"-X c #5AABAB",
";X c #868686",
":X c #989898",
">X c #978987",
",X c #B1A79D",
"<X c #99AEAE",
"1X c #9DB3B3",
"2X c #8EA5A5",
"3X c #ABABAB",
"4X c gray64",
"5X c #BBBBBB",
"6X c #B4B2B2",
"7X c #B3B4AC",
"8X c #A19796",
"9X c #D68F8F",
"0X c #CEC8B9",
"qX c #B6C4C4",
"wX c #CBCBCB",
"eX c #C4C8C7",
"rX c LightGray",
"tX c #DBDBDB",
"yX c #D3DBDB",
"uX c #D8D1C7",
"iX c #E5DCCA",
"pX c #FCF3DD",
"aX c #DCE2E2",
"sX c #E5E5E5",
"dX c #E9EAEA",
"fX c #E6EBEB",
"gX c #FBF5E8",
"hX c #EDF0F0",
"jX c #F4F4F4",
"kX c #FDFDFD",
"lX c #FCFBF5",
"zX c None",
/* pixels */
"zXzXzXzXzXzXzXzXzXzXzXzXzXzXzXzXzXzXzXzXzXzXzXzXzXzXzXzXzXzXzXzXzXzXzXzXzXzXzXzXzXzXzXzXzXzXzXzXzXzXzXzXzXzXzXzXzXzXzXzXzXzXzXzX",
"zXzXzXzXzXzXzXzXzXzXzXzXzXzXzXzXzXzXzXzXzXzXzXzXzXzXzXzXzXzXzXzXzXzXzXzXzXzXzXzXzXzXzXzXzXzXzXzXzXzXzXzXzXzXzXzXzXzXzXzXzXzXzXzX",
"zXzXzXzXzXzXzXzXzXzXzXzXzXzXzXzXzXzXzXzXzXzXzXzXzXzXzXzXzXzXzXzXzXzXzXzXzXzXzXzXzXzXzXzXzXzXzXzXzXzXzXzXzXzXzXzXzXzXzXzXzXzXzXzX",
"zXzXzXzXzXzXzXzXzXzXzXzXzXzXzXzXzXzXzXzXzXzXzXzXzXzXzXzXzXzXzXzXzXzX  zXzXzXzXzXzXzXzXzXzXzXzXzXzXzXzXzXzXzXzXzXzXzXzXzXzXzXzXzX",
"zXzXzXzXzXzXzXzXzXzXzXzXzXzXzXzXzXzXzXzXzXzXzXzXzXzXzXzXzXzXzXzXzXzX  zXzXzXzXzXzXzXzXzXzXzXzXzXzXzXzXzXzXzXzXzXzXzXzXzXzXzXzXzX",
"zXzXzXzXzXzXzXzXzXzXzXzXzXzXzXzXzXzXzXzXzXzXzXzXzXzXzXzXzXzXzXzXzXzX    zXzXzXzXzXzXzXzXzXzXzXzXzXzXzXzXzXzXzXzXzXzXzXzXzXzXzXzX",
"zXzXzXzXzXzXzXzXzXzXzXzXzXzXzXzXzXzXzXzXzXzXzXzXzXzXzXzXzXzXzXzXzXzX  1 zXzXzXzXzXzXzXzXzXzXzXzXzXzXzXzXzXzXzXzXzXzXzXzXzXzXzXzX",
"zXzXzXzXzXzXzXzXzXzXzXzXzXzXzXzX    . + < 2 4 4 2 - +       zXzXzXzX  M + zXzXzXzXzXzXzXzXzXzXzXzXzXzXzXzXzXzXzXzXzXzXzXzXzXzXzX",
"zXzXzXzXzXzXzXzXzXzXzXzX  < 5 V H A.D.F.F.D.F.D.D.F.D.S.2.D N 4 + zX  5 B   zXzXzXzXzXzXzXzXzXzXzXzXzXzXzXzXzXzXzXzXzXzXzXzXzXzX",
"zXzXzXzXzXzXzXzXzX  o M J S.D.S.A.Z.Z.2.Z.2.Z.2.Z.Z.Z.Z.A.A.D.D.Z.S 1 1 H < zXzXzXzXzXzXzXzXzXzXzXzXzXzXzXzXzXzXzXzXzXzXzXzXzXzX",
"zXzXzXzXzXzXzX  < D S.S.3.h.J J J 2.Z.Z.Z.Z.Z.Z.Z.Z.2.2.J J J J Z.A.D.Z.F F 5 m 5 5 1     zXzXzXzXzXzXzXzXzXzXzXzXzXzXzXzXzXzXzX",
"zXzXzXzXzXzXzXzX5 H F H H J J J 2.2.Z.Z.Z.A.A.Z.Z.Z.Z.2.2.J J H H H J H F J A.J S m @ zXzXzXzXzXzXzXzXzXzXzXzXzXzXzXzXzXzXzXzXzX",
"zXzXzXzXzXzX  + 4 F J J J J J J 2.Z.Z.Z.Z.A.A.A.Z.Z.Z.Z.2.J J J H H H F D F S B @   zXzXzXzXzXzXzXzXzXzXzXzXzXzXzXzXzXzXzXzXzXzX",
"zXzXzX    5 B D H H J H H J J J 2.2.Z.Z.Z.Z.Z.Z.Z.Z.Z.J 2.J H J H H H H F F H H D m + zXzXzXzXzXzXzXzXzXzXzXzXzXzXzXzXzXzXzXzXzX",
"zXzXzXzXzX- m B S H 2.2.J J J J 2.2.2.2.Z.2.2.2.h.Z.J J J J J H J J J J H S.F.F.J A.D @   zXzXzXzXzXzXzXzXzXzXzXzXzXzXzXzXzXzXzX",
"zXzXzXzX. < N S.G.G.G.G.F.F.F.F.S.S.S.A.S.S.A.A.Z.A.A.S.S.S.S.D.F.F.F.H H F.F.F.S.<     zXzXzXzXzXzXzXzXzXzXzXzXzXzXzXzXzXzXzXzX",
"zX  @ 5 S A.A.D.F.G.G.G.G.G.G.G.G.G.G.G.G.G.G.Z.F.G.G.G.G.D.J G.F.D.S B J G.D.A.H V + zXzXzXzXzXzXzXzXzXzXzXzXzXzXzXzXzXzXzXzXzX",
"    @ 4 m V S H Z.Z.S.D.F.G.F.G.G.G.G.G.G.G.S.B 2.F.G.G.D.S Z F.S.V B N F F D S S S M   zXzXzXzXzXzXzXzXzXzXzXzXzXzXzXzXzXzXzXzX",
"zX  - m H S.S.Z.D D D F H F F S.S.D.D.J D.F.F B V D.F.D.Z B V H B B C B B S S D S D S < zXzXzXzXzXzXzXzXzXzXzXzXzXzXzXzXzXzXzXzX",
"zX  1 V Z S S S D S S F D V V D F F S N D F B B B Z F B B B B B B 5 5 B B S S S S S S M zXzXzXzXzXzXzXzXzXzXzXzXzXzXzXzXzXzXzXzX",
"zXzX  @ N V D S S V V S Z B B S D V B B S V B B B B B B B B B N 4 . M M B D S V S S S Z . zXzXzXzXzXzXzXzXzXzXzXzXzXzXzXzXzXzXzX",
"zX. @ m J S.Z.S S B B Z B B B Z B N B B V N N M N B B B 5 m N 4 & @ @ 5 B Z B V D S S S + zXzXzXzXzXzXzXzXzXzXzXzXzXzXzXzXzXzXzX",
"  m Z S S Z S S B B B B N 1 B B B B m B B B 5 o i B M -   M < _ _ % % M B B C V S S S S < zXzXzXzXzXzXzXzXzXzXzXzXzXzXzXzXzXzXzX",
"zX  . 1 M F S Z B m M N - + M B M - X N N < a *.< 2 ; *.; - [ $X]  X; B B B N S S S Z S 1 zXzXzXzXzXzXzXzXzXzXzXzXzXzXzXzXzXzXzX",
"zXzXzX  B H S B N + 4 1 [ w m 4 ; *._ 5 = +.$X+X. ' @XXXX +.$X$X@X7.- N N i N Z V S V S 5 zXzXzXzXzXzXzXzXzXzXzXzXzXzXzXzXzXzXzX",
"zXzXzX. D V B N - _ o r $X_ % [ $X*X[ 0 XX=X=X=X+X*X*X X7.*X$X$X$X$.< < = + N B V V V S 5 zXzXzXzXzXzXzXzXzXzXzXzXzXzXzXzXzXzXzX",
"zXzXzX1 V B B < } .X_ @X$X X X*X*X*X+X$X-X-X-X-X-X-X=X*X*X*X*X$X$X' q ] @.< B B B B S S 4 zXzXzXzXzXzXzXzXzXzXzXzXzXzXzXzXzXzXzX",
"zXzX  m < 2 B + $X@X@X$X$X$X*X*X*X=X=X=X-X-X-X-X-X-X-X=X*X*X*X$X@X} } -.[ < B B B B S S 4 zXzXzXzXzXzXzXzXzXzXzXzXzXzXzXzXzXzXzX",
"zXzX    zX@ N - $X@X+XXX$X*X*X*X=X=X-X=X-X-X-X-X-X-X-X-X-X=X$X@X#.' ' [ ` 2 N N B B S S 1 zXzXzXzXzXzXzXzXzXzXzXzXzXzXzXzXzXzXzX",
"zXzXzXzXzX. m - *X@X#.$.$X*X=X=X*X=X=X=X-X-X-X-X-X-X-X-X-X=X7.7.#.` ' +._ 5 4 M B B B V < zXzXzXzXzXzXzXzXzXzXzXzXzXzXzXzXzXzXzX",
"zXzXzXzXzX  5 u +X$.*.7.$X-X-X-X*X=X=X=X-X-X-X-X-X-X-X-X=X*X*X$X@X#.$.XXr 2 . M B B B B @ zXzXzXzXzXzXzXzXzXzXzXzXzXzXzXzXzXzXzX",
"zXzXzXzXzXzX< u *.` 7.$X=X-X-X-X*X=X=X$X=X-X=X-X-X-X-X=X7.#.$.@.*..X@X@X0 = 0 m B B M m . zXzXzXzXzXzXzXzXzXzXzXzXzXzXzXzXzXzXzX",
"zXzXzXzXzXzX@ d .X] .X$X=X-X-X-X*X*X=X$X=X=X=X=X=X*X+X@.&XqXqX<X9.} *.@X* _ _ i B 4 . .   zXzXzXzXzXzXzXzXzXzXzXzXzXzXzXzXzXzXzX",
"zXzXzXzXzXzX. a *XXX@X$X$X$X=X=X*X$X@X@X*X*X=X=X=XXX8.eXkXkXkXkXjX%X} $.a .X] 4 N o         zXzXzXzXzXzXzXzXzXzXzXzXzXzXzXzXzXzX",
"zXzXzXzXzX& 0 w =X@XoX*.7.oX$X*X$X$X+.+.*X*X*X*X*X8.qXkXjXjXkXkXkXhX&X} -.+X[ 1 M 0 *. X X} 0 zXzXzXzXzXzXzXzXzXzXzXzXzXzXzXzXzX",
"zXzXzXzX0 XX*.& =X X$.1XyX1X+X@X$X$X X X*X$X$X*X.X&XjXdXsXkXkXkXkXkXqX+.$.@X@.< 4 a .X.X.X+X+Xt zXzXzXzXzXzXzXzXzXzXzXzXzXzXzXzX",
"zXzXzX% XXXX*.& =X@.2XjXkXkX1X@X+XoX$X$X$X$X$X$X*.2XjXsXsXjXkXkXkXkXdX+.} XX*.- - ]  X-.}. X.X@X& zXzXzXzXzXzXzXzXzXzXzXzXzXzXzX",
"zXzXzX] XX X*.& @X9.yXsXkXkXaX+X$X$X$X$X$X$X$X$X*.<XjXsXsXdXjXkXkXkXjX+.X..X-.- . } *.*.-.-..XXX#.  zXzXzXzXzXzXzXzXzXzXzXzXzXzX",
"zXzX  .X.X X@.& .X6.sXsXkXkXhXOX@X@X@X@X@X@X@X@X*.%XjXdXdXsXsXsXkXkXaX[ } XX Xo X @.*.*.*.-. X XXX% zXzXzXzXzXzXzXzXzXzXzXzXzXzX",
"zXzXX @X.X X+.0 .X6.sXdXfXjXhXoX@X@X@X@X@X@X@X@X7.6.fXkXjXsXsXjXkXkX<X} +.+X-.% & *.*.*.*.*.7..XXX& zXzXzXzXzXzXzXzXzXzXzXzXzXzX",
"zXzXX XX.X X] _ XX$.qXlXdXlXqX.X+X+X+X@X+X+X@X+XXX+.%XjXkXjXkXkXkXeX#.+.*.+X-.* r *.*.-.*.*. X.X.X% zXzXzXzXzXzXzXzXzXzXzXzXzXzX",
"zXzX  #..X X_ } XX+.OXhXkXhX&XXX+X+X+X+X+X+X+X+X+X*.} %XaXkXkXjXqX6.} +.+X.X7.0 ] *.*.*.-.*. X X*.X zXzXzXzXzXzXzXzXzXzXzXzXzXzX",
"zXzXzXq  X.Xr 7..X7.X.9.:X6.*.XX.X+X#X+X.X+XXX+X+XXX#.+.} 6.6.$.+.} +. X+X X-.q #.*.*.*.*.7..X.Xt zXzXzXzXzXzXzXzXzXzXzXzXzXzXzX",
"zXzXzXO [ .Xr *..XXX-.} X.;..XXX.X+XXXXX+X+XXX.X#X.X+X;.} +.$.+.} $..X+X X[ #.` *.*.*.-.-..X.X[   zXzXzXzXzXzXzXzXzXzXzXzXzXzXzX",
"zXzXzXzX  ' ] t .X*..X+X+X.X.XXXXXXXXXXX X X X.XXXXXXXXX+X7.;.-..X@X+X X-.+.*.$.*.#.-. X.X-._ O zXzXzXzXzXzXzXzXzXzXzXzXzXzXzXzX",
"zXzXzXzXzX  X   _ +. X.X.X.X.X.X7.$.$.5.,.4.1.<.5.#. XXX.X.X.XXX X*.-.#.*.*.*.*.] X & q 0 X   zXzXzXzXzXzXzXzXzXzXzXzXzXzXzXzXzX",
"zXzXzXzXzXzXzXzX  0 ] 7. X.X-.+.5.3.A.4.>X,XwX,XJ.^ H.5.7..X.X7.[ ' $.+.*.*.} q + . zXzXzXzXzXzXzXzXzXzXzXzXzXzXzXzXzXzXzXzXzXzX",
"zXzXzXzXzXzXzXzXzXzXO 9 ] @.[ 4.4.,XiXpXkXgXkXlXpXuXR.B.H.$.8.;.$.[ #.X./ & @ j z h zXzXzXzXzXzXzXzXzXzXzXzXzXzXzXzXzXzXzXzXzXzX",
"zXzXzXzXzXzXzXzXzXzXzXzX  X u h.J.gXgXpXlXgXkXlXpXgX0Xh.L.D.| ` w ; # > z a.s.a.z k : zXzXzXzXzXzXzXzXzXzXzXzXzXzXzXzXzXzXzXzXzX",
"zXzXzXzXzXzXzXzXzXzXzXzXzXzXzX  + A 4.G H.,XkXlXiXH 3 < , @ , h x s.d.d.f.f.z l k > # zXzXzXzXzXzXzXzXzXzXzXzXzXzXzXzXzXzXzXzXzX",
"zXzXzXzXzXzXzXzXzXzXzXzXzXzXzXzXzXL L.L.L.4.H.Z.h.x.: i.x.i.v.n.b.b.k.g.d.z y.l.f.a.z # zXzXzXzXzXzXzXzXzXzXzXzXzXzXzXzXzXzXzXzX",
"zXzXzXzXzXzXzXzXzXzXzXzXzXzXzXzXzXL I.I.L.P.L.L.I.P.v M.k.u.v.n.b.z.k.g.d.b M.j.f.s.x j zXzXzXzXzXzXzXzXzXzXzXzXzXzXzXzXzXzXzXzX",
"zXzXzXzXzXzXzXzXzXzXzXzXzXzXzXzXzXzXP.U.I.I.U.L.U.B.u.n.j.y.v.n.b.z.k.j.s.y.m.j.f.s.x k . zXzXzXzXzXzXzXzXzXzXzXzXzXzXzXzXzXzXzX",
"zXzXzXzXzXzXzXzXzXzXzXzXzXzXzXzXzXzXK Y.U.U.U.U.U.C u.b.s.y.v.n.n.z.k.j.j u.k.a.s.a.x k   zXzXzXzXzXzXzXzXzXzXzXzXzXzXzXzXzXzXzX",
"zXzXzXzXzXzXzXzXzXzXzXzXzXzXzXzXzXzXzXK T.Y.Y.K.Z   # p u b N.m.b.b.k.j.> : i a r h > h : zXzXzXzXzXzXzXzXzXzXzXzXzXzXzXzXzXzXzX",
"zXzXzXzXzXzXzXzXzXzXzXzXzXzXzXzXzXzXzXzX< N N zXzXzXo |.Q.I N.v.n.b.k.g.a.k -.@XXX_ a # h zXzXzXzXzXzXzXzXzXzXzXzXzXzXzXzXzXzXzX",
"zXzXzXzXzXzXzXzXzXzXzXzXzXzXzXzXzXzXzX* ` * zXzXzXzX* O.&.f c.m.g.z.d.g.s.P +X*X.X;.R h < . zXzXzXzXzXzXzXzXzXzXzXzXzXzXzXzXzXzX",
"zXzXzXzXzXzXzXzXzXzXzXzXzX% ` { * zXzXo @.O.0 zXX ` &.|.}.) v y.z b.k m > p -.XX.X*.f z ' q zXzXzXzXzXzXzXzXzXzXzXzXzXzXzXzXzXzX",
"zXzXzXzXzXzXzXzXzXzXzXzX9 &.&.@.=._ r q r &.[ ` |.#X|.=.=.X.' ' p s.w _ #.@X+X+X}.@.r 3 +._ zXzXzXzXzXzXzXzXzXzXzXzXzXzXzXzXzXzX",
"zXzXzXzXzXzXzXzXzXzXzXzX_ ' & 0 O.#X#X|.@.=.&.}.|.#X}.}.%.X.@.7.a f #.$X=X$X+XXX.X[ #.#.*.` zXzXzXzXzXzXzXzXzXzXzXzXzXzXzXzXzXzX",
"zXzXzXzXzXzXzXzXzXzXzXzXzXO & & ` #X.X-.}.}.=.}.|.}.O./ r / ` ' $.XX=X*X*X@XXX.X7.#..X-.*.' zXzXzXzXzXzXzXzXzXzXzXzXzXzXzXzXzXzX",
"zXzXzXzXzXzXzXzXzXzXzXzXzX` &.=.=.|.}.=.}.=.&.=.=.O.t #..X@XoX7.$X@X$X@X+X.X X-.} #. X*.#.` zXzXzXzXzXzXzXzXzXzXzXzXzXzXzXzXzXzX",
"zXzXzXzXzXzXzXzXzXzXzXzXq &.` _ O.=.&.=.&.&.%.O...r % _ +.$X*X@XXX+X@XXX X$.Y t ; Y Y Y R T % zXzXzXzXzXzXzXzXzXzXzXzXzXzXzXzXzX",
"zXzXzXzXzXzXzXzXzXzXzXzX{ ` X X { O.@.%.%.O.X.q X zXzX& @X*X=X$XXX XQ.@.Y ~ `.`.Q.Q.`././.E.$ zXzXzXzXzXzXzXzXzXzXzXzXzXzXzXzXzX",
"zXzXzXzXzXzXzXzXzXzXzXzXq & X { @.} [ } } ` t zXzXzXzX#.=X$X*X@X.X7.] W ^.).~.T `.{.].~.Q U O zXzXzXzXzXzXzXzXzXzXzXzXzXzXzXzXzX",
"zXzXzXzXzXzXzXzXzXzXzXzXzXzX& O.q O   % O zXzXzX% _ $.*X*X*X$X+XXX*./ )._.~.W {.{.].).^.Q 6 zXzXzXzXzXzXzXzXzXzXzXzXzXzXzXzXzXzX",
"zXzXzXzXzXzXzXzXzXzXzXzXzXzX* O.% zXzXzXzXzXzXzX#..X-.XXXX$X+X*.Q.} 8 U U T {.[.].'.).^.! zXzXzXzXzXzXzXzXzXzXzXzXzXzXzXzXzXzXzX",
"zXzXzXzXzXzXzXzXzXzXzXzXzXzXzX` X zXzXzXzXzXzX% XX_ X 0 @X+XXX X@.e 8 6 T {.[.{.'._.(.E.Q zXzXzXzXzXzXzXzXzXzXzXzXzXzXzXzXzXzXzX",
"zXzXzXzXzXzXzXzXzXzXzXzXzXzXzXzXzXzXzXzXzXzXzX&  Xq & .X.X X.X#.e E.U $ /.[.].'.).(.W.Q U zXzXzXzXzXzXzXzXzXzXzXzXzXzXzXzXzXzXzX",
"zXzXzXzXzXzXzXzXzXzXzXzXzXzXzXzXzXzXzXzXzXzXzXo #.% ] 7.r t 8./ ~.W.! 8 W ~.'.).(.W.Q ! $ zXzXzXzXzXzXzXzXzXzXzXzXzXzXzXzXzXzXzX",
"zXzXzXzXzXzXzXzXzXzXzXzXzXzXzXzXzXzXzXzXzXzXzXzXX zX] #.T  .-.7 _.W.Q 9 #.7 E ^.W.Q ! 6 zXzXzXzXzXzXzXzXzXzXzXzXzXzXzXzXzXzXzXzX",
"zXzXzXzXzXzXzXzXzXzXzXzXzXzXzXzXzXzXzXzXzXzXzXzXzXzXq 7.t 8 +. Xe E.! r @X+X+.~ E.! 6 zXzXzXzXzXzXzXzXzXzXzXzXzXzXzXzXzXzXzXzXzX",
"zXzXzXzXzXzXzXzXzXzXzXzXzXzXzXzXzXzXzXzXzXzXzXzXzXzXzX[ 0 $ * ' t 7 $ *.*X$X.X[ U U zXzXzXzXzXzXzXzXzXzXzXzXzXzXzXzXzXzXzXzXzXzX",
"zXzXzXzXzXzXzXzXzXzXzXzXzXzXzXzXzXzXzXzXzXzXzXzXzXzXzX  zX* ( ( ) y * #X*X*X+X-.% zXzXzXzXzXzXzXzXzXzXzXzXzXzXzXzXzXzXzXzXzXzXzX",
"zXzXzXzXzXzXzXzXzXzXzXzXzXzXzXzXzXzXzXzXzXzXzXzXzXzXzXzXzXzX( %.o.( y X.=X*X@X.X' zXzXzXzXzXzXzXzXzXzXzXzXzXzXzXzXzXzXzXzXzXzXzX",
"zXzXzXzXzXzXzXzXzXzXzXzXzXzXzXzXzXzXzXzXzXzXzXzXzXzXzXzXzXzXo.o.o...( 9 XX*X$X+X*.& zXzXzXzXzXzXzXzXzXzXzXzXzXzXzXzXzXzXzXzXzXzX",
"zXzXzXzXzXzXzXzXzXzXzXzXzXzXzXzXzXzXzXzXzXzXzXzXzXzXzXzXzXzX{ =.%.o...) _ *X$X+X7.r zXzXzXzXzXzXzXzXzXzXzXzXzXzXzXzXzXzXzXzXzXzX",
"zXzXzXzXzXzXzXzXzXzXzXzXzXzXzXzXzXzXzXzXzXzXzXzXzXzXzXzXzXzX9 o.%.o.o.( 9 +X@X@XXX+.zXzXzXzXzXzXzXzXzXzXzXzXzXzXzXzXzXzXzXzXzXzX",
"zXzXzXzXzXzXzXzXzXzXzXzXzXzXzXzXzXzXzXzXzXzXzXzXzXzXzXzXzXzXzX* %.%.o...) [ +X.X+X} % zXzXzXzXzXzXzXzXzXzXzXzXzXzXzXzXzXzXzXzXzX",
"zXzXzXzXzXzXzXzXzXzXzXzXzXzXzXzXzXzXzXzXzXzXzXzXzXzXzXzXzXzXzXzXt %.....( y #.] ,.:XwX0.zXzXzXzXzXzXzXzXzXzXzXzXzXzXzXzXzXzXzXzX",
"zXzXzXzXzXzXzXzXzXzXzXzXzXzXzXzXzXzXzXzXzXzXzXzXzXzXzXzXzXzXzXzXzX{ ../ q % ,.eXjXjXtX;XzXzXzXzXzXzXzXzXzXzXzXzXzXzXzXzXzXzXzXzX",
"zXzXzXzXzXzXzXzXzXzXzXzXzXzXzXzXzXzXzXzXzXzXzXzXzXzXzXzXzXzXzXzXzX;  .q.6X0.aX7X0.b c c b 3 zXzXzXzXzXzXzXzXzXzXzXzXzXzXzXzXzXzX",
"zXzXzXzXzXzXzXzXzXzXzXzXzXzXzXzXzXzXzXzXzXzXzXzXzXzXzXzXzXzXzXzXzX0.eX6X;Xu u > w.r.r.r.m.6XA zXzXzXzXzXzXzXzXzXzXzXzXzXzXzXzXzX",
"zXzXzXzXzXzXzXzXzXzXzXzXzXzXzXzXzXzXzXzXzXzXzXzXzXzXzXzXzXzXzXzXzXR A = >.;X:Xq.1.l t.r.r.9X:XzXzXzXzXzXzXzXzXzXzXzXzXzXzXzXzXzX",
"zXzXzXzXzXzXzXzXzXzXzXzXzXzXzXzXzXzXzXzXzXzXzXzXzXzXzXzXzXzXzX= f p 3 4XjXkXlXsXiX:XB w.r.r.x.: zXzXzXzXzXzXzXzXzXzXzXzXzXzXzXzX",
"zXzXzXzXzXzXzXzXzXzXzXzXzXzXzXzXzXzXzXzXzXzXzXzXzXzXzXzXzXzXd :XwX,.3XkXkXkXlXdXsXrX5XA w.t.e.>   zXzXzXzXzXzXzXzXzXzXzXzXzXzXzX",
"zXzXzXzXzXzXzXzXzXzXzXzXzXzXzXzXzXzXzXzXzXzXzXzXzXzXzXzXzXs 5XrX:X&XkXkXkXkXjXsXsXrXwXeXu l m ,.1.zXzXzXzXzXzXzXzXzXzXzXzXzXzXzX",
"zXzXzXzXzXzXzXzXzXzXzXzXzXzXzXzXzXzXzXzXzXzXzXzXzXzXzXzX= 3XrXrX1.wXkXkXkXkXdXsXtXwX8X,.,.:XrXwX>XX zXzXzXzXzXzXzXzXzXzXzXzXzXzX",
"zXzXzXzXzXzXzXzXzXzXzXzXzXzXzXzXzXzXzXzXzXzXzXzXzXzXzXzX0.wXrXwXd sXjXkXjXsXaX5Xq.>.q.rXsXtX3X>.O zXzXzXzXzXzXzXzXzXzXzXzXzXzXzX",
"zXzXzXzXzXzXzXzXzXzXzXzXzXzXzXzXzXzXzXzXzXzXzXzXzXzXzXzX:XeXrXwXs sXsXdXaX3X0.,.:XrXsXrXR.s X zXzXzXzXzXzXzXzXzXzXzXzXzXzXzXzXzX",
"zXzXzXzXzXzXzXzXzXzXzXzXzXzXzXzXzXzXzXzXzXzXzXzXzXzXzX= 4X5X5X5Xs yXeX;X>.q.rXsXtX4X<.  zXzXzXzXzXzXzXzXzXzXzXzXzXzXzXzXzXzXzXzX",
"zXzXzXzXzXzXzXzXzXzXzXzXzXzXzXzXzXzXzXzXzXzXzXzXzXzXzXo 4X6X:X1.% A ,.wXjXsXwXq.u zXzXzXzXzXzXzXzXzXzXzXzXzXzXzXzXzXzXzXzXzXzXzX",
"zXzXzXzXzXzXzXzXzXzXzXzXzXzXzXzXzXzXzXzXzXzXzXzXzXzXzXzX:. .,.7Xd 3XsXhX5X<.o zXzXzXzXzXzXzXzXzXzXzXzXzXzXzXzXzXzXzXzXzXzXzXzXzX",
"zXzXzXzXzXzXzXzXzXzXzXzXzXzXzXzXzXzXzXzXzXzXzXzXzXzXzXO 0.3XwXwX>.0.0.u zXzXzXzXzXzXzXzXzXzXzXzXzXzXzXzXzXzXzXzXzXzXzXzXzXzXzXzX",
"zXzXzXzXzXzXzXzXzXzXzXzXzXzXzXzXzXzXzXzXzXzXzXzXzXzXzXzX1.0.A . zX  zXzXzXzXzXzXzXzXzXzXzXzXzXzXzXzXzXzXzXzXzXzXzXzXzXzXzXzXzXzX",
"zXzXzXzXzXzXzXzXzXzXzXzXzXzXzXzXzXzXzXzXzXzXzXzXzXzXzXzX  zXzXzXzXzXzXzXzXzXzXzXzXzXzXzXzXzXzXzXzXzXzXzXzXzXzXzXzXzXzXzXzXzXzXzX"
};
