/* XPM */
static char *result[] = {
/* columns rows colors chars-per-pixel */
"64 96 232 2 ",
"   c #010101",
".  c #0B0505",
"X  c #050B0B",
"o  c #0A0B0B",
"O  c #080608",
"+  c #130A0A",
"@  c #1B0D0D",
"#  c #160605",
"$  c #020A19",
"%  c #0A1414",
"&  c #0D1B1B",
"*  c #061215",
"=  c #131313",
"-  c #1C1111",
";  c #171B1B",
":  c #2A0809",
">  c #35080B",
",  c #231212",
"<  c #2B1616",
"1  c #2D1919",
"2  c #351B1B",
"3  c #3A1E1E",
"4  c #371414",
"5  c #31100D",
"6  c #03112A",
"7  c #011439",
"8  c #061228",
"9  c #0C2626",
"0  c #132424",
"q  c #162B2B",
"w  c #1B292A",
"e  c #172C33",
"r  c #1B3434",
"t  c #1C3B3C",
"y  c #173436",
"u  c #0D2832",
"i  c #272728",
"p  c #3D2626",
"a  c #213E3E",
"s  c #293838",
"d  c #3D3C3C",
"f  c #353333",
"g  c #361F22",
"h  c #470C0B",
"j  c #570802",
"k  c #470D11",
"l  c #551115",
"z  c #491613",
"x  c #730303",
"c  c #681319",
"v  c #79171D",
"b  c #690E07",
"n  c #442323",
"m  c #4B2626",
"M  c #4E2828",
"N  c #532A2A",
"B  c #5B2E2E",
"V  c #5E3030",
"C  c #4F3739",
"Z  c #64252C",
"A  c #653333",
"S  c #6B3636",
"D  c #6F3838",
"F  c #743A3A",
"G  c #7B3E3E",
"H  c #783339",
"J  c #62352D",
"K  c #692112",
"L  c #27413E",
"P  c #001849",
"I  c #001E5A",
"U  c #12325C",
"Y  c #162C51",
"T  c #03256B",
"R  c #00297A",
"E  c #112E66",
"W  c #243B69",
"Q  c #6F3D43",
"!  c #184646",
"~  c #1E5757",
"^  c #234444",
"/  c #254A4A",
"(  c #294D4D",
")  c #28454A",
"_  c #2B5454",
"`  c #2D5A5A",
"'  c #265656",
"]  c #315E5E",
"[  c #375555",
"{  c #384A4B",
"}  c #1E6363",
"|  c #2E6B6B",
" . c #2A6363",
".. c #336262",
"X. c #356A6A",
"o. c #3A6D6D",
"O. c #3C6565",
"+. c #337474",
"@. c #3C7575",
"#. c #357B7B",
"$. c #3E7A7A",
"%. c #2F7171",
"&. c #2C467A",
"*. c #484848",
"=. c #564E4E",
"-. c #415C5E",
";. c #585858",
":. c #67464A",
">. c #7E4040",
",. c #745558",
"<. c #417D7D",
"1. c #4E7373",
"2. c #547979",
"3. c #5B7E7E",
"4. c #436A6B",
"5. c #636363",
"6. c #6B6C6C",
"7. c #757474",
"8. c #756C68",
"9. c #435F60",
"0. c #8D0101",
"q. c #850000",
"w. c #970200",
"e. c #881B1D",
"r. c #B70101",
"t. c #B4110B",
"y. c #923706",
"u. c #8B1923",
"i. c #831821",
"p. c #9A1C27",
"a. c #AD1F2C",
"s. c #A21D29",
"d. c #933238",
"f. c #AE212B",
"g. c #B6202E",
"h. c #BA212F",
"j. c #BD2230",
"k. c #A1313C",
"l. c #A92B1C",
"z. c #CC3E17",
"x. c #C72333",
"c. c #D22635",
"v. c #C42B29",
"b. c #C40D00",
"n. c #D84711",
"m. c #D94F08",
"M. c #9C3743",
"N. c #8B3F47",
"B. c #B93C4A",
"V. c #C43D4B",
"C. c #834242",
"Z. c #8A4646",
"A. c #8E4848",
"S. c #944C4C",
"D. c #994F4F",
"F. c #97454F",
"G. c #9C5050",
"H. c #854751",
"J. c #AE4B56",
"K. c #A57A7A",
"L. c #807269",
"P. c #DD4554",
"I. c #E04C5C",
"U. c #E25564",
"Y. c #D06B72",
"T. c #D85C69",
"R. c #92847A",
"E. c #07348E",
"W. c #03308A",
"Q. c #0A3EA7",
"!. c #1445A7",
"~. c #0F47B9",
"^. c #134AB7",
"/. c #2D59B1",
"(. c #2750A3",
"). c #124CC2",
"_. c #1B59D8",
"`. c #1652CD",
"'. c #3768CB",
"]. c #286CF7",
"[. c #2E6FF1",
"{. c #1E5FE1",
"}. c #4171D2",
"|. c #3A8383",
" X c #3C8888",
".X c #448484",
"XX c #468A8A",
"oX c #498D8D",
"OX c #4F8686",
"+X c #4C9494",
"@X c #4F9999",
"#X c #429292",
"$X c #529D9D",
"%X c #588687",
"&X c #6C8C8C",
"*X c #789494",
"=X c #55A3A3",
"-X c #58A7A7",
";X c #5BACAC",
":X c #8B8B8B",
">X c #828383",
",X c #949494",
"<X c #9C9C9C",
"1X c #93A9A9",
"2X c #A4A4A4",
"3X c #ACACAC",
"4X c #A6B7B7",
"5X c gray71",
"6X c #BABABA",
"7X c #BAB4B1",
"8X c #ADA697",
"9X c #C4BCAE",
"0X c #C9C3B5",
"qX c #D0C9B6",
"wX c #B5C3C3",
"eX c #C3C3C3",
"rX c #CBCBCB",
"tX c #CEC7C3",
"yX c #CAD4D4",
"uX c #D6D9D9",
"iX c #D9D5CF",
"pX c #F7EDDA",
"aX c #E5E5E5",
"sX c #ECECEC",
"dX c #E8EAE9",
"fX c #FBF5E6",
"gX c #EDF1F1",
"hX c #F3F3F3",
"jX c #FEFEFE",
"kX c #FBF9F4",
"lX c #E3D6D6",
"zX c None",
/* pixels */
"zXzXzXzXzXzXzXzXzXzXzXzXzXzXzXzXzXzXzXzXzXzXzXzXzXzXzXzXzXzXzXzXzXzXzXzXzXzXzXzXzXzXzXzXzXzXzXzXzXzXzXzXzXzXzXzXzXzXzXzXzXzXzXzX",
"zXzXzXzXzXzXzXzXzXzXzXzXzXzXzXzXzXzXzXzXzXzXzXzXzXzXzXzXzXzXzXzXzXzXzXzXzXzXzXzXzXzXzXzXzXzXzXzXzXzXzXzXzXzXzXzXzXzXzXzXzXzXzXzX",
"zXzXzXzXzXzXzXzXzXzXzXzXzXzXzXzXzXzXzXzXzXzXzXzXzXzXzXzXzXzXzXzXzXzXzXzXzXzXzXzXzXzXzXzXzXzXzXzXzXzXzXzXzXzXzXzXzXzXzXzXzXzXzXzX",
"zXzXzXzXzXzXzXzXzXzXzXzXzXzXzXzXzXzXzXzXzXzXzXzXzXzXzXzXzXzXzXzXzXzXzXzX  zXzXzXzXzXzXzXzXzXzXzXzXzXzXzXzXzXzXzXzXzXzXzXzXzXzXzX",
"zXzXzXzXzXzXzXzXzXzXzXzXzXzXzXzXzXzXzXzXzXzXzXzXzXzXzXzXzXzXzXzXzXzXzXzX  zXzXzXzXzXzXzXzXzXzXzXzXzXzXzXzXzXzXzXzXzXzXzXzXzXzXzX",
"zXzXzXzXzXzXzXzXzXzXzXzXzXzXzXzXzXzXzXzXzXzXzXzXzXzXzXzXzXzXzXzXzXzXzXzX.   zXzXzXzXzXzXzXzXzXzXzXzXzXzXzXzXzXzXzXzXzXzXzXzXzXzX",
"zXzXzXzXzXzXzXzXzXzXzXzXzXzXzXzXzXzXzXzXzXzXzX        zXzXzXzXzXzXzXzXzX. 2 zXzXzXzXzXzXzXzXzXzXzXzXzXzXzXzXzXzXzXzXzXzXzXzXzXzX",
"zXzXzXzXzXzXzXzXzXzXzXzXzXzXzXzX  . @ 3 M J J S D D S V N n , .   zXzXzX  A @ zXzXzXzXzXzXzXzXzXzXzXzXzXzXzXzXzXzXzXzXzXzXzXzXzX",
"zXzXzXzXzXzXzXzXzXzXzXzXzX+ 2 N G S.D.S.A.A.A.A.A.A.A.A.A.S.D.D.>.V 3 +   N B   zXzXzXzXzXzXzXzXzXzXzXzXzXzXzXzXzXzXzXzXzXzXzXzX",
"zXzXzXzXzXzXzXzXzXzX  + B C.S.S.C.C.G C.G C.C.C.>.C.>.>.>.G G >.C.A.D.C.V B F ,               zXzXzXzXzXzXzXzXzXzXzXzXzXzXzXzXzX",
"zXzXzXzXzXzXzXzXzX. B S.Z.C.G G G >.G >.C.C.C.C.C.C.C.C.>.>.>.G G G G >.Z.G D >.F F A N ,   zXzXzXzXzXzXzXzXzXzXzXzXzXzXzXzXzXzX",
"zXzXzXzXzXzXzXzXzX  2 A S F F G G G >.C.C.C.C.Z.Z.C.C.C.>.>.G G G F G F F F D G D B 2 . zXzXzXzXzXzXzXzXzXzXzXzXzXzXzXzXzXzXzXzX",
"zXzXzXzXzXzX  . 1 n V >.Z.G F G G G C.C.C.C.C.Z.C.C.Z.C.>.>.>.G F G F G F D D S S m ,   zXzXzXzXzXzXzXzXzXzXzXzXzXzXzXzXzXzXzXzX",
"zXzXzXzXzX  + m V A S S F F F G >.>.C.G C.C.C.C.C.C.C.C.>.>.G G G F F G D F F G C.Z.Z.D < . zXzXzXzXzXzXzXzXzXzXzXzXzXzXzXzXzXzX",
"zXzXzXzXzXzXzXo p A d.Z.A.Z.Z.Z.C.>.>.>.>.>.>.>.>.>.d.G >.G >.G G C.C.C.Z.G C.G.D.S.A N n .   zXzXzXzXzXzXzXzXzXzXzXzXzXzXzXzXzX",
"zXzXzXzXzX+ 1 A S.G.G.G.G.G.D.D.G.G.G.D.D.D.D.D.S.S.D.S.D.D.G.D.A.G.G.D.G N C.G.G.D.C.<   zXzXzXzXzXzXzXzXzXzXzXzXzXzXzXzXzXzXzX",
"zXzX    3 A G F F C.S.D.D.G.D.D.G.G.D.D.G.D.G.G.D.D D.D.G.G.G.G F D.D.F N N Z.A.>.H V J + zXzXzXzXzXzXzXzXzXzXzXzXzXzXzXzXzXzXzX",
"zXzXzX    @ n D C.Z.F F N.Z.S.S.D.D.D.D.G.D.D.G.F N G D.G.D.F M S A.A M N N B A A V S A M   zXzXzXzXzXzXzXzXzXzXzXzXzXzXzXzXzXzX",
"zXzX  . N F G >.G S S S A D D B S F G N.>.A Z.Z.N N B Z.Z.S N N B N N M M M N A A S A A S @ zXzXzXzXzXzXzXzXzXzXzXzXzXzXzXzXzXzX",
"zXzXzXzX@ M B V A A A B A S J N B S D S N N A V N N M V B N N N N N n @ M N B A A A A S A 2 zXzXzXzXzXzXzXzXzXzXzXzXzXzXzXzXzXzX",
"zXzXzXzX  @ B F Z.A A N V A N M N A A N N M V N M M N N N N M M N n . , 3 n B A B B S A S m . zXzXzXzXzXzXzXzXzXzXzXzXzXzXzXzXzX",
"zXzX. , M G C.G S A B N N B M m N B M N N N N N m < M N N 3 - M 3 0 q +   M B N N B A A V J @ zXzXzXzXzXzXzXzXzXzXzXzXzXzXzXzXzX",
"zX  . < m N N V A J N M N N 1 < N N N n < M N n = ; n m , 0 @ 2 q $.0 ( - N N N N V A A A A , zXzXzXzXzXzXzXzXzXzXzXzXzXzXzXzXzX",
"zXzXzXzX  @ N F A N N < M 2 0 @ N n , w = M 1 q oX` @ ; <.o.o s @XoXoX$.1 N N M N V V J V A < zXzXzXzXzXzXzXzXzXzXzXzXzXzXzXzXzX",
"zXzXzXzXzX. S A B N 2 X 4 0 <.; 3 ; ..$X0 @ ^ $X=X$.a @X$X` a @X$X$X@XX.2 m < , N B J B V A < zXzXzXzXzXzXzXzXzXzXzXzXzXzXzXzXzX",
"zXzXzXzXzX2 A N N 2 r o.% XX$Xr / @X=X=X/ $.-X-X-X-X-X=X-XoX$X=X=X$X@X^ + 0 r , N M B N A A 1 zXzXzXzXzXzXzXzXzXzXzXzXzXzXzXzXzX",
"zXzXzXzX  N m M M w oXoX<.$X$X+X$X=X=X-X=X-X-X-X;X;X;X;X;X-X-X$X$X$X$X) o.@./ 2 N N N N A A 4 zXzXzXzXzXzXzXzXzXzXzXzXzXzXzXzXzX",
"zXzXzXzX. ,   2 M s $X@X$X$X$X=X=X=X=X-X=X;X;X;X;X;X;X;X;X-X=X=X=X$X@.( _ o.a p N N N B A A , zXzXzXzXzXzXzXzXzXzXzXzXzXzXzXzXzX",
"zXzXzXzX  zXzX@ M s $X@X@.oX$X=X=X=X-X-X-X;X;X;X;X;X;X;X;X;X-X-X@.XX] ( / X.s n p M N N N A @ zXzXzXzXzXzXzXzXzXzXzXzXzXzXzXzXzX",
"zXzXzXzXzXzXzX. m { $XoX` <.$X-X;X-X=X-X-X-X;X;X;X;X;X;X;X;X-X=XoX+X@./ ( .Xr n + M M N N N @ zXzXzXzXzXzXzXzXzXzXzXzXzXzXzXzXzX",
"zXzXzXzXzXzXzX  n { @.` <.@X=X;X;X;X=X-X-X-X;X;X;X;X;X;X;X;X=XoXOXoX+XOXXX@Xw @ . M N N N M + zXzXzXzXzXzXzXzXzXzXzXzXzXzXzXzXzX",
"zXzXzXzXzXzXzXzX1 [ O.( +X$X;X;X;X;X=X=X=X=X-X-X;X;X;X;X;X.Xo.2.2.O.] <.+XXX% r 0 n N n < ,   zXzXzXzXzXzXzXzXzXzXzXzXzXzXzXzXzX",
"zXzXzXzXzXzXzXzX, ] .XX.@X$X=X=X;X-X=X=X=X=X-X-X-X-X-X$Xo.&XuXsXgXuX*X..X.@.q $.w n M +       zXzXzXzXzXzXzXzXzXzXzXzXzXzXzXzXzX",
"zXzXzXzXzXzXzXzX. O.=X$X@XoX+X$X=X=X=X$X@.oX=X=X=X=X=X@.1XjXkXjXjXjXjX4X..( o.oXr n 3 o r ^ r % zXzXzXzXzXzXzXzXzXzXzXzXzXzXzXzX",
"zXzXzXzXzXzXX ( q ` =XoXo.3.&XoX$X$X$X@X` <.=X=X=X$XoX2.hXgXdXjXjXjXjXkX3.] <.+X^ 3 1 a +X+X@XXX^ X zXzXzXzXzXzXzXzXzXzXzXzXzXzX",
"zXzXzXzXzXX ..@X] ) =Xo.&XgXjXyX%X$X+X$XoX$X$X$X=X$X$.1XhXaXdXjXjXjXjXjX4X..o.+X` 1 @ ] XX.XXXXX$X(   zXzXzXzXzXzXzXzXzXzXzXzXzX",
"zXzXzXzXzX/ +XXXO.^ +XO.uXhXjXjX1X@XXX+X$X$X$X$X$X$Xo.wXsXdXaXhXjXjXjXjXyX] ..@X.., o o.$.$.$. XXXoXq zXzXzXzXzXzXzXzXzXzXzXzXzX",
"zXzXzXzX  XXXXXX..^ XX2.sXsXjXjXuX+X@X$X$X@X$X@X$X+Xo.4XsXaXaXaXsXhXkXjXyX] ..@X@.= % <.@.@.@.$.XX+X..  zXzXzXzXzXzXzXzXzXzXzXzX",
"zXzXzXzX% +XXX<.` / <.3.sXdXhXjXaXoX@X@X@X@X@X@X@X@Xo.*XkXgXsXaXaXgXjXjX1X..X.@X$.  q @.@.@.@.@..XXX$.  zXzXzXzXzXzXzXzXzXzXzXzX",
"zXzXzXzXw oXXX<.( ` <.1.sXdXaXkXyXXX+X+X@X@X+X@X@X+X<.4.dXjXhXdXsXjXjXsX1...o.+X$.X a @.@.@.$.@..XXX$.  zXzXzXzXzXzXzXzXzXzXzXzX",
"zXzXzXzX% oXXX$.r X..X..yXhXhXjX&X+X+X+X+X+X+X+X+X+XXX..3.dXkXjXjXjXsX&X] ..XXoX$.% ` @.@.$.@.@..XXXX.  zXzXzXzXzXzXzXzXzXzXzXzX",
"zXzXzXzX  @.XX.X0 <.oX..2.uXgX4Xo.+X+X+X+X+X+X+X+X+X+X$.] 2.4XyXyX4X3.] ] @.+X.X@.0 X.@.@.@.@.$.XXXX^ zXzXzXzXzXzXzXzXzXzXzXzXzX",
"zXzXzXzXzXr .XXX& .XoX.X..] ] ..oXoXoXoX+XoXoXoXoXoXoX+X@.....] ] ..] ..@.+XXX@.<.Y @.@.$.@.$..XXXX.X zXzXzXzXzXzXzXzXzXzXzXzXzX",
"zXzXzXzXzX  ! XX0 @.XXXXXX@.@.oXoXoXoXoX#X+X+X+X+X+XoXoXoXXXo.......X..X@XXX@._ @.` $.@.@.$..XXX@.% zXzXzXzXzXzXzXzXzXzXzXzXzXzX",
"zXzXzXzXzXzX  q ^ r .X` XXXXXXXXXXXXXX.X(.@.X.O.o.<.<.XXoXoXoX@X+X+X@XoX.X<.@.@.@.@.../ o.@.o./   zXzXzXzXzXzXzXzXzXzXzXzXzXzXzX",
"zXzXzXzXzXzXzXzX    0 X.o.XXXXXXXX<.X.O.,.S.>.D :.Q :.;.o..XXXXXXX.XX.] X...@.@.@.] &     .   zXzXzXzXzXzXzXzXzXzXzXzXzXzXzXzXzX",
"zXzXzXzXzXzXzXzXzXzXzXX t o.<.<.X.-.:.>.R.qXdXfXjXfXqX,.Z.,.4.<.<.@.` ( @.@.X._ 0 # > zXzXzXzXzXzXzXzXzXzXzXzXzXzXzXzXzXzXzXzXzX",
"zXzXzXzXzXzXzXzXzXzXzXzX  X w ( -.F.R.fXpXfXkXfXjXfXpXkX8XB.J.-.o.@.o.` ^ 0 o > K v c : zXzXzXzXzXzXzXzXzXzXzXzXzXzXzXzXzXzXzXzX",
"zXzXzXzXzXzXzXzXzXzXzXzXzXzXzX  . 4 8.tXqX9XiXpXjXkXpX7X;.k.k.J 0 = @ > c u.p.f.p.e.c l zXzXzXzXzXzXzXzXzXzXzXzXzXzXzXzXzXzXzXzX",
"zXzXzXzXzXzXzXzXzXzXzXzXzXzXzXzXzXzX  n d.k.d.9XaX0X8.p.# 5 5 K p.a.g.g.g.a.f.p.k l k : . zXzXzXzXzXzXzXzXzXzXzXzXzXzXzXzXzXzXzX",
"zXzXzXzXzXzXzXzXzXzXzXzXzXzXzXzXzXzXzXZ P.I.V.H k.V.P.B.K v.e.m.c.x.x.j.g.f.s.h n.f.p.v k zXzXzXzXzXzXzXzXzXzXzXzXzXzXzXzXzXzXzX",
"zXzXzXzXzXzXzXzXzXzXzXzXzXzXzXzXzXzXzXZ I.I.I.P.I.I.I.J.n.j.e.m.c.x.x.j.g.a.v y.j.s.p.u.c : zXzXzXzXzXzXzXzXzXzXzXzXzXzXzXzXzXzX",
"zXzXzXzXzXzXzXzXzXzXzXzXzXzXzXzXzXzXzXzXT.U.U.U.I.U.U.d.z.j.v m.c.x.x.j.g.f.c n.j.g.p.u.c > zXzXzXzXzXzXzXzXzXzXzXzXzXzXzXzXzXzX",
"zXzXzXzXzXzXzXzXzXzXzXzXzXzXzXzXzXzXzXzXB T.U.U.U.T.F.# v 4 z m.c.x.x.j.j.s.K l.f.p.u.u.c : zXzXzXzXzXzXzXzXzXzXzXzXzXzXzXzXzXzX",
"zXzXzXzXzXzXzXzXzXzXzXzXzXzXzXzXzXzXzXzXzXn S.J.J.F zXzXy @.L m.c.x.j.j.g.i.: 5 s i i c k : # zXzXzXzXzXzXzXzXzXzXzXzXzXzXzXzXzX",
"zXzXzXzXzXzXzXzXzXzXzXzXzXzXzXzXzXzXzXzXzX% zXzXzXzXzXzX .(.] m.c.c.x.j.j.p.u.i -XoXX.r = : : zXzXzXzXzXzXzXzXzXzXzXzXzXzXzXzXzX",
"zXzXzXzXzXzXzXzXzXzXzXzXzXzXzX% 0 zXzXzX   .' * zXzXzX! | #.` 5 z.u.x.g.i.s.p.{ =X@X<.%.z , # zXzXzXzXzXzXzXzXzXzXzXzXzXzXzXzXzX",
"zXzXzXzXzXzXzXzXzXzXzXzXzXzXq %.#.| &     w +.` O ! @. X+.|.| q K g j.v s 4 > ) oXXX<.O.l i t zXzXzXzXzXzXzXzXzXzXzXzXzXzXzXzXzX",
"zXzXzXzXzXzXzXzXzXzXzXzXzXq +._ t ..|.#.+._ X.#.` #X#X X|.#.+.( X.{ i.s ` a <.$X+XoX@.` 1 L _ zXzXzXzXzXzXzXzXzXzXzXzXzXzXzXzXzX",
"zXzXzXzXzXzXzXzXzXzXzXzXzX& q X   y XX#X X#.#.|.+. X X|.#.+.| ! oX@., ^ O.$X=XoX+XXX@.' X.X.] zXzXzXzXzXzXzXzXzXzXzXzXzXzXzXzXzX",
"zXzXzXzXzXzXzXzXzXzXzXzXzXzX% / ' ' XX X|.#.|.#.#.#.#.+.| ` ! y $X] ) oX-X-X$X+XoX.XO..X<.$...zXzXzXzXzXzXzXzXzXzXzXzXzXzXzXzXzX",
"zXzXzXzXzXzXzXzXzXzXzXzXzXzX' | | #.|.+.#.#.#.+.%.%. .! 0 e / _ ( @.@X+X$X$X+XoX<.<._ XX$.o...zXzXzXzXzXzXzXzXzXzXzXzXzXzXzXzXzX",
"zXzXzXzXzXzXzXzXzXzXzXzXzX9 | y & t #.%.#.+.+.%. .t & zX^ oX+X$X$X+X@X@X+XoX.XX.^ w q t r r Y   zXzXzXzXzXzXzXzXzXzXzXzXzXzXzXzX",
"zXzXzXzXzXzXzXzXzXzXzXzXzXy /   % ` | ..| | | ' & zXzXzXO e <.-X=X@XXXXX Xo.) E /.&.(.}.'.'./.* zXzXzXzXzXzXzXzXzXzXzXzXzXzXzXzX",
"zXzXzXzXzXzXzXzXzXzXzXzXzXzXX zX' ` t y t t q % zXzXzXzXzX( $X=X=X@XXX$._ U !.!.Y '.[.[.Q.R I   zXzXzXzXzXzXzXzXzXzXzXzXzXzXzXzX",
"zXzXzXzXzXzXzXzXzXzXzXzXzXzXzXzX' y zXzXzXzXzXzXzXzXzXzX% $X-X-X$X+XXX@.U ).!.W [.[.].{.~.W.7 zXzXzXzXzXzXzXzXzXzXzXzXzXzXzXzXzX",
"zXzXzXzXzXzXzXzXzXzXzXzXzXzXzXzX! r zXzXzXzXzXzXzXzX& X.oX$X$X$X@X.X<.| 6 P U [.].]._.`.Q.T $ zXzXzXzXzXzXzXzXzXzXzXzXzXzXzXzXzX",
"zXzXzXzXzXzXzXzXzXzXzXzXzXzXzXzX% X zXzXzXzXzXzXzXzX@.<...<.+X$X+X$.$.t 7 Y [.[.].{.`.~.W.T zXzXzXzXzXzXzXzXzXzXzXzXzXzXzXzXzXzX",
"zXzXzXzXzXzXzXzXzXzXzXzXzXzXzXzXzXzXzXzXzXzXzXzXzXq XX^ . r +X+XXX<.( 7 8 /.].]._.`.).E.W.P zXzXzXzXzXzXzXzXzXzXzXzXzXzXzXzXzXzX",
"zXzXzXzXzXzXzXzXzXzXzXzXzXzXzXzXzXzXzXzXzXzXzXzXzXq .Xq 0 +X$.` .X] Y E.6 E ^._._.).Q.R T $ zXzXzXzXzXzXzXzXzXzXzXzXzXzXzXzXzXzX",
"zXzXzXzXzXzXzXzXzXzXzXzXzXzXzXzXzXzXzXzXzXzXzXzXzX& ..X ] @.e 8 .XY ^.~.u ] q E ~.Q.R R $ zXzXzXzXzXzXzXzXzXzXzXzXzXzXzXzXzXzXzX",
"zXzXzXzXzXzXzXzXzXzXzXzXzXzXzXzXzXzXzXzXzXzXzXzXzXzXzXzXL <.w Y <.[ P U oX=XoX^ E.W.R 6 zXzXzXzXzXzXzXzXzXzXzXzXzXzXzXzXzXzXzXzX",
"zXzXzXzXzXzXzXzXzXzXzXzXzXzXzXzXzXzXzXzXzXzXzXzXzXzXzXzXX $.^ W q #.' ] @X=X+X` 8 I P zXzXzXzXzXzXzXzXzXzXzXzXzXzXzXzXzXzXzXzXzX",
"zXzXzXzXzXzXzXzXzXzXzXzXzXzXzXzXzXzXzXzXzXzXzXzXzXzXzXzXzXr 0   O 9 & .X;X$X+X@.  $ zXzXzXzXzXzXzXzXzXzXzXzXzXzXzXzXzXzXzXzXzXzX",
"zXzXzXzXzXzXzXzXzXzXzXzXzXzXzXzXzXzXzXzXzXzXzXzXzXzXzXzXzXzXzXzXO ! ~ @.-X$XoX..zXzXzXzXzXzXzXzXzXzXzXzXzXzXzXzXzXzXzXzXzXzXzXzX",
"zXzXzXzXzXzXzXzXzXzXzXzXzXzXzXzXzXzXzXzXzXzXzXzXzXzXzXzXzXzXzXzXzX! ~ XX=X+XoX_ * zXzXzXzXzXzXzXzXzXzXzXzXzXzXzXzXzXzXzXzXzXzXzX",
"zXzXzXzXzXzXzXzXzXzXzXzXzXzXzXzXzXzXzXzXzXzXzXzXzXzXzXzXzXzXzXzXzXzXt $X$X@XXXa ! u zXzXzXzXzXzXzXzXzXzXzXzXzXzXzXzXzXzXzXzXzXzX",
"zXzXzXzXzXzXzXzXzXzXzXzXzXzXzXzXzXzXzXzXzXzXzXzXzXzXzXzXzXzXzXzXzXzXq =X@X+X<.y } ! 9 X zXzXzXzXzXzXzXzXzXzXzXzXzXzXzXzXzXzXzXzX",
"zXzXzXzXzXzXzXzXzXzXzXzXzXzXzXzXzXzXzXzXzXzXzXzXzXzXzXzXzXzXzXzXzXzX/ +XXX+X$.9 } t 6.3Xd zXzXzXzXzXzXzXzXzXzXzXzXzXzXzXzXzXzXzX",
"zXzXzXzXzXzXzXzXzXzXzXzXzXzXzXzXzXzXzXzXzXzXzXzXzXzXzXzXzXzXzXzXzXzXr ] @..XX.u r ,XrX,Xf : 2 zXzXzXzXzXzXzXzXzXzXzXzXzXzXzXzXzX",
"zXzXzXzXzXzXzXzXzXzXzXzXzXzXzXzXzXzXzXzXzXzXzXzXzXzXzXzXzXzXzXzXzX,X0X2X&X;.w w 2XeX5.h x w.K.8.. zXzXzXzXzXzXzXzXzXzXzXzXzXzXzX",
"zXzXzXzXzXzXzXzXzXzXzXzXzXzXzXzXzXzXzXzXzXzXzXzXzXzXzXzX= d *.i X 5.<XeXsXjXuX;.2XM x w.0.0.u.K.,.. zXzXzXzXzXzXzXzXzXzXzXzXzXzX",
"zXzXzXzXzXzXzXzXzXzXzXzXzXzXzXzXzXzXzXzXzXzXzXzXzXzX; 7.rXsXhXaX2Xf j v J 8.,Xi = h h j x q.0.0.v >   zXzXzXzXzXzXzXzXzXzXzXzXzX",
"zXzXzXzXzXzXzXzXzXzXzXzXzXzXzXzXzXzXzXzXzXzXzXzXzXi 2XjXjXjXjXjXkXyXC w.b.t.j o 6.:X:X8.*.4 x x j 5 ;.= zXzXzXzXzXzXzXzXzXzXzXzX",
"zXzXzXzXzXzXzXzXzXzXzXzXzXzXzXzXzXzXzXzXzXzXzXzXzX<XsXjXjXjXjXjXhXaXeXz r.r.t.:.<XeX6X3X<X:X=.: M :X,Xd zXzXzXzXzXzXzXzXzXzXzXzX",
"zXzXzXzXzXzXzXzXzXzXzXzXzXzXzXzXzXzXzXzXzXzXzXzXf uXaXhXjXjXkXhXaXaXuX7.0.r.v.qX;.eX6X6X2X<X5.*.3X3X*.zXzXzXzXzXzXzXzXzXzXzXzXzX",
"zXzXzXzXzXzXzXzXzXzXzXzXzXzXzXzXzXzXzXzXzXzXzXzX;.eXuXaXaXaXaXaXaXaXiX6Xl r.f.lXd wX6X5X,X*.6.6X<Xf zXzXzXzXzXzXzXzXzXzXzXzXzXzX",
"zXzXzXzXzXzXzXzXzXzXzXzXzXzXzXzXzXzXzXzXzXzXzX= ;.6.6.6.7.,X5XrXiXyXrXrXf r.r.Y.C 6X6X,Xd >X5X:Xi zXzXzXzXzXzXzXzXzXzXzXzXzXzXzX",
"zXzXzXzXzXzXzXzXzXzXzXzXzXzXzXzXzXzXzXzXzXzXzXf yXhXjXhXrX<X6.=.*.;.6.>X*.x w.0.=.6X:Xd 2X6X7.O zXzXzXzXzXzXzXzXzXzXzXzXzXzXzXzX",
"zXzXzXzXzXzXzXzXzXzXzXzXzXzXzXzXzXzXzXzXzXzXzX= *.7.<X6XrXaXaXaXaXrX3X,X6.=.N > C 6.*.2X5X;.o zXzXzXzXzXzXzXzXzXzXzXzXzXzXzXzXzX",
"zXzXzXzXzXzXzXzXzXzXzXzXzXzXzXzXzXzXzXzXzXzXzXzXzXzXzXzX  = d 6.:X3XeXuXaXaXuXeX0 5.6X2Xf zXzXzXzXzXzXzXzXzXzXzXzXzXzXzXzXzXzXzX",
"zXzXzXzXzXzXzXzXzXzXzXzXzXzXzXzXzXzXzXzXzXzXzXzXzXzXzXzXzXzXzXzXzXzXo ; i ;.6.:Xf 6X,X; zXzXzXzXzXzXzXzXzXzXzXzXzXzXzXzXzXzXzXzX",
"zXzXzXzXzXzXzXzXzXzXzXzXzXzXzXzXzXzXzXzXzXzXzXzXzXzXzXzXzXzXzXzXzXzXzXzX  =.f 6.,X>X= zXzXzXzXzXzXzXzXzXzXzXzXzXzXzXzXzXzXzXzXzX",
"zXzXzXzXzXzXzXzXzXzXzXzXzXzXzXzXzXzXzXzXzXzXzXzXzXzXzXzXzXzXzXzXzXzXzXzXzXw ,X6X5.zXzXzXzXzXzXzXzXzXzXzXzXzXzXzXzXzXzXzXzXzXzXzX",
"zXzXzXzXzXzXzXzXzXzXzXzXzXzXzXzXzXzXzXzXzXzXzXzXzXzXzXzXzXzXzXzXzXzXzXzXzXO 5.i zXzXzXzXzXzXzXzXzXzXzXzXzXzXzXzXzXzXzXzXzXzXzXzX",
"zXzXzXzXzXzXzXzXzXzXzXzXzXzXzXzXzXzXzXzXzXzXzXzXzXzXzXzXzXzXzXzXzXzXzXzXzXzX  zXzXzXzXzXzXzXzXzXzXzXzXzXzXzXzXzXzXzXzXzXzXzXzXzX"
};
