/* XPM */
static char *result[] = {
/* columns rows colors chars-per-pixel */
"64 96 228 2 ",
"   c #020202",
".  c #0C0606",
"X  c #050B0B",
"o  c #0C0A0A",
"O  c #00040D",
"+  c #140B0B",
"@  c #1B0E0E",
"#  c #170505",
"$  c #040C18",
"%  c #0A1313",
"&  c #0E1B1B",
"*  c #071111",
"=  c #131313",
"-  c #1B1111",
";  c #121A1A",
":  c #1A1A1A",
">  c #180E10",
",  c #250708",
"<  c #360809",
"1  c #251313",
"2  c #2C1516",
"3  c #291919",
"4  c #341B1B",
"5  c #3C1D1E",
"6  c #391618",
"7  c #2C100C",
"8  c #010D24",
"9  c #02163B",
"0  c #0D1A2A",
"q  c #0C2626",
"w  c #132424",
"e  c #152B2B",
"r  c #1A292A",
"t  c #1A3334",
"y  c #1E3B3B",
"u  c #163637",
"i  c #0D3A3A",
"p  c #282929",
"a  c #3F2020",
"s  c #233D3D",
"d  c #383939",
"f  c #312E31",
"g  c #2E1F21",
"h  c #481214",
"j  c #551415",
"k  c #500B0A",
"l  c #650000",
"z  c #770403",
"x  c #681418",
"c  c #76161D",
"v  c #611C0C",
"b  c #6E2A06",
"n  c #432323",
"m  c #4A2626",
"M  c #4F2828",
"N  c #532A2A",
"B  c #5B2E2E",
"V  c #5F3030",
"C  c #473636",
"Z  c #653333",
"A  c #6A3535",
"S  c #6F3838",
"D  c #6B3439",
"F  c #733A3A",
"G  c #7B3E3E",
"H  c #773339",
"J  c #6C242C",
"K  c #7F1720",
"L  c #011846",
"P  c #001C54",
"I  c #1B3A47",
"U  c #162E50",
"Y  c #032568",
"T  c #00297C",
"R  c #143460",
"E  c #233A6A",
"W  c #7C3942",
"Q  c #1E4444",
"!  c #1A5555",
"~  c #224444",
"^  c #244C4C",
"/  c #294E4E",
"(  c #274548",
")  c #374747",
"_  c #2B5353",
"`  c #2C5B5B",
"'  c #265455",
"]  c #315E5E",
"[  c #3A5859",
"{  c #30516D",
"}  c #2C6464",
"|  c #2A6A6A",
" . c #336262",
".. c #3B6465",
"X. c #356A6A",
"o. c #396D6D",
"O. c #337474",
"+. c #3C7575",
"@. c #357C7C",
"#. c #3E7B7B",
"$. c #2D7575",
"%. c #444444",
"&. c #4B4B4B",
"*. c #494949",
"=. c #545454",
"-. c #5C5C5C",
";. c #56595B",
":. c #584A4D",
">. c #7F4040",
",. c #794449",
"<. c #6C4A4F",
"1. c #417D7D",
"2. c #4B7373",
"3. c #547878",
"4. c #456566",
"5. c #666464",
"6. c #7A6865",
"7. c #7D7D7D",
"8. c #767676",
"9. c #615F60",
"0. c #8C0000",
"q. c #920606",
"w. c #871713",
"e. c #B90100",
"r. c #AF0C08",
"t. c #B23516",
"y. c #8A1923",
"u. c #851A22",
"i. c #991C26",
"p. c #AD1F2C",
"a. c #A41E29",
"s. c #903636",
"d. c #AE222A",
"f. c #B6202E",
"g. c #BB242C",
"h. c #BD2230",
"j. c #873205",
"k. c #C42332",
"l. c #CB2433",
"z. c #D22535",
"x. c #CC2D26",
"c. c #C10900",
"v. c #91443C",
"b. c #D6490E",
"n. c #BA3C49",
"m. c #A93F49",
"M. c #C53C4C",
"N. c #834242",
"B. c #894646",
"V. c #8E4949",
"C. c #8C414B",
"Z. c #934B4B",
"A. c #9A4E4E",
"S. c #9C5050",
"D. c #914A53",
"F. c #B24852",
"G. c #947675",
"H. c #DF4555",
"J. c #E04C5B",
"K. c #E1505F",
"L. c #CC5764",
"P. c #E25666",
"I. c #E36573",
"U. c #DA6472",
"Y. c #92867D",
"T. c #0A368E",
"R. c #093DA3",
"E. c #2A4D92",
"W. c #315398",
"Q. c #0C41AA",
"!. c #1047B7",
"~. c #134EC5",
"^. c #1B5AD9",
"/. c #1652CA",
"(. c #2E63CF",
"). c #2364E6",
"_. c #276BF5",
"`. c #3373F5",
"'. c #3A8383",
"]. c #3E8A8A",
"[. c #448484",
"{. c #458A8A",
"}. c #498D8D",
"|. c #4C9494",
" X c #4F9999",
".X c #439393",
"XX c #529D9D",
"oX c #5F8181",
"OX c #668686",
"+X c #7A9999",
"@X c #55A3A3",
"#X c #58A7A7",
"$X c #5AACAC",
"%X c #838383",
"&X c #898A8A",
"*X c #939393",
"=X c #9B9B9B",
"-X c #90958E",
";X c #A8948E",
":X c #90A6A6",
">X c #A4A4A4",
",X c #ACACAC",
"<X c gray70",
"1X c gray73",
"2X c #AEB8B7",
"3X c #CAB2B2",
"4X c #CDC6B7",
"5X c #B4C3C3",
"6X c #C4C4C4",
"7X c #CBCBCB",
"8X c #C2CECE",
"9X c #CAD4D4",
"0X c #D3D3D3",
"qX c #DCDCDC",
"wX c #D9D3C4",
"eX c #FCF1DC",
"rX c #ECE7DA",
"tX c #DCE3E3",
"yX c #E5E5E5",
"uX c #EBECEC",
"iX c #E6EAE9",
"pX c #FCF6E9",
"aX c #F4F4F4",
"sX c #FEFEFE",
"dX c #FAF9F6",
"fX c #EEF1F1",
"gX c #E3DFD5",
"hX c None",
/* pixels */
"hXhXhXhXhXhXhXhXhXhXhXhXhXhXhXhXhXhXhXhXhXhXhXhXhXhXhXhXhXhXhXhXhXhXhXhXhXhXhXhXhXhXhXhXhXhXhXhXhXhXhXhXhXhXhXhXhXhXhXhXhXhXhXhX",
"hXhXhXhXhXhXhXhXhXhXhXhXhXhXhXhXhXhXhXhXhXhXhXhXhXhXhXhXhXhXhXhXhXhXhXhXhXhXhXhXhXhXhXhXhXhXhXhXhXhXhXhXhXhXhXhXhXhXhXhXhXhXhXhX",
"hXhXhXhXhXhXhXhXhXhXhXhXhXhXhXhXhXhXhXhXhXhXhXhXhXhXhXhXhXhXhXhXhXhXhXhXhXhXhXhXhXhXhXhXhXhXhXhXhXhXhXhXhXhXhXhXhXhXhXhXhXhXhXhX",
"hXhXhXhXhXhXhXhXhXhXhXhXhXhXhXhXhXhXhXhXhXhXhXhXhXhXhXhXhXhXhXhXhXhXhXhXhXhXhXhXhXhXhXhXhXhXhXhXhXhXhXhXhXhXhXhXhXhXhXhXhXhXhXhX",
"hXhXhXhXhXhXhXhXhXhXhXhXhXhXhXhXhXhXhXhXhXhXhXhXhXhXhXhXhXhXhXhXhXhXhXhXhXhXhXhXhXhXhXhXhXhXhXhXhXhXhXhXhXhXhXhXhXhXhXhXhXhXhXhX",
"hXhXhXhXhXhXhXhXhXhXhXhXhXhXhXhXhXhXhXhXhXhXhXhXhXhXhXhXhXhXhXhXhXhXhXhX  hXhXhXhXhXhXhXhXhXhXhXhXhXhXhXhXhXhXhXhXhXhXhXhXhXhXhX",
"hXhXhXhXhXhXhXhXhXhXhXhXhXhXhXhXhXhXhXhXhXhXhXhXhXhXhXhXhXhXhXhXhXhXhXhX.   hXhXhXhXhXhXhXhXhXhXhXhXhXhXhXhXhXhXhXhXhXhXhXhXhXhX",
"hXhXhXhXhXhXhXhXhXhXhXhXhXhXhXhXhXhXhXhXhXhXhXhXhXhXhXhXhXhXhXhXhXhXhXhX. 1 hXhXhXhXhXhXhXhXhXhXhXhXhXhXhXhXhXhXhXhXhXhXhXhXhXhX",
"hXhXhXhXhXhXhXhXhXhXhXhXhXhXhXhXhX  + 1 a a m N N N M n 5 2 @ X hXhXhXhX  V + hXhXhXhXhXhXhXhXhXhXhXhXhXhXhXhXhXhXhXhXhXhXhXhXhX",
"hXhXhXhXhXhXhXhXhXhXhXhXhX  . 4 B G B.Z.Z.A.Z.Z.Z.Z.Z.A.A.Z.V.>.Z a .     V n hXhXhXhXhXhXhXhXhXhXhXhXhXhXhXhXhXhXhXhXhXhXhXhXhX",
"hXhXhXhXhXhXhXhXhXhXhX+ n F Z.Z.V.B.N.>.G G N.N.N.>.G G G G >.N.B.Z.Z.F h B F + hXhXhXhXhXhXhXhXhXhXhXhXhXhXhXhXhXhXhXhXhXhXhXhX",
"hXhXhXhXhXhXhXhXhX  m N.V.N.>.G G G G >.N.N.N.N.N.N.N.N.N.>.>.G G G >.N.V.G F F B B M m @     hXhXhXhXhXhXhXhXhXhXhXhXhXhXhXhXhX",
"hXhXhXhXhXhXhXhXhX  n A Z F F G G >.>.N.N.N.N.B.B.N.N.N.>.>.>.G G F F F F F S G G Z n -   hXhXhXhXhXhXhXhXhXhXhXhXhXhXhXhXhXhXhX",
"hXhXhXhXhXhXhX  @ 4 M >.N.G G G G G >.>.N.B.N.B.N.N.B.N.>.>.>.G G G G F F F F A A n +   hXhXhXhXhXhXhXhXhXhXhXhXhXhXhXhXhXhXhXhX",
"hXhXhXhXhX  + m Z S S S F G F G G >.>.>.N.N.N.N.N.N.N.N.>.>.G G F G F F F F S F G N.N.M + hXhXhXhXhXhXhXhXhXhXhXhXhXhXhXhXhXhXhX",
"hXhXhXhXhXhX  + n V F N.N.N.N.G G >.>.G s.N.G N.N.G N.G G >.G G G G G N.N.G N.A.S.V.A S Z .   hXhXhXhXhXhXhXhXhXhXhXhXhXhXhXhXhX",
"hXhXhXhXhX  + n S Z.S.S.S.S.S.A.A.Z.Z.Z.V.V.Z.V.V.V.V.V.V.V.Z.A.Z.A.S.S.N.B N.A.A.A.G @   hXhXhXhXhXhXhXhXhXhXhXhXhXhXhXhXhXhXhX",
"hXhX    2 Z N.G N.V.A.S.S.S.S.A.S.S.S.S.S.S.S.S.A.F A.S.S.S.S.>.F S.S.G B N N.Z.B.F A B . hXhXhXhXhXhXhXhXhXhXhXhXhXhXhXhXhXhXhX",
"hXhX    . 1 a Z G N.G F N.Z.A.A.S.S.S.S.S.A.S.S.G N N.S.S.S.>.N S Z.A N N N A A Z A Z Z n   hXhXhXhXhXhXhXhXhXhXhXhXhXhXhXhXhXhX",
"hXhX    4 Z N.B.N.F A A S S S Z F N.V.V.V.S V.Z.B N Z Z.Z.G N N V V N M M N N Z Z Z Z Z Z + hXhXhXhXhXhXhXhXhXhXhXhXhXhXhXhXhXhX",
"hXhXhX  2 N B Z Z A A Z A A Z N B A S A N N A Z M N N Z Z N N N N N M 1 M M N A Z A Z Z Z 2 hXhXhXhXhXhXhXhXhXhXhXhXhXhXhXhXhXhX",
"hXhXhXhX  1 B Z F Z Z N V Z B N N A A N N N V N N N N N M N M N N n + @ n M B Z B V Z A Z m . hXhXhXhXhXhXhXhXhXhXhXhXhXhXhXhXhX",
"hXhX  + 5 S N.N.F Z B N N B N N N B N N M N B M M 5 M M N m 1 M m ; w +   M B N N V Z Z Z B + hXhXhXhXhXhXhXhXhXhXhXhXhXhXhXhXhX",
"hX  . a N B B V Z V N N N N 4 2 M N N m 4 N N m @ % m M 2 & - 5 ; +.w s - N N N N V Z Z Z A @ hXhXhXhXhXhXhXhXhXhXhXhXhXhXhXhXhX",
"hXhXhX  . 2 B F Z N N n M n = @ N N 4 = + N a = +./ 2 - / o.+ : [.{.+.1.1 N N N N Z Z V Z Z 1 hXhXhXhXhXhXhXhXhXhXhXhXhXhXhXhXhX",
"hXhXhXhXhX  A Z V N a   5 : +.; n = ^ XXw 2 t |.@Xo.r }.@X` t |.XXXXXX .5 M 4 1 N B V B Z Z 2 hXhXhXhXhXhXhXhXhXhXhXhXhXhXhXhXhX",
"hXhXhXhXhX2 A N N n w ] . +.XXw t [.@X@Xt ] XX#X#X@X@X@X@X1.|.@XXXXXXX^ @ = e 2 N N B N Z Z 2 hXhXhXhXhXhXhXhXhXhXhXhXhXhXhXhXhX",
"hXhXhXhX  M N M N : [.[.X.XXXX[.XX@X@X@XXX#X#X#X#X$X$X$X#X@X@X@X@XXXXXt _ +./ 2 N N N N Z Z 2 hXhXhXhXhXhXhXhXhXhXhXhXhXhXhXhXhX",
"hXhXhXhX. 4 + 5 M s XXXXXXXXXX@X@X@X@X#X#X#X$X$X$X$X$X$X$X$X#X@X@XXX1./ ] +.s n N N N B Z Z 1 hXhXhXhXhXhXhXhXhXhXhXhXhXhXhXhXhX",
"hXhXhXhX  hXhX1 M s XX X1.|.XX@X@X@X#X#X#X$X$X$X$X$X$X$X$X$X#X@X[.|.] / ^  .t m m N N N B Z 1 hXhXhXhXhXhXhXhXhXhXhXhXhXhXhXhXhX",
"hXhXhXhXhXhXhX. M ) XX X` 1.@X@X#X@X#X#X#X$X$X$X$X$X$X$X$X$X$X#X1.|.X./ ( 1.t m + M N N N B + hXhXhXhXhXhXhXhXhXhXhXhXhXhXhXhXhX",
"hXhXhXhXhXhXhX  n ) +.] +.|.@X$X$X$X@X#X#X$X#X$X$X$X$X$X$X$X$X@X|.|.|.1.1.|.r 1 . m N N N m + hXhXhXhXhXhXhXhXhXhXhXhXhXhXhXhXhX",
"hXhXhXhXhXhXhXhX6 [ ../ |.XX$X$X$X#X@X#X@XXX#X#X$X$X$X@X@X{.+. .] ..o.[.XX}.& w ; m N M n 4   hXhXhXhXhXhXhXhXhXhXhXhXhXhXhXhXhX",
"hXhXhXhXhXhXhXhX@ ..1. . XXX@X#X$X#X@X@X@X#X#X#X#X#X#X@X#.OX2XqXtX5XOX] o.1.w o.e n M +       hXhXhXhXhXhXhXhXhXhXhXhXhXhXhXhXhX",
"hXhXhXhXhXhXhXhX. ..XX|. X|. XXX#X#X@XXX[. X@X@X@X@X@X1.+XuXsXsXsXsXaX+X] / ] {.t a n   & w &   hXhXhXhXhXhXhXhXhXhXhXhXhXhXhXhX",
"hXhXhXhXhXhX  t w ] XX|.1.o.1.{.XX@X@X|._ +.@X@X@X@X|.2.uXaXuXsXsXsXsXaX3.` [.|.s 5 4 y |.XX X1.r hXhXhXhXhXhXhXhXhXhXhXhXhXhXhX",
"hXhXhXhXhX  / |._ / @X+.oX9XiX2X}.XXXXXX[. XXX@X@X@XW.:XaXyXuXsXsXsXsXsX:X .o.|._ 4 @ _ {.{.{..X|.y hXhXhXhXhXhXhXhXhXhXhXhXhXhX",
"hXhXhXhXhXy |.}.X.~ |...9XdXsXsX-XXX[..XXXXXXXXXXX Xo.5XuXyXyXaXsXsXsXsX7X .X. X .2 o +.#.#.#.{.}.{.& hXhXhXhXhXhXhXhXhXhXhXhXhX",
"hXhXhXhX  [.}.[. .~ [.3.uXuXsXsX9X|. XXX XXXXXXXXX|.X.5XuXuXyXiXaXaXsXsX9X . . X+.+ % +.+.+.+.#.{.}.] hXhXhXhXhXhXhXhXhXhXhXhXhX",
"hXhXhXhX% |.{.1.` ^ #.OXuXiXdXsXrX}. X X X X X X X|.o.:XaXuXiXyXyXuXsXsX>X]  . X#.  w #.+.+.+.+.[.{.+.  hXhXhXhXhXhXhXhXhXhXhXhX",
"hXhXhXhXe |.{.#./ ` 1.3.uXiXyXdX9X{.|.|. X X X X|.|.#.2.fXsXaXyXuXdXsXaX3.] +.|.+.X s +.#.+.+.+.[.{.#.  hXhXhXhXhXhXhXhXhXhXhXhX",
"hXhXhXhX; |.{.#.t X.1...tXaXaXsX:X}.|.|.|.|.|.|.|.|.[. .:XdXsXdXsXsXsX:X .] [.}.#.* _ +.+.+.+.#.[.[.+.  hXhXhXhXhXhXhXhXhXhXhXhX",
"hXhXhXhX  #.{.[.w 1.{. .OXuXdX8Xo.|.|.|.|.|.|.|.|.|.|.+.` OX5XiXuX8XOX . .o.|.{.+.w  .+.+.+.+.#.{.{.^ hXhXhXhXhXhXhXhXhXhXhXhXhX",
"hXhXhXhXhXQ {.{.& {.}.#.] 4.2. .{.}.}.}.|.}.|..X}.|.}.}.X. ...o... . . .X.|.{.#.+.y +.#.#.+.+.[.{.+.% hXhXhXhXhXhXhXhXhXhXhXhXhX",
"hXhXhXhXhX  ` {.& 1.{.}.1.X.o.[.}.}.}.}.}.}.|.}.}.|.}.}.|.#...] ]  . .+.XX{.#._ +._ +.+.+.#.[.{.#.e hXhXhXhXhXhXhXhXhXhXhXhXhXhX",
"hXhXhXhXhXhXX ^ ~ ^ {. .}.}.}.{.{.}.}.}.[.#.+.+.#.'.{.|.{.}.|.}.}.}. X|.{.[.+.o.+.O.o.} [.{.[.` % hXhXhXhXhXhXhXhXhXhXhXhXhXhXhX",
"hXhXhXhXhXhXhX      s X.o.{.{.{.{.[.2.] 9.<.,.<.D <.:.4.1.{.{.{.{.{.o. .o.X.+.+.+. .w     X     hXhXhXhXhXhXhXhXhXhXhXhXhXhXhXhX",
"hXhXhXhXhXhXhXhXhXhX  & _ 1.[.[.o. .-.N.<.Y.3X4XyX4X;XD D.;.1.{.[.#._ / o.o.+.o.~ = # hXhXhXhXhXhXhXhXhXhXhXhXhXhXhXhXhXhXhXhXhX",
"hXhXhXhXhXhXhXhXhXhXhXhX  & ~ ` [ C.6.rXeXpXdXpXsXpXeXpX-Xn.S...+.+.X.] ` t ; # k c x # hXhXhXhXhXhXhXhXhXhXhXhXhXhXhXhXhXhXhXhX",
"hXhXhXhXhXhXhXhXhXhXhXhXhXhX    : J -XdXrXeXpXeXsXdXeXiXY.n.M.,.I e & > < x y.i.i.y.c h hXhXhXhXhXhXhXhXhXhXhXhXhXhXhXhXhXhXhXhX",
"hXhXhXhXhXhXhXhXhXhXhXhXhXhXhXhXhXhX  5 H u.G 4XdXgXY.H + , # j c i.p.f.f.p.a.a.x h 6 < . hXhXhXhXhXhXhXhXhXhXhXhXhXhXhXhXhXhXhX",
"hXhXhXhXhXhXhXhXhXhXhXhXhXhXhXhXhXhXhXJ H.H.M.,.Z.F.h.M.b t.w.b.z.k.k.h.f.p.a.h t.a.i.x < hXhXhXhXhXhXhXhXhXhXhXhXhXhXhXhXhXhXhX",
"hXhXhXhXhXhXhXhXhXhXhXhXhXhXhXhXhXhXhXJ K.H.H.H.J.H.J.F.b.f.u.b.z.l.k.h.f.p.y.j.g.d.i.y.x , hXhXhXhXhXhXhXhXhXhXhXhXhXhXhXhXhXhX",
"hXhXhXhXhXhXhXhXhXhXhXhXhXhXhXhXhXhXhXhXL.K.K.K.K.K.P.v.x.f.w.b.z.l.k.h.f.p.x b.g.d.a.y.x < hXhXhXhXhXhXhXhXhXhXhXhXhXhXhXhXhXhX",
"hXhXhXhXhXhXhXhXhXhXhXhXhXhXhXhXhXhXhXhXW I.P.P.P.P.F.7 u.j j b.z.l.k.h.f.p.v t.f.a.i.y.x < hXhXhXhXhXhXhXhXhXhXhXhXhXhXhXhXhXhX",
"hXhXhXhXhXhXhXhXhXhXhXhXhXhXhXhXhXhXhXhXhXD L.I.U.B.3 hX3 ' t b.z.l.k.h.h.y., h 6 7 2 c j , . hXhXhXhXhXhXhXhXhXhXhXhXhXhXhXhXhX",
"hXhXhXhXhXhXhXhXhXhXhXhXhXhXhXhXhXhXhXhXhX% . hXhXhXhXhX} '.] b.z.l.k.h.f.y.u.: XX{. .p + 7 , hXhXhXhXhXhXhXhXhXhXhXhXhXhXhXhXhX",
"hXhXhXhXhXhXhXhXhXhXhXhXhXhXhXhXhXhXhXhX  } Q hXhXhXhX* ` @.` b x.p.k.h.p.p.a.%.#X X1.X.6 @ , hXhXhXhXhXhXhXhXhXhXhXhXhXhXhXhXhX",
"hXhXhXhXhXhXhXhXhXhXhXhXhXhXw } $./ % hX  t O.^ hXy ` ].@.@.| w j.6 k.u.f h h / }.}.1.X.v g e hXhXhXhXhXhXhXhXhXhXhXhXhXhXhXhXhX",
"hXhXhXhXhXhXhXhXhXhXhXhXhXq X.} ^ o.O.} ' Q X.@.' ]..X].'.@.$.^ ` ) i.f ] r { |.|.}.+.] 2 s _ hXhXhXhXhXhXhXhXhXhXhXhXhXhXhXhXhX",
"hXhXhXhXhXhXhXhXhXhXhXhXhXw y % X y ]..X].+.@.@.@.].].'.W.@.| ^ }...7 s _ |.@X}.|.}.+._ `  .` hXhXhXhXhXhXhXhXhXhXhXhXhXhXhXhXhX",
"hXhXhXhXhXhXhXhXhXhXhXhXhXhXX u ^ Q ].].'.@.'.@.@.'.@.$.| | ' y XX..t 1.#X#XXXXX}.[.X.W.1.#.] hXhXhXhXhXhXhXhXhXhXhXhXhXhXhXhXhX",
"hXhXhXhXhXhXhXhXhXhXhXhXhXhXQ @.@.@.'.@.'.@.@.@.$.$.| ' e w u s ^  . X|.XXXX X}.[.#._ {.#.o. .hXhXhXhXhXhXhXhXhXhXhXhXhXhXhXhXhX",
"hXhXhXhXhXhXhXhXhXhXhXhXhX& | y & ^ @.X.@.O.$.$.} ^ q X ~ |.XX@XXX X X X|.}.[.+._ t I ' ( ~ y   hXhXhXhXhXhXhXhXhXhXhXhXhXhXhXhX",
"hXhXhXhXhXhXhXhXhXhXhXhXhXu ` * X ^ $.} | X.| } u hXhXhX& ~ 1.@XXX X}.}.{.1.[ U E.{ E E.E.E.E.$ hXhXhXhXhXhXhXhXhXhXhXhXhXhXhXhX",
"hXhXhXhXhXhXhXhXhXhXhXhXhXX X hX^ } ^ ~ ^ ^ s & hXhXhXhXhX~ XX@X@X X{.1. .U T.!.Y W.`.).T.T Y O hXhXhXhXhXhXhXhXhXhXhXhXhXhXhXhX",
"hXhXhXhXhXhXhXhXhXhXhXhXhXhXhXhX` t hXhXhXhXhXhXhXhXhXhX  |.#X#XXX|.}.+.R ~./.T.W.`.).^.!.T L hXhXhXhXhXhXhXhXhXhXhXhXhXhXhXhXhX",
"hXhXhXhXhXhXhXhXhXhXhXhXhXhXhXhX! t hXhXhXhXhXhXhXhX% ~ +.@XXX@X X{.[. .9 Y Y R `._.).^.!.T 8 hXhXhXhXhXhXhXhXhXhXhXhXhXhXhXhXhX",
"hXhXhXhXhXhXhXhXhXhXhXhXhXhXhXhX& % hXhXhXhXhXhXhXhX..{.1.|.|.XX|.1.1.s 9 O r `._._.^.~.R.T.9 hXhXhXhXhXhXhXhXhXhXhXhXhXhXhXhXhX",
"hXhXhXhXhXhXhXhXhXhXhXhXhXhXhXhXhXhXhXhXhXhXhXhXhXe {.^   t }.|.{.1.` L T 0 (.`._.^./.Q.T.Y $ hXhXhXhXhXhXhXhXhXhXhXhXhXhXhXhXhX",
"hXhXhXhXhXhXhXhXhXhXhXhXhXhXhXhXhXhXhXhXhXhXhXhXhXe [.e % }.[.+.[. .L R.L E (.`.).^.~.T.T L hXhXhXhXhXhXhXhXhXhXhXhXhXhXhXhXhXhX",
"hXhXhXhXhXhXhXhXhXhXhXhXhXhXhXhXhXhXhXhXhXhXhXhXhXw o.* ] 1.y & [.( !.Q.P 8 T.T.^.~.R.T.P hXhXhXhXhXhXhXhXhXhXhXhXhXhXhXhXhXhXhX",
"hXhXhXhXhXhXhXhXhXhXhXhXhXhXhXhXhXhXhXhXhXhXhXhXhXhXX hX_ +.e U [.I Y Q.Y e ` & L R.T.T 8 hXhXhXhXhXhXhXhXhXhXhXhXhXhXhXhXhXhXhX",
"hXhXhXhXhXhXhXhXhXhXhXhXhXhXhXhXhXhXhXhXhXhXhXhXhXhXhXhX% 1.s E ~ '._ $ ` #XXX}.t Y Y P hXhXhXhXhXhXhXhXhXhXhXhXhXhXhXhXhXhXhXhX",
"hXhXhXhXhXhXhXhXhXhXhXhXhXhXhXhXhXhXhXhXhXhXhXhXhXhXhXhXhXy t   X q w u XX@XXX|.^ ; 9 O hXhXhXhXhXhXhXhXhXhXhXhXhXhXhXhXhXhXhXhX",
"hXhXhXhXhXhXhXhXhXhXhXhXhXhXhXhXhXhXhXhXhXhXhXhXhXhXhXhXhXhXhXhXX ! } ! @X#XXX}./   . hXhXhXhXhXhXhXhXhXhXhXhXhXhXhXhXhXhXhXhXhX",
"hXhXhXhXhXhXhXhXhXhXhXhXhXhXhXhXhXhXhXhXhXhXhXhXhXhXhXhXhXhXhXhXhXe $.Q @XXX|.[.u Q q   hXhXhXhXhXhXhXhXhXhXhXhXhXhXhXhXhXhXhXhX",
"hXhXhXhXhXhXhXhXhXhXhXhXhXhXhXhXhXhXhXhXhXhXhXhXhXhXhXhXhXhXhXhXhXhX! _ @XXX|.+.e ! i =.OX: hXhXhXhXhXhXhXhXhXhXhXhXhXhXhXhXhXhX",
"hXhXhXhXhXhXhXhXhXhXhXhXhXhXhXhXhXhXhXhXhXhXhXhXhXhXhXhXhXhXhXhXhXhXX [. XXX}. .y ! *.8X>X3 j 5.C   hXhXhXhXhXhXhXhXhXhXhXhXhXhX",
"hXhXhXhXhXhXhXhXhXhXhXhXhXhXhXhXhXhXhXhXhXhXhXhXhXhXhXhXhXhXhXhXhXhXw XX|.|.[.Q ! ) 5X=Xh 0.0.A.;XG.# hXhXhXhXhXhXhXhXhXhXhXhXhX",
"hXhXhXhXhXhXhXhXhXhXhXhXhXhXhXhXhXhXhXhXhXhXhXhXhXhXhXhXhXhXhXhXhXhXs  X}.|.#.& e ,X<X6 0.0.0.0.w.z l . o hXhXhXhXhXhXhXhXhXhXhX",
"hXhXhXhXhXhXhXhXhXhXhXhXhXhXhXhXhXhXhXhXhXhXhXhXhXhXhXhXhX  hXhXhX7.*X;._ X. .hX&.,Xn z l l l 0.0.z < -.&X= hXhXhXhXhXhXhXhXhXhX",
"hXhXhXhXhXhXhXhXhXhXhXhXhXhXhXhXhXhXhXhXhXhXhXhXhXhX%.&X<X1X=X=.% 7.0XfX7X&Xd hXp f 3 *.-.-.:.C h < =.,X9.hXhXhXhXhXhXhXhXhXhXhX",
"hXhXhXhXhXhXhXhXhXhXhXhXhXhXhXhXhXhXhXhXhXhXhXhXo %XyXsXsXsXsXdX-X7 v 9.1XdX2XhX  &.>X1X1X<X>X=X8.%.<X=X= hXhXhXhXhXhXhXhXhXhXhX",
"hXhXhXhXhXhXhXhXhXhXhXhXhXhXhXhXhXhXhXhXhXhXhXhX%XyXdXsXsXsXsXsXuXG.l r.v 6.7.hX&.6X9X6X1X1X>X*Xd >X>Xf hXhXhXhXhXhXhXhXhXhXhXhX",
"hXhXhXhXhXhXhXhXhXhXhXhXhXhXhXhXhXhXhXhXhXhXhXp tXyXfXsXsXsXsXdXyX0XC r.c.q., + 3X0X0X7X1X<X=X%.*X<X%.hXhXhXhXhXhXhXhXhXhXhXhXhX",
"hXhXhXhXhXhXhXhXhXhXhXhXhXhXhXhXhXhXhXhXhXhX= d G.2XqXyXuXuXiXyXyXyX7.z e.e.s.%.9X0X0X7X1X,X;.7.<X;.hXhXhXhXhXhXhXhXhXhXhXhXhXhX",
"hXhXhXhXhXhXhXhXhXhXhXhXhXhXhXhXhXhXhXhXhXhX=.6X,X8.5.&X7XyXyXyXyX0X,Xk e.x.3X*.0X0X0X6X1X8.-.<XY.= hXhXhXhXhXhXhXhXhXhXhXhXhXhX",
"hXhXhXhXhXhXhXhXhXhXhXhXhXhXhXhXhXhXhXhXhXhXf *XtXsXuX>X=.;.&X1X7X7X7X< e.x.3X:.0X0X0X1X*X*.,X=XX hXhXhXhXhXhXhXhXhXhXhXhXhXhXhX",
"hXhXhXhXhXhXhXhXhXhXhXhXhXhXhXhXhXhXhXhXhXhXhXhXd 7.<XtXyX7X&X-.-.*X6X5 r.r.G.=.7X7X6X,X%.>X,Xp hXhXhXhXhXhXhXhXhXhXhXhXhXhXhXhX",
"hXhXhXhXhXhXhXhXhXhXhXhXhXhXhXhXhXhXhXhXhXhXhXhXhXhXhXp 8.1XqXyX0X7.*.3 l 0.l %.1X1X<X&.*X<X*.hXhXhXhXhXhXhXhXhXhXhXhXhXhXhXhXhX",
"hXhXhXhXhXhXhXhXhXhXhXhXhXhXhXhXhXhXhXhXhXhXhXhXhXhXhXhXhXo p 7.6XyXyX7X8.4 # o ,X<X5.&X7X-.hXhXhXhXhXhXhXhXhXhXhXhXhXhXhXhXhXhX",
"hXhXhXhXhXhXhXhXhXhXhXhXhXhXhXhXhXhXhXhXhXhXhXhXhXhXhXhXhXhXhXhX  &.*X7XqX6X=.hXd 8.;.7X-X  hXhXhXhXhXhXhXhXhXhXhXhXhXhXhXhXhXhX",
"hXhXhXhXhXhXhXhXhXhXhXhXhXhXhXhXhXhXhXhXhXhXhXhXhXhXhXhXhXhXhXhXhXhXhX= d %Xf hXhXf >X=X: hXhXhXhXhXhXhXhXhXhXhXhXhXhXhXhXhXhXhX",
"hXhXhXhXhXhXhXhXhXhXhXhXhXhXhXhXhXhXhXhXhXhXhXhXhXhXhXhXhXhXhXhXhXhXhXhXhXhXhXhXhX= -.: hXhXhXhXhXhXhXhXhXhXhXhXhXhXhXhXhXhXhXhX",
"hXhXhXhXhXhXhXhXhXhXhXhXhXhXhXhXhXhXhXhXhXhXhXhXhXhXhXhXhXhXhXhXhXhXhXhXhXhXhXhXhXhX  hXhXhXhXhXhXhXhXhXhXhXhXhXhXhXhXhXhXhXhXhX"
};
