/* XPM */
static char *result[] = {
/* columns rows colors chars-per-pixel */
"64 96 233 2 ",
"   c #010102",
".  c #0A0505",
"X  c #050A0A",
"o  c #0B0B0B",
"O  c #030708",
"+  c #130A0B",
"@  c #1B0D0D",
"#  c #190505",
"$  c #000818",
"%  c #0A1414",
"&  c #0D1B1B",
"*  c #071111",
"=  c #131313",
"-  c #1C1111",
";  c #111D1D",
":  c #1D1D1D",
">  c #140F10",
",  c #290707",
"<  c #380A0D",
"1  c #231212",
"2  c #2B1616",
"3  c #2A1918",
"4  c #341A1A",
"5  c #3A1E1E",
"6  c #331416",
"7  c #33120B",
"8  c #000C26",
"9  c #091729",
"0  c #011338",
"q  c #0D2525",
"w  c #132424",
"e  c #152B2B",
"r  c #1B2C2C",
"t  c #192424",
"y  c #1B3434",
"u  c #1D3A3A",
"i  c #143636",
"p  c #0F333B",
"a  c #272727",
"s  c #382727",
"d  c #263C3C",
"f  c #393939",
"g  c #5A0605",
"h  c #430C10",
"j  c #48181A",
"k  c #591419",
"l  c #4A130D",
"z  c #660502",
"x  c #671418",
"c  c #74151D",
"v  c #770000",
"b  c #5E2219",
"n  c #722708",
"m  c #7E1720",
"M  c #442323",
"N  c #4A2626",
"B  c #4E2828",
"V  c #482428",
"C  c #532A2A",
"Z  c #5B2E2E",
"A  c #592226",
"S  c #5E3030",
"D  c #4F302E",
"F  c #653232",
"G  c #6C3636",
"H  c #6E3838",
"J  c #733A3A",
"K  c #7B3E3E",
"L  c #77333A",
"P  c #71272F",
"I  c #001D56",
"U  c #021A43",
"Y  c #112C53",
"T  c #00297C",
"R  c #032975",
"E  c #143269",
"W  c #263E6A",
"Q  c #20345B",
"!  c #6F3D44",
"~  c #1A4747",
"^  c #1A5959",
"/  c #0E4040",
"(  c #224444",
")  c #254A4A",
"_  c #284D4E",
"`  c #254348",
"'  c #245353",
"]  c #2B5353",
"[  c #2E5A5B",
"{  c #215D5D",
"}  c #315E5E",
"|  c #365959",
" . c #314E4E",
".. c #284378",
"X. c #284269",
"o. c #2A6868",
"O. c #336262",
"+. c #356A6A",
"@. c #396C6C",
"#. c #3A6565",
"$. c #2B7575",
"%. c #287575",
"&. c #327373",
"*. c #3C7474",
"=. c #357B7B",
"-. c #3D7B7B",
";. c #1E6464",
":. c #484747",
">. c #485B5D",
",. c #565656",
"<. c #544D47",
"1. c #7F4040",
"2. c #74464A",
"3. c #695A5A",
"4. c #67494C",
"5. c #417D7D",
"6. c #497373",
"7. c #567A7A",
"8. c #436C6C",
"9. c #6B6C6C",
"0. c #626363",
"q. c #787777",
"w. c #756A6A",
"e. c #605E60",
"r. c #8C0000",
"t. c #840000",
"y. c #8F1011",
"u. c #B90000",
"i. c #AB0A00",
"p. c #922E14",
"a. c #8C1A23",
"s. c #841821",
"d. c #9C1C27",
"f. c #A11D29",
"g. c #AC1F2C",
"h. c #B01F2C",
"j. c #95323B",
"k. c #B4202D",
"l. c #BA222F",
"z. c #BA2525",
"x. c #BE2230",
"c. c #AE202B",
"v. c #A43C06",
"b. c #C20C00",
"n. c #CF381D",
"m. c #C42332",
"M. c #CC2434",
"N. c #D32734",
"B. c #D12D2B",
"V. c #AE4207",
"C. c #CA460C",
"Z. c #D44413",
"A. c #953B46",
"S. c #B23845",
"D. c #C03C4A",
"F. c #834242",
"G. c #8A4646",
"H. c #8E4949",
"J. c #934B4B",
"K. c #9A4E4E",
"L. c #9C5050",
"P. c #8C4B51",
"I. c #A74E59",
"U. c #8A7E78",
"Y. c #DE4655",
"T. c #C64152",
"R. c #E04C5C",
"E. c #D85866",
"W. c #E25463",
"Q. c #D27C7C",
"!. c #E26371",
"~. c #8B8579",
"^. c #05328C",
"/. c #073697",
"(. c #063188",
"). c #073AA0",
"_. c #2B4D8E",
"`. c #0D41AA",
"'. c #1148B6",
"]. c #1045B0",
"[. c #124EC5",
"{. c #1753CB",
"}. c #1B5AD8",
"|. c #1F60E4",
" X c #2465E9",
".X c #286CF5",
"XX c #3373F3",
"oX c #3463C2",
"OX c #3A8484",
"+X c #3C8787",
"@X c #448484",
"#X c #468A8A",
"$X c #498D8D",
"%X c #4D8787",
"&X c #4C9494",
"*X c #4F9999",
"=X c #439393",
"-X c #529D9D",
";X c #5B8080",
":X c #668787",
">X c #7A9696",
",X c #55A3A3",
"<X c #58A7A7",
"1X c #5AABAB",
"2X c #838484",
"3X c #8C8C8C",
"4X c #9A9A9A",
"5X c #90908C",
"6X c #A7918A",
"7X c #8CA4A4",
"8X c #9CAFAF",
"9X c gray67",
"0X c #A4A4A4",
"qX c #B3B3B3",
"wX c #B9BBBA",
"eX c #AFB5AD",
"rX c #ACA79E",
"tX c #CCC5B6",
"yX c #B9C7C7",
"uX c #C9CBCB",
"iX c #CBD5D5",
"pX c #D5D5D5",
"aX c #D8DBDA",
"sX c #D5D0C6",
"dX c #F2EADA",
"fX c #E5E5E5",
"gX c #ECECEC",
"hX c #E6EBEB",
"jX c #FCF6E9",
"kX c #EEF0F0",
"lX c #F3F4F4",
"zX c #FEFEFE",
"xX c None",
/* pixels */
"xXxXxXxXxXxXxXxXxXxXxXxXxXxXxXxXxXxXxXxXxXxXxXxXxXxXxXxXxXxXxXxXxXxXxXxXxXxXxXxXxXxXxXxXxXxXxXxXxXxXxXxXxXxXxXxXxXxXxXxXxXxXxXxX",
"xXxXxXxXxXxXxXxXxXxXxXxXxXxXxXxXxXxXxXxXxXxXxXxXxXxXxXxXxXxXxXxXxXxXxXxXxXxXxXxXxXxXxXxXxXxXxXxXxXxXxXxXxXxXxXxXxXxXxXxXxXxXxXxX",
"xXxXxXxXxXxXxXxXxXxXxXxXxXxXxXxXxXxXxXxXxXxXxXxXxXxXxXxXxXxXxXxXxXxXxXxXxXxXxXxXxXxXxXxXxXxXxXxXxXxXxXxXxXxXxXxXxXxXxXxXxXxXxXxX",
"xXxXxXxXxXxXxXxXxXxXxXxXxXxXxXxXxXxXxXxXxXxXxXxXxXxXxXxXxXxXxXxXxXxXxXxXxXxXxXxXxXxXxXxXxXxXxXxXxXxXxXxXxXxXxXxXxXxXxXxXxXxXxXxX",
"xXxXxXxXxXxXxXxXxXxXxXxXxXxXxXxXxXxXxXxXxXxXxXxXxXxXxXxXxXxXxXxXxXxXxXxXxXxXxXxXxXxXxXxXxXxXxXxXxXxXxXxXxXxXxXxXxXxXxXxXxXxXxXxX",
"xXxXxXxXxXxXxXxXxXxXxXxXxXxXxXxXxXxXxXxXxXxXxXxXxXxXxXxXxXxXxXxXxXxXxXxXxXxXxXxXxXxXxXxXxXxXxXxXxXxXxXxXxXxXxXxXxXxXxXxXxXxXxXxX",
"xXxXxXxXxXxXxXxXxXxXxXxXxXxXxXxXxXxXxXxXxXxXxXxXxXxXxXxXxXxXxXxXxXxXxXxX  xXxXxXxXxXxXxXxXxXxXxXxXxXxXxXxXxXxXxXxXxXxXxXxXxXxXxX",
"xXxXxXxXxXxXxXxXxXxXxXxXxXxXxXxXxXxXxXxXxXxXxXxXxXxXxXxXxXxXxXxXxXxXxXxX.   xXxXxXxXxXxXxXxXxXxXxXxXxXxXxXxXxXxXxXxXxXxXxXxXxXxX",
"xXxXxXxXxXxXxXxXxXxXxXxXxXxXxXxXxXxXxXxXxXxXxX      xXxXxXxXxXxXxXxXxXxX. 6 xXxXxXxXxXxXxXxXxXxXxXxXxXxXxXxXxXxXxXxXxXxXxXxXxXxX",
"xXxXxXxXxXxXxXxXxXxXxXxXxXxXxXxX  O @ 5 B Z F H G H F Z C 5 - .   xXxXxX  F @ xXxXxXxXxXxXxXxXxXxXxXxXxXxXxXxXxXxXxXxXxXxXxXxXxX",
"xXxXxXxXxXxXxXxXxXxXxXxXxX+ 4 Z K H.K.J.J.H.H.G.G.G.H.H.J.J.K.H.1.C 4 +   Z B O xXxXxXxXxXxXxXxXxXxXxXxXxXxXxXxXxXxXxXxXxXxXxXxX",
"xXxXxXxXxXxXxXxXxXxX. 2 S F.J.H.G.F.1.1.1.1.1.F.F.F.F.1.K 1.1.F.G.G.J.1.D S J - . . . . .     xXxXxXxXxXxXxXxXxXxXxXxXxXxXxXxXxX",
"xXxXxXxXxXxXxXxXxX. Z J.G.F.K K K K 1.1.1.1.j.F.F.F.F.F.1.1.1.K K J J 1.G.K H j.H G S B -   xXxXxXxXxXxXxXxXxXxXxXxXxXxXxXxXxXxX",
"xXxXxXxXxXxXxXxXxX  5 F G J J K K 1.1.1.F.F.1.G.G.F.F.F.F.1.1.K K K K J J J J J J Z 5 + xXxXxXxXxXxXxXxXxXxXxXxXxXxXxXxXxXxXxXxX",
"xXxXxXxXxXxX  + 2 N F F.G.K K K 1.1.1.F.F.G.G.F.G.F.F.F.1.1.1.K K J J K J J G G G N @   xXxXxXxXxXxXxXxXxXxXxXxXxXxXxXxXxXxXxXxX",
"xXxXxXxXxX  + Z S S F G J J J K 1.1.1.1.1.F.F.F.F.F.F.F.1.K K K J K J J J J J K 1.G.J.G 1 . xXxXxXxXxXxXxXxXxXxXxXxXxXxXxXxXxXxX",
"xXxXxXxXxXxXxX. M G K H.H.G.G.F.F.F.F.F.K F.1.1.1.1.1.K K K K K 1.1.F.G.G.K F.K.K.J.F F N .   xXxXxXxXxXxXxXxXxXxXxXxXxXxXxXxXxX",
"xXxXxXxXxX+ 3 G K.L.K.L.L.L.L.L.L.L.L.L.K.K.K.J.K.J.K.K.K.K.L.L.H.L.K.K.K Z F.K.L.K.F.1   xXxXxXxXxXxXxXxXxXxXxXxXxXxXxXxXxXxXxX",
"xXxX  . N G J G H F.J.K.L.K.L.L.L.L.L.L.L.L.L.L.J.H K.L.L.L.K.J K L.J.H C C G.J.K G F Z + xXxXxXxXxXxXxXxXxXxXxXxXxXxXxXxXxXxXxX",
"xXxXxX    - N J F.G.J H F.G.H.H.J.L.L.L.L.J.L.L.H C F.L.L.K.J C H H.F C C C S F F G F F M   xXxXxXxXxXxXxXxXxXxXxXxXxXxXxXxXxXxX",
"xXxX  . C J K K K G G G G G H Z G K K F.1.F G.F.C C Z G.F.G C C Z D C B B B C F F F F F F + xXxXxXxXxXxXxXxXxXxXxXxXxXxXxXxXxXxX",
"xXxXxX  1 B Z Z F G F Z F G F C Z G H F Z B H Z B C C Z Z C C C B C N @ B C Z F F F F G F 4 xXxXxXxXxXxXxXxXxXxXxXxXxXxXxXxXxXxX",
"xXxXxXxX  @ Z K F.F F C Z G Z B C F Z Z C B F B C C C C C C B C C M . 1 4 N Z F Z Z F F F N . xXxXxXxXxXxXxXxXxXxXxXxXxXxXxXxXxX",
"xX  . 4 F K K J F F Z B B Z B N B Z C C C B Z B N 2 B C B 5 @ B 4 t e o . C Z C C F F F F Z + xXxXxXxXxXxXxXxXxXxXxXxXxXxXxXxXxX",
"xX  . 2 N C C Z F S C C C C 2 3 B Z B M 3 C B M = ; M B @ t - 5 w 5.; ) - C C C C S F F F F @ xXxXxXxXxXxXxXxXxXxXxXxXxXxXxXxXxX",
"xXxXxXxX  + S J F C C 2 B 4 w - C M - e - B 6 r &X_ @ ; 5.+.. u *X$X$X*.3 C C C C S F S F F 1 xXxXxXxXxXxXxXxXxXxXxXxXxXxXxXxXxX",
"xXxXxXxXxX+ G F Z C 2 % 6 r @X= 3 t *.,X; - ] -X,X*._ *X,X_ ) *X-X-X-X} s M 1 2 C Z Z Z F F 2 xXxXxXxXxXxXxXxXxXxXxXxXxXxXxXxXxX",
"xXxXxXxXxX5 F C C 4 y +.% $X-Xe _ *X,X,X( 5.<X<X<X<X<X<X<X%X-X,X-X-X-Xu @ ; e 2 C C Z Z F F 2 xXxXxXxXxXxXxXxXxXxXxXxXxXxXxXxXxX",
"xXxXxXxX  C M B B r &X$X@X-X-X*X-X,X,X,X,X<X<X1X1X1X1X1X1X1X,X,X,X,X*Xd @.*.( 5 C C C C G F 1 xXxXxXxXxXxXxXxXxXxXxXxXxXxXxXxXxX",
"xXxXxXxX+ @ . 5 B d -X*X*X-X-X-X,X,X,X<X<X1X1X1X1X1X1X1X1X1X<X,X-X-X*._ _ *.u M C C C C F F 1 xXxXxXxXxXxXxXxXxXxXxXxXxXxXxXxXxX",
"xXxXxXxX  xXxX1 B ` -X*X@.&X-X,X,X,X<X<X<X<X1X1X1X1X1X1X1X1X1X1X*.#X} ) _ @.r B 5 C C C C F @ xXxXxXxXxXxXxXxXxXxXxXxXxXxXxXxXxX",
"xXxXxXxXxXxXxX. B  .&X%X] @X-X<X1X,X,X<X<X1X1X1X1X1X1X1X1X1X1X1X#X*X@.) ] #Xt M + C C C C Z + xXxXxXxXxXxXxXxXxXxXxXxXxXxXxXxXxX",
"xXxXxXxXxXxXxX  N | @.} @X*X<X1X1X<X,X<X<X1X1X1X1X1X1X1X<X,X-X&X$X$X*X@X$X&X: @ . B C C C N . xXxXxXxXxXxXxXxXxXxXxXxXxXxXxXxXxX",
"xXxXxXxXxXxXxXxX4 | } _ &X,X1X1X1X1X,X,X,X-X<X<X1X1X1X<X-X5.8.6.6.O.O.5.&X@X% u ; N C M 6 1 . xXxXxXxXxXxXxXxXxXxXxXxXxXxXxXxXxX",
"xXxXxXxXxXxXxXxX@ 8.@X*.*X-X-X<X1X1X,X,X,X,X,X<X1X1X<X*X@.7XiXgXgXiX>XO.@.@.e *.w M B .       xXxXxXxXxXxXxXxXxXxXxXxXxXxXxXxXxX",
"xXxXxXxXxXxXxX  O 8.-X*X*X$X*X-X,X,X,X*X*.&X,X,X,X,X-X@.8XzXzXzXzXzXzX7XO.) @.$Xe M 5 X y y e O xXxXxXxXxXxXxXxXxXxXxXxXxXxXxXxX",
"xXxXxXxXxXxX% [ e #.-X$X@.;X:X$X-X-X,X&X] @X,X,X,X,X%X;XlXkXgXzXzXzXzXkX7.} @X&Xy M 2 ) &X&X&X@Xy O xXxXxXxXxXxXxXxXxXxXxXxXxXxX",
"xXxXxXxXxXX @.*X) ] -X@.>XlXzXuX$X-X&X*X&X*X-X,X-X-X*.8XlXfXfXzXzXzXzXzX7X} *.&X( 4 + +.#X#X@X$X*Xd xXxXxXxXxXxXxXxXxXxXxXxXxXxX",
"xXxXxXxX  } *X#XO._ $X8.hXlXzXzX7X*X@X*X-X,X-X-X-X*X+.pXgXfXfXlXzXzXzXzXyX} +.&X[ 2 X -.*.*.-.#X#X$X& xXxXxXxXxXxXxXxXxXxXxXxXxX",
"xXxXxXxXO $X#X@X] _ 5.:XgXgXzXzXyX&X*X*X*X-X*X-X*X&XO.iXgXhXfXfXgXlXzXzXwX| +.*X+.+ & *.*.-.*.-.#X&X] xXxXxXxXxXxXxXxXxXxXxXxXxX",
"xXxXxXxXe &X#X-.) ] *.:XgXfXlXzXaX$X&X*X*X*X*X*X*X&X+.7XjXlXhXfXfXgXzXzX>X} @.*X@.. e *.*.*.*.*.@X#X@.  xXxXxXxXxXxXxXxXxXxXxXxX",
"xXxXxXxXu $X#X-.d +.5.7.kXgXhXlXyX$X*X&X*X*X*X&X*X&X*.6.kXzXlXfXgXzXzXgX6.} *.&X*.O ) *.-.*.-.*.@X#X*.  xXxXxXxXxXxXxXxXxXxXxXxX",
"xXxXxXxXw $X#X5.e -.5.#.aXlXlXzX:X$X&X&X&X&X&X&X&X&X@XO.>XkXzXzXzXzXhX:X} } $X#X*.% [ -.-.*.-.*.#X#XO.  xXxXxXxXxXxXxXxXxXxXxXxX",
"xXxXxXxX  -.#X@X% #X#XO.7.aXgX7X*.=X&X&X&X&X&X&X&X&X&X*.[ 6.8XaXiX8X6.O.} 5.&X#X@.w *.*.*.*.*.-.#X#Xu xXxXxXxXxXxXxXxXxXxXxXxXxX",
"xXxXxXxXxXu @X#X% #X$X5.O.} } #.$X&X$X$X$X&X$X=X$X&X$X&X*.} O.} } O.} } *.*X#X*.*.u *.-.*.*.-.@X#XO.X xXxXxXxXxXxXxXxXxXxXxXxXxX",
"xXxXxXxXxXO ) @X& -.#X$X@X*.-.$X$X$X$X$X&X$X&X&X$X$X$X$X$X@X@.} } O.@.@X*X$X*.] -.[ *.*.-.-.@X#X&.% xXxXxXxXxXxXxXxXxXxXxXxXxXxX",
"xXxXxXxXxXxX  w y u 5.} #X#X#X#X#X#X#X@X*.@.#.#.8.*._.$X$X$X$X&X&X*X&X#X@X*.*.*.*.*.O.) *.-.@.u O xXxXxXxXxXxXxXxXxXxXxXxXxXxXxX",
"xXxXxXxXxXxXxXxX    r +.&.#X#X#X#X-.#.>.3.H.! ! 4.! 3.e.8.#X#X#X#X#XO.O.+.+.*.*.*.[ &   O O     xXxXxXxXxXxXxXxXxXxXxXxXxXxXxXxX",
"xXxXxXxXxXxXxXxXxXxXxXX ( @.-.@X#.>.2.2.5XtXdXjXzXdXeX2.G.3.8.5.@X*._ ] @.*.@.[ w # h xXxXxXxXxXxXxXxXxXxXxXxXxXxXxXxXxXxXxXxXxX",
"xXxXxXxXxXxXxXxXxXxXxXxX  * y _ >.A.6XkXdXjXzXjXzXjXjXjX~.T.I.#.@.*.+.[ ) w > , x c c h xXxXxXxXxXxXxXxXxXxXxXxXxXxXxXxXxXxXxXxX",
"xXxXxXxXxXxXxXxXxXxXxXxXxXxXxX  + 6 U.sXtXtXfXjXzXjXdXeX<.S.A.B w = @ < x s.f.f.a.x h h # xXxXxXxXxXxXxXxXxXxXxXxXxXxXxXxXxXxXxX",
"xXxXxXxXxXxXxXxXxXxXxXxXxXxXxXxXxXxXxXA j.x.j.tXdXrX3.d.. 7 h p.d.g.l.l.k.c.c.s.n p.a.k # xXxXxXxXxXxXxXxXxXxXxXxXxXxXxXxXxXxXxX",
"xXxXxXxXxXxXxXxXxXxXxXxXxXxXxXxXxXxXxXP R.Y.S.j.j.S.Y.S.l n.a.C.N.M.x.x.l.c.f.l n.g.f.s.x # xXxXxXxXxXxXxXxXxXxXxXxXxXxXxXxXxXxX",
"xXxXxXxXxXxXxXxXxXxXxXxXxXxXxXxXxXxXxXP R.Y.Y.R.R.R.R.A.V.z.a.C.N.M.m.x.k.c.c v.x.h.f.a.x < xXxXxXxXxXxXxXxXxXxXxXxXxXxXxXxXxXxX",
"xXxXxXxXxXxXxXxXxXxXxXxXxXxXxXxXxXxXxXxXE.W.W.W.R.W.W.b Z.m.a.C.M.M.m.x.l.k.x Z.m.h.f.a.x h xXxXxXxXxXxXxXxXxXxXxXxXxXxXxXxXxXxX",
"xXxXxXxXxXxXxXxXxXxXxXxXxXxXxXxXxXxXxXxXL !.W.W.W.!.H., s.x l V.N.M.M.x.k.k.< x s.x h a.x < . xXxXxXxXxXxXxXxXxXxXxXxXxXxXxXxXxX",
"xXxXxXxXxXxXxXxXxXxXxXxXxXxXxXxXxXxXxXxXxXS K.I.L.J xXxX= ;.~ v.N.N.m.x.l.a.j , #.O.[ 1 - , < xXxXxXxXxXxXxXxXxXxXxXxXxXxXxXxXxX",
"xXxXxXxXxXxXxXxXxXxXxXxXxXxXxXxXxXxXxXxXxXX X xXxXxXxXxX( =X=.p.B.M.M.x.l.g.f.V <X*X@X[ s # < xXxXxXxXxXxXxXxXxXxXxXxXxXxXxXxXxX",
"xXxXxXxXxXxXxXxXxXxXxXxXxXxXxXxX* xXxXxXxXy O.; xXxXxX& ) +.&.1 C.p.g.m.c f.m s #X&X@X*.j < e xXxXxXxXxXxXxXxXxXxXxXxXxXxXxXxXxX",
"xXxXxXxXxXxXxXxXxXxXxXxXxXxX& ' &.o.u xXO * { &.& y ' =.+X=.=.e D s m f.d a a 5.&X$X-.@.3 6 [ xXxXxXxXxXxXxXxXxXxXxXxXxXxXxXxXxX",
"xXxXxXxXxXxXxXxXxXxXxXxXxXX [ &.~ } =.+.o.' [ =.' OX=X+X+X=.=.{ 5.O.A j ( *.,X&X*X$X5.] [ ( @.q xXxXxXxXxXxXxXxXxXxXxXxXxXxXxXxX",
"xXxXxXxXxXxXxXxXxXxXxXxXxXxXy q   & @.=X=X=.=.=.&.+X+X+X=.&.{ ) @X#.d #.-X<X,X*X$X#X-.} OX*.*.r xXxXxXxXxXxXxXxXxXxXxXxXxXxXxXxX",
"xXxXxXxXxXxXxXxXxXxXxXxXxXxXxXe ) ~ &.@X#X=.OXOX&.OXOX&.Q ~ ] [ | } *X&X-X-X*X&X$XOXO.5.#X@.*.u xXxXxXxXxXxXxXxXxXxXxXxXxXxXxXxX",
"xXxXxXxXxXxXxXxXxXxXxXxXxXxXe &.+.&.OX=.OX=.=.=.&.&.o.^ ` $X$X-X,X*X*X*X*X&X#X5.@.] ( *.+.] _ w xXxXxXxXxXxXxXxXxXxXxXxXxXxXxXxX",
"xXxXxXxXxXxXxXxXxXxXxXxXxXxX' [ & r o.&.=.=.$.$.o.' i % X e @X,X-X*X$X*X$X@X+.~ X.X.X.X.W W _.W xXxXxXxXxXxXxXxXxXxXxXxXxXxXxXxX",
"xXxXxXxXxXxXxXxXxXxXxXxXxX* ' e xXu +.o.+.+.+.o.( xXxXxXxX@.-X,X-X*X#X_.+.( E {.{.].(.].`.^.(.I xXxXxXxXxXxXxXxXxXxXxXxXxXxXxXxX",
"xXxXxXxXxXxXxXxXxXxXxXxXxXxXX xXq +.' u u ( u w xXxXxXO y ,X<X<X-X&X#X*.X.{.}.{.'.E oXXX}./.T 8 xXxXxXxXxXxXxXxXxXxXxXxXxXxXxXxX",
"xXxXxXxXxXxXxXxXxXxXxXxXxXxXxXxXe '   xXxXxXxXxXxXxX( &X&X-X-X-X*X@X@X} R `.].`./._.XX X}.`.R $ xXxXxXxXxXxXxXxXxXxXxXxXxXxXxXxX",
"xXxXxXxXxXxXxXxXxXxXxXxXxXxXxXxX& ' xXxXxXxXxXxXxXy #X+.] 5.*X-X&X-.*.w 8 8 0 0 9 XX.X|.{.`.T 0 xXxXxXxXxXxXxXxXxXxXxXxXxXxXxXxX",
"xXxXxXxXxXxXxXxXxXxXxXxXxXxXxXxXO q xXxXxXxXxXxXxX) 5.X O O.&X$X#X*.~ I R 8 xXxXW XX.X|.[.).T 8 xXxXxXxXxXxXxXxXxXxXxXxXxXxXxXxX",
"xXxXxXxXxXxXxXxXxXxXxXxXxXxXxXxXxXxXxXxXxXxXxXxXxX) *.  #.%X+.+.5.( R /.T $ xXO XX.X X}.[.^.R $ xXxXxXxXxXxXxXxXxXxXxXxXxXxXxXxX",
"xXxXxXxXxXxXxXxXxXxXxXxXxXxXxXxXxXxXxXxXxXxXxXxXxXw w * 5._ Y _ @.E {.^.T $ xXQ XX.X|.{.'.(.I xXxXxXxXxXxXxXxXxXxXxXxXxXxXxXxXxX",
"xXxXxXxXxXxXxXxXxXxXxXxXxXxXxXxXxXxXxXxXxXxXxXxXxXxXxXxX@.] E ( =.Y ).(.R O xX.. X X}.[.).T U xXxXxXxXxXxXxXxXxXxXxXxXxXxXxXxXxX",
"xXxXxXxXxXxXxXxXxXxXxXxXxXxXxXxXxXxXxXxXxXxXxXxXxXxXxXxXu -.9 9 } -.i U I xX    Y 9 Y /.^.R 8 xXxXxXxXxXxXxXxXxXxXxXxXxXxXxXxXxX",
"xXxXxXxXxXxXxXxXxXxXxXxXxXxXxXxXxXxXxXxXxXxXxXxXxXxXxXxXO e . / / q p ~ p & O O 5.*.} 0 0 I xXxXxXxXxXxXxXxXxXxXxXxXxXxXxXxXxXxX",
"xXxXxXxXxXxXxXxXxXxXxXxXxXxXxXxXxXxXxXxXxXxXxXxXxXxXxXxXxXxXxXe ;.;.;.;.^ ^ / &.<X-X@Xu X 8 xXxXxXxXxXxXxXxXxXxXxXxXxXxXxXxXxXxX",
"xXxXxXxXxXxXxXxXxXxXxXxXxXxXxXxXxXxXxXxXxXxXxXxXxXxXxXxXxXxXxXxX~ %.%.%.;.;.' -X,X-X$X[ xX. xXxXxXxXxXxXxXxXxXxXxXxXxXxXxXxXxXxX",
"xXxXxXxXxXxXxXxXxXxXxXxXxXxXxXxXxXxXxXxXxXxXxXxXxXxXxXxXxXxXxXxXu $.=.%.%.%.^ -X<X-X&X} . A w.:.= xXxXxXxXxXxXxXxXxXxXxXxXxXxXxX",
"xXxXxXxXxXxXxXxXxXxXxXxXxXxXxXxXxXxXxXxXxXxXxXxXxXxXxXxXxXxXxXxXxX/ { o.%.%.{ *.<X&X$X#.z r.K.6XP.,   xXxXxXxXxXxXxXxXxXxXxXxXxX",
"xXxXxXxXxXxXxXxXxXxXxXxXxXxXxXxXxXxXxXxXxXxXxXxXxXxXxXxXxXxXxXxXxXxXxXxX& Y ~ } ,X-X&XO.z r.r.r.v g s e.% xXxXxXxXxXxXxXxXxXxXxX",
"xXxXxXxXxXxXxXxXxXxXxXxXxXxXxXxXxXxXxXxXxXxXxXxXxXxXxXxXxXxXxXxXxXxXxXxXxXxXxX] -X*X#X+.g v v t.v 6 2X5X= xXxXxXxXxXxXxXxXxXxXxX",
"xXxXxXxXxXxXxXxXxXxXxXxXxXxXxXxXxXxXxXxXxXxXxXxXxXxXxXxXxXxXxXxXxXxXxXxXxXxXxX] -X*X$X+.f ,.:.D , q.qX:.xXxXxXxXxXxXxXxXxXxXxXxX",
"xXxXxXxXxXxXxXxXxXxXxXxXxXxXxXxXxXxXxXxXxXxXxXxXxXxXxXxXxXxXxXxXxXxXxXxXxXxXxXu *.-.$X+.9.0X7X3Xf qX3XO xXxXxXxXxXxXxXxXxXxXxXxX",
"xXxXxXxXxXxXxXxXxXxXxXxXxXxXxXxXxXxXxXxXxXxXxXxXxXxXxXxXxXxXxXxXxXxXxXxXxXxX: 2X2X9.>.d ,.9X4XD 4X0Xa xXxXxXxXxXxXxXxXxXxXxXxXxX",
"xXxXxXxXxXxXxXxXxXxXxXxXxXxXxXxXxXxXxXxXxXxXxXxXxXxXxXxXxXxXxXxXxXxX= a a o f qXpXgXgXaXw.2X9.9.wX,.xXxXxXxXxXxXxXxXxXxXxXxXxXxX",
"xXxXxXxXxXxXxXxXxXxXxXxXxXxXxXxXxXxXxXxXxXxXxXxXxXxXxXxXxXxXxXxX= 9.qXpXpX0X:.# b 4.q.yX0X,.:.qX5X= xXxXxXxXxXxXxXxXxXxXxXxXxXxX",
"xXxXxXxXxXxXxXxXxXxXxXxXxXxXxXxXxXxXxXxXxXxXxXxXxXxXxXxXxXxXxXa uXzXzXzXzXzXgX2Xg b.i.z - f 5XqXa xXxXxXxXxXxXxXxXxXxXxXxXxXxXxX",
"xXxXxXxXxXxXxXxXxXxXxXxXxXxXxXxXxXxXxXxXxXxXxXxXxXxXxXxXxXxX: wXlXzXzXzXzXzXgXfX3.t.u.b.p.f eXe.xXxXxXxXxXxXxXxXxXxXxXxXxXxXxXxX",
"xXxXxXxXxXxXxXxXxXxXxXxXxXxXxXxXxXxXxXxXxXxXxXxXxXxXxXxXxXxXq.fXkXzXzXzXzXgXfXfXuXA u.b.Q.3.0.o xXxXxXxXxXxXxXxXxXxXxXxXxXxXxXxX",
"xXxXxXxXxXxXxXxXxXxXxXxXxXxXxXxXxXxXxXxXxXxXxXxXxXxXxXxXxX. 0XfXfXgXgXgXfXfXfXfXuX0.r.u.Q.3X> xXxXxXxXxXxXxXxXxXxXxXxXxXxXxXxXxX",
"xXxXxXxXxXxXxXxXxXxXxXxXxXxXxXxXxXxXxXxXxXxXxXxXxXxXxXxXxXa :.,.q.3X9XuXpXaXaXpXuX4Xg u.z.U.xXxXxXxXxXxXxXxXxXxXxXxXxXxXxXxXxXxX",
"xXxXxXxXxXxXxXxXxXxXxXxXxXxXxXxXxXxXxXxXxXxXxXxXxXxXxXxXxX2XaXkXfXwX2Xe.:.:.,.2X0X9Xj r.i.z xXxXxXxXxXxXxXxXxXxXxXxXxXxXxXxXxXxX",
"xXxXxXxXxXxXxXxXxXxXxXxXxXxXxXxXxXxXxXxXxXxXxXxXxXxXxXxXxXf q.qXpXpXfXfXfXfXuX4X9.<.s j g , xXxXxXxXxXxXxXxXxXxXxXxXxXxXxXxXxXxX",
"xXxXxXxXxXxXxXxXxXxXxXxXxXxXxXxXxXxXxXxXxXxXxXxXxXxXxXxXxXxXxXxXo : a ,.q.0XuXfXfXfXfXaX9X0.. xXxXxXxXxXxXxXxXxXxXxXxXxXxXxXxXxX",
"xXxXxXxXxXxXxXxXxXxXxXxXxXxXxXxXxXxXxXxXxXxXxXxXxXxXxXxXxXxXxXxXxXxXxXxXxXxX  = a ,.q.0X9X9.xXxXxXxXxXxXxXxXxXxXxXxXxXxXxXxXxXxX",
"xXxXxXxXxXxXxXxXxXxXxXxXxXxXxXxXxXxXxXxXxXxXxXxXxXxXxXxXxXxXxXxXxXxXxXxXxXxXxXxXxXxXxXxXo o xXxXxXxXxXxXxXxXxXxXxXxXxXxXxXxXxXxX"
};
