/* XPM */
static char *result[] = {
/* columns rows colors chars-per-pixel */
"64 96 230 2 ",
"   c #020202",
".  c #0B0505",
"X  c #050B0B",
"o  c #0B0C0C",
"O  c #02050A",
"+  c #1A0405",
"@  c #130A0A",
"#  c #1B0E0E",
"$  c #150605",
"%  c #00091B",
"&  c #000510",
"*  c #0A1313",
"=  c #0D1A1A",
"-  c #061618",
";  c #131313",
":  c #1D1111",
">  c #1B1B1B",
",  c #131D1E",
"<  c #100F10",
"1  c #280808",
"2  c #340A0C",
"3  c #360709",
"4  c #241313",
"5  c #2D1717",
"6  c #271A1A",
"7  c #341B1B",
"8  c #3A1D1D",
"9  c #341416",
"0  c #271009",
"q  c #031538",
"w  c #0C1728",
"e  c #122323",
"r  c #152B2B",
"t  c #1A2727",
"y  c #142C37",
"u  c #1A3333",
"i  c #1D3C3C",
"p  c #163636",
"a  c #0C3333",
"s  c #282727",
"d  c #3E2121",
"f  c #362628",
"g  c #223A3A",
"h  c #392919",
"j  c #520A03",
"k  c #4A0E12",
"l  c #581014",
"z  c #490E0C",
"x  c #671418",
"c  c #74161C",
"v  c #700603",
"b  c #5A250B",
"n  c #68290E",
"m  c #442323",
"M  c #4B2626",
"N  c #4F2828",
"B  c #46272B",
"V  c #532A2A",
"C  c #5B2E2E",
"Z  c #502328",
"A  c #5F3030",
"S  c #513833",
"D  c #552930",
"F  c #653333",
"G  c #6C3636",
"H  c #6F3838",
"J  c #743A3A",
"K  c #7B3E3E",
"L  c #7B3139",
"P  c #6D2C33",
"I  c #6A1720",
"U  c #5F403E",
"Y  c #001A4E",
"T  c #031B45",
"R  c #001E58",
"E  c #1E3A46",
"W  c #172B4C",
"Q  c #032365",
"!  c #00297C",
"~  c #072C77",
"^  c #15346C",
"/  c #223A6A",
"(  c #703D44",
")  c #1D4444",
"_  c #154C4C",
"`  c #134D4D",
"'  c #224444",
"]  c #254B4B",
"[  c #294D4D",
"{  c #234649",
"}  c #3A4444",
"|  c #2C5454",
" . c #2D5A5A",
".. c #245959",
"X. c #315D5D",
"o. c #315757",
"O. c #264278",
"+. c #1D6363",
"@. c #226B6B",
"#. c #2C6666",
"$. c #336262",
"%. c #366B6B",
"&. c #396D6D",
"*. c #396565",
"=. c #2A7575",
"-. c #337373",
";. c #3C7575",
":. c #357A7A",
">. c #3E7A7A",
",. c #484747",
"<. c #4A5B5D",
"1. c #59585A",
"2. c #5C4D52",
"3. c #7E4041",
"4. c #784648",
"5. c #685152",
"6. c #575D61",
"7. c #436D6D",
"8. c #466466",
"9. c #417D7D",
"0. c #547878",
"q. c #656564",
"w. c #777676",
"e. c #7F6D67",
"r. c #8F0A0C",
"t. c #B80300",
"y. c #A40000",
"u. c #963A04",
"i. c #AA2F17",
"p. c #861921",
"a. c #8C1A22",
"s. c #821720",
"d. c #9B1C27",
"f. c #A81E2A",
"g. c #B11F2C",
"h. c #882F37",
"j. c #B4202E",
"k. c #B9212F",
"l. c #BE2230",
"z. c #AD202C",
"x. c #C2272B",
"c. c #C32332",
"v. c #CC2434",
"b. c #D32634",
"n. c #C8382F",
"m. c #D22313",
"M. c #BA4408",
"N. c #D04510",
"B. c #B13A46",
"V. c #803E47",
"C. c #D63F4E",
"Z. c #834242",
"A. c #8A4646",
"S. c #8E4848",
"D. c #934B4B",
"F. c #994E4E",
"G. c #99454D",
"H. c #9C5050",
"J. c #8D5559",
"K. c #8C7973",
"L. c #896F6B",
"P. c #B14E5C",
"I. c #DE4657",
"U. c #CF4353",
"Y. c #E04D5C",
"T. c #C65864",
"R. c #E15665",
"E. c #E56876",
"W. c #083899",
"Q. c #042E85",
"!. c #093DA5",
"~. c #2A4C8F",
"^. c #144BB7",
"/. c #1045B0",
"(. c #2E57A8",
"). c #134DC4",
"_. c #1953C9",
"`. c #1B5AD9",
"'. c #3063CA",
"]. c #2262E6",
"[. c #276BF5",
"{. c #3475F9",
"}. c #205FDE",
"|. c #3A8484",
" X c #3E8A8A",
".X c #438484",
"XX c #458A8A",
"oX c #498D8D",
"OX c #4C9393",
"+X c #4F9999",
"@X c #439393",
"#X c #519C9C",
"$X c #5B8080",
"%X c #678888",
"&X c #7A9797",
"*X c #55A3A3",
"=X c #58A7A7",
"-X c #5AACAC",
";X c #848484",
":X c #8D8D8D",
">X c #939494",
",X c #9C9A9A",
"<X c #819B9B",
"1X c #8DA5A5",
"2X c #95ABAB",
"3X c #A8A8A8",
"4X c #ABBCBC",
"5X c #B0B0B0",
"6X c #B9B9B9",
"7X c #B6AEA5",
"8X c #CE8888",
"9X c #BAC7C7",
"0X c #C4C4C4",
"qX c #CCCCCC",
"wX c #C1CDCD",
"eX c #D2D2D2",
"rX c #DADBDB",
"tX c #D0D9D9",
"yX c #D7D1C8",
"uX c #F6EDDB",
"iX c #DBE2E2",
"pX c #E6E6E6",
"aX c #EBEBEB",
"sX c #E6EAEA",
"dX c #FDF7E9",
"fX c #F4F4F4",
"gX c #FFFBF2",
"hX c #FEFEFE",
"jX c #F7F9F9",
"kX c None",
/* pixels */
"kXkXkXkXkXkXkXkXkXkXkXkXkXkXkXkXkXkXkXkXkXkXkXkXkXkXkXkXkXkXkXkXkXkXkXkXkXkXkXkXkXkXkXkXkXkXkXkXkXkXkXkXkXkXkXkXkXkXkXkXkXkXkXkX",
"kXkXkXkXkXkXkXkXkXkXkXkXkXkXkXkXkXkXkXkXkXkXkXkXkXkXkXkXkXkXkXkXkXkXkXkXkXkXkXkXkXkXkXkXkXkXkXkXkXkXkXkXkXkXkXkXkXkXkXkXkXkXkXkX",
"kXkXkXkXkXkXkXkXkXkXkXkXkXkXkXkXkXkXkXkXkXkXkXkXkXkXkXkXkXkXkXkXkXkXkXkXkXkXkXkXkXkXkXkXkXkXkXkXkXkXkXkXkXkXkXkXkXkXkXkXkXkXkXkX",
"kXkXkXkXkXkXkXkXkXkXkXkXkXkXkXkXkXkXkXkXkXkXkXkXkXkXkXkXkXkXkXkXkXkXkXkXkXkXkXkXkXkXkXkXkXkXkXkXkXkXkXkXkXkXkXkXkXkXkXkXkXkXkXkX",
"kXkXkXkXkXkXkXkXkXkXkXkXkXkXkXkXkXkXkXkXkXkXkXkXkXkXkXkXkXkXkXkXkXkXkXkXkXkXkXkXkXkXkXkXkXkXkXkXkXkXkXkXkXkXkXkXkXkXkXkXkXkXkXkX",
"kXkXkXkXkXkXkXkXkXkXkXkXkXkXkXkXkXkXkXkXkXkXkXkXkXkXkXkXkXkXkXkXkXkXkXkXkXkXkXkXkXkXkXkXkXkXkXkXkXkXkXkXkXkXkXkXkXkXkXkXkXkXkXkX",
"kXkXkXkXkXkXkXkXkXkXkXkXkXkXkXkXkXkXkXkXkXkXkXkXkXkXkXkXkXkXkXkXkXkXkXkXkXkXkXkXkXkXkXkXkXkXkXkXkXkXkXkXkXkXkXkXkXkXkXkXkXkXkXkX",
"kXkXkXkXkXkXkXkXkXkXkXkXkXkXkXkXkXkXkXkXkXkXkXkXkXkXkX  kXkXkXkXkXkXkXkXkXkXkXkXkXkXkXkXkXkXkXkXkXkXkXkXkXkXkXkXkXkXkXkXkXkXkXkX",
"kXkXkXkXkXkXkXkXkXkXkXkXkXkXkXkXkXkXkXkXkXkXkXkXkXkXkX  kXkXkXkXkXkXkXkXkXkXkXkXkXkXkXkXkXkXkXkXkXkXkXkXkXkXkXkXkXkXkXkXkXkXkXkX",
"kXkXkXkXkXkXkXkXkXkXkXkXkXkXkXkXkXkXkXkXkXkXkXkXkXkX. : kXkXkXkXkXkXkXkXkXkXkXkXkXkXkXkXkXkXkXkXkXkXkXkXkXkXkXkXkXkXkXkXkXkXkXkX",
"kXkXkXkXkXkXkXkXkXkXkXkXkXkXkXkXkXkXkXkXkXkXkXkXkXkXm # kXkXkXkXkX  . @ 4 5 7 7 7 5 4 4 .   kXkXkXkXkXkXkXkXkXkXkXkXkXkXkXkXkXkX",
"kXkXkXkXkXkXkXkXkXkXkXkXkXkXkXkXkXkXkXkXkXkXkXkXkX4 H . kX. : 8 C H Z.A.S.D.D.F.D.D.S.S.Z.J F M 5 @ kXkXkXkXkXkXkXkXkXkXkXkXkXkX",
"kXkXkXkXkXkXkXkXkXkXkXkXkXkXkXkXkXkXkXkXkXkXkXkX  C F @ m H S.D.A.Z.A.Z.Z.Z.Z.K Z.Z.Z.Z.Z.A.S.D.F.Z.A 7 . kXkXkXkXkXkXkXkXkXkXkX",
"kXkXkXkXkXkXkXkXkXkXkXkXkXkXkXkXkX    @ 5 7 7 7 m K J Z.D.Z.Z.K K 3.K K 4.h.Z.Z.Z.Z.Z.Z.Z.K K Z.3.Z.A.D.K m . kXkXkXkXkXkXkXkXkX",
"kXkXkXkXkXkXkXkXkXkXkXkXkXkXkXkXkXkXkX. 7 F K Z.S.J J K K J K J K 3.Z.Z.Z.Z.Z.Z.Z.Z.Z.Z.Z.Z.K K K K J H J G @ kXkXkXkXkXkXkXkXkX",
"kXkXkXkXkXkXkXkXkXkXkXkXkXkXkXkXkXkXkXkXkX. 8 A G H H J J J J K K K K Z.Z.Z.Z.S.A.Z.A.Z.Z.K K K K K K Z.K m 4 @ kXkXkXkXkXkXkXkX",
"kXkXkXkXkXkXkXkXkXkXkXkXkXkXkXkXkXkXkXkX# V H H G H H J J J K K K K K Z.Z.Z.Z.Z.Z.Z.Z.Z.Z.Z.Z.K K K J J K K J A m :   kXkXkXkXkX",
"kXkXkXkXkXkXkXkXkXkXkXkXkXkXkXkXkXkX  m A.Z.Z.H.D.3.J K K K J J K K K Z.K Z.Z.Z.Z.Z.Z.Z.K K K K K K K 3.K G C N 5   kXkXkXkXkXkX",
"kXkXkXkXkXkXkXkXkXkXkXkXkXkXkXkXkXkX  . o A H.H.H.S.C S.H.F.D.D.S.S.A.A.A.A.A.A.A.A.A.A.S.D.D.D.D.H.H.H.H.H.D.K 8 o   kXkXkXkXkX",
"kXkXkXkXkXkXkXkXkXkXkXkXkXkXkXkXkXkXkX  8 G Z.D.H.D.C V Z.H.H.S.Z.H.H.H.H.H.A.D.H.H.H.H.H.H.H.H.H.H.H.H.H.H.D.S.Z.Z.C 4 . kXkXkX",
"kXkXkXkXkXkXkXkXkXkXkXkXkXkXkXkXkXkXkX# A F F G H K C V V J H.Z.V Z.F.H.F.F.A H H.H.H.H.H.H.H.H.H.H.H.D.Z.3.3.H A M 8 4     kXkX",
"kXkXkXkXkXkXkXkXkXkXkXkXkXkXkXkXkXkX  M F F F F F C V V V V G J V C K F.F.K V V D.F.Z.S.F.D.S.A.G K H H G G J D.D.3.V 5 .   kXkX",
"kXkXkXkXkXkXkXkXkXkXkXkXkXkXkXkXkXkX@ F F F F F F C V V 5 M V V V V V F H C V V A J A C G H H F V A G G F F F F F F A M . kXkXkX",
"kXkXkXkXkXkXkXkXkXkXkXkXkXkXkXkXkXkX9 F F F F F F C V M 4 # M V V V V V V V V V V F V V V F G C V C F F V F F J F V 8   kXkXkXkX",
"kXkXkXkXkXkXkXkXkXkXkXkXkXkXkXkXkXkXm F F F F V C C V @ 5 * : M V 7 N V V V M V V V V V V V C V N V C C V C F H S.Z.G 7 .   kXkX",
"kXkXkXkXkXkXkXkXkXkXkXkXkXkXkXkXkX. V F F F F V V V V 4 , X $.* m 4 . 7 N V # : M V V M M V V V B 7 V V V V A F F A C C C #   kX",
"kXkXkXkXkXkXkXkXkXkXkXkXkXkXkXkXkX@ C F A F F V V V V 8 X.&.&.XX, # ] [ # m t ;.; d V 5 < 7 V V 7 X 8 V 8 V V F G F 8 # . kXkXkX",
"kXkXkXkXkXkXkXkXkXkXkXkXkXkXkXkXkX@ A F C F A V m m V m { #X#X#XOXt i *X9., ' *XOXt 5 6 .X' : m 4 *.> m . 7 V C F J @ kXkXkXkXkX",
"kXkXkXkXkXkXkXkXkXkXkXkXkXkXkXkXkX# F F C C V V 8 o # 7 e #X#X*X*XOXX.=X*X#XOX*X=X#Xo.* +X*X.Xt X XX.X< u t 8 V V G m kXkXkXkXkX",
"kXkXkXkXkXkXkXkXkXkXkXkXkXkXkXkXkX@ F F V C V V M u $.u X OX#X#X*X*X*X-X=X-X-X=X=X=X=XoX*X*X*X#X&.+X#X;.*.XXt M V V A   kXkXkXkX",
"kXkXkXkXkXkXkXkXkXkXkXkXkXkXkXkXkX@ A F C V V V M r >.&.[ 9.#X*X*X*X-X-X-X-X-X-X-X=X=X=X*X*X*X*X#X#X#X+X+X+X| m M # 7 4 kXkXkXkX",
"kXkXkXkXkXkXkXkXkXkXkXkXkXkXkXkXkX$ C A C V V M V > ;.[ [ | oXoX*X*X-X-X-X-X-X-X-X-X-X-X=X*X*X*X*X*X#X.X+X#XX.m m   kX    kXkXkX",
"kXkXkXkXkXkXkXkXkXkXkXkXkXkXkXkXkX. V C V V V 7 M > >.[ [ [ XXX.*X*X-X-X-X-X-X-X-X-X-X-X=X*X=X*X*X*X+X[ oX+X*.m 5 kXkXkXkXkXkXkX",
"kXkXkXkXkXkXkXkXkXkXkXkXkXkXkXkXkX  8 V N V V : : 6 >.>.*..X#X#X*X*X=X=X-X-X-X-X-X=X-X*X*X=X-X-X-X*X+X&.;.&.&.m @ kXkXkXkXkXkXkX",
"kXkXkXkXkXkXkXkXkXkXkXkXkXkXkXkXkX  5 M N V V @ r o %.+XoX9.;.%.&.>.oX*X-X-X-X-X-X-X*X*X=X*X-X-X-X-X*X+X .[ &.m   kXkXkXkXkXkXkX",
"kXkXkXkXkXkXkXkXkXkXkXkXkXkXkXkXkXkX  . # M V o %.=  .oX*.*.%X4X4X1X0.>.=X-X-X-X=X=X=X#X*X*X*X-X-X-X*X#X*.X.9.7   kXkXkXkXkXkXkX",
"kXkXkXkXkXkXkXkXkXkXkXkXkXkXkXkXkX    O   7 M ; 9.$.] *.7.9XfXhXhXgXaX&X9.*X=X*X*X*X*XoX#X*X*X-X#X#X+X+XOXOXoX4 kXkXkXkXkXkXkXkX",
"kXkXkXkXkXkXkXkXkXkXkXkXkXkXkX  u *.9.>.] 4 M ; XXOX| $.4XhXhXhXhXfXfXfX$XXX*X*X*X*XOX| XX#X*X*X#X9.;.>.OX#XoXX u   kXkXkXkXkXkX",
"kXkXkXkXkXkXkXkXkXkXkXkXkXkXX *.#XXXXXXX9.@ m e XXXX$.0.jXhXhXhXhXaXpXfXwX&.+X*X#X*X#X;.OX#X#X+X%XtXiX%X%.#X9.= #X*.X kXkXkXkXkX",
"kXkXkXkXkXkXkXkXkXkXkXkXkX  ] +XXXXX9.9..X* 7 e OX>. .&XhXhXhXhXhXaXpXaXfX*.OX#X*X#X#X#X#X.X+XOXsXhXjXsX7..X7.u XX+X|   kXkXkXkX",
"kXkXkXkXkXkXkXkXkXkXkXkXkX= oXXX.X>.;.>.;.r : u OX;.X.<XhXhXhXjXfXpXpXpXjX&.XX#X#X#X#X#X+X+X+X&XhXhXjXaX&X;.;.u .XXX+X* kXkXkXkX",
"kXkXkXkXkXkXkXkXkXkXkXkXkX' OXXX>.>.-.>.;.i . ' OX;.X.%XhXhXaXpXpXpXpXaXaX$.oX+X#X+X+X+X+X+X+X2XhXhXaXpX2X*.&.r >.XXOX] kXkXkXkX",
"kXkXkXkXkXkXkXkXkXkXkXkXkX| oXXX>.;.;.;.>.|   [ oX9.X.&.aXhXjXaXpXaXhXhX2X$.oX+X+X+X+X+X+X+XOX1XhXaXpXaX1X*.9.e >.XXXX$.kXkXkXkX",
"kXkXkXkXkXkXkXkXkXkXkXkXkX[ XXXX>.;.>.;.;.%.*  .XXXX*.$.&XhXhXhXjXjXhXiX7.;.OXOXOX+XOXOXOXOXOX0.hXfXpXjX%X&.XX= ;.XXXX .kXkXkXkX",
"kXkXkXkXkXkXkXkXkXkXkXkXkXu XXXX>.;.;.;.;.;.e $.XX+X;.X.$.&XiXjXhXfXwX7.$.XXOXOXOXOXOXOXOXOXOX>.4XjXhX9X*.>.OX= ;.XXXXi kXkXkXkX",
"kXkXkXkXkXkXkXkXkXkXkXkXkXX %.XXXX;.>.;.>.;.i $.>.XX+X*.X.X.*.0.0.7.*.X.9.oXOXoXOXoXOXOXOXoXOXoX*.%X%X*.$.oXOXe ;.XX;.  kXkXkXkX",
"kXkXkXkXkXkXkXkXkXkXkXkXkXkX, |.XX9.;.>.;.>.| &.$.&.XX+X;.*.*.X.*.X.*.XXOXoXoXOXoXOXoXoXoXoXoXoXXX%.*.%.oXXXoXe ;.>.e kXkXkXkXkX",
"kXkXkXkXkXkXkXkXkXkXkXkXkXkXkX, >.XXXX9.>.&.-.;.%.%.9.XX+XOX9.;.9.XXOXXXoXOXoXXX.X.X.XoXoXoXoXXXXXoXOXoX>.>.>.= ;.e   kXkXkXkXkX",
"kXkXkXkXkXkXkXkXkXkXkXkXkXkXkXkX  = u u * e %.;.;.;.;.;.9.>.XXXXoXXXoXXX;.*.<.2.5.1.1.8.*.7.XXXXXXXXXX9.&.$.= X   kXkXkXkXkXkXkX",
"kXkXkXkXkXkXkXkXkXkXkXkXkXkXkXkXkXkXkXkXkX+ =  .;.;.&.$. .[ ;.XXXXXX7.6.F.4.K.7X7XK.J.3.V.1.X.;.XXXX.X&.] X kXkXkXkXkXkXkXkXkXkX",
"kXkXkXkXkXkXkXkXkXkXkXkXkXkXkXkXkXkXkXkX2 c x 2 < u | %.$. .&.9.;.<.P.( 7XuXdXgXhXgXgXuXyXK.( <.$.$.' *   kXkXkXkXkXkXkXkXkXkXkX",
"kXkXkXkXkXkXkXkXkXkXkXkXkXkXkXkXkXkXkX$ 2 2 k p.a.I k : = t E | <.U.U.J.dXdXdXhXgXgXgXuXgXuX4.D = X kXkXkXkXkXkXkXkXkXkXkXkXkXkX",
"kXkXkXkXkXkXkXkXkXkXkXkXkXkXkXkXkXkXkX+ l a.i.b c f.f.j.f.p.l 3 0 0 9 # N K.dXhXdXe.4.2.5.6 . kXkXkXkXkXkXkXkXkXkXkXkXkXkXkXkXkX",
"kXkXkXkXkXkXkXkXkXkXkXkXkXkXkXkXkXkX+ x s.d.g.n.b d.g.k.g.x.v.b.N.c i.$ h.l.D.J.e.h.I.C.B.kXkXkXkXkXkXkXkXkXkXkXkXkXkXkXkXkXkXkX",
"kXkXkXkXkXkXkXkXkXkXkXkXkXkXkXkXkXkX3 x a.f.z.l.i.c j.j.x.c.v.b.N.s.k.u.P Y.I.Y.I.C.Y.Y.B.kXkXkXkXkXkXkXkXkXkXkXkXkXkXkXkXkXkXkX",
"kXkXkXkXkXkXkXkXkXkXkXkXkXkXkXkXkX  3 x a.d.j.c.N.c j.k.c.c.v.b.N.p.j.N.9 Y.Y.Y.Y.Y.Y.Y.L kXkXkXkXkXkXkXkXkXkXkXkXkXkXkXkXkXkXkX",
"kXkXkXkXkXkXkXkXkXkXkXkXkXkXkXkXkX+ 2 x p.k l I c 2 f.l.x.v.b.b.M.s.z.i.2 F.R.R.R.R.R.T.kXkXkXkXkXkXkXkXkXkXkXkXkXkXkXkXkXkXkXkX",
"kXkXkXkXkXkXkXkXkXkXkXkXkXkXkXkXkX2 1 : : | X.*.+ k p.l.x.x.b.b.u.0 8 z $ kXG.E.E.E.T.Z kXkXkXkXkXkXkXkXkXkXkXkXkXkXkXkXkXkXkXkX",
"kXkXkXkXkXkXkXkXkXkXkXkXkXkXkXkXkX2 + 7 X..X#X-XB f.f.g.c.c.b.b.n -. X* kXkXkXkXF 8 kXkXkXkXkXkXkXkXkXkXkXkXkXkXkXkXkXkXkXkXkXkX",
"kXkXkXkXkXkXkXkXkXkXkXkXkXkXkXkXX g k m ;..XOX9.f a.f.d.c.g.c.N.h -.#.= kXkXkXkXkX) = kXkXkXkXkXkXkXkXkXkXkXkXkXkXkXkXkXkXkXkXkX",
"kXkXkXkXkXkXkXkXkXkXkXkXkXkXkXkXt  .1 s -.9.oXOX.X} 6 7 c.x n b r |.|.#.) kXkXkX..%.- kXkX= ' ) * kXkXkXkXkXkXkXkXkXkXkXkXkXkXkX",
"kXkXkXkXkXkXkXkXkXkXkXkXkXkXkXkX' %.[ $.| 9.oXOXOX*XoXo.C f [ | #.:.:. XXX-.) ] :.i = r r %.-.-.%.e kXkXkXkXkXkXkXkXkXkXkXkXkXkX",
"kXkXkXkXkXkXkXkXkXkXkXkXkXkXkXkX[ >.>..X$.>.XXoX+X*X=X=XoX$.[ [ ] ) ) ..|.@X|.-.:.%. X@X@X%.p e  .] kXkXkXkXkXkXkXkXkXkXkXkXkXkX",
"kXkXkXkXkXkXkXkXkXkXkXkXkXkXkXkX$.-.>.XXXXX.9.XXoX+X#X#XOX#XOX>.*X#X+X| -.|.|.:.|.|.:. X X| - =     kXkXkXkXkXkXkXkXkXkXkXkXkXkX",
"kXkXkXkXkXkXkXkXkXkXkXkXkXkXkXO u g [ *.&.] | &.9..XoX+X+XOXOX#X*X.X' r %.:.:.:.:.:.:.|.|.:.-.-.) kXkXkXkXkXkXkXkXkXkXkXkXkXkXkX",
"kXkXkXkXkXkXkXkXkXkXkXkXkXkXkXw '.(.~.O./ / W W W | &..X.XXX+X*X=X*X*.* ) #.@.-.:.:.:.:.:.-.| ] -.u kXkXkXkXkXkXkXkXkXkXkXkXkXkX",
"kXkXkXkXkXkXkXkXkXkXkXkXkXkXkXO ! ! W./.!.^._._.}.^./ g -.XXoX#X*X*X*X'   * p #.-.-.-.-.@.] X   | ) kXkXkXkXkXkXkXkXkXkXkXkXkXkX",
"kXkXkXkXkXkXkXkXkXkXkXkXkXkXkXkXQ Q.^.}.(.~ ^._.`.`.]._. ..XoX+X*X*X#X+X>.[ * p |  .#.X.#.%.| kX= p kXkXkXkXkXkXkXkXkXkXkXkXkXkX",
"kXkXkXkXkXkXkXkXkXkXkXkXkXkXkX& ! W.`.}.[.~.Q./.^.).)._.y >.>..X+X+XOX;.%..X| kXX * = * * r #.= kXkXkXkXkXkXkXkXkXkXkXkXkXkXkXkX",
"kXkXkXkXkXkXkXkXkXkXkXkXkXkXkXq ! /._.].[.'.q Y Y Y Y Y % ] >.XXOX+X9.*    .;.kXkXkXkXkXkX= ..- kXkXkXkXkXkXkXkXkXkXkXkXkXkXkXkX",
"kXkXkXkXkXkXkXkXkXkXkXkXkXkXkXq ! !._.}.[.{.w kXkXkX% Q ~ Q { ;.XX.XXXXX* i ;.X kXkXkXkXkX* ) . kXkXkXkXkXkXkXkXkXkXkXkXkXkXkXkX",
"kXkXkXkXkXkXkXkXkXkXkXkXkXkXkXw ! W.).}.[.{.W kXkXkXkXQ Q.^.~ | >.e E .Xg * i kXkXkXkXkXkXkXkXkXkXkXkXkXkXkXkXkXkXkXkXkXkXkXkXkX",
"kXkXkXkXkXkXkXkXkXkXkXkXkXkXkX% ! W.).}.[.{.O.kXkXkXkXq ! !./.y 9.W = >.i kXkXkXkXkXkXkXkXkXkXkXkXkXkXkXkXkXkXkXkXkXkXkXkXkXkXkX",
"kXkXkXkXkXkXkXkXkXkXkXkXkXkXkX% ! W.).`.[.{.~.kXkXkXkX% R T y 9.#.- p >.= kXkXkXkXkXkXkXkXkXkXkXkXkXkXkXkXkXkXkXkXkXkXkXkXkXkXkX",
"kXkXkXkXkXkXkXkXkXkXkXkXkXkXkX& ! W.W.^./.}.~.kXkX  - a _ a i ] r ` r [ kXkXkXkXkXkXkXkXkXkXkXkXkXkXkXkXkXkXkXkXkXkXkXkXkXkXkXkX",
"kXkXkXkXkXkXkXkXkXkXkXkXkXkXkX  Q T T p e y ; X a _ ` ` +.+.i _ +._ O kXkXkXkXkXkXkXkXkXkXkXkXkXkXkXkXkXkXkXkXkXkXkXkXkXkXkXkXkX",
"kXkXkXkXkXkXkXkXkXkXkXkXkXkXkX  > t | oXOX' ;X1.` +.+.@.+.+.=.=.@.- kXkXkXkXkXkXkXkXkXkXkXkXkXkXkXkXkXkXkXkXkXkXkXkXkXkXkXkXkXkX",
"kXkXkXkXkXkXkXkXkXkXkXkXkXs 6 1 l o.XX#X*X9.,X0Xr +.@.@.=.=.~.=.#.kXkXkXkXkXkXkXkXkXkXkXkXkXkXkXkXkXkXkXkXkXkXkXkXkXkXkXkXkXkXkX",
"kXkXkXkXkXkXkXkXkXkXkXkX. ;Xw.3 2 &.OX*X#XoX} qXq.` @.=.=.+.@._ kXkXkXkXkXkXkXkXkXkXkXkXkXkXkXkXkXkXkXkXkXkXkXkXkXkXkXkXkXkXkXkX",
"kXkXkXkXkXkXkXkXkXkXkXkXkX1.5X,.g .X+X#X=X&.j w.0Xg ) a kXkXkXkXkXkXkXkXkXkXkXkXkXkXkXkXkXkXkXkXkXkXkXkXkXkXkXkXkXkXkXkXkXkXkXkX",
"kXkXkXkXkXkXkXkXkXkXkXkXkX> ,Xw.X.oX+X*X*Xt j 5 0X,.kXkXkXkXkXkXkXkXkXkXkXkXkXkXkXkXkXkXkXkXkXkXkXkXkXkXkXkXkXkXkXkXkXkXkXkXkXkX",
"kXkXkXkXkXkXkXkXkXkXkXkXkXkX1.} >.oX#X*Xo.,Xw.6 ,.> kXkXkXkXkXkXkXkXkXkXkXkXkXkXkXkXkXkXkXkXkXkXkXkXkXkXkXkXkXkXkXkXkXkXkXkXkXkX",
"kXkXkXkXkXkXkXkXkXkXkXkXkXkX< [ .X+X+X#X<.6X0X3X; kXkXkXkXkXkXkXkXkXkXkXkXkXkXkXkXkXkXkXkXkXkXkXkXkXkXkXkXkXkXkXkXkXkXkXkXkXkXkX",
"kXkXkXkXkXkXkXkXkXkXkXkXkXkXX [ $.*.*.9.;X0XqXeX;XkXkXkXkXkXkXkXkXkXkXkXkXkXkXkXkXkXkXkXkXkXkXkXkXkXkXkXkXkXkXkXkXkXkXkXkXkXkXkX",
"kXkXkXkXkXkXkXkXkXkXkXkXkXg ;X>X>X:X:X,.,XqXeXeX0Xs kXkXkXkXkXkXkXkXkXkXkXkXkXkXkXkXkXkXkXkXkXkXkXkXkXkXkXkXkXkXkXkXkXkXkXkXkXkX",
"kXkXkXkXkXkXkXkXkXkXkXkXkXw.dXaXrXtXyX%Xw.5X9XeXeX,.kXkXkXkXkXkXkXkXkXkXkXkXkXkXkXkXkXkXkXkXkXkXkXkXkXkXkXkXkXkXkXkXkXkXkXkXkXkX",
"kXkXkXkXkXkXkXkXkXkXkXkXkXf S z j j 1 > ,.1.,.2.,X,.kXkXkXkXkXkXkXkXkXkXkXkXkXkXkXkXkXkXkXkXkXkXkXkXkXkXkXkXkXkXkXkXkXkXkXkXkXkX",
"kXkXkXkXkXkXkXkXkXkXkXkX# c t.t.t.x q.yXhXhXhXqXq.; kXkXkXkXkXkXkXkXkXkXkXkXkXkXkXkXkXkXkXkXkXkXkXkXkXkXkXkXkXkXkXkXkXkXkXkXkXkX",
"kXkXkXkXkXkXkXkXkXkXkXkX,Xn.t.t.j >XaXaXhXhXhXhXhX;X< kXkXkXkXkXkXkXkXkXkXkXkXkXkXkXkXkXkXkXkXkXkXkXkXkXkXkXkXkXkXkXkXkXkXkXkXkX",
"kXkXkXkXkXkXkXkXkXkXkX6 eXx.t.r.q.rXpXpXhXhXhXhXhXsX1.kXkXkXkXkXkXkXkXkXkXkXkXkXkXkXkXkXkXkXkXkXkXkXkXkXkXkXkXkXkXkXkXkXkXkXkXkX",
"kXkXkXkXkXkXkXkXkXkXkXs 8Xt.t.8 0XeXpXpXaXjXhXhXjXaX0XO kXkXkXkXkXkXkXkXkXkXkXkXkXkXkXkXkXkXkXkXkXkXkXkXkXkXkXkXkXkXkXkXkXkXkXkX",
"kXkXkXkXkXkXkXkXkXkXkX3 y.y.v w.qXqXrXpXpXpXpXaXsXpXpXf kXkXkXkXkXkXkXkXkXkXkXkXkXkXkXkXkXkXkXkXkXkXkXkXkXkXkXkXkXkXkXkXkXkXkXkX",
"kXkXkXkXkXkXkXkXkXkXkX+ j v 3 w.;X;X;X:X:X>X>X>X>X>X>Xs kXkXkXkXkXkXkXkXkXkXkXkXkXkXkXkXkXkXkXkXkXkXkXkXkXkXkXkXkXkXkXkXkXkXkXkX",
"kXkXkXkXkXkXkXkXkXkXkXw.>X5X5X5X5X5X5X5X5X5X5X5XqX0X3Xw.kXkXkXkXkXkXkXkXkXkXkXkXkXkXkXkXkXkXkXkXkXkXkXkXkXkXkXkXkXkXkXkXkXkXkXkX",
"kXkXkXkXkXkXkXkXkXkXkX:X6XeXeXeXeXqXeXeXeXeXeXrXaXpXqX>XkXkXkXkXkXkXkXkXkXkXkXkXkXkXkXkXkXkXkXkXkXkXkXkXkXkXkXkXkXkXkXkXkXkXkXkX",
"kXkXkXkXkXkXkXkXkXkXkXo ; : > > > > > > > > > > > > ; < kXkXkXkXkXkXkXkXkXkXkXkXkXkXkXkXkXkXkXkXkXkXkXkXkXkXkXkXkXkXkXkXkXkXkXkX"
};
