/* XPM */
static char *result[] = {
/* columns rows colors chars-per-pixel */
"64 96 234 2 ",
"   c #010101",
".  c #0A0505",
"X  c #050C0C",
"o  c #0D0B0B",
"O  c #01050B",
"+  c #140B0B",
"@  c #1A0D0D",
"#  c #190304",
"$  c #010919",
"%  c #0B1515",
"&  c #0D1B1B",
"*  c #081619",
"=  c #131313",
"-  c #1B1B1B",
";  c #181818",
":  c #270809",
">  c #380B0C",
",  c #231313",
"<  c #2B1616",
"1  c #2D1919",
"2  c #251F1E",
"3  c #341B1B",
"4  c #3B1E1E",
"5  c #3A1416",
"6  c #36120B",
"7  c #000B22",
"8  c #000D29",
"9  c #0B1728",
"0  c #0C2324",
"q  c #122323",
"w  c #152B2B",
"e  c #1A2C2C",
"r  c #182525",
"t  c #1B3333",
"y  c #1D3B3B",
"u  c #163334",
"i  c #123237",
"p  c #262526",
"a  c #3B2424",
"s  c #233A39",
"d  c #393838",
"f  c #31312D",
"g  c #540303",
"h  c #490D12",
"j  c #5A1316",
"k  c #49100E",
"l  c #680502",
"z  c #7C0000",
"x  c #6C151B",
"c  c #77161E",
"v  c #721A0D",
"b  c #772B05",
"n  c #442323",
"m  c #4B2626",
"M  c #4F2828",
"N  c #432C2C",
"B  c #532A2A",
"V  c #5B2E2E",
"C  c #542329",
"Z  c #5E3030",
"A  c #573737",
"S  c #44322D",
"D  c #653333",
"F  c #6B3636",
"G  c #6E3838",
"H  c #633B35",
"J  c #743B3B",
"K  c #7B3E3E",
"L  c #67292E",
"P  c #622419",
"I  c #011843",
"U  c #001D59",
"Y  c #122A51",
"T  c #032467",
"R  c #00297C",
"E  c #002672",
"W  c #183569",
"Q  c #7C3941",
"!  c #184646",
"~  c #154F4F",
"^  c #224444",
"/  c #254B4B",
"(  c #284D4D",
")  c #274445",
"_  c #2B5353",
"`  c #2D5A5A",
"'  c #265556",
"]  c #305D5D",
"[  c #395657",
"{  c #2E4A4C",
"}  c #1E6464",
"|  c #2C6161",
" . c #246D6D",
".. c #2E6D6D",
"X. c #336262",
"o. c #3B6666",
"O. c #356A6A",
"+. c #396D6D",
"@. c #297474",
"#. c #337575",
"$. c #3C7575",
"%. c #357B7B",
"&. c #3E7A7A",
"*. c #254076",
"=. c #444444",
"-. c #4B4B4B",
";. c #4A4A4A",
":. c #5B5B5C",
">. c #555452",
",. c #46585B",
"<. c #6C4347",
"1. c #7E4040",
"2. c #784949",
"3. c #725455",
"4. c #456869",
"5. c #417D7D",
"6. c #4B7272",
"7. c #587B7B",
"8. c #6C6C6C",
"9. c #626262",
"0. c gray47",
"q. c #736F6F",
"w. c #69635A",
"e. c #890101",
"r. c #950400",
"t. c #911009",
"y. c #BB0100",
"u. c #B20E00",
"i. c #B10808",
"p. c #913605",
"a. c #AA3214",
"s. c #881922",
"d. c #981B26",
"f. c #A31D29",
"g. c #AA1F2B",
"h. c #902F37",
"j. c #B2202D",
"k. c #B9212F",
"l. c #B92D20",
"z. c #BF2230",
"x. c #A5303C",
"c. c #CC3B19",
"v. c #C42332",
"b. c #CD2434",
"n. c #D12A30",
"m. c #E33B24",
"M. c #D74810",
"N. c #AF3947",
"B. c #813C43",
"V. c #C53F4D",
"C. c #834242",
"Z. c #8A4646",
"A. c #8D4848",
"S. c #87424B",
"D. c #944C4C",
"F. c #994E4E",
"G. c #96444D",
"H. c #9C5050",
"J. c #824E57",
"K. c #AD4954",
"L. c #877372",
"P. c #DD4756",
"I. c #C94857",
"U. c #E04C5C",
"Y. c #E25665",
"T. c #D86B72",
"R. c #D65D6B",
"E. c #988A7F",
"W. c #05318A",
"Q. c #073696",
"!. c #0A3284",
"~. c #093DA4",
"^. c #174290",
"/. c #2D5096",
"(. c #154CB9",
"). c #305BB1",
"_. c #3663BE",
"`. c #134EC4",
"'. c #1552CB",
"]. c #1C5CDC",
"[. c #1E5FE1",
"{. c #266AF4",
"}. c #3474F6",
"|. c #2B63D2",
" X c #3A8282",
".X c #3E8A8A",
"XX c #448585",
"oX c #468A8A",
"OX c #498D8D",
"+X c #4C8282",
"@X c #4C9494",
"#X c #4F9999",
"$X c #429292",
"%X c #519D9D",
"&X c #528C8C",
"*X c #779494",
"=X c #658585",
"-X c #55A3A3",
";X c #58A7A7",
":X c #5AABAB",
">X c #8B8B8B",
",X c #858585",
"<X c #9C9C9C",
"1X c #929292",
"2X c #859E9E",
"3X c #ADA298",
"4X c #97ADAD",
"5X c #9FB2B2",
"6X c #A3A3A3",
"7X c #ACACAC",
"8X c #ABA7A3",
"9X c #B4B4B4",
"0X c #BABABA",
"qX c #AFB7B3",
"wX c #AA9D9D",
"eX c #D59595",
"rX c #CFC8B9",
"tX c #B6C5C5",
"yX c #CCCCCC",
"uX c #C7C8C7",
"iX c #CAD4D4",
"pX c #D3D3D3",
"aX c #DBDBDB",
"sX c #D7DCDA",
"dX c #F6ECD8",
"fX c #DDE3E3",
"gX c #E5E5E5",
"hX c #EBECEC",
"jX c #E7E8E7",
"kX c #FCF5E5",
"lX c #F3F3F3",
"zX c #FEFEFE",
"xX c #FFFBF3",
"cX c None",
/* pixels */
"cXcXcXcXcXcXcXcXcXcXcXcXcXcXcXcXcXcXcXcXcXcXcXcXcXcXcXcXcXcXcXcXcXcXcXcXcXcXcXcXcXcXcXcXcXcXcXcXcXcXcXcXcXcXcXcXcXcXcXcXcXcXcXcX",
"cXcXcXcXcXcXcXcXcXcXcXcXcXcXcXcXcXcXcXcXcXcXcXcXcXcXcXcXcXcXcXcXcXcXcXcXcXcXcXcXcXcXcXcXcXcXcXcXcXcXcXcXcXcXcXcXcXcXcXcXcXcXcXcX",
"cXcXcXcXcXcXcXcXcXcXcXcXcXcXcXcXcXcXcXcXcXcXcXcXcXcXcXcXcXcXcXcXcXcXcXcXcXcXcXcXcXcXcXcXcXcXcXcXcXcXcXcXcXcXcXcXcXcXcXcXcXcXcXcX",
"cXcXcXcXcXcXcXcXcXcXcXcXcXcXcXcXcXcXcXcXcXcXcXcXcXcXcXcXcXcXcXcXcXcXcXcXcXcXcXcXcXcXcXcXcXcXcXcXcXcXcXcXcXcXcXcXcXcXcXcXcXcXcXcX",
"cXcXcXcXcXcXcXcXcXcXcXcXcXcXcXcXcXcXcXcXcXcXcXcXcXcXcXcXcXcXcXcXcXcXcXcXcXcXcXcXcXcXcXcXcXcXcXcXcXcXcXcXcXcXcXcXcXcXcXcXcXcXcXcX",
"cXcXcXcXcXcXcXcXcXcXcXcXcXcXcXcXcXcXcXcXcXcXcXcXcXcXcX  cXcXcXcXcXcXcXcXcXcXcXcXcXcXcXcXcXcXcXcXcXcXcXcXcXcXcXcXcXcXcXcXcXcXcXcX",
"cXcXcXcXcXcXcXcXcXcXcXcXcXcXcXcXcXcXcXcXcXcXcXcXcXcX. + cXcXcXcXcXcXcXcXcXcXcXcXcXcXcXcXcXcXcXcXcXcXcXcXcXcXcXcXcXcXcXcXcXcXcXcX",
"cXcXcXcXcXcXcXcXcXcXcXcXcXcXcXcXcXcXcXcXcXcXcXcXcXcX3 + cXcXcXcXcXcXcXcX              cXcXcXcXcXcXcXcXcXcXcXcXcXcXcXcXcXcXcXcXcX",
"cXcXcXcXcXcXcXcXcXcXcXcXcXcXcXcXcXcXcXcXcXcXcXcXcX@ D . cXcX  . < n B D G J 1.1.K J H Z S 3 , . cXcXcXcXcXcXcXcXcXcXcXcXcXcXcXcX",
"cXcXcXcXcXcXcXcXcXcXcXcXcXcXcXcXcXcXcXcXcXcXcXcX  M D   o n F Z.D.D.D.A.Z.Z.Z.Z.Z.Z.A.A.D.D.D.1.D 3 .   cXcXcXcXcXcXcXcXcXcXcXcX",
"cXcXcXcXcXcXcXcXcXcXcXcXcXcXcXcXcX    . + + . o < J D F D.D.Z.1.K K K K 1.C.C.C.1.C.C.1.1.h.1.C.Z.D.A.F 3 . cXcXcXcXcXcXcXcXcXcX",
"cXcXcXcXcXcXcXcXcXcXcXcXcXcXcXcXcXcX  @ n F K 1.C.J K C.K J J K K 1.K C.C.C.C.C.C.C.C.C.1.1.1.K K K 1.Z.Z.D o cXcXcXcXcXcXcXcXcX",
"cXcXcXcXcXcXcXcXcXcXcXcXcXcXcXcXcXcXcXcX  , n D J F J J J J K K K 1.1.C.C.C.Z.C.Z.C.C.C.1.1.1.K K J K F Z 3   cXcXcXcXcXcXcXcXcX",
"cXcXcXcXcXcXcXcXcXcXcXcXcXcXcXcXcXcXcXcX+ 3 V F F J J J J K J K K K K C.C.C.C.C.A.C.Z.2.1.1.1.K K K K C.1.F M 1 @ . cXcXcXcXcXcX",
"cXcXcXcXcXcXcXcXcXcXcXcXcXcXcXcXcXcX. 3 K A.Z.Z.C.J J G J J K K K K K 1.h.1.C.C.C.C.1.h.1.1.1.1.K J J J F D D D B @   cXcXcXcXcX",
"cXcXcXcXcXcXcXcXcXcXcXcXcXcXcXcXcX    , 3 D F.H.F.C.J D.A.Z.C.C.C.C.C.1.2.1.C.C.C.C.C.C.C.C.1.C.Z.Z.Z.D.F.C.F m . cXcXcXcXcXcXcX",
"cXcXcXcXcXcXcXcXcXcXcXcXcXcXcXcXcXcXcX  < K D.F.H.Z.B G F.H.H.A.F.H.H.F.F.D.D.D.F.F.D.F.F.H.F.H.F.H.H.H.F.H.H.A.D 3 . cXcXcXcXcX",
"cXcXcXcXcXcXcXcXcXcXcXcXcXcXcXcXcXcXcX@ D D D J C.C.B B Z D.H.K F D.H.H.H.F.F A.F.H.H.H.H.H.H.H.H.H.H.H.F.D.Z.G F J J n .   cXcX",
"cXcXcXcXcXcXcXcXcXcXcXcXcXcXcXcXcXcX  B D D D D D V B B B V C.J M F D.H.H.1.B H H.H.D.H.H.H.H.F.A.A.Z.K J G C.A.J n +     cXcXcX",
"cXcXcXcXcXcXcXcXcXcXcXcXcXcXcXcXcXcX@ D D F D D F B B m n B B B M M D 1.Z.V B M C.Z.Z K 1.1.K D V F F F F F F K C.C.K m .   cXcX",
"cXcXcXcXcXcXcXcXcXcXcXcXcXcXcXcXcXcX5 D D F D D D V B M + 4 B B B M B V V B B B V F B B D G G V B D F F V D D D V V B ,   cXcXcX",
"cXcXcXcXcXcXcXcXcXcXcXcXcXcXcXcXcX. B D D D V V D Z m < , . 3 B B m B M B B B B M V B B B Z D B B B D V B D D C.J Z ,   cXcXcXcX",
"cXcXcXcXcXcXcXcXcXcXcXcXcXcXcXcXcX+ Z D D D Z B B B B . o w t 1 B @ 1 B B M , m B B B B M M B B m M B B B B D F J 1.K Z < .   cX",
"cXcXcXcXcXcXcXcXcXcXcXcXcXcXcXcXcX@ D D D D Z B B M B , O.e 5.^ , ; y = n n r & 4 B B , 4 B B B < , B B B B V D Z B B n <     cX",
"cXcXcXcXcXcXcXcXcXcXcXcXcXcXcXcXcX, D D V D Z B m B B 1 $.@XOX%X/ . O.XXq @ _ #Xt < M = t @ m M @ r 1 M < B B D J V @   cXcXcXcX",
"cXcXcXcXcXcXcXcXcXcXcXcXcXcXcXcXcX< D D V Z V B , + 4 4 _ %X%X%X%X] _ -X%X] 5.;X;XX.+ q ;X5.r < = oXt < % < B V D F + cXcXcXcXcX",
"cXcXcXcXcXcXcXcXcXcXcXcXcXcXcXcXcX< D D B V B B 1 s s o t %X%X%X-X%X@X-X;X:X;X;X;X;XoX_ ;X-X#X] e %XOX& O.s 1 B B D 4 cXcXcXcXcX",
"cXcXcXcXcXcXcXcXcXcXcXcXcXcXcXcXcX< D D B B B B 3 ^ $.5.) %X-X-X-X-X-X:X:X:X:X;X;X;X;X;X-X-X-X-X%X%X%XXXOX@Xp M M m B   cXcXcXcX",
"cXcXcXcXcXcXcXcXcXcXcXcXcXcXcXcXcX, D D V B B B m y +.( / +.%X%X:X:X:X:X:X:X:X:X:X:X:X;X;X-X-X-X-X%X%X%X#X%Xs M 3 . @ . cXcXcXcX",
"cXcXcXcXcXcXcXcXcXcXcXcXcXcXcXcXcX@ D B B B B 3 m t +./ ( ] oX+.:X:X:X:X:X:X:X:X:X:X:X;X;X;X-X-X%X-XOX+.#X%X) M , cXcX  cXcXcXcX",
"cXcXcXcXcXcXcXcXcXcXcXcXcXcXcXcXcX+ B B B B m o n e OX_ ( $.%X@X;X;X:X:X:X:X:X:X:X:X:X;X;X-X;X:X-X-X5.] OX%X{ m . cXcXcXcXcXcXcX",
"cXcXcXcXcXcXcXcXcXcXcXcXcXcXcXcXcX. m B B B m o + - @X@X@XOX5.5.+X@X:X:X:X:X:X:X:X;X;X;X;X-X:X:X:X-X#XXX[ +.{ n   cXcXcXcXcXcXcX",
"cXcXcXcXcXcXcXcXcXcXcXcXcXcXcXcXcX  @ @ 4 M m q ^ % XX@X$.X.X.7.7.O.$.%X;X:X:X:X;X;X%X-X-X-X:X:X:X:X%X@X_ o.[ 1 cXcXcXcXcXcXcXcX",
"cXcXcXcXcXcXcXcXcXcXcXcXcXcXcXcXcX      . m n w 5.t +.o.X.5XhXzXzXjX4X+.#X;X;X;X;X;X-X;X-X-X:X:X;X-X%X#X+.OXo.@ cXcXcXcXcXcXcXcX",
"cXcXcXcXcXcXcXcXcXcXcXcXcXcXcX  w ( ] _ % 4 n t OX$.( X.tXzXzXzXzXlXzXqX$.%X-X-X-X-XOX+.%X%X;X-X%XOXOX@X#X%Xo..   cXcXcXcXcXcXcX",
"cXcXcXcXcXcXcXcXcXcXcXcXcXcXX X.%X@XOXOX/ < 3 ^ @X5.] =XzXzXzXzXzXjXhXlX7.OX%X-X-X%X5.` #X%X%X%X+X*X7.+.OX-X` t _ X cXcXcXcXcXcX",
"cXcXcXcXcXcXcXcXcXcXcXcXcX  O.@XoXXXXXXXX.@ < ` @X+.] qXzXzXzXzXzXjXgXlX4X5.%X%X%X-X%X@X#X@X%X&XiXzXhX*XO.%X/ ` @Xo.X cXcXcXcXcX",
"cXcXcXcXcXcXcXcXcXcXcXcXcXt @XXXXX&.$.$.$.o , O.#XO.X.iXzXzXzXzXlXgXgXhXtX+.%X%X%X%X%X%X@XoX#X4XzXzXlXfXo.@X) O.oX#X( cXcXcXcXcX",
"cXcXcXcXcXcXcXcXcXcXcXcX  +.OXoX$.&.$.&.$.& + $.#XX.X.tXzXzXhXjXgXgXjXlXqX+.#X%X%X#X#X#X#X#X@XsXzXzXjXhX7.XX) X.oXoXoX  cXcXcXcX",
"cXcXcXcXcXcXcXcXcXcXcXcX  &.oXXX$.$.$.$.$.w O %.#XO.o.2XzXzXhXgXgXhXlXlX*X+.@X#X#X#X#X#X#X#XOXfXzXlXjXhX7.5.( ] &.oX@X% cXcXcXcX",
"cXcXcXcXcXcXcXcXcXcXcXcX  &.oXXX&.$.$.$.$.^ X 5.@X$.] 4.fXzXzXlXhXlXzXaXo.&.#X#X@X#X#X@X@X@XoXyXzXjXhXhX6.5.] ( 5.oXOXw cXcXcXcX",
"cXcXcXcXcXcXcXcXcXcXcXcX  O.oXXX$.$.&.$.&._ % &.oXOXX.] =XgXzXzXzXzXfX7.X.oX@X@X@X@X@X@X@X@XOX*XzXlXlXiXX.XXo.y XXoXOX% cXcXcXcX",
"cXcXcXcXcXcXcXcXcXcXcXcXcXy XXoX&.$.%.$.$.+.w $.oX@X5.] X.o.2XtXtX*Xo.X.XX@X@X@X@X@X@XOX@X@XOX+.4XfXyX4.X.OX5.& XXoX+.  cXcXcXcX",
"cXcXcXcXcXcXcXcXcXcXcXcXcX  ` oXoX&.$.$.&.$.^ $.+.XX@X5.X.] X.X.X.X.X.&.OX@XOXOXOXOXOX@XOXOX@XOXX.O.X.] oXoXXX& oXXXw cXcXcXcXcX",
"cXcXcXcXcXcXcXcXcXcXcXcXcXcX% X.XXoX&.$.$.$.X.$.` $.oX@XOX$.O.O.O.$.oXOXOXOXOXOXOX$XOXOXOXOXOXOXOX&.$.XXXXoX$.w XX!   cXcXcXcXcX",
"cXcXcXcXcXcXcXcXcXcXcXcXcXcXcX  q _ O.` w X.$.$.$.$.5.XXXXOX@X@X@XOXoXOXoX5.+.X.X.O.+.4.XXOXoXoXoXoXoXoX] XXw ^ q   cXcXcXcXcXcX",
"cXcXcXcXcXcXcXcXcXcXcXcXcXcXcXcXcXcX      X / $.$.$.] O._ X.XXoXoXoX5.4.3.1.<.3.<.C.A.J.,.O.5.oXoXoXoXO.X.&     cXcXcXcXcXcXcXcX",
"cXcXcXcXcXcXcXcXcXcXcXcXcXcXcXcXcXcXcXcX: j : % ) O.$.$._ _ $.5.5.4.J.B.3.pXkXzXkXjXrX>X2.<.[ o.5.&.+.y X cXcXcXcXcXcXcXcXcXcXcX",
"cXcXcXcXcXcXcXcXcXcXcXcXcXcXcXcXcXcXcXcXj c s.s.j : = w / X.+.O.:.I.x.rXxXdXxXzXkXxXkXkXlXE.N.,.^ q   cXcXcXcXcXcXcXcXcXcXcXcXcX",
"cXcXcXcXcXcXcXcXcXcXcXcXcXcXcXcXcXcXcX# : > k s.f.f.d.c h : = & C h.h.>.8XdXxXzXdXrX9XrXrXw., o   cXcXcXcXcXcXcXcXcXcXcXcXcXcXcX",
"cXcXcXcXcXcXcXcXcXcXcXcXcXcXcXcXcXcX. h s.f.l.b c g.g.k.z.v.v.z.b j 6 . x.3.3XpX3Xx.N.x.h cXcXcXcXcXcXcXcXcXcXcXcXcXcXcXcXcXcXcX",
"cXcXcXcXcXcXcXcXcXcXcXcXcXcXcXcXcXcX> x s.f.j.c.k f.j.k.v.v.b.n.a.d.c.6 I.P.V.N.x.V.P.P.L cXcXcXcXcXcXcXcXcXcXcXcXcXcXcXcXcXcXcX",
"cXcXcXcXcXcXcXcXcXcXcXcXcXcXcXcXcXcXh x d.f.j.v.p.s.j.k.v.v.b.b.p.f.n.p.K.U.U.U.P.U.U.U.C cXcXcXcXcXcXcXcXcXcXcXcXcXcXcXcXcXcXcX",
"cXcXcXcXcXcXcXcXcXcXcXcXcXcXcXcXcX. h c d.f.j.b.M.x j.k.v.v.b.n.p.g.k.M.L Y.U.Y.U.U.Y.I.cXcXcXcXcXcXcXcXcXcXcXcXcXcXcXcXcXcXcXcX",
"cXcXcXcXcXcXcXcXcXcXcXcXcXcXcXcXcX# h h j p 1 j : > j.k.v.b.b.m.b 6 x k # G.T.Y.Y.T.R.m cXcXcXcXcXcXcXcXcXcXcXcXcXcXcXcXcXcXcXcX",
"cXcXcXcXcXcXcXcXcXcXcXcXcXcXcXcXcX> # - ; 5.XX5.> x f.k.k.v.b.m.P | |   cXcXF F.K.K cXcXcXcXcXcXcXcXcXcXcXcXcXcXcXcXcXcXcXcXcXcX",
"cXcXcXcXcXcXcXcXcXcXcXcXcXcXcXcX. : > f #.oX%X:Xx g.j.k.v.v.n.M.f #.+.X cXcXcXcXcXX cXcXcXcXcXcXcXcXcXcXcXcXcXcXcXcXcXcXcXcXcXcX",
"cXcXcXcXcXcXcXcXcXcXcXcXcXcXcXcX% s j a $.XXXX$.3 c c c v.c l.p.t %.#.! cXcXcXcX& | q cXcXcXcXcXcXcXcXcXcXcXcXcXcXcXcXcXcXcXcXcX",
"cXcXcXcXcXcXcXcXcXcXcXcXcXcXcXcXt _ , t $.&.@X#X@X_ e p j.C f s ' %.%..X#.^ & u %.( X cXcXt ' ' q cXcXcXcXcXcXcXcXcXcXcXcXcXcXcX",
"cXcXcXcXcXcXcXcXcXcXcXcXcXcXcXcX) +.] O._ XX@X@X#X-X@X_ C d $.o...%.%..X$X$X....#./ ! ' ' %.| O.#.w cXcXcXcXcXcXcXcXcXcXcXcXcXcX",
"cXcXcXcXcXcXcXcXcXcXcXcXcXcXcXcX_ $.5.oX] 5.XXOX%X-X-X;XXX] _ _ y ! ' #..X.X%.%. X#..X$X$X` & % / y cXcXcXcXcXcXcXcXcXcXcXcXcXcX",
"cXcXcXcXcXcXcXcXcXcXcXcXcXcXcXcX` +.$.oX$.X. XoXOX@X%X%X@X%X5.+.oXXXO.u #. X X%. X X%..X.X/ w w O cXcXcXcXcXcXcXcXcXcXcXcXcXcXcX",
"cXcXcXcXcXcXcXcXcXcXcXcXcXcXcXX Y s t / _ w s _ $.XXOX@X#X@X#X%X%X$.] 0 | ..@.#.%.%.%. X.X X X%.! cXcXcXcXcXcXcXcXcXcXcXcXcXcXcX",
"cXcXcXcXcXcXcXcXcXcXcXcXcXcXcX$ )._._.).).).)./.Y ( $.XXXXOX%X-X-X@Xq cX% ! | ..#.#.%.#.%.` y ^ #.q cXcXcXcXcXcXcXcXcXcXcXcXcXcX",
"cXcXcXcXcXcXcXcXcXcXcXcXcXcXcX  E R W.(.Q.~.(.'.'.^.W { 5.OX@X-X-X-X5.cXcXcXq | O.........! X X | y cXcXcXcXcXcXcXcXcXcXcXcXcXcX",
"cXcXcXcXcXcXcXcXcXcXcXcXcXcXcXcXU W.`.[.}.W ~.(.'.[.[.^.+.oX@X%X-X-X-X] s & cX& ^ / ( / _ ..( cX& 0 cXcXcXcXcXcXcXcXcXcXcXcXcXcX",
"cXcXcXcXcXcXcXcXcXcXcXcXcXcXcX$ !.Q.'.[.{.).T Q.Q.W.Q.U ` 5.$.@X#XOX#X5.XX$.& cXcXcXcXcXO t | cXcXcXcXcXcXcXcXcXcXcXcXcXcXcXcXcX",
"cXcXcXcXcXcXcXcXcXcXcXcXcXcXcX7 R ~.'.[.{.}.9 $ 7 $ $ 7 & +.5.OX#X#X_ & ^ XXy cXcXcXcXcXcXw ' cXcXcXcXcXcXcXcXcXcXcXcXcXcXcXcXcX",
"cXcXcXcXcXcXcXcXcXcXcXcXcXcXcX8 R ~.`.[.{.}.Y cXcXcXO E T i O.XXOXOXOXr   XX^ cXcXcXcXcXcX& w cXcXcXcXcXcXcXcXcXcXcXcXcXcXcXcXcX",
"cXcXcXcXcXcXcXcXcXcXcXcXcXcXcX7 !.Q.`.].{.}.W cXcXcXcXI R !.Y 5.^ Y $.$.  X.y cXcXcXcXcXcXcXcXcXcXcXcXcXcXcXcXcXcXcXcXcXcXcXcXcX",
"cXcXcXcXcXcXcXcXcXcXcXcXcXcXcX7 R ~.`.].{.}.*.cXcXcXcX7 R Q.Y +./ Y / $.cXX cXcXcXcXcXcXcXcXcXcXcXcXcXcXcXcXcXcXcXcXcXcXcXcXcXcX",
"cXcXcXcXcXcXcXcXcXcXcXcXcXcXcX7 R Q.`.].{.}./.cXcXcXcXcXU I ` 5.& 0 $.` cXcXcXcXcXcXcXcXcXcXcXcXcXcXcXcXcXcXcXcXcXcXcXcXcXcXcXcX",
"cXcXcXcXcXcXcXcXcXcXcXcXcXcXcX$ R Q.T !.W (.W cXcXcXcXcXI Y +.w ! i #.% cXcXcXcXcXcXcXcXcXcXcXcXcXcXcXcXcXcXcXcXcXcXcXcXcXcXcXcX",
"cXcXcXcXcXcXcXcXcXcXcXcXcXcXcX$ $ r _ ' _ &   cXcXcXcXcX  * w } @.~ X cXcXcXcXcXcXcXcXcXcXcXcXcXcXcXcXcXcXcXcXcXcXcXcXcXcXcXcXcX",
"cXcXcXcXcXcXcXcXcXcXcXcXcXcXcX  q $.OX%X#Xe cXcXcXcXcXcX0 ~ } @.@. .cXcXcXcXcXcXcXcXcXcXcXcXcXcXcXcXcXcXcXcXcXcXcXcXcXcXcXcXcXcX",
"cXcXcXcXcXcXcXcXcXcXcXcXcXcXcX% O.OX#X-X:XcXcXcXcXcXcX* ! }  .@.%. .cXcXcXcXcXcXcXcXcXcXcXcXcXcXcXcXcXcXcXcXcXcXcXcXcXcXcXcXcXcX",
"cXcXcXcXcXcXcXcXcXcXcXcXcXcXcX] oX%X%X;X:XcXcXcXcXcXX ! ~  .@.@.@.i cXcXcXcXcXcXcXcXcXcXcXcXcXcXcXcXcXcXcXcXcXcXcXcXcXcXcXcXcXcX",
"cXcXcXcXcXcXcXcXcXcXcXcXcXcX/ 5.#X@X-X;XO.cXcXcXcXcXi ~ }  .@. .& cXcXcXcXcXcXcXcXcXcXcXcXcXcXcXcXcXcXcXcXcXcXcXcXcXcXcXcXcXcXcX",
"cXcXcXcXcXcXcXcXcXcXcXcXcXy &.OX%X%X-X_ cXcXcXcXcX% ! } }  . .0 cXcXcXcXcXcXcXcXcXcXcXcXcXcXcXcXcXcXcXcXcXcXcXcXcXcXcXcXcXcXcXcX",
"cXcXcXcXcXcXcXcXcXcXcX- - _ XX#X#X%X] cXcXcXcXcX0.0X0.y ~  .i cXcXcXcXcXcXcXcXcXcXcXcXcXcXcXcXcXcXcXcXcXcXcXcXcXcXcXcXcXcXcXcXcX",
"cXcXcXcXcXcXcXcXcXcX= uXaX>X) ` @X$.cXcXcXcX    -.6XiX9X;.0 cXcXcXcXcXcXcXcXcXcXcXcXcXcXcXcXcXcXcXcXcXcXcXcXcXcXcXcXcXcXcXcXcXcX",
"cXcXcXcXcXcXcXcXcXcX- ,X9XlXhX6X{ - cXcXcXS L.e.z g S >XyXq.cXcXcXcXcXcXcXcXcXcXcXcXcXcXcXcXcXcXcXcXcXcXcXcXcXcXcXcXcXcXcXcXcXcX",
"cXcXcXcXcXcXcXcX2 2.r.t.v H L.iX6XcXcXcXd wXF.e.e.e.e.g -.q.cXcXcXcXcXcXcXcXcXcXcXcXcXcXcXcXcXcXcXcXcXcXcXcXcXcXcXcXcXcXcXcXcXcX",
"cXcXcXcXcXcXcX+ 9XT.y.y.y.u.l @ d cXcX. J d.r.e.e.g 5 N f =   cXcXcXcXcXcXcXcXcXcXcXcXcXcXcXcXcXcXcXcXcXcXcXcXcXcXcXcXcXcXcXcXcX",
"cXcXcXcXcXcXcX3.eXi.y.i.l A q.>X,X:.; # l e.e.g N 8.<X7X9X7Xq.- cXcXcXcXcXcXcXcXcXcXcXcXcXcXcXcXcXcXcXcXcXcXcXcXcXcXcXcXcXcXcXcX",
"cXcXcXcXcXcX# t.u.y.r.n ,XaXgXlXzXzX0Xp : g > :.<X7X0X0XyXpXyX<Xo cXcXcXcXcXcXcXcXcXcXcXcXcXcXcXcXcXcXcXcXcXcXcXcXcXcXcXcXcXcXcX",
"cXcXcXcXcXo < l e.e.N 0XpXgXjXlXzXzXzXgXf d =.1X<X7X0X0XyXpXpXpX0.cXcXcXcXcXcXcXcXcXcXcXcXcXcXcXcXcXcXcXcXcXcXcXcXcXcXcXcXcXcXcX",
"cXcXcXcXcX-.7Xq.m 1 6XyXyXgXjXhXzXzXzXzX>X8.0.=.q.6X0X0XuXpXpXpXuXf cXcXcXcXcXcXcXcXcXcXcXcXcXcXcXcXcXcXcXcXcXcXcXcXcXcXcXcXcXcX",
"cXcXcXcXcX=.<XfXgX<X;.8.7XpXjXgXlXzXzXzXhX=.7X9X9.=.1X0X0XyXpXpXyX>.cXcXcXcXcXcXcXcXcXcXcXcXcXcXcXcXcXcXcXcXcXcXcXcXcXcXcXcXcXcX",
"cXcXcXcXcXcXo :.7XgXgX6X:.9.7XgXgXlXzXzXhX>.{ <X0X1X-.w.9X0XuXyXuX8.cXcXcXcXcXcXcXcXcXcXcXcXcXcXcXcXcXcXcXcXcXcXcXcXcXcXcXcXcXcX",
"cXcXcXcXcXcXcXcX  d 1XpXjXuX8.>.6XaXgXgXjX9.cX  9.7X9X=Xd >X9X0X0X8.cXcXcXcXcXcXcXcXcXcXcXcXcXcXcXcXcXcXcXcXcXcXcXcXcXcXcXcXcXcX",
"cXcXcXcXcXcXcXcXcXcXcXp 0.pXgXpX,X;.,XaXhX>.cXcXcXp 0.0X7X9.-.8X0X>.cXcXcXcXcXcXcXcXcXcXcXcXcXcXcXcXcXcXcXcXcXcXcXcXcXcXcXcXcXcX",
"cXcXcXcXcXcXcXcXcXcXcXcXcX= 8.uXgXlX8X-.,X- cXcXcXcXcX=.6XyX7X=.8.r cXcXcXcXcXcXcXcXcXcXcXcXcXcXcXcXcXcXcXcXcXcXcXcXcXcXcXcXcXcX",
"cXcXcXcXcXcXcXcXcXcXcXcXcXcXcXo ;.uXzXgX<Xo cXcXcXcXcXcX= 0.uX9X:.  cXcXcXcXcXcXcXcXcXcXcXcXcXcXcXcXcXcXcXcXcXcXcXcXcXcXcXcXcXcX",
"cXcXcXcXcXcXcXcXcXcXcXcXcXcXcXcXcXcXf ,X1XcXcXcXcXcXcXcXcXcX- q.;.cXcXcXcXcXcXcXcXcXcXcXcXcXcXcXcXcXcXcXcXcXcXcXcXcXcXcXcXcXcXcX",
"cXcXcXcXcXcXcXcXcXcXcXcXcXcXcXcXcXcXcXcXX cXcXcXcXcXcXcXcXcXcX  . cXcXcXcXcXcXcXcXcXcXcXcXcXcXcXcXcXcXcXcXcXcXcXcXcXcXcXcXcXcXcX"
};
