/* XPM */
static char *result[] = {
/* columns rows colors chars-per-pixel */
"64 96 234 2 ",
"   c #010102",
".  c #0B0505",
"X  c #060B0B",
"o  c #0B0C0C",
"O  c #0F0708",
"+  c #130B0B",
"@  c #1B0D0D",
"#  c #170405",
"$  c #010816",
"%  c #0A1313",
"&  c #0D1B1B",
"*  c #141515",
"=  c #1B1A1A",
"-  c #181717",
";  c #2A0909",
":  c #34090B",
">  c #380E11",
",  c #251414",
"<  c #2A1616",
"1  c #2A1919",
"2  c #341A1A",
"3  c #3B1D1D",
"4  c #3A1214",
"5  c #000D27",
"6  c #081630",
"7  c #0B2626",
"8  c #122424",
"9  c #162C2C",
"0  c #1A2829",
"q  c #1B3333",
"w  c #1C3B3B",
"e  c #163537",
"r  c #0E3136",
"t  c #242424",
"y  c #2B2B2B",
"u  c #2A2222",
"i  c #3E2020",
"p  c #372E2E",
"a  c #213D3D",
"s  c #2B3937",
"d  c #333333",
"f  c #393A3A",
"g  c #393629",
"h  c #550000",
"j  c #460D12",
"k  c #591317",
"l  c #4A150D",
"z  c #670000",
"x  c #7A0201",
"c  c #66131A",
"v  c #75151D",
"b  c #6D1001",
"n  c #512108",
"m  c #692209",
"M  c #501E24",
"N  c #442323",
"B  c #4A2626",
"V  c #4D2829",
"C  c #532A2A",
"Z  c #5A2E2E",
"A  c #58272C",
"S  c #5F3030",
"D  c #583C3C",
"F  c #483838",
"G  c #643232",
"H  c #6B3636",
"J  c #6F3838",
"K  c #743A3A",
"L  c #7B3E3E",
"P  c #77363E",
"I  c #682B31",
"U  c #611920",
"Y  c #65413C",
"T  c #001A4D",
"R  c #001D57",
"E  c #142A54",
"W  c #032466",
"Q  c #00297C",
"!  c #002570",
"~  c #163779",
"^  c #223B6B",
"/  c #713C44",
"(  c #1C4545",
")  c #195656",
"_  c #0F4141",
"`  c #224344",
"'  c #254B4B",
"]  c #294D4D",
"[  c #264548",
"{  c #394A4A",
"}  c #2A5353",
"|  c #2D5B5B",
" . c #255858",
".. c #305D5D",
"X. c #315151",
"o. c #284D51",
"O. c #3D5E60",
"+. c #264179",
"@. c #1D6363",
"#. c #2C6363",
"$. c #266C6C",
"%. c #336262",
"&. c #356B6B",
"*. c #3A6D6D",
"=. c #3A6364",
"-. c #297474",
";. c #337474",
":. c #3C7575",
">. c #357B7B",
",. c #3E7A7A",
"<. c #4C4C4C",
"1. c #434545",
"2. c #43585A",
"3. c #585757",
"4. c #564948",
"5. c #7E4040",
"6. c #764347",
"7. c #6C5154",
"8. c #416A6B",
"9. c #417D7D",
"0. c #4D7373",
"q. c #547979",
"w. c #686666",
"e. c #767676",
"r. c #776C6B",
"t. c #445E60",
"y. c #8C0000",
"u. c #840000",
"i. c #90140E",
"p. c #BB0502",
"a. c #AB0000",
"s. c #92330E",
"d. c #861822",
"f. c #981C26",
"g. c #AC1F2B",
"h. c #A41E29",
"j. c #9A363A",
"k. c #B3202D",
"l. c #BB212F",
"z. c #BB2D2D",
"x. c #A82C35",
"c. c #A73016",
"v. c #CB301C",
"b. c #C42331",
"n. c #CC2434",
"m. c #D4302A",
"M. c #E33B25",
"N. c #E84D12",
"B. c #CC440F",
"V. c #873E47",
"C. c #B73845",
"Z. c #C83A49",
"A. c #834242",
"S. c #894646",
"D. c #8E4949",
"F. c #934B4B",
"G. c #994F4F",
"H. c #934449",
"J. c #9C5050",
"K. c #965457",
"L. c #8F5157",
"P. c #AD4955",
"I. c #A36265",
"U. c #DD4657",
"Y. c #D14957",
"T. c #E04C5B",
"R. c #E25766",
"E. c #E36472",
"W. c #91877E",
"Q. c #032E84",
"!. c #073899",
"~. c #073285",
"^. c #083BA2",
"/. c #2A4885",
"(. c #2C5099",
"). c #1147B3",
"_. c #1D4CAA",
"`. c #134EC6",
"'. c #1C5CDD",
"]. c #1652CC",
"[. c #266AF4",
"{. c #3778FC",
"}. c #2B6BEB",
"|. c #3569D2",
" X c #3A8383",
".X c #3C8787",
"XX c #438484",
"oX c #468A8A",
"OX c #498E8E",
"+X c #4C9393",
"@X c #4F9999",
"#X c #439393",
"$X c #519C9C",
"%X c #529191",
"&X c #588B8B",
"*X c #658787",
"=X c #769595",
"-X c #699393",
";X c #55A3A3",
":X c #58A7A7",
">X c #5AABAB",
",X c #8D8D8D",
"<X c #868583",
"1X c #949494",
"2X c #9B9B9B",
"3X c #90938F",
"4X c #8AA2A2",
"5X c #93A9A9",
"6X c #ABABAB",
"7X c #A3A3A3",
"8X c gray71",
"9X c #BABABA",
"0X c #BEBBB2",
"qX c #BEB6AA",
"wX c #A89A92",
"eX c #D2BDBD",
"rX c #D2CAB9",
"tX c #B7C5C5",
"yX c #C4C4C4",
"uX c #CCCCCC",
"iX c #D2D2D2",
"pX c #DBDDDD",
"aX c #D4DBDB",
"sX c #C8D2D2",
"dX c #FBF2DE",
"fX c #DDE3E3",
"gX c #E5E5E5",
"hX c #EBEBEB",
"jX c #E6EAEA",
"kX c #FEF7E9",
"lX c #F4F5F5",
"zX c #FDFDFD",
"xX c #FFFCF5",
"cX c None",
/* pixels */
"cXcXcXcXcXcXcXcXcXcXcXcXcXcXcXcXcXcXcXcXcXcXcXcXcXcXcXcXcXcXcXcXcXcXcXcXcXcXcXcXcXcXcXcXcXcXcXcXcXcXcXcXcXcXcXcXcXcXcXcXcXcXcXcX",
"cXcXcXcXcXcXcXcXcXcXcXcXcXcXcXcXcXcXcXcXcXcXcXcXcXcXcXcXcXcXcXcXcXcXcXcXcXcXcXcXcXcXcXcXcXcXcXcXcXcXcXcXcXcXcXcXcXcXcXcXcXcXcXcX",
"cXcXcXcXcXcXcXcXcXcXcXcXcXcXcXcXcXcXcXcXcXcXcXcXcXcXcXcXcXcXcXcXcXcXcXcXcXcXcXcXcXcXcXcXcXcXcXcXcXcXcXcXcXcXcXcXcXcXcXcXcXcXcXcX",
"cXcXcXcXcXcXcXcXcXcXcXcXcXcXcXcXcXcXcXcXcXcXcXcXcXcXcXcXcXcXcXcXcXcXcXcXcXcXcXcXcXcXcXcXcXcXcXcXcXcXcXcXcXcXcXcXcXcXcXcXcXcXcXcX",
"cXcXcXcXcXcXcXcXcXcXcXcXcXcXcXcXcXcXcXcXcXcXcXcXcXcXcXcXcXcXcXcXcXcXcXcXcXcXcXcXcXcXcXcXcXcXcXcXcXcXcXcXcXcXcXcXcXcXcXcXcXcXcXcX",
"cXcXcXcXcXcXcXcXcXcXcXcXcXcXcXcXcXcXcXcXcXcXcXcXcXcXcX  cXcXcXcXcXcXcXcXcXcXcXcXcXcXcXcXcXcXcXcXcXcXcXcXcXcXcXcXcXcXcXcXcXcXcXcX",
"cXcXcXcXcXcXcXcXcXcXcXcXcXcXcXcXcXcXcXcXcXcXcXcXcXcXcX  cXcXcXcXcXcXcXcXcXcXcXcXcXcXcXcXcXcXcXcXcXcXcXcXcXcXcXcXcXcXcXcXcXcXcXcX",
"cXcXcXcXcXcXcXcXcXcXcXcXcXcXcXcXcXcXcXcXcXcXcXcXcXcX+ + cXcXcXcXcXcXcXcXcXcXcXcXcXcXcXcXcXcXcXcXcXcXcXcXcXcXcXcXcXcXcXcXcXcXcXcX",
"cXcXcXcXcXcXcXcXcXcXcXcXcXcXcXcXcXcXcXcXcXcXcXcXcX. B . cXcXcXcXcXcX    . O + + O .     cXcXcXcXcXcXcXcXcXcXcXcXcXcXcXcXcXcXcXcX",
"cXcXcXcXcXcXcXcXcXcXcXcXcXcXcXcXcXcXcXcXcXcXcXcXcX1 G   cX    @ N Z H L A.A.S.S.A.5.K H C 3 +     cXcXcXcXcXcXcXcXcXcXcXcXcXcXcX",
"cXcXcXcXcXcXcXcXcXcXcXcXcXcXcXcXcXcXcXcXcXcXcXcX. H C + N H S.G.F.F.S.S.A.S.A.S.A.D.S.D.D.G.G.S.H i @   cXcXcXcXcXcXcXcXcXcXcXcX",
"cXcXcXcXcXcXcXcXcXcXcXcXcXcXcXcXcX    @ 2 2 2 2 C K J A.D.S.5.5.L L L 5.5.A.A.A.A.5.5.5.5.L 5.5.D.D.S.G 2 O cXcXcXcXcXcXcXcXcXcX",
"cXcXcXcXcXcXcXcXcXcXcXcXcXcXcXcXcXcXcXO 3 H L D.A.J K L K K L L L L 5.5.A.A.A.A.A.A.A.A.A.5.K 6.L L 5.A.D.S . cXcXcXcXcXcXcXcXcX",
"cXcXcXcXcXcXcXcXcXcXcXcXcXcXcXcXcXcXcXcX  + B G K J K K K L K L L L 5.5.A.A.A.S.A.S.A.A.A.5.j.L L K K J G 2   cXcXcXcXcXcXcXcXcX",
"cXcXcXcXcXcXcXcXcXcXcXcXcXcXcXcXcXcXcX  < G K H H J J K K K K L L j.6.5.A.A.S.A.A.A.A.5.A.5.L L L L L A.A.G B < O   cXcXcXcXcXcX",
"cXcXcXcXcXcXcXcXcXcXcXcXcXcXcXcXcX  . G S.L D.G.D.L L K K L K L L L L L 5.5.5.A.A.A.A.A.L 5.5.L L K L K H S S S Z +   cXcXcXcXcX",
"cXcXcXcXcXcXcXcXcXcXcXcXcXcXcXcXcXcX  . , L G.J.J.L K F.F.D.D.S.S.A.A.A.A.A.A.A.A.A.A.A.A.A.A.A.A.S.S.F.F.5.G i . cXcXcXcXcXcXcX",
"cXcXcXcXcXcXcXcXcXcXcXcXcXcXcXcXcXcXcX. C K S.G.J.5.C G F.J.J.5.G.J.J.J.J.J.S.J.J.J.J.J.J.J.J.J.J.J.J.J.J.J.J.F.S < . cXcXcXcXcX",
"cXcXcXcXcXcXcXcXcXcXcXcXcXcXcXcXcXcXcX3 G G G H K K C C Z D.J.G G F.J.J.J.D.S D.J.J.J.J.J.J.J.J.J.J.J.J.G.H.L J J J H i     cXcX",
"cXcXcXcXcXcXcXcXcXcXcXcXcXcXcXcXcXcX+ G G G G G G Z C C C Z 5.S C H F.J.J.J C K J.G.D.J.J.G.G.D.F.S.A.5.J K D.A.J N @     cXcXcX",
"cXcXcXcXcXcXcXcXcXcXcXcXcXcXcXcXcXcX3 G G H G G G C C N i C C C C C Z K K C C C 5.L Z K L K K S S J H H H G J K L L J B . cXcXcX",
"cXcXcXcXcXcXcXcXcXcXcXcXcXcXcXcXcX. C G G G G G G C C B . 3 C C C C C Z C C C C Z G C C G H H Z C S H G G G G G S Z B @ cXcXcXcX",
"cXcXcXcXcXcXcXcXcXcXcXcXcXcXcXcXcX@ G G G G Z A G Z i @ @ o 2 C B B C C C C V C C Z C C C Z S C C C G C C G G S.K C O   cXcXcXcX",
"cXcXcXcXcXcXcXcXcXcXcXcXcXcXcXcXcX, G G G G Z C C C B X o a ` < B O , V C N + B C C C V C C C C N C Z C C Z G J K 5.L A ,   cXcX",
"cXcXcXcXcXcXcXcXcXcXcXcXcXcXcXcXcX2 G S G G S C C C C * 9.a oXa , = ] @ N 2 w * i C C + i C C C + 2 C C C C G G Z C C B <     cX",
"cXcXcXcXcXcXcXcXcXcXcXcXcXcXcXcXcX3 G S S S S C 3 V C , XX@X@X$X] % XXOX9 . ,.@Xq < B & a @ B C * 0 i N 1 V A G L B +   cXcXcXcX",
"cXcXcXcXcXcXcXcXcXcXcXcXcXcXcXcXcX3 G G Z Z C C + o < < :.$X$X$X$X..&.;X$X*.@X;X;X..o a ;X,.8 < q XX= , % 3 C G G Z   cXcXcXcXcX",
"cXcXcXcXcXcXcXcXcXcXcXcXcXcXcXcXcX3 G G C C C C @ ..[ % } $X;X$X;X;X$X:X:X>X>X:X:X:XXX&.;X;X@X] | $X9.o 9.8 3 C C G , cXcXcXcXcX",
"cXcXcXcXcXcXcXcXcXcXcXcXcXcXcXcXcX3 G G A C C C < | ,.%.| @X;X;X>X>X>X>X>X>X>X>X:X>X:X:X:X;X;X$X@X$X$X9.+X9.1 C N C N cXcXcXcXcX",
"cXcXcXcXcXcXcXcXcXcXcXcXcXcXcXcXcX2 S S C C C C 1 ] %.] [ 9.$X$X>X>X>X>X>X>X>X>X>X>X:X:X:X;X;X;X;X$X$X@X@X+Xt C @ . ,   cXcXcXcX",
"cXcXcXcXcXcXcXcXcXcXcXcXcXcXcXcXcX< Z C C C B 2 3 ] %.] ] *.9.XX:X>X>X>X>X>X>X>X>X>X>X:X:X;X;X;X;X$X9.,.$X@Xt C . cXcX  cXcXcXcX",
"cXcXcXcXcXcXcXcXcXcXcXcXcXcXcXcXcX, A C C C N   3 ' oX%.%.+X$X$X;X:X>X>X>X>X>X>X>X>X:X:X:X;X:X>X;X$X*.&.XX$Xy B   cXcXcXcXcXcXcX",
"cXcXcXcXcXcXcXcXcXcXcXcXcXcXcXcXcX@ V C C C 3 8 O a @X+X+X9.:.:.9.+X;X;X>X>X>X>X>X>X:X>X;X;X>X>X>X:X+XXXo.XXd 2 cXcXcXcXcXcXcXcX",
"cXcXcXcXcXcXcXcXcXcXcXcXcXcXcXcXcX    . i C 2 [ a 0 @X9.%.8.=X5X4Xq.:.$X:X>X>X>X:X:X$X;X;X;X>X>X>X>X$XXX] 9.f + cXcXcXcXcXcXcXcX",
"cXcXcXcXcXcXcXcXcXcXcXcXcXcXcXcX  X X . O C < | oXw :.%.=XpXzXzXxXjX5X*.$X;X:X:X;X;X;X;X;X;X>X>X;X$X@X+X&.$Xs . cXcXcXcXcXcXcXcX",
"cXcXcXcXcXcXcXcXcXcXcXcXcXcX  0 &.XXXX*.% B < &.+X&...q.lXzXzXzXlXlXzX4X9.;X;X;X;X$X:.:.;X$X;X$X$XoXOX@X@X>Xs   cXcXcXcXcXcXcXcX",
"cXcXcXcXcXcXcXcXcXcXcXcXcX  ` +X+XOXoXoX8 i , ,.+X&...yXzXzXzXzXzXgXhXjX8.@X$X;X;X$X*.*.;X$X$X+X*X=X0.:.@X;X9 ..q   cXcXcXcXcXcX",
"cXcXcXcXcXcXcXcXcXcXcXcXcXq @XoXXX9.9.XXw < = XX+X%.*.zXzXzXzXzXlXgXgXlX*XoX$X$X$X$X$X$XoX@X$X-XlXzXfX0.9.;X9 9.$X` cXcXcXcXcXcX",
"cXcXcXcXcXcXcXcXcXcXcXcX  9.OXXX,.:.:.:.} + 1 XXoX..0.zXzXzXzXlXgXgXgXlX=X9.$X$X$X$X$X$XoX@X@XjXzXzXhXtX%.@X9 XXoX+X8 cXcXcXcXcX",
"cXcXcXcXcXcXcXcXcXcXcXcX% +XoXXX:.,.:.:.&.. 8 oXoX..8.zXzXlXjXgXgXgXgXlX*X9.$X$X$X@X$X@X@X@X-XlXzXxXjXaX=.OX9 :.oX+X..cXcXcXcXcX",
"cXcXcXcXcXcXcXcXcXcXcXcX0 +XoX,.:.:.:.:.,.% 8 oX+X%...tXzXzXjXgXgXlXlXjX*.XX@X@X@X@X@X@X@X+X-XxXzXhXgXpX=.oX9 :.XXoX,.  cXcXcXcX",
"cXcXcXcXcXcXcXcXcXcXcXcX& OXoX9.:.,.:.,.:.8 9 XX@X&.%.q.lXzXzXhXlXzXzX4X%.OX+X+X@X+X@X+X+X+X&XkXhXgXhXsX%.+X9 :.XXoX9.  cXcXcXcX",
"cXcXcXcXcXcXcXcXcXcXcXcX   XoXXX:.:.,.:.:.w w  XOX9...%.*XfXzXzXzXhX4X%.:.+X+X+X+X+X+X+X+X+X9.tXzXlXxX=X..$Xa %.XXoX&.  cXcXcXcX",
"cXcXcXcXcXcXcXcXcXcXcXcX  [ oXoX,.:.:.:.,.' ` ,.oX@X:...%.=.*X4X-X8...&.OX+X+X+X+X+X+X+X+X+XOX8.tXpX4X..9.+X]  .oXoX` cXcXcXcXcX",
"cXcXcXcXcXcXcXcXcXcXcXcXcXX %.oXXX,.:.,.:.%. .*.%.oX$X:.%...%.%...O.*.OX+XOXOXOXOXOX+XOXOXOXOXXX%.O...&.OXoX| } oX*.X cXcXcXcXcX",
"cXcXcXcXcXcXcXcXcXcXcXcXcXcXX  .oXXXXX,.*.:.*.*.%.9.oX+X+X9.*.*.,.oX+XOXOX+X+XOXOX+X+X+XOXOXOXOXOX,.,.OXoXOX` %.,.& cXcXcXcXcXcX",
"cXcXcXcXcXcXcXcXcXcXcXcXcXcXcX  X 8 9 % % %.,.:.:.:.:.XX9.oX%XOXoXoXoXOX:.*.2.8.t...=.8.XXOXOXOXoXoXOX,.*.%.& ` X cXcXcXcXcXcXcX",
"cXcXcXcXcXcXcXcXcXcXcXcXcXcXcXcXcXcXcXcX  % [ :.:.:...%.] *.XXoXoXXX8.7./ 6.w.L.6.6.A.7.O.&.(.OXoXoX,.*.' X     cXcXcXcXcXcXcXcX",
"cXcXcXcXcXcXcXcXcXcXcXcXcXcXcXcXcXcXcXcX> c : O 0  .*.*.} &.9.9.*.L.S.L.rXdXxXzXkXkXrX,X6.4.=.*.,.:.} &   cXcXcXcXcXcXcXcXcXcXcX",
"cXcXcXcXcXcXcXcXcXcXcXcXcXcXcXcXcXcXcX; c v f.d.c : + & a ..%...K.Y.K.kXkXdXzXxXkXxXdXkXdXL.K.] e %   cXcXcXcXcXcXcXcXcXcXcXcXcX",
"cXcXcXcXcXcXcXcXcXcXcXcXcXcXcXcXcXcXcX: : j k f.h.g.k.f.v j ; @ 2 U M D ,XdXzXzXqXwXW.qX<X2 O   cXcXcXcXcXcXcXcXcXcXcXcXcXcXcXcX",
"cXcXcXcXcXcXcXcXcXcXcXcXcXcXcXcXcXcX. j d.h.c.n f.g.k.l.l.b.n.b.n d.n N j.L.W.0X/ Z.C.C.# cXcXcXcXcXcXcXcXcXcXcXcXcXcXcXcXcXcXcX",
"cXcXcXcXcXcXcXcXcXcXcXcXcXcXcXcXcXcXj v f.h.l.B.k g.k.l.b.b.n.M.m k.B.U U.U.Y.C.x.T.T.Z.cXcXcXcXcXcXcXcXcXcXcXcXcXcXcXcXcXcXcXcX",
"cXcXcXcXcXcXcXcXcXcXcXcXcXcXcXcXcX# k v f.g.k.m.n h.k.l.b.b.n.M.m k.m.s.R.U.T.T.T.T.T.P.cXcXcXcXcXcXcXcXcXcXcXcXcXcXcXcXcXcXcXcX",
"cXcXcXcXcXcXcXcXcXcXcXcXcXcXcXcXcX# c v f.g.g.b.s.d.k.l.b.n.n.M.m f.l.s.P.R.R.R.R.R.R.I cXcXcXcXcXcXcXcXcXcXcXcXcXcXcXcXcXcXcXcX",
"cXcXcXcXcXcXcXcXcXcXcXcXcXcXcXcXcX# k c k 4 : d.; k k.l.b.b.n.M.l @ M . @ Y.E.R.R.E.S.cXcXcXcXcXcXcXcXcXcXcXcXcXcXcXcXcXcXcXcXcX",
"cXcXcXcXcXcXcXcXcXcXcXcXcXcXcXcXcX; ; = 0 9.XXX.k v k.l.b.n.n.N.g  X;.  cXcXL G.F.A cXcXcXcXcXcXcXcXcXcXcXcXcXcXcXcXcXcXcXcXcXcX",
"cXcXcXcXcXcXcXcXcXcXcXcXcXcXcXcXO ; ; [ *.+X;XOXd.g.k.l.b.b.m.N.s $. .cXcXcXcXcXcX  cXcXcXcXcXcXcXcXcXcXcXcXcXcXcXcXcXcXcXcXcXcX",
"cXcXcXcXcXcXcXcXcXcXcXcXcXcXcXcX% t k d ,.OXOX9.k c U v b.c s.n (  X X| 8 cXcXcX9 #.& cXcXcXcXcXcXcXcXcXcXcXcXcXcXcXcXcXcXcXcXcX",
"cXcXcXcXcXcXcXcXcXcXcXcXcXcXcXcXq ] > q :.9.OX+X:.q a s g.V s ' #.>.>..X X .8 w >.' X cXcX9 o.( cXcXcXcXcXcXcXcXcXcXcXcXcXcXcXcX",
"cXcXcXcXcXcXcXcXcXcXcXcXcXcXcXcX[ &.' | #.XX+XOX$X$X*.w m { ,.&.$.;. X.X#X#X&.;.*.( ' ' ' ,.&.>.#.% cXcXcXcXcXcXcXcXcXcXcXcXcXcX",
"cXcXcXcXcXcXcXcXcXcXcXcXcXcXcXcX} :.,.XXO.XXoX+X$X;X>X%XX.] XX..#.$.>.>..X.X X(. X>..X#X#X .8 9 #.w cXcXcXcXcXcXcXcXcXcXcXcXcXcX",
"cXcXcXcXcXcXcXcXcXcXcXcXcXcXcXcX| *.:.oX| ;.XXOX+X@X$X;X+XoX' } } a q  .;. X>.>. X>. XoX.Xe & X % X cXcXcXcXcXcXcXcXcXcXcXcXcXcX",
"cXcXcXcXcXcXcXcXcXcXcXcXcXcXcX  e [ ' ....9 o.&.XXOX+X@X@X@X@X;X@X@X+X% @.&.-.>.>.>.>.>..X.X.X>.8 cXcXcXcXcXcXcXcXcXcXcXcXcXcXcX",
"cXcXcXcXcXcXcXcXcXcXcXcXcXcXcX  (././././././.^ [ *.XXOXOX+X$X;X;X} 9 cX& ( #.-.;.>.>.;.>.#.` | #.cXcXcXcXcXcXcXcXcXcXcXcXcXcXcX",
"cXcXcXcXcXcXcXcXcXcXcXcXcXcXcX  ! Q Q.).).^.).`.`.E o.*.XX#X$X;X$XOX& cXcXcX9 | &.$.-.%.;.7   8 &.7 cXcXcXcXcXcXcXcXcXcXcXcXcXcX",
"cXcXcXcXcXcXcXcXcXcXcXcXcXcXcXcXR Q.).'.}.^ !.`.].'.).[ XXOX@X;X:X:X%.cXcXcXcX& w ' } ] #.&.e   w & cXcXcXcXcXcXcXcXcXcXcXcXcXcX",
"cXcXcXcXcXcXcXcXcXcXcXcXcXcXcX$ Q !.].'.[.|.W !.!.~.Q.8 ,.XXOX$X;X$X$X,.` cXcXcXcXcXcXcXX } ( cXcXcXcXcXcXcXcXcXcXcXcXcXcXcXcXcX",
"cXcXcXcXcXcXcXcXcXcXcXcXcXcXcX$ Q !.].'.[.{.0 5 $ $ X 5 O.,.XX@X$XOX:.*.oX[ cXcXcXcXcXcXcX} w cXcXcXcXcXcXcXcXcXcXcXcXcXcXcXcXcX",
"cXcXcXcXcXcXcXcXcXcXcXcXcXcXcX5 Q !.`.'.[.{.E cXcXcXcXR 6 ;.XXOX+X9.% . %.&.cXcXcXcXcXcXcXw 8 cXcXcXcXcXcXcXcXcXcXcXcXcXcXcXcXcX",
"cXcXcXcXcXcXcXcXcXcXcXcXcXcXcX5 Q !.`.'.[.{.E cXcXcXcX5 W 9 ;.XX&.OX9.  } &.cXcXcXcXcXcXcXcXcXcXcXcXcXcXcXcXcXcXcXcXcXcXcXcXcXcX",
"cXcXcXcXcXcXcXcXcXcXcXcXcXcXcX5 Q.^.`.'.[.{.^ cXcXcXcX$ ! T } ,.$ a XX9 8 ` cXcXcXcXcXcXcXcXcXcXcXcXcXcXcXcXcXcXcXcXcXcXcXcXcXcX",
"cXcXcXcXcXcXcXcXcXcXcXcXcXcXcX5 Q ^.].'.}.{.+.cXcXcXcXcXT 6  .&.X e  X8 cXcXcXcXcXcXcXcXcXcXcXcXcXcXcXcXcXcXcXcXcXcXcXcXcXcXcXcX",
"cXcXcXcXcXcXcXcXcXcXcXcXcXcXcX6 W ~.T ~ _.`.^ cXcXcXcXcX  :.:.8 e | %.cXcXcXcXcXcXcXcXcXcXcXcXcXcXcXcXcXcXcXcXcXcXcXcXcXcXcXcXcX",
"cXcXcXcXcXcXcXcXcXcXcXcXcXcXcXX e %.;.o.a %   cXcXcXcXcX  7 % _ ) e e cXcXcXcXcXcXcXcXcXcXcXcXcXcXcXcXcXcXcXcXcXcXcXcXcXcXcXcXcX",
"cXcXcXcXcXcXcXcXcXcXcXcXcXcX& } ,.+X@X$XXX% cXcXcXcXcXcXcXcX7 ) $.) $.( cXcXcXcXcXcXcXcXcXcXcXcXcXcXcXcXcXcXcXcXcXcXcXcXcXcXcXcX",
"cXcXcXcXcXcXcXcXcXcXcXcXcXE &.XX@X$X;X;X| cXcXcXcXcXcXcXcXcX7 ) -.-. X_ cXcXcXcXcXcXcXcXcXcXcXcXcXcXcXcXcXcXcXcXcXcXcXcXcXcXcXcX",
"cXcXcXcXcXcXcXcXcXcXcX% | 9.oX$XOX;X>X;X} cXcXcXcXcXcXcXcXcX7 ) @.-.$.X cXcXcXcXcXcXcXcXcXcXcXcXcXcXcXcXcXcXcXcXcXcXcXcXcXcXcXcX",
"cXcXcXcXcXcXcXcXcX<XeXs 9.+X@X$X;X:X;X=.cXcXcXcXcXcXcXcXcXcXr @.$.-. .cXcXcXcXcXcXcXcXcXcXcXcXcXcXcXcXcXcXcXcXcXcXcXcXcXcXcXcXcX",
"cXcXcXcXcXu w.K l e.jXiX{ XX+X$X+X' cXcXcXcXcXcXcXcXcXcXcXcXr ) $.$.) cXcXcXcXcXcXcXcXcXcXcXcXcXcXcXcXcXcXcXcXcXcXcXcXcXcXcXcXcX",
"cXcXcXcXf rXeXb.p.b 3.hXrX[ +X:.8 cXcXcXcXcXcXcXcXcXcXcXcXcXr @.@.$.( cXcXcXcXcXcXcXcXcXcXcXcXcXcXcXcXcXcXcXcXcXcXcXcXcXcXcXcXcX",
"cXcX  ; f.b.p.a.p.p.a.4.gX6X0 cXcXcXcXcXcXcXcXcXcXcXcXcXcXcX_ @.@.@.( cXcXcXcXcXcXcXcXcXcXcXcXcXcXcXcXcXcXcXcXcXcXcXcXcXcXcXcXcX",
"cXd <X2 y.a.p.a.y.b x b <.8Xy cXcXcXcXcXcXcXcXcXcXcXcXcXcXX s { { 2.1.y cXcXcXcXcXcXcXcXcXcXcXcXcXcXcXcXcXcXcXcXcXcXcXcXcXcXcXcX",
"cX3.yX6Xj z l 4.e.,X,Xr.y - cXcXcXcXcXcXcXcXcXcXcXcXcXcXcXy 6XuXiXiXuX7XcXcXcXcXcXcXcXcXcXcXcXcXcXcXcXcXcXcXcXcXcXcXcXcXcXcXcXcX",
"cXcXw.gX2Xp 7XuXuXgXgXhXpXe.* cXcXcXcXcXcXcXcXcXcXcXcXcXcXy e.w.4.D F t = y t * cXcXcXcXcXcXcXcXcXcXcXcXcXcXcXcXcXcXcXcXcXcXcXcX",
"cXcXcX<XgX3Xw.yXiXgXgXlXzXzXe.cXcXcXcXcXcXcXcXcXcXcXcXcXcX# h u.y.x j w.6XyXyX2X<.o cXcXcXcXcXcXcXcXcXcXcXcXcXcXcXcXcXcXcXcXcXcX",
"cXcXcXo 2XgX1Xw.uXgXgXzXzXzXjXt cXcXcXcXcXcXcXcXcXcXcXcX, H.y.y.x 3 2X9XiXiXiXiXiX<X- cXcXcXcXcXcXcXcXcXcXcXcXcXcXcXcXcXcXcXcXcX",
"cXcXcXcX- 6XgXe.e.fXgXxXzXzXzXw.cXcXcXcXcXcXcXcXcXcXcXcXw.I.y.y.: <X9X9XuXiXiXiXiXuXe.cXcXcXcXcXcXcXcXcXcXcXcXcXcXcXcXcXcXcXcXcX",
"cXcXcXcXcX= 6XgXw.3XgXhXzXzXzX6XcXcXcXcXcXcXcXcXcXcXcXcX3Xj.y.z 3.7X9X9X9XuXiXiXiXyX9Xd cXcXcXcXcXcXcXcXcXcXcXcXcXcXcXcXcXcXcXcX",
"cXcXcXcXcXcXy yXpXw.7XgXzXzXzX8XcXcXcXcXcXcXcXcXcXcXcXcXL u.u.: 1X2X6X9X8X9XyXyXyX9X9Xw.cXcXcXcXcXcXcXcXcXcXcXcXcXcXcXcXcXcXcXcX",
"cXcXcXcXcXcXcXt uXaX3.6XgXlXhX2XcXcXcXcXcXcXcXcXcXcXcXcXh z h d ,X,X,X1X1X2X1X1X1X1X3Xw.cXcXcXcXcXcXcXcXcXcXcXcXcXcXcXcXcXcXcXcX",
"cXcXcXcXcXcXcXcXp iXpX3.yXgXgX3.cXcXcXcXcXcXcXcXcXcXcXo u p p 1.1.<.<.<.3.3.3.w.e.e.e.3.* cXcXcXcXcXcXcXcXcXcXcXcXcXcXcXcXcXcXcX",
"cXcXcXcXcXcXcXcXcX<.jXjX<.uXyX* cXcXcXcXcXcXcXcXcXcXcXy 7X8X8X0X9X9X9X9X9X8X8X8XuXiX9X7X= cXcXcXcXcXcXcXcXcXcXcXcXcXcXcXcXcXcXcX",
"cXcXcXcXcXcXcXcXcXcX3.zXuX1.f cXcXcXcXcXcXcXcXcXcXcXcX* 1.1.<.1.1.f f d d d y y t t 0 - . cXcXcXcXcXcXcXcXcXcXcXcXcXcXcXcXcXcXcX",
"cXcXcXcXcXcXcXcXcXcXcX<.iXe.. cXcXcXcXcXcXcXcXcXcXcXcXcXcXcXcXcXcXcXcXcXcXcXcXcXcXcXcXcXcXcXcXcXcXcXcXcXcXcXcXcXcXcXcXcXcXcXcXcX",
"cXcXcXcXcXcXcXcXcXcXcXcX<.= cXcXcXcXcXcXcXcXcXcXcXcXcXcXcXcXcXcXcXcXcXcXcXcXcXcXcXcXcXcXcXcXcXcXcXcXcXcXcXcXcXcXcXcXcXcXcXcXcXcX"
};
