/* XPM */
static char *result[] = {
/* columns rows colors chars-per-pixel */
"64 96 238 2 ",
"   c #020202",
".  c #0C0606",
"X  c #050B0B",
"o  c #0C0C0C",
"O  c #030509",
"+  c #130A0A",
"@  c #1A0D0D",
"#  c #170504",
"$  c #020B1B",
"%  c #0A1313",
"&  c #0D1C1C",
"*  c #061417",
"=  c #121212",
"-  c #1B1B1B",
";  c #131B1B",
":  c #1B0F11",
">  c #250706",
",  c #370A0D",
"<  c #231313",
"1  c #2B1616",
"2  c #281A1A",
"3  c #331A1A",
"4  c #3A1D1D",
"5  c #321010",
"6  c #3C110C",
"7  c #011438",
"8  c #0A1724",
"9  c #0C2626",
"0  c #132424",
"q  c #152B2B",
"w  c #182F2F",
"e  c #1A3434",
"r  c #1D3A3A",
"t  c #173436",
"y  c #11303A",
"u  c #2B2B2B",
"i  c #252525",
"p  c #3D2222",
"a  c #362F2E",
"s  c #213D3D",
"d  c #273838",
"f  c #343434",
"g  c #3C3C3D",
"h  c #333B38",
"j  c #3A3224",
"k  c #2B241F",
"l  c #440304",
"z  c #580101",
"x  c #4B0E13",
"c  c #491717",
"v  c #5C1117",
"b  c #4F160B",
"n  c #680000",
"m  c #7C0404",
"M  c #69131A",
"N  c #74151D",
"B  c #79161E",
"V  c #682309",
"C  c #7D1721",
"Z  c #432222",
"A  c #4B2626",
"S  c #4F2828",
"D  c #432C2C",
"F  c #522A2A",
"G  c #5B2E2E",
"H  c #5E2129",
"J  c #5F3030",
"K  c #4A3431",
"L  c #653232",
"P  c #6B3636",
"I  c #6E393A",
"U  c #6A363C",
"Y  c #743A3A",
"T  c #7B3E3E",
"R  c #733339",
"E  c #4C1F1D",
"W  c #1E403F",
"Q  c #00194B",
"!  c #001D56",
"~  c #1A2C49",
"^  c #1C3842",
"/  c #1F3256",
"(  c #052463",
")  c #002879",
"_  c #15336D",
"`  c #263C68",
"'  c #7B3D44",
"]  c #184545",
"[  c #1A5858",
"{  c #0F4444",
"}  c #234444",
"|  c #264A4B",
" . c #294D4D",
".. c #294546",
"X. c #2B5354",
"o. c #2E5B5B",
"O. c #245757",
"+. c #315D5E",
"@. c #1E6565",
"#. c #2D6161",
"$. c #2D6A6A",
"%. c #226969",
"&. c #336262",
"*. c #356B6B",
"=. c #3A6C6C",
"-. c #3B6363",
";. c #2B7474",
":. c #337474",
">. c #3C7575",
",. c #357C7C",
"<. c #3E7A7A",
"1. c #27447F",
"2. c #4A4949",
"3. c #545354",
"4. c #5A5A5B",
"5. c #5A5757",
"6. c #524B4B",
"7. c #7F4040",
"8. c #774647",
"9. c #6D4F53",
"0. c #417D7D",
"q. c #4C7575",
"w. c #557979",
"e. c #446C6C",
"r. c #656565",
"t. c #787777",
"y. c #776D6D",
"u. c #555F62",
"i. c #8C0100",
"p. c #820000",
"a. c #900700",
"s. c #BB0303",
"d. c #B01003",
"f. c #8C2D12",
"g. c #AF3515",
"h. c #8A1923",
"j. c #991C26",
"k. c #AA1F2B",
"l. c #A41E29",
"z. c #902E37",
"x. c #B4202D",
"c. c #BA212E",
"v. c #BC2130",
"b. c #B22F2B",
"n. c #D33E19",
"m. c #C22331",
"M. c #CC2434",
"N. c #D3312F",
"B. c #E23A25",
"V. c #B9400A",
"C. c #EE4E14",
"Z. c #B63946",
"A. c #853F49",
"S. c #C43E4C",
"D. c #834242",
"F. c #8A4646",
"G. c #8E4949",
"H. c #85474B",
"J. c #944C4C",
"K. c #9A4F4F",
"L. c #93444D",
"P. c #9C5050",
"I. c #935557",
"U. c #88515B",
"Y. c #AE4D55",
"T. c #9A6668",
"R. c #DD4657",
"E. c #C2525E",
"W. c #E04C5B",
"Q. c #E25564",
"!. c #D7606D",
"~. c #022E86",
"^. c #09348A",
"/. c #0B3A99",
"(. c #0A3DA2",
"). c #0E45B6",
"_. c #184CB5",
"`. c #2C5AB6",
"'. c #224792",
"]. c #124CC3",
"[. c #1954CB",
"{. c #1B5AD9",
"}. c #225CD0",
"|. c #336AD9",
" X c #276CF6",
".X c #2A6DF3",
"XX c #1F61E4",
"oX c #3A8383",
"OX c #3E8B8B",
"+X c #448484",
"@X c #468A8A",
"#X c #498D8D",
"$X c #5D8484",
"%X c #4C9393",
"&X c #4F9999",
"*X c #429292",
"=X c #519C9C",
"-X c #519191",
";X c #648787",
":X c #719494",
">X c #55A3A3",
",X c #58A7A7",
"<X c #5AABAB",
"1X c #848484",
"2X c #8B8B8B",
"3X c #949494",
"4X c #9B9B9B",
"5X c #889797",
"6X c #A59B90",
"7X c #9AADAD",
"8X c #8AA1A1",
"9X c #A4A4A4",
"0X c #ADADAD",
"qX c #B4B4B4",
"wX c #B9B9B9",
"eX c #ACBCBC",
"rX c #B5AC9C",
"tX c #C9BBB1",
"yX c #CDC6BC",
"uX c #BDC9C9",
"iX c #C4C4C4",
"pX c #CBCBCB",
"aX c #CDCBC5",
"sX c #D3D3D3",
"dX c #D8DCDC",
"fX c #D4D4CE",
"gX c #FCF3DC",
"hX c #DEE4E4",
"jX c #E5E5E5",
"kX c #ECECEC",
"lX c #E5EAEA",
"zX c #FBF5E6",
"xX c #EDF1F1",
"cX c #F3F4F4",
"vX c #FDFDFD",
"bX c #FCFAF6",
"nX c #E1DDD6",
"mX c None",
/* pixels */
"mXmXmXmXmXmXmXmXmXmXmXmXmXmXmXmXmXmXmXmXmXmXmXmXmXmXmXmXmXmXmXmXmXmXmXmXmXmXmXmXmXmXmXmXmXmXmXmXmXmXmXmXmXmXmXmXmXmXmXmXmXmXmXmX",
"mXmXmXmXmXmXmXmXmXmXmXmXmXmXmXmXmXmXmXmXmXmXmXmXmXmXmXmXmXmXmXmXmXmXmXmXmXmXmXmXmXmXmXmXmXmXmXmXmXmXmXmXmXmXmXmXmXmXmXmXmXmXmXmX",
"mXmXmXmXmXmXmXmXmXmXmXmXmXmXmXmXmXmXmXmXmXmXmXmXmXmXmXmXmXmXmXmXmXmXmXmXmXmXmXmXmXmXmXmXmXmXmXmXmXmXmXmXmXmXmXmXmXmXmXmXmXmXmXmX",
"mXmXmXmXmXmXmXmXmXmXmXmXmXmXmXmXmXmXmXmXmXmXmXmXmXmXmXmXmXmXmXmXmXmXmXmXmXmXmXmXmXmXmXmXmXmXmXmXmXmXmXmXmXmXmXmXmXmXmXmXmXmXmXmX",
"mXmXmXmXmXmXmXmXmXmXmXmXmXmXmXmXmXmXmXmXmXmXmXmXmXmXmXmXmXmXmXmXmXmXmXmXmXmXmXmXmXmXmXmXmXmXmXmXmXmXmXmXmXmXmXmXmXmXmXmXmXmXmXmX",
"mXmXmXmXmXmXmXmXmXmXmXmXmXmXmXmXmXmXmXmXmXmXmXmXmXmXmX  mXmXmXmXmXmXmXmXmXmXmXmXmXmXmXmXmXmXmXmXmXmXmXmXmXmXmXmXmXmXmXmXmXmXmXmX",
"mXmXmXmXmXmXmXmXmXmXmXmXmXmXmXmXmXmXmXmXmXmXmXmXmXmXmX  mXmXmXmXmXmXmXmXmXmXmXmXmXmXmXmXmXmXmXmXmXmXmXmXmXmXmXmXmXmXmXmXmXmXmXmX",
"mXmXmXmXmXmXmXmXmXmXmXmXmXmXmXmXmXmXmXmXmXmXmXmXmXmX@ + mXmXmXmXmXmXmXmXmXmXmXmXmXmXmXmXmXmXmXmXmXmXmXmXmXmXmXmXmXmXmXmXmXmXmXmX",
"mXmXmXmXmXmXmXmXmXmXmXmXmXmXmXmXmXmXmXmXmXmXmXmXmX. F   mXmXmXmXmX    . + + + + + + .     mXmXmXmXmXmXmXmXmXmXmXmXmXmXmXmXmXmXmX",
"mXmXmXmXmXmXmXmXmXmXmXmXmXmXmXmXmXmXmXmXmXmXmXmXmX4 J   mX  + 3 F Y D.G.G.J.K.K.J.J.F.7.L Z 2 .   mXmXmXmXmXmXmXmXmXmXmXmXmXmXmX",
"mXmXmXmXmXmXmXmXmXmXmXmXmXmXmXmXmXmXmXmXmXmXmXmX. Y F : G D.K.J.G.F.D.D.D.D.D.D.D.D.D.F.G.J.J.P.D.F <   mXmXmXmXmXmXmXmXmXmXmXmX",
"mXmXmXmXmXmXmXmXmXmXmXmXmXmXmXmXmX    < 4 4 3 3 L Y T J.G.D.T T T T T D.7.D.D.D.D.D.D.7.D.T T T D.J.J.T 3   mXmXmXmXmXmXmXmXmXmX",
"mXmXmXmXmXmXmXmXmXmXmXmXmXmXmXmXmXmXmX  1 G Y D.7.I Y Y Y T Y T T T 7.7.D.D.D.D.D.D.D.D.D.T T 7.T Y T D.J.P . mXmXmXmXmXmXmXmXmX",
"mXmXmXmXmXmXmXmXmXmXmXmXmXmXmXmXmXmXmXmX  . Z L P I Y Y Y T T T 8.z.7.D.D.D.D.F.F.D.D.D.D.D.D.T T T Y L J :   mXmXmXmXmXmXmXmXmX",
"mXmXmXmXmXmXmXmXmXmXmXmXmXmXmXmXmXmXmX. 4 T T Y P P I Y Y Y Y T T T T 7.D.D.D.D.D.D.D.D.z.T T T T Y T z.D.7.J 3 +   mXmXmXmXmXmX",
"mXmXmXmXmXmXmXmXmXmXmXmXmXmXmXmXmX  + I G.Y G.J.J.8.z.Y Y Y Y T T T 7.T 7.D.D.D.D.D.D.D.8.T T T T Y 8.I L J J J S +   mXmXmXmXmX",
"mXmXmXmXmXmXmXmXmXmXmXmXmXmXmXmXmXmXmX  @ D.K.K.P.T L J.P.K.J.G.F.F.F.D.D.D.D.D.D.D.D.F.D.F.F.F.F.J.J.J.P.G.I 4   mXmXmXmXmXmXmX",
"mXmXmXmXmXmXmXmXmXmXmXmXmXmXmXmXmXmXmX. F Y F.J.P.D.F J J.P.P.T K.P.P.P.P.P.G.P.P.K.K.P.K.K.K.P.P.P.P.P.P.P.K.G.P 2   mXmXmXmXmX",
"mXmXmXmXmXmXmXmXmXmXmXmXmXmXmXmXmXmX  Z L P L L Y I F F G D.P.L J J.P.P.P.G.J G.P.P.P.P.P.P.P.P.P.P.P.P.J.J.T P P P P p     mXmX",
"mXmXmXmXmXmXmXmXmXmXmXmXmXmXmXmXmXmX+ L L L L L L F F F F G T J F L J.P.P.P F I K.K.G.P.P.P.K.G.G.G.D.Y P Y G.D.Y 4 . .   mXmXmX",
"mXmXmXmXmXmXmXmXmXmXmXmXmXmXmXmXmXmX4 L L L P L L G F Z 4 F F F F F J Y I F S F T T F P T Y I J G P P P L P P Y Y T Y A . mXmXmX",
"mXmXmXmXmXmXmXmXmXmXmXmXmXmXmXmXmX. F L L L J L L F S S . 4 F F F F S G G F F F J L F F L P P F F L P J J L L L J G A + mXmXmXmX",
"mXmXmXmXmXmXmXmXmXmXmXmXmXmXmXmXmX@ L L L L G F J G 4 @ : % 1 F A Z S F S S S F F G F F F J L F F G L G F L P F.T F +   mXmXmXmX",
"mXmXmXmXmXmXmXmXmXmXmXmXmXmXmXmXmX1 L L L L J F F F A X X s d 1 S . 1 S F Z @ A S F F S F S F F Z S G S F G L P Y 7.Y S <   mXmX",
"mXmXmXmXmXmXmXmXmXmXmXmXmXmXmXmXmX3 L L L L L F F F F = +X| @X..< - o.@ Z 3 s ; 4 S S + 4 F S F + 3 F F S F L L G F F Z <   mXmX",
"mXmXmXmXmXmXmXmXmXmXmXmXmXmXmXmXmX4 L J G L G F 4 F F < +X&X&X=X| % +X@X0 . <.%Xw 1 A ; r : A F = 0 p Z 3 S G L T A +   mXmXmXmX",
"mXmXmXmXmXmXmXmXmXmXmXmXmXmXmXmXmXp L L G G F F + o 2 1 >.=X=X=X=X+.>.>X,X=.&X,X>X+.o } =X0.; 1 e @X; 1 % p S J L G   mXmXmXmXmX",
"mXmXmXmXmXmXmXmXmXmXmXmXmXmXmXmXmXc L J F F F S : o.} % +.=X=X>X>X=X&X>X,X,X,X,X,X,X>.*.>X>X&X} o.=X<.X <.; c F F P @ mXmXmXmXmX",
"mXmXmXmXmXmXmXmXmXmXmXmXmXmXmXmXmX4 L L F F F F < o.0.*.+.&X=X>X<X<X<X<X<X<X<X<X,X,X,X,X,X>X>X=X=X=X=X+X&X0.2 F A S Z mXmXmXmXmX",
"mXmXmXmXmXmXmXmXmXmXmXmXmXmXmXmXmX3 L J F F F F 1 X.+. .| 0.=X=X<X<X<X<X<X<X<X<X<X<X<X,X,X,X>X>X=X=X=X=X&X%Xi S @ . 1   mXmXmXmX",
"mXmXmXmXmXmXmXmXmXmXmXmXmXmXmXmXmX1 L F F F Z 3 4  .&. .| >.>.+X,X<X<X<X<X<X<X<X<X<X,X,X>X>X>X=X>X=X0.0.&X-Xu F . mXmX  mXmXmXmX",
"mXmXmXmXmXmXmXmXmXmXmXmXmXmXmXmXmX< F F F F Z . 4  .@XX.o.-X&X=X>X,X<X<X<X<X<X<X<X<X<X,X,X,X,X<X>X=X=.&.#X=Xu Z   mXmXmXmXmXmXmX",
"mXmXmXmXmXmXmXmXmXmXmXmXmXmXmXmXmX@ A S F F 4 0 + s &X=X-X+X=.0.0.%X>X,X<X<X<X<X,X<X,X,X>X>X<X<X<X>X&X0. .@Xa 3 mXmXmXmXmXmXmXmX",
"mXmXmXmXmXmXmXmXmXmXmXmXmXmXmXmXmX    + p F 3 | w w &X0.&.-.w.:X;X=.<.>X,X<X<X<X,X,X=X,X>X>X<X<X<X<X&X+X .0.f @ mXmXmXmXmXmXmXmX",
"mXmXmXmXmXmXmXmXmXmXmXmXmXmXmXmX    O   @ F 1 o.@Xe >.+.;XlXvXvXvXxX5X=.>X,X,X,X>X>X>X>X>X>X<X<X>X=X=X%X&.=Xh . mXmXmXmXmXmXmXmX",
"mXmXmXmXmXmXmXmXmXmXmXmXmXmXmX% +.+X+X*.X S 1 *.&X&.+.q.cXvXvXvXbXbXvX:X'.>X>X>X>X>X<.<.>X>X>X=X&X%X&X&X&X,Xd   mXmXmXmXmXmXmXmX",
"mXmXmXmXmXmXmXmXmXmXmXmXmX  s =X#X@X@X+X0 4 2 >.&X*.&.uXvXvXvXvXbXjXxXlXq.&X>X>X>X=X&.&.>X=X=X&Xw.$X=.>.&X>Xw +.0 mXmXmXmXmXmXmX",
"mXmXmXmXmXmXmXmXmXmXmXmXmXq &X@X@X+XoX+Xr 1 - +X%X+.=.bXvXvXvXvXcXlXlXbX;X@X=X=X>X=X=X=X%X=X=X;XxXvXdX-.+X=X0 0.=Xe mXmXmXmXmXmX",
"mXmXmXmXmXmXmXmXmXmXmXmX  <.@X@X<.<.>.>.| : 2 @X+X&.w.vXvXvXvXbXlXjXjXzX:X0.=X=X=X=X=X=X+X&X-XjXvXbXxXeX&.&Xq +X@X#X& mXmXmXmXmX",
"mXmXmXmXmXmXmXmXmXmXmXmX% %X@X+X>.>.>.>.&.. 0 @X@X+.e.vXvXcXlXlXjXjXjXzX;X0.&X=X=X=X&X&X&X&X-XvXvXvXjXdX&.-Xq <.@X%XX.mXmXmXmXmX",
"mXmXmXmXmXmXmXmXmXmXmXmXq %X@X<.>.>.>.>.>.X 0 @X%X&.&.pXvXvXkXjXjXbXcXkXe.+X&X&X&X&X&X&X&X%X:XvXbXkXlXdX+.@Xq >.@X@X>.  mXmXmXmX",
"mXmXmXmXmXmXmXmXmXmXmXmX0 @X@X<.>.<.<.>.>.0 w @X&X&.+.;XvXvXbXcXkXbXvX7X&.@X%X&X&X%X%X&X&X%X-XvXxXlXkXsX&.%Xw >.+X@X<.  mXmXmXmX",
"mXmXmXmXmXmXmXmXmXmXmXmXX @X@X+X>.>.>.>.<.e r +X#X0.+.&.:XxXvXvXvXcX7X&.>.%X%X%X%X%X%X%X%X%X+XpXvXxXbX5X+.=Xr &.+X@X*.  mXmXmXmX",
"mXmXmXmXmXmXmXmXmXmXmXmX  X.@X+X<.>.<.>.>.} } <.@X&X*.+.+.q.8XeX7Xw.&.&.@X%X%X%X%X%X%X%X%X%X@Xq.hXbXeX+.>.&X| o.@X+X .mXmXmXmXmX",
"mXmXmXmXmXmXmXmXmXmXmXmXmX% =.@X+X<.>.>.>.o.X.>.*.@X&X=.&.&.+.&.&.&.*.#X%X#X#X%X#X#X#X#X%X#X#X0.+.+.+.&.%X@Xo.X.@X>.% mXmXmXmXmX",
"mXmXmXmXmXmXmXmXmXmXmXmXmXmX* =.@X@X<.<.>.>.*.*.o.+X@X=X@X=.&.&.=.+X#X#X#X#X#X%X%X%X-X-X#X#X#X#X0.>.>.#X@X@X} &.+Xq mXmXmXmXmXmX",
"mXmXmXmXmXmXmXmXmXmXmXmXmXmXmX  & r } q 0 >.>.>.>.>.<.+X+X%X%X%X#X@X@X#X+X>.-.&.-.&.=.0.@X@X@X@X@X#X#X'.=.>.0 o.% mXmXmXmXmXmXmX",
"mXmXmXmXmXmXmXmXmXmXmXmXmXmXmXmXmXmXmXmX  & o.>.>.>.o.*. .>.@X@X@X+X<.u.9.U 8.9.U H.9.4.&.>.+X@X@X#X+X0.o.%     mXmXmXmXmXmXmXmX",
"mXmXmXmXmXmXmXmXmXmXmXmXmXmXmXmXmXmXmXmX, v > ; } *.>.&.X.*.<.+X>.4.F.9.6XgXbXvXzXnXrXU.' 3.&.<.0.0.&.q X mXmXmXmXmXmXmXmXmXmXmX",
"mXmXmXmXmXmXmXmXmXmXmXmXmXmXmXmXmXmXmX# M N h.N x + & t X.=.=.&.I.R.I.zXzXgXbXbXzXbXgXzXfXH.U.+. .0 o mXmXmXmXmXmXmXmXmXmXmXmXmX",
"mXmXmXmXmXmXmXmXmXmXmXmXmXmXmXmXmXmXmX, , x N j.l.k.j.h.x > @ : H z.G T.tXzXvXvXnXyXtXfXtXD 1     mXmXmXmXmXmXmXmXmXmXmXmXmXmXmX",
"mXmXmXmXmXmXmXmXmXmXmXmXmXmXmXmXmXmX  , M l.f.b l.k.x.x.v.m.c.x.6 x > c Y 6XpXzX8.b.z.z.. mXmXmXmXmXmXmXmXmXmXmXmXmXmXmXmXmXmXmX",
"mXmXmXmXmXmXmXmXmXmXmXmXmXmXmXmXmXmX, M j.k.c.g.M k.x.c.m.m.M.B.V x.n.c R.R.Z.z.z.R.R.E.mXmXmXmXmXmXmXmXmXmXmXmXmXmXmXmXmXmXmXmX",
"mXmXmXmXmXmXmXmXmXmXmXmXmXmXmXmXmX# M N j.k.c.B.b k.x.c.m.m.M.B.V x.n.f.W.R.W.W.R.W.W.Z.mXmXmXmXmXmXmXmXmXmXmXmXmXmXmXmXmXmXmXmX",
"mXmXmXmXmXmXmXmXmXmXmXmXmXmXmXmXmX# V B j.l.v.M.f.h.b.c.m.M.M.B.V x.m.g.E.Q.Q.Q.Q.Q.Q.z.mXmXmXmXmXmXmXmXmXmXmXmXmXmXmXmXmXmXmXmX",
"mXmXmXmXmXmXmXmXmXmXmXmXmXmXmXmXmX# v N N M v k.b M x.c.m.m.M.B.b 5 B + A !.Q.Q.Q.!.Y.mXmXmXmXmXmXmXmXmXmXmXmXmXmXmXmXmXmXmXmXmX",
"mXmXmXmXmXmXmXmXmXmXmXmXmXmXmXmXmX> , : - &.*.e x v x.v.M.M.M.C.j :.#.  mX4 L.E.E.U mXmXmXmXmXmXmXmXmXmXmXmXmXmXmXmXmXmXmXmXmXmX",
"mXmXmXmXmXmXmXmXmXmXmXmXmXmXmXmX# , > | &.%X>X@Xh.l.x.v.m.M.N.C.h ,.:.mXmXmXmXmXmXmXmXmXmXmXmXmXmXmXmXmXmXmXmXmXmXmXmXmXmXmXmXmX",
"mXmXmXmXmXmXmXmXmXmXmXmXmXmXmXmX. - v s >.#X&X+XM h.h.h.m.B g.V W oX,.t mXmXmXmX%  .& mXmXmXmXmXmXmXmXmXmXmXmXmXmXmXmXmXmXmXmXmX",
"mXmXmXmXmXmXmXmXmXmXmXmXmXmXmXmXq ..x u >.+X%X#X..: d p m.A k d O.,.,.OX:.q mX0 :.#.% mXmXX & % mXmXmXmXmXmXmXmXmXmXmXmXmXmXmXmX",
"mXmXmXmXmXmXmXmXmXmXmXmXmXmXmXmXW &.e  .*.+X#X%X=X#X| ^ C g ,.*.$.,.oXOX*X*X#.$.:.q & & 0 :.,.,.] mXmXmXmXmXmXmXmXmXmXmXmXmXmXmX",
"mXmXmXmXmXmXmXmXmXmXmXmXmXmXmXmX .>.>.<.o.@X#X&X=X,X,X0.2 +.%X+.%.:.,.oXOXOX:.oX,.>.@X*X*X*.r | ,.r mXmXmXmXmXmXmXmXmXmXmXmXmXmX",
"mXmXmXmXmXmXmXmXmXmXmXmXmXmXmXmXo.>.<.@Xo.<.+X#X&X=X=X>X%X*. .| t r O.$.,.oX,.,.oX,.oXOX*Xw     0 & mXmXmXmXmXmXmXmXmXmXmXmXmXmX",
"mXmXmXmXmXmXmXmXmXmXmXmXmXmXmXmX| $.=.+X>. .>.0.#X%X&X=X&X=X0.%X&X#X+.9 %.,.:.,.,.oX,.oXOX$.*.O.X mXmXmXmXmXmXmXmXmXmXmXmXmXmXmX",
"mXmXmXmXmXmXmXmXmXmXmXmXmXmXmXO '.` / ~ ~ ~ ~ d +.<.#X%X%X%X&X>X=X&.|   9 O.$.:.:.:.oX:.oX*.#.$.O.mXmXmXmXmXmXmXmXmXmXmXmXmXmXmX",
"mXmXmXmXmXmXmXmXmXmXmXmXmXmXmX  _ /.'._.`.[.[.[._ ^ =.0.oX%X=X>X,X&.  mXmXX r $.;.:.:.;.:.0 X r ;.& mXmXmXmXmXmXmXmXmXmXmXmXmXmX",
"mXmXmXmXmXmXmXmXmXmXmXmXmXmXmXmX! ~.(.XX|._ (._.{.[._ X.+X#X=X>X=X>X .mXmXmXmXr X.#.#.+.$.#.& X o.0 mXmXmXmXmXmXmXmXmXmXmXmXmXmX",
"mXmXmXmXmXmXmXmXmXmXmXmXmXmXmXmX! ~.].{..X|.( _.).).(.t '.#X&X>X,X,X@X} % mXmXmXX % & % w &.] mXX mXmXmXmXmXmXmXmXmXmXmXmXmXmXmX",
"mXmXmXmXmXmXmXmXmXmXmXmXmXmXmX  ) ^.].{. X.X/ Q Q 7 7 * q.>.+X&X&X#X#X+X%Xe mXmXmXmXmXmXmX| ] mXmXmXmXmXmXmXmXmXmXmXmXmXmXmXmXmX",
"mXmXmXmXmXmXmXmXmXmXmXmXmXmXmX  ~.~.].{. X X'.mXmXmX  ! } <.+X%X&X<.0 q >.+.mXmXmXmXmXmXmXO.q mXmXmXmXmXmXmXmXmXmXmXmXmXmXmXmXmX",
"mXmXmXmXmXmXmXmXmXmXmXmXmXmXmXmX) ~.].{.XX.X`.mXmXmXmX7 Q ] <.@X+X%XX.  X.*.mXmXmXmXmXmXmXX mXmXmXmXmXmXmXmXmXmXmXmXmXmXmXmXmXmX",
"mXmXmXmXmXmXmXmXmXmXmXmXmXmXmXmX! ~.).[.XX X|.mXmXmXmX* ) 9 &.>.0 *.@X% | o.mXmXmXmXmXmXmXmXmXmXmXmXmXmXmXmXmXmXmXmXmXmXmXmXmXmX",
"mXmXmXmXmXmXmXmXmXmXmXmXmXmXmXmX! ~.(.[.XX.X.X8 mXmXmXmX( ! } >.$ w 0.0   % mXmXmXmXmXmXmXmXmXmXmXmXmXmXmXmXmXmXmXmXmXmXmXmXmXmX",
"mXmXmXmXmXmXmXmXmXmXmXmXmXmXmXmXQ ~.(.(._.XX`.y mXmXmXmX$ | <.} 9  .<.X mXmXmXmXmXmXmXmXmXmXmXmXmXmXmXmXmXmXmXmXmXmXmXmXmXmXmXmX",
"mXmXmXmXmXmXmXmXmXmXmXmXmXmXmXmX$ ~ +.o.; y 8   mXmXmXmX  #.t 9 { +.] 9 mXmXmXmXmXmXmXmXmXmXmXmXmXmXmXmXmXmXmXmXmXmXmXmXmXmXmXmX",
"mXmXmXmXmXmXmXmXmXmXmXmXmXmXmXw &.0.@X&X-X+X0 mXmXmXmXmXmX  X { @.9 ] [ mXmXmXmXmXmXmXmXmXmXmXmXmXmXmXmXmXmXmXmXmXmXmXmXmXmXmXmX",
"mXmXmXmXmXmXmXmXmXmXmXmX% s =.0.%X=X=X>X,X+.mXmXmXmXmXmXmXmXmX{ %.;.oX@.mXmXmXmXmXmXmXmXmXmXmXmXmXmXmXmXmXmXmXmXmXmXmXmXmXmXmXmX",
"mXmXmXmXmXmX# :   u 0X2X| 0.@X#X=X%X>X>X,XX.mXmXmXmXmXmXmXmXmX{ @.%.;.[ mXmXmXmXmXmXmXmXmXmXmXmXmXmXmXmXmXmXmXmXmXmXmXmXmXmXmXmX",
"mXmXmXmX# 1XfXaXd.E 0XvX3.+X&X&X=X>X,X>X*.mXmXmXmXmXmXmXmXmXmXy @.@.;.[ mXmXmXmXmXmXmXmXmXmXmXmXmXmXmXmXmXmXmXmXmXmXmXmXmXmXmXmX",
"mXmX- # i.b.N.d.s.d.E sXsX .+X=X>X0.s w mXmXmXmXmXmXmXmXmXmXmXy @.;.;.%.mXmXmXmXmXmXmXmXmXmXmXmXmXmXmXmXmXmXmXmXmXmXmXmXmXmXmXmX",
"mX6.iX3.m d.s.s.s.s.d.K cX1X&.=.0 mXmXmXmXmXmXmXmXmXmXmXmXmXmX9 [ @.%.@.mXmXmXmXmXmXmXmXmXmXmXmXmXmXmXmXmXmXmXmXmXmXmXmXmXmXmXmX",
"mXi 0XiX6 p.m z z n a.a.2XkXu mXmXmXmXmXmXmXmXmXmXmXmXmXmXmXmX9 [ @.[ %.& mXmXmXmXmXmXmXmXmXmXmXmXmXmXmXmXmXmXmXmXmXmXmXmXmXmXmX",
"mXmX3.lX2Xg 4XqXwX0X1Xa + 1Xi mXmXmXmXmXmXmXmXmXmXmXmXmXmXmXmX* { ] t d u.f mXmXmXmXmXmXmXmXmXmXmXmXmXmXmXmXmXmXmXmXmXmXmXmXmXmX",
"mXmXmX9XjX3.0XfXdXjXlXdXy.. mXmXmXmXmXmXmXmXmXmXmXmXmXmXmXmXmXX h 1XqXpXpX2X= O - i = mXmXmXmXmXmXmXmXmXmXmXmXmXmXmXmXmXmXmXmXmX",
"mXmXmXu sXwX4.pXhXjXkXbXvXt.mXmXmXmXmXmXmXmXmXmXmXmXmXmXmXmXmX= iXtX5X2.1 . 3.wXsXpXpX3Xu mXmXmXmXmXmXmXmXmXmXmXmXmXmXmXmXmXmXmX",
"mXmXmXmX1XlXt.4XhXjXcXvXvXjXu mXmXmXmXmXmXmXmXmXmXmXmXmXmXmXmXmXt.p z i.l t.iXsXsXsXsXpXwX2.mXmXmXmXmXmXmXmXmXmXmXmXmXmXmXmXmXmX",
"mXmXmXmX. wXdXg sXjXcXvXvXvXt.mXmXmXmXmXmXmXmXmXmXmXmXmXmXmXmXmXl a.a.n 5.qXiXsXsXsXsXsXiXqX..mXmXmXmXmXmXmXmXmXmXmXmXmXmXmXmXmX",
"mXmXmXmXmX6.dX9Xt.jXcXvXvXvX2XmXmXmXmXmXmXmXmXmXmXmXmXmXmXmXmX2 l.i.i.6 4XwXwXiXpXsXsXpXwXwXT.mXmXmXmXmXmXmXmXmXmXmXmXmXmXmXmXmX",
"mXmXmXmXmXmX1XlX4.wXkXvXvXvX4XmXmXmXmXmXmXmXmXmXmXmXmXmXmXmXmXr.T.a.i.f 9XwXwXwXwXwXwXwX0XT.2.o mXmXmXmXmXmXmXmXmXmXmXmXmXmXmXmX",
"mXmXmXmXmXmXu sXpXr.jXxXvXvXt.mXmXmXmXmXmXmXmXmXmXmXmXmXmXmXmXy.P.i.n 4.7X9X0XqX0X2Xr.h 3.;X3Xt.mXmXmXmXmXmXmXmXmXmXmXmXmXmXmXmX",
"mXmXmXmXmXmXmX5.lX2X1XkXkXjX6.mXmXmXmXmXmXmXmXmXmXmXmXmXmXmXmX6.m p.l 1X3XT.u.g ..y.4XwXpXpX9X5.  mXmXmXmXmXmXmXmXmXmXmXmXmXmXmX",
"mXmXmXmXmXmXmXO tXxXr.sXjX0X; mXmXmXmXmXmXmXmXmXmXmXmXmXmXmXmX> n n > f f 5.2X7XwXwXqX2Xr.u = mXmXmXmXmXmXmXmXmXmXmXmXmXmXmXmXmX",
"mXmXmXmXmXmXmXmXu cXpX5.iXu mXmXmXmXmXmXmXmXmXmXmXmXmXmXmXmXmXO 2 3.1X0XwXqX0X3X5.u . mXmXmXmXmXmXmXmXmXmXmXmXmXmXmXmXmXmXmXmXmX",
"mXmXmXmXmXmXmXmXmX2XhX4.= mXmXmXmXmXmXmXmXmXmXmXmXmXmXmXmXmXmXu 4X0XqX9Xy.g ; mXmXmXmXmXmXmXmXmXmXmXmXmXmXmXmXmXmXmXmXmXmXmXmXmX",
"mXmXmXmXmXmXmXmXmX- 2X2.mXmXmXmXmXmXmXmXmXmXmXmXmXmXmXmXmXmXmX= 5.f - mXmXmXmXmXmXmXmXmXmXmXmXmXmXmXmXmXmXmXmXmXmXmXmXmXmXmXmXmX",
"mXmXmXmXmXmXmXmXmXmX  mXmXmXmXmXmXmXmXmXmXmXmXmXmXmXmXmXmXmXmXmXmXmXmXmXmXmXmXmXmXmXmXmXmXmXmXmXmXmXmXmXmXmXmXmXmXmXmXmXmXmXmXmX"
};
