/* XPM */
static char *result[] = {
/* columns rows colors chars-per-pixel */
"64 96 237 2 ",
"   c #020202",
".  c #0C0606",
"X  c #050B0B",
"o  c #0A0D0D",
"O  c #02050B",
"+  c #140B0B",
"@  c #1B0C0D",
"#  c #160304",
"$  c #010814",
"%  c #0B1414",
"&  c #0E1C1C",
"*  c #0B141D",
"=  c #141414",
"-  c #1E1111",
";  c #1D1D1C",
":  c #131C1C",
">  c #1F0E10",
",  c #250707",
"<  c #38090B",
"1  c #231212",
"2  c #2B1616",
"3  c #2E1819",
"4  c #341B1B",
"5  c #3B1E1E",
"6  c #2F0F0C",
"7  c #000D28",
"8  c #041639",
"9  c #0D1D23",
"0  c #0B2727",
"q  c #122323",
"w  c #152B2B",
"e  c #192D2D",
"r  c #1A2525",
"t  c #0C3737",
"y  c #1A3434",
"u  c #1E3B3B",
"i  c #173334",
"p  c #182F32",
"a  c #232323",
"s  c #2D292A",
"d  c #3E2121",
"f  c #362829",
"g  c #213A3A",
"h  c #333333",
"j  c #3C3C3C",
"k  c #393333",
"l  c #2D2F30",
"z  c #33201C",
"x  c #570605",
"c  c #480D12",
"v  c #50130D",
"b  c #640300",
"n  c #7A0000",
"m  c #69141A",
"M  c #741619",
"N  c #4D261B",
"B  c #442323",
"V  c #4A2626",
"C  c #4F2828",
"Z  c #532A2A",
"A  c #5B2E2E",
"S  c #552228",
"D  c #5F3030",
"F  c #5D3836",
"G  c #463A3A",
"H  c #653333",
"J  c #6B3636",
"K  c #6E3838",
"L  c #733A3A",
"P  c #7B3E3E",
"I  c #7C3037",
"U  c #70292F",
"Y  c #66241A",
"T  c #001848",
"R  c #001C54",
"E  c #1A3848",
"W  c #12274E",
"Q  c #253B53",
"!  c #00297C",
"~  c #022771",
"^  c #0D2D6A",
"/  c #273F66",
"(  c #1B4545",
")  c #1B5959",
"_  c #224343",
"`  c #254A4B",
"'  c #294E4E",
"]  c #294347",
"[  c #2B5454",
"{  c #2D5B5B",
"}  c #265858",
"|  c #315E5E",
" . c #355A5A",
".. c #294872",
"X. c #1D6363",
"o. c #2D6464",
"O. c #256C6C",
"+. c #336363",
"@. c #356A6A",
"#. c #3A6D6D",
"$. c #386464",
"%. c #297474",
"&. c #327474",
"*. c #3C7575",
"=. c #357B7B",
"-. c #3D7A7A",
";. c #4B4C4C",
":. c #444444",
">. c #585757",
",. c #544C50",
"<. c #7F4040",
"1. c #78474B",
"2. c #6D4E54",
"3. c #417D7D",
"4. c #467676",
"5. c #5A7D7D",
"6. c #4A6769",
"7. c #636363",
"8. c #696767",
"9. c #727272",
"0. c #7B7A7A",
"q. c #766B65",
"w. c #71635C",
"e. c #8C0101",
"r. c #930505",
"t. c #8B1617",
"y. c #BB0101",
"u. c #AE0D00",
"i. c #99330D",
"p. c #8D1A23",
"a. c #841821",
"s. c #951B25",
"d. c #A31D29",
"f. c #AD1F2C",
"g. c #B01F2C",
"h. c #B3202D",
"j. c #B9212F",
"k. c #BE2230",
"l. c #AE202B",
"z. c #93333C",
"x. c #CB3C18",
"c. c #C42332",
"v. c #CC2434",
"b. c #D42734",
"n. c #C22A2F",
"m. c #E03727",
"M. c #B54305",
"N. c #CC460D",
"B. c #8B3C45",
"V. c #B13743",
"C. c #C83E50",
"Z. c #834242",
"A. c #894646",
"S. c #8E4848",
"D. c #85474A",
"F. c #934B4B",
"G. c #994E4E",
"H. c #934249",
"J. c #9C5050",
"K. c #885156",
"L. c #B24B52",
"P. c #877E79",
"I. c #A97777",
"U. c #DD4453",
"Y. c #C24655",
"T. c #E04C5C",
"R. c #E1505F",
"E. c #CF5966",
"W. c #E25665",
"Q. c #E26673",
"!. c #94857D",
"~. c #06328B",
"^. c #093CA2",
"/. c #1B4498",
"(. c #2A4B8E",
"). c #124BBE",
"_. c #1148B6",
"`. c #355EB3",
"'. c #1954CB",
"]. c #1A59D6",
"[. c #124DC5",
"{. c #225DD4",
"}. c #2264EA",
"|. c #2D71FD",
" X c #2E70F5",
".X c #3B6BCD",
"XX c #3A8383",
"oX c #3F8B8B",
"OX c #448484",
"+X c #458A8A",
"@X c #498E8E",
"#X c #488080",
"$X c #4C9393",
"%X c #4F9999",
"&X c #429191",
"*X c #519D9D",
"=X c #5C8D8D",
"-X c #688888",
";X c #799595",
":X c #718E8E",
">X c #55A3A3",
",X c #58A7A7",
"<X c #5BACAC",
"1X c #8C8C8C",
"2X c #848484",
"3X c #9C9C9C",
"4X c #939393",
"5X c #968C8C",
"6X c #9DB1B1",
"7X c #92A8A8",
"8X c #A5A5A5",
"9X c #ACACAC",
"0X c #ADABA7",
"qX c #B4B4B4",
"wX c #BBBBBB",
"eX c #A8B9B9",
"rX c #B2A39C",
"tX c #C7A29A",
"yX c #B7C5C5",
"uX c #C4C4C4",
"iX c #CCCCCC",
"pX c #C0CDCD",
"aX c #D2D2D2",
"sX c #D8DCDC",
"dX c #D3D5D0",
"fX c #E0DDD3",
"gX c #F6EDDB",
"hX c #E5E3DD",
"jX c #E4E5E5",
"kX c #EBECEC",
"lX c #E5E9E9",
"zX c #FFF8E9",
"xX c #F3F3F3",
"cX c #FEFEFE",
"vX c #F9F8F3",
"bX c #DAE1E1",
"nX c None",
/* pixels */
"nXnXnXnXnXnXnXnXnXnXnXnXnXnXnXnXnXnXnXnXnXnXnXnXnXnXnXnXnXnXnXnXnXnXnXnXnXnXnXnXnXnXnXnXnXnXnXnXnXnXnXnXnXnXnXnXnXnXnXnXnXnXnXnX",
"nXnXnXnXnXnXnXnXnXnXnXnXnXnXnXnXnXnXnXnXnXnXnXnXnXnXnXnXnXnXnXnXnXnXnXnXnXnXnXnXnXnXnXnXnXnXnXnXnXnXnXnXnXnXnXnXnXnXnXnXnXnXnXnX",
"nXnXnXnXnXnXnXnXnXnXnXnXnXnXnXnXnXnXnXnXnXnXnXnXnXnXnXnXnXnXnXnXnXnXnXnXnXnXnXnXnXnXnXnXnXnXnXnXnXnXnXnXnXnXnXnXnXnXnXnXnXnXnXnX",
"nXnXnXnXnXnXnXnXnXnXnXnXnXnXnXnXnXnXnXnXnXnXnXnXnXnXnXnXnXnXnXnXnXnXnXnXnXnXnXnXnXnXnXnXnXnXnXnXnXnXnXnXnXnXnXnXnXnXnXnXnXnXnXnX",
"nXnXnXnXnXnXnXnXnXnXnXnXnXnXnXnXnXnXnXnXnXnXnXnXnXnXnXnXnXnXnXnXnXnXnXnXnXnXnXnXnXnXnXnXnXnXnXnXnXnXnXnXnXnXnXnXnXnXnXnXnXnXnXnX",
"nXnXnXnXnXnXnXnXnXnXnXnXnXnXnXnXnXnXnXnXnXnXnXnXnXnXnXnX  nXnXnXnXnXnXnXnXnXnXnXnXnXnXnXnXnXnXnXnXnXnXnXnXnXnXnXnXnXnXnXnXnXnXnX",
"nXnXnXnXnXnXnXnXnXnXnXnXnXnXnXnXnXnXnXnXnXnXnXnXnXnXnX  nXnXnXnXnXnXnXnXnXnXnXnXnXnXnXnXnXnXnXnXnXnXnXnXnXnXnXnXnXnXnXnXnXnXnXnX",
"nXnXnXnXnXnXnXnXnXnXnXnXnXnXnXnXnXnXnXnXnXnXnXnXnXnXnX  nXnXnXnXnXnXnXnXnXnXnXnXnXnXnXnXnXnXnXnXnXnXnXnXnXnXnXnXnXnXnXnXnXnXnXnX",
"nXnXnXnXnXnXnXnXnXnXnXnXnXnXnXnXnXnXnXnXnXnXnXnXnXnX+ 2 nXnXnXnXnXnXnXnXnXnXnXnXnXnXnXnXnXnXnXnXnXnXnXnXnXnXnXnXnXnXnXnXnXnXnXnX",
"nXnXnXnXnXnXnXnXnXnXnXnXnXnXnXnXnXnXnXnXnXnXnXnXnX  B 2 nXnXnXnX    . - 3 B V V B d 2 1       nXnXnXnXnXnXnXnXnXnXnXnXnXnXnXnXnX",
"nXnXnXnXnXnXnXnXnXnXnXnXnXnXnXnXnXnXnXnXnXnXnXnXnX2 L .   + 4 Z L A.G.G.F.F.F.S.F.F.G.G.J.A.K A 4 @   nXnXnXnXnXnXnXnXnXnXnXnXnX",
"nXnXnXnXnXnXnXnXnXnXnXnXnXnXnXnXnXnXnXnXnXnXnXnX. H J 4 H Z.F.S.Z.Z.Z.<.P Z.Z.Z.Z.P Z.Z.Z.Z.A.S.G.Z.J d @ nXnXnXnXnXnXnXnXnXnXnX",
"nXnXnXnXnXnXnXnXnXnXnXnXnXnXnXnXnXnX  + B Z A A H L L F.A.<.P L P P P Z.Z.Z.Z.Z.Z.Z.Z.Z.Z.Z.P P P <.Z.F.Z.C + nXnXnXnXnXnXnXnXnX",
"nXnXnXnXnXnXnXnXnXnXnXnXnXnXnXnXnXnXnXnX+ 5 D L Z.L L L L L P P P <.Z.P Z.Z.Z.A.Z.A.Z.Z.Z.P <.P P P P K K J + nXnXnXnXnXnXnXnXnX",
"nXnXnXnXnXnXnXnXnXnXnXnXnXnXnXnXnXnXnXnXnX  4 H K K K L L L L P P P Z.Z.Z.Z.Z.A.A.A.Z.Z.Z.Z.P P P L P P P Z 2 . nXnXnXnXnXnXnXnX",
"nXnXnXnXnXnXnXnXnXnXnXnXnXnXnXnXnXnXnX. B A.A.P L K K L L L P L P P P <.P Z.Z.Z.Z.Z.Z.Z.Z.P Z.I P P P L L L L L Z @   nXnXnXnXnX",
"nXnXnXnXnXnXnXnXnXnXnXnXnXnXnXnXnX    5 K J Z.J.G.A.L Z.Z.P P P P P P <.<.<.Z.<.Z.Z.Z.Z.Z.P P P P P <.Z.<.K A C 3 . nXnXnXnXnXnX",
"nXnXnXnXnXnXnXnXnXnXnXnXnXnXnXnXnXnXnX  . J G.J.G.F.A P J.J.J.G.F.F.F.S.S.S.A.S.A.S.S.S.S.F.F.G.G.J.J.J.J.J.J.P 4 + nXnXnXnXnXnX",
"nXnXnXnXnXnXnXnXnXnXnXnXnXnXnXnXnXnXnX. V H L Z.F.F.A Z J G.J.A.L G.J.J.J.J.Z.S.G.J.J.J.J.J.J.J.J.J.J.J.J.J.G.A.Z.Z.H 2   nXnXnX",
"nXnXnXnXnXnXnXnXnXnXnXnXnXnXnXnXnXnXnX1 H H H H J H A Z Z H S.A.Z L J.J.J.F.D H J.J.J.J.J.J.J.J.G.J.G.S.Z.<.P K H C d 2 .     nX",
"nXnXnXnXnXnXnXnXnXnXnXnXnXnXnXnXnXnX  A J H H H H A Z Z Z Z A H Z Z K F.F.L Z Z S.G.P A.F.S.A.Z.D L K K J J L S.F.Z.D 4 .   nXnX",
"nXnXnXnXnXnXnXnXnXnXnXnXnXnXnXnXnXnX1 H H H H J H D Z Z 1 B Z Z Z Z Z A J Z Z Z A J A Z H J K H Z H J H H H H H D H A V + nXnXnX",
"nXnXnXnXnXnXnXnXnXnXnXnXnXnXnXnXnXnX4 H H H H A H D Z d 2 . B Z C Z Z Z Z Z Z Z Z H Z Z Z H J A C A H H Z H H L H Z 5   nXnXnXnX",
"nXnXnXnXnXnXnXnXnXnXnXnXnXnXnXnXnXnXV H H H D Z Z A Z + > % q 5 Z 2 d C Z Z 5 C Z Z Z Z Z C A Z Z C A A Z A H J A.A.K 4 +   nXnX",
"nXnXnXnXnXnXnXnXnXnXnXnXnXnXnXnXnX. A H H H H Z Z Z Z 1 y o #.q 5 1 o 2 C Z + + V Z Z B V Z Z Z B 4 Z Z Z Z D H D D H H Z 1     ",
"nXnXnXnXnXnXnXnXnXnXnXnXnXnXnXnXnX@ D H A H H Z Z Z Z 4 | +X-.%Xy + [ +.= z g +X: 4 Z 2 % 3 C Z 4 o 4 Z B Z Z H K D 5 @   nXnXnX",
"nXnXnXnXnXnXnXnXnXnXnXnXnXnXnXnXnX@ H H A H A Z 4 2 Z B _ *X*X*X%X_ u >X@Xg ' >X%X_ - - OX .- d > @.r B . 3 Z A H L . nXnXnXnXnX",
"nXnXnXnXnXnXnXnXnXnXnXnXnXnXnXnXnX@ H H Z A Z Z 5 & = 1 q *X*X*X>X*X#.>X>X>X*X,X>X>X@.q *X>X+Xp o @XOXo g r 5 Z A H B nXnXnXnXnX",
"nXnXnXnXnXnXnXnXnXnXnXnXnXnXnXnXnX@ H H A Z Z Z B g #.| w $X*X>X>X,X<X<X<X<X<X<X,X,X,X$X>X>X>X*X-.%X%X*.#.+Xr Z Z Z A   nXnXnXnX",
"nXnXnXnXnXnXnXnXnXnXnXnXnXnXnXnXnX+ H H A Z Z Z V e *.+.' *.*X>X>X<X<X<X<X<X<X<X<X<X,X,X,X>X>X>X>X>X*X%X%X*X' B V @ 5 1 nXnXnXnX",
"nXnXnXnXnXnXnXnXnXnXnXnXnXnXnXnXnX+ A A Z Z Z B Z r #.` ' [ @X3.>X>X<X<X<X<X<X<X<X<X<X,X,X,X>X>X>X*X*XOX*X*X[ V 5   nX    nXnXnX",
"nXnXnXnXnXnXnXnXnXnXnXnXnXnXnXnXnX. Z Z Z Z Z 1 B ; 3.[ ` | @X4.>X,X<X<X<X<X<X<X<X<X<X,X,X,X>X,X>X>X@X' @X*X| V > nXnXnXnXnXnXnX",
"nXnXnXnXnXnXnXnXnXnXnXnXnXnXnXnXnX  d Z Z Z Z + @ ; +X+X*.@X*X%X*X>X,X,X<X<X<X<X<X,X<X,X,X,X,X<X<X,X*X@.#.#.$.V . nXnXnXnXnXnXnX",
"nXnXnXnXnXnXnXnXnXnXnXnXnXnXnXnXnX  1 4 C Z C + u X *.%X+X*.+.+.$.#.OX%X,X<X<X<X,X,X,X*X,X>X<X<X<X<X*X*X .[ $.B   nXnXnXnXnXnXnX",
"nXnXnXnXnXnXnXnXnXnXnXnXnXnXnXnXnX      . V C % *.r +.-.+.5.6XsXsXyX-X*.%X,X<X<X,X,X>X>X>X>X,X<X,X,X>X%X$.@.4.2 nXnXnXnXnXnXnXnX",
"nXnXnXnXnXnXnXnXnXnXnXnXnXnXnXnX  % w & O 4 V & OX@._ { -XjXcXcXcXcXvX7X*.>X,X,X>X,X*X+X*X>X>X,X*X*X*X%X$X%X3.+ nXnXnXnXnXnXnXnX",
"nXnXnXnXnXnXnXnXnXnXnXnXnXnXnXq #.@X$X@X[ 1 B r $X+X{ 6.bXcXcXcXcXkXxXxX5.@X>X>X>X>XOX' @X>X>X*X$X#X4.-.$X*X3.o e O nXnXnXnXnXnX",
"nXnXnXnXnXnXnXnXnXnXnXnXnXnXw $X$X+X+X+X*.+ d y $X-.| :XcXcXcXcXcXkXjXxXeX*.*X*X>X>X%X3.%X*X*X%X;XsXpX-X*.*X@.p *X' . nXnXnXnXnX",
"nXnXnXnXnXnXnXnXnXnXnXnXnXo OX+X+X3.*.-.-.% 2 _ $X#.o.6XcXcXcXcXcXjXjXkXjX$.$X>X*X*X*X*X%X-.%X=XcXcXvXjX$.@X| ' +X$X` nXnXnXnXnX",
"nXnXnXnXnXnXnXnXnXnXnXnXnX_ @X+X3.*.*.*.*.q @ [ %X@.{ 6XcXcXxXxXkXjXjXlXlX+.$X*X*X*X*X%X*X%X%X6XcXcXxXkX-X3.| ' +X+X+XO nXnXnXnX",
"nXnXnXnXnXnXnXnXnXnXnXnX  +.+X+X-.*.*.*.*.u   +.$X#.+.;XcXcXkXjXjXkXkXxXyX$.@X%X%X%X%X%X%X%X@XyXcXcXkXkX;X*.| _ -.+X$Xe nXnXnXnX",
"nXnXnXnXnXnXnXnXnXnXnXnX  @.+X+X-.*.-.*.-.` O +.$X*.| 6.kXcXcXkXjXkXcXcX-X#.$X%X%X%X$X%X%X$X@XyXcXlXlXkX:X#.@.u -.+X@X_ nXnXnXnX",
"nXnXnXnXnXnXnXnXnXnXnXnX  { +X+X*.-.*.*.*.o.o @.+X+X+.| ;XxXcXcXcXcXcX6X+.3.$X%X$X$X$X%X$X$X@X:XcXkXkXxX6.3.3.q -.+X+X_ nXnXnXnX",
"nXnXnXnXnXnXnXnXnXnXnXnXnXy +X+X-.*.*.-.*.-.q #.+X%X*.| o.5.pXxXxXsX;X| #.@X$X$X$X$X$X$X$X$X$X*.yXcXcX7X| #X+X& 3.+X+X& nXnXnXnX",
"nXnXnXnXnXnXnXnXnXnXnXnXnXO +.+X+X*.*.*.-.*.u *.-.+X%X#.+.| | $.$.| | $.@X@X$X@X@X$X$X$X@X$X&X+X$.-X5.+.@.$X+X% OX+X+.  nXnXnXnX",
"nXnXnXnXnXnXnXnXnXnXnXnXnXnX& *.+X+X-.*.*.*.[ *.} #.+X%X-.$.| $.+.+.*.$X@X@X@X@X@X@X@X@X@X@X@X@XOX@.+.#.@X@X+X% +X*.% nXnXnXnXnX",
"nXnXnXnXnXnXnXnXnXnXnXnXnXnXnXX ` *.XX-.| @.*.*.*.*.-.+X@X%X@X+X@X$X@X+X@X@X+X4.*.4.*.OX@X@X+X+X+X@X@X@X@.OX{ e | % nXnXnXnXnXnX",
"nXnXnXnXnXnXnXnXnXnXnXnXnXnXnXnX  X o X   & @.*.*.-.#.@.*.#.+X+X+X+X+XOX#.>.,.,.2.2.2.6.+.#.+X+X+X+X+X#X+.{ % X   nXnXnXnXnXnXnX",
"nXnXnXnXnXnXnXnXnXnXnXnXnXnXnXnXnXnXnXnXnX6 + y @.*.#.@.[ ' *.OX+X*.6.K.z.P.wXhXdX0X!.1.B.2.$.#.+XOXXX| y   nXnXnXnXnXnXnXnXnXnX",
"nXnXnXnXnXnXnXnXnXnXnXnXnXnXnXnXnXnXnXnX< M M v @ & g { $.@.*.*.@.K.L.w.fXgXzXcXzXcXzXgXiXq.1.$.+.| y X nXnXnXnXnXnXnXnXnXnXnXnX",
"nXnXnXnXnXnXnXnXnXnXnXnXnXnXnXnXnXnXnX# c c m t.d.s.m < # = e E 1.V.U.w.hXgXzXcXzXzXgXgXvXrXU d X   nXnXnXnXnXnXnXnXnXnXnXnXnXnX",
"nXnXnXnXnXnXnXnXnXnXnXnXnXnXnXnXnXnXnX# c p.p.Y a.f.h.j.h.d.s.M v 6 @ . I !.gXcXfXA.H.P F =   nXnXnXnXnXnXnXnXnXnXnXnXnXnXnXnXnX",
"nXnXnXnXnXnXnXnXnXnXnXnXnXnXnXnXnXnX# m a.s.h.N.v d.l.j.j.n.v.v.N.p.N., V.V.z.A.2.z.U.U.U nXnXnXnXnXnXnXnXnXnXnXnXnXnXnXnXnXnXnX",
"nXnXnXnXnXnXnXnXnXnXnXnXnXnXnXnXnXnX< m p.d.h.n.i.M l.j.k.c.v.b.N.p.n.i.z.T.T.T.U.U.T.T.U nXnXnXnXnXnXnXnXnXnXnXnXnXnXnXnXnXnXnX",
"nXnXnXnXnXnXnXnXnXnXnXnXnXnXnXnXnXnX< m s.d.h.n.N.Y h.j.k.c.v.b.N.p.k.N.J W.R.R.R.R.R.W.Z nXnXnXnXnXnXnXnXnXnXnXnXnXnXnXnXnXnXnX",
"nXnXnXnXnXnXnXnXnXnXnXnXnXnXnXnXnX# < m s.v m p.M v h.j.c.c.v.b.M.M s.i.6 L.W.R.R.W.W.L.nXnXnXnXnXnXnXnXnXnXnXnXnXnXnXnXnXnXnXnX",
"nXnXnXnXnXnXnXnXnXnXnXnXnXnXnXnXnX6 , > 6 [ {  ., c p.j.c.n.v.b.i.w _ 6   1 F.E.Q.E.B.nXnXnXnXnXnXnXnXnXnXnXnXnXnXnXnXnXnXnXnXnX",
"nXnXnXnXnXnXnXnXnXnXnXnXnXnXnXnXnX< # f [ OX*X<XB d.f.j.c.v.v.m.Y =.&X0 nXnXnXnXnXnXnXnXnXnXnXnXnXnXnXnXnXnXnXnXnXnXnXnXnXnXnXnX",
"nXnXnXnXnXnXnXnXnXnXnXnXnXnXnXnXnXr c d *.@X%X#Xf s.d.p.k.f.h.N.z &.@.i nXnXnXnXnXu w nXnXnXnXnXnXnXnXnXnXnXnXnXnXnXnXnXnXnXnXnX",
"nXnXnXnXnXnXnXnXnXnXnXnXnXnXnXnXnX{ < 3 @.(.@X@X#.l 4 l h.M N N e =.XXXX{ e nXnX) @.q nXnXnXp i nXnXnXnXnXnXnXnXnXnXnXnXnXnXnXnX",
"nXnXnXnXnXnXnXnXnXnXnXnXnXnXnXnXw #.g [ { -.@X$X$X*X*.E m Z { @.} =.&.oXoXoX{ ( =.( & q q o.=.=.o.& nXnXnXnXnXnXnXnXnXnXnXnXnXnX",
"nXnXnXnXnXnXnXnXnXnXnXnXnXnXnXnXu *.*.OX+.-.+X$X%X>X<X*X6.g +.-.) { %.XXoXoXoX&.=.@.=.+X+X&._ p o.[ nXnXnXnXnXnXnXnXnXnXnXnXnXnX",
"nXnXnXnXnXnXnXnXnXnXnXnXnXnXnXnX` *.*.+XOX+.#X+X$X*X*X*X@X*X$.' +.{ ` ( =.XXXX=.XXXX=.&XoX{ .   % & nXnXnXnXnXnXnXnXnXnXnXnXnXnX",
"nXnXnXnXnXnXnXnXnXnXnXnXnXnXnXnXp ' { &.*.` | #.3.+X$X*X%X%X%X>X>X+X+X( o.&.=.&.=.XX=.XXXX=.=.=.i nXnXnXnXnXnXnXnXnXnXnXnXnXnXnX",
"nXnXnXnXnXnXnXnXnXnXnXnXnXnXnX  (.../ / ../ Q Q ] $.OX+X$X+X%X>X,X+Xw X p } O.&.&.&.=.=.=.=.+.{ &.q nXnXnXnXnXnXnXnXnXnXnXnXnXnX",
"nXnXnXnXnXnXnXnXnXnXnXnXnXnXnX  ~ ~ ~._.(.~.).{.{.^ E +.-.+X%X*X>X*X*.nXnXO i o.&.&.&.%.&.( O X | ( nXnXnXnXnXnXnXnXnXnXnXnXnXnX",
"nXnXnXnXnXnXnXnXnXnXnXnXnXnXnXnX8 ! ^.}. X`.^ [.'.].]./ *.%X$X*X>X,X,X_ o nXnXe } o.+.| o.&.( nXw ( nXnXnXnXnXnXnXnXnXnXnXnXnXnX",
"nXnXnXnXnXnXnXnXnXnXnXnXnXnXnXnX$ ! ).]. X X(.~._.).[.~.{ (.OX$X*X*X*X$X%X{ nXnX  o q % q _ o.o nXnXnXnXnXnXnXnXnXnXnXnXnXnXnXnX",
"nXnXnXnXnXnXnXnXnXnXnXnXnXnXnXnXT ! ^.].}.|. X8 T T T 8 & *.-.@X%X%X3.` { +X_ nXnXnXnXnXnXq o.X nXnXnXnXnXnXnXnXnXnXnXnXnXnXnXnX",
"nXnXnXnXnXnXnXnXnXnXnXnXnXnXnXnX7 ! ^.[.].}.|.`.  nXO R T _ *.OX$X$X*.%   *.[ nXnXnXnXnXnX& ` nXnXnXnXnXnXnXnXnXnXnXnXnXnXnXnXnX",
"nXnXnXnXnXnXnXnXnXnXnXnXnXnXnXnX$ ~ ~.[.].}.|.|.W nXnXT ~ ~ u -.#.{ +X*.  +.' nXnXnXnXnXnXnXX nXnXnXnXnXnXnXnXnXnXnXnXnXnXnXnXnX",
"nXnXnXnXnXnXnXnXnXnXnXnXnXnXnXnXnXR ! ^.[.].}.|..X* nX7 ! /.^ @.o.W _ OX& & q nXnXnXnXnXnXnXnXnXnXnXnXnXnXnXnXnXnXnXnXnXnXnXnXnX",
"nXnXnXnXnXnXnXnXnXnXnXnXnXnXnXnXnX7 ! ~.).'.].{.W $ nX$ ~ ! W #.' 8 ` *.nXnXnXnXnXnXnXnXnXnXnXnXnXnXnXnXnXnXnXnXnXnXnXnXnXnXnXnX",
"nXnXnXnXnXnXnXnXnXnXnXnXnXnXnXnXnXnXR R E ..E y & nXnXnXR 8 *.@.0 0 +.` nXnXnXnXnXnXnXnXnXnXnXnXnXnXnXnXnXnXnXnXnXnXnXnXnXnXnXnX",
"nXnXnXnXnXnXnXnXnXnXnXnXnXnXnXnXnXnX9 { =.@X@X+X{ nXnXnX7 $ q 0 O.) w O nXnXnXnXnXnXnXnXnXnXnXnXnXnXnXnXnXnXnXnXnXnXnXnXnXnXnXnX",
"nXnXnXnXnXnXnXnXnXnXnXnXnXnXnXnX% ' *.+X%X*X>X>Xw nXnXnX  nX0 ) O.O.O.nXnXnXnXnXnXnXnXnXnXnXnXnXnXnXnXnXnXnXnXnXnXnXnXnXnXnXnXnX",
"nXnXnXnXnXnXnXnXnXnXnXnXnXo o _ #.XX$X%X%X>X>X*XnXnXnXnXnXnXt ) %.%.%.0 nXnXnXnXnXnXnXnXnXnXnXnXnXnXnXnXnXnXnXnXnXnXnXnXnXnXnXnX",
"nXnXnXnXnXnXnXnXnX= -   7.kX2X{ @X%X%X>X>X,X>X .nXnXnXnXnXnXt X.%.%.%.nXnXnXnXnXnXnXnXnXnXnXnXnXnXnXnXnXnXnXnXnXnXnXnXnXnXnXnXnX",
"nXnXnXnXnXnXnX- 5XiXtXu.N wXxX;.+X@X*X*X$X[ _ nXnXnXnXnXnXnXt ) O.%.) nXnXnXnXnXnXnXnXnXnXnXnXnXnXnXnXnXnXnXnXnXnXnXnXnXnXnXnXnX",
"nXnXnXnXnX= , r.Y.n.y.y.u.Y wXbX] @X@X' nXnXnXnXnXnXnXnXnXnXt X.O.%.( nXnXnXnXnXnXnXnXnXnXnXnXnXnXnXnXnXnXnXnXnXnXnXnXnXnXnXnXnX",
"nXnXnXnX;.8XB e.y.y.y.y.y.u.F xX8Xg r nXnXnXnXnXnXnXnXnXnXnXt X.O.%.( nXnXnXnXnXnXnXnXnXnXnXnXnXnXnXnXnXnXnXnXnXnXnXnXnXnXnXnXnX",
"nXnXnXnXh uX9Xc n b v v v x b >.hXa nXnXnXnXnXnXnXnXnXnXnXnX( X.) O.( nXnXnXnXnXnXnXnXnXnXnXnXnXnXnXnXnXnXnXnXnXnXnXnXnXnXnXnXnX",
"nXnXnXnXnX0.bXP.h 4X0XqXuX9X9.2 :.nXnXnXnXnXnXnXnXnXnXnXnXX t ( ( u g nXnXnXnXnXnXnXnXnXnXnXnXnXnXnXnXnXnXnXnXnXnXnXnXnXnXnXnXnX",
"nXnXnXnXnX= 8XjX;.0XiXsXlXlXkXuXa nXnXnXnXnXnXnXnXnXnXnXnXX ;.9.1X8XwX0.nXnXnXnXnXnXnXnXnXnXnXnXnXnXnXnXnXnXnXnXnXnXnXnXnXnXnXnX",
"nXnXnXnXnXnXj aXuX7.yXsXjXkXcXcXuX; nXnXnXnXnXnXnXnXnXnXnX:.wXwX3X:Xw.k = h j h = nXnXnXnXnXnXnXnXnXnXnXnXnXnXnXnXnXnXnXnXnXnXnX",
"nXnXnXnXnXnXnX8.jX1X9.sXjXxXcXcXcX7.nXnXnXnXnXnXnXnXnXnXnXa >.V x b < G 3XiXaXuX3X:.nXnXnXnXnXnXnXnXnXnXnXnXnXnXnXnXnXnXnXnXnXnX",
"nXnXnXnXnXnXnXnX3XhX8.0XjXkXcXcXcX8XnXnXnXnXnXnXnXnXnXnXnX, n r.e.x 7.wXaXaXaXaXaXiX9.. nXnXnXnXnXnXnXnXnXnXnXnXnXnXnXnXnXnXnXnX",
"nXnXnXnXnXnXnXnXa iXiX;.sXkXcXcXcXuX  nXnXnXnXnXnXnXnXnX  K.r.e.n G 9XqXiXaXaXaXaXiXwX;.nXnXnXnXnXnXnXnXnXnXnXnXnXnXnXnXnXnXnXnX",
"nXnXnXnXnXnXnXnXnX>.jX9X9.jXxXcXcXyX. nXnXnXnXnXnXnXnXnXf rXr.e.< !.eXwXwXuXaXaXiXuXqX8X= nXnXnXnXnXnXnXnXnXnXnXnXnXnXnXnXnXnXnX",
"nXnXnXnXnXnXnXnXnXnX1XjX7.0XkXvXvX3XnXnXnXnXnXnXnXnXnXnX;.I.e.e.f 3X0XqXwXqXwXwXwXwXwX9Xa nXnXnXnXnXnXnXnXnXnXnXnXnXnXnXnXnXnXnX",
"nXnXnXnXnXnXnXnXnXnX= wXlX>.uXlXjX8.nXnXnXnXnXnXnXnXnXnXB M n b w.3X3X3X3X4X2X9.7.>.:.j h nXnXnXnXnXnXnXnXnXnXnXnXnXnXnXnXnXnXnX",
"nXnXnXnXnXnXnXnXnXnXnXj xXiX8.jXuX; nXnXnXnXnXnXnXnXnXnX# b x , ,.Q h h :.>.9.4X8XuXaXqX3X. nXnXnXnXnXnXnXnXnXnXnXnXnXnXnXnXnXnX",
"nXnXnXnXnXnXnXnXnXnXnXnX1XxX2X2Xs nXnXnXnXnXnXnXnXnXnXnX- l ,.9.4X0XqXwXwXqXqX8X3X3X2X8.k O nXnXnXnXnXnXnXnXnXnXnXnXnXnXnXnXnXnX",
"nXnXnXnXnXnXnXnXnXnXnXnXo 0XuX; nXnXnXnXnXnXnXnXnXnXnXnX>.3XqXqX9X3X2X8.:.h ; = X nXnXnXnXnXnXnXnXnXnXnXnXnXnXnXnXnXnXnXnXnXnXnX",
"nXnXnXnXnXnXnXnXnXnXnXnXnXa j nXnXnXnXnXnXnXnXnXnXnXnXnX; s ; =   nXnXnXnXnXnXnXnXnXnXnXnXnXnXnXnXnXnXnXnXnXnXnXnXnXnXnXnXnXnXnX",
"nXnXnXnXnXnXnXnXnXnXnXnXnXnXnXnXnXnXnXnXnXnXnXnXnXnXnXnXnXnXnXnXnXnXnXnXnXnXnXnXnXnXnXnXnXnXnXnXnXnXnXnXnXnXnXnXnXnXnXnXnXnXnXnX"
};
