/* XPM */
static char *result[] = {
/* columns rows colors chars-per-pixel */
"64 96 231 2 ",
"   c #020202",
".  c #0B0505",
"X  c #060B0B",
"o  c #0C0B0B",
"O  c #03060B",
"+  c #130B0B",
"@  c #1C0D0D",
"#  c #170506",
"$  c #0B1414",
"%  c #0E1C1C",
"&  c #061617",
"*  c #1D1313",
"=  c #151818",
"-  c #28090B",
";  c #380809",
":  c #231313",
">  c #2C1516",
",  c #281919",
"<  c #331A1A",
"1  c #3B1E1E",
"2  c #321417",
"3  c #280D10",
"4  c #000D27",
"5  c #0E1D28",
"6  c #081A33",
"7  c #0D2828",
"8  c #122424",
"9  c #152B2B",
"0  c #182829",
"q  c #1A3434",
"w  c #1D3A3A",
"e  c #153738",
"r  c #0F2D39",
"t  c #272626",
"y  c #3A2324",
"u  c #223B3B",
"i  c #373737",
"p  c #470906",
"a  c #4C1808",
"s  c #4A0D12",
"d  c #581318",
"f  c #570D09",
"g  c #660200",
"h  c #720000",
"j  c #681419",
"k  c #75161D",
"l  c #631B09",
"z  c #432222",
"x  c #4A2626",
"c  c #4F2828",
"v  c #532A2A",
"b  c #5B2E2E",
"n  c #5F3030",
"m  c #493838",
"M  c #653333",
"N  c #6B3636",
"B  c #6B3A3A",
"V  c #733A3A",
"C  c #7B3E3E",
"Z  c #76363D",
"A  c #6B2D34",
"S  c #631F12",
"D  c #011949",
"F  c #001D57",
"G  c #1E325A",
"H  c #152C4E",
"J  c #042667",
"K  c #00297B",
"L  c #082C72",
"P  c #143771",
"I  c #213762",
"U  c #7C3841",
"Y  c #1E4343",
"T  c #194C4C",
"R  c #185757",
"E  c #0E4141",
"W  c #234444",
"Q  c #254B4B",
"!  c #294D4D",
"~  c #2B5454",
"^  c #2E5B5B",
"/  c #265455",
"(  c #315D5D",
")  c #335656",
"_  c #2A4249",
"`  c #1D6363",
"'  c #2E6262",
"]  c #226B6B",
"[  c #2E6B6B",
"{  c #206464",
"}  c #336262",
"|  c #356B6B",
" . c #396D6D",
".. c #3A6666",
"X. c #287474",
"o. c #327575",
"O. c #3C7575",
"+. c #367B7B",
"@. c #3E7A7A",
"#. c #3B5F60",
"$. c #4D4D4D",
"%. c #454545",
"&. c #535354",
"*. c #5A5B5B",
"=. c #515355",
"-. c #7F4040",
";. c #7B4E4F",
":. c #6D5053",
">. c #436C6D",
",. c #466667",
"<. c #417D7D",
"1. c #477272",
"2. c #567A7A",
"3. c #696868",
"4. c #7B7B7B",
"5. c #777676",
"6. c #786865",
"7. c #890000",
"8. c #980000",
"9. c #8B1302",
"0. c #BB0200",
"q. c #B70000",
"w. c #8B3209",
"e. c #AA3412",
"r. c #961B26",
"t. c #AA1F2B",
"y. c #A31D29",
"u. c #B01F2D",
"i. c #99343B",
"p. c #B5202E",
"a. c #BA232E",
"s. c #BD2230",
"d. c #A52B24",
"f. c #D33E1A",
"g. c #C32331",
"h. c #CB2434",
"j. c #D22F2E",
"k. c #E23926",
"l. c #C00800",
"z. c #EB4B16",
"x. c #DC5107",
"c. c #8E3A44",
"v. c #BD3947",
"b. c #CF3B4A",
"n. c #834242",
"m. c #8A4646",
"M. c #8E4949",
"N. c #944C4C",
"B. c #994E4E",
"V. c #9D4047",
"C. c #9C5050",
"Z. c #905154",
"A. c #88545B",
"S. c #A94F55",
"D. c #877371",
"F. c #DD4656",
"G. c #CD4C5A",
"H. c #E14D5D",
"J. c #D35E6B",
"K. c #E25766",
"L. c #D56E75",
"P. c #E66876",
"I. c #97887E",
"U. c #022E85",
"Y. c #0C378C",
"T. c #083BA1",
"R. c #2C4D91",
"E. c #0D44B4",
"W. c #1448B0",
"Q. c #3059A9",
"!. c #3965BD",
"~. c #1853CA",
"^. c #1A59D7",
"/. c #154FC6",
"(. c #3B6CCE",
"). c #2163E7",
"_. c #276BF5",
"`. c #3074FE",
"'. c #205FDC",
"]. c #3B8484",
"[. c #3A8585",
"{. c #448484",
"}. c #458A8A",
"|. c #498D8D",
" X c #4C9494",
".X c #4F9999",
"XX c #439393",
"oX c #519C9C",
"OX c #589191",
"+X c #5A8686",
"@X c #7A9696",
"#X c #6E8C8C",
"$X c #55A3A3",
"%X c #58A7A7",
"&X c #5AABAB",
"*X c #848484",
"=X c #8C8C8C",
"-X c #939494",
";X c #9E9E9E",
":X c #9B9292",
">X c #90918E",
",X c #ABA398",
"<X c #92A9A9",
"1X c #A2A2A2",
"2X c #ACACAC",
"3X c #A6B8B8",
"4X c #B4B4B4",
"5X c #BABABA",
"6X c #B0BFBF",
"7X c #BCB5AF",
"8X c #A6978E",
"9X c #C4B9B8",
"0X c #DAD3BF",
"qX c #BBC4C4",
"wX c #C4C4C4",
"eX c #CBCBCB",
"rX c #C0CCCC",
"tX c #D2D2D2",
"yX c #D9DBDB",
"uX c #CED0CB",
"iX c #FEF4DE",
"pX c #F1E7D6",
"aX c #DCE2E2",
"sX c #E5E5E5",
"dX c #EAEBEB",
"fX c #E7ECEC",
"gX c #FFF8E6",
"hX c #F4F4F4",
"jX c #FEFEFE",
"kX c #FEFCF4",
"lX c None",
/* pixels */
"lXlXlXlXlXlXlXlXlXlXlXlXlXlXlXlXlXlXlXlXlXlXlXlXlXlXlXlXlXlXlXlXlXlXlXlXlXlXlXlXlXlXlXlXlXlXlXlXlXlXlXlXlXlXlXlXlXlXlXlXlXlXlXlX",
"lXlXlXlXlXlXlXlXlXlXlXlXlXlXlXlXlXlXlXlXlXlXlXlXlXlXlXlXlXlXlXlXlXlXlXlXlXlXlXlXlXlXlXlXlXlXlXlXlXlXlXlXlXlXlXlXlXlXlXlXlXlXlXlX",
"lXlXlXlXlXlXlXlXlXlXlXlXlXlXlXlXlXlXlXlXlXlXlXlXlXlXlXlXlXlXlXlXlXlXlXlXlXlXlXlXlXlXlXlXlXlXlXlXlXlXlXlXlXlXlXlXlXlXlXlXlXlXlXlX",
"lXlXlXlXlXlXlXlXlXlXlXlXlXlXlXlXlXlXlXlXlXlXlXlXlXlXlXlXlXlXlXlXlXlXlXlXlXlXlXlXlXlXlXlXlXlXlXlXlXlXlXlXlXlXlXlXlXlXlXlXlXlXlXlX",
"lXlXlXlXlXlXlXlXlXlXlXlXlXlXlXlXlXlXlXlXlXlXlXlXlXlXlXlXlXlXlXlXlXlXlXlXlXlXlXlXlXlXlXlXlXlXlXlXlXlXlXlXlXlXlXlXlXlXlXlXlXlXlXlX",
"lXlXlXlXlXlXlXlXlXlXlXlXlXlXlXlXlXlXlXlXlXlXlXlXlXlXlXlXlXlXlXlXlXlXlXlXlXlXlXlXlXlXlXlXlXlXlXlXlXlXlXlXlXlXlXlXlXlXlXlXlXlXlXlX",
"lXlXlXlXlXlXlXlXlXlXlXlXlXlXlXlXlXlXlXlXlXlXlXlXlXlXlX  lXlXlXlXlXlXlXlXlXlXlXlXlXlXlXlXlXlXlXlXlXlXlXlXlXlXlXlXlXlXlXlXlXlXlXlX",
"lXlXlXlXlXlXlXlXlXlXlXlXlXlXlXlXlXlXlXlXlXlXlXlXlXlXlX  lXlXlXlXlXlXlXlXlXlXlXlXlXlXlXlXlXlXlXlXlXlXlXlXlXlXlXlXlXlXlXlXlXlXlXlX",
"lXlXlXlXlXlXlXlXlXlXlXlXlXlXlXlXlXlXlXlXlXlXlXlXlXlX    lXlXlXlXlXlXlXlXlXlXlXlXlXlXlXlXlXlXlXlXlXlXlXlXlXlXlXlXlXlXlXlXlXlXlXlX",
"lXlXlXlXlXlXlXlXlXlXlXlXlXlXlXlXlXlXlXlXlXlXlXlXlXlX@   lXlXlXlXlXlXlXlXlXlXlXlXlXlXlXlXlXlXlXlXlXlXlXlXlXlXlXlXlXlXlXlXlXlXlXlX",
"lXlXlXlXlXlXlXlXlXlXlXlXlXlXlXlXlXlXlXlXlXlXlXlXlX: z   lXlXlXlXlX  + @ , < < < < > : + .   lXlXlXlXlXlXlXlXlXlXlXlXlXlXlXlXlXlX",
"lXlXlXlXlXlXlXlXlXlXlXlXlXlXlXlXlXlXlXlXlXlXlXlX  v 1   lX+ > x M C m.M.N.N.N.N.N.M.M.m.-.B v < * . lXlXlXlXlXlXlXlXlXlXlXlXlXlX",
"lXlXlXlXlXlXlXlXlXlXlXlXlXlXlXlXlXlXlXlXlXlXlXlX2 V < > b n.N.N.m.m.n.n.n.n.-.n.n.-.n.n.m.m.M.Z.N.V z @ lXlXlXlXlXlXlXlXlXlXlXlX",
"lXlXlXlXlXlXlXlXlXlXlXlXlXlXlXlXlX    : < < < < C N V N.m.-.-.C C C C C c.n.n.n.n.n.-.-.-.C -.-.-.n.M.m.b * lXlXlXlXlXlXlXlXlXlX",
"lXlXlXlXlXlXlXlXlXlXlXlXlXlXlXlXlXlX  : v V n.N.V V C C V C C C C n.C n.-.n.n.n.n.n.n.n.-.i.V V C C B N -.< lXlXlXlXlXlXlXlXlXlX",
"lXlXlXlXlXlXlXlXlXlXlXlXlXlXlXlXlXlXlXlX  * v M N N V V V V C C C C n.n.-.n.m.m.n.m.n.n.n.-.-.-.C C -.n.M > + . lXlXlXlXlXlXlXlX",
"lXlXlXlXlXlXlXlXlXlXlXlXlXlXlXlXlXlXlX. 1 M V B N V V V V C V C C -.-.n.n.n.n.n.n.n.n.n.n.-.C C V C V C C C N c <     lXlXlXlXlX",
"lXlXlXlXlXlXlXlXlXlXlXlXlXlXlXlXlX  @ V m.-.B.N.m.C C C C V C C C C C -.-.n.n.n.n.-.n.-.-.C C C C C C C V n v z + lXlXlXlXlXlXlX",
"lXlXlXlXlXlXlXlXlXlXlXlXlXlXlXlXlXlX  . > N.B.C.C.N V B.N.B.N.N.M.m.m.m.m.m.m.m.m.m.m.M.M.N.N.B.B.B.C.C.C.B.m.v @   lXlXlXlXlXlX",
"lXlXlXlXlXlXlXlXlXlXlXlXlXlXlXlXlXlXlX+ b C M.B.C.B v B N.C.B.V B.C.C.C.C.N.n.C.C.C.C.C.C.B.C.C.C.C.C.C.B.B.N.n.m.N 1 +   lXlXlX",
"lXlXlXlXlXlXlXlXlXlXlXlXlXlXlXlXlXlX. c M N M N V B v v n N.N.b M N.C.C.B.C b N.C.C.C.C.C.C.C.B.C.C.B.m.-.n.C M v z > +     lXlX",
"lXlXlXlXlXlXlXlXlXlXlXlXlXlXlXlXlXlX: M M M M M M v v c v b C v v N N.B.N.b v V B.M.-.B.N.N.m.V C V N V N N n.M.M.M 1 @   lXlXlX",
"lXlXlXlXlXlXlXlXlXlXlXlXlXlXlXlXlX  z M M M M M M v v 1 z c v v v v b V M v v v V M v M V B B v b N N M M N M M M M b :   lXlXlX",
"lXlXlXlXlXlXlXlXlXlXlXlXlXlXlXlXlX+ n N M M n M M v x x . 1 v v v v v v v v v v b n v v b N M v v n M b b M N V b x +   lXlXlXlX",
"lXlXlXlXlXlXlXlXlXlXlXlXlXlXlXlXlX: M M M M b b n b 2 @ + $ < v z 1 v c v x x v v v v v v b n c v v b v v M N n.m.C x @   lXlXlX",
"lXlXlXlXlXlXlXlXlXlXlXlXlXlXlXlXlX< M n M M b v v v z $ X ! u , x . : c v < o 1 v v v 1 v v v c : c v v v v M M b b M b 1     lX",
"lXlXlXlXlXlXlXlXlXlXlXlXlXlXlXlXlX1 M n M M b v v v c = {.^ |.! * 0  .= < : } u : c x . * x v c . : c x x v M M V x : . lXlXlXlX",
"lXlXlXlXlXlXlXlXlXlXlXlXlXlXlXlXlXz M n M n b v 1 c v = |.oXoXoX^ $ |..XW o |.$X^ * < W  .= < x q ! > < + x v M V y   lXlXlXlXlX",
"lXlXlXlXlXlXlXlXlXlXlXlXlXlXlXlXlXz M n b b v v . + > : @.oXoX$XoX .<.&X$X|.$X$X%X<.% ( $X.X~ + ~ .Xw o ! : c v b M . lXlXlXlXlX",
"lXlXlXlXlXlXlXlXlXlXlXlXlXlXlXlXlXz M M v v v v * } Q % } oXoXoX$X$X%X&X&X&X%X%X%X%XoX X$X$XoX{.{.oX.Xw  X! > v c b < lXlXlXlXlX",
"lXlXlXlXlXlXlXlXlXlXlXlXlXlXlXlXlXz M M v v v v * } @.( ( oXoX$X$X$X&X&X&X&X&X&X&X%X%X%X$X$X$X$X$XoXoX.X.X{., v : : 1   lXlXlXlX",
"lXlXlXlXlXlXlXlXlXlXlXlXlXlXlXlXlX1 n n v v v c : ~ ^ ! ! O. XoX$X&X&X&X&X&X&X&X&X&X%X%X%X$X$X$XoXoX|.|.oX Xt v . lX    lXlXlXlX",
"lXlXlXlXlXlXlXlXlXlXlXlXlXlXlXlXlX< n v v v x < < ~ } Q ! O.<.{.$X&X&X&X&X&X&X&X&X&X%X%X%X$X%X%X$X$X .| .X.Xt x   lXlXlXlXlXlXlX",
"lXlXlXlXlXlXlXlXlXlXlXlXlXlXlXlXlX: v v v v y . 1 Q |.}  ..XoXoX$X$X%X&X&X&X&X&X&X&X&X%X%X$X&X&X%XoX<.O.(  Xi 1 lXlXlXlXlXlXlXlX",
"lXlXlXlXlXlXlXlXlXlXlXlXlXlXlXlXlX+ z x v v 1 8 + u .X.X{.O.|  .O.{..X$X&X&X&X&X%X%X$X$X%X$X&X&X&X%XoX{.! <.i : lXlXlXlXlXlXlXlX",
"lXlXlXlXlXlXlXlXlXlXlXlXlXlXlXlXlX  . + 1 c < Q W 9 .XO.} 2.<X6X3X#X . X&X&X&X&X%X$X$X$X$X$X&X&X&X$XoX}.! |.i . lXlXlXlXlXlXlXlX",
"lXlXlXlXlXlXlXlXlXlXlXlXlXlXlXlXlXO O   o v > ~ {.w O.( @XfXjXjXjXhXqX>.oX$X$X%X$X$XoX.X$X$X%X$XoXoX.X.X}.%X_ . lXlXlXlXlXlXlXlX",
"lXlXlXlXlXlXlXlXlXlXlXlXlXlXlX$ ~ 1.@.| $ x > ...X .) 2.hXjXjXjXhXhXjX6XO.$X$X$X$XoX..( oXoX$X$X}.1.O.}..X%Xu 9 X lXlXlXlXlXlXlX",
"lXlXlXlXlXlXlXlXlXlXlXlXlXlXq .X X}.}.}.9 1 : O..X| } qXjXjXjXjXjXsXdXhX2.|.$XoXoX$X}.<.oXoXoX|.3XsX3X} {.%X9 <..X8 lXlXlXlXlXlX",
"lXlXlXlXlXlXlXlXlXlXlXlXlX% }.|.{.{.<.{.W : : @..X} } jXjXjXjXjXhXsXsXhX@X<.oXoX$XoXoXoX{. X.X<XjXjXhX<X..%X9 <.|.{.$ lXlXlXlXlX",
"lXlXlXlXlXlXlXlXlXlXlXlX  | |.}.@.O.O.O.^ + = {.|.} ,.jXjXjXjXhXsXsXsXhX-X+.oXoXoXoXoXoX.X.XOXfXjXjXfXyX...X9 @.}. X^ lXlXlXlXlX",
"lXlXlXlXlXlXlXlXlXlXlXlX  |.}.{.@.O.@.O.o.. $ }. X( ( dXjXhXsXsXsXsXdXhX#XO..X.X.X.X.X.X.X.XOXjXjXhXsXsX>.|.9  .{.}.@.  lXlXlXlX",
"lXlXlXlXlXlXlXlXlXlXlXlXX  X}.@.O.O.@.O.O.% = }..X} } <XjXjXhXsXsXhXjXfX>.@..X.X.X.X.X.X.X XOXhXhXsXfXaX..|.u | {.}.|.  lXlXlXlX",
"lXlXlXlXlXlXlXlXlXlXlXlX  |.}.{.O.O.O.O.O.q % {..X .} ..aXjXjXkXhXjXjX@X' |. X.XXX.X X.X X X{.tXkXdXhXuX} |.W ( {.{.{.  lXlXlXlX",
"lXlXlXlXlXlXlXlXlXlXlXlX  O.}.{.O.O.O.O.O.Q 7 <.|.}.} } >.rXhXjXjXaX@X} O. X X X X X X XXX X}.+XhXjXdX2.}  X( W {.}.|   lXlXlXlX",
"lXlXlXlXlXlXlXlXlXlXlXlXlXY {.}.@.@.O.O.@.( w O.{..X<.} ( } 1.2.2...( | |. X|. X X X X|. X|.|.@.1.#X1.} <.}. .q }.{.q lXlXlXlXlX",
"lXlXlXlXlXlXlXlXlXlXlXlXlXO ^ }.}.@.@.O.O.O.! O.) {..X}...} ( } ^ } O. X|.|.|.|.|.|.|. X|.|.|.|.O.} ..<.|.}...w }.Q   lXlXlXlXlX",
"lXlXlXlXlXlXlXlXlXlXlXlXlXlXX / {.}.<.@.O.O.| O.( <.{.|..X{.<.O.<.|. X}.|. X|.}.{.{.}.|.|.}.|.|.}. X X}.o.|.w ( Q O lXlXlXlXlXlX",
"lXlXlXlXlXlXlXlXlXlXlXlXlXlXlX  $ 9 q 8 O ^ O.O.O.O.O.R.O.{.|.|.}.}.|.{.>.,.&.&.:.*.*.#...<.}.}.}.}.{.@.} w . X   lXlXlXlXlXlXlX",
"lXlXlXlXlXlXlXlXlXlXlXlXlXlXlXlXlXlXlXlX# + w  .O.O.} O.! ( [.}.}.<.,.;.V A.8X7X:X6.;.U ;.#...<.}.{.<.~ 8 O lXlXlXlXlXlXlXlXlXlX",
"lXlXlXlXlXlXlXlXlXlXlXlXlXlXlXlXlXlXlX# j k s # 8 T .. .~ | O.O...A.i.I.uXiXgXjXgXkXiXpX1X-.:.( | ~ 8   lXlXlXlXlXlXlXlXlXlXlXlX",
"lXlXlXlXlXlXlXlXlXlXlXlXlXlXlXlXlXlXlX- - ; j r.k l ; $ 8 w ! ) S.b.i.pXkXiXkXjXiXkXiXiXjXD.Z 0 X   lXlXlXlXlXlXlXlXlXlXlXlXlXlX",
"lXlXlXlXlXlXlXlXlXlXlXlXlXlXlXlXlXlX. p k d.w.a d.t.p.t.r.k s - * > 3 : n uXkXkX,Xm.B :.i +   lXlXlXlXlXlXlXlXlXlXlXlXlXlXlXlXlX",
"lXlXlXlXlXlXlXlXlXlXlXlXlXlXlXlXlXlXs j r.t.a.e.k t.t.a.g.g.h.k.l d.l 3 b.V.Z.D.$.b.F.F.d lXlXlXlXlXlXlXlXlXlXlXlXlXlXlXlXlXlXlX",
"lXlXlXlXlXlXlXlXlXlXlXlXlXlXlXlXlX# j k r.t.p.k.a t.a.a.s.g.h.k.l p.f.# b.H.H.H.b.F.F.F.lXlXlXlXlXlXlXlXlXlXlXlXlXlXlXlXlXlXlXlX",
"lXlXlXlXlXlXlXlXlXlXlXlXlXlXlXlXlX# j k r.t.p.h.l r.a.a.g.h.h.k.d p.f.a S.H.H.H.H.H.K.G.lXlXlXlXlXlXlXlXlXlXlXlXlXlXlXlXlXlXlXlX",
"lXlXlXlXlXlXlXlXlXlXlXlXlXlXlXlXlX- j k d d d r.a k u.s.g.h.h.z.l y.a.w.z J.K.H.K.K.K.Z lXlXlXlXlXlXlXlXlXlXlXlXlXlXlXlXlXlXlXlX",
"lXlXlXlXlXlXlXlXlXlXlXlXlXlXlXlX# ; - * q } | t s d p.s.g.h.h.z.@ , d # lXA J.P.P.J.c.lXlXlXlXlXlXlXlXlXlXlXlXlXlXlXlXlXlXlXlXlX",
"lXlXlXlXlXlXlXlXlXlXlXlXlXlXlXlX- # - ^  . X$X>.r.t.p.s.g.h.j.x./ [.W lXlXlXlXM b : lXlXlXlXlXlXlXlXlXlXlXlXlXlXlXlXlXlXlXlXlXlX",
"lXlXlXlXlXlXlXlXlXlXlXlXlXlXlXlXu 2 d ! <.|.|.( k y.r.g.g.u.k.w.' [ Y lXlXlXlXlX9 q lXlXlXlXlXlXlXlXlXlXlXlXlXlXlXlXlXlXlXlXlXlX",
"lXlXlXlXlXlXlXlXlXlXlXlXlXlXlXlX| t 2 W O.}. X|.( y * r.s.2 w.o +.[.+./ 8 lXlXe +.w lXlXlXq W 9 lXlXlXlXlXlXlXlXlXlXlXlXlXlXlXlX",
"lXlXlXlXlXlXlXlXlXlXlXlXlXlXlXlXO.~ } !  .|. X|.$X.XO.i d W ! W o.+.+.[.].^ q +.' % 7 9 / o.o.o.Y lXlXlXlXlXlXlXlXlXlXlXlXlXlXlX",
"lXlXlXlXlXlXlXlXlXlXlXlXlXlXlX9 O.O.{.@.} }.|. XoX$X%X$XO.! / w ! Y T | XXXX[ +. .+.XXXX].Q % Y | % lXlXlXlXlXlXlXlXlXlXlXlXlXlX",
"lXlXlXlXlXlXlXlXlXlXlXlXlXlXlXq O. .{.}.( O.{.|..X.XoXoX XoX<.oX$X.X{.q ].[.+.].[.o.}.XX[.$ % O O lXlXlXlXlXlXlXlXlXlXlXlXlXlXlX",
"lXlXlXlXlXlXlXlXlXlXlXlXlXlXlX5 q W ^ ..( _ ..1.{.|. X X X XoX$XoX( q T o.+.o.+.].+.[.[.[.o.+.' $ lXlXlXlXlXlXlXlXlXlXlXlXlXlXlX",
"lXlXlXlXlXlXlXlXlXlXlXlXlXlXlXQ.!.Q.R.I G G H H Q } <.{.{. XoX$XoX|.8 q / [ [ X.o.+.+.o.+.^ Q ' ^ lXlXlXlXlXlXlXlXlXlXlXlXlXlXlX",
"lXlXlXlXlXlXlXlXlXlXlXlXlXlXlXD K K T.R.G P ~.'.~.Y.H ^ {.}..X$X$X$X<.  O 7 / [ o.o.o.[ o.$   9 [ % lXlXlXlXlXlXlXlXlXlXlXlXlXlX",
"lXlXlXlXlXlXlXlXlXlXlXlXlXlXlX4 K W.)._.`.R.P /.^.).)./ O.}. XoX$X$XoX}...8 % Q ^ ' ' ^ [ | 7 X w % lXlXlXlXlXlXlXlXlXlXlXlXlXlX",
"lXlXlXlXlXlXlXlXlXlXlXlXlXlXlXlXF W.^.)._.`.Q.J E./.~.P ' R.<.oX.X X}.| O.{.8 lXX & & o % / T lXlXlXlXlXlXlXlXlXlXlXlXlXlXlXlXlX",
"lXlXlXlXlXlXlXlXlXlXlXlXlXlXlXlXJ T./.^.)._._.(.D D D D 5  .{.|..X.Xu   9 {.w lXlXlXlXlXlXW Y lXlXlXlXlXlXlXlXlXlXlXlXlXlXlXlXlX",
"lXlXlXlXlXlXlXlXlXlXlXlXlXlXlXlXJ U.E./.^.)._.`.(.r D J Y.e  .{.{.{. XW O @.u lXlXlXlXlXlXw 9 lXlXlXlXlXlXlXlXlXlXlXlXlXlXlXlXlX",
"lXlXlXlXlXlXlXlXlXlXlXlXlXlXlXlX4 K U.E./.^.)._.W.O 4 K E.W.w @.u 9 } @.X q 8 lXlXlXlXlXlXlXlXlXlXlXlXlXlXlXlXlXlXlXlXlXlXlXlXlX",
"lXlXlXlXlXlXlXlXlXlXlXlXlXlXlXlXlXD K U.E.W.W.H H + 6 K T.~.L  .Q G Q O.lXlXlXlXlXlXlXlXlXlXlXlXlXlXlXlXlXlXlXlXlXlXlXlXlXlXlXlX",
"lXlXlXlXlXlXlXlXlXlXlXlXlXlXlXlXlXlXD K 6 / O.<.{.( O K U.L ^ <.5 & | ~ lXlXlXlXlXlXlXlXlXlXlXlXlXlXlXlXlXlXlXlXlXlXlXlXlXlXlXlX",
"lXlXlXlXlXlXlXlXlXlXlXlXlXlXlXlXlXlXO e  .}. X.X$X^   F F D ^ 9 e & Q $ lXlXlXlXlXlXlXlXlXlXlXlXlXlXlXlXlXlXlXlXlXlXlXlXlXlXlXlX",
"lXlXlXlXlXlXlXlXlXlXlXlXlXlXlXlXlX% ~ @. X.X$X$X$XW lX4 X & 7 { ` & lXlXlXlXlXlXlXlXlXlXlXlXlXlXlXlXlXlXlXlXlXlXlXlXlXlXlXlXlXlX",
"lXlXlXlXlXlXlXlXlXlXlXlXlXlXo o w  .{.}.oX.X%X%XoXlXlX    E ` X.X.T lXlXlXlXlXlXlXlXlXlXlXlXlXlXlXlXlXlXlXlXlXlXlXlXlXlXlXlXlXlX",
"lXlXlXlXlXlXlXlXlXlXlXo . = 5XyXu {..XoX$X$X$X|.w lXlXlX& T ] X.X.R lXlXlXlXlXlXlXlXlXlXlXlXlXlXlXlXlXlXlXlXlXlXlXlXlXlXlXlXlXlX",
"lXlXlXlXlXlXlXlXlX< >X5Xd.l 6.kXwX) {..X$XO.q lXlXlXlXlX7 R X.X.+.T lXlXlXlXlXlXlXlXlXlXlXlXlXlXlXlXlXlXlXlXlXlXlXlXlXlXlXlXlXlX",
"lXlXlXlXlXlXlX  ; S.L.j.0.l.9.*.hX-X) }.W lXlXlXlXlXlXlXe ` ` X.[ lXlXlXlXlXlXlXlXlXlXlXlXlXlXlXlXlXlXlXlXlXlXlXlXlXlXlXlXlXlXlX",
"lXlXlXlXlXlXi m h 8.0.l.q.q.0.9.5.hX3.% lXlXlXlXlXlXlXlXE ` X.X.T lXlXlXlXlXlXlXlXlXlXlXlXlXlXlXlXlXlXlXlXlXlXlXlXlXlXlXlXlXlXlX",
"lXlXlXlXlXX -XqXm 7.8.h f f f g p -X*XlXlXlXlXlXlXlXlX& T ` ` X.7 lXlXlXlXlXlXlXlXlXlXlXlXlXlXlXlXlXlXlXlXlXlXlXlXlXlXlXlXlXlXlX",
"lXlXlXlXlXlXi tXwX1 m *X;X4X5X1X3.t t lXlXlXlXlXlXlXlX8 R ` ` X.$ lXlXlXlXlXlXlXlXlXlXlXlXlXlXlXlXlXlXlXlXlXlXlXlXlXlXlXlXlXlXlX",
"lXlXlXlXlXlXlX3.sX;X*.eXeXyXsXdXhX2Xt lXlXlXlXlXlXlXlX& e e e e   lXlXlXlXlXlXlXlXlXlXlXlXlXlXlXlXlXlXlXlXlXlXlXlXlXlXlXlXlXlXlX",
"lXlXlXlXlXlXlXlX=XaX*X4.eXsXdXdXjXkX4XO lXlXlXlXlXlXt >X<X;X;X1X*.lXlXlXlXlXlXlXlXlXlXlXlXlXlXlXlXlXlXlXlXlXlXlXlXlXlXlXlXlXlXlX",
"lXlXlXlXlXlXlXlX+ 4XsX*.1XaXsXhXjXjXkX&.lXlXlXlXlXlX$.5X;X=X#X5.*.O lXlXlXlXlXlXlXlXlXlXlXlXlXlXlXlXlXlXlXlXlXlXlXlXlXlXlXlXlXlX",
"lXlXlXlXlXlXlXlXlXi wXyX%.wXdXdXjXjXjX2XlXlXlXlXlXlX. ; p g h ; i 3.=X4.%.+ lXlXlXlXlXlXlXlXlXlXlXlXlXlXlXlXlXlXlXlXlXlXlXlXlXlX",
"lXlXlXlXlXlXlXlXlXlX$.aX7X*.yXdXjXjXjXeXlXlXlXlXlX* j 8.8.7.s 3.5XtXtXtXtX-Xi lXlXlXlXlXlXlXlXlXlXlXlXlXlXlXlXlXlXlXlXlXlXlXlXlX",
"lXlXlXlXlXlXlXlXlXlXlX3.sX-X5.sXhXjXjXwXlXlXlXlXlX3.S.7.7.; 5.5X5XtXtXtXtXtX4Xt lXlXlXlXlXlXlXlXlXlXlXlXlXlXlXlXlXlXlXlXlXlXlXlX",
"lXlXlXlXlXlXlXlXlXlXlXo 1XsX5.1XdXhXhX2XlXlXlXlXo :Xi.7.g &.2X5X5XwXtXtXtXtXwX=XO lXlXlXlXlXlXlXlXlXlXlXlXlXlXlXlXlXlXlXlXlXlXlX",
"lXlXlXlXlXlXlXlXlXlXlXlXo qXsX&.wXsXsX3.lXlXlXlX@ Z.7.7.> -X1X7X5X5XqXeXuXeX5X5Xt lXlXlXlXlXlXlXlXlXlXlXlXlXlXlXlXlXlXlXlXlXlXlX",
"lXlXlXlXlXlXlXlXlXlXlXlXlXi sXdX%.tXwXo lXlXlXlX. g h g &.;X;X1X2X5X5X5X5X5X5X5X$.lXlXlXlXlXlXlXlXlXlXlXlXlXlXlXlXlXlXlXlXlXlXlX",
"lXlXlXlXlXlXlXlXlXlXlXlXlXlX3.hX4X&.i lXlXlXlXlX. ; ; - %.$.$.$.$.$.$.$.$.$.$.%.t . lXlXlXlXlXlXlXlXlXlXlXlXlXlXlXlXlXlXlXlXlXlX",
"lXlXlXlXlXlXlXlXlXlXlXlXlXlXlX4.tX$.lXlXlXlXlXlX&.=X1X2X2X2X2X2X2X4X2X2X4XeXeX4X=X= lXlXlXlXlXlXlXlXlXlXlXlXlXlXlXlXlXlXlXlXlXlX",
"lXlXlXlXlXlXlXlXlXlXlXlXlXlXlX. i . lXlXlXlXlXlX%.5.=X-X>X=X=X*X*X4.4.4.5.*X*X5.$.o lXlXlXlXlXlXlXlXlXlXlXlXlXlXlXlXlXlXlXlXlXlX",
"lXlXlXlXlXlXlXlXlXlXlXlXlXlXlXlXlXlXlXlXlXlXlXlXlXlXlXlXlXlXlXlXlXlXlXlXlXlXlXlXlXlXlXlXlXlXlXlXlXlXlXlXlXlXlXlXlXlXlXlXlXlXlXlX"
};
