/* XPM */
static char *result[] = {
/* columns rows colors chars-per-pixel */
"64 96 232 2 ",
"   c #020202",
".  c #0C0606",
"X  c #050B0B",
"o  c #0A0A0A",
"O  c #140A0A",
"+  c #1A0D0D",
"@  c #170506",
"#  c #010A1B",
"$  c #000717",
"%  c #0B1414",
"&  c #0D1B1C",
"*  c #071316",
"=  c #141313",
"-  c #1B1212",
";  c #151B1B",
":  c #240908",
">  c #3A0B0E",
",  c #31080A",
"<  c #241313",
"1  c #2C1616",
"2  c #2A1919",
"3  c #331A1A",
"4  c #3A1E1E",
"5  c #260E10",
"6  c #041538",
"7  c #051328",
"8  c #0D2626",
"9  c #122323",
"0  c #152C2C",
"q  c #19292B",
"w  c #0C3A3A",
"e  c #1A3333",
"r  c #1E3B3B",
"t  c #153839",
"y  c #142A36",
"u  c #232323",
"i  c #282A2A",
"p  c #3E2121",
"a  c #37292B",
"s  c #253939",
"d  c #383939",
"f  c #362F32",
"g  c #30291D",
"h  c #571A0A",
"j  c #4A0D12",
"k  c #510F11",
"l  c #691419",
"z  c #721310",
"x  c #582E11",
"c  c #6A270E",
"v  c #6E1A22",
"b  c #442222",
"n  c #4B2626",
"m  c #4E2828",
"M  c #4B292B",
"N  c #532A2A",
"B  c #5B2E2E",
"V  c #542628",
"C  c #5F3030",
"Z  c #513B3B",
"A  c #493A38",
"S  c #653232",
"D  c #6A3636",
"F  c #6E3939",
"G  c #673B3E",
"H  c #743B3B",
"J  c #7B3E3E",
"K  c #73363D",
"L  c #6F2730",
"P  c #441C20",
"I  c #001C55",
"U  c #142B4A",
"Y  c #1D3846",
"T  c #17315F",
"R  c #233959",
"E  c #002368",
"W  c #00297C",
"Q  c #002674",
"!  c #143571",
"~  c #203764",
"^  c #1A4747",
"/  c #185A5A",
"(  c #234444",
")  c #254B4B",
"_  c #284D4D",
"`  c #245252",
"'  c #2B5454",
"]  c #2E5B5B",
"[  c #255959",
"{  c #305C5C",
"}  c #345353",
"|  c #2E4A4D",
" . c #1F6666",
".. c #2B6363",
"X. c #236B6B",
"o. c #2A6868",
"O. c #336363",
"+. c #356B6B",
"@. c #396D6D",
"#. c #396363",
"$. c #267272",
"%. c #2C7676",
"&. c #327474",
"*. c #3C7575",
"=. c #357B7B",
"-. c #3E7A7A",
";. c #2F5E60",
":. c #454545",
">. c #4C4C4C",
",. c #454E4E",
"<. c #575758",
"1. c #535257",
"2. c #7F4040",
"3. c #7E444D",
"4. c #785555",
"5. c #694E53",
"6. c #446969",
"7. c #417D7D",
"8. c #4D7373",
"9. c #537878",
"0. c #576161",
"q. c #696969",
"w. c #646464",
"e. c #7D7D7D",
"r. c #737474",
"t. c #5D6061",
"y. c #950500",
"u. c #8C0000",
"i. c #BB0704",
"p. c #A80000",
"a. c #993608",
"s. c #982C13",
"d. c #A53A09",
"f. c #8B1923",
"g. c #981C26",
"h. c #A31D29",
"j. c #AC1F2B",
"k. c #B21F2D",
"l. c #B3212D",
"z. c #B9212F",
"x. c #BF2230",
"c. c #96333C",
"v. c #C32331",
"b. c #CC2434",
"n. c #D52834",
"m. c #D33327",
"M. c #E43D22",
"N. c #B74109",
"B. c #CD4427",
"V. c #893D45",
"C. c #AD3946",
"Z. c #CA3B49",
"A. c #834242",
"S. c #8A4646",
"D. c #8D4848",
"F. c #944C4C",
"G. c #994F4F",
"H. c #9E414A",
"J. c #9C5050",
"K. c #875258",
"L. c #AE4C51",
"P. c #8D7870",
"I. c #83615E",
"U. c #DC4555",
"Y. c #C24351",
"T. c #E04C5C",
"R. c #D05866",
"E. c #E25564",
"W. c #E26573",
"Q. c #97877D",
"!. c #07358F",
"~. c #093DA6",
"^. c #335291",
"/. c #1746A5",
"(. c #124ABB",
"). c #0F42AB",
"_. c #2A58B7",
"`. c #124CC2",
"'. c #1653CE",
"]. c #1B5AD8",
"[. c #3468D1",
"{. c #2366ED",
"}. c #286DF8",
"|. c #3475F7",
" X c #1E5EE1",
".X c #3A8383",
"XX c #3D8989",
"oX c #438484",
"OX c #468A8A",
"+X c #498D8D",
"@X c #4C9393",
"#X c #4F9999",
"$X c #439393",
"%X c #529D9D",
"&X c #548F8F",
"*X c #789494",
"=X c #6B8A8A",
"-X c #55A3A3",
";X c #58A7A7",
":X c #5AABAB",
">X c #878787",
",X c #999999",
"<X c #958987",
"1X c #89A3A3",
"2X c #99AEAE",
"3X c gray64",
"4X c #ABABAB",
"5X c #B5ADA5",
"6X c #B4B4B4",
"7X c #BBBBBB",
"8X c #AFBAB6",
"9X c #CDACA5",
"0X c #CEC6B4",
"qX c #B7C5C5",
"wX c gray77",
"eX c #CACBCB",
"rX c #D3D3D3",
"tX c #DBDBDB",
"yX c #D3DCDC",
"uX c #CFD2CE",
"iX c #FBF1DB",
"pX c #F2E8D5",
"aX c #DDE3E3",
"sX c #E6E6E6",
"dX c #EAEBEB",
"fX c #E7E9E9",
"gX c #FDF6E7",
"hX c #F4F4F4",
"jX c #FDFDFD",
"kX c #FEFBF3",
"lX c #EEF1F1",
"zX c None",
/* pixels */
"zXzXzXzXzXzXzXzXzXzXzXzXzXzXzXzXzXzXzXzXzXzXzXzXzXzXzXzXzXzXzXzXzXzXzXzXzXzXzXzXzXzXzXzXzXzXzXzXzXzXzXzXzXzXzXzXzXzXzXzXzXzXzXzX",
"zXzXzXzXzXzXzXzXzXzXzXzXzXzXzXzXzXzXzXzXzXzXzXzXzXzXzXzXzXzXzXzXzXzXzXzXzXzXzXzXzXzXzXzXzXzXzXzXzXzXzXzXzXzXzXzXzXzXzXzXzXzXzXzX",
"zXzXzXzXzXzXzXzXzXzXzXzXzXzXzXzXzXzXzXzXzXzXzXzXzXzXzXzXzXzXzXzXzXzXzXzXzXzXzXzXzXzXzXzXzXzXzXzXzXzXzXzXzXzXzXzXzXzXzXzXzXzXzXzX",
"zXzXzXzXzXzXzXzXzXzXzXzXzXzXzXzXzXzXzXzXzXzXzXzXzXzXzXzXzXzXzXzXzXzXzXzXzXzXzXzXzXzXzXzXzXzXzXzXzXzXzXzXzXzXzXzXzXzXzXzXzXzXzXzX",
"zXzXzXzXzXzXzXzXzXzXzXzXzXzXzXzXzXzXzXzXzXzXzXzXzXzXzX  zXzXzXzXzXzXzXzXzXzXzXzXzXzXzXzXzXzXzXzXzXzXzXzXzXzXzXzXzXzXzXzXzXzXzXzX",
"zXzXzXzXzXzXzXzXzXzXzXzXzXzXzXzXzXzXzXzXzXzXzXzXzXzX    zXzXzXzXzXzXzXzXzXzXzXzXzXzXzXzXzXzXzXzXzXzXzXzXzXzXzXzXzXzXzXzXzXzXzXzX",
"zXzXzXzXzXzXzXzXzXzXzXzXzXzXzXzXzXzXzXzXzXzXzXzXzXzX<   zXzXzXzXzXzXzXzXzXzXzXzXzXzXzXzXzXzXzXzXzXzXzXzXzXzXzXzXzXzXzXzXzXzXzXzX",
"zXzXzXzXzXzXzXzXzXzXzXzXzXzXzXzXzXzXzXzXzXzXzXzXzXO N   zXzXzXzX      O + 1 3 3 1 < O .     zXzXzXzXzXzXzXzXzXzXzXzXzXzXzXzXzXzX",
"zXzXzXzXzXzXzXzXzXzXzXzXzXzXzXzXzXzXzXzXzXzXzXzXzXn n   zXO 1 n S A.F.G.G.F.F.F.F.G.G.F.S.H B P <   zXzXzXzXzXzXzXzXzXzXzXzXzXzX",
"zXzXzXzXzXzXzXzXzXzXzXzXzXzXzXzXzXzXzXzXzXzXzXzX+ H P - C A.F.F.D.A.A.2.A.A.A.A.A.A.A.A.A.S.D.G.F.J m O   zXzXzXzXzXzXzXzXzXzXzX",
"zXzXzXzXzXzXzXzXzXzXzXzXzXzXzXzXzX    < 4 p 4 p F H J F.S.2.J J J 2.J 2.A.A.A.A.A.A.A.A.J J J J J A.D.F.F 1   zXzXzXzXzXzXzXzXzX",
"zXzXzXzXzXzXzXzXzXzXzXzXzXzXzXzXzXzXzXO 4 S J A.J F J H H J H J J J 2.A.A.A.A.A.A.A.A.A.A.A.J J J J H F H b   zXzXzXzXzXzXzXzXzX",
"zXzXzXzXzXzXzXzXzXzXzXzXzXzXzXzXzXzXzXzX  + V S F F F H H J J J J A.A.A.A.A.A.S.A.V.A.A.A.A.A.J J J J J H 3 +   zXzXzXzXzXzXzXzX",
"zXzXzXzXzXzXzXzXzXzXzXzXzXzXzXzXzXzXzXO 4 D H F F D F H H H H J J J J A.A.A.A.A.A.A.A.A.A.J J J J H J H J H S N 4 .   zXzXzXzXzX",
"zXzXzXzXzXzXzXzXzXzXzXzXzXzXzXzXzX  O S S.J F.G.D.J A.J J H H J J J J J J A.A.A.A.A.A.A.A.A.J J J J J A.J S N b +   zXzXzXzXzXzX",
"zXzXzXzXzXzXzXzXzXzXzXzXzXzXzXzXzXzX    + A.J.J.G.H D F.J.G.G.D.D.D.D.S.D.S.A.S.D.S.S.D.S.D.D.G.G.J.J.J.J.J.F.N 1 . zXzXzXzXzXzX",
"zXzXzXzXzXzXzXzXzXzXzXzXzXzXzXzXzXzXzX. N J A.G.J.J N S F.G.J.H F.J.J.J.J.G.A.J.J.J.J.J.J.J.J.J.J.J.J.J.G.J.F.S.A.D b +   zXzXzX",
"zXzXzXzXzXzXzXzXzXzXzXzXzXzXzXzXzXzX  b S S S S F H N N N A.G.S C D.J.G.J.2.B D.J.J.J.J.J.J.J.G.J.G.G.D.A.A.J D B b 3 +     zXzX",
"zXzXzXzXzXzXzXzXzXzXzXzXzXzXzXzXzXzX+ D S S S S S N N m N N H N N C D.G.G.C N S G.F.J F.F.F.S.H H H D D D D J F.D.H m <   zXzXzX",
"zXzXzXzXzXzXzXzXzXzXzXzXzXzXzXzXzXzX3 S D S S D S N N b 4 N N N N N N D S N N N F D m C D F D B N D D D S D S S S C B 3   zXzXzX",
"zXzXzXzXzXzXzXzXzXzXzXzXzXzXzXzXzX. V S S S C S S N m m . 1 N N N N N N N N N N B S N N B D S N N C D C V D S F B m 5   zXzXzXzX",
"zXzXzXzXzXzXzXzXzXzXzXzXzXzXzXzXzX+ S S S S B N C B p O + % 2 N n 3 m N N m b N m N N N N N C N N N C N N C S A.D.J b < . zXzXzX",
"zXzXzXzXzXzXzXzXzXzXzXzXzXzXzXzXzX1 S S S S C N N N N X % r ' + m . - b N p . 3 N m N P N N N N 1 b N N N N S S C C S B b .   zX",
"zXzXzXzXzXzXzXzXzXzXzXzXzXzXzXzXzX3 S C S S C N N N N = oX] +X+.- ; *.0 1 1 { _ + n m X - b N N O = n m b N B D H m 3 .   zXzXzX",
"zXzXzXzXzXzXzXzXzXzXzXzXzXzXzXzXzX4 S S C C B N 4 n N 1 7.%X%X%X@.% -.%X' X 7.-X+.- 4 0 7.; 2 m & ' < p . n N S D N   zXzXzXzXzX",
"zXzXzXzXzXzXzXzXzXzXzXzXzXzXzXzXzX3 S C B B N N O % - 1 #.%X%X%X%X7.@.;X;X@X%X;X;X+X0 ( ;X%XO.= r #X' o ' - n N N D + zXzXzXzXzX",
"zXzXzXzXzXzXzXzXzXzXzXzXzXzXzXzXzX3 S S N N N m < ] ] e ) %X%X-X-X-X-X;X:X:X:X;X;X;X%X+X-X-X-X+X7.%X#X) OX#.2 N N B 4 zXzXzXzXzX",
"zXzXzXzXzXzXzXzXzXzXzXzXzXzXzXzXzX3 S S N N N N 1 ' *.O.] @X%X%X-X-X;X:X:X:X:X:X;X:X:X;X;X-X-X%X-X%X%X#X#X#Xu m 3 < b   zXzXzXzX",
"zXzXzXzXzXzXzXzXzXzXzXzXzXzXzXzXzX1 S B N N N N 4 ( O._ ) @.#X#X:X:X:X:X:X:X:X:X:X:X;X;X;X-X-X-X%X%X#X+X#X-Xi N + zX    zXzXzXzX",
"zXzXzXzXzXzXzXzXzXzXzXzXzXzXzXzXzX< S N N N n 1 b ( @._ _ @.7.7.;X:X:X:X:X:X:X:X:X:X:X;X;X;X;X;X-X%X*.O.#X%Xs m   zXzXzXzXzXzXzX",
"zXzXzXzXzXzXzXzXzXzXzXzXzXzXzXzXzX+ N N N N b   3 s @X+.+.@X%X%X-X-X:X:X:X:X:X:X:X:X:X;X;X-X:X:X:X%XoX@.#.OXd b   zXzXzXzXzXzXzX",
"zXzXzXzXzXzXzXzXzXzXzXzXzXzXzXzXzX. b m N N b 9 = 9 #X#XOX*.+.#.@.7.:X:X:X:X:X:X:X;X%X;X-X-X:X:X:X;X%X+X_ @.| 3 zXzXzXzXzXzXzXzX",
"zXzXzXzXzXzXzXzXzXzXzXzXzXzXzXzXzX    . 1 N p e ' ; +X7.O.6.1XqXqX*X+.+X;X;X:X;X;X;X-X-X;X-X:X:X:X:X%X@X' 7.} @ zXzXzXzXzXzXzXzX",
"zXzXzXzXzXzXzXzXzXzXzXzXzXzXzXzX          N 3 ( +X( #.O.*XlXjXjXjXjXyX8.+X;X;X-X-X-X%X+X-X%X;X;X%X%X#X%X+X-X} . zXzXzXzXzXzXzXzX",
"zXzXzXzXzXzXzXzXzXzXzXzXzXzXzX; { 7.oX7.; b 3 ' @X-.{ 8.dXjXjXjXkXdXjXrX@.%X-X-X-X-X@.] %X-X%X%XOX7.*.oX@X;X_ 9 ; zXzXzXzXzXzXzX",
"zXzXzXzXzXzXzXzXzXzXzXzXzXzX0 @X#X+XOXOXr 2 1 O.@X&.O.2XjXjXjXjXjXsXfXhX=XoX-X%X-X%X+X7.%X%X%X+X2XyX8X6.oX;Xr +.@Xe zXzXzXzXzXzX",
"zXzXzXzXzXzXzXzXzXzXzXzXzX& oX+XoXoX-.oX] + 1 *.#X#.O.aXjXjXjXjXhXsXsXhX1X7.%X%X%X%X%X%X+XOX#X1XjXjXhX8XO.-Xr *.+XOX9 zXzXzXzXzX",
"zXzXzXzXzXzXzXzXzXzXzXzXzX{ @XoX-.*.*.*.@.o = 7.@XO.O.dXjXkXjXhXsXsXsXlX2X*.#X%X%X%X%X%X%X#X@XyXjXjXdXsX@.@Xs @.OX@XO.  zXzXzXzX",
"zXzXzXzXzXzXzXzXzXzXzXzX  oXOXoX*.-.*.-.*.% % -.#XO.{ eXjXjXfXsXfXsXfXhX*X@.#X#X#X#X#X#X#X#X&XlXjXhXfXdX8.oXs O.oXoX+X  zXzXzXzX",
"zXzXzXzXzXzXzXzXzXzXzXzX  OXOX.X*.*.*.*.*.0 X -.#X+.O.*XjXjXhXsXsXhXjXhX8.7.#X@X#X#X#X#X#X@X+XfXhXfXfXfX8.7.( O.oXOX@X% zXzXzXzX",
"zXzXzXzXzXzXzXzXzXzXzXzX  oXOXoX*.-.-.*.*.^ % 7.+X-.O.O.eXkXjXjXhXjXhX1X..OX#X@X@X#X@X@X@X@XoXqXjXdXhXyX#.oX' _ -.OX+XX zXzXzXzX",
"zXzXzXzXzXzXzXzXzXzXzXzX  O.OXOX-.&.*.*.-.' 9 -.+X+XO.O.@.8XlXjXjXsX1XO.@.@X@X@X@X@X@X@X@X@X+X9.lXjXhX=XO.+X@.e oXOX-.  zXzXzXzX",
"zXzXzXzXzXzXzXzXzXzXzXzXzX0 oXOX-.-.*.*.*.@.e *.oX+XOXO...O.#.9.8.O.{ +.+X@X@X@X+X@X@X+X@X+X@X7.6.*X8.O.7.+X7.9 OXOXr zXzXzXzXzX",
"zXzXzXzXzXzXzXzXzXzXzXzXzX  ( OXOX-.*.-.*.*._ *.] oX+X+X+.{ { O.{ ..8.+X+X+X+X+X+X+X@X+X@X+XOX+X7.O.O.*.@XoX-.9 OX] X zXzXzXzXzX",
"zXzXzXzXzXzXzXzXzXzXzXzXzXzX  ( -.oXoX7.@.*.+.*.O.*.oX+X#XOX^.-.7.+X@XOX+X+XoXoXoXoXOXOX+X+X+XOX+X@X@X+X&.OX( _ ' X zXzXzXzXzXzX",
"zXzXzXzXzXzXzXzXzXzXzXzXzXzXzX  X 9 q 9 X ) &.-.-.*.@.7.*.oX@X+XOX+XOX7.6.6.1.5.5.w.<.{ #.7.OXoXOXOXOX-.O._ X X   zXzXzXzXzXzXzX",
"zXzXzXzXzXzXzXzXzXzXzXzXzXzXzXzXzXzXzXzXzX@ 9 O.@.-.+.@._ ] oXoXOX7.6.K.K P.5XeX5X<XI.J 3.1.O.7.OXoX-.' 9   zXzXzXzXzXzXzXzXzXzX",
"zXzXzXzXzXzXzXzXzXzXzXzXzXzXzXzXzXzXzXzX> l k + & r { @.{ O.*.-.+.K.C.P.uXiXgXjXgXkXgXpX5X5.5.O.+.] 0 X zXzXzXzXzXzXzXzXzXzXzXzX",
"zXzXzXzXzXzXzXzXzXzXzXzXzXzXzXzXzXzXzX@ l l f.g.f.l > + = e ( ' D.U.C.5XhXiXkXjXiXkXiXpXkXQ.K u X   zXzXzXzXzXzXzXzXzXzXzXzXzXzX",
"zXzXzXzXzXzXzXzXzXzXzXzXzXzXzXzXzXzXzX@ , h h l g.j.j.j.h.v k , + 5 3 < G 0XkXjX9X4.H 4.A +   zXzXzXzXzXzXzXzXzXzXzXzXzXzXzXzXzX",
"zXzXzXzXzXzXzXzXzXzXzXzXzXzXzXzXzXzX@ l f.g.z.d.l j.k.z.v.v.b.n.d.g.a.O Z.c.2.4.5.Y.U.U.v zXzXzXzXzXzXzXzXzXzXzXzXzXzXzXzXzXzXzX",
"zXzXzXzXzXzXzXzXzXzXzXzXzXzXzXzXzXzX> l f.h.l.m.h g.k.z.v.v.b.n.d.g.m.c Y.U.U.U.Z.U.T.T.V zXzXzXzXzXzXzXzXzXzXzXzXzXzXzXzXzXzXzX",
"zXzXzXzXzXzXzXzXzXzXzXzXzXzXzXzXzX  k z g.h.l.v.d.v k.z.z.b.b.n.a.g.v.N.C.E.U.E.T.T.T.R.zXzXzXzXzXzXzXzXzXzXzXzXzXzXzXzXzXzXzXzX",
"zXzXzXzXzXzXzXzXzXzXzXzXzXzXzXzXzX  j v g.f.g.v.d.l k.z.v.v.n.n.a.f.l.a.P R.E.E.E.E.E.V.zXzXzXzXzXzXzXzXzXzXzXzXzXzXzXzXzXzXzXzX",
"zXzXzXzXzXzXzXzXzXzXzXzXzXzXzXzXzX: j , > s s b : > j.z.v.v.b.m.c q f @   V L.W.W.R.S.zXzXzXzXzXzXzXzXzXzXzXzXzXzXzXzXzXzXzXzXzX",
"zXzXzXzXzXzXzXzXzXzXzXzXzXzXzXzXzX> . q r OX#X@Xj g.h.x.x.b.b.M.x =.OXX zXzXzXm V 1 zXzXzXzXzXzXzXzXzXzXzXzXzXzXzXzXzXzXzXzXzXzX",
"zXzXzXzXzXzXzXzXzXzXzXzXzXzXzXzX. - j i -.OX%X;Xl h.k.h.v.z.n.N.g =.&.& zXzXzXzXX ) 9 zXzXzXzXzXzXzXzXzXzXzXzXzXzXzXzXzXzXzXzXzX",
"zXzXzXzXzXzXzXzXzXzXzXzXzXzXzXzX; ( j p *.oX+XoXa j P P x.v c x 0 .X.X=.` X zXzX....& zXzX% ) ` % zXzXzXzXzXzXzXzXzXzXzXzXzXzXzX",
"zXzXzXzXzXzXzXzXzXzXzXzXzXzXzXzX0 O.; s @..X@X@X%X*.) e g.V _ ] ..=.=.XX$XXX[ ` =.( 0 r r =.+.&.=.0 zXzXzXzXzXzXzXzXzXzXzXzXzXzX",
"zXzXzXzXzXzXzXzXzXzXzXzXzXzXzXzXr *.@.*.' oX+X@X#X-X%X*.f f 7.*...&.=..XOXXX.X&.=.&..X$X$X+.0 & ) ^ zXzXzXzXzXzXzXzXzXzXzXzXzXzX",
"zXzXzXzXzXzXzXzXzXzXzXzXzXzXzXzX_ *.7.OX+.7.OX+X#X-X-X;X@X+.' ' ( r ^ ...X.X.X=..X.X&.XX+X' & 9   zXzXzXzXzXzXzXzXzXzXzXzXzXzXzX",
"zXzXzXzXzXzXzXzXzXzXzXzXzXzXzXzX_ #.+.oX-.' -.oXOX@X@X%X#X#XoXoX#XOX*.0 o.%.=.&.=..X=..X.X=.&.&.` zXzXzXzXzXzXzXzXzXzXzXzXzXzXzX",
"zXzXzXzXzXzXzXzXzXzXzXzXzXzXzX  R R Y r r 0 e s O.oXOX@X@X+X#X%X%X@.) % e / o.&.=.=.=.=.=.&.) ^ +.t zXzXzXzXzXzXzXzXzXzXzXzXzXzX",
"zXzXzXzXzXzXzXzXzXzXzXzXzXzXzX  !./._.[.^.^.[.[.! ^ +.^.oX@X#X-X-X#X0 zXzXX 0 ..o.o.&.&.&.^ X   _ ` zXzXzXzXzXzXzXzXzXzXzXzXzXzX",
"zXzXzXzXzXzXzXzXzXzXzXzXzXzXzXzXI W ~. X|.[.! ~.'.(.! _ 7.+X#X-X-X-X7.  zXzXzX0 ` ] O.] ] +.[ X % 0 zXzXzXzXzXzXzXzXzXzXzXzXzXzX",
"zXzXzXzXzXzXzXzXzXzXzXzXzXzXzXzX$ Q ).].{.}.|.R ~.'.].T @.+X+X#X;X%X%X@.( & zXzXzX  *     0 ..& zXzXzXzXzXzXzXzXzXzXzXzXzXzXzXzX",
"zXzXzXzXzXzXzXzXzXzXzXzXzXzXzXzXzXE ).'.].{.|.|.R I E 6 ' oX*.#X%X@X@X7.oX*.zXzXzXzXzXzXzX& [ * zXzXzXzXzXzXzXzXzXzXzXzXzXzXzXzX",
"zXzXzXzXzXzXzXzXzXzXzXzXzXzXzXzXzXE !.(.'. X}.}.|.~ $ 6 8 *.^.+X@X@Xr   ( oXe zXzXzXzXzXzXX r X zXzXzXzXzXzXzXzXzXzXzXzXzXzXzXzX",
"zXzXzXzXzXzXzXzXzXzXzXzXzXzXzXzXzXI W !.`.'. X{.}._.8 I !.w +.oXoXOX@X9 & oXr zXzXzXzXzXzXzXzXzXzXzXzXzXzXzXzXzXzXzXzXzXzXzXzXzX",
"zXzXzXzXzXzXzXzXzXzXzXzXzXzXzXzXzX$ E W ~.`.'. X/.! 7 E )./.^ ^.q s -.+.  +.0 zXzXzXzXzXzXzXzXzXzXzXzXzXzXzXzXzXzXzXzXzXzXzXzXzX",
"zXzXzXzXzXzXzXzXzXzXzXzXzXzXzXzXzXzX# Q !.~.(.W 7 O.t Q ).(.Y -.r U ] +.zXX zXzXzXzXzXzXzXzXzXzXzXzXzXzXzXzXzXzXzXzXzXzXzXzXzXzX",
"zXzXzXzXzXzXzXzXzXzXzXzXzXzXzXzXzXzXzX# Q W ! ] +X#X_ Q ~.U *.*.7 Y 7.r zXzXzXzXzXzXzXzXzXzXzXzXzXzXzXzXzXzXzXzXzXzXzXzXzXzXzXzX",
"zXzXzXzXzXzXzXzXzXzXzXzXzXzXzXzXzXzXzXzX6 E _ oX%X-XOX7 6 0 ' & # 9 O.  zXzXzXzXzXzXzXzXzXzXzXzXzXzXzXzXzXzXzXzXzXzXzXzXzXzXzXzX",
"zXzXzXzXzXzXzXzXzXzXzXzXzXzXzXzXzXzXzXzXzX& @.@X%X-X#XX w w / / * zX  zXzXzXzXzXzXzXzXzXzXzXzXzXzXzXzXzXzXzXzXzXzXzXzXzXzXzXzXzX",
"zXzXzXzXzXzXzXzXzXzXzXzXzXzXzXzXzXzXzXzXzX( oX#X-X:X7.8 / X.$.X.zXzXzXzXzXzXzXzXzXzXzXzXzXzXzXzXzXzXzXzXzXzXzXzXzXzXzXzXzXzXzXzX",
"zXzXzXzXzXzXzXzXzXzXzXzXzXzXzXzXzXzXzXzX  +.@X#X-X+X0 ^  .$.$.$.zXzXzXzXzXzXzXzXzXzXzXzXzXzXzXzXzXzXzXzXzXzXzXzXzXzXzXzXzXzXzXzX",
"zXzXzXzXzXzXzXzXzXzXzXzXzXzXzXzXzXzXzXzXe 7.@X%X%X) w /  .%.%.X.zXzXzXzXzXzXzXzXzXzXzXzXzXzXzXzXzXzXzXzXzXzXzXzXzXzXzXzXzXzXzXzX",
"zXzXzXzXzXzXzXzXzXzXzXzXzXzXzXzXzXzXzXzXO.OX#X#X#Xw / X.X.%.$.8 zXzXzXzXzXzXzXzXzXzXzXzXzXzXzXzXzXzXzXzXzXzXzXzXzXzXzXzXzXzXzXzX",
"zXzXzXzXzXzXzXzXzXzXzXzXzXzXzXzXzXzXzXX ' OXOX@X+.w / $.$.$.8 zXzXzXzXzXzXzXzXzXzXzXzXzXzXzXzXzXzXzXzXzXzXzXzXzXzXzXzXzXzXzXzXzX",
"zXzXzXzXzXzXzXzXzXzXzXzXzXzXzXzXzXzX>.rX3X0.} *.0 /  . .$.Y zXzXzXzXzXzXzXzXzXzXzXzXzXzXzXzXzXzXzXzXzXzXzXzXzXzXzXzXzXzXzXzXzXzX",
"zXzXzXzXzXzXzXzXzXzXzXzXzXzXzXzXzXzXw.yXhXhXeXr.% 0 ^ /  .zXzXzXzXzXzXzXzXzXzXzXzXzXzXzXzXzXzXzXzXzXzXzXzXzXzXzXzXzXzXzXzXzXzXzX",
"zXzXzXzXzXzXzXzXzXzXzXzXzXzXzXzX- c z z B 4.3XdX1.4XQ.,.* zXzXzXzXzXzXzXzXzXzXzXzXzXzXzXzXzXzXzXzXzXzXzXzXzXzXzXzXzXzXzXzXzXzXzX",
"zXzXzXzXzXzXzXzXzXzXzXzXzXzXzX2 8Xn.i.i.i.y.j i u r.4XwXw.zXzXzXzXzXzXzXzXzXzXzXzXzXzXzXzXzXzXzXzXzXzXzXzXzXzXzXzXzXzXzXzXzXzXzX",
"zXzXzXzXzXzXzXzXzXzXzXzXzXzXzX<X9Xi.i.p.k Z r.<X>X>.= d :.zXzXzXzXzXzXzXzXzXzXzXzXzXzXzXzXzXzXzXzXzXzXzXzXzXzXzXzXzXzXzXzXzXzXzX",
"zXzXzXzXzXzXzXzXzXzXzXzXzXzX, H.i.i.y.b <XyXsXhXjXhX6Xi f d ; zXzXzXzXzXzXzXzXzXzXzXzXzXzXzXzXzXzXzXzXzXzXzXzXzXzXzXzXzXzXzXzXzX",
"zXzXzXzXzXzXzXzXzXzXzXzXzX  , y.p.u.M 6XyXsXsXjXjXjXjXwX>.wX,Xd zXzXzXzXzXzXzXzXzXzXzXzXzXzXzXzXzXzXzXzXzXzXzXzXzXzXzXzXzXzXzXzX",
"zXzXzXzXzXzXzXzXzXzXzXzXzX>.q.a k p 7XuXrXsXsXhXjXjXjXjXQ.>XrXuX:.zXzXzXzXzXzXzXzXzXzXzXzXzXzXzXzXzXzXzXzXzXzXzXzXzXzXzXzXzXzXzX",
"zXzXzXzXzXzXzXzXzXzXzXzXzXr.eXtX,Xt.<.<XwXtXsXfXjXjXjXjXyX<.eXrX6Xi zXzXzXzXzXzXzXzXzXzXzXzXzXzXzXzXzXzXzXzXzXzXzXzXzXzXzXzXzXzX",
"zXzXzXzXzXzXzXzXzXzXzXzXzX  :.3XrXsXrX>X>.r.6XsXsXhXjXhXdX<.7XrXuXq.zXzXzXzXzXzXzXzXzXzXzXzXzXzXzXzXzXzXzXzXzXzXzXzXzXzXzXzXzXzX",
"zXzXzXzXzXzXzXzXzXzXzXzXzXzXzXzXd e.wXsXtX,Xw.<.3XtXsXsXsX<.4XrXwX,Xo zXzXzXzXzXzXzXzXzXzXzXzXzXzXzXzXzXzXzXzXzXzXzXzXzXzXzXzXzX",
"zXzXzXzXzXzXzXzXzXzXzXzXzXzXzXzXzXzX  >.3XtXsXtXe.>.>XwXsX<.3X7X7X3X; zXzXzXzXzXzXzXzXzXzXzXzXzXzXzXzXzXzXzXzXzXzXzXzXzXzXzXzXzX",
"zXzXzXzXzXzXzXzXzXzXzXzXzXzXzXzXzXzXzXzXzXu q.eXsXhXeXq.:.= ,.<X6X3X= zXzXzXzXzXzXzXzXzXzXzXzXzXzXzXzXzXzXzXzXzXzXzXzXzXzXzXzXzX",
"zXzXzXzXzXzXzXzXzXzXzXzXzXzXzXzXzXzXzXzXzXzXzX  >.6XdXsX7Xd 3Xq.:.:.  zXzXzXzXzXzXzXzXzXzXzXzXzXzXzXzXzXzXzXzXzXzXzXzXzXzXzXzXzX",
"zXzXzXzXzXzXzXzXzXzXzXzXzXzXzXzXzXzXzXzXzXzXzXzXzXzXu w.>Xd 7XuX6Xq.  zXzXzXzXzXzXzXzXzXzXzXzXzXzXzXzXzXzXzXzXzXzXzXzXzXzXzXzXzX",
"zXzXzXzXzXzXzXzXzXzXzXzXzXzXzXzXzXzXzXzXzXzXzXzXzXzXzXzX  zXo d q.>.zXzXzXzXzXzXzXzXzXzXzXzXzXzXzXzXzXzXzXzXzXzXzXzXzXzXzXzXzXzX",
"zXzXzXzXzXzXzXzXzXzXzXzXzXzXzXzXzXzXzXzXzXzXzXzXzXzXzXzXzXzXzXzXzX  zXzXzXzXzXzXzXzXzXzXzXzXzXzXzXzXzXzXzXzXzXzXzXzXzXzXzXzXzXzX"
};
