/* XPM */
static char *result[] = {
/* columns rows colors chars-per-pixel */
"64 96 236 2 ",
"   c #020202",
".  c #0A0505",
"X  c #050B0B",
"o  c #0B0B0B",
"O  c #00030A",
"+  c #130A0A",
"@  c #1A0D0D",
"#  c #1A0506",
"$  c #010918",
"%  c #0A1313",
"&  c #0E1C1C",
"*  c #051717",
"=  c #141414",
"-  c #1D1212",
";  c #121D1D",
":  c #1B1B1B",
">  c #1F0E10",
",  c #290B0B",
"<  c #390A0D",
"1  c #241313",
"2  c #2B1616",
"3  c #2E1818",
"4  c #211C1C",
"5  c #331A1A",
"6  c #3B1E1E",
"7  c #3E1618",
"8  c #370D10",
"9  c #001237",
"0  c #081329",
"q  c #0E2121",
"w  c #0C2A2A",
"e  c #132525",
"r  c #142B2C",
"t  c #162B2D",
"y  c #1A3333",
"u  c #1D3B3B",
"i  c #153333",
"p  c #112635",
"a  c #2A2B2B",
"s  c #242525",
"d  c #3A2626",
"f  c #293839",
"g  c #393939",
"h  c #353535",
"j  c #2C352E",
"k  c #321F21",
"l  c #490404",
"z  c #570505",
"x  c #460D11",
"c  c #520F14",
"v  c #461617",
"b  c #5A1217",
"n  c #48140B",
"m  c #6B0101",
"M  c #6A1419",
"N  c #731112",
"B  c #481D21",
"V  c #432222",
"C  c #4A2526",
"Z  c #4F2828",
"A  c #432B2D",
"S  c #522A2A",
"D  c #5B2E2E",
"F  c #5F3030",
"G  c #573F3B",
"H  c #433434",
"J  c #643232",
"K  c #6A3535",
"L  c #6F3838",
"P  c #743A3A",
"I  c #7B3E3E",
"U  c #713239",
"Y  c #7C322B",
"T  c #6D201F",
"R  c #001849",
"E  c #051F55",
"W  c #142947",
"Q  c #133053",
"!  c #23395B",
"~  c #032568",
"^  c #002A7D",
"/  c #002774",
"(  c #113376",
")  c #253D6B",
"_  c #713D43",
"`  c #1C4646",
"'  c #144F4F",
"]  c #234444",
"[  c #254A4A",
"{  c #294D4D",
"}  c #294545",
"|  c #2B5454",
" . c #2D5A5A",
".. c #245454",
"X. c #305D5D",
"o. c #30484A",
"O. c #274372",
"+. c #2C6464",
"@. c #2C6B6B",
"#. c #336262",
"$. c #356A6A",
"%. c #396D6D",
"&. c #396464",
"*. c #2F7070",
"=. c #327474",
"-. c #3C7474",
";. c #357B7B",
":. c #3E7A7A",
">. c #1F6767",
",. c #4A4A4A",
"<. c #484343",
"1. c #47585A",
"2. c #555556",
"3. c #534F4F",
"4. c #7E4041",
"5. c #745457",
"6. c #655252",
"7. c #446C6C",
"8. c #417D7D",
"9. c #4C7272",
"0. c #557979",
"q. c #646464",
"w. c #6B6B6B",
"e. c #7B7B7B",
"r. c gray45",
"t. c #726968",
"y. c #79665F",
"u. c #8C0000",
"i. c #830000",
"p. c #940400",
"a. c #881810",
"s. c #BB0403",
"d. c #AC0D0A",
"f. c #8C310B",
"g. c #AF3711",
"h. c #8B1923",
"j. c #831721",
"k. c #931B25",
"l. c #A31E29",
"z. c #AB1F2B",
"x. c #B01F2C",
"c. c #972E35",
"v. c #B3202D",
"b. c #B8212F",
"n. c #BF2230",
"m. c #C52332",
"M. c #CB2434",
"N. c #D32734",
"B. c #CE2E2A",
"V. c #CB240D",
"C. c #B74705",
"Z. c #C5450A",
"A. c #8A3D47",
"S. c #AE3543",
"D. c #CD3C4B",
"F. c #834242",
"G. c #894646",
"H. c #8D4949",
"J. c #8B4049",
"K. c #934B4B",
"L. c #994E4E",
"P. c #97424C",
"I. c #9C5050",
"U. c #8E505B",
"Y. c #856D69",
"T. c #917B75",
"R. c #BE4B56",
"E. c #DB4858",
"W. c #CF4655",
"Q. c #E04D5C",
"!. c #E25665",
"~. c #E46473",
"^. c #DB6471",
"/. c #093898",
"(. c #0A348B",
"). c #083CA4",
"_. c #144BBA",
"`. c #0F46B3",
"'. c #214EA8",
"]. c #134DC3",
"[. c #1653CD",
"{. c #1C5CDC",
"}. c #2265EB",
"|. c #286DF8",
" X c #3676F9",
".X c #3A8383",
"XX c #3C8787",
"oX c #438484",
"OX c #468A8A",
"+X c #498D8D",
"@X c #498686",
"#X c #4C9393",
"$X c #4F9999",
"%X c #439494",
"&X c #519D9D",
"*X c #549191",
"=X c #558C8C",
"-X c #799696",
";X c #688888",
":X c #55A3A3",
">X c #58A7A7",
",X c #5AABAB",
"<X c #549FA0",
"1X c #848484",
"2X c #8B8A8A",
"3X c #819B9B",
"4X c #949494",
"5X c #9C9C9C",
"6X c #9E908C",
"7X c #B09A96",
"8X c #93A9A9",
"9X c #A2A2A2",
"0X c #ABABAB",
"qX c #A8B9B9",
"wX c #B4B4B4",
"eX c #B9B9B9",
"rX c #BBB3A4",
"tX c #CCADA9",
"yX c #D7CDBC",
"uX c #C7C7C7",
"iX c #DDDEDE",
"pX c #D3D6D6",
"aX c #CBD5D5",
"sX c #E4D8CE",
"dX c #FDF4DE",
"fX c #F5EEDA",
"gX c #E5E6E6",
"hX c #EBEBEB",
"jX c #E4E9E9",
"kX c #FEF6E7",
"lX c #F3F4F4",
"zX c #FDFDFD",
"xX c #FCFBF5",
"cX c #EFF2F2",
"vX c #D9E0E0",
"bX c None",
/* pixels */
"bXbXbXbXbXbXbXbXbXbXbXbXbXbXbXbXbXbXbXbXbXbXbXbXbXbXbXbXbXbXbXbXbXbXbXbXbXbXbXbXbXbXbXbXbXbXbXbXbXbXbXbXbXbXbXbXbXbXbXbXbXbXbXbX",
"bXbXbXbXbXbXbXbXbXbXbXbXbXbXbXbXbXbXbXbXbXbXbXbXbXbXbXbXbXbXbXbXbXbXbXbXbXbXbXbXbXbXbXbXbXbXbXbXbXbXbXbXbXbXbXbXbXbXbXbXbXbXbXbX",
"bXbXbXbXbXbXbXbXbXbXbXbXbXbXbXbXbXbXbXbXbXbXbXbXbXbXbXbXbXbXbXbXbXbXbXbXbXbXbXbXbXbXbXbXbXbXbXbXbXbXbXbXbXbXbXbXbXbXbXbXbXbXbXbX",
"bXbXbXbXbXbXbXbXbXbXbXbXbXbXbXbXbXbXbXbXbXbXbXbXbXbXbX  bXbXbXbXbXbXbXbXbXbXbXbXbXbXbXbXbXbXbXbXbXbXbXbXbXbXbXbXbXbXbXbXbXbXbXbX",
"bXbXbXbXbXbXbXbXbXbXbXbXbXbXbXbXbXbXbXbXbXbXbXbXbXbX    bXbXbXbXbXbXbXbXbXbXbXbXbXbXbXbXbXbXbXbXbXbXbXbXbXbXbXbXbXbXbXbXbXbXbXbX",
"bXbXbXbXbXbXbXbXbXbXbXbXbXbXbXbXbXbXbXbXbXbXbXbXbXbX@   bXbXbXbXbXbXbXbXbXbXbXbXbXbXbXbXbXbXbXbXbXbXbXbXbXbXbXbXbXbXbXbXbXbXbXbX",
"bXbXbXbXbXbXbXbXbXbXbXbXbXbXbXbXbXbXbXbXbXbXbXbXbX+ C   bXbXbXbXbX    + + 1 1 2 - @ o .   bXbXbXbXbXbXbXbXbXbXbXbXbXbXbXbXbXbXbX",
"bXbXbXbXbXbXbXbXbXbXbXbXbXbXbXbXbXbXbXbXbXbXbXbXbXV Z   bX  . 2 S K I G.G.K.K.K.K.H.G.4.L D d o   bXbXbXbXbXbXbXbXbXbXbXbXbXbXbX",
"bXbXbXbXbXbXbXbXbXbXbXbXbXbXbXbXbXbXbXbXbXbXbXbX+ P V @ C P K.K.H.G.G.F.F.F.F.F.F.F.F.F.F.H.K.K.F.F 6 o bXbXbXbXbXbXbXbXbXbXbXbX",
"bXbXbXbXbXbXbXbXbXbXbXbXbXbXbXbXbX    @ @ @ @ @ J L L H.K.F.4.4.I I I 4.F.F.F.F.4.F.F.4.F.I c.I F.H.K.4.C . bXbXbXbXbXbXbXbXbXbX",
"bXbXbXbXbXbXbXbXbXbXbXbXbXbXbXbXbXbX  @ S P F.H.4.L I I P I I P I I F.F.F.F.F.G.F.F.F.F.F.I I I P I P I G.Z   bXbXbXbXbXbXbXbXbX",
"bXbXbXbXbXbXbXbXbXbXbXbXbXbXbXbXbXbXbXbX  > Z K L L P P P P I I I I F.I F.F.F.F.G.F.F.F.F.I F.I I P I P J 1 . bXbXbXbXbXbXbXbXbX",
"bXbXbXbXbXbXbXbXbXbXbXbXbXbXbXbXbXbXbX  2 F K K L L L P P P I I I c.4.4.4.F.F.F.F.F.F.F.I F.I I I I P I F.4.J V 2 .   bXbXbXbXbX",
"bXbXbXbXbXbXbXbXbXbXbXbXbXbXbXbXbX  + D G.4.K.K.G.P 4.P I P P P 4.4.4.4.4.4.F.F.F.F.F.F.F.I F.I I I I I L F D Z 3 . bXbXbXbXbXbX",
"bXbXbXbXbXbXbXbXbXbXbXbXbXbXbXbXbX  . @ 3 F.I.I.L.P P L.K.K.H.H.4.G.F.G.F.F.G.F.F.G.F.G.F.G.H.H.H.K.L.I.I.H.I V . bXbXbXbXbXbXbX",
"bXbXbXbXbXbXbXbXbXbXbXbXbXbXbXbXbXbXbX. S 4.H.L.I.I S K K.I.I.P U.I.I.I.I.I.G.I.L.I.I.I.L.L.I.I.I.I.I.I.I.I.L.K.G.D 2 + bXbXbXbX",
"bXbXbXbXbXbXbXbXbXbXbXbXbXbXbXbXbXbXbX6 J J J P 4.P S S J H.I.F K K.I.I.I.G.D L.I.I.I.I.I.I.I.I.I.I.I.L.H.G.I J D F S 2     bXbX",
"bXbXbXbXbXbXbXbXbXbXbXbXbXbXbXbXbXbX@ J J J J J J D S Z S D 4.D S K K.I.L.J S L I.K.G.I.L.L.K.4.F.4.P K K K G.K.F.Z 2 .   bXbXbX",
"bXbXbXbXbXbXbXbXbXbXbXbXbXbXbXbXbXbX6 J K J J K J S S V V S S S S S F P K S S S P L S J P L P D D K K K K K J K K K J V   bXbXbX",
"bXbXbXbXbXbXbXbXbXbXbXbXbXbXbXbXbX. S J J J F J J D C C . 6 S S S S S S S S S S F J S S F K J S S J J J D J K K S S 5   bXbXbXbX",
"bXbXbXbXbXbXbXbXbXbXbXbXbXbXbXbXbX@ J J J J D D J D 6 - @ o 5 S C V S S S S C S Z D Z S S D F S S S J S S J K G.H.K 5     bXbXbX",
"bXbXbXbXbXbXbXbXbXbXbXbXbXbXbXbXbX8 J F J K D S S S C   X ] u 3 C . 3 C S 6 + V S S Z C S S S S 6 C S S S D J J J K L L 6     bX",
"bXbXbXbXbXbXbXbXbXbXbXbXbXbXbXbXbX5 K F J J F S S S Z = :.] OX] 1 :  .= d 5 [ e 5 S Z . 3 Z Z S + 1 S S C S F J J S V 1 . bXbXbX",
"bXbXbXbXbXbXbXbXbXbXbXbXbXbXbXbXbX6 J F F F D S d Z S 1 oX&X$X&X .% oX#Xu . 8.<X{ - V i X.= 6 Z ; ] 2 6 @ S S J P V   bXbXbXbXbX",
"bXbXbXbXbXbXbXbXbXbXbXbXbXbXbXbXbX6 J J F D S S o + 5 3 7.&X&X<X<XX.%.:X:X-.&X>X>X$.% [ :XOXf @ f #Xy @ t 2 S D D J   bXbXbXbXbX",
"bXbXbXbXbXbXbXbXbXbXbXbXbXbXbXbXbX6 J J S D Z S -  .[ % | &X<X<X<X:X:X,X>X,X>X>X>X>X#X8.:X:X&X8.$.&X+Xt OX] 3 S S J 5 bXbXbXbXbX",
"bXbXbXbXbXbXbXbXbXbXbXbXbXbXbXbXbX5 J J S S S Z 1 | :.#. .$X&X:X:X:X>X,X,X,X,X,X,X>X>X>X>X:X:X<X:X$X&X+X$X+X4 S 6 5 C   bXbXbXbX",
"bXbXbXbXbXbXbXbXbXbXbXbXbXbXbXbXbX5 J J S S S S 5 { #.{ { -.&X&X:X>X,X,X,X,X,X,X,X>X,X,X>X:X:X:X:X<X&X#X$X&Xs S +   .   bXbXbXbX",
"bXbXbXbXbXbXbXbXbXbXbXbXbXbXbXbXbX2 J S Z S C 5 d } &.{ { %.8.8.:X,X,X,X,X,X,X,X,X,X,X>X>X>X>X>X&X&X-.$.&X&Xa S . bXbXbXbXbXbXbX",
"bXbXbXbXbXbXbXbXbXbXbXbXbXbXbXbXbX- S S S S V . 6 ] OX . .#X&X<X:X:X,X,X,X,X,X,X,X>X>X>X>X>X>X,X>X<X:.$.-.#Xj V   bXbXbXbXbXbXbX",
"bXbXbXbXbXbXbXbXbXbXbXbXbXbXbXbXbX@ S S S S 6 q + y $X$X#X:.-.-.8.+X:X>X,X,X,X,X>X>X>X>X:X:X,X,X,X>X&XoX{ 8.g 5 bXbXbXbXbXbXbXbX",
"bXbXbXbXbXbXbXbXbXbXbXbXbXbXbXbXbX  . + 6 Z 6 f ] e #X8.#.7.-X8X8X;X8.:X,X,X,X,X>X>X&X>X:X:X,X,X,X>X&XOX{ 8.o.+ bXbXbXbXbXbXbXbX",
"bXbXbXbXbXbXbXbXbXbXbXbXbXbXbXbXbX      o S 5 [ OXy -.#.0.vXzXzXxXcXqX$.&X>X:X>X:X>X:X:X:X<X>X>X<X&X$X$XoX&Xo.. bXbXbXbXbXbXbXbX",
"bXbXbXbXbXbXbXbXbXbXbXbXbXbXbX% { -.-.&.% V 5  .#X%.| 7.cXzXzXzXxXlXzXqX%.<X:X:X:X:X-.X.&X<X:X:X#X8.8.+X#X>X} =   bXbXbXbXbXbXbX",
"bXbXbXbXbXbXbXbXbXbXbXbXbXbXt oX#X#XOX+Xy 5 3 $.#X-.#.qXzXzXzXzXxXgXhXlX0.+X<X<X<X<X8.-.<X<X&X#X3XqX3X$.OX>Xy $.-.& bXbXbXbXbXbX",
"bXbXbXbXbXbXbXbXbXbXbXbXbX& oX+XOXoXoX8.[ 1 1 :.#X#.&.hXzXzXzXzXlXjXgXlX-X8.<X&X<X&X&X&XOX+X$X-XzXxXxX3X%.:Xy :.#X-.o bXbXbXbXbX",
"bXbXbXbXbXbXbXbXbXbXbXbX  X.#XOX:.;.-.-. .+ : 8.#X#.&.lXzXzXzXxXhXgXgXlX8X-.$X$X&X&X&X&X#X#X#XvXzXzXhXpX&.$Xy -.OX#X{ bXbXbXbXbX",
"bXbXbXbXbXbXbXbXbXbXbXbX  oXOXoX-.-.:.-.-.o % oX#X&.&.jXzXxXgXgXgXgXgXlX-X-.$X&X&X$X$X$X$X$X*XlXzXzXjXgX7.+Xy $.oXOXoX  bXbXbXbX",
"bXbXbXbXbXbXbXbXbXbXbXbXX +XOX.X-.-.-.-.-.e * oX$X#.X.8XzXzXcXgXgXlXzXlX9.8.$X#X$X$X$X$X$X$X=XlXlXhXgXjX7.OXu $.oXOX+X  bXbXbXbX",
"bXbXbXbXbXbXbXbXbXbXbXbX. OXOXoX:.-.:.-.-.y ; oX#X-.#.7.gXzXzXlXhXzXzX8XX.OX#X$X#X$X#X#X$X#X@XvXxXgXlXpX&.+X}  ..XOXOX. bXbXbXbX",
"bXbXbXbXbXbXbXbXbXbXbXbX  -.OXoX-.-.:.-.-.{ e :.OXOX#.X.9.aXlXzXzXhX8XX.%.#X#X#X#X#X#X#X#X#XOX;XxXzXlX-X#.+X .} oXOX-.  bXbXbXbX",
"bXbXbXbXbXbXbXbXbXbXbXbXbX] oXOX:.-.-.-.:.X.y :.OX#X8.X.#.&.;X8X3X0.X.$.OX#X#X#X+X#X#X+X#X#X+X-.-XqX-X#.-.#X%.i OXoX[ bXbXbXbXbX",
"bXbXbXbXbXbXbXbXbXbXbXbXbX  X.OXOX:.-.-.-.=.{ -.#.oX$X8.#.#.#.#.#.X.%.+X+X#X+X#X#X+X+X+X+X+X+XOX$.+.#.%.+XOX%.i OX&.X bXbXbXbXbX",
"bXbXbXbXbXbXbXbXbXbXbXbXbXbXX  .OXOX.X:.-.-.$.-.X.:.@X#X$XoX%.%.8.OX#X+X+X+X#X+XOX+X+X#X+X+X+XOX+XOX+X+X:.+X} | $.% bXbXbXbXbXbX",
"bXbXbXbXbXbXbXbXbXbXbXbXbXbXbX  & ] { u o #.-.-.-.-.-.8.:.OX#X#XOX@X+X+X8.7.1.1.1.2.1.$.-.@XOXOXOXOXOX:.#.#.% t   bXbXbXbXbXbXbX",
"bXbXbXbXbXbXbXbXbXbXbXbXbXbXbXbXbXbXbXbXbXX u -.8.-.X.$.{ #.oXOXOXoX7.5._ 5.Y.6XY.5._ A.6.&.7.@XOX@X.XX.u     bXbXbXbXbXbXbXbXbX",
"bXbXbXbXbXbXbXbXbXbXbXbXbXbXbXbXbXbXbXbX# M 8 + t { $.-. .#.-.:.%.5.A.Y.tXkXxXzXkXxXdXyXT.4.2.&.=.$.f X bXbXbXbXbXbXbXbXbXbXbXbX",
"bXbXbXbXbXbXbXbXbXbXbXbXbXbXbXbXbXbXbXbXc M h.k.M < + % i | #.#.U.E.c.fXxXdXxXzXkXxXkXdXxXT.A.! ; X   bXbXbXbXbXbXbXbXbXbXbXbXbX",
"bXbXbXbXbXbXbXbXbXbXbXbXbXbXbXbXbXbXbX# x x M k.z.z.x.l.j.b < # 2 v 7 a 6.sXxXzXrXY.5.T.2.4   bXbXbXbXbXbXbXbXbXbXbXbXbXbXbXbXbX",
"bXbXbXbXbXbXbXbXbXbXbXbXbXbXbXbXbXbXbX# c h.f.n k.x.x.b.n.m.M.m.C.N T @ c.4.Y.7Xy.D.W.D.v bXbXbXbXbXbXbXbXbXbXbXbXbXbXbXbXbXbXbX",
"bXbXbXbXbXbXbXbXbXbXbXbXbXbXbXbXbXbX# M h.l.x.Z.n l.x.b.n.m.M.N.C.h.m.g.E.Q.Q.E.n.E.E.Q.S bXbXbXbXbXbXbXbXbXbXbXbXbXbXbXbXbXbXbX",
"bXbXbXbXbXbXbXbXbXbXbXbXbXbXbXbXbXbXx M k.l.x.m.f.h.x.b.n.M.M.N.Z.h.m.C.W.Q.Q.Q.E.!.Q.E.bXbXbXbXbXbXbXbXbXbXbXbXbXbXbXbXbXbXbXbX",
"bXbXbXbXbXbXbXbXbXbXbXbXbXbXbXbXbXbXx M k.l.z.m.Z.M x.b.m.m.B.N.Z.j.z.g.Y !.!.!.!.!.!.P.bXbXbXbXbXbXbXbXbXbXbXbXbXbXbXbXbXbXbXbX",
"bXbXbXbXbXbXbXbXbXbXbXbXbXbXbXbXbX. < M h.c b h.M n x.b.n.m.N.N.C.@ a ,   U ^.~.~.~.P.bXbXbXbXbXbXbXbXbXbXbXbXbXbXbXbXbXbXbXbXbX",
"bXbXbXbXbXbXbXbXbXbXbXbXbXbXbXbXbX# , , 8 | X.&.@ c k.b.n.m.M.N.C.@.XX` bXbXbXA.A.V   bXbXbXbXbXbXbXbXbXbXbXbXbXbXbXbXbXbXbXbXbX",
"bXbXbXbXbXbXbXbXbXbXbXbXbXbXbXbXbX, # a | oX<X>XC l.z.b.n.m.M.B.T +.@.y bXbXbXbXbXr u bXbXbXbXbXbXbXbXbXbXbXbXbXbXbXbXbXbXbXbXbX",
"bXbXbXbXbXbXbXbXbXbXbXbXbXbXbXbXbX; < V -.oX$XOXA M h.v v.b.b C.= *.XX.X+.i bXbXu =.u   bXbXy [ i bXbXbXbXbXbXbXbXbXbXbXbXbXbXbX",
"bXbXbXbXbXbXbXbXbXbXbXbXbXbXbXbXbX| k v $.:.+X+X7.: s  .T k.f j ] -.;.;.XXXX@.r ;.| X q r ..;.$.;.` bXbXbXbXbXbXbXbXbXbXbXbXbXbX",
"bXbXbXbXbXbXbXbXbXbXbXbXbXbXbXbXbX#.] ]  .:.+X#X#X#XX.[ f b $.+X` *.;..XXXXXOX+..X=..X%X%X.X[ & f +.q bXbXbXbXbXbXbXbXbXbXbXbXbX",
"bXbXbXbXbXbXbXbXbXbXbXbXbXbXbXbXbX&.-.-. .:.OX#X$X:X>X@X[ ; @X<Xu @.*.=..X.XXX=.;..X;.XX%X;.e q % X bXbXbXbXbXbXbXbXbXbXbXbXbXbX",
"bXbXbXbXbXbXbXbXbXbXbXbXbXbXbXbXbX%.-.oX-.$.8.OX#X<X<X:X#X%.| %.% r u ..*.=.;.=.;..X;.XX.X.X=..X+.q bXbXbXbXbXbXbXbXbXbXbXbXbXbX",
"bXbXbXbXbXbXbXbXbXbXbXbXbXbXbXbXo X.X.%.:.] #.-.oX+X#X<X#X&XoX%.oX-.{ q i ' +.@.=.;.=.;.=.;.X.] +...bXbXbXbXbXbXbXbXbXbXbXbXbXbX",
"bXbXbXbXbXbXbXbXbXbXbXbXbXbXbXbX0 O.! O.! y ! O.{ :.OX#X#X+X$X<X$X8.-.e bXbXw ..@.*.=.=.@.*.q   t +.& bXbXbXbXbXbXbXbXbXbXbXbXbX",
"bXbXbXbXbXbXbXbXbXbXbXbXbXbXbXbX$ ( (._.'.'.{ (./.u &.'.oX%X$X:X>X8.% bXbXbXbXbX[  . . . .+.=.q   i & bXbXbXbXbXbXbXbXbXbXbXbXbX",
"bXbXbXbXbXbXbXbXbXbXbXbXbXbXbXbXO ~ ^ _.}.|.|.) /.].(.{ 8.+X$X<X$X:X .bXbXbXbXbXbX% e q & e { ` bXbXbXbXbXbXbXbXbXbXbXbXbXbXbXbX",
"bXbXbXbXbXbXbXbXbXbXbXbXbXbXbXbXbX9 (.].{.}.|. X) ( /.p 8.OX$X&X>X>X#Xt & bXbXbXbXbXbXbXbXbX` ` bXbXbXbXbXbXbXbXbXbXbXbXbXbXbXbX",
"bXbXbXbXbXbXbXbXbXbXbXbXbXbXbXbXbXbX^ ).].{.}.|. X) 0 + #.8.8.$X&X+X#X+X+Xt bXbXbXbXbXbXbXbXy q bXbXbXbXbXbXbXbXbXbXbXbXbXbXbXbX",
"bXbXbXbXbXbXbXbXbXbXbXbXbXbXbXbXbX0 / (.].[.{.}.|. X(.R i -.oX+X$X#X[ } %.%.bXbXbXbXbXbXbXbXbXbXbXbXbXbXbXbXbXbXbXbXbXbXbXbXbXbX",
"bXbXbXbXbXbXbXbXbXbXbXbXbXbXbXbXbXbXR ^ (.].[.{.}.}.Q $ E ] 8.OX+X#X{   [ :.& bXbXbXbXbXbXbXbXbXbXbXbXbXbXbXbXbXbXbXbXbXbXbXbXbX",
"bXbXbXbXbXbXbXbXbXbXbXbXbXbXbXbXbXbX  ~ ^ /._.[._.Q W R _.~  .8.e %.#X; W -.bXbXbXbXbXbXbXbXbXbXbXbXbXbXbXbXbXbXbXbXbXbXbXbXbXbX",
"bXbXbXbXbXbXbXbXbXbXbXbXbXbXbXbXbXbXbX$ / (.).(.p  .@XW _./.! 8.p e oX] % r bXbXbXbXbXbXbXbXbXbXbXbXbXbXbXbXbXbXbXbXbXbXbXbXbXbX",
"bXbXbXbXbXbXbXbXbXbXbXbXbXbXbXbXbXbXbXbX$ / / R X.$X:X:Xe ] 8.{ O.] 8.% bXbXbXbXbXbXbXbXbXbXbXbXbXbXbXbXbXbXbXbXbXbXbXbXbXbXbXbX",
"bXbXbXbXbXbXbXbXbXbXbXbXbXbXbXbXbXbXbXbXbX9 9 & :.&X:X:X[ +.] X p | { bXbXbXbXbXbXbXbXbXbXbXbXbXbXbXbXbXbXbXbXbXbXbXbXbXbXbXbXbX",
"bXbXbXbXbXbXbXbXbXbXbXbXbXbXbXbXbXbXbXbXbXbXO * :.#X<X>X .i `     % X bXbXbXbXbXbXbXbXbXbXbXbXbXbXbXbXbXbXbXbXbXbXbXbXbXbXbXbXbX",
"bXbXbXbXbXbXbXbXbXbXbXbXbXbXbXbXbXbXbXbXbXbXbX  %.#X#X>X..@.w bXbXbXbXbXbXbXbXbXbXbXbXbXbXbXbXbXbXbXbXbXbXbXbXbXbXbXbXbXbXbXbXbX",
"bXbXbXbXbXbXbXbXbXbXbXbXbXbXbXbXbXbXbXbXbXbX* w #.+X<X:X-...bXbXbXbXbXbXbXbXbXbXbXbXbXbXbXbXbXbXbXbXbXbXbXbXbXbXbXbXbXbXbXbXbXbX",
"bXbXbXbXbXbXbXbXbXbXbXbXbXbXbXbXbXbXbXbXbX& ` ' { @X$X$X+Xq bXbXbXbXbXbXbXbXbXbXbXbXbXbXbXbXbXbXbXbXbXbXbXbXbXbXbXbXbXbXbXbXbXbX",
"bXbXbXbXbXbXbXbXbXbXbXbXbXbXbXbXbXbXbX= j w ' >.u 8.$X$X&X* bXbXbXbXbXbXbXbXbXbXbXbXbXbXbXbXbXbXbXbXbXbXbXbXbXbXbXbXbXbXbXbXbXbX",
"bXbXbXbXbXbXbXbXbXbXbXbXbXbXbXbXbXbXbXe.aX4Xf ' r :.*XOX$Xu bXbXbXbXbXbXbXbXbXbXbXbXbXbXbXbXbXbXbXbXbXbXbXbXbXbXbXbXbXbXbXbXbXbX",
"bXbXbXbXbXbXbXbXbXbXbXbXbXbXbXbXa 6.z v w.tXwXo.q | | o.X.2.a bXbXbXbXbXbXbXbXbXbXbXbXbXbXbXbXbXbXbXbXbXbXbXbXbXbXbXbXbXbXbXbXbX",
"bXbXbXbXbXbXbXbXbXbXbXbXbXbXbX<.0XL.p.p.m H 0XuXs ;XwXpXhXlX9XbXbXbXbXbXbXbXbXbXbXbXbXbXbXbXbXbXbXbXbXbXbXbXbXbXbXbXbXbXbXbXbXbX",
"bXbXbXbXbXbXbXbXbXbXbXbXbXbX, K.c.p.u.u.p.i.n e.,.cXpX4Xy.G 4 g e.4X1X,.o bXbXbXbXbXbXbXbXbXbXbXbXbXbXbXbXbXbXbXbXbXbXbXbXbXbXbX",
"bXbXbXbXbXbXbXbXbXbXbXbX. - l m u.i.m x d H A = - 6.T a.p.B 2XhXzXzXzXlX0Xj bXbXbXbXbXbXbXbXbXbXbXbXbXbXbXbXbXbXbXbXbXbXbXbXbXbX",
"bXbXbXbXbXbXbXbXbXbXbXbX,.1XA l z 8 3.1X0XeXeX4X, d.s.s.z 5XjXxXzXzXzXzXxXuXh bXbXbXbXbXbXbXbXbXbXbXbXbXbXbXbXbXbXbXbXbXbXbXbXbX",
"bXbXbXbXbXbXbXbXbXbXbXbXh 4X9X3.4 T.5X9XeXeXuX3.7Xs.s.p.q.iXgXcXzXzXzXzXzXgX9X  bXbXbXbXbXbXbXbXbXbXbXbXbXbXbXbXbXbXbXbXbXbXbXbX",
"bXbXbXbXbXbXbXbXbXbXbXbXbXh 5XwXw.,.4X9XeXeXuXH sXd.s.z wXiXgXgXhXcXlXlXhXgXiXs bXbXbXbXbXbXbXbXbXbXbXbXbXbXbXbXbXbXbXbXbXbXbXbX",
"bXbXbXbXbXbXbXbXbXbXbXbXbXbX: 1XeX2X! 1XwXeXwX<.tXs.s.h uXaXiXgXgXgXiXpXeX9X1Xa bXbXbXbXbXbXbXbXbXbXbXbXbXbXbXbXbXbXbXbXbXbXbXbX",
"bXbXbXbXbXbXbXbXbXbXbXbXbXbXbXo w.wX7X<.1XwXwXH z.s.i.w.uXuXrX4Xe.q.q.q.r.4X9X9Xo bXbXbXbXbXbXbXbXbXbXbXbXbXbXbXbXbXbXbXbXbXbXbX",
"bXbXbXbXbXbXbXbXbXbXbXbXbXbXbXbXbX3.0XwX,.w.wXd i.m < <.,.,.q.1XeXiXgXgXxXlXaX5X= bXbXbXbXbXbXbXbXbXbXbXbXbXbXbXbXbXbXbXbXbXbXbX",
"bXbXbXbXbXbXbXbXbXbXbXbXbXbXbXbXbXbXh 9XwXq.,.s 3.T.5XuXiXgXgXgXpXeX4Xe.w.3.a . bXbXbXbXbXbXbXbXbXbXbXbXbXbXbXbXbXbXbXbXbXbXbXbX",
"bXbXbXbXbXbXbXbXbXbXbXbXbXbXbXbXbXbXbX: 2XeX1Xg uXaXuXwX4Xe.3.s     bXbXbXbXbXbXbXbXbXbXbXbXbXbXbXbXbXbXbXbXbXbXbXbXbXbXbXbXbXbX",
"bXbXbXbXbXbXbXbXbXbXbXbXbXbXbXbXbXbXbXbXX r.eXa h a h   bXbXbXbXbXbXbXbXbXbXbXbXbXbXbXbXbXbXbXbXbXbXbXbXbXbXbXbXbXbXbXbXbXbXbXbX",
"bXbXbXbXbXbXbXbXbXbXbXbXbXbXbXbXbXbXbXbXbXbXq.eXwX<.4 bXbXbXbXbXbXbXbXbXbXbXbXbXbXbXbXbXbXbXbXbXbXbXbXbXbXbXbXbXbXbXbXbXbXbXbXbX",
"bXbXbXbXbXbXbXbXbXbXbXbXbXbXbXbXbXbXbXbXbXbXbXg 9X2X= bXbXbXbXbXbXbXbXbXbXbXbXbXbXbXbXbXbXbXbXbXbXbXbXbXbXbXbXbXbXbXbXbXbXbXbXbX",
"bXbXbXbXbXbXbXbXbXbXbXbXbXbXbXbXbXbXbXbXbXbXbXbX% s bXbXbXbXbXbXbXbXbXbXbXbXbXbXbXbXbXbXbXbXbXbXbXbXbXbXbXbXbXbXbXbXbXbXbXbXbXbX",
"bXbXbXbXbXbXbXbXbXbXbXbXbXbXbXbXbXbXbXbXbXbXbXbXbXbXbXbXbXbXbXbXbXbXbXbXbXbXbXbXbXbXbXbXbXbXbXbXbXbXbXbXbXbXbXbXbXbXbXbXbXbXbXbX"
};
