/* XPM */
static char *result[] = {
/* columns rows colors chars-per-pixel */
"64 96 231 2 ",
"   c #020202",
".  c #0C0606",
"X  c #050B0B",
"o  c #0C0C0C",
"O  c #02060B",
"+  c #140C0C",
"@  c #1B0E0E",
"#  c #180405",
"$  c #030B18",
"%  c #0A1414",
"&  c #0E1C1C",
"*  c #131313",
"=  c #1C1313",
"-  c #101E1E",
";  c #1C1D1D",
":  c #27090A",
">  c #380809",
",  c #241313",
"<  c #2B1616",
"1  c #2A1C1D",
"2  c #331A1A",
"3  c #3B1E1E",
"4  c #3E1917",
"5  c #32130A",
"6  c #000E2B",
"7  c #061937",
"8  c #08142A",
"9  c #0D2626",
"0  c #122222",
"q  c #152B2B",
"w  c #192B2D",
"e  c #132B37",
"r  c #1A3434",
"t  c #1D3B3B",
"y  c #153737",
"u  c #0C2A34",
"i  c #2B2B2B",
"p  c #272424",
"a  c #3A2627",
"s  c #253536",
"d  c #3B3B3B",
"f  c #363434",
"g  c #5A0404",
"h  c #48120A",
"j  c #4B0E13",
"k  c #461618",
"l  c #571416",
"z  c #520F14",
"x  c #6A0101",
"c  c #790000",
"v  c #6B1519",
"b  c #76161E",
"n  c #7B1507",
"m  c #4C1E23",
"M  c #442222",
"N  c #4B2626",
"B  c #4E2828",
"V  c #532A2A",
"C  c #5A2E2E",
"Z  c #542429",
"A  c #5F3030",
"S  c #483737",
"D  c #653333",
"F  c #6B3636",
"G  c #6F3838",
"H  c #733A3A",
"J  c #7B3E3E",
"K  c #7C353A",
"L  c #69272D",
"P  c #6C231B",
"I  c #63413C",
"U  c #041A46",
"Y  c #001D57",
"T  c #132A4B",
"R  c #022468",
"E  c #00297B",
"W  c #163471",
"Q  c #243A66",
"!  c #203E43",
"~  c #7B3F48",
"^  c #194545",
"/  c #1C5B5B",
"(  c #224444",
")  c #264B4B",
"_  c #284D4D",
"`  c #22454C",
"'  c #2B5354",
"]  c #2D5A5A",
"[  c #255656",
"{  c #315E5E",
"}  c #2D474D",
"|  c #2C6767",
" . c #336363",
".. c #3A6565",
"X. c #356B6B",
"o. c #396D6D",
"O. c #327474",
"+. c #3C7575",
"@. c #357B7B",
"#. c #3D7A7A",
"$. c #2E7070",
"%. c #4A4746",
"&. c #4C5B5E",
"*. c #525252",
"=. c #595A5A",
"-. c #554D4D",
";. c #684546",
":. c #7F4040",
">. c #744248",
",. c #695659",
"<. c #6F4F53",
"1. c #436C6C",
"2. c #417D7D",
"3. c #487373",
"4. c #557A7A",
"5. c #666565",
"6. c #696B6B",
"7. c #7A7A7A",
"8. c #727373",
"9. c #8C0000",
"0. c #8F0909",
"q. c #920000",
"w. c #851313",
"e. c #AB0500",
"r. c #BA0201",
"t. c #B11000",
"y. c #9A3906",
"u. c #8A330A",
"i. c #AE390E",
"p. c #961B26",
"a. c #861822",
"s. c #A41E29",
"d. c #AA1F2B",
"f. c #A21F27",
"g. c #8E3136",
"h. c #B2202D",
"j. c #B9212F",
"k. c #B42C20",
"l. c #BF2230",
"z. c #CE3B1B",
"x. c #C32331",
"c. c #CD2434",
"v. c #D42D2D",
"b. c #E03926",
"n. c #C44338",
"m. c #AD3E4B",
"M. c #923F47",
"N. c #DD3E4E",
"B. c #824242",
"V. c #8A4646",
"C. c #8E4949",
"Z. c #8F454B",
"A. c #934B4B",
"S. c #9A4F4F",
"D. c #91414C",
"F. c #9C5050",
"G. c #8B4D54",
"H. c #AC4A54",
"J. c #856E67",
"K. c #BF6161",
"L. c #DB4655",
"P. c #C04959",
"I. c #E04C5B",
"U. c #E1505F",
"Y. c #CD5A67",
"T. c #E25564",
"R. c #E16875",
"E. c #073289",
"W. c #09399A",
"Q. c #022D84",
"!. c #093EA9",
"~. c #284887",
"^. c #2B4D94",
"/. c #1046B2",
"(. c #134DC4",
"). c #1753CD",
"_. c #1C5AD9",
"`. c #3568CF",
"'. c #2365E7",
"]. c #276DF7",
"[. c #3174FB",
"{. c #3A8484",
"}. c #3B8686",
"|. c #448484",
" X c #468A8A",
".X c #498D8D",
"XX c #4C9393",
"oX c #4F9999",
"OX c #439393",
"+X c #519C9C",
"@X c #5D9191",
"#X c #5C8787",
"$X c #55A3A3",
"%X c #58A7A7",
"&X c #5AABAB",
"*X c #699797",
"=X c #888888",
"-X c #839C9C",
";X c #939393",
":X c #9D9D9D",
">X c #A59090",
",X c #92A8A8",
"<X c #A2A2A2",
"1X c #ABABAB",
"2X c #AABBBB",
"3X c #B5B5B5",
"4X c #BBBBBB",
"5X c #B1A8A5",
"6X c #B9AC9D",
"7X c #D4B3AD",
"8X c #CBC5B8",
"9X c #BAC9C9",
"0X c #CCCCCC",
"qX c #C3C9C9",
"wX c #CAD4D4",
"eX c #D2D3D3",
"rX c #DBDDDD",
"tX c #D3DBDB",
"yX c #D6D2C8",
"uX c #FEF5DE",
"iX c #EBE6D8",
"pX c #DDE3E3",
"aX c #E5E6E6",
"sX c #EBEBEB",
"dX c #EAEBE9",
"fX c #FAF3E5",
"gX c #F4F5F5",
"hX c #FEFDFD",
"jX c #FBF9F3",
"kX c #F1EDE6",
"lX c None",
/* pixels */
"lXlXlXlXlXlXlXlXlXlXlXlXlXlXlXlXlXlXlXlXlXlXlXlXlXlXlXlXlXlXlXlXlXlXlXlXlXlXlXlXlXlXlXlXlXlXlXlXlXlXlXlXlXlXlXlXlXlXlXlXlXlXlXlX",
"lXlXlXlXlXlXlXlXlXlXlXlXlXlXlXlXlXlXlXlXlXlXlXlXlXlXlXlXlXlXlXlXlXlXlXlXlXlXlXlXlXlXlXlXlXlXlXlXlXlXlXlXlXlXlXlXlXlXlXlXlXlXlXlX",
"lXlXlXlXlXlXlXlXlXlXlXlXlXlXlXlXlXlXlXlXlXlXlXlXlXlXlXlXlXlXlXlXlXlXlXlXlXlXlXlXlXlXlXlXlXlXlXlXlXlXlXlXlXlXlXlXlXlXlXlXlXlXlXlX",
"lXlXlXlXlXlXlXlXlXlXlXlXlXlXlXlXlXlXlXlXlXlXlXlXlXlXlXlXlXlXlXlXlXlXlXlXlXlXlXlXlXlXlXlXlXlXlXlXlXlXlXlXlXlXlXlXlXlXlXlXlXlXlXlX",
"lXlXlXlXlXlXlXlXlXlXlXlXlXlXlXlXlXlXlXlXlXlXlXlXlXlX  lXlXlXlXlXlXlXlXlXlXlXlXlXlXlXlXlXlXlXlXlXlXlXlXlXlXlXlXlXlXlXlXlXlXlXlXlX",
"lXlXlXlXlXlXlXlXlXlXlXlXlXlXlXlXlXlXlXlXlXlXlXlXlXlX  lXlXlXlXlXlXlXlXlXlXlXlXlXlXlXlXlXlXlXlXlXlXlXlXlXlXlXlXlXlXlXlXlXlXlXlXlX",
"lXlXlXlXlXlXlXlXlXlXlXlXlXlXlXlXlXlXlXlXlXlXlXlXlX.   lXlXlXlXlXlXlXlXlXlXlXlXlXlXlXlXlXlXlXlXlXlXlXlXlXlXlXlXlXlXlXlXlXlXlXlXlX",
"lXlXlXlXlXlXlXlXlXlXlXlXlXlXlXlXlXlXlXlXlXlXlXlX  <   lXlXlXlXlXlXlXlXlXlXlXlXlXlXlXlXlXlXlXlXlXlXlXlXlXlXlXlXlXlXlXlXlXlXlXlXlX",
"lXlXlXlXlXlXlXlXlXlXlXlXlXlXlXlXlXlXlXlXlXlXlXlX, M lXlXlXlX  o , 2 a M V V V V M 3 2 , o   lXlXlXlXlXlXlXlXlXlXlXlXlXlXlXlXlXlX",
"lXlXlXlXlXlXlXlXlXlXlXlXlXlXlXlXlXlXlXlXlXlXlX  D 3     = N F B.C.A.S.A.A.A.A.A.A.S.A.A.B.G V ,   lXlXlXlXlXlXlXlXlXlXlXlXlXlXlX",
"lXlXlXlXlXlXlXlXlXlXlXlXlXlXlXlXlXlXlXlXlXlX  M H M V B.A.C.V.B.:.:.g.:.:.:.B.B.:.:.:.:.B.V.C.A.V.A 2 . lXlXlXlXlXlXlXlXlXlXlXlX",
"lXlXlXlXlXlXlXlXlXlXlXlXlXlXlXlX    2 N V C C J H B.V.B.J J J J :.:.:.:.B.B.B.B.B.B.:.:.:.J J J B.V.V.J < lXlXlXlXlXlXlXlXlXlXlX",
"lXlXlXlXlXlXlXlXlXlXlXlXlXlXlXlXlXlX  < C G :.H G H H H H J J J :.:.:.B.B.V.V.B.B.B.B.:.:.:.J J J H D F , lXlXlXlXlXlXlXlXlXlXlX",
"lXlXlXlXlXlXlXlXlXlXlXlXlXlXlXlXlXlXlX  , C F F G H H H H J J J :.:.B.B.B.B.V.B.V.B.B.:.:.:.J J H J :.H a < +   lXlXlXlXlXlXlXlX",
"lXlXlXlXlXlXlXlXlXlXlXlXlXlXlXlXlX  , D B.:.J G G H H H H J J J :.:.:.:.B.B.B.B.B.B.B.:.:.J J J J J H F G G A a   lXlXlXlXlXlXlX",
"lXlXlXlXlXlXlXlXlXlXlXlXlXlXlXlX  < F G G F.F.F.H B.B.B.J J J :.J :.:.J B.B.:.B.B.B.g.:.:.:.J :.:.B.B.B.D C 4   lXlXlXlXlXlXlXlX",
"lXlXlXlXlXlXlXlXlXlXlXlXlXlXlXlXlXlX  2 A.F.F.F.D F A.F.F.S.C.A.A.A.C.C.C.C.C.C.C.C.A.A.A.A.S.F.F.F.F.F.F.C.D 2 . lXlXlXlXlXlXlX",
"lXlXlXlXlXlXlXlXlXlXlXlXlXlXlXlXlXlX, D D g.V.S.H V C V.F.F.F C.F.F.F.F.A.H F.F.F.F.F.F.F.F.F.F.F.F.F.F.A.V.:.:.:.N @   lXlXlXlX",
"lXlXlXlXlXlXlXlXlXlXlXlXlXlXlXlXlX+ C D D D D F D V V C :.F.A C C.F.F.F.G V V.F.F.F.F.F.F.F.S.F.A.C.B.H J B.G C 2 @ .   lXlXlXlX",
"lXlXlXlXlXlXlXlXlXlXlXlXlXlXlXlXlX2 D D F D D A V V N V B D C V C V.C.V.C V G A.V.H C.C.V.B.D G G G F G F J V.V.:.B ,   lXlXlXlX",
"lXlXlXlXlXlXlXlXlXlXlXlXlXlXlXlX  B D D D D D D V V 3 < B V V V B C D C B V V F D V C G G F V C F F D D D D D D C B @ lXlXlXlXlX",
"lXlXlXlXlXlXlXlXlXlXlXlXlXlXlXlXo D D D D C A D V M N   < B V B V V V V V V V C A V V V D D V V D D C V D F H D N .   lXlXlXlXlX",
"lXlXlXlXlXlXlXlXlXlXlXlXlXlXlXlX, D D D D C V A V 2 o + q , B M < V V V M M V V V V V V V C V B V C V V D D J B.B.C 2 .   lXlXlX",
"lXlXlXlXlXlXlXlXlXlXlXlXlXlXlXlX2 D A D D A B V V M - w ) { = N X * a B < % < V V N 2 B V V B + N V V V V D D C C C N 2     lXlX",
"lXlXlXlXlXlXlXlXlXlXlXlXlXlXlXlXM D A D D C V V V N ; XX..+X..* % 2.r , @ 2.' @ B M % @ M V N o @ B M M V C D H M , . lXlXlXlXlX",
"lXlXlXlXlXlXlXlXlXlXlXlXlXlXlXlXM D A A C C N , M B = .X+X+X+X2.%  X$Xo.* +X$X2.* @ '  Xr , a s  ., < + N V D H N lXlXlXlXlXlXlX",
"lXlXlXlXlXlXlXlXlXlXlXlXlXlXlXlXN D A C V V B + w @ + +.+X+X$X+X X.X$X%XoX%X%X%XXXt X.%XoXX.-  .oX) X o.= B V V F + lXlXlXlXlXlX",
"lXlXlXlXlXlXlXlXlXlXlXlXlXlXlXlXN D A V V V V + o.X.! ' +X$X+X$X$X$X&X&X&X&X&X%X%X$XoX%X$X$XXXXX+XXX{ XX{ < V N C 2 lXlXlXlXlXlX",
"lXlXlXlXlXlXlXlXlXlXlXlXlXlXlXlXM D A V V V V @ X.X.' ] .X$X$X$X&X&X&X&X&X&X&X&X%X%X%X%X$X+X$X$X+X+XoXoXXX< B = + <   lXlXlXlXlX",
"lXlXlXlXlXlXlXlXlXlXlXlXlXlXlXlX3 A C V V N V < ] ] _ _ 2. XXX$X&X&X&X&X&X&X&X&X&X&X%X%X$X$X$X+X$X|..XoXoX< B . lX    lXlXlXlXlX",
"lXlXlXlXlXlXlXlXlXlXlXlXlXlXlXlX2 C V V V 3 < 2 ] .._ _ |.|..X$X&X&X&X&X&X&X&X&X&X%X%X%X%X%X&X$X+X .+.oX+X2 M   lXlXlXlXlXlXlXlX",
"lXlXlXlXlXlXlXlXlXlXlXlXlXlXlXlX@ V V V V 4 X < ) .X#.2.XX.XXX+X&X&X&X&X&X&X&X&X&X%X%X%X$X&X&X&X+X|.#.' XXp 2 lXlXlXlXlXlXlXlXlX",
"lXlXlXlXlXlXlXlXlXlXlXlXlXlXlXlX. 3 N V V 2 r o r +XXX+.X. . . .|.+X%X&X&X&X&X&X%XoX%X%X$X&X&X&X&X+X#._ |.a = lXlXlXlXlXlXlXlXlX",
"lXlXlXlXlXlXlXlXlXlXlXlXlXlXlXlX      < V < ) ] - |.X. .-XwXaXtX1X3. X$X&X%X$X$X%X%X$X$X$X&X&X%X$X+X X] XXf + lXlXlXlXlXlXlXlXlX",
"lXlXlXlXlXlXlXlXlXlXlXlXlXlXlX% & 0 % o B , ] XX! { ..9XhXhXhXhXhXwX4..X$X$X$X$X%X X.X$X$X&X$X+XoXXX+X.X&Xs   lXlXlXlXlXlXlXlXlX",
"lXlXlXlXlXlXlXlXlXlXlXlXlX  ( |.+X+X.X% N ,  .XXo.{ -XhXhXhXhXgXsXgX9X+.+X$X$X$X+X{  .+X+X+XoX2.3.o.|.oX&X0 s & lXlXlXlXlXlXlXlX",
"lXlXlXlXlXlXlXlXlXlXlXlX   .+X.X X X Xr 2 = +.XX..o.tXhXhXhXhXhXaXsXjX3.XX+X$X+X$X.X.XoX+XoX@XwXsX2X1.|.%X% #..Xq lXlXlXlXlXlXlX",
"lXlXlXlXlXlXlXlXlXlXlXlX( XX X|.#.#.2.) < = #.XX{ 4.gXhXhXhXhXsXaXaXgX-X|.+X$X+X+X+X+X XXX.X9XhXhXgX,Xo.%X0 #. XXX% lXlXlXlXlXlX",
"lXlXlXlXlXlXlXlXlXlXlXX  X X|.+.+.+.#.] + ; |..X .4.gXhXgXgXsXaXaXaXgX-X#.+X+X+XoX+X+XoXoX@XsXhXhXdXwX{ +X- +. X.X' lXlXlXlXlXlX",
"lXlXlXlXlXlXlXlXlXlXlX% .X X|.+.+.+.#.X.X - |..X .1.pXhXhXaXaXaXsXsXjX4.2.+XXX+XoXoXoXoXoX*XgXhXgXaXpX{ oX- o.|. Xo.  lXlXlXlXlX",
"lXlXlXlXlXlXlXlXlXlXlX0 .X X2.+.#.+.+.+.% q |.oX .{ ,XhXhXgXdXaXhXhXwX{  XoXoXoXoXoXoXXXXX@XkXsXaXdXeX{ XXq  .|. X#.X lXlXlXlXlX",
"lXlXlXlXlXlXlXlXlXlXlX% |. X|.+.+.+.#.+.q r |.XXo. ...qXhXhXgXhXhXpX4. ..XXXXXXXXXXXXXXXXX2.qXjXsXgX2X{ oXr ] |.|.+.  lXlXlXlXlX",
"lXlXlXlXlXlXlXlXlXlXlXX +. X|.@.#.+.+.+.( t 2. XXX .{ ..,XrXsXaX2X1. .|.XXXX.XXXXXXXXXXXXX X#XdXhX9X1.o.XX_ ) |. X'   lXlXlXlXlX",
"lXlXlXlXlXlXlXlXlXlXlXlXr |. X#.+.+.#.+. .( +.|..X X .{  . .o. . .{ 2.XXOX.XXXXXOX.XXX.XXX.X#.1.3... . X X{ (  X|.& lXlXlXlXlXlX",
"lXlXlXlXlXlXlXlXlXlXlXlX  ) |. X#.#.#.+.+.' X.' |.XX.Xo...{ {  .o.|..X.X.X.X.XXX.X.X.X.X.X.X.X^.o.o.|..X X' ) |.t   lXlXlXlXlXlX",
"lXlXlXlXlXlXlXlXlXlXlXlXlX  q o. X|.#.] +.+.+.o.#.|. XoXXX.X X.X.X.X.X.X X|.+.+.+.2.|.XX.X.X X X.X.X|. . X- ' q   lXlXlXlXlXlXlX",
"lXlXlXlXlXlXlXlXlXlXlXlXlXlXlX    X     ( +.+.+.+. .+.{ 2. X X X.X|.3.=.-.>.;.>.G.,.&. .+. X X X X|.+.{ &     lXlXlXlXlXlXlXlXlX",
"lXlXlXlXlXlXlXlXlXlXlXlXlXlXlXlXlXlXlXlX# - ' +.+.X.X.) ..2.|.|.o.,.D.;.6XyXaX8X5XJ.~ ~ &. .#.|.#.+.( X lXlXlXlXlXlXlXlXlXlXlXlX",
"lXlXlXlXlXlXlXlXlXlXlXlXlXlXlXlXlXlXlX> v v > + 0 ` { { +.+.o.&.P.Z.8XfXfXjXhXfXjXuXuXyX>.<.{ ] r X   lXlXlXlXlXlXlXlXlXlXlXlXlX",
"lXlXlXlXlXlXlXlXlXlXlXlXlXlXlXlXlXlX# v b p.p.p.a.j : * - r } m.L.V.8XuXuXhXjXfXjXiXkXkX<.L *   lXlXlXlXlXlXlXlXlXlXlXlXlXlXlXlX",
"lXlXlXlXlXlXlXlXlXlXlXlXlXlXlXlXlXlX: : > j b f.d.h.j.j.s.a.v 5 # # : K 7XdXjX8.g.L g.*   lXlXlXlXlXlXlXlXlXlXlXlXlXlXlXlXlXlXlX",
"lXlXlXlXlXlXlXlXlXlXlXlXlXlXlXlXlX. j b s.k.u.b d.d.j.l.x.c.v.y.d.i.l L.m.S.S.L I.I.L., lXlXlXlXlXlXlXlXlXlXlXlXlXlXlXlXlXlXlXlX",
"lXlXlXlXlXlXlXlXlXlXlXlXlXlXlXlXlX> b p.s.h.z.h d.h.j.l.x.c.v.y.d.v.u.T.I.I.I.N.I.I.I.lXlXlXlXlXlXlXlXlXlXlXlXlXlXlXlXlXlXlXlXlX",
"lXlXlXlXlXlXlXlXlXlXlXlXlXlXlXlXlXz v p.s.h.c.u.a.h.j.l.x.c.v.i.d.x.i.H.T.T.I.I.I.U.H.lXlXlXlXlXlXlXlXlXlXlXlXlXlXlXlXlXlXlXlXlX",
"lXlXlXlXlXlXlXlXlXlXlXlXlXlXlXlX  z v a.f.f.l.i.l h.j.x.x.c.v.y.v b v k Y.T.T.T.T.Y.Z lXlXlXlXlXlXlXlXlXlXlXlXlXlXlXlXlXlXlXlXlX",
"lXlXlXlXlXlXlXlXlXlXlXlXlXlXlXlX. j l b < < z : : d.j.x.x.c.v.y.t ' * lX3 K.R.R.H.Z lXlXlXlXlXlXlXlXlXlXlXlXlXlXlXlXlXlXlXlXlXlX",
"lXlXlXlXlXlXlXlXlXlXlXlXlXlXlXlX> # 0 w |..X2.j b s.j.x.x.v.b.u.@.}.( lXlXlXlXlXO X lXlXlXlXlXlXlXlXlXlXlXlXlXlXlXlXlXlXlXlXlXlX",
"lXlXlXlXlXlXlXlXlXlXlXlXlXlXlXlX> : f o. X+XoXL d.h.d.x.l.k.z.5 @.O.^   lXlXlXX [ t lXlXlXlXlXlXlXlXlXlXlXlXlXlXlXlXlXlXlXlXlXlX",
"lXlXlXlXlXlXlXlXlXlXlXlXlXlXlXlXt k a +.|..X|.M 5 m p d.f.1 V 0 @.@.}.{.) 0 & | X.&   lXq | X.) X lXlXlXlXlXlXlXlXlXlXlXlXlXlXlX",
"lXlXlXlXlXlXlXlXlXlXlXlXlXlXlXlXX.1 1 +.2.XXXX X} s  .Z v { { [ @.@.}.}.OX}.[ @.] ^ ] | @.| ) O.] lXlXlXlXlXlXlXlXlXlXlXlXlXlXlX",
"lXlXlXlXlXlXlXlXlXlXlXlXlXlXlXlX+.] { _ {..XXXoX$X#.) s <  X|.) $.@.@.}.}.}.@.{.@.@..XoX@.0 . 0 ^ % lXlXlXlXlXlXlXlXlXlXlXlXlXlX",
"lXlXlXlXlXlXlXlXlXlXlXlXlXlXlXlX+.#.{.o.2. X.XoX$X%X+X .w  X.Xw / | $.@.{.}.@.@.{.@.}.}.@.t ^ 0 lXlXlXlXlXlXlXlXlXlXlXlXlXlXlXlX",
"lXlXlXlXlXlXlXlXlXlXlXlXlXlXlXq +.X.|.+.{ |. X.XoX+X$X.X.X_ _ t r 9 y | $.O.$.@.{.@.{.@.{.@.O.O.0 lXlXlXlXlXlXlXlXlXlXlXlXlXlXlX",
"lXlXlXlXlXlXlXlXlXlXlXlXlXlXlX% ! ` _ _ q ` ] #..XXXoX+XoXoX$X+X+X2.- O y [ $.$.O.O.@.O.O.r - [ | lXlXlXlXlXlXlXlXlXlXlXlXlXlXlX",
"lXlXlXlXlXlXlXlXlXlXlXlXlXlXlXT ^.^.^.~.Q ~.~.! | 2..X.XXXoX$X$X{ s X lXlX% ) | | X.$.| $.q lX0 | & lXlXlXlXlXlXlXlXlXlXlXlXlXlX",
"lXlXlXlXlXlXlXlXlXlXlXlXlXlXlX$ Q.Q./.'.`.Q E.(.W ` o.2..XoX$X+XoX0 lXlXlXlXlXq ( ) ( ( [ X.r lX% lXlXlXlXlXlXlXlXlXlXlXlXlXlXlX",
"lXlXlXlXlXlXlXlXlXlXlXlXlXlXlX  R E.).'.].[.Q /.).!.` 2..XoX$X$X&X .lXlXlXlXlXlXlXlXlXlX  [ ^ lXlXlXlXlXlXlXlXlXlXlXlXlXlXlXlXlX",
"lXlXlXlXlXlXlXlXlXlXlXlXlXlXlXlX7 E.(._.].[.`.U R R e +. X.X+X$X+XXX .r lXlXlXlXlXlXlXlXlX[ q lXlXlXlXlXlXlXlXlXlXlXlXlXlXlXlXlX",
"lXlXlXlXlXlXlXlXlXlXlXlXlXlXlXlXY E /.)._.].].`.O $ 6 { #.2.oX+X.X|.#. Xt lXlXlXlXlXlXlXlX0 % lXlXlXlXlXlXlXlXlXlXlXlXlXlXlXlXlX",
"lXlXlXlXlXlXlXlXlXlXlXlXlXlXlXlX6 E E.(.).'.].[.~.U E 7 X.|..XoX X% % X.o.lXlXlXlXlXlXlXlXlXlXlXlXlXlXlXlXlXlXlXlXlXlXlXlXlXlXlX",
"lXlXlXlXlXlXlXlXlXlXlXlXlXlXlXlXlXR E !.(._.'.[.`.U R W.e #.|.+.XX .  ) #.lXlXlXlXlXlXlXlXlXlXlXlXlXlXlXlXlXlXlXlXlXlXlXlXlXlXlX",
"lXlXlXlXlXlXlXlXlXlXlXlXlXlXlXlXlX6 E E (.).).E W 6 R (.W ] X.8 _ |.w w ' lXlXlXlXlXlXlXlXlXlXlXlXlXlXlXlXlXlXlXlXlXlXlXlXlXlXlX",
"lXlXlXlXlXlXlXlXlXlXlXlXlXlXlXlXlXlXU Q.W.E.7 q ] 7 E.W.T ]  .Q q 2.q lXX lXlXlXlXlXlXlXlXlXlXlXlXlXlXlXlXlXlXlXlXlXlXlXlXlXlXlX",
"lXlXlXlXlXlXlXlXlXlXlXlXlXlXlXlXlXlX$ R R U ] oX$XXXT X +.+.q Q  .] lXlXlXlXlXlXlXlXlXlXlXlXlXlXlXlXlXlXlXlXlXlXlXlXlXlXlXlXlXlX",
"lXlXlXlXlXlXlXlXlXlXlXlXlXlXlXlXlXlXlX6 $ q X.oX$X$X3.q 9 9 O O ' 0 lXlXlXlXlXlXlXlXlXlXlXlXlXlXlXlXlXlXlXlXlXlXlXlXlXlXlXlXlXlX",
"lXlXlXlXlXlXlXlXlXlXlXlXlXlXlXlXlXlXlXlX  X | XX+X&X|./ / ^ O lXlXlXlXlXlXlXlXlXlXlXlXlXlXlXlXlXlXlXlXlXlXlXlXlXlXlXlXlXlXlXlXlX",
"lXlXlXlXlXlXlXlXlXlXlXlXlXlXlXlXlXlXlXX u y [ .XoX$X.X^ | lXlXlXlXlXlXlXlXlXlXlXlXlXlXlXlXlXlXlXlXlXlXlXlXlXlXlXlXlXlXlXlXlXlXlX",
"lXlXlXlXlXlXlXlXlXlXlXlXlXlXlXlXlXd ;Xs ^ / ^ 2.oX+X$Xt ^ lXlXlXlXlXlXlXlXlXlXlXlXlXlXlXlXlXlXlXlXlXlXlXlXlXlXlXlXlXlXlXlXlXlXlX",
"lXlXlXlXlXlXlXlXlXlXlXlXlX@ -.<.> *.4X3Xr / y +.oXoX+X{ lXlXlXlXlXlXlXlXlXlXlXlXlXlXlXlXlXlXlXlXlXlXlXlXlXlXlXlXlXlXlXlXlXlXlXlX",
"lXlXlXlXlXlXlXlXlXlXlXlX2 >X>Xp.9.x S 7X:Xy ^  . XoXXX2.lXlXlXlXlXlXlXlXlXlXlXlXlXlXlXlXlXlXlXlXlXlXlXlXlXlXlXlXlXlXlXlXlXlXlXlX",
"lXlXlXlXlXlXlXlXlXlX+ : x w.0.9.9.9.c %.0X8.- ^ |.XX X.X% lXlXlXlXlXlXlXlXlXlXlXlXlXlXlXlXlXlXlXlXlXlXlXlXlXlXlXlXlXlXlXlXlXlXlX",
"lXlXlXlXlXlXlXlXlXf ;Xf g c 9.c x g x x =.7Xi 0 o. .' 6.:X*.lXlXlX  lXlXlXlXlXlXlXlXlXlXlXlXlXlXlXlXlXlXlXlXlXlXlXlXlXlXlXlXlXlX",
"lXlXlXlXlXlXlXlXlXp =X<Xa > M %.=.,.=.S @ } lX. &.<XrXsX4X*.1 8.1X4X<X7.i lXlXlXlXlXlXlXlXlXlXlXlXlXlXlXlXlXlXlXlXlXlXlXlXlXlXlX",
"lXlXlXlXlXlXlXlXlXlXf 3X;Xf =X:X<X3X4X4X;Xp lX; gXsX:X;.h f 4XhXhXhXhXhXeX-.lXlXlXlXlXlXlXlXlXlXlXlXlXlXlXlXlXlXlXlXlXlXlXlXlXlX",
"lXlXlXlXlXlXlXlXlXlXlX*.3X7.*.:X1X3X3X0XeX1Xi * :XI n t.h 4XgXhXhXhXhXhXsXeX*.lXlXlXlXlXlXlXlXlXlXlXlXlXlXlXlXlXlXlXlXlXlXlXlXlX",
"lXlXlXlXlXlXlXlXlXlXlXlX7.4X5.5.1X4X4XeXeXeX=X  > t.r.9.7.aXdXhXhXhXhXhXdXaX3X. lXlXlXlXlXlXlXlXlXlXlXlXlXlXlXlXlXlXlXlXlXlXlXlX",
"lXlXlXlXlXlXlXlXlXlXlXlXO =X3X%.7.3X4XeXeXeX4X; n.r.r.z 4XaXaXaXdXsXaXaXeX<X5.i lXlXlXlXlXlXlXlXlXlXlXlXlXlXlXlXlXlXlXlXlXlXlXlX",
"lXlXlXlXlXlXlXlXlXlXlXlXlXi :X1Xd :X4X0XeXeX4X%.7Xr.r.M 0XrXaXaXaXaX3X7.6.=X3XqX* lXlXlXlXlXlXlXlXlXlXlXlXlXlXlXlXlXlXlXlXlXlXlX",
"lXlXlXlXlXlXlXlXlXlXlXlXlXlXd 3X<X%.2X7XeXeX4X-.7Xr.e.%.0X0X0X1X7.-.5.qXhXhX0X7.* lXlXlXlXlXlXlXlXlXlXlXlXlXlXlXlXlXlXlXlXlXlXlX",
"lXlXlXlXlXlXlXlXlXlXlXlXlXlXlX=.3X7.=.4XqXeX4Xf K.r.q.*.3X7.=.5.:XrXaXeX:X5.p lXlXlXlXlXlXlXlXlXlXlXlXlXlXlXlXlXlXlXlXlXlXlXlXlX",
"lXlXlXlXlXlXlXlXlXlXlXlXlXlXlXlX8.4X6.8.3X4X1X@ 9.9.g i -.:XpXaXeX<X=.o lXlXlXlXlXlXlXlXlXlXlXlXlXlXlXlXlXlXlXlXlXlXlXlXlXlXlXlX",
"lXlXlXlXlXlXlXlXlXlXlXlXlXlXlXlXX ;X0X=.;X4X7.  : S ;XeXaXaX3X=.; lXlXlXlXlXlXlXlXlXlXlXlXlXlXlXlXlXlXlXlXlXlXlXlXlXlXlXlXlXlXlX",
"lXlXlXlXlXlXlXlXlXlXlXlXlXlXlXlXlXf 4X4Xd =X1   ;X0XrX4X7.i   lXlXlXlXlXlXlXlXlXlXlXlXlXlXlXlXlXlXlXlXlXlXlXlXlXlXlXlXlXlXlXlXlX",
"lXlXlXlXlXlXlXlXlXlXlXlXlXlXlXlXlXlXd 3X=XX lXlX*.6.i o lXlXlXlXlXlXlXlXlXlXlXlXlXlXlXlXlXlXlXlXlXlXlXlXlXlXlXlXlXlXlXlXlXlXlXlX",
"lXlXlXlXlXlXlXlXlXlXlXlXlXlXlXlXlXlXlXf %.lXlXlX  lXlXlXlXlXlXlXlXlXlXlXlXlXlXlXlXlXlXlXlXlXlXlXlXlXlXlXlXlXlXlXlXlXlXlXlXlXlXlX",
"lXlXlXlXlXlXlXlXlXlXlXlXlXlXlXlXlXlXlXlXlXlXlXlXlXlXlXlXlXlXlXlXlXlXlXlXlXlXlXlXlXlXlXlXlXlXlXlXlXlXlXlXlXlXlXlXlXlXlXlXlXlXlXlX"
};
