/* XPM */
static char *result[] = {
/* columns rows colors chars-per-pixel */
"64 96 230 2 ",
"   c #020101",
".  c #0B0405",
"X  c #050B0B",
"o  c #08080B",
"O  c #140A0A",
"+  c #1B0D0D",
"@  c #1D0507",
"#  c #010919",
"$  c #0B1515",
"%  c #0D1A1A",
"&  c #091319",
"*  c #141313",
"=  c #1B1A1A",
"-  c #181717",
";  c #290809",
":  c #241212",
">  c #2C1515",
",  c #2A191A",
"<  c #351B1B",
"1  c #3B1E1E",
"2  c #391314",
"3  c #340D10",
"4  c #02102D",
"5  c #0B2526",
"6  c #122424",
"7  c #152B2B",
"8  c #182A2B",
"9  c #1B3333",
"0  c #1D3B3B",
"q  c #163636",
"w  c #0F333B",
"e  c #262626",
"r  c #3A2323",
"t  c #223B3B",
"y  c #333333",
"u  c #3A3A3A",
"i  c #37201F",
"p  c #470D12",
"a  c #500F0B",
"s  c #630202",
"d  c #750300",
"f  c #6A1419",
"g  c #661319",
"h  c #75151D",
"j  c #661F0C",
"k  c #5A2105",
"l  c #47231C",
"z  c #682A0E",
"x  c #541F24",
"c  c #7F1620",
"v  c #442222",
"b  c #4B2626",
"n  c #4E2929",
"m  c #402828",
"M  c #522A2A",
"N  c #5B2E2E",
"B  c #52262B",
"V  c #5F3030",
"C  c #453A3A",
"Z  c #653333",
"A  c #6B3636",
"S  c #6E3838",
"D  c #743A3A",
"F  c #7B3E3E",
"G  c #7A343C",
"H  c #6D222A",
"J  c #00184A",
"K  c #001C56",
"L  c #082356",
"P  c #192F49",
"I  c #233C56",
"U  c #062667",
"Y  c #032A7A",
"T  c #10316D",
"R  c #263C62",
"E  c #733D43",
"W  c #5E3F45",
"Q  c #1C4343",
"!  c #174A4A",
"~  c #1B5454",
"^  c #234444",
"/  c #244B4B",
"(  c #294D4D",
")  c #234248",
"_  c #2B5454",
"`  c #2D5959",
"'  c #255656",
"]  c #305E5E",
"[  c #305253",
"{  c #2E4A50",
"}  c #325565",
"|  c #1E6464",
" . c #2D6565",
".. c #2E6D6D",
"X. c #226868",
"o. c #336262",
"O. c #366B6B",
"+. c #396D6D",
"@. c #396565",
"#. c #287575",
"$. c #327474",
"%. c #3C7474",
"&. c #357B7B",
"*. c #3E7A7A",
"=. c #484748",
"-. c #5D5C5D",
";. c #545556",
":. c #4D5254",
">. c #7F4040",
",. c #78474C",
"<. c #6D5151",
"1. c #446A6B",
"2. c #417D7D",
"3. c #4A7474",
"4. c #567474",
"5. c #686767",
"6. c #7B7B7B",
"7. c #757373",
"8. c #736968",
"9. c #8C0101",
"0. c #990803",
"q. c #BA0100",
"w. c #BA0F00",
"e. c #AB0600",
"r. c #851821",
"t. c #8D1924",
"y. c #9C1D26",
"u. c #981C26",
"i. c #AD1F2C",
"p. c #A31D29",
"a. c #8F2D31",
"s. c #B5202E",
"d. c #BC222F",
"f. c #BD2230",
"g. c #A3343F",
"h. c #882414",
"j. c #D03E18",
"k. c #C42332",
"l. c #CB2434",
"z. c #D12635",
"x. c #CF3423",
"c. c #CD4A09",
"v. c #E74916",
"b. c #873B42",
"n. c #9F3E46",
"m. c #B93A49",
"M. c #C93D4E",
"N. c #834242",
"B. c #894646",
"V. c #8E4848",
"C. c #8C4049",
"Z. c #934B4B",
"A. c #9A4F4F",
"S. c #9C5050",
"D. c #845557",
"F. c #B24C57",
"G. c #877169",
"H. c #DE4555",
"J. c #C04757",
"K. c #E04C5C",
"L. c #E1505F",
"P. c #CC5764",
"I. c #E25665",
"U. c #CF666D",
"Y. c #E4616F",
"T. c #022D85",
"R. c #0A3895",
"E. c #093DA4",
"W. c #294B8D",
"Q. c #0E46B6",
"!. c #134AB8",
"~. c #2855B0",
"^. c #3360B8",
"/. c #124DC3",
"(. c #1651C9",
"). c #1A58D7",
"_. c #275CC8",
"`. c #2E61CA",
"'. c #2364E9",
"]. c #286CF7",
"[. c #3373F6",
"{. c #1E5EE0",
"}. c #3B8383",
"|. c #3C8787",
" X c #438484",
".X c #468A8A",
"XX c #498D8D",
"oX c #5A8484",
"OX c #4C9393",
"+X c #4F9999",
"@X c #429292",
"#X c #519C9C",
"$X c #719393",
"%X c #55A3A3",
"&X c #58A7A7",
"*X c #5BACAC",
"=X c #888888",
"-X c #849D9D",
";X c #9C9C9C",
":X c #949494",
">X c #ADA298",
",X c #8AA5A5",
"<X c #9DB2B2",
"1X c #96ACAC",
"2X c #ACACAC",
"3X c #A6A4A4",
"4X c #B4B4B4",
"5X c #B8B8B8",
"6X c #AABBBB",
"7X c #AE8C8C",
"8X c #D59C9C",
"9X c #C8C3B8",
"0X c #B8C6C6",
"qX c #C7C7C7",
"wX c #DAD5C7",
"eX c #D8D9D9",
"rX c #C9D4D4",
"tX c #EDE8DD",
"yX c #F7EDDC",
"uX c #DBE2E2",
"iX c #E6E6E6",
"pX c #EBECEC",
"aX c #E6E9E6",
"sX c #FEF8E9",
"dX c #F3F4F4",
"fX c #FEFEFE",
"gX c #FDFAF2",
"hX c #F0F0EB",
"jX c #E7DDC9",
"kX c None",
/* pixels */
"kXkXkXkXkXkXkXkXkXkXkXkXkXkXkXkXkXkXkXkXkXkXkXkXkXkXkXkXkXkXkXkXkXkXkXkXkXkXkXkXkXkXkXkXkXkXkXkXkXkXkXkXkXkXkXkXkXkXkXkXkXkXkXkX",
"kXkXkXkXkXkXkXkXkXkXkXkXkXkXkXkXkXkXkXkXkXkXkXkXkXkXkXkXkXkXkXkXkXkXkXkXkXkXkXkXkXkXkXkXkXkXkXkXkXkXkXkXkXkXkXkXkXkXkXkXkXkXkXkX",
"kXkXkXkXkXkXkXkXkXkXkXkXkXkXkXkXkXkXkXkXkXkXkXkXkXkXkXkXkXkXkXkXkXkXkXkXkXkXkXkXkXkXkXkXkXkXkXkXkXkXkXkXkXkXkXkXkXkXkXkXkXkXkXkX",
"kXkXkXkXkXkXkXkXkXkXkXkXkXkXkXkXkXkXkXkXkXkXkXkXkXkXkXkXkXkXkXkXkXkXkXkXkXkXkXkXkXkXkXkXkXkXkXkXkXkXkXkXkXkXkXkXkXkXkXkXkXkXkXkX",
"kXkXkXkXkXkXkXkXkXkXkXkXkXkXkXkXkXkXkXkXkXkXkXkXkXkXkXkXkXkXkXkXkXkXkXkXkXkXkXkXkXkXkXkXkXkXkXkXkXkXkXkXkXkXkXkXkXkXkXkXkXkXkXkX",
"kXkXkXkXkXkXkXkXkXkXkXkXkXkXkXkXkXkXkXkXkXkXkXkXkXkXkX  kXkXkXkXkXkXkXkXkXkXkXkXkXkXkXkXkXkXkXkXkXkXkXkXkXkXkXkXkXkXkXkXkXkXkXkX",
"kXkXkXkXkXkXkXkXkXkXkXkXkXkXkXkXkXkXkXkXkXkXkXkXkXkX    kXkXkXkXkXkXkXkXkXkXkXkXkXkXkXkXkXkXkXkXkXkXkXkXkXkXkXkXkXkXkXkXkXkXkXkX",
"kXkXkXkXkXkXkXkXkXkXkXkXkXkXkXkXkXkXkXkXkXkXkXkXkXkX  kXkXkXkXkXkXkXkXkXkXkXkXkXkXkXkXkXkXkXkXkXkXkXkXkXkXkXkXkXkXkXkXkXkXkXkXkX",
"kXkXkXkXkXkXkXkXkXkXkXkXkXkXkXkXkXkXkXkXkXkXkXkXkX+ : kXkXkXkXkXkXkXkXkXkXkXkXkXkXkXkXkXkXkXkXkXkXkXkXkXkXkXkXkXkXkXkXkXkXkXkXkX",
"kXkXkXkXkXkXkXkXkXkXkXkXkXkXkXkXkXkXkXkXkXkXkXkX  b : kXkXkXkX    O > 1 b M M M b r < + .   kXkXkXkXkXkXkXkXkXkXkXkXkXkXkXkXkXkX",
"kXkXkXkXkXkXkXkXkXkXkXkXkXkXkXkXkXkXkXkXkXkXkXkX: Z O   O 1 N D V.Z.Z.Z.Z.V.V.Z.Z.Z.Z.A.Z.N.Z v : . kXkXkXkXkXkXkXkXkXkXkXkXkXkX",
"kXkXkXkXkXkXkXkXkXkXkXkXkXkXkXkXkXkXkXkXkXkXkX. S Z < Z B.V.V.N.N.N.>.N.>.>.N.N.>.>.N.>.N.N.V.V.V.F M : . kXkXkXkXkXkXkXkXkXkXkX",
"kXkXkXkXkXkXkXkXkXkXkXkXkXkXkXkXkX  O 1 b M M Z F D Z.B.>.F F F F a.>.N.N.N.N.N.N.N.a.,.>.>.F F F N.V.Z.Z . kXkXkXkXkXkXkXkXkXkX",
"kXkXkXkXkXkXkXkXkXkXkXkXkXkXkXkXkXkX  + v Z F N.S S D D D F D >.>.,.>.>.N.N.B.N.N.N.N.N.>.>.>.F F D S Z V . kXkXkXkXkXkXkXkXkXkX",
"kXkXkXkXkXkXkXkXkXkXkXkXkXkXkXkXkXkXkXkX  1 Z A S D D D F D F F F >.>.N.N.B.B.B.B.N.N.N.>.>.F F F F N.N.V 1 * . kXkXkXkXkXkXkXkX",
"kXkXkXkXkXkXkXkXkXkXkXkXkXkXkXkXkXkX. 1 N.B.F D S S S D D D D D F >.>.>.N.N.>.N.N.N.N.N.>.>.F F D F D S A Z A Z :   kXkXkXkXkXkX",
"kXkXkXkXkXkXkXkXkXkXkXkXkXkXkXkX    1 D S B.S.A.V.F N.N.F F F F F F >.>.>.>.>.>.N.>.>.>.>.F >.>.>.N.B.N.F V b -   kXkXkXkXkXkXkX",
"kXkXkXkXkXkXkXkXkXkXkXkXkXkXkXkXkXkX  . Z A.S.S.Z.N F A.S.S.A.A.Z.Z.Z.Z.V.V.Z.Z.Z.Z.Z.Z.A.A.A.S.S.S.S.S.S.S.V.M : . kXkXkXkXkXkX",
"kXkXkXkXkXkXkXkXkXkXkXkXkXkXkXkXkXkX  b Z D N.Z.A.N M Z A.S.B.S A.S.S.S.S.F B.S.A.S.S.S.A.S.S.S.S.S.S.S.A.Z.>.F >.D v O   kXkXkX",
"kXkXkXkXkXkXkXkXkXkXkXkXkXkXkXkXkXkX: Z Z Z Z Z A N M M Z V.N.M S A.S.S.Z.N Z S.S.A.S.S.S.S.S.Z.A.Z.V.>.D >.F Z M > O     kXkXkX",
"kXkXkXkXkXkXkXkXkXkXkXkXkXkXkXkXkX. B A Z Z A Z N M M b M N Z M M S V.Z.S M M B.Z.D N.Z.B.>.F N S S S S Z S >.B.N.D M O   kXkXkX",
"kXkXkXkXkXkXkXkXkXkXkXkXkXkXkXkXkX: Z Z Z Z Z Z V M M : v M M M M M V Z M M M M S N M V S A Z M N S Z Z Z Z Z Z V N 1   kXkXkXkX",
"kXkXkXkXkXkXkXkXkXkXkXkXkXkXkXkXkX< Z Z Z V V Z V n v 1 . v M M M M M M M M M M Z M M M V S N M M Z Z M Z Z D D N >   kXkXkXkXkX",
"kXkXkXkXkXkXkXkXkXkXkXkXkXkXkXkXkXb Z Z Z Z M N N M + O $ 6 < M : 1 M M M 1 b M M M M M M N M M n N M M M Z Z N.B.F N : .   kXkX",
"kXkXkXkXkXkXkXkXkXkXkXkXkXkXkXkX  M Z Z Z Z N M M M : 9 X +.9 < > $ : n M * O v M M v v M M M v : M M M M N Z V M N N b O   kXkX",
"kXkXkXkXkXkXkXkXkXkXkXkXkXkXkXkX. N Z M Z Z M M M M 1 ^ XX*.OXt * ( +.- i 9 .X8 , M : 6 : b M < % , M < M M Z A S , .   kXkXkXkX",
"kXkXkXkXkXkXkXkXkXkXkXkXkXkXkXkX. V Z N Z N M 1 > b b 7 #X#X#X#X( t #XOX/ _ %X#X_ + + OX+.- < + 2.9 1 . : M N Z >.+ kXkXkXkXkXkX",
"kXkXkXkXkXkXkXkXkXkXkXkXkXkXkXkX. V Z M V M M v % * : % #X#X#X#X#X2.%X&X&X#X&X&X&X%.6 %X%X+X( X +XXX6 8 0 < M M N b kXkXkXkXkXkX",
"kXkXkXkXkXkXkXkXkXkXkXkXkXkXkXkX. Z Z N N M M b 7 +.] 9 XX#X%X%X&X*X*X*X*X*X*X*X&X&X#X%X&X#X#X X#X#X X@.OX9 v M n N O kXkXkXkXkX",
"kXkXkXkXkXkXkXkXkXkXkXkXkXkXkXkX. N Z N M M M n $ %.o.( +.#X#X&X&X*X*X*X*X*X*X*X*X&X&X&X&X&X&X%X#X#X#X#X+X_ 1 b   : : kXkXkXkXkX",
"kXkXkXkXkXkXkXkXkXkXkXkXkXkXkXkX  N N N M M b M $ @.( ( ( XX X#X&X*X*X*X*X*X*X*X*X*X&X&X&X%X%X#X#X#X*.+X+X] 1 1   kX    kXkXkXkX",
"kXkXkXkXkXkXkXkXkXkXkXkXkXkXkXkX  B M M M M > v * 2._ ( _ +X2.#X&X*X*X*X*X*X*X*X*X*X&X&X&X%X&X&X#XOX( XXOX@.1 : kXkXkXkXkXkXkXkX",
"kXkXkXkXkXkXkXkXkXkXkXkXkXkXkXkX  1 M M M M : O + 2..X%.XX#X#X#X#X&X*X*X*X*X*X*X*X&X&X&X&X&X*X*X*X#XW.2.] O.1 O kXkXkXkXkXkXkXkX",
"kXkXkXkXkXkXkXkXkXkXkXkXkXkXkXkXkX: 1 b M M = 0 . +.+X.X%.@.o.@.O. X#X&X*X*X*X*X&X%X#X&X%X&X*X*X*X%X#Xo.( +.<   kXkXkXkXkXkXkXkX",
"kXkXkXkXkXkXkXkXkXkXkXkXkXkXkXkXkX    . v M , $.7 ` 2.@.3.<XrXuXqX$X%.OX%X*X*X&X&X%X%X&X%X%X*X&X&X#X#X*.o.2.> kXkXkXkXkXkXkXkXkX",
"kXkXkXkXkXkXkXkXkXkXkXkXkXkXkX  X % % . > M = 2. X/ ] 4.uXfXfXfXfXgX6XO.#X%X&X%X&X#X X+X%X%X&X#X#X+X+X+X+XXX-   kXkXkXkXkXkXkXkX",
"kXkXkXkXkXkXkXkXkXkXkXkXkXkX% ` .XXXXX@.+ M 6 XXOX` @.rXfXfXfXfXpXpXfX$X X%X%X%X%XXX( 2.%X#X#X+XoX3.%..X+X X% / X kXkXkXkXkXkXkX",
"kXkXkXkXkXkXkXkXkXkXkXkXkX$ 2.OX.X.X.X*.X v 8 OX Xo.oXfXfXfXfXfXpXpXpXeXO.#X%X#X%X#X X+X#X#X+X$XaXtX-XO.OX%.7 +X2.$ kXkXkXkXkXkX",
"kXkXkXkXkXkXkXkXkXkXkXkX  %.XX.X2.*.*.*.$ > t OX%.o.-XfXfXfXfXfXpXaXaXpX1.OX#X#X#X#X#X+X3.+X#XgXfXdXdX4. X+.t .XOX@.  kXkXkXkXkX",
"kXkXkXkXkXkXkXkXkXkXkXkX6 OX.X X*.*.%.*.8 + t OX+.] ,XfXfXdXdXpXaXaXaXpX1.XX#X#X#X#X#X#X+X+X,XfXfXdXpX1XO.O.9  X.XXX6 kXkXkXkXkX",
"kXkXkXkXkXkXkXkXkXkXkXkX_ XX.X*.%.%.%.*.^   ^ OX+.o.oXfXfXdXiXiXaXpXpXuXo.XX#X+X+X+X+X+X+XOX<XfXfXpXaX0Xo.+.9 *..XXX_ kXkXkXkXkX",
"kXkXkXkXkXkXkXkXkXkXkXkXo..X X*.*.%.%.%.o.  ( XX Xo.@.uXfXfXpXiXpXfXfX,Xo.OX+X+X+XOX+X+X+XOX,XfXaXaXpX<Xo.*.7 %..XXX` kXkXkXkXkX",
"kXkXkXkXkXkXkXkXkXkXkXkX_ .X.X*.%.*.%.*.%.X ( .XOX@.o.4.pXfXfXfXdXfX0X] *.OX+XOXOXOXOXOXOXOXoXdXdXdXdX4.+.OX7 %..X.X/ kXkXkXkXkX",
"kXkXkXkXkXkXkXkXkXkXkXkX6 .X.X*.%.%.%.%.%.5 `  XOX2.o.o.3.0XpXdXuX-X@.@.XXOXOXOXOXOXOXOXOXOX X-XfXdX1X]  XOX9 %..X X7 kXkXkXkXkX",
"kXkXkXkXkXkXkXkXkXkXkXkX  ` .X.X*.%.%.%.*.0 ] *..XOX%.] ] o.} @.] ]  ..XOXXXOXXXXXOXOXXXOXXXXXO.1.1.] +.XXOX0 %.XX`   kXkXkXkXkX",
"kXkXkXkXkXkXkXkXkXkXkXkXkX$ O..X X*.*.%.%._ @.] o.XX+X X@.] o.o.o.%.XXXXXXXXXXXXOXXXXXOXXXXXXXXX%. .%.OX.XOX9 *.*.% kXkXkXkXkXkX",
"kXkXkXkXkXkXkXkXkXkXkXkXkXkXX / *. X*.+. .+.%.%.%.*..XXX+XOXXXXXOXXXXXXXXX2.3.%.+.2.2.oXXXXXXX.XXXOXXX+.*.o.6 _ X kXkXkXkXkXkXkX",
"kXkXkXkXkXkXkXkXkXkXkXkXkXkXkX  X $ $ X $ O.%.%.%.+.O.%.O. X.X.X.X.X X1.-.;.W W ,.<.-.} O.2..X.X XXX*.%.` X     kXkXkXkXkXkXkXkX",
"kXkXkXkXkXkXkXkXkXkXkXkXkXkXkXkXkXkXkXkX; O 9 o.%.+.+.` / %.2..X3.1.D.B.G.9XaXtX9X>XG.,.,.:.O. X}.*.] 8   kXkXkXkXkXkXkXkXkXkXkX",
"kXkXkXkXkXkXkXkXkXkXkXkXkXkXkXkXkXkXkX@ g h a + & 0 ` @.o.%.%.O.-.J.D.wXyXsXfXgXgXsXyXaX>XE ;.] ` 7 o kXkXkXkXkXkXkXkXkXkXkXkXkX",
"kXkXkXkXkXkXkXkXkXkXkXkXkXkXkXkXkXkXkXp a f t.p.t.h p + * 6 9 =.M.M.D.wXyXsXfXgXhXtXjXhXwXB 1 o   kXkXkXkXkXkXkXkXkXkXkXkXkXkXkX",
"kXkXkXkXkXkXkXkXkXkXkXkXkXkXkXkXkXkX. p h h.j h i.i.s.s.i.u.c j ; ; . x G.9XgXgX>.n.a.b.* kXkXkXkXkXkXkXkXkXkXkXkXkXkXkXkXkXkXkX",
"kXkXkXkXkXkXkXkXkXkXkXkXkXkXkXkXkX. a h u.i.x.k u.i.s.f.f.k.z.v.f x.k H M.g.a.<.a.H.H.m.kXkXkXkXkXkXkXkXkXkXkXkXkXkXkXkXkXkXkXkX",
"kXkXkXkXkXkXkXkXkXkXkXkXkXkXkXkXkX; f r.y.p.s.c.g i.s.f.k.l.z.v.g d.c.B K.H.H.H.H.H.H.F.kXkXkXkXkXkXkXkXkXkXkXkXkXkXkXkXkXkXkXkX",
"kXkXkXkXkXkXkXkXkXkXkXkXkXkXkXkXkX; g r.y.i.d.v.p i.s.f.k.l.z.v.g k.x.z I.L.I.H.L.I.I.G kXkXkXkXkXkXkXkXkXkXkXkXkXkXkXkXkXkXkXkX",
"kXkXkXkXkXkXkXkXkXkXkXkXkXkXkXkXkX; f r.g r.r.y.k u.s.f.k.l.z.v.g h y.k E Y.I.I.I.I.F.kXkXkXkXkXkXkXkXkXkXkXkXkXkXkXkXkXkXkXkXkX",
"kXkXkXkXkXkXkXkXkXkXkXkXkXkXkXkX@ ; 3 2 t t _ : p h s.d.k.l.z.c.6 ^ ,     E F.U.P.C.kXkXkXkXkXkXkXkXkXkXkXkXkXkXkXkXkXkXkXkXkXkX",
"kXkXkXkXkXkXkXkXkXkXkXkXkXkXkXkX3 @ : _ 3.+X&Xu p.p.s.d.k.l.x.c. .@X_ kXkXkXkXkX:   kXkXkXkXkXkXkXkXkXkXkXkXkXkXkXkXkXkXkXkXkXkX",
"kXkXkXkXkXkXkXkXkXkXkXkXkXkXkXkX6 3 k +.2.+X+X[ u.p.t.d.k.p.v.k O.$.! kXkXkXkXkXQ / kXkXkXkXkXkXkXkXkXkXkXkXkXkXkXkXkXkXkXkXkXkX",
"kXkXkXkXkXkXkXkXkXkXkXkXkXkXkXkX' i 2 ] %.XX.X%.e 2 t t.d.e z % $.}.}.$./ 6 kX_ $.7   kX% '  ./ $ kXkXkXkXkXkXkXkXkXkXkXkXkXkXkX",
"kXkXkXkXkXkXkXkXkXkXkXkXkXkXkXkXO.^ ^ ^ %.XXOXXX%X+.^ 3 h.` ] ^ &.&.&.@X@X}./ }.o.0 / ' $.+.` $. .$ kXkXkXkXkXkXkXkXkXkXkXkXkXkX",
"kXkXkXkXkXkXkXkXkXkXkXkXkXkXkXkX%.%.*.@.$. XOXOX%X&X#X@.e o..X^  .#.}.|..X|.&.W.&.&.|.@X}.0 X 6 / % kXkXkXkXkXkXkXkXkXkXkXkXkXkX",
"kXkXkXkXkXkXkXkXkXkXkXkXkXkXkX6 %.%..XOX@.2.XXOX+X%X%X#XOX] _ ^ / Q Q ..}.|.}.}.}.&.|..X|.7 0 5   kXkXkXkXkXkXkXkXkXkXkXkXkXkXkX",
"kXkXkXkXkXkXkXkXkXkXkXkXkXkXkX$ ] ] %.W.( o.*.2.XXOX+X#X+X+X+X%X+X+Xo.Q ..$.#.$.&.&.}.&.}.}.$.&.9 kXkXkXkXkXkXkXkXkXkXkXkXkXkXkX",
"kXkXkXkXkXkXkXkXkXkXkXkXkXkXkXP R R I I I 9 I I +. XXXOX.X+X#X%X+X^ % 6 0 ' ..$.$.&.&.$.&.Q 7 '  .kXkXkXkXkXkXkXkXkXkXkXkXkXkXkX",
"kXkXkXkXkXkXkXkXkXkXkXkXkXkXkX4 R.R.Q._.~.`._._.T ) O.2..XOX#X&X#X+.kXkXkXX Q ......$. .$.9 kX%  .7 kXkXkXkXkXkXkXkXkXkXkXkXkXkX",
"kXkXkXkXkXkXkXkXkXkXkXkXkXkXkX# Y T./.'.`.L Q.(.(./.T 1. XOX#X&X&X%X[ kXkXkXkX7 ^ ' _ / ` ..0 kX$ X kXkXkXkXkXkXkXkXkXkXkXkXkXkX",
"kXkXkXkXkXkXkXkXkXkXkXkXkXkXkXkXU E._.'.[.~.Y !././.R.^  X.XOX#X%X#X#XW.^ kXkXkXkX    kX. ! / kXkXkXkXkXkXkXkXkXkXkXkXkXkXkXkXkX",
"kXkXkXkXkXkXkXkXkXkXkXkXkXkXkX# Y E.(.{.].[.L L K J J & +.%..X+X+XXX+.%..XQ kXkXkXkXkXkXkX^ 0 kXkXkXkXkXkXkXkXkXkXkXkXkXkXkXkXkX",
"kXkXkXkXkXkXkXkXkXkXkXkXkXkXkX# T.R./.).].].W.  kXX J K ^ %..XXX+XO.o o +.` kXkXkXkXkXkXkX7 5 kXkXkXkXkXkXkXkXkXkXkXkXkXkXkXkXkX",
"kXkXkXkXkXkXkXkXkXkXkXkXkXkXkX  Y T.E.).{.].[.* kX# U T.Y Q *. X+.@X+.  ] ] kXkXkXkXkXkXkXkXkXkXkXkXkXkXkXkXkXkXkXkXkXkXkXkXkXkX",
"kXkXkXkXkXkXkXkXkXkXkXkXkXkXkXkXJ Y E.).{.].].W.kXkXK T.!.T ] O.7 ( .X% 7 0 kXkXkXkXkXkXkXkXkXkXkXkXkXkXkXkXkXkXkXkXkXkXkXkXkXkX",
"kXkXkXkXkXkXkXkXkXkXkXkXkXkXkXkX# T.R./.).'.].^.o kXK Y Q.U _ O.W.I *.$ kXkXkXkXkXkXkXkXkXkXkXkXkXkXkXkXkXkXkXkXkXkXkXkXkXkXkXkX",
"kXkXkXkXkXkXkXkXkXkXkXkXkXkXkXkX# U T.Q.T L T #   kXJ K K O.2.6 4 o.] kXkXkXkXkXkXkXkXkXkXkXkXkXkXkXkXkXkXkXkXkXkXkXkXkXkXkXkXkX",
"kXkXkXkXkXkXkXkXkXkXkXkXkXkXkXkXkXJ K U / ` O.% kXX 5 ! 5 0 7 w   0 6 kXkXkXkXkXkXkXkXkXkXkXkXkXkXkXkXkXkXkXkXkXkXkXkXkXkXkXkXkX",
"kXkXkXkXkXkXkXkXkXkXkXkXkXkXkXkXkX4 # 7 +.#X%X2.5 ! ~ | | ~ | ! kXkXkXkXkXkXkXkXkXkXkXkXkXkXkXkXkXkXkXkXkXkXkXkXkXkXkXkXkXkXkXkX",
"kXkXkXkXkXkXkXkXkXkXkXkXkXkXkXkXkX  kX9  X#X%X&X0 | | #.#.#.| $ kXkXkXkXkXkXkXkXkXkXkXkXkXkXkXkXkXkXkXkXkXkXkXkXkXkXkXkXkXkXkXkX",
"kXkXkXkXkXkXkXkXkXkXkXkXkXkXkX= C r . 0 .X#X&X&X! #.#.#.#.#.| kXkXkXkXkXkXkXkXkXkXkXkXkXkXkXkXkXkXkXkXkXkXkXkXkXkXkXkXkXkXkXkXkX",
"kXkXkXkXkXkXkXkXkXkXkXkXkX. V 2X7Xy.d 0 .XOX%X#X! X.#.#.&.~ kXkXkXkXkXkXkXkXkXkXkXkXkXkXkXkXkXkXkXkXkXkXkXkXkXkXkXkXkXkXkXkXkXkX",
"kXkXkXkXkXkXkXkXkXkXkXy y a d 9.9.9.d ^ XX+X%X.X~ ~ q % kXkXkXkXkXkXkXkXkXkXkXkXkXkXkXkXkXkXkXkXkXkXkXkXkXkXkXkXkXkXkXkXkXkXkXkX",
"kXkXkXkXkXkXkXkXkXkX  6.:X> s 9.9.9.d ^  X#X#X X$ kXkXkXkXkXkXkXkXkXkXkXkXkXkXkXkXkXkXkXkXkXkXkXkXkXkXkXkXkXkXkXkXkXkXkXkXkXkXkX",
"kXkXkXkXkXkXkXkXkXkXkXy 2X6.; 3 m C r ( .X+X+X2.kXkXkXkXkXkXkXkXkXkXkXkXkXkXkXkXkXkXkXkXkXkXkXkXkXkXkXkXkXkXkXkXkXkXkXkXkXkXkXkX",
"kXkXkXkXkXkXkXkXkXkXkXkX7.4X;.8.;X;X$X{ XXXX X@.kXkXkXkXkXkXkXkXkXkXkXkXkXkXkXkXkXkXkXkXkXkXkXkXkXkXkXkXkXkXkXkXkXkXkXkXkXkXkXkX",
"kXkXkXkXkXkXkXkXkXkXkXkX- 3X3Xy ;X2XG.9 ( [ 5.5.= kXkXkXkXkXkXkXkXkXkXkXkXkXkXkXkXkXkXkXkXkXkXkXkXkXkXkXkXkXkXkXkXkXkXkXkXkXkXkX",
"kXkXkXkXkXkXkXkXkXkXkXkXkX:.2X6.-.;X-.2XwXaXhXeX-.kXkXkXkXkXkXkXkXkXkXkXkXkXkXkXkXkXkXkXkXkXkXkXkXkXkXkXkXkXkXkXkXkXkXkXkXkXkXkX",
"kXkXkXkXkXkXkXkXkXkXkXkXkXkX6.5X{ 5.6.pX2X7.W 1 - 5.3X4X:X;.- kXkXkXkXkXkXkXkXkXkXkXkXkXkXkXkXkXkXkXkXkXkXkXkXkXkXkXkXkXkXkXkXkX",
"kXkXkXkXkXkXkXkXkXkXkXkXkXkXe 2X3XC y l d w.0.C eXfXfXfXfXfXqXe kXkXkXkXkXkXkXkXkXkXkXkXkXkXkXkXkXkXkXkXkXkXkXkXkXkXkXkXkXkXkXkX",
"kXkXkXkXkXkXkXkXkXkXkXkXkXkXkX:.5X;.a w.w.e.n rXiXfXfXfXfXfXfXqX= kXkXkXkXkXkXkXkXkXkXkXkXkXkXkXkXkXkXkXkXkXkXkXkXkXkXkXkXkXkXkX",
"kXkXkXkXkXkXkXkXkXkXkXkXkXkXkXkX=X=.8Xq.q.s =XiXiXhXfXfXfXfXdXaX:XkXkXkXkXkXkXkXkXkXkXkXkXkXkXkXkXkXkXkXkXkXkXkXkXkXkXkXkXkXkXkX",
"kXkXkXkXkXkXkXkXkXkXkXkXkXkXkXkX- 5.8Xq.q.n qXiXiXaXaXdXdXhXaXaXeXe kXkXkXkXkXkXkXkXkXkXkXkXkXkXkXkXkXkXkXkXkXkXkXkXkXkXkXkXkXkX",
"kXkXkXkXkXkXkXkXkXkXkXkXkXkXkXkXkX8.U.q.9.7.qXrXuXiXiXeXrX5X;X6.-.e kXkXkXkXkXkXkXkXkXkXkXkXkXkXkXkXkXkXkXkXkXkXkXkXkXkXkXkXkXkX",
"kXkXkXkXkXkXkXkXkXkXkXkXkXkXkXkXkXa 0.0.s ;XqX2X=X5.=.=.;.G.5XuXrX3X. kXkXkXkXkXkXkXkXkXkXkXkXkXkXkXkXkXkXkXkXkXkXkXkXkXkXkXkXkX",
"kXkXkXkXkXkXkXkXkXkXkXkXkXkXkXkXkX; d s 3 =.=.-.=X5XeXiXiXiXpXuX2X5.o kXkXkXkXkXkXkXkXkXkXkXkXkXkXkXkXkXkXkXkXkXkXkXkXkXkXkXkXkX",
"kXkXkXkXkXkXkXkXkXkXkXkXkXkXkXkXkXy 7.4XrXuXiXiXiXeX5X:X5.y e * kXkXkXkXkXkXkXkXkXkXkXkXkXkXkXkXkXkXkXkXkXkXkXkXkXkXkXkXkXkXkXkX",
"kXkXkXkXkXkXkXkXkXkXkXkXkXkXkXkXkX-.qXqX5X=X5.u -   kXkXkXkXkXkXkXkXkXkXkXkXkXkXkXkXkXkXkXkXkXkXkXkXkXkXkXkXkXkXkXkXkXkXkXkXkXkX",
"kXkXkXkXkXkXkXkXkXkXkXkXkXkXkXkXkX* = O . kXkXkXkXkXkXkXkXkXkXkXkXkXkXkXkXkXkXkXkXkXkXkXkXkXkXkXkXkXkXkXkXkXkXkXkXkXkXkXkXkXkXkX"
};
